<?xml version="1.0" encoding="utf-8" standalone="no"?>
<!DOCTYPE svg PUBLIC "-//W3C//DTD SVG 1.1//EN"
  "http://www.w3.org/Graphics/SVG/1.1/DTD/svg11.dtd">
<!-- Created with matplotlib (https://matplotlib.org/) -->
<svg height="345.6pt" version="1.1" viewBox="0 0 460.8 345.6" width="460.8pt" xmlns="http://www.w3.org/2000/svg" xmlns:xlink="http://www.w3.org/1999/xlink">
 <defs>
  <style type="text/css">
*{stroke-linecap:butt;stroke-linejoin:round;}
  </style>
 </defs>
 <g id="figure_1">
  <g id="patch_1">
   <path d="M 0 345.6 
L 460.8 345.6 
L 460.8 0 
L 0 0 
z
" style="fill:#ffffff;"/>
  </g>
  <g id="axes_1">
   <g id="patch_2">
    <path d="M 57.6 307.584 
L 343.296 307.584 
L 343.296 41.472 
L 57.6 41.472 
z
" style="fill:#ffffff;"/>
   </g>
   <g id="matplotlib.axis_1">
    <g id="xtick_1">
     <g id="line2d_1">
      <defs>
       <path d="M 0 0 
L 0 3.5 
" id="m754b5861ce" style="stroke:#000000;stroke-width:0.8;"/>
      </defs>
      <g>
       <use style="stroke:#000000;stroke-width:0.8;" x="57.6" xlink:href="#m754b5861ce" y="307.584"/>
      </g>
     </g>
     <g id="text_1">
      <!-- −10.0 -->
      <defs>
       <path d="M 10.59375 35.5 
L 73.1875 35.5 
L 73.1875 27.203125 
L 10.59375 27.203125 
z
" id="DejaVuSans-8722"/>
       <path d="M 12.40625 8.296875 
L 28.515625 8.296875 
L 28.515625 63.921875 
L 10.984375 60.40625 
L 10.984375 69.390625 
L 28.421875 72.90625 
L 38.28125 72.90625 
L 38.28125 8.296875 
L 54.390625 8.296875 
L 54.390625 0 
L 12.40625 0 
z
" id="DejaVuSans-49"/>
       <path d="M 31.78125 66.40625 
Q 24.171875 66.40625 20.328125 58.90625 
Q 16.5 51.421875 16.5 36.375 
Q 16.5 21.390625 20.328125 13.890625 
Q 24.171875 6.390625 31.78125 6.390625 
Q 39.453125 6.390625 43.28125 13.890625 
Q 47.125 21.390625 47.125 36.375 
Q 47.125 51.421875 43.28125 58.90625 
Q 39.453125 66.40625 31.78125 66.40625 
z
M 31.78125 74.21875 
Q 44.046875 74.21875 50.515625 64.515625 
Q 56.984375 54.828125 56.984375 36.375 
Q 56.984375 17.96875 50.515625 8.265625 
Q 44.046875 -1.421875 31.78125 -1.421875 
Q 19.53125 -1.421875 13.0625 8.265625 
Q 6.59375 17.96875 6.59375 36.375 
Q 6.59375 54.828125 13.0625 64.515625 
Q 19.53125 74.21875 31.78125 74.21875 
z
" id="DejaVuSans-48"/>
       <path d="M 10.6875 12.40625 
L 21 12.40625 
L 21 0 
L 10.6875 0 
z
" id="DejaVuSans-46"/>
      </defs>
      <g transform="translate(42.277344 322.182437)scale(0.1 -0.1)">
       <use xlink:href="#DejaVuSans-8722"/>
       <use x="83.789062" xlink:href="#DejaVuSans-49"/>
       <use x="147.412109" xlink:href="#DejaVuSans-48"/>
       <use x="211.035156" xlink:href="#DejaVuSans-46"/>
       <use x="242.822266" xlink:href="#DejaVuSans-48"/>
      </g>
     </g>
    </g>
    <g id="xtick_2">
     <g id="line2d_2">
      <g>
       <use style="stroke:#000000;stroke-width:0.8;" x="93.312" xlink:href="#m754b5861ce" y="307.584"/>
      </g>
     </g>
     <g id="text_2">
      <!-- −7.5 -->
      <defs>
       <path d="M 8.203125 72.90625 
L 55.078125 72.90625 
L 55.078125 68.703125 
L 28.609375 0 
L 18.3125 0 
L 43.21875 64.59375 
L 8.203125 64.59375 
z
" id="DejaVuSans-55"/>
       <path d="M 10.796875 72.90625 
L 49.515625 72.90625 
L 49.515625 64.59375 
L 19.828125 64.59375 
L 19.828125 46.734375 
Q 21.96875 47.46875 24.109375 47.828125 
Q 26.265625 48.1875 28.421875 48.1875 
Q 40.625 48.1875 47.75 41.5 
Q 54.890625 34.8125 54.890625 23.390625 
Q 54.890625 11.625 47.5625 5.09375 
Q 40.234375 -1.421875 26.90625 -1.421875 
Q 22.3125 -1.421875 17.546875 -0.640625 
Q 12.796875 0.140625 7.71875 1.703125 
L 7.71875 11.625 
Q 12.109375 9.234375 16.796875 8.0625 
Q 21.484375 6.890625 26.703125 6.890625 
Q 35.15625 6.890625 40.078125 11.328125 
Q 45.015625 15.765625 45.015625 23.390625 
Q 45.015625 31 40.078125 35.4375 
Q 35.15625 39.890625 26.703125 39.890625 
Q 22.75 39.890625 18.8125 39.015625 
Q 14.890625 38.140625 10.796875 36.28125 
z
" id="DejaVuSans-53"/>
      </defs>
      <g transform="translate(81.170594 322.182437)scale(0.1 -0.1)">
       <use xlink:href="#DejaVuSans-8722"/>
       <use x="83.789062" xlink:href="#DejaVuSans-55"/>
       <use x="147.412109" xlink:href="#DejaVuSans-46"/>
       <use x="179.199219" xlink:href="#DejaVuSans-53"/>
      </g>
     </g>
    </g>
    <g id="xtick_3">
     <g id="line2d_3">
      <g>
       <use style="stroke:#000000;stroke-width:0.8;" x="129.024" xlink:href="#m754b5861ce" y="307.584"/>
      </g>
     </g>
     <g id="text_3">
      <!-- −5.0 -->
      <g transform="translate(116.882594 322.182437)scale(0.1 -0.1)">
       <use xlink:href="#DejaVuSans-8722"/>
       <use x="83.789062" xlink:href="#DejaVuSans-53"/>
       <use x="147.412109" xlink:href="#DejaVuSans-46"/>
       <use x="179.199219" xlink:href="#DejaVuSans-48"/>
      </g>
     </g>
    </g>
    <g id="xtick_4">
     <g id="line2d_4">
      <g>
       <use style="stroke:#000000;stroke-width:0.8;" x="164.736" xlink:href="#m754b5861ce" y="307.584"/>
      </g>
     </g>
     <g id="text_4">
      <!-- −2.5 -->
      <defs>
       <path d="M 19.1875 8.296875 
L 53.609375 8.296875 
L 53.609375 0 
L 7.328125 0 
L 7.328125 8.296875 
Q 12.9375 14.109375 22.625 23.890625 
Q 32.328125 33.6875 34.8125 36.53125 
Q 39.546875 41.84375 41.421875 45.53125 
Q 43.3125 49.21875 43.3125 52.78125 
Q 43.3125 58.59375 39.234375 62.25 
Q 35.15625 65.921875 28.609375 65.921875 
Q 23.96875 65.921875 18.8125 64.3125 
Q 13.671875 62.703125 7.8125 59.421875 
L 7.8125 69.390625 
Q 13.765625 71.78125 18.9375 73 
Q 24.125 74.21875 28.421875 74.21875 
Q 39.75 74.21875 46.484375 68.546875 
Q 53.21875 62.890625 53.21875 53.421875 
Q 53.21875 48.921875 51.53125 44.890625 
Q 49.859375 40.875 45.40625 35.40625 
Q 44.1875 33.984375 37.640625 27.21875 
Q 31.109375 20.453125 19.1875 8.296875 
z
" id="DejaVuSans-50"/>
      </defs>
      <g transform="translate(152.594594 322.182437)scale(0.1 -0.1)">
       <use xlink:href="#DejaVuSans-8722"/>
       <use x="83.789062" xlink:href="#DejaVuSans-50"/>
       <use x="147.412109" xlink:href="#DejaVuSans-46"/>
       <use x="179.199219" xlink:href="#DejaVuSans-53"/>
      </g>
     </g>
    </g>
    <g id="xtick_5">
     <g id="line2d_5">
      <g>
       <use style="stroke:#000000;stroke-width:0.8;" x="200.448" xlink:href="#m754b5861ce" y="307.584"/>
      </g>
     </g>
     <g id="text_5">
      <!-- 0.0 -->
      <g transform="translate(192.496438 322.182437)scale(0.1 -0.1)">
       <use xlink:href="#DejaVuSans-48"/>
       <use x="63.623047" xlink:href="#DejaVuSans-46"/>
       <use x="95.410156" xlink:href="#DejaVuSans-48"/>
      </g>
     </g>
    </g>
    <g id="xtick_6">
     <g id="line2d_6">
      <g>
       <use style="stroke:#000000;stroke-width:0.8;" x="236.16" xlink:href="#m754b5861ce" y="307.584"/>
      </g>
     </g>
     <g id="text_6">
      <!-- 2.5 -->
      <g transform="translate(228.208438 322.182437)scale(0.1 -0.1)">
       <use xlink:href="#DejaVuSans-50"/>
       <use x="63.623047" xlink:href="#DejaVuSans-46"/>
       <use x="95.410156" xlink:href="#DejaVuSans-53"/>
      </g>
     </g>
    </g>
    <g id="xtick_7">
     <g id="line2d_7">
      <g>
       <use style="stroke:#000000;stroke-width:0.8;" x="271.872" xlink:href="#m754b5861ce" y="307.584"/>
      </g>
     </g>
     <g id="text_7">
      <!-- 5.0 -->
      <g transform="translate(263.920437 322.182437)scale(0.1 -0.1)">
       <use xlink:href="#DejaVuSans-53"/>
       <use x="63.623047" xlink:href="#DejaVuSans-46"/>
       <use x="95.410156" xlink:href="#DejaVuSans-48"/>
      </g>
     </g>
    </g>
    <g id="xtick_8">
     <g id="line2d_8">
      <g>
       <use style="stroke:#000000;stroke-width:0.8;" x="307.584" xlink:href="#m754b5861ce" y="307.584"/>
      </g>
     </g>
     <g id="text_8">
      <!-- 7.5 -->
      <g transform="translate(299.632438 322.182437)scale(0.1 -0.1)">
       <use xlink:href="#DejaVuSans-55"/>
       <use x="63.623047" xlink:href="#DejaVuSans-46"/>
       <use x="95.410156" xlink:href="#DejaVuSans-53"/>
      </g>
     </g>
    </g>
    <g id="xtick_9">
     <g id="line2d_9">
      <g>
       <use style="stroke:#000000;stroke-width:0.8;" x="343.296" xlink:href="#m754b5861ce" y="307.584"/>
      </g>
     </g>
     <g id="text_9">
      <!-- 10.0 -->
      <g transform="translate(332.163188 322.182437)scale(0.1 -0.1)">
       <use xlink:href="#DejaVuSans-49"/>
       <use x="63.623047" xlink:href="#DejaVuSans-48"/>
       <use x="127.246094" xlink:href="#DejaVuSans-46"/>
       <use x="159.033203" xlink:href="#DejaVuSans-48"/>
      </g>
     </g>
    </g>
   </g>
   <g id="matplotlib.axis_2">
    <g id="ytick_1">
     <g id="line2d_10">
      <defs>
       <path d="M 0 0 
L -3.5 0 
" id="m8308566e9e" style="stroke:#000000;stroke-width:0.8;"/>
      </defs>
      <g>
       <use style="stroke:#000000;stroke-width:0.8;" x="57.6" xlink:href="#m8308566e9e" y="307.584"/>
      </g>
     </g>
     <g id="text_10">
      <!-- −10.0 -->
      <g transform="translate(19.954687 311.383219)scale(0.1 -0.1)">
       <use xlink:href="#DejaVuSans-8722"/>
       <use x="83.789062" xlink:href="#DejaVuSans-49"/>
       <use x="147.412109" xlink:href="#DejaVuSans-48"/>
       <use x="211.035156" xlink:href="#DejaVuSans-46"/>
       <use x="242.822266" xlink:href="#DejaVuSans-48"/>
      </g>
     </g>
    </g>
    <g id="ytick_2">
     <g id="line2d_11">
      <g>
       <use style="stroke:#000000;stroke-width:0.8;" x="57.6" xlink:href="#m8308566e9e" y="274.32"/>
      </g>
     </g>
     <g id="text_11">
      <!-- −7.5 -->
      <g transform="translate(26.317187 278.119219)scale(0.1 -0.1)">
       <use xlink:href="#DejaVuSans-8722"/>
       <use x="83.789062" xlink:href="#DejaVuSans-55"/>
       <use x="147.412109" xlink:href="#DejaVuSans-46"/>
       <use x="179.199219" xlink:href="#DejaVuSans-53"/>
      </g>
     </g>
    </g>
    <g id="ytick_3">
     <g id="line2d_12">
      <g>
       <use style="stroke:#000000;stroke-width:0.8;" x="57.6" xlink:href="#m8308566e9e" y="241.056"/>
      </g>
     </g>
     <g id="text_12">
      <!-- −5.0 -->
      <g transform="translate(26.317187 244.855219)scale(0.1 -0.1)">
       <use xlink:href="#DejaVuSans-8722"/>
       <use x="83.789062" xlink:href="#DejaVuSans-53"/>
       <use x="147.412109" xlink:href="#DejaVuSans-46"/>
       <use x="179.199219" xlink:href="#DejaVuSans-48"/>
      </g>
     </g>
    </g>
    <g id="ytick_4">
     <g id="line2d_13">
      <g>
       <use style="stroke:#000000;stroke-width:0.8;" x="57.6" xlink:href="#m8308566e9e" y="207.792"/>
      </g>
     </g>
     <g id="text_13">
      <!-- −2.5 -->
      <g transform="translate(26.317187 211.591219)scale(0.1 -0.1)">
       <use xlink:href="#DejaVuSans-8722"/>
       <use x="83.789062" xlink:href="#DejaVuSans-50"/>
       <use x="147.412109" xlink:href="#DejaVuSans-46"/>
       <use x="179.199219" xlink:href="#DejaVuSans-53"/>
      </g>
     </g>
    </g>
    <g id="ytick_5">
     <g id="line2d_14">
      <g>
       <use style="stroke:#000000;stroke-width:0.8;" x="57.6" xlink:href="#m8308566e9e" y="174.528"/>
      </g>
     </g>
     <g id="text_14">
      <!-- 0.0 -->
      <g transform="translate(34.696875 178.327219)scale(0.1 -0.1)">
       <use xlink:href="#DejaVuSans-48"/>
       <use x="63.623047" xlink:href="#DejaVuSans-46"/>
       <use x="95.410156" xlink:href="#DejaVuSans-48"/>
      </g>
     </g>
    </g>
    <g id="ytick_6">
     <g id="line2d_15">
      <g>
       <use style="stroke:#000000;stroke-width:0.8;" x="57.6" xlink:href="#m8308566e9e" y="141.264"/>
      </g>
     </g>
     <g id="text_15">
      <!-- 2.5 -->
      <g transform="translate(34.696875 145.063219)scale(0.1 -0.1)">
       <use xlink:href="#DejaVuSans-50"/>
       <use x="63.623047" xlink:href="#DejaVuSans-46"/>
       <use x="95.410156" xlink:href="#DejaVuSans-53"/>
      </g>
     </g>
    </g>
    <g id="ytick_7">
     <g id="line2d_16">
      <g>
       <use style="stroke:#000000;stroke-width:0.8;" x="57.6" xlink:href="#m8308566e9e" y="108"/>
      </g>
     </g>
     <g id="text_16">
      <!-- 5.0 -->
      <g transform="translate(34.696875 111.799219)scale(0.1 -0.1)">
       <use xlink:href="#DejaVuSans-53"/>
       <use x="63.623047" xlink:href="#DejaVuSans-46"/>
       <use x="95.410156" xlink:href="#DejaVuSans-48"/>
      </g>
     </g>
    </g>
    <g id="ytick_8">
     <g id="line2d_17">
      <g>
       <use style="stroke:#000000;stroke-width:0.8;" x="57.6" xlink:href="#m8308566e9e" y="74.736"/>
      </g>
     </g>
     <g id="text_17">
      <!-- 7.5 -->
      <g transform="translate(34.696875 78.535219)scale(0.1 -0.1)">
       <use xlink:href="#DejaVuSans-55"/>
       <use x="63.623047" xlink:href="#DejaVuSans-46"/>
       <use x="95.410156" xlink:href="#DejaVuSans-53"/>
      </g>
     </g>
    </g>
    <g id="ytick_9">
     <g id="line2d_18">
      <g>
       <use style="stroke:#000000;stroke-width:0.8;" x="57.6" xlink:href="#m8308566e9e" y="41.472"/>
      </g>
     </g>
     <g id="text_18">
      <!-- 10.0 -->
      <g transform="translate(28.334375 45.271219)scale(0.1 -0.1)">
       <use xlink:href="#DejaVuSans-49"/>
       <use x="63.623047" xlink:href="#DejaVuSans-48"/>
       <use x="127.246094" xlink:href="#DejaVuSans-46"/>
       <use x="159.033203" xlink:href="#DejaVuSans-48"/>
      </g>
     </g>
    </g>
   </g>
   <g id="LineCollection_1"/>
   <g id="LineCollection_2">
    <path clip-path="url(#pf628d99293)" d="M 156.681952 41.472 
L 162.403055 43.798839 
L 168.145688 46.393875 
L 174.409365 49.495477 
L 181.066613 53.076404 
L 186.809246 56.384022 
L 193.987538 60.792386 
L 201.253933 65.542432 
L 208.953193 70.891417 
L 216.241099 76.240402 
L 223.176463 81.589387 
L 229.878995 86.998915 
L 237.698732 93.624603 
L 245.210406 100.310834 
L 252.369171 106.997065 
L 259.199325 113.683296 
L 265.770452 120.420588 
L 271.938162 127.055759 
L 277.863433 133.74199 
L 283.498803 140.428221 
L 288.844271 147.114452 
L 293.886438 153.800683 
L 298.625899 160.486915 
L 302.181569 165.835899 
L 305.968884 171.9302 
L 308.840201 176.910136 
L 311.711518 182.321999 
L 314.072558 187.231839 
L 316.018492 191.750679 
L 317.454151 195.508149 
L 318.889809 199.900537 
L 319.79766 203.278794 
L 320.617413 207.290533 
L 320.979443 209.965025 
L 321.173985 212.639518 
L 321.169843 215.31401 
L 320.927559 217.988503 
L 320.325467 220.91142 
L 319.469716 223.337487 
L 318.831063 224.674734 
L 317.454151 226.797108 
L 316.018492 228.42386 
L 314.582834 229.665581 
L 313.147176 230.644504 
L 311.711518 231.436074 
L 308.840201 232.566288 
L 307.404543 232.960512 
L 304.533226 233.489916 
L 301.66191 233.742142 
L 298.790593 233.766448 
L 295.919276 233.601074 
L 291.612302 233.061588 
L 287.305327 232.225224 
L 282.998352 231.141709 
L 278.691377 229.840526 
L 272.948744 227.809505 
L 267.206111 225.484372 
L 261.463477 222.896324 
L 255.720844 220.06844 
L 249.308476 216.651256 
L 242.79992 212.922889 
L 235.621628 208.523687 
L 228.443337 203.833127 
L 221.265045 198.867984 
L 214.086754 193.630612 
L 206.908462 188.121013 
L 199.730171 182.339185 
L 192.551879 176.279372 
L 185.282164 169.847638 
L 178.07597 163.161407 
L 171.017005 156.291483 
L 163.838714 148.949167 
L 158.09608 142.791958 
L 152.353447 136.350258 
L 146.610814 129.578629 
L 140.868181 122.421413 
L 136.265906 116.357789 
L 131.486306 109.671558 
L 127.888043 104.322573 
L 123.640281 97.537364 
L 120.609728 92.287357 
L 117.770704 86.938372 
L 115.026332 81.178624 
L 112.958055 76.240402 
L 111.496822 72.228663 
L 110.258093 68.216925 
L 109.271227 64.205186 
L 108.595553 60.193447 
L 108.338295 57.518955 
L 108.268585 54.844462 
L 108.422974 52.16997 
L 108.84817 49.495477 
L 109.620548 46.820985 
L 110.719357 44.400191 
L 111.725371 42.809246 
L 112.804832 41.472 
L 112.804832 41.472 
" style="fill:none;stroke:#00f684;stroke-width:1.5;"/>
   </g>
   <g id="LineCollection_3">
    <path clip-path="url(#pf628d99293)" d="M 343.296 274.218136 
L 340.424683 274.604669 
L 337.553367 274.810321 
L 333.246392 274.828583 
L 328.939417 274.552671 
L 324.632442 274.028299 
L 320.325467 273.283575 
L 316.018492 272.350587 
L 310.275859 270.844295 
L 304.533226 269.073664 
L 298.790593 267.064012 
L 292.924968 264.792121 
L 285.869668 261.786078 
L 278.691377 258.451631 
L 271.513085 254.85849 
L 264.334794 251.025361 
L 257.156503 246.964203 
L 248.953605 242.058935 
L 241.364261 237.278651 
L 232.750312 231.583055 
L 224.136362 225.603854 
L 215.489477 219.325749 
L 206.678465 212.639518 
L 198.223518 205.953286 
L 189.680563 198.920282 
L 180.722743 191.243578 
L 171.739297 183.220101 
L 163.113817 175.196623 
L 154.825325 167.173146 
L 146.610814 158.895002 
L 139.202161 151.126191 
L 131.848987 143.102714 
L 124.792089 135.079236 
L 117.897648 126.893854 
L 111.569302 119.032281 
L 105.407177 111.008804 
L 100.506713 104.322573 
L 94.918612 96.299095 
L 89.666796 88.275618 
L 85.556468 81.589387 
L 81.70387 74.903156 
L 78.13042 68.216925 
L 75.487099 62.86794 
L 73.049795 57.518955 
L 70.520925 51.346142 
L 68.876394 46.820985 
L 67.193605 41.472 
L 67.193605 41.472 
" style="fill:none;stroke:#00ec89;stroke-width:1.5;"/>
    <path clip-path="url(#pf628d99293)" d="M 202.282908 41.472 
L 209.78938 46.820985 
L 218.779619 53.507216 
L 227.393366 60.193447 
L 235.67127 66.879678 
L 244.235578 74.077196 
L 252.849528 81.603304 
L 261.652397 89.612864 
L 270.124637 97.636342 
L 278.691377 106.089991 
L 286.090432 113.683296 
L 293.60858 121.706774 
L 300.828181 129.730251 
L 307.752071 137.753729 
L 314.582834 146.029237 
L 320.707304 153.800683 
L 326.068101 160.920783 
L 331.810734 168.939115 
L 336.950843 176.533869 
L 341.224228 183.220101 
L 343.296 186.609035 
L 343.296 186.609035 
" style="fill:none;stroke:#00ec89;stroke-width:1.5;"/>
   </g>
   <g id="LineCollection_4">
    <path clip-path="url(#pf628d99293)" d="M 343.296 304.299536 
L 337.553367 303.011053 
L 331.810734 301.481179 
L 325.530708 299.560523 
L 318.889809 297.275122 
L 311.711518 294.537396 
L 304.510381 291.537045 
L 297.354935 288.317947 
L 290.128959 284.850814 
L 281.562693 280.467584 
L 272.948744 275.784582 
L 264.334794 270.837146 
L 255.720844 265.63869 
L 247.106894 260.19716 
L 237.860807 254.094151 
L 228.16209 247.40792 
L 218.393729 240.381962 
L 209.779779 233.947422 
L 199.550653 226.01198 
L 189.603171 217.988503 
L 179.630955 209.633533 
L 170.767352 201.941548 
L 160.967397 193.132436 
L 151.763735 184.557347 
L 142.303839 175.421717 
L 133.689889 166.798509 
L 125.024431 157.812422 
L 116.331 148.451698 
L 107.84804 138.952483 
L 99.9381 129.730251 
L 93.313622 121.706774 
L 86.313166 112.883905 
L 79.805154 104.322573 
L 73.96749 96.299095 
L 68.39081 88.275618 
L 63.083646 80.252141 
L 58.061253 72.228663 
L 57.6 71.467101 
L 57.6 71.467101 
" style="fill:none;stroke:#00e28e;stroke-width:1.5;"/>
    <path clip-path="url(#pf628d99293)" d="M 227.707143 41.472 
L 237.057286 48.941888 
L 245.813543 56.181709 
L 255.720844 64.669067 
L 264.334794 72.306472 
L 273.007803 80.252141 
L 281.562693 88.351546 
L 291.02953 97.636342 
L 298.933021 105.659819 
L 307.832538 115.020543 
L 316.397946 124.381266 
L 324.634413 133.74199 
L 332.537917 143.102714 
L 339.053701 151.126191 
L 343.296 156.520902 
L 343.296 156.520902 
" style="fill:none;stroke:#00e28e;stroke-width:1.5;"/>
   </g>
   <g id="LineCollection_5">
    <path clip-path="url(#pf628d99293)" d="M 300.770978 307.584 
L 292.925808 303.572261 
L 282.998352 298.207823 
L 272.948744 292.465047 
L 264.334794 287.306928 
L 254.001012 280.839075 
L 243.782869 274.152844 
L 233.968957 267.466613 
L 224.136362 260.509967 
L 213.579042 252.756905 
L 203.049676 244.733427 
L 192.884188 236.70995 
L 183.051879 228.686472 
L 173.525409 220.662995 
L 162.772163 211.302271 
L 153.789106 203.228992 
L 143.739497 193.910078 
L 133.689889 184.272996 
L 123.640281 174.301169 
L 115.026332 165.469423 
L 106.412382 156.355884 
L 97.798432 146.935421 
L 89.184482 137.179826 
L 81.689205 128.393005 
L 73.981998 119.032281 
L 66.561138 109.671558 
L 59.432521 100.310834 
L 57.6 97.84047 
L 57.6 97.84047 
" style="fill:none;stroke:#00d893;stroke-width:1.5;"/>
    <path clip-path="url(#pf628d99293)" d="M 247.540699 41.472 
L 257.156503 49.600998 
L 267.748016 58.856201 
L 278.10288 68.216925 
L 288.117324 77.577648 
L 297.807863 86.938372 
L 307.404543 96.519459 
L 316.264806 105.659819 
L 325.047622 115.020543 
L 333.542338 124.381266 
L 341.860342 133.868359 
L 343.296 135.541832 
L 343.296 135.541832 
" style="fill:none;stroke:#00d893;stroke-width:1.5;"/>
   </g>
   <g id="LineCollection_6">
    <path clip-path="url(#pf628d99293)" d="M 273.90593 307.584 
L 264.334794 301.707277 
L 254.285186 295.290064 
L 244.235578 288.624978 
L 234.18597 281.716524 
L 223.561459 274.152844 
L 212.651095 266.110816 
L 201.165829 257.339761 
L 190.285677 248.745166 
L 179.630955 240.054852 
L 169.293887 231.360965 
L 158.09608 221.642613 
L 148.036099 212.639518 
L 137.883007 203.278794 
L 127.947256 193.842608 
L 117.109516 183.220101 
L 107.84804 173.858265 
L 97.595522 163.161407 
L 87.748824 152.53719 
L 79.134874 142.934453 
L 69.998472 132.404744 
L 61.906975 122.754553 
L 57.6 117.481114 
L 57.6 117.481114 
" style="fill:none;stroke:#00ce98;stroke-width:1.5;"/>
    <path clip-path="url(#pf628d99293)" d="M 264.375703 41.472 
L 265.770452 42.680352 
L 265.918903 42.809246 
L 267.206111 43.929181 
L 267.455331 44.146492 
L 268.641769 45.183151 
L 268.985034 45.483739 
L 270.077427 46.442292 
L 270.508054 46.820985 
L 271.513085 47.706636 
L 272.024436 48.158231 
L 272.948744 48.976216 
L 273.534223 49.495477 
L 274.384402 50.251065 
L 275.037458 50.832724 
L 275.82006 51.531215 
L 276.534183 52.16997 
L 277.255719 52.8167 
L 278.02444 53.507216 
L 278.691377 54.107553 
L 279.508272 54.844462 
L 280.127035 55.403807 
L 280.98572 56.181709 
L 281.562693 56.705497 
L 282.456825 57.518955 
L 282.998352 58.012657 
L 283.921627 58.856201 
L 284.43401 59.325321 
L 285.380168 60.193447 
L 285.869668 60.643525 
L 286.832487 61.530693 
L 287.305327 61.967302 
L 288.278624 62.86794 
L 288.740985 63.29669 
L 289.718618 64.205186 
L 290.176643 64.631723 
L 291.152509 65.542432 
L 291.612302 65.972438 
L 292.580335 66.879678 
L 293.04796 67.318871 
L 294.002134 68.216925 
L 294.483618 68.671058 
L 295.417945 69.554171 
L 295.919276 70.029037 
L 296.827805 70.891417 
L 297.354935 71.392845 
L 298.231752 72.228663 
L 298.790593 72.762519 
L 299.629823 73.56591 
L 300.226251 74.138098 
L 301.022054 74.903156 
L 301.66191 75.519619 
L 302.408483 76.240402 
L 303.097568 76.907122 
L 303.789146 77.577648 
L 304.533226 78.300645 
L 305.164077 78.914894 
L 305.968884 79.700227 
L 306.533314 80.252141 
L 307.404543 81.105908 
L 307.89689 81.589387 
L 308.840201 82.517728 
L 309.254842 82.926633 
L 310.275859 83.935728 
L 310.607204 84.263879 
L 311.711518 85.359948 
L 311.954011 85.601126 
L 313.147176 86.790428 
L 313.295296 86.938372 
L 314.582834 88.227211 
L 314.631093 88.275618 
L 315.960848 89.612864 
L 316.018492 89.67098 
L 317.284633 90.950111 
L 317.454151 91.12175 
L 318.60298 92.287357 
L 318.889809 92.579028 
L 319.915921 93.624603 
L 320.325467 94.042855 
L 321.223492 94.961849 
L 321.761126 95.513277 
L 322.525723 96.299095 
L 323.196784 96.990338 
L 323.822649 97.636342 
L 324.632442 98.474084 
L 325.114301 98.973588 
L 326.068101 99.964559 
L 326.400711 100.310834 
L 327.503759 101.46181 
L 327.681912 101.64808 
L 328.939417 102.965883 
L 328.957934 102.985327 
L 330.22732 104.322573 
L 330.375075 104.478606 
L 331.491356 105.659819 
L 331.810734 105.998558 
L 332.750262 106.997065 
L 333.246392 107.525564 
L 334.00407 108.334312 
L 334.68205 109.059673 
L 335.25281 109.671558 
L 336.117709 110.600935 
L 336.496514 111.008804 
L 337.553367 112.149401 
L 337.735212 112.34605 
L 338.968729 113.683296 
L 338.989025 113.705378 
L 340.19541 115.020543 
L 340.424683 115.271084 
L 341.417133 116.357789 
L 341.860342 116.844246 
L 342.633928 117.695035 
L 343.296 118.424919 
" style="fill:none;stroke:#00ce98;stroke-width:1.5;"/>
   </g>
   <g id="LineCollection_7">
    <path clip-path="url(#pf628d99293)" d="M 253.424664 307.584 
L 242.79992 300.433378 
L 231.314653 292.426632 
L 219.829387 284.135165 
L 208.24933 275.49009 
L 196.126822 266.129367 
L 184.394117 256.768643 
L 173.02211 247.40792 
L 161.984524 238.047196 
L 150.917789 228.382531 
L 139.367162 217.988503 
L 127.841104 207.290533 
L 116.46199 196.395339 
L 105.824931 185.894593 
L 95.309072 175.196623 
L 85.109952 164.498653 
L 75.222312 153.800683 
L 65.64101 143.102714 
L 57.6 133.852162 
L 57.6 133.852162 
" style="fill:none;stroke:#00c49d;stroke-width:1.5;"/>
    <path clip-path="url(#pf628d99293)" d="M 279.259991 41.472 
L 280.127035 42.242743 
L 280.763057 42.809246 
L 281.562693 43.522831 
L 282.26018 44.146492 
L 282.998352 44.807787 
L 283.751396 45.483739 
L 284.43401 46.097638 
L 285.236739 46.820985 
L 285.869668 47.392412 
L 286.716244 48.158231 
L 287.305327 48.692139 
L 288.189945 49.495477 
L 288.740985 49.996845 
L 289.657877 50.832724 
L 290.176643 51.306561 
L 291.120073 52.16997 
L 291.612302 52.621315 
L 292.576566 53.507216 
L 293.04796 53.941135 
L 294.027391 54.844462 
L 294.483618 55.266052 
L 295.47258 56.181709 
L 295.919276 56.596094 
L 296.912166 57.518955 
L 297.354935 57.931293 
L 298.346181 58.856201 
L 298.790593 59.271677 
L 299.774657 60.193447 
L 300.226251 60.617277 
L 301.197628 61.530693 
L 301.66191 61.968124 
L 302.615123 62.86794 
L 303.097568 63.324248 
L 304.027176 64.205186 
L 304.533226 64.68568 
L 305.433817 65.542432 
L 305.968884 66.052452 
L 306.835078 66.879678 
L 307.404543 67.424594 
L 308.230988 68.216925 
L 308.840201 68.802139 
L 309.62158 69.554171 
L 310.275859 70.185119 
L 311.006882 70.891417 
L 311.711518 71.573566 
L 312.386926 72.228663 
L 313.147176 72.967512 
L 313.76174 73.56591 
L 314.582834 74.36699 
L 315.131356 74.903156 
L 316.018492 75.772033 
L 316.495801 76.240402 
L 317.454151 77.182675 
L 317.855106 77.577648 
L 318.889809 78.598949 
L 319.209299 78.914894 
L 320.325467 80.020888 
L 320.55841 80.252141 
L 321.761126 81.448526 
L 321.902466 81.589387 
L 323.196784 82.881899 
L 323.241496 82.926633 
L 324.574993 84.263879 
L 324.632442 84.321622 
L 325.903054 85.601126 
L 326.068101 85.767665 
L 327.226131 86.938372 
L 327.503759 87.219611 
L 328.544251 88.275618 
L 328.939417 88.677496 
L 329.857443 89.612864 
L 330.375075 90.141357 
L 331.165732 90.950111 
L 331.810734 91.61123 
L 332.469148 92.287357 
L 333.246392 93.087152 
L 333.767717 93.624603 
L 334.68205 94.569162 
L 335.061467 94.961849 
L 336.117709 96.057296 
L 336.350423 96.299095 
L 337.553367 97.551592 
L 337.634613 97.636342 
L 338.913365 98.973588 
L 338.989025 99.052913 
L 340.186606 100.310834 
L 340.424683 100.561433 
L 341.455122 101.64808 
L 341.860342 102.076305 
L 342.718938 102.985327 
L 343.296 103.597569 
" style="fill:none;stroke:#00c49d;stroke-width:1.5;"/>
   </g>
   <g id="LineCollection_8">
    <path clip-path="url(#pf628d99293)" d="M 236.202085 307.584 
L 224.959456 299.560523 
L 214.051684 291.537045 
L 201.716342 282.176322 
L 189.680563 272.753166 
L 178.153821 263.454874 
L 166.71003 253.955423 
L 155.224764 244.14784 
L 143.709631 234.035457 
L 131.875158 223.337487 
L 120.376922 212.639518 
L 109.200793 201.941548 
L 97.798432 190.704187 
L 87.748824 180.518846 
L 77.508132 169.847638 
L 67.529433 159.149668 
L 57.6 148.186974 
L 57.6 148.186974 
" style="fill:none;stroke:#00bba2;stroke-width:1.5;"/>
    <path clip-path="url(#pf628d99293)" d="M 292.750241 41.472 
L 293.04796 41.741886 
L 294.223256 42.809246 
L 294.483618 43.046118 
L 295.690922 44.146492 
L 295.919276 44.354992 
L 297.15327 45.483739 
L 297.354935 45.668532 
L 298.610327 46.820985 
L 298.790593 46.986765 
L 300.062123 48.158231 
L 300.226251 48.309714 
L 301.508686 49.495477 
L 301.66191 49.637405 
L 302.950044 50.832724 
L 303.097568 50.969864 
L 304.386225 52.16997 
L 304.533226 52.307116 
L 305.817257 53.507216 
L 305.968884 53.649188 
L 307.243168 54.844462 
L 307.404543 54.996105 
L 308.663984 56.181709 
L 308.840201 56.347894 
L 310.079735 57.518955 
L 310.275859 57.704581 
L 311.490445 58.856201 
L 311.711518 59.066193 
L 312.896143 60.193447 
L 313.147176 60.432757 
L 314.296855 61.530693 
L 314.582834 61.8043 
L 315.692607 62.86794 
L 316.018492 63.180848 
L 317.083426 64.205186 
L 317.454151 64.562431 
L 318.469337 65.542432 
L 318.889809 65.949074 
L 319.850368 66.879678 
L 320.325467 67.340807 
L 321.226543 68.216925 
L 321.761126 68.737657 
L 322.597888 69.554171 
L 323.196784 70.139652 
L 323.964428 70.891417 
L 324.632442 71.546821 
L 325.326189 72.228663 
L 326.068101 72.959192 
L 326.683196 73.56591 
L 327.503759 74.376795 
L 328.035473 74.903156 
L 328.939417 75.799659 
L 329.383045 76.240402 
L 330.375075 77.227813 
L 330.725937 77.577648 
L 331.810734 78.661286 
L 332.064173 78.914894 
L 333.246392 80.100108 
L 333.397778 80.252141 
L 334.68205 81.54431 
L 334.726774 81.589387 
L 336.050608 82.926633 
L 336.117709 82.994557 
L 337.369456 84.263879 
L 337.553367 84.450725 
L 338.683732 85.601126 
L 338.989025 85.91242 
L 339.993458 86.938372 
L 340.424683 87.379673 
L 341.298659 88.275618 
L 341.860342 88.852516 
L 342.599358 89.612864 
L 343.296 90.330982 
" style="fill:none;stroke:#00bba2;stroke-width:1.5;"/>
   </g>
   <g id="LineCollection_9">
    <path clip-path="url(#pf628d99293)" d="M 221.048873 307.584 
L 208.344121 298.116343 
L 195.423196 288.178775 
L 182.792765 278.164583 
L 171.017005 268.556365 
L 158.564053 258.105889 
L 146.610814 247.789695 
L 135.125548 237.606906 
L 123.640281 227.151691 
L 112.155015 216.412969 
L 100.669749 205.379049 
L 89.065127 193.91807 
L 77.699216 182.368028 
L 66.998869 171.184884 
L 57.6 161.097602 
L 57.6 161.097602 
" style="fill:none;stroke:#00b1a6;stroke-width:1.5;"/>
    <path clip-path="url(#pf628d99293)" d="M 305.175102 41.472 
L 305.968884 42.203852 
L 306.624404 42.809246 
L 307.404543 43.530934 
L 308.06884 44.146492 
L 308.840201 44.862454 
L 309.508437 45.483739 
L 310.275859 46.198436 
L 310.943218 46.820985 
L 311.711518 47.538901 
L 312.373207 48.158231 
L 313.147176 48.883872 
L 313.798428 49.495477 
L 314.582834 50.233372 
L 315.218905 50.832724 
L 316.018492 51.587424 
L 316.634661 52.16997 
L 317.454151 52.94605 
L 318.045721 53.507216 
L 318.889809 54.309275 
L 319.452108 54.844462 
L 320.325467 55.677122 
L 320.853843 56.181709 
L 321.761126 57.049613 
L 322.250952 57.518955 
L 323.196784 58.426773 
L 323.643456 58.856201 
L 324.632442 59.808626 
L 325.031379 60.193447 
L 326.068101 61.195195 
L 326.414742 61.530693 
L 327.503759 62.586505 
L 327.793568 62.86794 
L 328.939417 63.982581 
L 329.16788 64.205186 
L 330.375075 65.383446 
L 330.5377 65.542432 
L 331.810734 66.789125 
L 331.903049 66.879678 
L 333.246392 68.199644 
L 333.26395 68.216925 
L 334.619919 69.554171 
L 334.68205 69.615556 
L 335.971305 70.891417 
L 336.117709 71.036552 
L 337.318273 72.228663 
L 337.553367 72.462509 
L 338.660845 73.56591 
L 338.989025 73.893452 
L 339.999044 74.903156 
L 340.424683 75.329408 
L 341.332889 76.240402 
L 341.860342 76.770403 
L 342.662402 77.577648 
L 343.296 78.216463 
" style="fill:none;stroke:#00b1a6;stroke-width:1.5;"/>
   </g>
   <g id="LineCollection_10">
    <path clip-path="url(#pf628d99293)" d="M 207.362655 307.584 
L 195.185355 298.223276 
L 182.502271 288.195254 
L 169.581347 277.685809 
L 156.660422 266.874952 
L 143.739497 255.757136 
L 131.27564 244.733427 
L 119.333307 233.88823 
L 106.592513 222.000241 
L 94.927116 210.816277 
L 83.194277 199.267055 
L 71.299253 187.231839 
L 59.732734 175.196623 
L 57.6 172.940116 
L 57.6 172.940116 
" style="fill:none;stroke:#00a7ac;stroke-width:1.5;"/>
    <path clip-path="url(#pf628d99293)" d="M 316.754232 41.472 
L 317.454151 42.125901 
L 318.184435 42.809246 
L 318.889809 43.47033 
L 319.610139 44.146492 
L 320.325467 44.819027 
L 321.031366 45.483739 
L 321.761126 46.172013 
L 322.448136 46.820985 
L 323.196784 47.529308 
L 323.860471 48.158231 
L 324.632442 48.890933 
L 325.268392 49.495477 
L 326.068101 50.256909 
L 326.671918 50.832724 
L 327.503759 51.627256 
L 328.071071 52.16997 
L 328.939417 53.001995 
L 329.465872 53.507216 
L 330.375075 54.381149 
L 330.856339 54.844462 
L 331.810734 55.764737 
L 332.242494 56.181709 
L 333.246392 57.152781 
L 333.624357 57.518955 
L 334.68205 58.545304 
L 335.001947 58.856201 
L 336.117709 59.942326 
L 336.375284 60.193447 
L 337.553367 61.34387 
L 337.744388 61.530693 
L 338.989025 62.749957 
L 339.109278 62.86794 
L 340.424683 64.160609 
L 340.469974 64.205186 
L 341.826234 65.542432 
L 341.860342 65.576124 
L 343.177957 66.879678 
L 343.296 66.996653 
" style="fill:none;stroke:#00a7ac;stroke-width:1.5;"/>
   </g>
   <g id="LineCollection_11">
    <path clip-path="url(#pf628d99293)" d="M 194.784021 307.584 
L 182.502271 297.898855 
L 169.581347 287.435761 
L 156.660422 276.687057 
L 143.739497 265.647755 
L 130.572767 254.094151 
L 117.897648 242.671478 
L 105.665841 231.360965 
L 92.985367 219.325749 
L 80.570533 207.224315 
L 68.614972 195.255317 
L 57.6 183.941677 
L 57.6 183.941677 
" style="fill:none;stroke:#009db0;stroke-width:1.5;"/>
    <path clip-path="url(#pf628d99293)" d="M 327.640448 41.472 
L 328.939417 42.699967 
L 329.054843 42.809246 
L 330.375075 44.061053 
L 330.465052 44.146492 
L 331.810734 45.42625 
L 331.871095 45.483739 
L 333.246392 46.795578 
L 333.272988 46.820985 
L 334.670668 48.158231 
L 334.68205 48.169139 
L 336.064008 49.495477 
L 336.117709 49.547095 
L 337.453225 50.832724 
L 337.553367 50.929272 
L 338.838338 52.16997 
L 338.989025 52.315689 
L 340.219363 53.507216 
L 340.424683 53.706365 
L 341.59632 54.844462 
L 341.860342 55.101321 
L 342.969226 56.181709 
L 343.296 56.500576 
" style="fill:none;stroke:#009db0;stroke-width:1.5;"/>
   </g>
   <g id="LineCollection_12">
    <path clip-path="url(#pf628d99293)" d="M 183.081016 307.584 
L 169.581347 296.699621 
L 156.660422 286.0044 
L 143.739497 275.033259 
L 130.448271 263.454874 
L 116.990334 251.419658 
L 103.879375 239.384442 
L 91.102147 227.349226 
L 78.646066 215.31401 
L 66.21395 202.990412 
L 57.6 194.260199 
L 57.6 194.260199 
" style="fill:none;stroke:#0093b6;stroke-width:1.5;"/>
    <path clip-path="url(#pf628d99293)" d="M 337.942904 41.472 
L 338.989025 42.47021 
L 339.343834 42.809246 
L 340.424683 43.843544 
L 340.740822 44.146492 
L 341.860342 45.220859 
L 342.133885 45.483739 
L 343.296 46.602172 
" style="fill:none;stroke:#0093b6;stroke-width:1.5;"/>
   </g>
   <g id="LineCollection_13">
    <path clip-path="url(#pf628d99293)" d="M 172.092737 307.584 
L 158.09608 296.091382 
L 144.754774 284.850814 
L 130.818573 272.805243 
L 117.262432 260.780382 
L 104.030873 248.745166 
L 91.123285 236.70995 
L 78.527915 224.674734 
L 66.21395 212.619941 
L 57.6 204.008102 
L 57.6 204.008102 
" style="fill:none;stroke:#0089bb;stroke-width:1.5;"/>
   </g>
   <g id="LineCollection_14">
    <path clip-path="url(#pf628d99293)" d="M 161.703102 307.584 
L 148.046472 296.202609 
L 134.752762 284.850814 
L 120.768965 272.612754 
L 107.576269 260.780382 
L 94.473525 248.745166 
L 81.677019 236.70995 
L 69.085266 224.585619 
L 57.6 213.271437 
L 57.6 213.271437 
" style="fill:none;stroke:#007fc0;stroke-width:1.5;"/>
   </g>
   <g id="LineCollection_15">
    <path clip-path="url(#pf628d99293)" d="M 151.822912 307.584 
L 137.579522 295.548784 
L 123.640281 283.479324 
L 109.283698 270.737762 
L 95.395341 258.105889 
L 82.006191 245.632954 
L 68.449784 232.698211 
L 57.6 222.116537 
L 57.6 222.116537 
" style="fill:none;stroke:#0076c4;stroke-width:1.5;"/>
   </g>
   <g id="LineCollection_16">
    <path clip-path="url(#pf628d99293)" d="M 142.383407 307.584 
L 142.303839 307.516798 
L 140.868181 306.302415 
L 140.802479 306.246754 
L 139.432523 305.084776 
L 139.22615 304.909508 
L 137.996864 303.864266 
L 137.653887 303.572261 
L 136.561206 302.640874 
L 136.085676 302.235015 
L 135.125548 301.414589 
L 134.521501 300.897769 
L 133.689889 300.185403 
L 132.961346 299.560523 
L 132.254231 298.953304 
L 131.405195 298.223276 
L 130.818573 297.718282 
L 129.853034 296.88603 
L 129.382915 296.480326 
L 128.304848 295.548784 
L 127.947256 295.239427 
L 126.760619 294.211538 
L 126.511598 293.995573 
L 125.220335 292.874291 
L 125.07594 292.748755 
L 123.683979 291.537045 
L 123.640281 291.498961 
L 122.204623 290.245905 
L 122.151873 290.199799 
L 120.768965 288.989643 
L 120.623916 288.862553 
L 119.333307 287.73039 
L 119.099816 287.525307 
L 117.897648 286.468136 
L 117.57956 286.18806 
L 116.46199 285.202869 
L 116.063132 284.850814 
L 115.026332 283.93458 
L 114.550519 283.513568 
L 113.590673 282.663256 
L 113.041705 282.176322 
L 112.155015 281.388887 
L 111.536677 280.839075 
L 110.719357 280.111462 
L 110.03542 279.501829 
L 109.283698 278.830971 
L 108.537921 278.164583 
L 107.84804 277.547401 
L 107.044164 276.827337 
L 106.412382 276.260743 
L 105.554136 275.49009 
L 104.976724 274.970984 
L 104.067824 274.152844 
L 103.541065 273.678114 
L 102.585213 272.815598 
L 102.105407 272.382121 
L 101.106289 271.478352 
L 100.669749 271.082995 
L 99.631038 270.141106 
L 99.23409 269.780722 
L 98.159448 268.803859 
L 97.798432 268.475293 
L 96.691504 267.466613 
L 96.362774 267.166696 
L 95.227193 266.129367 
L 94.927116 265.854919 
L 93.766502 264.792121 
L 93.491457 264.53995 
L 92.309416 263.454874 
L 92.055799 263.221779 
L 90.855923 262.117628 
L 90.620141 261.900392 
L 89.406009 260.780382 
L 89.184482 260.575779 
L 87.959662 259.443136 
L 87.748824 259.247927 
L 86.516867 258.105889 
L 86.313166 257.916825 
L 85.077613 256.768643 
L 84.877508 256.58246 
L 83.641885 255.431397 
L 83.441849 255.244822 
L 82.209672 254.094151 
L 82.006191 253.903896 
L 80.780959 252.756905 
L 80.570533 252.559673 
L 79.355735 251.419658 
L 79.134874 251.212139 
L 77.933986 250.082412 
L 77.699216 249.861281 
L 76.515701 248.745166 
L 76.263558 248.507089 
L 75.100865 247.40792 
L 74.827899 247.149549 
L 73.689467 246.070673 
L 73.392241 245.788649 
L 72.281494 244.733427 
L 71.956583 244.424376 
L 70.876934 243.396181 
L 70.520925 243.056718 
L 69.475774 242.058935 
L 69.085266 241.685663 
L 68.078001 240.721688 
L 67.649608 240.311197 
L 66.683605 239.384442 
L 66.21395 238.933308 
L 65.292572 238.047196 
L 64.778291 237.551983 
L 63.90489 236.70995 
L 63.342633 236.167209 
L 62.520548 235.372704 
L 61.906975 234.778974 
L 61.139532 234.035457 
L 60.471317 233.387264 
L 59.761832 232.698211 
L 59.035658 231.992066 
L 58.387435 231.360965 
L 57.6 230.593367 
" style="fill:none;stroke:#006cc9;stroke-width:1.5;"/>
   </g>
   <g id="LineCollection_17">
    <path clip-path="url(#pf628d99293)" d="M 133.33246 307.584 
L 132.254231 306.662298 
L 131.768723 306.246754 
L 130.818573 305.432593 
L 130.208876 304.909508 
L 129.382915 304.200068 
L 128.652902 303.572261 
L 127.947256 302.964713 
L 127.10079 302.235015 
L 126.511598 301.726518 
L 125.552523 300.897769 
L 125.07594 300.485474 
L 124.008087 299.560523 
L 123.640281 299.24157 
L 122.467469 298.223276 
L 122.204623 297.994797 
L 120.930655 296.88603 
L 120.768965 296.745145 
L 119.397629 295.548784 
L 119.333307 295.492604 
L 117.897648 294.237015 
L 117.868558 294.211538 
L 116.46199 292.978211 
L 116.343618 292.874291 
L 115.026332 291.716503 
L 114.822401 291.537045 
L 113.590673 290.451881 
L 113.304894 290.199799 
L 112.155015 289.184335 
L 111.791083 288.862553 
L 110.719357 287.913855 
L 110.280954 287.525307 
L 109.283698 286.640432 
L 108.774495 286.18806 
L 107.84804 285.364053 
L 107.271691 284.850814 
L 106.412382 284.08471 
L 105.77253 283.513568 
L 104.976724 282.802392 
L 104.276998 282.176322 
L 103.541065 281.517089 
L 102.785082 280.839075 
L 102.105407 280.22879 
L 101.296769 279.501829 
L 100.669749 278.937484 
L 99.812046 278.164583 
L 99.23409 277.643162 
L 98.3309 276.827337 
L 97.798432 276.345812 
L 96.853319 275.49009 
L 96.362774 275.045423 
L 95.379288 274.152844 
L 94.927116 273.741986 
L 93.908796 272.815598 
L 93.491457 272.43549 
L 92.44183 271.478352 
L 92.055799 271.125923 
L 90.978376 270.141106 
L 90.620141 269.813275 
L 89.518423 268.803859 
L 89.184482 268.497535 
L 88.061958 267.466613 
L 87.748824 267.178692 
L 86.608969 266.129367 
L 86.313166 265.856735 
L 85.159442 264.792121 
L 84.877508 264.531654 
L 83.713367 263.454874 
L 83.441849 263.203436 
L 82.270729 262.117628 
L 82.006191 261.87207 
L 80.831518 260.780382 
L 80.570533 260.537547 
L 79.39572 259.443136 
L 79.134874 259.199853 
L 77.963324 258.105889 
L 77.699216 257.858979 
L 76.534318 256.768643 
L 76.263558 256.514912 
L 75.10869 255.431397 
L 74.827899 255.167641 
L 73.686427 254.094151 
L 73.392241 253.817155 
L 72.267518 252.756905 
L 71.956583 252.463443 
L 70.851951 251.419658 
L 70.520925 251.106492 
L 69.439714 250.082412 
L 69.085266 249.746291 
L 68.030796 248.745166 
L 67.649608 248.382828 
L 66.625184 247.40792 
L 66.21395 247.016092 
L 65.222868 246.070673 
L 64.778291 245.646071 
L 63.823835 244.733427 
L 63.342633 244.272753 
L 62.428074 243.396181 
L 61.906975 242.896125 
L 61.035573 242.058935 
L 60.471317 241.516177 
L 59.646322 240.721688 
L 59.035658 240.132896 
L 58.260308 239.384442 
L 57.6 238.746269 
" style="fill:none;stroke:#0062ce;stroke-width:1.5;"/>
   </g>
   <g id="LineCollection_18">
    <path clip-path="url(#pf628d99293)" d="M 124.624043 307.584 
L 123.640281 306.734915 
L 123.075371 306.246754 
L 122.204623 305.493469 
L 121.530411 304.909508 
L 120.768965 304.249253 
L 119.989151 303.572261 
L 119.333307 303.002256 
L 118.451578 302.235015 
L 117.897648 301.75247 
L 116.917678 300.897769 
L 116.46199 300.499885 
L 115.387439 299.560523 
L 115.026332 299.244492 
L 113.860846 298.223276 
L 113.590673 297.986281 
L 112.337888 296.88603 
L 112.155015 296.725243 
L 110.818551 295.548784 
L 110.719357 295.461368 
L 109.302822 294.211538 
L 109.283698 294.194646 
L 107.84804 292.924784 
L 107.791026 292.874291 
L 106.412382 291.651977 
L 106.282904 291.537045 
L 104.976724 290.376309 
L 104.77833 290.199799 
L 103.541065 289.097772 
L 103.277291 288.862553 
L 102.105407 287.816356 
L 101.779775 287.525307 
L 100.669749 286.53205 
L 100.285769 286.18806 
L 99.23409 285.244846 
L 98.795262 284.850814 
L 97.798432 283.954732 
L 97.308241 283.513568 
L 96.362774 282.6617 
L 95.824693 282.176322 
L 94.927116 281.36574 
L 94.344607 280.839075 
L 93.491457 280.066841 
L 92.867971 279.501829 
L 92.055799 278.764993 
L 91.394772 278.164583 
L 90.620141 277.460187 
L 89.924999 276.827337 
L 89.184482 276.152412 
L 88.458638 275.49009 
L 87.748824 274.841658 
L 86.99568 274.152844 
L 86.313166 273.527915 
L 85.536112 272.815598 
L 84.877508 272.211174 
L 84.079921 271.478352 
L 83.441849 270.891422 
L 82.627097 270.141106 
L 82.006191 269.568651 
L 81.177627 268.803859 
L 80.570533 268.242849 
L 79.731501 267.466613 
L 79.134874 266.914007 
L 78.288706 266.129367 
L 77.699216 265.582114 
L 76.849231 264.792121 
L 76.263558 264.247159 
L 75.413065 263.454874 
L 74.827899 262.909132 
L 73.980195 262.117628 
L 73.392241 261.568022 
L 72.550612 260.780382 
L 71.956583 260.223818 
L 71.124303 259.443136 
L 70.520925 258.87651 
L 69.701258 258.105889 
L 69.085266 257.526088 
L 68.281464 256.768643 
L 67.649608 256.172539 
L 66.864912 255.431397 
L 66.21395 254.815854 
L 65.451589 254.094151 
L 64.778291 253.456021 
L 64.041486 252.756905 
L 63.342633 252.09303 
L 62.63459 251.419658 
L 61.906975 250.726869 
L 61.230891 250.082412 
L 60.471317 249.357527 
L 59.830378 248.745166 
L 59.035658 247.984994 
L 58.433041 247.40792 
L 57.6 246.609258 
" style="fill:none;stroke:#0058d3;stroke-width:1.5;"/>
   </g>
   <g id="LineCollection_19">
    <path clip-path="url(#pf628d99293)" d="M 116.221938 307.584 
L 115.026332 306.542698 
L 114.686927 306.246754 
L 113.590673 305.289836 
L 113.155469 304.909508 
L 112.155015 304.034251 
L 111.627552 303.572261 
L 110.719357 302.775934 
L 110.103162 302.235015 
L 109.283698 301.514875 
L 108.582289 300.897769 
L 107.84804 300.251066 
L 107.064919 299.560523 
L 106.412382 298.984498 
L 105.551041 298.223276 
L 104.976724 297.715162 
L 104.040642 296.88603 
L 103.541065 296.443048 
L 102.533711 295.548784 
L 102.105407 295.168147 
L 101.030235 294.211538 
L 100.669749 293.890451 
L 99.530204 292.874291 
L 99.23409 292.60995 
L 98.033604 291.537045 
L 97.798432 291.326635 
L 96.540425 290.199799 
L 96.362774 290.040497 
L 95.050654 288.862553 
L 94.927116 288.751525 
L 93.56428 287.525307 
L 93.491457 287.459712 
L 92.081291 286.18806 
L 92.055799 286.165047 
L 90.620141 284.86743 
L 90.60178 284.850814 
L 89.184482 283.56683 
L 89.125756 283.513568 
L 87.748824 282.263367 
L 87.653064 282.176322 
L 86.313166 280.957029 
L 86.183691 280.839075 
L 84.877508 279.647807 
L 84.717628 279.501829 
L 83.441849 278.335693 
L 83.254862 278.164583 
L 82.006191 277.020676 
L 81.795382 276.827337 
L 80.570533 275.702746 
L 80.339178 275.49009 
L 79.134874 274.381894 
L 78.886239 274.152844 
L 77.699216 273.058111 
L 77.436553 272.815598 
L 76.263558 271.731386 
L 75.99011 271.478352 
L 74.827899 270.401709 
L 74.546898 270.141106 
L 73.392241 269.069071 
L 73.106908 268.803859 
L 71.956583 267.733462 
L 71.670127 267.466613 
L 70.520925 266.394872 
L 70.236546 266.129367 
L 69.085266 265.053291 
L 68.806154 264.792121 
L 67.649608 263.708709 
L 67.37894 263.454874 
L 66.21395 262.361115 
L 65.954893 262.117628 
L 64.778291 261.010501 
L 64.534004 260.780382 
L 63.342633 259.656854 
L 63.11626 259.443136 
L 61.906975 258.300166 
L 61.701653 258.105889 
L 60.471317 256.940426 
L 60.290172 256.768643 
L 59.035658 255.577624 
L 58.881806 255.431397 
L 57.6 254.211749 
" style="fill:none;stroke:#004ed8;stroke-width:1.5;"/>
   </g>
   <g id="LineCollection_20">
    <path clip-path="url(#pf628d99293)" d="M 108.096637 307.584 
L 107.84804 307.365939 
L 106.573571 306.246754 
L 106.412382 306.105054 
L 105.053932 304.909508 
L 104.976724 304.841486 
L 103.541065 303.575211 
L 103.537725 303.572261 
L 102.105407 302.30589 
L 102.025334 302.235015 
L 100.669749 301.033875 
L 100.516313 300.897769 
L 99.23409 299.759156 
L 99.010653 299.560523 
L 97.798432 298.481725 
L 97.508343 298.223276 
L 96.362774 297.201573 
L 96.00937 296.88603 
L 94.927116 295.918692 
L 94.513724 295.548784 
L 93.491457 294.633072 
L 93.021393 294.211538 
L 92.055799 293.344706 
L 91.532368 292.874291 
L 90.620141 292.053584 
L 90.046636 291.537045 
L 89.184482 290.759698 
L 88.564187 290.199799 
L 87.748824 289.463038 
L 87.085009 288.862553 
L 86.313166 288.163596 
L 85.609093 287.525307 
L 84.877508 286.861362 
L 84.136428 286.18806 
L 83.441849 285.556328 
L 82.667002 284.850814 
L 82.006191 284.248485 
L 81.200805 283.513568 
L 80.570533 282.937823 
L 79.737826 282.176322 
L 79.134874 281.624333 
L 78.278056 280.839075 
L 77.699216 280.308007 
L 76.821482 279.501829 
L 76.263558 278.988835 
L 75.368095 278.164583 
L 74.827899 277.666808 
L 73.917884 276.827337 
L 73.392241 276.341916 
L 72.47084 275.49009 
L 71.956583 275.01415 
L 71.026951 274.152844 
L 70.520925 273.683501 
L 69.586207 272.815598 
L 69.085266 272.34996 
L 68.148598 271.478352 
L 67.649608 271.013517 
L 66.714113 270.141106 
L 66.21395 269.674162 
L 65.282743 268.803859 
L 64.778291 268.331886 
L 63.854478 267.466613 
L 63.342633 266.98668 
L 62.429307 266.129367 
L 61.906975 265.638533 
L 61.00722 264.792121 
L 60.471317 264.287437 
L 59.588208 263.454874 
L 59.035658 262.933381 
L 58.17226 262.117628 
L 57.6 261.576355 
" style="fill:none;stroke:#0044dd;stroke-width:1.5;"/>
   </g>
   <g id="LineCollection_21">
    <path clip-path="url(#pf628d99293)" d="M 100.222439 307.584 
L 99.23409 306.71 
L 98.710806 306.246754 
L 97.798432 305.438222 
L 97.202462 304.909508 
L 96.362774 304.163806 
L 95.697396 303.572261 
L 94.927116 302.886743 
L 94.195598 302.235015 
L 93.491457 301.607025 
L 92.697058 300.897769 
L 92.055799 300.324644 
L 91.201764 299.560523 
L 90.620141 299.039591 
L 89.709706 298.223276 
L 89.184482 297.751859 
L 88.220874 296.88603 
L 87.748824 296.461438 
L 86.735256 295.548784 
L 86.313166 295.168321 
L 85.252844 294.211538 
L 84.877508 293.872498 
L 83.773625 292.874291 
L 83.441849 292.573962 
L 82.297591 291.537045 
L 82.006191 291.272704 
L 80.824731 290.199799 
L 80.570533 289.968715 
L 79.355034 288.862553 
L 79.134874 288.661987 
L 77.88849 287.525307 
L 77.699216 287.352511 
L 76.42509 286.18806 
L 76.263558 286.040278 
L 74.964822 284.850814 
L 74.827899 284.725279 
L 73.507678 283.513568 
L 73.392241 283.407507 
L 72.053647 282.176322 
L 71.956583 282.086952 
L 70.602719 280.839075 
L 70.520925 280.763605 
L 69.154884 279.501829 
L 69.085266 279.437457 
L 67.710132 278.164583 
L 67.649608 278.1085 
L 66.268454 276.827337 
L 66.21395 276.776725 
L 64.82984 275.49009 
L 64.778291 275.442122 
L 63.394279 274.152844 
L 63.342633 274.104682 
L 61.961762 272.815598 
L 61.906975 272.764398 
L 60.532281 271.478352 
L 60.471317 271.421258 
L 59.105823 270.141106 
L 59.035658 270.075255 
L 57.682382 268.803859 
L 57.6 268.72638 
" style="fill:none;stroke:#003be2;stroke-width:1.5;"/>
   </g>
   <g id="LineCollection_22">
    <path clip-path="url(#pf628d99293)" d="M 92.576969 307.584 
L 92.055799 307.120168 
L 91.075456 306.246754 
L 90.620141 305.840689 
L 89.577124 304.909508 
L 89.184482 304.55861 
L 88.081962 303.572261 
L 87.748824 303.273923 
L 86.58996 302.235015 
L 86.313166 301.986619 
L 85.10111 300.897769 
L 84.877508 300.696691 
L 83.615399 299.560523 
L 83.441849 299.404131 
L 82.13282 298.223276 
L 82.006191 298.10893 
L 80.653361 296.88603 
L 80.570533 296.811081 
L 79.177013 295.548784 
L 79.134874 295.510574 
L 77.703766 294.211538 
L 77.699216 294.207404 
L 76.263558 292.90142 
L 76.233767 292.874291 
L 74.827899 291.592748 
L 74.766856 291.537045 
L 73.392241 290.2814 
L 73.303001 290.199799 
L 71.956583 288.967368 
L 71.842193 288.862553 
L 70.520925 287.650643 
L 70.38442 287.525307 
L 69.085266 286.331217 
L 68.929675 286.18806 
L 67.649608 285.009082 
L 67.477948 284.850814 
L 66.21395 283.68423 
L 66.029229 283.513568 
L 64.778291 282.356651 
L 64.583508 282.176322 
L 63.342633 281.026339 
L 63.140778 280.839075 
L 61.906975 279.693283 
L 61.701028 279.501829 
L 60.471317 278.357477 
L 60.264249 278.164583 
L 59.035658 277.01891 
L 58.830432 276.827337 
L 57.6 275.677575 
" style="fill:none;stroke:#0031e6;stroke-width:1.5;"/>
   </g>
   <g id="LineCollection_23">
    <path clip-path="url(#pf628d99293)" d="M 85.141204 307.584 
L 84.877508 307.347877 
L 83.649072 306.246754 
L 83.441849 306.060823 
L 82.160019 304.909508 
L 82.006191 304.771205 
L 80.674036 303.572261 
L 80.570533 303.479015 
L 79.191113 302.235015 
L 79.134874 302.184247 
L 77.711241 300.897769 
L 77.699216 300.886892 
L 76.263558 299.586811 
L 76.234559 299.560523 
L 74.827899 298.284085 
L 74.760955 298.223276 
L 73.392241 296.978763 
L 73.290358 296.88603 
L 71.956583 295.670835 
L 71.822759 295.548784 
L 70.520925 294.360294 
L 70.358148 294.211538 
L 69.085266 293.047132 
L 68.896516 292.874291 
L 67.649608 291.731341 
L 67.437855 291.537045 
L 66.21395 290.412914 
L 65.982155 290.199799 
L 64.778291 289.091841 
L 64.529408 288.862553 
L 63.342633 287.768117 
L 63.079604 287.525307 
L 61.906975 286.441731 
L 61.632734 286.18806 
L 60.471317 285.112677 
L 60.18879 284.850814 
L 59.035658 283.780946 
L 58.747762 283.513568 
L 57.6 282.446531 
" style="fill:none;stroke:#0027ec;stroke-width:1.5;"/>
   </g>
   <g id="LineCollection_24">
    <path clip-path="url(#pf628d99293)" d="M 77.899292 307.584 
L 77.699216 307.403797 
L 76.415873 306.246754 
L 76.263558 306.109295 
L 74.935438 304.909508 
L 74.827899 304.812265 
L 73.457979 303.572261 
L 73.392241 303.512699 
L 71.983487 302.235015 
L 71.956583 302.210591 
L 70.520925 300.905892 
L 70.511996 300.897769 
L 69.085266 299.598528 
L 69.043573 299.560523 
L 67.649608 298.288611 
L 67.578075 298.223276 
L 66.21395 296.976133 
L 66.115493 296.88603 
L 64.778291 295.661087 
L 64.655819 295.548784 
L 63.342633 294.343465 
L 63.199042 294.211538 
L 61.906975 293.023259 
L 61.745156 292.874291 
L 60.471317 291.700463 
L 60.294152 291.537045 
L 59.035658 290.375068 
L 58.84602 290.199799 
L 57.6 289.047066 
" style="fill:none;stroke:#001df0;stroke-width:1.5;"/>
   </g>
   <g id="LineCollection_25">
    <path clip-path="url(#pf628d99293)" d="M 70.836938 307.584 
L 70.520925 307.297781 
L 69.361629 306.246754 
L 69.085266 305.995962 
L 67.889214 304.909508 
L 67.649608 304.691649 
L 66.419687 303.572261 
L 66.21395 303.384835 
L 64.953037 302.235015 
L 64.778291 302.075512 
L 63.489257 300.897769 
L 63.342633 300.763675 
L 62.028339 299.560523 
L 61.906975 299.449315 
L 60.570273 298.223276 
L 60.471317 298.132425 
L 59.115053 296.88603 
L 59.035658 296.812997 
L 57.662668 295.548784 
L 57.6 295.491025 
" style="fill:none;stroke:#0013f6;stroke-width:1.5;"/>
   </g>
   <g id="LineCollection_26">
    <path clip-path="url(#pf628d99293)" d="M 63.941221 307.584 
L 63.342633 307.038944 
L 62.473473 306.246754 
L 61.906975 305.729939 
L 61.008535 304.909508 
L 60.471317 304.418473 
L 59.546401 303.572261 
L 59.035658 303.10454 
L 58.087062 302.235015 
L 57.6 301.788132 
" style="fill:none;stroke:#0009fb;stroke-width:1.5;"/>
   </g>
   <g id="LineCollection_27"/>
   <g id="patch_3">
    <path d="M 57.6 307.584 
L 57.6 41.472 
" style="fill:none;stroke:#000000;stroke-linecap:square;stroke-linejoin:miter;stroke-width:0.8;"/>
   </g>
   <g id="patch_4">
    <path d="M 343.296 307.584 
L 343.296 41.472 
" style="fill:none;stroke:#000000;stroke-linecap:square;stroke-linejoin:miter;stroke-width:0.8;"/>
   </g>
   <g id="patch_5">
    <path d="M 57.6 307.584 
L 343.296 307.584 
" style="fill:none;stroke:#000000;stroke-linecap:square;stroke-linejoin:miter;stroke-width:0.8;"/>
   </g>
   <g id="patch_6">
    <path d="M 57.6 41.472 
L 343.296 41.472 
" style="fill:none;stroke:#000000;stroke-linecap:square;stroke-linejoin:miter;stroke-width:0.8;"/>
   </g>
  </g>
  <g id="axes_2">
   <g id="patch_7">
    <path clip-path="url(#p28fd5c7b32)" d="M 361.152 307.584 
L 361.152 297.348923 
L 361.152 51.707077 
L 361.152 41.472 
L 374.4576 41.472 
L 374.4576 51.707077 
L 374.4576 297.348923 
L 374.4576 307.584 
z
" style="fill:#ffffff;stroke:#ffffff;stroke-linejoin:miter;stroke-width:0.01;"/>
   </g>
   <g id="matplotlib.axis_3"/>
   <g id="matplotlib.axis_4">
    <g id="ytick_10">
     <g id="line2d_19">
      <defs>
       <path d="M 0 0 
L 3.5 0 
" id="m0beca13b30" style="stroke:#000000;stroke-width:0.8;"/>
      </defs>
      <g>
       <use style="stroke:#000000;stroke-width:0.8;" x="374.4576" xlink:href="#m0beca13b30" y="307.584"/>
      </g>
     </g>
     <g id="text_19">
      <!-- 0 -->
      <g transform="translate(381.4576 311.383219)scale(0.1 -0.1)">
       <use xlink:href="#DejaVuSans-48"/>
      </g>
     </g>
    </g>
    <g id="ytick_11">
     <g id="line2d_20">
      <g>
       <use style="stroke:#000000;stroke-width:0.8;" x="374.4576" xlink:href="#m0beca13b30" y="276.878769"/>
      </g>
     </g>
     <g id="text_20">
      <!-- 300 -->
      <defs>
       <path d="M 40.578125 39.3125 
Q 47.65625 37.796875 51.625 33 
Q 55.609375 28.21875 55.609375 21.1875 
Q 55.609375 10.40625 48.1875 4.484375 
Q 40.765625 -1.421875 27.09375 -1.421875 
Q 22.515625 -1.421875 17.65625 -0.515625 
Q 12.796875 0.390625 7.625 2.203125 
L 7.625 11.71875 
Q 11.71875 9.328125 16.59375 8.109375 
Q 21.484375 6.890625 26.8125 6.890625 
Q 36.078125 6.890625 40.9375 10.546875 
Q 45.796875 14.203125 45.796875 21.1875 
Q 45.796875 27.640625 41.28125 31.265625 
Q 36.765625 34.90625 28.71875 34.90625 
L 20.21875 34.90625 
L 20.21875 43.015625 
L 29.109375 43.015625 
Q 36.375 43.015625 40.234375 45.921875 
Q 44.09375 48.828125 44.09375 54.296875 
Q 44.09375 59.90625 40.109375 62.90625 
Q 36.140625 65.921875 28.71875 65.921875 
Q 24.65625 65.921875 20.015625 65.03125 
Q 15.375 64.15625 9.8125 62.3125 
L 9.8125 71.09375 
Q 15.4375 72.65625 20.34375 73.4375 
Q 25.25 74.21875 29.59375 74.21875 
Q 40.828125 74.21875 47.359375 69.109375 
Q 53.90625 64.015625 53.90625 55.328125 
Q 53.90625 49.265625 50.4375 45.09375 
Q 46.96875 40.921875 40.578125 39.3125 
z
" id="DejaVuSans-51"/>
      </defs>
      <g transform="translate(381.4576 280.677988)scale(0.1 -0.1)">
       <use xlink:href="#DejaVuSans-51"/>
       <use x="63.623047" xlink:href="#DejaVuSans-48"/>
       <use x="127.246094" xlink:href="#DejaVuSans-48"/>
      </g>
     </g>
    </g>
    <g id="ytick_12">
     <g id="line2d_21">
      <g>
       <use style="stroke:#000000;stroke-width:0.8;" x="374.4576" xlink:href="#m0beca13b30" y="246.173538"/>
      </g>
     </g>
     <g id="text_21">
      <!-- 600 -->
      <defs>
       <path d="M 33.015625 40.375 
Q 26.375 40.375 22.484375 35.828125 
Q 18.609375 31.296875 18.609375 23.390625 
Q 18.609375 15.53125 22.484375 10.953125 
Q 26.375 6.390625 33.015625 6.390625 
Q 39.65625 6.390625 43.53125 10.953125 
Q 47.40625 15.53125 47.40625 23.390625 
Q 47.40625 31.296875 43.53125 35.828125 
Q 39.65625 40.375 33.015625 40.375 
z
M 52.59375 71.296875 
L 52.59375 62.3125 
Q 48.875 64.0625 45.09375 64.984375 
Q 41.3125 65.921875 37.59375 65.921875 
Q 27.828125 65.921875 22.671875 59.328125 
Q 17.53125 52.734375 16.796875 39.40625 
Q 19.671875 43.65625 24.015625 45.921875 
Q 28.375 48.1875 33.59375 48.1875 
Q 44.578125 48.1875 50.953125 41.515625 
Q 57.328125 34.859375 57.328125 23.390625 
Q 57.328125 12.15625 50.6875 5.359375 
Q 44.046875 -1.421875 33.015625 -1.421875 
Q 20.359375 -1.421875 13.671875 8.265625 
Q 6.984375 17.96875 6.984375 36.375 
Q 6.984375 53.65625 15.1875 63.9375 
Q 23.390625 74.21875 37.203125 74.21875 
Q 40.921875 74.21875 44.703125 73.484375 
Q 48.484375 72.75 52.59375 71.296875 
z
" id="DejaVuSans-54"/>
      </defs>
      <g transform="translate(381.4576 249.972757)scale(0.1 -0.1)">
       <use xlink:href="#DejaVuSans-54"/>
       <use x="63.623047" xlink:href="#DejaVuSans-48"/>
       <use x="127.246094" xlink:href="#DejaVuSans-48"/>
      </g>
     </g>
    </g>
    <g id="ytick_13">
     <g id="line2d_22">
      <g>
       <use style="stroke:#000000;stroke-width:0.8;" x="374.4576" xlink:href="#m0beca13b30" y="215.468308"/>
      </g>
     </g>
     <g id="text_22">
      <!-- 900 -->
      <defs>
       <path d="M 10.984375 1.515625 
L 10.984375 10.5 
Q 14.703125 8.734375 18.5 7.8125 
Q 22.3125 6.890625 25.984375 6.890625 
Q 35.75 6.890625 40.890625 13.453125 
Q 46.046875 20.015625 46.78125 33.40625 
Q 43.953125 29.203125 39.59375 26.953125 
Q 35.25 24.703125 29.984375 24.703125 
Q 19.046875 24.703125 12.671875 31.3125 
Q 6.296875 37.9375 6.296875 49.421875 
Q 6.296875 60.640625 12.9375 67.421875 
Q 19.578125 74.21875 30.609375 74.21875 
Q 43.265625 74.21875 49.921875 64.515625 
Q 56.59375 54.828125 56.59375 36.375 
Q 56.59375 19.140625 48.40625 8.859375 
Q 40.234375 -1.421875 26.421875 -1.421875 
Q 22.703125 -1.421875 18.890625 -0.6875 
Q 15.09375 0.046875 10.984375 1.515625 
z
M 30.609375 32.421875 
Q 37.25 32.421875 41.125 36.953125 
Q 45.015625 41.5 45.015625 49.421875 
Q 45.015625 57.28125 41.125 61.84375 
Q 37.25 66.40625 30.609375 66.40625 
Q 23.96875 66.40625 20.09375 61.84375 
Q 16.21875 57.28125 16.21875 49.421875 
Q 16.21875 41.5 20.09375 36.953125 
Q 23.96875 32.421875 30.609375 32.421875 
z
" id="DejaVuSans-57"/>
      </defs>
      <g transform="translate(381.4576 219.267526)scale(0.1 -0.1)">
       <use xlink:href="#DejaVuSans-57"/>
       <use x="63.623047" xlink:href="#DejaVuSans-48"/>
       <use x="127.246094" xlink:href="#DejaVuSans-48"/>
      </g>
     </g>
    </g>
    <g id="ytick_14">
     <g id="line2d_23">
      <g>
       <use style="stroke:#000000;stroke-width:0.8;" x="374.4576" xlink:href="#m0beca13b30" y="184.763077"/>
      </g>
     </g>
     <g id="text_23">
      <!-- 1200 -->
      <g transform="translate(381.4576 188.562296)scale(0.1 -0.1)">
       <use xlink:href="#DejaVuSans-49"/>
       <use x="63.623047" xlink:href="#DejaVuSans-50"/>
       <use x="127.246094" xlink:href="#DejaVuSans-48"/>
       <use x="190.869141" xlink:href="#DejaVuSans-48"/>
      </g>
     </g>
    </g>
    <g id="ytick_15">
     <g id="line2d_24">
      <g>
       <use style="stroke:#000000;stroke-width:0.8;" x="374.4576" xlink:href="#m0beca13b30" y="154.057846"/>
      </g>
     </g>
     <g id="text_24">
      <!-- 1500 -->
      <g transform="translate(381.4576 157.857065)scale(0.1 -0.1)">
       <use xlink:href="#DejaVuSans-49"/>
       <use x="63.623047" xlink:href="#DejaVuSans-53"/>
       <use x="127.246094" xlink:href="#DejaVuSans-48"/>
       <use x="190.869141" xlink:href="#DejaVuSans-48"/>
      </g>
     </g>
    </g>
    <g id="ytick_16">
     <g id="line2d_25">
      <g>
       <use style="stroke:#000000;stroke-width:0.8;" x="374.4576" xlink:href="#m0beca13b30" y="123.352615"/>
      </g>
     </g>
     <g id="text_25">
      <!-- 1800 -->
      <defs>
       <path d="M 31.78125 34.625 
Q 24.75 34.625 20.71875 30.859375 
Q 16.703125 27.09375 16.703125 20.515625 
Q 16.703125 13.921875 20.71875 10.15625 
Q 24.75 6.390625 31.78125 6.390625 
Q 38.8125 6.390625 42.859375 10.171875 
Q 46.921875 13.96875 46.921875 20.515625 
Q 46.921875 27.09375 42.890625 30.859375 
Q 38.875 34.625 31.78125 34.625 
z
M 21.921875 38.8125 
Q 15.578125 40.375 12.03125 44.71875 
Q 8.5 49.078125 8.5 55.328125 
Q 8.5 64.0625 14.71875 69.140625 
Q 20.953125 74.21875 31.78125 74.21875 
Q 42.671875 74.21875 48.875 69.140625 
Q 55.078125 64.0625 55.078125 55.328125 
Q 55.078125 49.078125 51.53125 44.71875 
Q 48 40.375 41.703125 38.8125 
Q 48.828125 37.15625 52.796875 32.3125 
Q 56.78125 27.484375 56.78125 20.515625 
Q 56.78125 9.90625 50.3125 4.234375 
Q 43.84375 -1.421875 31.78125 -1.421875 
Q 19.734375 -1.421875 13.25 4.234375 
Q 6.78125 9.90625 6.78125 20.515625 
Q 6.78125 27.484375 10.78125 32.3125 
Q 14.796875 37.15625 21.921875 38.8125 
z
M 18.3125 54.390625 
Q 18.3125 48.734375 21.84375 45.5625 
Q 25.390625 42.390625 31.78125 42.390625 
Q 38.140625 42.390625 41.71875 45.5625 
Q 45.3125 48.734375 45.3125 54.390625 
Q 45.3125 60.0625 41.71875 63.234375 
Q 38.140625 66.40625 31.78125 66.40625 
Q 25.390625 66.40625 21.84375 63.234375 
Q 18.3125 60.0625 18.3125 54.390625 
z
" id="DejaVuSans-56"/>
      </defs>
      <g transform="translate(381.4576 127.151834)scale(0.1 -0.1)">
       <use xlink:href="#DejaVuSans-49"/>
       <use x="63.623047" xlink:href="#DejaVuSans-56"/>
       <use x="127.246094" xlink:href="#DejaVuSans-48"/>
       <use x="190.869141" xlink:href="#DejaVuSans-48"/>
      </g>
     </g>
    </g>
    <g id="ytick_17">
     <g id="line2d_26">
      <g>
       <use style="stroke:#000000;stroke-width:0.8;" x="374.4576" xlink:href="#m0beca13b30" y="92.647385"/>
      </g>
     </g>
     <g id="text_26">
      <!-- 2100 -->
      <g transform="translate(381.4576 96.446603)scale(0.1 -0.1)">
       <use xlink:href="#DejaVuSans-50"/>
       <use x="63.623047" xlink:href="#DejaVuSans-49"/>
       <use x="127.246094" xlink:href="#DejaVuSans-48"/>
       <use x="190.869141" xlink:href="#DejaVuSans-48"/>
      </g>
     </g>
    </g>
    <g id="ytick_18">
     <g id="line2d_27">
      <g>
       <use style="stroke:#000000;stroke-width:0.8;" x="374.4576" xlink:href="#m0beca13b30" y="61.942154"/>
      </g>
     </g>
     <g id="text_27">
      <!-- 2400 -->
      <defs>
       <path d="M 37.796875 64.3125 
L 12.890625 25.390625 
L 37.796875 25.390625 
z
M 35.203125 72.90625 
L 47.609375 72.90625 
L 47.609375 25.390625 
L 58.015625 25.390625 
L 58.015625 17.1875 
L 47.609375 17.1875 
L 47.609375 0 
L 37.796875 0 
L 37.796875 17.1875 
L 4.890625 17.1875 
L 4.890625 26.703125 
z
" id="DejaVuSans-52"/>
      </defs>
      <g transform="translate(381.4576 65.741373)scale(0.1 -0.1)">
       <use xlink:href="#DejaVuSans-50"/>
       <use x="63.623047" xlink:href="#DejaVuSans-52"/>
       <use x="127.246094" xlink:href="#DejaVuSans-48"/>
       <use x="190.869141" xlink:href="#DejaVuSans-48"/>
      </g>
     </g>
    </g>
   </g>
   <g id="LineCollection_28">
    <path clip-path="url(#p28fd5c7b32)" d="M 361.152 307.584 
L 374.4576 307.584 
" style="fill:none;stroke:#00ff80;stroke-width:1.5;"/>
    <path clip-path="url(#p28fd5c7b32)" d="M 361.152 297.348923 
L 374.4576 297.348923 
" style="fill:none;stroke:#00f684;stroke-width:1.5;"/>
    <path clip-path="url(#p28fd5c7b32)" d="M 361.152 287.113846 
L 374.4576 287.113846 
" style="fill:none;stroke:#00ec89;stroke-width:1.5;"/>
    <path clip-path="url(#p28fd5c7b32)" d="M 361.152 276.878769 
L 374.4576 276.878769 
" style="fill:none;stroke:#00e28e;stroke-width:1.5;"/>
    <path clip-path="url(#p28fd5c7b32)" d="M 361.152 266.643692 
L 374.4576 266.643692 
" style="fill:none;stroke:#00d893;stroke-width:1.5;"/>
    <path clip-path="url(#p28fd5c7b32)" d="M 361.152 256.408615 
L 374.4576 256.408615 
" style="fill:none;stroke:#00ce98;stroke-width:1.5;"/>
    <path clip-path="url(#p28fd5c7b32)" d="M 361.152 246.173538 
L 374.4576 246.173538 
" style="fill:none;stroke:#00c49d;stroke-width:1.5;"/>
    <path clip-path="url(#p28fd5c7b32)" d="M 361.152 235.938462 
L 374.4576 235.938462 
" style="fill:none;stroke:#00bba2;stroke-width:1.5;"/>
    <path clip-path="url(#p28fd5c7b32)" d="M 361.152 225.703385 
L 374.4576 225.703385 
" style="fill:none;stroke:#00b1a6;stroke-width:1.5;"/>
    <path clip-path="url(#p28fd5c7b32)" d="M 361.152 215.468308 
L 374.4576 215.468308 
" style="fill:none;stroke:#00a7ac;stroke-width:1.5;"/>
    <path clip-path="url(#p28fd5c7b32)" d="M 361.152 205.233231 
L 374.4576 205.233231 
" style="fill:none;stroke:#009db0;stroke-width:1.5;"/>
    <path clip-path="url(#p28fd5c7b32)" d="M 361.152 194.998154 
L 374.4576 194.998154 
" style="fill:none;stroke:#0093b6;stroke-width:1.5;"/>
    <path clip-path="url(#p28fd5c7b32)" d="M 361.152 184.763077 
L 374.4576 184.763077 
" style="fill:none;stroke:#0089bb;stroke-width:1.5;"/>
    <path clip-path="url(#p28fd5c7b32)" d="M 361.152 174.528 
L 374.4576 174.528 
" style="fill:none;stroke:#007fc0;stroke-width:1.5;"/>
    <path clip-path="url(#p28fd5c7b32)" d="M 361.152 164.292923 
L 374.4576 164.292923 
" style="fill:none;stroke:#0076c4;stroke-width:1.5;"/>
    <path clip-path="url(#p28fd5c7b32)" d="M 361.152 154.057846 
L 374.4576 154.057846 
" style="fill:none;stroke:#006cc9;stroke-width:1.5;"/>
    <path clip-path="url(#p28fd5c7b32)" d="M 361.152 143.822769 
L 374.4576 143.822769 
" style="fill:none;stroke:#0062ce;stroke-width:1.5;"/>
    <path clip-path="url(#p28fd5c7b32)" d="M 361.152 133.587692 
L 374.4576 133.587692 
" style="fill:none;stroke:#0058d3;stroke-width:1.5;"/>
    <path clip-path="url(#p28fd5c7b32)" d="M 361.152 123.352615 
L 374.4576 123.352615 
" style="fill:none;stroke:#004ed8;stroke-width:1.5;"/>
    <path clip-path="url(#p28fd5c7b32)" d="M 361.152 113.117538 
L 374.4576 113.117538 
" style="fill:none;stroke:#0044dd;stroke-width:1.5;"/>
    <path clip-path="url(#p28fd5c7b32)" d="M 361.152 102.882462 
L 374.4576 102.882462 
" style="fill:none;stroke:#003be2;stroke-width:1.5;"/>
    <path clip-path="url(#p28fd5c7b32)" d="M 361.152 92.647385 
L 374.4576 92.647385 
" style="fill:none;stroke:#0031e6;stroke-width:1.5;"/>
    <path clip-path="url(#p28fd5c7b32)" d="M 361.152 82.412308 
L 374.4576 82.412308 
" style="fill:none;stroke:#0027ec;stroke-width:1.5;"/>
    <path clip-path="url(#p28fd5c7b32)" d="M 361.152 72.177231 
L 374.4576 72.177231 
" style="fill:none;stroke:#001df0;stroke-width:1.5;"/>
    <path clip-path="url(#p28fd5c7b32)" d="M 361.152 61.942154 
L 374.4576 61.942154 
" style="fill:none;stroke:#0013f6;stroke-width:1.5;"/>
    <path clip-path="url(#p28fd5c7b32)" d="M 361.152 51.707077 
L 374.4576 51.707077 
" style="fill:none;stroke:#0009fb;stroke-width:1.5;"/>
    <path clip-path="url(#p28fd5c7b32)" d="M 361.152 41.472 
L 374.4576 41.472 
" style="fill:none;stroke:#0000ff;stroke-width:1.5;"/>
   </g>
   <g id="patch_8">
    <path d="M 361.152 307.584 
L 361.152 297.348923 
L 361.152 51.707077 
L 361.152 41.472 
L 374.4576 41.472 
L 374.4576 51.707077 
L 374.4576 297.348923 
L 374.4576 307.584 
z
" style="fill:none;stroke:#000000;stroke-linejoin:miter;stroke-width:0.8;"/>
   </g>
  </g>
 </g>
 <defs>
  <clipPath id="pf628d99293">
   <rect height="266.112" width="285.696" x="57.6" y="41.472"/>
  </clipPath>
  <clipPath id="p28fd5c7b32">
   <rect height="266.112" width="13.3056" x="361.152" y="41.472"/>
  </clipPath>
 </defs>
</svg>
