<?xml version="1.0" encoding="utf-8" standalone="no"?>
<!DOCTYPE svg PUBLIC "-//W3C//DTD SVG 1.1//EN"
  "http://www.w3.org/Graphics/SVG/1.1/DTD/svg11.dtd">
<!-- Created with matplotlib (https://matplotlib.org/) -->
<svg height="345.6pt" version="1.1" viewBox="0 0 460.8 345.6" width="460.8pt" xmlns="http://www.w3.org/2000/svg" xmlns:xlink="http://www.w3.org/1999/xlink">
 <defs>
  <style type="text/css">
*{stroke-linecap:butt;stroke-linejoin:round;}
  </style>
 </defs>
 <g id="figure_1">
  <g id="patch_1">
   <path d="M 0 345.6 
L 460.8 345.6 
L 460.8 0 
L 0 0 
z
" style="fill:#ffffff;"/>
  </g>
  <g id="axes_1">
   <g id="patch_2">
    <path d="M 57.6 307.584 
L 343.296 307.584 
L 343.296 41.472 
L 57.6 41.472 
z
" style="fill:#ffffff;"/>
   </g>
   <g id="matplotlib.axis_1">
    <g id="xtick_1">
     <g id="line2d_1">
      <defs>
       <path d="M 0 0 
L 0 3.5 
" id="m704894795f" style="stroke:#000000;stroke-width:0.8;"/>
      </defs>
      <g>
       <use style="stroke:#000000;stroke-width:0.8;" x="86.1696" xlink:href="#m704894795f" y="307.584"/>
      </g>
     </g>
     <g id="text_1">
      <!-- −14 -->
      <defs>
       <path d="M 10.59375 35.5 
L 73.1875 35.5 
L 73.1875 27.203125 
L 10.59375 27.203125 
z
" id="DejaVuSans-8722"/>
       <path d="M 12.40625 8.296875 
L 28.515625 8.296875 
L 28.515625 63.921875 
L 10.984375 60.40625 
L 10.984375 69.390625 
L 28.421875 72.90625 
L 38.28125 72.90625 
L 38.28125 8.296875 
L 54.390625 8.296875 
L 54.390625 0 
L 12.40625 0 
z
" id="DejaVuSans-49"/>
       <path d="M 37.796875 64.3125 
L 12.890625 25.390625 
L 37.796875 25.390625 
z
M 35.203125 72.90625 
L 47.609375 72.90625 
L 47.609375 25.390625 
L 58.015625 25.390625 
L 58.015625 17.1875 
L 47.609375 17.1875 
L 47.609375 0 
L 37.796875 0 
L 37.796875 17.1875 
L 4.890625 17.1875 
L 4.890625 26.703125 
z
" id="DejaVuSans-52"/>
      </defs>
      <g transform="translate(75.617256 322.182437)scale(0.1 -0.1)">
       <use xlink:href="#DejaVuSans-8722"/>
       <use x="83.789062" xlink:href="#DejaVuSans-49"/>
       <use x="147.412109" xlink:href="#DejaVuSans-52"/>
      </g>
     </g>
    </g>
    <g id="xtick_2">
     <g id="line2d_2">
      <g>
       <use style="stroke:#000000;stroke-width:0.8;" x="143.3088" xlink:href="#m704894795f" y="307.584"/>
      </g>
     </g>
     <g id="text_2">
      <!-- −12 -->
      <defs>
       <path d="M 19.1875 8.296875 
L 53.609375 8.296875 
L 53.609375 0 
L 7.328125 0 
L 7.328125 8.296875 
Q 12.9375 14.109375 22.625 23.890625 
Q 32.328125 33.6875 34.8125 36.53125 
Q 39.546875 41.84375 41.421875 45.53125 
Q 43.3125 49.21875 43.3125 52.78125 
Q 43.3125 58.59375 39.234375 62.25 
Q 35.15625 65.921875 28.609375 65.921875 
Q 23.96875 65.921875 18.8125 64.3125 
Q 13.671875 62.703125 7.8125 59.421875 
L 7.8125 69.390625 
Q 13.765625 71.78125 18.9375 73 
Q 24.125 74.21875 28.421875 74.21875 
Q 39.75 74.21875 46.484375 68.546875 
Q 53.21875 62.890625 53.21875 53.421875 
Q 53.21875 48.921875 51.53125 44.890625 
Q 49.859375 40.875 45.40625 35.40625 
Q 44.1875 33.984375 37.640625 27.21875 
Q 31.109375 20.453125 19.1875 8.296875 
z
" id="DejaVuSans-50"/>
      </defs>
      <g transform="translate(132.756456 322.182437)scale(0.1 -0.1)">
       <use xlink:href="#DejaVuSans-8722"/>
       <use x="83.789062" xlink:href="#DejaVuSans-49"/>
       <use x="147.412109" xlink:href="#DejaVuSans-50"/>
      </g>
     </g>
    </g>
    <g id="xtick_3">
     <g id="line2d_3">
      <g>
       <use style="stroke:#000000;stroke-width:0.8;" x="200.448" xlink:href="#m704894795f" y="307.584"/>
      </g>
     </g>
     <g id="text_3">
      <!-- −10 -->
      <defs>
       <path d="M 31.78125 66.40625 
Q 24.171875 66.40625 20.328125 58.90625 
Q 16.5 51.421875 16.5 36.375 
Q 16.5 21.390625 20.328125 13.890625 
Q 24.171875 6.390625 31.78125 6.390625 
Q 39.453125 6.390625 43.28125 13.890625 
Q 47.125 21.390625 47.125 36.375 
Q 47.125 51.421875 43.28125 58.90625 
Q 39.453125 66.40625 31.78125 66.40625 
z
M 31.78125 74.21875 
Q 44.046875 74.21875 50.515625 64.515625 
Q 56.984375 54.828125 56.984375 36.375 
Q 56.984375 17.96875 50.515625 8.265625 
Q 44.046875 -1.421875 31.78125 -1.421875 
Q 19.53125 -1.421875 13.0625 8.265625 
Q 6.59375 17.96875 6.59375 36.375 
Q 6.59375 54.828125 13.0625 64.515625 
Q 19.53125 74.21875 31.78125 74.21875 
z
" id="DejaVuSans-48"/>
      </defs>
      <g transform="translate(189.895656 322.182437)scale(0.1 -0.1)">
       <use xlink:href="#DejaVuSans-8722"/>
       <use x="83.789062" xlink:href="#DejaVuSans-49"/>
       <use x="147.412109" xlink:href="#DejaVuSans-48"/>
      </g>
     </g>
    </g>
    <g id="xtick_4">
     <g id="line2d_4">
      <g>
       <use style="stroke:#000000;stroke-width:0.8;" x="257.5872" xlink:href="#m704894795f" y="307.584"/>
      </g>
     </g>
     <g id="text_4">
      <!-- −8 -->
      <defs>
       <path d="M 31.78125 34.625 
Q 24.75 34.625 20.71875 30.859375 
Q 16.703125 27.09375 16.703125 20.515625 
Q 16.703125 13.921875 20.71875 10.15625 
Q 24.75 6.390625 31.78125 6.390625 
Q 38.8125 6.390625 42.859375 10.171875 
Q 46.921875 13.96875 46.921875 20.515625 
Q 46.921875 27.09375 42.890625 30.859375 
Q 38.875 34.625 31.78125 34.625 
z
M 21.921875 38.8125 
Q 15.578125 40.375 12.03125 44.71875 
Q 8.5 49.078125 8.5 55.328125 
Q 8.5 64.0625 14.71875 69.140625 
Q 20.953125 74.21875 31.78125 74.21875 
Q 42.671875 74.21875 48.875 69.140625 
Q 55.078125 64.0625 55.078125 55.328125 
Q 55.078125 49.078125 51.53125 44.71875 
Q 48 40.375 41.703125 38.8125 
Q 48.828125 37.15625 52.796875 32.3125 
Q 56.78125 27.484375 56.78125 20.515625 
Q 56.78125 9.90625 50.3125 4.234375 
Q 43.84375 -1.421875 31.78125 -1.421875 
Q 19.734375 -1.421875 13.25 4.234375 
Q 6.78125 9.90625 6.78125 20.515625 
Q 6.78125 27.484375 10.78125 32.3125 
Q 14.796875 37.15625 21.921875 38.8125 
z
M 18.3125 54.390625 
Q 18.3125 48.734375 21.84375 45.5625 
Q 25.390625 42.390625 31.78125 42.390625 
Q 38.140625 42.390625 41.71875 45.5625 
Q 45.3125 48.734375 45.3125 54.390625 
Q 45.3125 60.0625 41.71875 63.234375 
Q 38.140625 66.40625 31.78125 66.40625 
Q 25.390625 66.40625 21.84375 63.234375 
Q 18.3125 60.0625 18.3125 54.390625 
z
" id="DejaVuSans-56"/>
      </defs>
      <g transform="translate(250.216106 322.182437)scale(0.1 -0.1)">
       <use xlink:href="#DejaVuSans-8722"/>
       <use x="83.789062" xlink:href="#DejaVuSans-56"/>
      </g>
     </g>
    </g>
    <g id="xtick_5">
     <g id="line2d_5">
      <g>
       <use style="stroke:#000000;stroke-width:0.8;" x="314.7264" xlink:href="#m704894795f" y="307.584"/>
      </g>
     </g>
     <g id="text_5">
      <!-- −6 -->
      <defs>
       <path d="M 33.015625 40.375 
Q 26.375 40.375 22.484375 35.828125 
Q 18.609375 31.296875 18.609375 23.390625 
Q 18.609375 15.53125 22.484375 10.953125 
Q 26.375 6.390625 33.015625 6.390625 
Q 39.65625 6.390625 43.53125 10.953125 
Q 47.40625 15.53125 47.40625 23.390625 
Q 47.40625 31.296875 43.53125 35.828125 
Q 39.65625 40.375 33.015625 40.375 
z
M 52.59375 71.296875 
L 52.59375 62.3125 
Q 48.875 64.0625 45.09375 64.984375 
Q 41.3125 65.921875 37.59375 65.921875 
Q 27.828125 65.921875 22.671875 59.328125 
Q 17.53125 52.734375 16.796875 39.40625 
Q 19.671875 43.65625 24.015625 45.921875 
Q 28.375 48.1875 33.59375 48.1875 
Q 44.578125 48.1875 50.953125 41.515625 
Q 57.328125 34.859375 57.328125 23.390625 
Q 57.328125 12.15625 50.6875 5.359375 
Q 44.046875 -1.421875 33.015625 -1.421875 
Q 20.359375 -1.421875 13.671875 8.265625 
Q 6.984375 17.96875 6.984375 36.375 
Q 6.984375 53.65625 15.1875 63.9375 
Q 23.390625 74.21875 37.203125 74.21875 
Q 40.921875 74.21875 44.703125 73.484375 
Q 48.484375 72.75 52.59375 71.296875 
z
" id="DejaVuSans-54"/>
      </defs>
      <g transform="translate(307.355306 322.182437)scale(0.1 -0.1)">
       <use xlink:href="#DejaVuSans-8722"/>
       <use x="83.789062" xlink:href="#DejaVuSans-54"/>
      </g>
     </g>
    </g>
   </g>
   <g id="matplotlib.axis_2">
    <g id="ytick_1">
     <g id="line2d_6">
      <defs>
       <path d="M 0 0 
L -3.5 0 
" id="ma3c0028d1b" style="stroke:#000000;stroke-width:0.8;"/>
      </defs>
      <g>
       <use style="stroke:#000000;stroke-width:0.8;" x="57.6" xlink:href="#ma3c0028d1b" y="307.584"/>
      </g>
     </g>
     <g id="text_6">
      <!-- −3 -->
      <defs>
       <path d="M 40.578125 39.3125 
Q 47.65625 37.796875 51.625 33 
Q 55.609375 28.21875 55.609375 21.1875 
Q 55.609375 10.40625 48.1875 4.484375 
Q 40.765625 -1.421875 27.09375 -1.421875 
Q 22.515625 -1.421875 17.65625 -0.515625 
Q 12.796875 0.390625 7.625 2.203125 
L 7.625 11.71875 
Q 11.71875 9.328125 16.59375 8.109375 
Q 21.484375 6.890625 26.8125 6.890625 
Q 36.078125 6.890625 40.9375 10.546875 
Q 45.796875 14.203125 45.796875 21.1875 
Q 45.796875 27.640625 41.28125 31.265625 
Q 36.765625 34.90625 28.71875 34.90625 
L 20.21875 34.90625 
L 20.21875 43.015625 
L 29.109375 43.015625 
Q 36.375 43.015625 40.234375 45.921875 
Q 44.09375 48.828125 44.09375 54.296875 
Q 44.09375 59.90625 40.109375 62.90625 
Q 36.140625 65.921875 28.71875 65.921875 
Q 24.65625 65.921875 20.015625 65.03125 
Q 15.375 64.15625 9.8125 62.3125 
L 9.8125 71.09375 
Q 15.4375 72.65625 20.34375 73.4375 
Q 25.25 74.21875 29.59375 74.21875 
Q 40.828125 74.21875 47.359375 69.109375 
Q 53.90625 64.015625 53.90625 55.328125 
Q 53.90625 49.265625 50.4375 45.09375 
Q 46.96875 40.921875 40.578125 39.3125 
z
" id="DejaVuSans-51"/>
      </defs>
      <g transform="translate(35.857813 311.383219)scale(0.1 -0.1)">
       <use xlink:href="#DejaVuSans-8722"/>
       <use x="83.789062" xlink:href="#DejaVuSans-51"/>
      </g>
     </g>
    </g>
    <g id="ytick_2">
     <g id="line2d_7">
      <g>
       <use style="stroke:#000000;stroke-width:0.8;" x="57.6" xlink:href="#ma3c0028d1b" y="263.232"/>
      </g>
     </g>
     <g id="text_7">
      <!-- −2 -->
      <g transform="translate(35.857813 267.031219)scale(0.1 -0.1)">
       <use xlink:href="#DejaVuSans-8722"/>
       <use x="83.789062" xlink:href="#DejaVuSans-50"/>
      </g>
     </g>
    </g>
    <g id="ytick_3">
     <g id="line2d_8">
      <g>
       <use style="stroke:#000000;stroke-width:0.8;" x="57.6" xlink:href="#ma3c0028d1b" y="218.88"/>
      </g>
     </g>
     <g id="text_8">
      <!-- −1 -->
      <g transform="translate(35.857813 222.679219)scale(0.1 -0.1)">
       <use xlink:href="#DejaVuSans-8722"/>
       <use x="83.789062" xlink:href="#DejaVuSans-49"/>
      </g>
     </g>
    </g>
    <g id="ytick_4">
     <g id="line2d_9">
      <g>
       <use style="stroke:#000000;stroke-width:0.8;" x="57.6" xlink:href="#ma3c0028d1b" y="174.528"/>
      </g>
     </g>
     <g id="text_9">
      <!-- 0 -->
      <g transform="translate(44.2375 178.327219)scale(0.1 -0.1)">
       <use xlink:href="#DejaVuSans-48"/>
      </g>
     </g>
    </g>
    <g id="ytick_5">
     <g id="line2d_10">
      <g>
       <use style="stroke:#000000;stroke-width:0.8;" x="57.6" xlink:href="#ma3c0028d1b" y="130.176"/>
      </g>
     </g>
     <g id="text_10">
      <!-- 1 -->
      <g transform="translate(44.2375 133.975219)scale(0.1 -0.1)">
       <use xlink:href="#DejaVuSans-49"/>
      </g>
     </g>
    </g>
    <g id="ytick_6">
     <g id="line2d_11">
      <g>
       <use style="stroke:#000000;stroke-width:0.8;" x="57.6" xlink:href="#ma3c0028d1b" y="85.824"/>
      </g>
     </g>
     <g id="text_11">
      <!-- 2 -->
      <g transform="translate(44.2375 89.623219)scale(0.1 -0.1)">
       <use xlink:href="#DejaVuSans-50"/>
      </g>
     </g>
    </g>
    <g id="ytick_7">
     <g id="line2d_12">
      <g>
       <use style="stroke:#000000;stroke-width:0.8;" x="57.6" xlink:href="#ma3c0028d1b" y="41.472"/>
      </g>
     </g>
     <g id="text_12">
      <!-- 3 -->
      <g transform="translate(44.2375 45.271219)scale(0.1 -0.1)">
       <use xlink:href="#DejaVuSans-51"/>
      </g>
     </g>
    </g>
   </g>
   <g id="LineCollection_1"/>
   <g id="LineCollection_2">
    <path clip-path="url(#pcd2fbb6cb2)" d="M 343.296 163.165756 
L 341.860342 163.601492 
L 340.424683 163.350684 
L 339.666615 163.161407 
L 340.424683 162.929819 
L 341.860342 162.743289 
L 343.296 163.158476 
" style="fill:none;stroke:#00f784;stroke-width:1.5;"/>
    <path clip-path="url(#pcd2fbb6cb2)" d="M 57.6 74.663471 
L 58.180097 74.903156 
L 57.6 75.100386 
" style="fill:none;stroke:#00f784;stroke-width:1.5;"/>
    <path clip-path="url(#pcd2fbb6cb2)" d="M 331.810734 161.895687 
L 331.523 161.824161 
L 331.810734 161.726117 
L 333.246392 161.230461 
L 334.68205 161.751784 
L 334.980079 161.824161 
L 334.68205 161.923266 
L 333.246392 162.418243 
L 331.810734 161.895687 
" style="fill:none;stroke:#00f784;stroke-width:1.5;"/>
    <path clip-path="url(#pcd2fbb6cb2)" d="M 324.632442 160.746421 
L 323.71154 160.486915 
L 324.632442 160.186394 
L 326.068101 160.196814 
L 327.092835 160.486915 
L 326.068101 160.815676 
L 324.632442 160.746421 
" style="fill:none;stroke:#00f784;stroke-width:1.5;"/>
    <path clip-path="url(#pcd2fbb6cb2)" d="M 317.454151 159.505109 
L 316.307138 159.149668 
L 317.454151 158.762966 
L 318.889809 158.970601 
L 319.538246 159.149668 
L 318.889809 159.370854 
L 317.454151 159.505109 
" style="fill:none;stroke:#00f784;stroke-width:1.5;"/>
    <path clip-path="url(#pcd2fbb6cb2)" d="M 310.275859 158.154519 
L 309.195439 157.812422 
L 310.275859 157.437263 
L 311.711518 157.64107 
L 312.313146 157.812422 
L 311.711518 158.025569 
L 310.275859 158.154519 
" style="fill:none;stroke:#00f784;stroke-width:1.5;"/>
    <path clip-path="url(#pcd2fbb6cb2)" d="M 303.097568 156.698301 
L 302.366284 156.475176 
L 303.097568 156.209356 
L 304.533226 156.209697 
L 305.395159 156.475176 
L 304.533226 156.781445 
L 303.097568 156.698301 
" style="fill:none;stroke:#00f784;stroke-width:1.5;"/>
    <path clip-path="url(#pcd2fbb6cb2)" d="M 295.919276 155.153332 
L 295.866328 155.13793 
L 295.919276 155.115373 
L 297.354935 154.639308 
L 298.677755 155.13793 
L 297.354935 155.646634 
L 295.919276 155.153332 
" style="fill:none;stroke:#00f784;stroke-width:1.5;"/>
    <path clip-path="url(#pcd2fbb6cb2)" d="M 290.176643 154.048975 
L 289.414444 153.800683 
L 290.176643 153.510474 
L 291.612302 153.596433 
L 292.259528 153.800683 
L 291.612302 154.047858 
L 290.176643 154.048975 
" style="fill:none;stroke:#00f784;stroke-width:1.5;"/>
    <path clip-path="url(#pcd2fbb6cb2)" d="M 284.43401 152.908211 
L 283.252165 152.463437 
L 284.43401 152.000433 
L 285.869668 152.442843 
L 285.93776 152.463437 
L 285.869668 152.493422 
L 284.43401 152.908211 
" style="fill:none;stroke:#00f784;stroke-width:1.5;"/>
    <path clip-path="url(#pcd2fbb6cb2)" d="M 278.691377 151.65342 
L 277.337265 151.126191 
L 278.691377 150.606239 
L 279.964497 151.126191 
L 278.691377 151.65342 
" style="fill:none;stroke:#00f784;stroke-width:1.5;"/>
    <path clip-path="url(#pcd2fbb6cb2)" d="M 272.948744 150.258064 
L 271.554695 149.788945 
L 272.948744 149.33702 
L 274.10471 149.788945 
L 272.948744 150.258064 
" style="fill:none;stroke:#00f784;stroke-width:1.5;"/>
    <path clip-path="url(#pcd2fbb6cb2)" d="M 267.206111 148.945283 
L 265.874511 148.451698 
L 267.206111 147.970952 
L 268.386522 148.451698 
L 267.206111 148.945283 
" style="fill:none;stroke:#00f784;stroke-width:1.5;"/>
    <path clip-path="url(#pcd2fbb6cb2)" d="M 261.463477 147.633094 
L 260.256364 147.114452 
L 261.463477 146.588288 
L 262.753662 147.114452 
L 261.463477 147.633094 
" style="fill:none;stroke:#00f784;stroke-width:1.5;"/>
    <path clip-path="url(#pcd2fbb6cb2)" d="M 255.720844 146.103429 
L 254.867981 145.777206 
L 255.720844 145.415541 
L 257.156503 145.736295 
L 257.276788 145.777206 
L 257.156503 145.83544 
L 255.720844 146.103429 
" style="fill:none;stroke:#00f784;stroke-width:1.5;"/>
    <path clip-path="url(#pcd2fbb6cb2)" d="M 249.978211 144.549715 
L 249.671259 144.43996 
L 249.978211 144.294908 
L 251.413869 144.205685 
L 252.046687 144.43996 
L 251.413869 144.717047 
L 249.978211 144.549715 
" style="fill:none;stroke:#00f784;stroke-width:1.5;"/>
    <path clip-path="url(#pcd2fbb6cb2)" d="M 245.671236 143.681882 
L 244.440222 143.102714 
L 245.671236 142.524944 
L 246.895052 143.102714 
L 245.671236 143.681882 
" style="fill:none;stroke:#00f784;stroke-width:1.5;"/>
    <path clip-path="url(#pcd2fbb6cb2)" d="M 239.928603 141.946577 
L 239.449738 141.765467 
L 239.928603 141.541563 
L 241.364261 141.630927 
L 241.728773 141.765467 
L 241.364261 141.939045 
L 239.928603 141.946577 
" style="fill:none;stroke:#00f784;stroke-width:1.5;"/>
    <path clip-path="url(#pcd2fbb6cb2)" d="M 235.621628 141.002803 
L 234.430872 140.428221 
L 235.621628 139.851987 
L 236.8284 140.428221 
L 235.621628 141.002803 
" style="fill:none;stroke:#00f784;stroke-width:1.5;"/>
    <path clip-path="url(#pcd2fbb6cb2)" d="M 229.878995 139.151238 
L 229.718903 139.090975 
L 229.878995 139.006957 
L 231.314653 138.860044 
L 231.901237 139.090975 
L 231.314653 139.364985 
L 229.878995 139.151238 
" style="fill:none;stroke:#00f784;stroke-width:1.5;"/>
    <path clip-path="url(#pcd2fbb6cb2)" d="M 225.57202 138.042134 
L 224.870535 137.753729 
L 225.57202 137.425692 
L 226.992468 137.753729 
L 225.57202 138.042134 
" style="fill:none;stroke:#00f784;stroke-width:1.5;"/>
    <path clip-path="url(#pcd2fbb6cb2)" d="M 221.265045 136.951652 
L 220.150702 136.416482 
L 221.265045 135.875699 
L 222.424996 136.416482 
L 221.265045 136.951652 
" style="fill:none;stroke:#00f784;stroke-width:1.5;"/>
    <path clip-path="url(#pcd2fbb6cb2)" d="M 216.95807 135.486573 
L 215.777995 135.079236 
L 216.95807 134.700694 
L 217.824329 135.079236 
L 216.95807 135.486573 
" style="fill:none;stroke:#00f784;stroke-width:1.5;"/>
    <path clip-path="url(#pcd2fbb6cb2)" d="M 212.651095 134.032616 
L 211.234929 133.74199 
L 212.651095 133.493924 
L 213.244706 133.74199 
L 212.651095 134.032616 
" style="fill:none;stroke:#00f784;stroke-width:1.5;"/>
    <path clip-path="url(#pcd2fbb6cb2)" d="M 206.908462 132.469793 
L 206.747317 132.404744 
L 206.908462 132.314441 
L 208.344121 132.241306 
L 208.741521 132.404744 
L 208.344121 132.610232 
L 206.908462 132.469793 
" style="fill:none;stroke:#00f784;stroke-width:1.5;"/>
    <path clip-path="url(#pcd2fbb6cb2)" d="M 202.601487 131.167487 
L 202.358897 131.067497 
L 202.601487 130.933767 
L 204.037146 130.951036 
L 204.320684 131.067497 
L 204.037146 131.22066 
L 202.601487 131.167487 
" style="fill:none;stroke:#00f784;stroke-width:1.5;"/>
    <path clip-path="url(#pcd2fbb6cb2)" d="M 198.294513 129.830241 
L 198.054832 129.730251 
L 198.294513 129.596521 
L 199.730171 129.625351 
L 199.983325 129.730251 
L 199.730171 129.86985 
L 198.294513 129.830241 
" style="fill:none;stroke:#00f784;stroke-width:1.5;"/>
    <path clip-path="url(#pcd2fbb6cb2)" d="M 193.987538 128.458054 
L 193.832121 128.393005 
L 193.987538 128.302703 
L 195.423196 128.264883 
L 195.726941 128.393005 
L 195.423196 128.559562 
L 193.987538 128.458054 
" style="fill:none;stroke:#00f784;stroke-width:1.5;"/>
    <path clip-path="url(#pcd2fbb6cb2)" d="M 191.116221 127.286272 
L 189.707156 127.055759 
L 191.116221 126.868492 
L 191.547918 127.055759 
L 191.116221 127.286272 
" style="fill:none;stroke:#00f784;stroke-width:1.5;"/>
    <path clip-path="url(#pcd2fbb6cb2)" d="M 186.809246 126.044121 
L 185.709731 125.718513 
L 186.809246 125.432873 
L 187.439994 125.718513 
L 186.809246 126.044121 
" style="fill:none;stroke:#00f784;stroke-width:1.5;"/>
    <path clip-path="url(#pcd2fbb6cb2)" d="M 182.502271 124.838662 
L 181.466653 124.381266 
L 182.502271 123.94364 
L 183.397881 124.381266 
L 182.502271 124.838662 
" style="fill:none;stroke:#00f784;stroke-width:1.5;"/>
    <path clip-path="url(#pcd2fbb6cb2)" d="M 178.195296 123.485457 
L 177.304799 123.04402 
L 178.195296 122.583438 
L 179.223267 123.04402 
L 178.195296 123.485457 
" style="fill:none;stroke:#00f784;stroke-width:1.5;"/>
    <path clip-path="url(#pcd2fbb6cb2)" d="M 173.888322 121.920561 
L 173.421694 121.706774 
L 173.888322 121.449561 
L 174.999399 121.706774 
L 173.888322 121.920561 
" style="fill:none;stroke:#00f784;stroke-width:1.5;"/>
    <path clip-path="url(#pcd2fbb6cb2)" d="M 171.017005 120.556801 
L 169.74125 120.369528 
L 171.017005 120.222736 
L 171.342228 120.369528 
L 171.017005 120.556801 
" style="fill:none;stroke:#00f784;stroke-width:1.5;"/>
    <path clip-path="url(#pcd2fbb6cb2)" d="M 166.71003 119.484744 
L 165.719372 119.032281 
L 166.71003 118.600379 
L 167.56739 119.032281 
L 166.71003 119.484744 
" style="fill:none;stroke:#00f784;stroke-width:1.5;"/>
    <path clip-path="url(#pcd2fbb6cb2)" d="M 162.403055 117.98723 
L 161.797046 117.695035 
L 162.403055 117.363659 
L 163.376778 117.695035 
L 162.403055 117.98723 
" style="fill:none;stroke:#00f784;stroke-width:1.5;"/>
    <path clip-path="url(#pcd2fbb6cb2)" d="M 159.531739 116.531366 
L 158.400949 116.357789 
L 159.531739 116.223249 
L 159.822561 116.357789 
L 159.531739 116.531366 
" style="fill:none;stroke:#00f784;stroke-width:1.5;"/>
    <path clip-path="url(#pcd2fbb6cb2)" d="M 155.224764 115.599711 
L 154.191542 115.020543 
L 155.224764 114.442774 
L 156.253847 115.020543 
L 155.224764 115.599711 
" style="fill:none;stroke:#00f784;stroke-width:1.5;"/>
    <path clip-path="url(#pcd2fbb6cb2)" d="M 150.917789 113.793051 
L 150.684759 113.683296 
L 150.917789 113.538245 
L 152.024684 113.683296 
L 150.917789 113.793051 
" style="fill:none;stroke:#00f784;stroke-width:1.5;"/>
    <path clip-path="url(#pcd2fbb6cb2)" d="M 148.046472 112.7642 
L 147.116362 112.34605 
L 148.046472 111.954518 
L 148.808369 112.34605 
L 148.046472 112.7642 
" style="fill:none;stroke:#00f784;stroke-width:1.5;"/>
    <path clip-path="url(#pcd2fbb6cb2)" d="M 143.739497 111.173318 
L 143.400106 111.008804 
L 143.739497 110.80252 
L 144.65207 111.008804 
L 143.739497 111.173318 
" style="fill:none;stroke:#00f784;stroke-width:1.5;"/>
    <path clip-path="url(#pcd2fbb6cb2)" d="M 140.868181 110.073313 
L 139.963358 109.671558 
L 140.868181 109.299155 
L 141.587956 109.671558 
L 140.868181 110.073313 
" style="fill:none;stroke:#00f784;stroke-width:1.5;"/>
    <path clip-path="url(#pcd2fbb6cb2)" d="M 136.561206 108.455206 
L 136.313272 108.334312 
L 136.561206 108.176394 
L 137.438128 108.334312 
L 136.561206 108.455206 
" style="fill:none;stroke:#00f784;stroke-width:1.5;"/>
    <path clip-path="url(#pcd2fbb6cb2)" d="M 133.689889 107.49065 
L 132.753003 106.997065 
L 133.689889 106.516318 
L 134.564857 106.997065 
L 133.689889 107.49065 
" style="fill:none;stroke:#00f784;stroke-width:1.5;"/>
    <path clip-path="url(#pcd2fbb6cb2)" d="M 130.818573 105.70681 
L 129.881635 105.659819 
L 130.818573 105.627101 
L 130.886212 105.659819 
L 130.818573 105.70681 
" style="fill:none;stroke:#00f784;stroke-width:1.5;"/>
    <path clip-path="url(#pcd2fbb6cb2)" d="M 126.511598 104.702684 
L 125.801009 104.322573 
L 126.511598 103.914324 
L 127.387337 104.322573 
L 126.511598 104.702684 
" style="fill:none;stroke:#00f784;stroke-width:1.5;"/>
    <path clip-path="url(#pcd2fbb6cb2)" d="M 123.640281 103.281009 
L 122.83157 102.985327 
L 123.640281 102.731369 
L 124.132792 102.985327 
L 123.640281 103.281009 
" style="fill:none;stroke:#00f784;stroke-width:1.5;"/>
    <path clip-path="url(#pcd2fbb6cb2)" d="M 119.333307 101.733255 
L 119.163745 101.64808 
L 119.333307 101.53277 
L 120.034904 101.64808 
L 119.333307 101.733255 
" style="fill:none;stroke:#00f784;stroke-width:1.5;"/>
    <path clip-path="url(#pcd2fbb6cb2)" d="M 116.46199 100.755608 
L 115.665602 100.310834 
L 116.46199 99.84783 
L 117.349545 100.310834 
L 116.46199 100.755608 
" style="fill:none;stroke:#00f784;stroke-width:1.5;"/>
    <path clip-path="url(#pcd2fbb6cb2)" d="M 113.590673 99.272761 
L 112.813132 98.973588 
L 113.590673 98.715838 
L 114.08024 98.973588 
L 113.590673 99.272761 
" style="fill:none;stroke:#00f784;stroke-width:1.5;"/>
    <path clip-path="url(#pcd2fbb6cb2)" d="M 109.283698 97.636682 
L 109.283026 97.636342 
L 109.283698 97.635835 
L 109.29589 97.636342 
L 109.283698 97.636682 
" style="fill:none;stroke:#00f784;stroke-width:1.5;"/>
    <path clip-path="url(#pcd2fbb6cb2)" d="M 106.412382 96.576521 
L 105.896761 96.299095 
L 106.412382 95.981676 
L 107.184637 96.299095 
L 106.412382 96.576521 
" style="fill:none;stroke:#00f784;stroke-width:1.5;"/>
    <path clip-path="url(#pcd2fbb6cb2)" d="M 103.541065 95.470553 
L 102.645026 94.961849 
L 103.541065 94.463228 
L 104.396752 94.961849 
L 103.541065 95.470553 
" style="fill:none;stroke:#00f784;stroke-width:1.5;"/>
    <path clip-path="url(#pcd2fbb6cb2)" d="M 100.669749 93.875443 
L 99.966804 93.624603 
L 100.669749 93.41663 
L 101.059763 93.624603 
L 100.669749 93.875443 
" style="fill:none;stroke:#00f784;stroke-width:1.5;"/>
    <path clip-path="url(#pcd2fbb6cb2)" d="M 93.491457 91.092873 
L 93.224526 90.950111 
L 93.491457 90.76781 
L 94.108787 90.950111 
L 93.491457 91.092873 
" style="fill:none;stroke:#00f784;stroke-width:1.5;"/>
    <path clip-path="url(#pcd2fbb6cb2)" d="M 90.620141 89.954961 
L 90.013079 89.612864 
L 90.620141 89.237705 
L 91.396113 89.612864 
L 90.620141 89.954961 
" style="fill:none;stroke:#00f784;stroke-width:1.5;"/>
    <path clip-path="url(#pcd2fbb6cb2)" d="M 87.748824 88.831506 
L 86.836447 88.275618 
L 87.748824 87.723118 
L 88.650724 88.275618 
L 87.748824 88.831506 
" style="fill:none;stroke:#00f784;stroke-width:1.5;"/>
    <path clip-path="url(#pcd2fbb6cb2)" d="M 84.877508 87.302551 
L 84.124499 86.938372 
L 84.877508 86.608751 
L 85.460232 86.938372 
L 84.877508 87.302551 
" style="fill:none;stroke:#00f784;stroke-width:1.5;"/>
    <path clip-path="url(#pcd2fbb6cb2)" d="M 82.006191 85.822311 
L 81.38904 85.601126 
L 82.006191 85.422059 
L 82.33249 85.601126 
L 82.006191 85.822311 
" style="fill:none;stroke:#00f784;stroke-width:1.5;"/>
    <path clip-path="url(#pcd2fbb6cb2)" d="M 79.134874 84.338868 
L 78.777367 84.263879 
L 79.134874 84.210266 
L 79.234232 84.263879 
L 79.134874 84.338868 
" style="fill:none;stroke:#00f784;stroke-width:1.5;"/>
    <path clip-path="url(#pcd2fbb6cb2)" d="M 71.956583 81.591968 
L 71.951842 81.589387 
L 71.956583 81.585554 
L 71.983473 81.589387 
L 71.956583 81.591968 
" style="fill:none;stroke:#00f784;stroke-width:1.5;"/>
    <path clip-path="url(#pcd2fbb6cb2)" d="M 69.085266 80.323667 
L 68.955889 80.252141 
L 69.085266 80.154097 
L 69.472208 80.252141 
L 69.085266 80.323667 
" style="fill:none;stroke:#00f784;stroke-width:1.5;"/>
    <path clip-path="url(#pcd2fbb6cb2)" d="M 66.21395 79.040837 
L 65.989317 78.914894 
L 66.21395 78.751638 
L 66.714368 78.914894 
L 66.21395 79.040837 
" style="fill:none;stroke:#00f784;stroke-width:1.5;"/>
    <path clip-path="url(#pcd2fbb6cb2)" d="M 63.342633 77.743017 
L 63.051186 77.577648 
L 63.342633 77.371031 
L 63.895947 77.577648 
L 63.342633 77.743017 
" style="fill:none;stroke:#00f784;stroke-width:1.5;"/>
    <path clip-path="url(#pcd2fbb6cb2)" d="M 60.471317 76.429679 
L 60.14084 76.240402 
L 60.471317 76.008814 
L 61.04838 76.240402 
L 60.471317 76.429679 
" style="fill:none;stroke:#00f784;stroke-width:1.5;"/>
   </g>
   <g id="LineCollection_3">
    <path clip-path="url(#pcd2fbb6cb2)" d="M 343.296 164.584507 
L 341.860342 164.394099 
L 338.989025 163.999759 
L 313.147176 159.448018 
L 311.711518 159.125447 
L 308.840201 158.686805 
L 280.127035 152.626732 
L 278.691377 152.351427 
L 275.82006 151.713429 
L 272.948744 151.019576 
L 270.077427 150.383987 
L 267.206111 149.679562 
L 264.334794 149.014397 
L 262.35028 148.451698 
L 261.463477 148.322745 
L 258.592161 147.603756 
L 256.927218 147.114452 
L 254.285186 146.555996 
L 251.413869 145.728154 
L 249.978211 145.463425 
L 228.443337 139.665596 
L 226.696891 139.090975 
L 225.57202 138.869961 
L 218.393729 136.767751 
L 216.95807 136.324574 
L 215.522412 135.978297 
L 208.344121 133.728988 
L 206.908462 133.404088 
L 195.398856 129.730251 
L 193.987538 129.392349 
L 186.809246 126.989675 
L 185.373588 126.617573 
L 182.502271 125.615866 
L 181.066613 125.19705 
L 178.195296 124.226625 
L 172.452663 122.281395 
L 171.017005 121.701392 
L 169.581347 121.319567 
L 163.282974 119.032281 
L 162.403055 118.812832 
L 145.175156 112.518915 
L 144.76346 112.34605 
L 143.739497 112.061742 
L 137.631478 109.671558 
L 136.561206 109.363622 
L 130.654595 106.997065 
L 129.382915 106.610375 
L 126.511598 105.479422 
L 110.719357 99.095464 
L 110.452391 98.973588 
L 109.283698 98.597133 
L 106.412382 97.408747 
L 97.575736 93.624603 
L 96.362774 93.214163 
L 94.401667 92.287357 
L 93.491457 91.990502 
L 88.165167 89.612864 
L 87.748824 89.499743 
L 82.063744 86.938372 
L 82.006191 86.909831 
L 80.570533 86.383933 
L 79.029796 85.601126 
L 77.699216 85.116873 
L 76.004431 84.263879 
L 74.827899 83.838987 
L 73.005278 82.926633 
L 71.956583 82.550823 
L 70.030875 81.589387 
L 69.085266 81.2529 
L 64.151153 78.914894 
L 63.342633 78.629575 
L 58.356685 76.240402 
L 57.6 75.971685 
L 57.6 75.971685 
" style="fill:none;stroke:#00ee88;stroke-width:1.5;"/>
    <path clip-path="url(#pcd2fbb6cb2)" d="M 57.6 73.604625 
L 59.035658 74.171005 
L 60.471317 74.938008 
L 61.906975 75.498483 
L 63.342633 76.263337 
L 64.778291 76.816419 
L 66.21395 77.578704 
L 67.649608 78.12499 
L 69.160933 78.914894 
L 70.520925 79.424473 
L 72.132796 80.252141 
L 73.392241 80.715261 
L 75.126605 81.589387 
L 76.263558 81.997885 
L 78.141655 82.926633 
L 79.134874 83.273043 
L 82.006191 84.541627 
L 87.300657 86.938372 
L 87.748824 87.058954 
L 103.036227 93.624603 
L 103.541065 93.760577 
L 119.406512 100.310834 
L 120.768965 100.744479 
L 122.813228 101.64808 
L 123.640281 101.88683 
L 129.630118 104.322573 
L 130.818573 104.679968 
L 133.689889 105.801136 
L 150.961387 112.34605 
L 152.353447 112.742338 
L 155.224764 113.796395 
L 178.195296 121.810125 
L 181.066613 122.771634 
L 182.502271 123.200027 
L 202.68428 129.730251 
L 204.037146 130.039524 
L 211.515821 132.404744 
L 212.651095 132.64521 
L 225.57202 136.484108 
L 227.007678 136.794089 
L 234.920605 139.090975 
L 235.621628 139.201037 
L 238.492945 139.996456 
L 239.928603 140.452508 
L 241.364261 140.72832 
L 250.038493 143.102714 
L 252.849528 143.717997 
L 255.720844 144.520692 
L 258.592161 145.165978 
L 261.463477 145.888633 
L 264.334794 146.576397 
L 266.244276 147.114452 
L 267.206111 147.25577 
L 270.077427 147.947019 
L 271.90804 148.451698 
L 274.384402 148.919341 
L 278.691377 149.917867 
L 282.998352 150.938013 
L 284.43401 151.23234 
L 287.305327 151.81646 
L 290.176643 152.5203 
L 293.04796 153.03026 
L 297.354935 153.936657 
L 301.66191 154.854223 
L 303.097568 155.18547 
L 305.968884 155.648728 
L 310.275859 156.562759 
L 313.147176 157.028685 
L 317.454151 157.903606 
L 320.325467 158.34971 
L 326.068101 159.371771 
L 330.375075 160.157075 
L 332.001422 160.486915 
L 334.68205 160.822976 
L 343.296 162.20002 
L 343.296 162.20002 
" style="fill:none;stroke:#00ee88;stroke-width:1.5;"/>
   </g>
   <g id="LineCollection_4">
    <path clip-path="url(#pcd2fbb6cb2)" d="M 343.296 165.999933 
L 333.246392 164.387311 
L 327.503759 163.421942 
L 318.614848 161.824161 
L 313.147176 160.842636 
L 304.516691 159.149668 
L 300.226251 158.332481 
L 268.641769 151.39628 
L 262.032833 149.788945 
L 258.592161 148.981949 
L 249.978211 146.808565 
L 241.364261 144.530903 
L 236.073987 143.102714 
L 232.750312 142.227316 
L 226.414866 140.428221 
L 222.700704 139.396154 
L 216.95807 137.714279 
L 214.086754 136.900964 
L 208.109557 135.079236 
L 205.472804 134.318133 
L 199.390177 132.404744 
L 196.858854 131.650693 
L 190.93841 129.730251 
L 188.244905 128.898716 
L 182.502271 126.993011 
L 176.759638 125.113643 
L 166.71003 121.644954 
L 160.967397 119.665752 
L 155.224764 117.591364 
L 149.482131 115.530305 
L 144.559713 113.683296 
L 142.303839 112.876301 
L 137.430769 111.008804 
L 135.125548 110.163804 
L 130.447992 108.334312 
L 126.511598 106.823602 
L 119.333307 104.001869 
L 104.976724 98.168408 
L 100.582273 96.299095 
L 96.362774 94.56062 
L 70.520925 83.235323 
L 66.21395 81.288192 
L 57.6 77.313467 
L 57.6 77.313467 
" style="fill:none;stroke:#00e58c;stroke-width:1.5;"/>
    <path clip-path="url(#pcd2fbb6cb2)" d="M 57.6 72.187734 
L 60.566171 73.56591 
L 64.778291 75.461853 
L 69.33907 77.577648 
L 73.392241 79.367065 
L 81.331965 82.926633 
L 84.877508 84.461924 
L 109.678097 94.961849 
L 113.590673 96.530022 
L 136.801711 105.659819 
L 140.868181 107.173115 
L 171.017005 117.980149 
L 191.116221 124.644167 
L 212.651095 131.299567 
L 240.143447 139.090975 
L 244.235578 140.153155 
L 247.106894 140.885581 
L 261.036284 144.43996 
L 265.770452 145.569543 
L 268.641769 146.229553 
L 284.06957 149.788945 
L 288.740985 150.775138 
L 293.04796 151.67507 
L 304.533226 154.028656 
L 332.473146 159.149668 
L 338.989025 160.190372 
L 343.296 160.855979 
L 343.296 160.855979 
" style="fill:none;stroke:#00e58c;stroke-width:1.5;"/>
   </g>
   <g id="LineCollection_5">
    <path clip-path="url(#pcd2fbb6cb2)" d="M 343.296 167.991718 
L 328.939417 165.641872 
L 318.889809 163.882158 
L 303.097568 160.871964 
L 277.255719 155.364608 
L 247.106894 148.039172 
L 234.18597 144.579133 
L 202.601487 135.400236 
L 169.581347 124.626805 
L 156.660422 120.093801 
L 145.175156 115.913763 
L 126.511598 108.805363 
L 115.026332 104.229487 
L 107.84804 101.318138 
L 93.491457 95.300014 
L 83.441849 90.939305 
L 76.263558 87.791909 
L 57.6 79.281916 
L 57.6 79.281916 
" style="fill:none;stroke:#00dc91;stroke-width:1.5;"/>
    <path clip-path="url(#pcd2fbb6cb2)" d="M 57.6 70.183721 
L 64.875396 73.56591 
L 74.827899 78.045523 
L 83.441849 81.860779 
L 101.537375 89.612864 
L 110.719357 93.396329 
L 116.46199 95.709679 
L 122.204623 98.001227 
L 136.561206 103.562375 
L 145.667651 106.997065 
L 155.224764 110.463297 
L 160.967397 112.520613 
L 185.373588 120.809115 
L 198.294513 124.938891 
L 209.779779 128.478531 
L 238.492945 136.648309 
L 260.027819 142.187444 
L 275.82006 145.944545 
L 300.226251 151.207546 
L 326.068101 156.054879 
L 336.385108 157.812422 
L 343.296 158.898731 
L 343.296 158.898731 
" style="fill:none;stroke:#00dc91;stroke-width:1.5;"/>
   </g>
   <g id="LineCollection_6">
    <path clip-path="url(#pcd2fbb6cb2)" d="M 343.296 170.534408 
L 327.503759 167.949031 
L 313.147176 165.362904 
L 298.790593 162.554494 
L 282.998352 159.191476 
L 258.592161 153.492678 
L 247.106894 150.585854 
L 231.314653 146.349604 
L 209.779779 140.132668 
L 197.701167 136.416482 
L 189.680563 133.869941 
L 163.838714 125.188306 
L 145.175156 118.459705 
L 125.07594 110.783664 
L 113.590673 106.209384 
L 84.877508 94.132039 
L 57.6 81.823181 
L 57.6 81.823181 
" style="fill:none;stroke:#00d396;stroke-width:1.5;"/>
    <path clip-path="url(#pcd2fbb6cb2)" d="M 57.6 67.642133 
L 64.778291 70.967911 
L 89.184482 81.811783 
L 107.84804 89.677824 
L 132.254231 99.374382 
L 146.610814 104.78118 
L 160.103705 109.671558 
L 187.698316 119.032281 
L 214.086754 127.208041 
L 235.621628 133.319458 
L 244.235578 135.623113 
L 257.743493 139.090975 
L 281.562693 144.689147 
L 300.226251 148.653203 
L 320.325467 152.503824 
L 341.860342 156.125563 
L 343.296 156.356671 
L 343.296 156.356671 
" style="fill:none;stroke:#00d396;stroke-width:1.5;"/>
   </g>
   <g id="LineCollection_7">
    <path clip-path="url(#pcd2fbb6cb2)" d="M 343.296 173.643634 
L 330.375075 171.551229 
L 311.711518 168.204836 
L 298.790593 165.663818 
L 287.305327 163.252825 
L 267.206111 158.700397 
L 254.285186 155.536218 
L 234.18597 150.256021 
L 213.793273 144.43996 
L 204.037146 141.508616 
L 192.066105 137.753729 
L 182.502271 134.654885 
L 167.961081 129.730251 
L 158.09608 126.274665 
L 136.561206 118.342452 
L 115.026332 109.900914 
L 91.985928 100.310834 
L 82.006191 95.988087 
L 67.649608 89.562108 
L 57.6 84.944392 
L 57.6 84.944392 
" style="fill:none;stroke:#00cb9a;stroke-width:1.5;"/>
    <path clip-path="url(#pcd2fbb6cb2)" d="M 57.6 64.530227 
L 71.956583 71.104524 
L 89.685062 78.914894 
L 112.155015 88.319413 
L 133.689889 96.807784 
L 146.610814 101.673897 
L 169.581347 109.855148 
L 189.080481 116.357789 
L 211.215437 123.233436 
L 229.878995 128.622364 
L 248.542553 133.637161 
L 258.592161 136.175543 
L 268.641769 138.603622 
L 280.127035 141.248195 
L 291.612302 143.748957 
L 304.533226 146.391798 
L 317.454151 148.854645 
L 333.246392 151.615727 
L 343.296 153.231965 
L 343.296 153.231965 
" style="fill:none;stroke:#00cb9a;stroke-width:1.5;"/>
   </g>
   <g id="LineCollection_8">
    <path clip-path="url(#pcd2fbb6cb2)" d="M 343.296 177.331783 
L 328.939417 174.990065 
L 316.018492 172.693246 
L 297.354935 169.06084 
L 280.127035 165.367628 
L 265.770452 162.040606 
L 247.106894 157.387636 
L 232.750312 153.546634 
L 219.829387 149.897211 
L 199.730171 143.869427 
L 183.93793 138.813136 
L 171.017005 134.479147 
L 153.750471 128.393005 
L 142.827189 124.381266 
L 133.689889 120.931987 
L 113.590673 113.010555 
L 93.491457 104.647571 
L 71.956583 95.201281 
L 57.6 88.626049 
L 57.6 88.626049 
" style="fill:none;stroke:#00c29e;stroke-width:1.5;"/>
    <path clip-path="url(#pcd2fbb6cb2)" d="M 57.6 60.843984 
L 67.798009 65.542432 
L 89.184482 75.011691 
L 107.979676 82.926633 
L 128.042941 90.950111 
L 149.482131 99.038984 
L 168.145688 105.67609 
L 188.244905 112.398289 
L 208.344121 118.680228 
L 218.530944 121.706774 
L 238.492945 127.294796 
L 255.720844 131.770069 
L 269.297288 135.079236 
L 287.305327 139.149328 
L 305.968884 142.995436 
L 317.454151 145.168993 
L 330.375075 147.450994 
L 343.296 149.551477 
L 343.296 149.551477 
" style="fill:none;stroke:#00c29e;stroke-width:1.5;"/>
   </g>
   <g id="LineCollection_9">
    <path clip-path="url(#pcd2fbb6cb2)" d="M 343.296 181.582586 
L 330.375075 179.488176 
L 313.147176 176.412027 
L 300.061948 173.859377 
L 288.740985 171.506994 
L 271.513085 167.654429 
L 254.285186 163.476854 
L 235.621628 158.590199 
L 219.829387 154.156951 
L 201.165829 148.566912 
L 182.502271 142.597995 
L 166.71003 137.248117 
L 150.917789 131.627317 
L 132.254231 124.632705 
L 113.590673 117.263603 
L 97.798432 110.729735 
L 83.441849 104.555139 
L 63.342633 95.537931 
L 57.6 92.880263 
L 57.6 92.880263 
" style="fill:none;stroke:#00b9a2;stroke-width:1.5;"/>
    <path clip-path="url(#pcd2fbb6cb2)" d="M 57.6 56.592474 
L 71.956583 63.164832 
L 87.748824 70.132908 
L 100.669749 75.633876 
L 112.155015 80.375277 
L 129.382915 87.210682 
L 145.175156 93.193689 
L 157.378212 97.636342 
L 175.32398 103.865343 
L 186.809246 107.670289 
L 199.730171 111.780437 
L 212.651095 115.713655 
L 225.57202 119.466556 
L 239.928603 123.423293 
L 255.720844 127.516028 
L 270.334052 131.067497 
L 288.16123 135.079236 
L 304.533226 138.453895 
L 317.454151 140.916286 
L 331.810734 143.440105 
L 343.296 145.296176 
L 343.296 145.296176 
" style="fill:none;stroke:#00b9a2;stroke-width:1.5;"/>
   </g>
   <g id="LineCollection_10">
    <path clip-path="url(#pcd2fbb6cb2)" d="M 343.296 186.404717 
L 327.503759 183.821351 
L 311.711518 180.966059 
L 295.919276 177.836737 
L 282.998352 175.078874 
L 270.077427 172.140891 
L 255.720844 168.658849 
L 238.492945 164.188931 
L 224.136362 160.215922 
L 211.215437 156.446211 
L 199.730171 152.949224 
L 182.502271 147.42059 
L 163.838714 141.069888 
L 146.610814 134.868144 
L 132.974453 129.730251 
L 120.768965 124.966191 
L 102.105407 117.360824 
L 87.190567 111.008804 
L 75.045249 105.659819 
L 63.342633 100.354611 
L 57.6 97.696976 
L 57.6 97.696976 
" style="fill:none;stroke:#00b0a7;stroke-width:1.5;"/>
    <path clip-path="url(#pcd2fbb6cb2)" d="M 57.6 51.771822 
L 70.520925 57.697547 
L 87.748824 65.313578 
L 99.23409 70.209851 
L 112.155015 75.549232 
L 125.07594 80.707627 
L 139.432523 86.225439 
L 152.353447 91.004423 
L 169.581347 97.084829 
L 182.502271 101.43856 
L 193.987538 105.152271 
L 206.908462 109.16401 
L 219.829387 112.996887 
L 232.750312 116.650127 
L 248.542553 120.865794 
L 262.899136 124.467482 
L 280.127035 128.489656 
L 295.919276 131.890181 
L 308.840201 134.473249 
L 321.761126 136.875496 
L 336.117709 139.332931 
L 343.296 140.479113 
L 343.296 140.479113 
" style="fill:none;stroke:#00b0a7;stroke-width:1.5;"/>
   </g>
   <g id="LineCollection_11">
    <path clip-path="url(#pcd2fbb6cb2)" d="M 343.296 191.793612 
L 328.939417 189.456181 
L 314.582834 186.894471 
L 300.226251 184.109834 
L 285.869668 181.100949 
L 270.077427 177.53137 
L 255.720844 174.050701 
L 238.492945 169.580229 
L 224.136362 165.607604 
L 211.166609 161.824161 
L 198.294513 157.89045 
L 181.066613 152.336127 
L 168.145688 147.960609 
L 152.353447 142.36375 
L 135.125548 135.948478 
L 119.333307 129.781672 
L 102.105407 122.750618 
L 87.748824 116.643082 
L 70.520925 109.019849 
L 57.6 103.086895 
L 57.6 103.086895 
" style="fill:none;stroke:#00a7ac;stroke-width:1.5;"/>
    <path clip-path="url(#pcd2fbb6cb2)" d="M 57.6 46.382744 
L 70.520925 52.308382 
L 87.748824 59.923378 
L 100.949031 65.542432 
L 117.897648 72.475354 
L 134.363259 78.914894 
L 150.917789 85.087937 
L 163.838714 89.703937 
L 181.066613 95.569897 
L 195.423196 100.217122 
L 208.717309 104.322573 
L 225.57202 109.251206 
L 238.492945 112.822373 
L 252.849528 116.579269 
L 268.641769 120.452845 
L 284.43401 124.052166 
L 297.354935 126.797533 
L 310.275859 129.360296 
L 323.196784 131.741505 
L 337.553367 134.175863 
L 343.296 135.090061 
L 343.296 135.090061 
" style="fill:none;stroke:#00a7ac;stroke-width:1.5;"/>
   </g>
   <g id="LineCollection_12">
    <path clip-path="url(#pcd2fbb6cb2)" d="M 343.296 197.748718 
L 330.375075 195.656828 
L 314.582834 192.851615 
L 298.790593 189.775097 
L 285.869668 187.057423 
L 272.948744 184.159231 
L 258.592161 180.723576 
L 242.226505 176.533869 
L 229.878995 173.184583 
L 214.086754 168.653221 
L 196.858854 163.401732 
L 179.615195 157.812422 
L 166.71003 153.422037 
L 152.353447 148.320747 
L 138.278945 143.102714 
L 126.511598 138.578577 
L 110.719357 132.264731 
L 96.362774 126.293305 
L 79.134874 118.828113 
L 64.747217 112.34605 
L 57.6 109.046418 
L 57.6 109.046418 
" style="fill:none;stroke:#009eb0;stroke-width:1.5;"/>
    <path clip-path="url(#pcd2fbb6cb2)" d="M 59.849396 41.472 
L 76.263558 48.923378 
L 89.782351 54.844462 
L 106.412382 61.851598 
L 122.204623 68.231144 
L 139.496492 74.903156 
L 156.660422 81.201926 
L 169.581347 85.735742 
L 185.373588 91.029353 
L 201.96418 96.299095 
L 216.95807 100.809258 
L 231.314653 104.900931 
L 245.671236 108.769083 
L 260.027819 112.41514 
L 276.664946 116.357789 
L 291.612302 119.640519 
L 305.968884 122.567831 
L 318.889809 125.010379 
L 333.246392 127.512139 
L 343.296 129.129612 
L 343.296 129.129612 
" style="fill:none;stroke:#009eb0;stroke-width:1.5;"/>
   </g>
   <g id="LineCollection_13">
    <path clip-path="url(#pcd2fbb6cb2)" d="M 343.296 204.274336 
L 328.939417 201.93582 
L 316.018492 199.643639 
L 300.226251 196.590877 
L 287.305327 193.893541 
L 274.384402 191.015946 
L 260.027819 187.604933 
L 244.235578 183.593422 
L 228.08505 179.208362 
L 215.522412 175.605502 
L 199.730171 170.829585 
L 185.373588 166.244779 
L 169.581347 160.942744 
L 153.155405 155.13793 
L 140.868181 150.608209 
L 125.07594 144.540359 
L 107.84804 137.614088 
L 93.491457 131.597134 
L 76.263558 124.078556 
L 61.906975 117.566275 
L 57.6 115.57088 
L 57.6 115.57088 
" style="fill:none;stroke:#0096b4;stroke-width:1.5;"/>
    <path clip-path="url(#pcd2fbb6cb2)" d="M 74.183842 41.472 
L 90.620141 48.677184 
L 105.243509 54.844462 
L 122.204623 61.703367 
L 137.996864 67.808165 
L 150.917789 72.602362 
L 165.274372 77.717535 
L 181.066613 83.0841 
L 197.161845 88.275618 
L 214.086754 93.437496 
L 227.007678 97.169681 
L 239.928603 100.721732 
L 254.285186 104.456858 
L 270.197152 108.334312 
L 285.869668 111.881255 
L 300.226251 114.899839 
L 313.147176 117.422754 
L 326.068101 119.764155 
L 340.424683 122.154229 
L 343.296 122.605364 
L 343.296 122.605364 
" style="fill:none;stroke:#0096b4;stroke-width:1.5;"/>
   </g>
   <g id="LineCollection_14">
    <path clip-path="url(#pcd2fbb6cb2)" d="M 343.296 211.365423 
L 327.503759 208.783922 
L 311.711518 205.930061 
L 298.225638 203.278794 
L 285.537704 200.604302 
L 272.948744 197.778763 
L 258.592161 194.34616 
L 242.79992 190.310336 
L 226.627774 185.894593 
L 214.086754 182.278185 
L 198.294513 177.477232 
L 183.93793 172.869345 
L 168.145688 167.542212 
L 152.028563 161.824161 
L 139.432523 157.162482 
L 123.640281 151.069511 
L 109.283698 145.29879 
L 93.491457 138.690157 
L 77.699216 131.811011 
L 61.306564 124.381266 
L 57.6 122.662921 
L 57.6 122.662921 
" style="fill:none;stroke:#008db8;stroke-width:1.5;"/>
    <path clip-path="url(#pcd2fbb6cb2)" d="M 90.355441 41.472 
L 106.230119 48.158231 
L 120.768965 54.039513 
L 135.125548 59.623503 
L 148.046472 64.458441 
L 163.838714 70.119563 
L 178.195296 75.033056 
L 194.221016 80.252141 
L 209.779779 85.055693 
L 224.136362 89.260671 
L 237.057286 92.852749 
L 251.413869 96.632212 
L 266.281088 100.310834 
L 281.562693 103.838494 
L 295.919276 106.924725 
L 309.682275 109.671558 
L 324.632442 112.421821 
L 340.424683 115.063542 
L 343.296 115.512814 
L 343.296 115.512814 
" style="fill:none;stroke:#008db8;stroke-width:1.5;"/>
   </g>
   <g id="LineCollection_15">
    <path clip-path="url(#pcd2fbb6cb2)" d="M 343.296 219.026891 
L 328.714548 216.651256 
L 314.582834 214.130802 
L 298.790593 211.056772 
L 284.43401 208.027417 
L 269.416898 204.61604 
L 255.720844 201.295186 
L 241.364261 197.592588 
L 227.007678 193.666193 
L 212.651095 189.51652 
L 198.294513 185.141231 
L 182.502271 180.059918 
L 168.125568 175.196623 
L 155.224764 170.644986 
L 139.432523 164.824134 
L 123.640281 158.732978 
L 108.077973 152.463437 
L 94.927116 146.962379 
L 80.570533 140.742163 
L 64.778291 133.639671 
L 57.6 130.323468 
L 57.6 130.323468 
" style="fill:none;stroke:#0084bd;stroke-width:1.5;"/>
    <path clip-path="url(#pcd2fbb6cb2)" d="M 108.602931 41.472 
L 123.640281 47.512354 
L 137.996864 53.05143 
L 150.917789 57.845204 
L 165.274372 62.959457 
L 181.066613 68.325263 
L 197.32295 73.56591 
L 212.651095 78.251032 
L 227.007678 82.41123 
L 241.364261 86.347241 
L 255.720844 90.059524 
L 270.398566 93.624603 
L 285.869668 97.12573 
L 300.226251 100.144469 
L 313.147176 102.66832 
L 327.503759 105.260213 
L 341.860342 107.628015 
L 343.296 107.852667 
L 343.296 107.852667 
" style="fill:none;stroke:#0084bd;stroke-width:1.5;"/>
   </g>
   <g id="LineCollection_16">
    <path clip-path="url(#pcd2fbb6cb2)" d="M 343.296 227.254136 
L 328.939417 224.919315 
L 313.147176 222.091067 
L 297.354935 218.993264 
L 282.998352 215.941516 
L 268.539918 212.639518 
L 254.285186 209.16512 
L 238.492945 205.056088 
L 222.455108 200.604302 
L 208.344121 196.458315 
L 193.987538 192.013637 
L 179.318003 187.231839 
L 165.274372 182.438366 
L 149.482131 176.789443 
L 133.689889 170.870301 
L 119.333307 165.254352 
L 103.541065 158.817183 
L 88.569515 152.463437 
L 74.827899 146.420034 
L 58.762728 139.090975 
L 57.6 138.551358 
L 57.6 138.551358 
" style="fill:none;stroke:#007bc2;stroke-width:1.5;"/>
    <path clip-path="url(#pcd2fbb6cb2)" d="M 129.241946 41.472 
L 143.739497 46.975016 
L 159.531739 52.709139 
L 173.888322 57.688572 
L 189.680563 62.906818 
L 205.472804 67.85602 
L 219.829387 72.129357 
L 234.18597 76.177972 
L 247.106894 79.628626 
L 261.463477 83.251928 
L 277.074996 86.938372 
L 291.612302 90.130455 
L 305.968884 93.058888 
L 320.325467 95.763395 
L 334.68205 98.24382 
L 343.296 99.624581 
L 343.296 99.624581 
" style="fill:none;stroke:#007bc2;stroke-width:1.5;"/>
   </g>
   <g id="LineCollection_17">
    <path clip-path="url(#pcd2fbb6cb2)" d="M 343.296 236.051096 
L 328.939417 233.715646 
L 314.582834 231.156292 
L 300.226251 228.373571 
L 285.869668 225.36698 
L 270.93834 222.000241 
L 257.156503 218.680958 
L 242.79992 215.001526 
L 228.443337 211.098223 
L 214.086754 206.971555 
L 199.730171 202.620415 
L 183.93793 197.562759 
L 169.152334 192.580824 
L 155.224764 187.673325 
L 139.432523 181.850944 
L 125.07594 176.324453 
L 110.719357 170.574004 
L 94.927116 163.988942 
L 79.134874 157.133004 
L 62.874184 149.788945 
L 57.6 147.346435 
L 57.6 147.346435 
" style="fill:none;stroke:#0072c6;stroke-width:1.5;"/>
    <path clip-path="url(#pcd2fbb6cb2)" d="M 152.720875 41.472 
L 168.145688 46.92574 
L 183.93793 52.241703 
L 199.730171 57.285934 
L 214.086754 61.648142 
L 229.878995 66.187023 
L 244.235578 70.079097 
L 258.592161 73.747851 
L 274.384402 77.524446 
L 288.740985 80.720898 
L 303.097568 83.694429 
L 317.454151 86.444136 
L 331.810734 88.96967 
L 343.296 90.829943 
L 343.296 90.829943 
" style="fill:none;stroke:#0072c6;stroke-width:1.5;"/>
   </g>
   <g id="LineCollection_18">
    <path clip-path="url(#pcd2fbb6cb2)" d="M 343.296 245.414515 
L 328.939417 243.079461 
L 314.582834 240.520497 
L 300.226251 237.7381 
L 285.869668 234.731825 
L 270.9184 231.360965 
L 257.156503 228.046516 
L 242.79992 224.367478 
L 228.443337 220.464562 
L 214.086754 216.338217 
L 199.730171 211.987364 
L 185.041821 207.290533 
L 171.017005 202.589876 
L 155.224764 197.039196 
L 139.432523 191.216535 
L 125.07594 185.689616 
L 110.719357 179.938741 
L 94.927116 173.353293 
L 79.134874 166.496958 
L 62.867746 159.149668 
L 57.6 156.709937 
L 57.6 156.709937 
" style="fill:none;stroke:#0069cb;stroke-width:1.5;"/>
    <path clip-path="url(#pcd2fbb6cb2)" d="M 179.689789 41.472 
L 195.423196 46.569996 
L 209.779779 50.995942 
L 225.57202 55.609428 
L 239.928603 59.568967 
L 254.285186 63.304688 
L 268.905598 66.879678 
L 284.43401 70.420238 
L 298.790593 73.462276 
L 313.147176 76.279696 
L 327.74714 78.914894 
L 341.860342 81.241202 
L 343.296 81.466396 
L 343.296 81.466396 
" style="fill:none;stroke:#0069cb;stroke-width:1.5;"/>
   </g>
   <g id="LineCollection_19">
    <path clip-path="url(#pcd2fbb6cb2)" d="M 343.296 255.344748 
L 328.939417 253.010872 
L 314.582834 250.45278 
L 300.226251 247.67026 
L 285.869668 244.663433 
L 271.513085 241.4341 
L 257.156503 237.978832 
L 242.79992 234.301076 
L 227.007678 229.995575 
L 212.651095 225.847325 
L 198.294513 221.473364 
L 183.296066 216.651256 
L 169.581347 212.030409 
L 155.224764 206.972596 
L 140.868181 201.690971 
L 126.511598 196.18578 
L 112.155015 190.456451 
L 96.362774 183.895357 
L 80.570533 177.063137 
L 64.535881 169.847638 
L 57.6 166.641618 
L 57.6 166.641618 
" style="fill:none;stroke:#0061ce;stroke-width:1.5;"/>
    <path clip-path="url(#pcd2fbb6cb2)" d="M 211.146769 41.472 
L 211.215437 41.49255 
L 212.651095 41.920009 
L 214.086754 42.346228 
L 215.522412 42.771184 
L 215.651658 42.809246 
L 216.95807 43.192072 
L 218.393729 43.611415 
L 219.829387 44.029465 
L 220.233194 44.146492 
L 221.265045 44.444038 
L 222.700704 44.856464 
L 224.136362 45.26757 
L 224.894521 45.483739 
L 225.57202 45.675936 
L 227.007678 46.081406 
L 228.443337 46.48553 
L 229.639525 46.820985 
L 229.878995 46.8878 
L 231.314653 47.286278 
L 232.750312 47.683385 
L 234.18597 48.079098 
L 234.47458 48.158231 
L 235.621628 48.471125 
L 237.057286 48.86118 
L 238.492945 49.249818 
L 239.404489 49.495477 
L 239.928603 49.635996 
L 241.364261 50.018968 
L 242.79992 50.400499 
L 244.235578 50.780571 
L 244.433691 50.832724 
L 245.671236 51.156808 
L 247.106894 51.531204 
L 248.542553 51.904118 
L 249.570755 52.16997 
L 249.978211 52.274768 
L 251.413869 52.642001 
L 252.849528 53.007731 
L 254.285186 53.37194 
L 254.821341 53.507216 
L 255.720844 53.732966 
L 257.156503 54.091487 
L 258.592161 54.448467 
L 260.027819 54.803888 
L 260.192716 54.844462 
L 261.463477 55.155472 
L 262.899136 55.505201 
L 264.334794 55.853352 
L 265.695188 56.181709 
L 265.770452 56.199777 
L 267.206111 56.542235 
L 268.641769 56.883096 
L 270.077427 57.222346 
L 271.338966 57.518955 
L 271.513085 57.559671 
L 272.948744 57.893225 
L 274.384402 58.225151 
L 275.82006 58.555431 
L 277.134244 58.856201 
L 277.255719 58.88385 
L 278.691377 59.208436 
L 280.127035 59.53136 
L 281.562693 59.852609 
L 282.998352 60.172168 
L 283.094618 60.193447 
L 284.43401 60.487879 
L 285.869668 60.801744 
L 287.305327 61.113904 
L 288.740985 61.424345 
L 289.236101 61.530693 
L 290.176643 61.731589 
L 291.612302 62.036341 
L 293.04796 62.33936 
L 294.483618 62.640632 
L 295.573601 62.86794 
L 295.919276 62.939621 
L 297.354935 63.235212 
L 298.790593 63.529042 
L 300.226251 63.8211 
L 301.66191 64.111371 
L 302.129289 64.205186 
L 303.097568 64.398437 
L 304.533226 64.683036 
L 305.968884 64.965839 
L 307.404543 65.246831 
L 308.840201 65.526001 
L 308.925378 65.542432 
L 310.275859 65.801451 
L 311.711518 66.074962 
L 313.147176 66.34664 
L 314.582834 66.616473 
L 315.992959 66.879678 
L 316.018492 66.884417 
L 317.454151 67.148604 
L 318.889809 67.410938 
L 320.325467 67.671406 
L 321.761126 67.929998 
L 323.196784 68.186703 
L 323.367268 68.216925 
L 324.632442 68.439886 
L 326.068101 68.690965 
L 327.503759 68.940148 
L 328.939417 69.187426 
L 330.375075 69.432787 
L 331.091403 69.554171 
L 331.810734 69.675339 
L 333.246392 69.915096 
L 334.68205 70.15293 
L 336.117709 70.38883 
L 337.553367 70.622787 
L 338.989025 70.854792 
L 339.217833 70.891417 
L 340.424683 71.083435 
L 341.860342 71.309864 
L 343.296 71.534334 
" style="fill:none;stroke:#0061ce;stroke-width:1.5;"/>
   </g>
   <g id="LineCollection_20">
    <path clip-path="url(#pcd2fbb6cb2)" d="M 343.296 265.844192 
L 328.620167 263.454874 
L 314.582834 260.952013 
L 299.911374 258.105889 
L 285.869668 255.164322 
L 271.513085 251.934709 
L 257.156503 248.480435 
L 242.541457 244.733427 
L 228.443337 240.900383 
L 212.651095 236.349909 
L 198.294513 231.975785 
L 183.890509 227.349226 
L 169.581347 222.532033 
L 153.789106 216.955802 
L 137.996864 211.108596 
L 123.640281 205.55833 
L 109.283698 199.783824 
L 93.491457 193.173062 
L 77.699216 186.291057 
L 61.906975 179.137499 
L 57.6 177.140538 
L 57.6 177.140538 
" style="fill:none;stroke:#0058d3;stroke-width:1.5;"/>
    <path clip-path="url(#pcd2fbb6cb2)" d="M 248.808229 41.472 
L 249.978211 41.773034 
L 251.413869 42.140735 
L 252.849528 42.506854 
L 254.040855 42.809246 
L 254.285186 42.87097 
L 255.720844 43.231526 
L 257.156503 43.590481 
L 258.592161 43.947819 
L 259.394632 44.146492 
L 260.027819 44.302505 
L 261.463477 44.654276 
L 262.899136 45.004412 
L 264.334794 45.352899 
L 264.876961 45.483739 
L 265.770452 45.698321 
L 267.206111 46.041238 
L 268.641769 46.382489 
L 270.077427 46.72206 
L 270.498246 46.820985 
L 271.513085 47.058387 
L 272.948744 47.392387 
L 274.384402 47.724691 
L 275.82006 48.055285 
L 276.269949 48.158231 
L 277.255719 48.382691 
L 278.691377 48.707715 
L 280.127035 49.031014 
L 281.562693 49.352576 
L 282.204733 49.495477 
L 282.998352 49.67124 
L 284.43401 49.987233 
L 285.869668 50.301475 
L 287.305327 50.613954 
L 288.31664 50.832724 
L 288.740985 50.924059 
L 290.176643 51.230973 
L 291.612302 51.53611 
L 293.04796 51.839458 
L 294.483618 52.141005 
L 294.622532 52.16997 
L 295.919276 52.438983 
L 297.354935 52.734971 
L 298.790593 53.029146 
L 300.226251 53.321497 
L 301.144492 53.507216 
L 301.66191 53.611332 
L 303.097568 53.898132 
L 304.533226 54.183096 
L 305.968884 54.466215 
L 307.404543 54.747476 
L 307.903344 54.844462 
L 308.840201 55.025684 
L 310.275859 55.301405 
L 311.711518 55.575258 
L 313.147176 55.847234 
L 314.582834 56.117321 
L 314.927846 56.181709 
L 316.018492 56.384187 
L 317.454151 56.648748 
L 318.889809 56.911411 
L 320.325467 57.172167 
L 321.761126 57.431007 
L 322.252985 57.518955 
L 323.196784 57.686823 
L 324.632442 57.940152 
L 326.068101 58.191556 
L 327.503759 58.441026 
L 328.939417 58.688553 
L 329.919877 58.856201 
L 330.375075 58.933621 
L 331.810734 59.175655 
L 333.246392 59.415739 
L 334.68205 59.653865 
L 336.117709 59.890022 
L 337.553367 60.124204 
L 337.981832 60.193447 
L 338.989025 60.355341 
L 340.424683 60.584055 
L 341.860342 60.810786 
L 343.296 61.035527 
" style="fill:none;stroke:#0058d3;stroke-width:1.5;"/>
   </g>
   <g id="LineCollection_21">
    <path clip-path="url(#pcd2fbb6cb2)" d="M 343.296 276.910396 
L 328.939417 274.577409 
L 314.582834 272.0199 
L 300.226251 269.238215 
L 285.399619 266.129367 
L 271.513085 263.003054 
L 256.732991 259.443136 
L 242.79992 255.871882 
L 228.443337 251.970397 
L 214.086754 247.844745 
L 199.418201 243.396181 
L 185.373588 238.906699 
L 170.846585 234.035457 
L 156.660422 229.058967 
L 140.868181 223.260295 
L 126.511598 217.754459 
L 112.155015 212.024681 
L 96.362774 205.4627 
L 80.570533 198.629816 
L 64.778291 191.525502 
L 57.6 188.206948 
L 57.6 188.206948 
" style="fill:none;stroke:#004fd8;stroke-width:1.5;"/>
    <path clip-path="url(#pcd2fbb6cb2)" d="M 296.404846 41.472 
L 297.354935 41.667691 
L 298.790593 41.961415 
L 300.226251 42.25328 
L 301.66191 42.543276 
L 302.987338 42.809246 
L 303.097568 42.831264 
L 304.533226 43.115815 
L 305.968884 43.398488 
L 307.404543 43.679272 
L 308.840201 43.958157 
L 309.81678 44.146492 
L 310.275859 44.234614 
L 311.711518 44.508064 
L 313.147176 44.779607 
L 314.582834 45.049234 
L 316.018492 45.316934 
L 316.919955 45.483739 
L 317.454151 45.582119 
L 318.889809 45.844397 
L 320.325467 46.104741 
L 321.761126 46.363143 
L 323.196784 46.619593 
L 324.333163 46.820985 
L 324.632442 46.873771 
L 326.068101 47.124814 
L 327.503759 47.373898 
L 328.939417 47.621016 
L 330.375075 47.866158 
L 331.810734 48.109317 
L 332.10216 48.158231 
L 333.246392 48.349357 
L 334.68205 48.587129 
L 336.117709 48.822911 
L 337.553367 49.056696 
L 338.989025 49.288477 
L 340.282551 49.495477 
L 340.424683 49.518112 
L 341.860342 49.744525 
L 343.296 49.96893 
" style="fill:none;stroke:#004fd8;stroke-width:1.5;"/>
   </g>
   <g id="LineCollection_22">
    <path clip-path="url(#pcd2fbb6cb2)" d="M 343.296 288.545233 
L 328.803357 286.18806 
L 314.582834 283.654417 
L 300.059273 280.839075 
L 285.869668 277.86822 
L 271.513085 274.639197 
L 257.156503 271.185759 
L 242.643745 267.466613 
L 228.443337 263.607073 
L 212.651095 259.057401 
L 198.294513 254.683698 
L 183.93793 250.072273 
L 169.581347 245.238518 
L 153.789106 239.661529 
L 137.996864 233.813671 
L 123.640281 228.262602 
L 108.099973 222.000241 
L 94.927116 216.487535 
L 79.894171 209.965025 
L 66.21395 203.817355 
L 57.6 199.841459 
L 57.6 199.841459 
" style="fill:none;stroke:#0046dc;stroke-width:1.5;"/>
   </g>
   <g id="LineCollection_23">
    <path clip-path="url(#pcd2fbb6cb2)" d="M 343.296 300.747034 
L 328.939417 298.414206 
L 314.582834 295.857494 
L 299.228773 292.874291 
L 285.869668 290.071434 
L 271.513085 286.84309 
L 257.156503 283.389683 
L 242.79992 279.712977 
L 227.295803 275.49009 
L 214.086754 271.687266 
L 199.730171 267.337494 
L 185.373588 262.74949 
L 171.017005 257.936517 
L 156.263006 252.756905 
L 142.303839 247.639591 
L 126.511598 241.594589 
L 110.952525 235.372704 
L 97.798432 229.908315 
L 83.441849 223.729843 
L 67.600391 216.651256 
L 57.6 212.043512 
L 57.6 212.043512 
" style="fill:none;stroke:#003de0;stroke-width:1.5;"/>
   </g>
   <g id="LineCollection_24">
    <path clip-path="url(#pcd2fbb6cb2)" d="M 309.058969 307.584 
L 295.631234 304.909508 
L 281.562693 301.897932 
L 267.206111 298.602257 
L 252.849528 295.08262 
L 238.492945 291.338616 
L 224.136362 287.370846 
L 209.779779 283.179407 
L 195.423196 278.758155 
L 181.066613 274.101447 
L 166.71003 269.221897 
L 150.917789 263.594736 
L 135.125548 257.697259 
L 120.768965 252.100511 
L 104.976724 245.68512 
L 90.079853 239.384442 
L 76.263558 233.326761 
L 60.180169 226.01198 
L 57.6 224.812809 
L 57.6 224.812809 
" style="fill:none;stroke:#0034e5;stroke-width:1.5;"/>
   </g>
   <g id="LineCollection_25">
    <path clip-path="url(#pcd2fbb6cb2)" d="M 249.561547 307.584 
L 235.621628 303.903335 
L 220.118675 299.560523 
L 206.559962 295.548784 
L 192.551879 291.185539 
L 177.315075 286.18806 
L 163.838714 281.559215 
L 149.482131 276.409895 
L 135.125548 271.036691 
L 120.768965 265.439552 
L 104.976724 259.023808 
L 90.159033 252.756905 
L 76.263558 246.664692 
L 60.255382 239.384442 
L 57.6 238.150262 
L 57.6 238.150262 
" style="fill:none;stroke:#002ce9;stroke-width:1.5;"/>
   </g>
   <g id="LineCollection_26">
    <path clip-path="url(#pcd2fbb6cb2)" d="M 200.450112 307.584 
L 186.809246 303.240312 
L 171.794036 298.223276 
L 158.09608 293.434071 
L 142.303839 287.658263 
L 126.511598 281.612201 
L 111.199653 275.49009 
L 97.798432 269.923997 
L 82.78369 263.454874 
L 69.085266 257.340361 
L 57.6 252.055936 
L 57.6 252.055936 
" style="fill:none;stroke:#0023ee;stroke-width:1.5;"/>
   </g>
   <g id="LineCollection_27">
    <path clip-path="url(#pcd2fbb6cb2)" d="M 157.188156 307.584 
L 156.660422 307.395308 
L 155.224764 306.879492 
L 153.789106 306.360738 
L 153.475101 306.246754 
L 152.353447 305.840457 
L 150.917789 305.317623 
L 149.803099 304.909508 
L 149.482131 304.792242 
L 148.046472 304.265323 
L 146.610814 303.735437 
L 146.170758 303.572261 
L 145.175156 303.20386 
L 143.739497 302.669871 
L 142.576557 302.235015 
L 142.303839 302.133251 
L 140.868181 301.595155 
L 139.432523 301.05406 
L 139.01972 300.897769 
L 137.996864 300.511306 
L 136.561206 299.966085 
L 135.498778 299.560523 
L 135.125548 299.418342 
L 133.689889 298.868989 
L 132.254231 298.316605 
L 132.012707 298.223276 
L 130.818573 297.762787 
L 129.382915 297.206251 
L 128.560855 296.88603 
L 127.947256 296.647497 
L 126.511598 296.086802 
L 125.141398 295.548784 
L 125.07594 295.523133 
L 123.640281 294.958271 
L 122.204623 294.390333 
L 121.754641 294.211538 
L 120.768965 293.820674 
L 119.333307 293.248547 
L 118.398741 292.874291 
L 117.897648 292.674023 
L 116.46199 292.0977 
L 115.072789 291.537045 
L 115.026332 291.518333 
L 113.590673 290.937805 
L 112.155015 290.354153 
L 111.776939 290.199799 
L 110.719357 289.768873 
L 109.283698 289.180994 
L 108.509626 288.862553 
L 107.84804 288.590918 
L 106.412382 287.9988 
L 105.270071 287.525307 
L 104.976724 287.403948 
L 103.541065 286.807583 
L 102.105407 286.208046 
L 102.05773 286.18806 
L 100.669749 285.607353 
L 99.23409 285.003543 
L 98.872437 284.850814 
L 97.798432 284.398119 
L 96.362774 283.790026 
L 95.712939 283.513568 
L 94.927116 283.17989 
L 93.491457 282.567503 
L 92.578653 282.176322 
L 92.055799 281.952675 
L 90.620141 281.335982 
L 89.469014 280.839075 
L 89.184482 280.716482 
L 87.748824 280.095471 
L 86.383474 279.501829 
L 86.313166 279.471317 
L 84.877508 278.845976 
L 83.441849 278.21737 
L 83.321734 278.164583 
L 82.006191 277.587503 
L 80.570533 276.95454 
L 80.283127 276.827337 
L 79.134874 276.320058 
L 77.699216 275.682725 
L 77.267023 275.49009 
L 76.263558 275.043646 
L 74.827899 274.401929 
L 74.27294 274.152844 
L 73.392241 273.758271 
L 71.956583 273.112157 
L 71.300414 272.815598 
L 70.520925 272.463937 
L 69.085266 271.813411 
L 68.348994 271.478352 
L 67.649608 271.160646 
L 66.21395 270.505695 
L 65.418244 270.141106 
L 64.778291 269.848402 
L 63.342633 269.18901 
L 62.507739 268.803859 
L 61.906975 268.527205 
L 60.471317 267.863358 
L 59.617068 267.466613 
L 59.035658 267.197058 
L 57.6 266.528739 
" style="fill:none;stroke:#001af2;stroke-width:1.5;"/>
   </g>
   <g id="LineCollection_28">
    <path clip-path="url(#pcd2fbb6cb2)" d="M 117.56914 307.584 
L 116.46199 307.139725 
L 115.026332 306.560765 
L 114.251258 306.246754 
L 113.590673 305.979616 
L 112.155015 305.396421 
L 110.962355 304.909508 
L 110.719357 304.810482 
L 109.283698 304.223045 
L 107.84804 303.632531 
L 107.702089 303.572261 
L 106.412382 303.040648 
L 104.976724 302.445869 
L 104.469938 302.235015 
L 103.541065 301.849239 
L 102.105407 301.250186 
L 101.264681 300.897769 
L 100.669749 300.648828 
L 99.23409 300.045491 
L 98.0857 299.560523 
L 97.798432 299.439423 
L 96.362774 298.831793 
L 94.932396 298.223276 
L 94.927116 298.221034 
L 93.491457 297.6091 
L 92.055799 296.994016 
L 91.804731 296.88603 
L 90.620141 296.377419 
L 89.184482 295.758006 
L 88.701542 295.548784 
L 87.748824 295.136756 
L 86.313166 294.513005 
L 85.622277 294.211538 
L 84.877508 293.887119 
L 83.441849 293.259017 
L 82.566415 292.874291 
L 82.006191 292.628512 
L 80.570533 291.996048 
L 79.533446 291.537045 
L 79.134874 291.360942 
L 77.699216 290.724102 
L 76.52288 290.199799 
L 76.263558 290.084412 
L 74.827899 289.443185 
L 73.53424 288.862553 
L 73.392241 288.798927 
L 71.956583 288.1533 
L 70.567063 287.525307 
L 70.520925 287.504489 
L 69.085266 286.85445 
L 67.649608 286.201144 
L 67.620955 286.18806 
L 66.21395 285.546637 
L 64.778291 284.888891 
L 64.695471 284.850814 
L 63.342633 284.229863 
L 61.906975 283.567663 
L 61.790106 283.513568 
L 60.471317 282.90413 
L 59.035658 282.237462 
L 58.904454 282.176322 
L 57.6 281.569438 
" style="fill:none;stroke:#0011f6;stroke-width:1.5;"/>
   </g>
   <g id="LineCollection_29">
    <path clip-path="url(#pcd2fbb6cb2)" d="M 80.524174 307.584 
L 79.134874 306.970084 
L 77.699216 306.332563 
L 77.506692 306.246754 
L 76.263558 305.693548 
L 74.827899 305.051629 
L 74.51125 304.909508 
L 73.392241 304.408048 
L 71.956583 303.761718 
L 71.537383 303.572261 
L 70.520925 303.113586 
L 69.085266 302.462834 
L 68.584641 302.235015 
L 67.649608 301.810165 
L 66.21395 301.154979 
L 65.652589 300.897769 
L 64.778291 300.497787 
L 63.342633 299.838154 
L 62.740801 299.560523 
L 61.906975 299.176454 
L 60.471317 298.512361 
L 59.848868 298.223276 
L 59.035658 297.846167 
L 57.6 297.1776 
" style="fill:none;stroke:#0008fb;stroke-width:1.5;"/>
   </g>
   <g id="LineCollection_30"/>
   <g id="patch_3">
    <path d="M 57.6 307.584 
L 57.6 41.472 
" style="fill:none;stroke:#000000;stroke-linecap:square;stroke-linejoin:miter;stroke-width:0.8;"/>
   </g>
   <g id="patch_4">
    <path d="M 343.296 307.584 
L 343.296 41.472 
" style="fill:none;stroke:#000000;stroke-linecap:square;stroke-linejoin:miter;stroke-width:0.8;"/>
   </g>
   <g id="patch_5">
    <path d="M 57.6 307.584 
L 343.296 307.584 
" style="fill:none;stroke:#000000;stroke-linecap:square;stroke-linejoin:miter;stroke-width:0.8;"/>
   </g>
   <g id="patch_6">
    <path d="M 57.6 41.472 
L 343.296 41.472 
" style="fill:none;stroke:#000000;stroke-linecap:square;stroke-linejoin:miter;stroke-width:0.8;"/>
   </g>
  </g>
  <g id="axes_2">
   <g id="patch_7">
    <path clip-path="url(#pcee7decb56)" d="M 361.152 307.584 
L 361.152 298.407724 
L 361.152 50.648276 
L 361.152 41.472 
L 374.4576 41.472 
L 374.4576 50.648276 
L 374.4576 298.407724 
L 374.4576 307.584 
z
" style="fill:#ffffff;stroke:#ffffff;stroke-linejoin:miter;stroke-width:0.01;"/>
   </g>
   <g id="matplotlib.axis_3"/>
   <g id="matplotlib.axis_4">
    <g id="ytick_8">
     <g id="line2d_13">
      <defs>
       <path d="M 0 0 
L 3.5 0 
" id="m82e74488c2" style="stroke:#000000;stroke-width:0.8;"/>
      </defs>
      <g>
       <use style="stroke:#000000;stroke-width:0.8;" x="374.4576" xlink:href="#m82e74488c2" y="307.584"/>
      </g>
     </g>
     <g id="text_13">
      <!-- 0 -->
      <g transform="translate(381.4576 311.383219)scale(0.1 -0.1)">
       <use xlink:href="#DejaVuSans-48"/>
      </g>
     </g>
    </g>
    <g id="ytick_9">
     <g id="line2d_14">
      <g>
       <use style="stroke:#000000;stroke-width:0.8;" x="374.4576" xlink:href="#m82e74488c2" y="280.055172"/>
      </g>
     </g>
     <g id="text_14">
      <!-- 24 -->
      <g transform="translate(381.4576 283.854391)scale(0.1 -0.1)">
       <use xlink:href="#DejaVuSans-50"/>
       <use x="63.623047" xlink:href="#DejaVuSans-52"/>
      </g>
     </g>
    </g>
    <g id="ytick_10">
     <g id="line2d_15">
      <g>
       <use style="stroke:#000000;stroke-width:0.8;" x="374.4576" xlink:href="#m82e74488c2" y="252.526345"/>
      </g>
     </g>
     <g id="text_15">
      <!-- 48 -->
      <g transform="translate(381.4576 256.325564)scale(0.1 -0.1)">
       <use xlink:href="#DejaVuSans-52"/>
       <use x="63.623047" xlink:href="#DejaVuSans-56"/>
      </g>
     </g>
    </g>
    <g id="ytick_11">
     <g id="line2d_16">
      <g>
       <use style="stroke:#000000;stroke-width:0.8;" x="374.4576" xlink:href="#m82e74488c2" y="224.997517"/>
      </g>
     </g>
     <g id="text_16">
      <!-- 72 -->
      <defs>
       <path d="M 8.203125 72.90625 
L 55.078125 72.90625 
L 55.078125 68.703125 
L 28.609375 0 
L 18.3125 0 
L 43.21875 64.59375 
L 8.203125 64.59375 
z
" id="DejaVuSans-55"/>
      </defs>
      <g transform="translate(381.4576 228.796736)scale(0.1 -0.1)">
       <use xlink:href="#DejaVuSans-55"/>
       <use x="63.623047" xlink:href="#DejaVuSans-50"/>
      </g>
     </g>
    </g>
    <g id="ytick_12">
     <g id="line2d_17">
      <g>
       <use style="stroke:#000000;stroke-width:0.8;" x="374.4576" xlink:href="#m82e74488c2" y="197.46869"/>
      </g>
     </g>
     <g id="text_17">
      <!-- 96 -->
      <defs>
       <path d="M 10.984375 1.515625 
L 10.984375 10.5 
Q 14.703125 8.734375 18.5 7.8125 
Q 22.3125 6.890625 25.984375 6.890625 
Q 35.75 6.890625 40.890625 13.453125 
Q 46.046875 20.015625 46.78125 33.40625 
Q 43.953125 29.203125 39.59375 26.953125 
Q 35.25 24.703125 29.984375 24.703125 
Q 19.046875 24.703125 12.671875 31.3125 
Q 6.296875 37.9375 6.296875 49.421875 
Q 6.296875 60.640625 12.9375 67.421875 
Q 19.578125 74.21875 30.609375 74.21875 
Q 43.265625 74.21875 49.921875 64.515625 
Q 56.59375 54.828125 56.59375 36.375 
Q 56.59375 19.140625 48.40625 8.859375 
Q 40.234375 -1.421875 26.421875 -1.421875 
Q 22.703125 -1.421875 18.890625 -0.6875 
Q 15.09375 0.046875 10.984375 1.515625 
z
M 30.609375 32.421875 
Q 37.25 32.421875 41.125 36.953125 
Q 45.015625 41.5 45.015625 49.421875 
Q 45.015625 57.28125 41.125 61.84375 
Q 37.25 66.40625 30.609375 66.40625 
Q 23.96875 66.40625 20.09375 61.84375 
Q 16.21875 57.28125 16.21875 49.421875 
Q 16.21875 41.5 20.09375 36.953125 
Q 23.96875 32.421875 30.609375 32.421875 
z
" id="DejaVuSans-57"/>
      </defs>
      <g transform="translate(381.4576 201.267908)scale(0.1 -0.1)">
       <use xlink:href="#DejaVuSans-57"/>
       <use x="63.623047" xlink:href="#DejaVuSans-54"/>
      </g>
     </g>
    </g>
    <g id="ytick_13">
     <g id="line2d_18">
      <g>
       <use style="stroke:#000000;stroke-width:0.8;" x="374.4576" xlink:href="#m82e74488c2" y="169.939862"/>
      </g>
     </g>
     <g id="text_18">
      <!-- 120 -->
      <g transform="translate(381.4576 173.739081)scale(0.1 -0.1)">
       <use xlink:href="#DejaVuSans-49"/>
       <use x="63.623047" xlink:href="#DejaVuSans-50"/>
       <use x="127.246094" xlink:href="#DejaVuSans-48"/>
      </g>
     </g>
    </g>
    <g id="ytick_14">
     <g id="line2d_19">
      <g>
       <use style="stroke:#000000;stroke-width:0.8;" x="374.4576" xlink:href="#m82e74488c2" y="142.411034"/>
      </g>
     </g>
     <g id="text_19">
      <!-- 144 -->
      <g transform="translate(381.4576 146.210253)scale(0.1 -0.1)">
       <use xlink:href="#DejaVuSans-49"/>
       <use x="63.623047" xlink:href="#DejaVuSans-52"/>
       <use x="127.246094" xlink:href="#DejaVuSans-52"/>
      </g>
     </g>
    </g>
    <g id="ytick_15">
     <g id="line2d_20">
      <g>
       <use style="stroke:#000000;stroke-width:0.8;" x="374.4576" xlink:href="#m82e74488c2" y="114.882207"/>
      </g>
     </g>
     <g id="text_20">
      <!-- 168 -->
      <g transform="translate(381.4576 118.681426)scale(0.1 -0.1)">
       <use xlink:href="#DejaVuSans-49"/>
       <use x="63.623047" xlink:href="#DejaVuSans-54"/>
       <use x="127.246094" xlink:href="#DejaVuSans-56"/>
      </g>
     </g>
    </g>
    <g id="ytick_16">
     <g id="line2d_21">
      <g>
       <use style="stroke:#000000;stroke-width:0.8;" x="374.4576" xlink:href="#m82e74488c2" y="87.353379"/>
      </g>
     </g>
     <g id="text_21">
      <!-- 192 -->
      <g transform="translate(381.4576 91.152598)scale(0.1 -0.1)">
       <use xlink:href="#DejaVuSans-49"/>
       <use x="63.623047" xlink:href="#DejaVuSans-57"/>
       <use x="127.246094" xlink:href="#DejaVuSans-50"/>
      </g>
     </g>
    </g>
    <g id="ytick_17">
     <g id="line2d_22">
      <g>
       <use style="stroke:#000000;stroke-width:0.8;" x="374.4576" xlink:href="#m82e74488c2" y="59.824552"/>
      </g>
     </g>
     <g id="text_22">
      <!-- 216 -->
      <g transform="translate(381.4576 63.62377)scale(0.1 -0.1)">
       <use xlink:href="#DejaVuSans-50"/>
       <use x="63.623047" xlink:href="#DejaVuSans-49"/>
       <use x="127.246094" xlink:href="#DejaVuSans-54"/>
      </g>
     </g>
    </g>
   </g>
   <g id="LineCollection_31">
    <path clip-path="url(#pcee7decb56)" d="M 361.152 307.584 
L 374.4576 307.584 
" style="fill:none;stroke:#00ff80;stroke-width:1.5;"/>
    <path clip-path="url(#pcee7decb56)" d="M 361.152 298.407724 
L 374.4576 298.407724 
" style="fill:none;stroke:#00f784;stroke-width:1.5;"/>
    <path clip-path="url(#pcee7decb56)" d="M 361.152 289.231448 
L 374.4576 289.231448 
" style="fill:none;stroke:#00ee88;stroke-width:1.5;"/>
    <path clip-path="url(#pcee7decb56)" d="M 361.152 280.055172 
L 374.4576 280.055172 
" style="fill:none;stroke:#00e58c;stroke-width:1.5;"/>
    <path clip-path="url(#pcee7decb56)" d="M 361.152 270.878897 
L 374.4576 270.878897 
" style="fill:none;stroke:#00dc91;stroke-width:1.5;"/>
    <path clip-path="url(#pcee7decb56)" d="M 361.152 261.702621 
L 374.4576 261.702621 
" style="fill:none;stroke:#00d396;stroke-width:1.5;"/>
    <path clip-path="url(#pcee7decb56)" d="M 361.152 252.526345 
L 374.4576 252.526345 
" style="fill:none;stroke:#00cb9a;stroke-width:1.5;"/>
    <path clip-path="url(#pcee7decb56)" d="M 361.152 243.350069 
L 374.4576 243.350069 
" style="fill:none;stroke:#00c29e;stroke-width:1.5;"/>
    <path clip-path="url(#pcee7decb56)" d="M 361.152 234.173793 
L 374.4576 234.173793 
" style="fill:none;stroke:#00b9a2;stroke-width:1.5;"/>
    <path clip-path="url(#pcee7decb56)" d="M 361.152 224.997517 
L 374.4576 224.997517 
" style="fill:none;stroke:#00b0a7;stroke-width:1.5;"/>
    <path clip-path="url(#pcee7decb56)" d="M 361.152 215.821241 
L 374.4576 215.821241 
" style="fill:none;stroke:#00a7ac;stroke-width:1.5;"/>
    <path clip-path="url(#pcee7decb56)" d="M 361.152 206.644966 
L 374.4576 206.644966 
" style="fill:none;stroke:#009eb0;stroke-width:1.5;"/>
    <path clip-path="url(#pcee7decb56)" d="M 361.152 197.46869 
L 374.4576 197.46869 
" style="fill:none;stroke:#0096b4;stroke-width:1.5;"/>
    <path clip-path="url(#pcee7decb56)" d="M 361.152 188.292414 
L 374.4576 188.292414 
" style="fill:none;stroke:#008db8;stroke-width:1.5;"/>
    <path clip-path="url(#pcee7decb56)" d="M 361.152 179.116138 
L 374.4576 179.116138 
" style="fill:none;stroke:#0084bd;stroke-width:1.5;"/>
    <path clip-path="url(#pcee7decb56)" d="M 361.152 169.939862 
L 374.4576 169.939862 
" style="fill:none;stroke:#007bc2;stroke-width:1.5;"/>
    <path clip-path="url(#pcee7decb56)" d="M 361.152 160.763586 
L 374.4576 160.763586 
" style="fill:none;stroke:#0072c6;stroke-width:1.5;"/>
    <path clip-path="url(#pcee7decb56)" d="M 361.152 151.58731 
L 374.4576 151.58731 
" style="fill:none;stroke:#0069cb;stroke-width:1.5;"/>
    <path clip-path="url(#pcee7decb56)" d="M 361.152 142.411034 
L 374.4576 142.411034 
" style="fill:none;stroke:#0061ce;stroke-width:1.5;"/>
    <path clip-path="url(#pcee7decb56)" d="M 361.152 133.234759 
L 374.4576 133.234759 
" style="fill:none;stroke:#0058d3;stroke-width:1.5;"/>
    <path clip-path="url(#pcee7decb56)" d="M 361.152 124.058483 
L 374.4576 124.058483 
" style="fill:none;stroke:#004fd8;stroke-width:1.5;"/>
    <path clip-path="url(#pcee7decb56)" d="M 361.152 114.882207 
L 374.4576 114.882207 
" style="fill:none;stroke:#0046dc;stroke-width:1.5;"/>
    <path clip-path="url(#pcee7decb56)" d="M 361.152 105.705931 
L 374.4576 105.705931 
" style="fill:none;stroke:#003de0;stroke-width:1.5;"/>
    <path clip-path="url(#pcee7decb56)" d="M 361.152 96.529655 
L 374.4576 96.529655 
" style="fill:none;stroke:#0034e5;stroke-width:1.5;"/>
    <path clip-path="url(#pcee7decb56)" d="M 361.152 87.353379 
L 374.4576 87.353379 
" style="fill:none;stroke:#002ce9;stroke-width:1.5;"/>
    <path clip-path="url(#pcee7decb56)" d="M 361.152 78.177103 
L 374.4576 78.177103 
" style="fill:none;stroke:#0023ee;stroke-width:1.5;"/>
    <path clip-path="url(#pcee7decb56)" d="M 361.152 69.000828 
L 374.4576 69.000828 
" style="fill:none;stroke:#001af2;stroke-width:1.5;"/>
    <path clip-path="url(#pcee7decb56)" d="M 361.152 59.824552 
L 374.4576 59.824552 
" style="fill:none;stroke:#0011f6;stroke-width:1.5;"/>
    <path clip-path="url(#pcee7decb56)" d="M 361.152 50.648276 
L 374.4576 50.648276 
" style="fill:none;stroke:#0008fb;stroke-width:1.5;"/>
    <path clip-path="url(#pcee7decb56)" d="M 361.152 41.472 
L 374.4576 41.472 
" style="fill:none;stroke:#0000ff;stroke-width:1.5;"/>
   </g>
   <g id="patch_8">
    <path d="M 361.152 307.584 
L 361.152 298.407724 
L 361.152 50.648276 
L 361.152 41.472 
L 374.4576 41.472 
L 374.4576 50.648276 
L 374.4576 298.407724 
L 374.4576 307.584 
z
" style="fill:none;stroke:#000000;stroke-linejoin:miter;stroke-width:0.8;"/>
   </g>
  </g>
 </g>
 <defs>
  <clipPath id="pcd2fbb6cb2">
   <rect height="266.112" width="285.696" x="57.6" y="41.472"/>
  </clipPath>
  <clipPath id="pcee7decb56">
   <rect height="266.112" width="13.3056" x="361.152" y="41.472"/>
  </clipPath>
 </defs>
</svg>
