<?xml version="1.0" encoding="utf-8" standalone="no"?>
<!DOCTYPE svg PUBLIC "-//W3C//DTD SVG 1.1//EN"
  "http://www.w3.org/Graphics/SVG/1.1/DTD/svg11.dtd">
<!-- Created with matplotlib (https://matplotlib.org/) -->
<svg height="345.6pt" version="1.1" viewBox="0 0 460.8 345.6" width="460.8pt" xmlns="http://www.w3.org/2000/svg" xmlns:xlink="http://www.w3.org/1999/xlink">
 <defs>
  <style type="text/css">
*{stroke-linecap:butt;stroke-linejoin:round;}
  </style>
 </defs>
 <g id="figure_1">
  <g id="patch_1">
   <path d="M 0 345.6 
L 460.8 345.6 
L 460.8 0 
L 0 0 
z
" style="fill:#ffffff;"/>
  </g>
  <g id="axes_1">
   <g id="patch_2">
    <path d="M 57.6 307.584 
L 343.296 307.584 
L 343.296 41.472 
L 57.6 41.472 
z
" style="fill:#ffffff;"/>
   </g>
   <g id="matplotlib.axis_1">
    <g id="xtick_1">
     <g id="line2d_1">
      <defs>
       <path d="M 0 0 
L 0 3.5 
" id="mb825124841" style="stroke:#000000;stroke-width:0.8;"/>
      </defs>
      <g>
       <use style="stroke:#000000;stroke-width:0.8;" x="57.6" xlink:href="#mb825124841" y="307.584"/>
      </g>
     </g>
     <g id="text_1">
      <!-- −20 -->
      <defs>
       <path d="M 10.59375 35.5 
L 73.1875 35.5 
L 73.1875 27.203125 
L 10.59375 27.203125 
z
" id="DejaVuSans-8722"/>
       <path d="M 19.1875 8.296875 
L 53.609375 8.296875 
L 53.609375 0 
L 7.328125 0 
L 7.328125 8.296875 
Q 12.9375 14.109375 22.625 23.890625 
Q 32.328125 33.6875 34.8125 36.53125 
Q 39.546875 41.84375 41.421875 45.53125 
Q 43.3125 49.21875 43.3125 52.78125 
Q 43.3125 58.59375 39.234375 62.25 
Q 35.15625 65.921875 28.609375 65.921875 
Q 23.96875 65.921875 18.8125 64.3125 
Q 13.671875 62.703125 7.8125 59.421875 
L 7.8125 69.390625 
Q 13.765625 71.78125 18.9375 73 
Q 24.125 74.21875 28.421875 74.21875 
Q 39.75 74.21875 46.484375 68.546875 
Q 53.21875 62.890625 53.21875 53.421875 
Q 53.21875 48.921875 51.53125 44.890625 
Q 49.859375 40.875 45.40625 35.40625 
Q 44.1875 33.984375 37.640625 27.21875 
Q 31.109375 20.453125 19.1875 8.296875 
z
" id="DejaVuSans-50"/>
       <path d="M 31.78125 66.40625 
Q 24.171875 66.40625 20.328125 58.90625 
Q 16.5 51.421875 16.5 36.375 
Q 16.5 21.390625 20.328125 13.890625 
Q 24.171875 6.390625 31.78125 6.390625 
Q 39.453125 6.390625 43.28125 13.890625 
Q 47.125 21.390625 47.125 36.375 
Q 47.125 51.421875 43.28125 58.90625 
Q 39.453125 66.40625 31.78125 66.40625 
z
M 31.78125 74.21875 
Q 44.046875 74.21875 50.515625 64.515625 
Q 56.984375 54.828125 56.984375 36.375 
Q 56.984375 17.96875 50.515625 8.265625 
Q 44.046875 -1.421875 31.78125 -1.421875 
Q 19.53125 -1.421875 13.0625 8.265625 
Q 6.59375 17.96875 6.59375 36.375 
Q 6.59375 54.828125 13.0625 64.515625 
Q 19.53125 74.21875 31.78125 74.21875 
z
" id="DejaVuSans-48"/>
      </defs>
      <g transform="translate(47.047656 322.182437)scale(0.1 -0.1)">
       <use xlink:href="#DejaVuSans-8722"/>
       <use x="83.789062" xlink:href="#DejaVuSans-50"/>
       <use x="147.412109" xlink:href="#DejaVuSans-48"/>
      </g>
     </g>
    </g>
    <g id="xtick_2">
     <g id="line2d_2">
      <g>
       <use style="stroke:#000000;stroke-width:0.8;" x="93.312" xlink:href="#mb825124841" y="307.584"/>
      </g>
     </g>
     <g id="text_2">
      <!-- −15 -->
      <defs>
       <path d="M 12.40625 8.296875 
L 28.515625 8.296875 
L 28.515625 63.921875 
L 10.984375 60.40625 
L 10.984375 69.390625 
L 28.421875 72.90625 
L 38.28125 72.90625 
L 38.28125 8.296875 
L 54.390625 8.296875 
L 54.390625 0 
L 12.40625 0 
z
" id="DejaVuSans-49"/>
       <path d="M 10.796875 72.90625 
L 49.515625 72.90625 
L 49.515625 64.59375 
L 19.828125 64.59375 
L 19.828125 46.734375 
Q 21.96875 47.46875 24.109375 47.828125 
Q 26.265625 48.1875 28.421875 48.1875 
Q 40.625 48.1875 47.75 41.5 
Q 54.890625 34.8125 54.890625 23.390625 
Q 54.890625 11.625 47.5625 5.09375 
Q 40.234375 -1.421875 26.90625 -1.421875 
Q 22.3125 -1.421875 17.546875 -0.640625 
Q 12.796875 0.140625 7.71875 1.703125 
L 7.71875 11.625 
Q 12.109375 9.234375 16.796875 8.0625 
Q 21.484375 6.890625 26.703125 6.890625 
Q 35.15625 6.890625 40.078125 11.328125 
Q 45.015625 15.765625 45.015625 23.390625 
Q 45.015625 31 40.078125 35.4375 
Q 35.15625 39.890625 26.703125 39.890625 
Q 22.75 39.890625 18.8125 39.015625 
Q 14.890625 38.140625 10.796875 36.28125 
z
" id="DejaVuSans-53"/>
      </defs>
      <g transform="translate(82.759656 322.182437)scale(0.1 -0.1)">
       <use xlink:href="#DejaVuSans-8722"/>
       <use x="83.789062" xlink:href="#DejaVuSans-49"/>
       <use x="147.412109" xlink:href="#DejaVuSans-53"/>
      </g>
     </g>
    </g>
    <g id="xtick_3">
     <g id="line2d_3">
      <g>
       <use style="stroke:#000000;stroke-width:0.8;" x="129.024" xlink:href="#mb825124841" y="307.584"/>
      </g>
     </g>
     <g id="text_3">
      <!-- −10 -->
      <g transform="translate(118.471656 322.182437)scale(0.1 -0.1)">
       <use xlink:href="#DejaVuSans-8722"/>
       <use x="83.789062" xlink:href="#DejaVuSans-49"/>
       <use x="147.412109" xlink:href="#DejaVuSans-48"/>
      </g>
     </g>
    </g>
    <g id="xtick_4">
     <g id="line2d_4">
      <g>
       <use style="stroke:#000000;stroke-width:0.8;" x="164.736" xlink:href="#mb825124841" y="307.584"/>
      </g>
     </g>
     <g id="text_4">
      <!-- −5 -->
      <g transform="translate(157.364906 322.182437)scale(0.1 -0.1)">
       <use xlink:href="#DejaVuSans-8722"/>
       <use x="83.789062" xlink:href="#DejaVuSans-53"/>
      </g>
     </g>
    </g>
    <g id="xtick_5">
     <g id="line2d_5">
      <g>
       <use style="stroke:#000000;stroke-width:0.8;" x="200.448" xlink:href="#mb825124841" y="307.584"/>
      </g>
     </g>
     <g id="text_5">
      <!-- 0 -->
      <g transform="translate(197.26675 322.182437)scale(0.1 -0.1)">
       <use xlink:href="#DejaVuSans-48"/>
      </g>
     </g>
    </g>
    <g id="xtick_6">
     <g id="line2d_6">
      <g>
       <use style="stroke:#000000;stroke-width:0.8;" x="236.16" xlink:href="#mb825124841" y="307.584"/>
      </g>
     </g>
     <g id="text_6">
      <!-- 5 -->
      <g transform="translate(232.97875 322.182437)scale(0.1 -0.1)">
       <use xlink:href="#DejaVuSans-53"/>
      </g>
     </g>
    </g>
    <g id="xtick_7">
     <g id="line2d_7">
      <g>
       <use style="stroke:#000000;stroke-width:0.8;" x="271.872" xlink:href="#mb825124841" y="307.584"/>
      </g>
     </g>
     <g id="text_7">
      <!-- 10 -->
      <g transform="translate(265.5095 322.182437)scale(0.1 -0.1)">
       <use xlink:href="#DejaVuSans-49"/>
       <use x="63.623047" xlink:href="#DejaVuSans-48"/>
      </g>
     </g>
    </g>
    <g id="xtick_8">
     <g id="line2d_8">
      <g>
       <use style="stroke:#000000;stroke-width:0.8;" x="307.584" xlink:href="#mb825124841" y="307.584"/>
      </g>
     </g>
     <g id="text_8">
      <!-- 15 -->
      <g transform="translate(301.2215 322.182437)scale(0.1 -0.1)">
       <use xlink:href="#DejaVuSans-49"/>
       <use x="63.623047" xlink:href="#DejaVuSans-53"/>
      </g>
     </g>
    </g>
    <g id="xtick_9">
     <g id="line2d_9">
      <g>
       <use style="stroke:#000000;stroke-width:0.8;" x="343.296" xlink:href="#mb825124841" y="307.584"/>
      </g>
     </g>
     <g id="text_9">
      <!-- 20 -->
      <g transform="translate(336.9335 322.182437)scale(0.1 -0.1)">
       <use xlink:href="#DejaVuSans-50"/>
       <use x="63.623047" xlink:href="#DejaVuSans-48"/>
      </g>
     </g>
    </g>
   </g>
   <g id="matplotlib.axis_2">
    <g id="ytick_1">
     <g id="line2d_10">
      <defs>
       <path d="M 0 0 
L -3.5 0 
" id="ma072790e79" style="stroke:#000000;stroke-width:0.8;"/>
      </defs>
      <g>
       <use style="stroke:#000000;stroke-width:0.8;" x="57.6" xlink:href="#ma072790e79" y="307.584"/>
      </g>
     </g>
     <g id="text_10">
      <!-- −20 -->
      <g transform="translate(29.495313 311.383219)scale(0.1 -0.1)">
       <use xlink:href="#DejaVuSans-8722"/>
       <use x="83.789062" xlink:href="#DejaVuSans-50"/>
       <use x="147.412109" xlink:href="#DejaVuSans-48"/>
      </g>
     </g>
    </g>
    <g id="ytick_2">
     <g id="line2d_11">
      <g>
       <use style="stroke:#000000;stroke-width:0.8;" x="57.6" xlink:href="#ma072790e79" y="274.32"/>
      </g>
     </g>
     <g id="text_11">
      <!-- −15 -->
      <g transform="translate(29.495313 278.119219)scale(0.1 -0.1)">
       <use xlink:href="#DejaVuSans-8722"/>
       <use x="83.789062" xlink:href="#DejaVuSans-49"/>
       <use x="147.412109" xlink:href="#DejaVuSans-53"/>
      </g>
     </g>
    </g>
    <g id="ytick_3">
     <g id="line2d_12">
      <g>
       <use style="stroke:#000000;stroke-width:0.8;" x="57.6" xlink:href="#ma072790e79" y="241.056"/>
      </g>
     </g>
     <g id="text_12">
      <!-- −10 -->
      <g transform="translate(29.495313 244.855219)scale(0.1 -0.1)">
       <use xlink:href="#DejaVuSans-8722"/>
       <use x="83.789062" xlink:href="#DejaVuSans-49"/>
       <use x="147.412109" xlink:href="#DejaVuSans-48"/>
      </g>
     </g>
    </g>
    <g id="ytick_4">
     <g id="line2d_13">
      <g>
       <use style="stroke:#000000;stroke-width:0.8;" x="57.6" xlink:href="#ma072790e79" y="207.792"/>
      </g>
     </g>
     <g id="text_13">
      <!-- −5 -->
      <g transform="translate(35.857813 211.591219)scale(0.1 -0.1)">
       <use xlink:href="#DejaVuSans-8722"/>
       <use x="83.789062" xlink:href="#DejaVuSans-53"/>
      </g>
     </g>
    </g>
    <g id="ytick_5">
     <g id="line2d_14">
      <g>
       <use style="stroke:#000000;stroke-width:0.8;" x="57.6" xlink:href="#ma072790e79" y="174.528"/>
      </g>
     </g>
     <g id="text_14">
      <!-- 0 -->
      <g transform="translate(44.2375 178.327219)scale(0.1 -0.1)">
       <use xlink:href="#DejaVuSans-48"/>
      </g>
     </g>
    </g>
    <g id="ytick_6">
     <g id="line2d_15">
      <g>
       <use style="stroke:#000000;stroke-width:0.8;" x="57.6" xlink:href="#ma072790e79" y="141.264"/>
      </g>
     </g>
     <g id="text_15">
      <!-- 5 -->
      <g transform="translate(44.2375 145.063219)scale(0.1 -0.1)">
       <use xlink:href="#DejaVuSans-53"/>
      </g>
     </g>
    </g>
    <g id="ytick_7">
     <g id="line2d_16">
      <g>
       <use style="stroke:#000000;stroke-width:0.8;" x="57.6" xlink:href="#ma072790e79" y="108"/>
      </g>
     </g>
     <g id="text_16">
      <!-- 10 -->
      <g transform="translate(37.875 111.799219)scale(0.1 -0.1)">
       <use xlink:href="#DejaVuSans-49"/>
       <use x="63.623047" xlink:href="#DejaVuSans-48"/>
      </g>
     </g>
    </g>
    <g id="ytick_8">
     <g id="line2d_17">
      <g>
       <use style="stroke:#000000;stroke-width:0.8;" x="57.6" xlink:href="#ma072790e79" y="74.736"/>
      </g>
     </g>
     <g id="text_17">
      <!-- 15 -->
      <g transform="translate(37.875 78.535219)scale(0.1 -0.1)">
       <use xlink:href="#DejaVuSans-49"/>
       <use x="63.623047" xlink:href="#DejaVuSans-53"/>
      </g>
     </g>
    </g>
    <g id="ytick_9">
     <g id="line2d_18">
      <g>
       <use style="stroke:#000000;stroke-width:0.8;" x="57.6" xlink:href="#ma072790e79" y="41.472"/>
      </g>
     </g>
     <g id="text_18">
      <!-- 20 -->
      <g transform="translate(37.875 45.271219)scale(0.1 -0.1)">
       <use xlink:href="#DejaVuSans-50"/>
       <use x="63.623047" xlink:href="#DejaVuSans-48"/>
      </g>
     </g>
    </g>
   </g>
   <g id="LineCollection_1"/>
   <g id="LineCollection_2">
    <path clip-path="url(#pa756524601)" d="M 199.730171 292.41366 
L 198.571829 290.199799 
L 198.294513 289.559853 
L 197.676467 286.18806 
L 197.213869 282.176322 
L 196.974828 278.164583 
L 196.905123 272.815598 
L 197.071497 266.129367 
L 197.666709 254.094151 
L 198.766784 235.372704 
L 199.305246 226.01198 
L 199.668698 215.31401 
L 199.730171 212.415784 
L 201.165829 212.415784 
L 201.477154 223.337487 
L 201.95186 232.698211 
L 203.229291 254.094151 
L 203.915434 268.803859 
L 203.985467 275.49009 
L 203.783543 280.839075 
L 203.402651 284.850814 
L 202.752662 288.862553 
L 202.601487 289.559853 
L 201.66058 291.537045 
L 201.165829 292.41366 
L 199.730171 292.41366 
L 199.730171 292.41366 
" style="fill:none;stroke:#00f784;stroke-width:1.5;"/>
    <path clip-path="url(#pa756524601)" d="M 199.730171 136.640216 
L 199.418846 125.718513 
L 198.94414 116.357789 
L 197.666709 94.961849 
L 196.980566 80.252141 
L 196.910533 73.56591 
L 197.112457 68.216925 
L 197.493349 64.205186 
L 198.143338 60.193447 
L 198.294513 59.496147 
L 199.23542 57.518955 
L 199.730171 56.64234 
L 201.165829 56.64234 
L 202.324171 58.856201 
L 202.601487 59.496147 
L 203.219533 62.86794 
L 203.682131 66.879678 
L 203.921172 70.891417 
L 203.990877 76.240402 
L 203.824503 82.926633 
L 203.229291 94.961849 
L 202.129216 113.683296 
L 201.590754 123.04402 
L 201.227302 133.74199 
L 201.165829 136.640216 
L 199.730171 136.640216 
L 199.730171 136.640216 
" style="fill:none;stroke:#00f784;stroke-width:1.5;"/>
   </g>
   <g id="LineCollection_3">
    <path clip-path="url(#pa756524601)" d="M 173.938815 307.584 
L 173.43347 302.235015 
L 173.013242 295.548784 
L 172.72738 287.525307 
L 172.577422 276.827337 
L 172.591298 259.443136 
L 172.786744 195.255317 
L 172.710848 113.683296 
L 172.611276 68.216925 
L 172.845953 57.518955 
L 173.241132 49.495477 
L 173.794131 42.809246 
L 173.938815 41.472 
L 173.938815 41.472 
" style="fill:none;stroke:#00ee88;stroke-width:1.5;"/>
    <path clip-path="url(#pa756524601)" d="M 226.957185 41.472 
L 227.46253 46.820985 
L 227.882758 53.507216 
L 228.16862 61.530693 
L 228.318578 72.228663 
L 228.304702 89.612864 
L 228.109256 153.800683 
L 228.185152 235.372704 
L 228.284724 280.839075 
L 228.050047 291.537045 
L 227.654868 299.560523 
L 227.101869 306.246754 
L 226.957185 307.584 
L 226.957185 307.584 
" style="fill:none;stroke:#00ee88;stroke-width:1.5;"/>
   </g>
   <g id="LineCollection_4">
    <path clip-path="url(#pa756524601)" d="M 162.344744 307.584 
L 161.856475 300.897769 
L 161.491207 292.874291 
L 161.251376 282.176322 
L 161.169288 267.466613 
L 161.280763 227.349226 
L 161.325108 161.824161 
L 161.199616 96.299095 
L 161.220906 69.554171 
L 161.448296 57.518955 
L 161.856475 48.158231 
L 162.344744 41.472 
L 162.344744 41.472 
" style="fill:none;stroke:#00e68c;stroke-width:1.5;"/>
    <path clip-path="url(#pa756524601)" d="M 238.551256 41.472 
L 239.039525 48.158231 
L 239.404793 56.181709 
L 239.644624 66.879678 
L 239.726712 81.589387 
L 239.615237 121.706774 
L 239.570892 187.231839 
L 239.696384 252.756905 
L 239.675094 279.501829 
L 239.447704 291.537045 
L 239.039525 300.897769 
L 238.551256 307.584 
L 238.551256 307.584 
" style="fill:none;stroke:#00e68c;stroke-width:1.5;"/>
   </g>
   <g id="LineCollection_5">
    <path clip-path="url(#pa756524601)" d="M 153.55834 307.584 
L 153.031283 299.560523 
L 152.671999 290.199799 
L 152.462496 278.164583 
L 152.406409 259.443136 
L 152.476595 119.032281 
L 152.462496 70.891417 
L 152.671999 58.856201 
L 153.031283 49.495477 
L 153.55834 41.472 
L 153.55834 41.472 
" style="fill:none;stroke:#00dd90;stroke-width:1.5;"/>
    <path clip-path="url(#pa756524601)" d="M 247.33766 41.472 
L 247.864717 49.495477 
L 248.224001 58.856201 
L 248.433504 70.891417 
L 248.489591 89.612864 
L 248.419405 230.023719 
L 248.433504 278.164583 
L 248.224001 290.199799 
L 247.864717 299.560523 
L 247.33766 307.584 
L 247.33766 307.584 
" style="fill:none;stroke:#00dd90;stroke-width:1.5;"/>
   </g>
   <g id="LineCollection_6">
    <path clip-path="url(#pa756524601)" d="M 146.196903 307.584 
L 145.677985 299.560523 
L 145.313577 290.199799 
L 145.09012 278.164583 
L 145.010713 259.443136 
L 145.141764 66.879678 
L 145.443934 54.844462 
L 145.908797 45.483739 
L 146.196903 41.472 
L 146.196903 41.472 
" style="fill:none;stroke:#00d594;stroke-width:1.5;"/>
    <path clip-path="url(#pa756524601)" d="M 254.699097 41.472 
L 255.218015 49.495477 
L 255.582423 58.856201 
L 255.80588 70.891417 
L 255.885287 89.612864 
L 255.754236 282.176322 
L 255.452066 294.211538 
L 254.987203 303.572261 
L 254.699097 307.584 
L 254.699097 307.584 
" style="fill:none;stroke:#00d594;stroke-width:1.5;"/>
   </g>
   <g id="LineCollection_7">
    <path clip-path="url(#pa756524601)" d="M 139.739573 307.584 
L 139.216142 299.560523 
L 138.84412 290.199799 
L 138.601901 278.164583 
L 138.497987 260.780382 
L 138.551397 215.31401 
L 138.547853 131.067497 
L 138.572053 73.56591 
L 138.806288 60.193447 
L 139.216142 49.495477 
L 139.739573 41.472 
L 139.739573 41.472 
" style="fill:none;stroke:#00cc99;stroke-width:1.5;"/>
    <path clip-path="url(#pa756524601)" d="M 261.156427 41.472 
L 261.679858 49.495477 
L 262.05188 58.856201 
L 262.294099 70.891417 
L 262.398013 88.275618 
L 262.344603 133.74199 
L 262.348147 217.988503 
L 262.323947 275.49009 
L 262.089712 288.862553 
L 261.679858 299.560523 
L 261.156427 307.584 
L 261.156427 307.584 
" style="fill:none;stroke:#00cc99;stroke-width:1.5;"/>
   </g>
   <g id="LineCollection_8">
    <path clip-path="url(#pa756524601)" d="M 133.925435 307.584 
L 133.391996 299.560523 
L 133.002293 290.199799 
L 132.737727 278.164583 
L 132.609202 260.780382 
L 132.63055 223.337487 
L 132.642576 135.079236 
L 132.675583 76.240402 
L 132.924618 61.530693 
L 133.32326 50.832724 
L 133.81977 42.809246 
L 133.925435 41.472 
L 133.925435 41.472 
" style="fill:none;stroke:#00c49d;stroke-width:1.5;"/>
    <path clip-path="url(#pa756524601)" d="M 266.970565 41.472 
L 267.504004 49.495477 
L 267.893707 58.856201 
L 268.158273 70.891417 
L 268.286798 88.275618 
L 268.26545 125.718513 
L 268.253424 213.976764 
L 268.220417 272.815598 
L 267.971382 287.525307 
L 267.57274 298.223276 
L 267.07623 306.246754 
L 266.970565 307.584 
L 266.970565 307.584 
" style="fill:none;stroke:#00c49d;stroke-width:1.5;"/>
   </g>
   <g id="LineCollection_9">
    <path clip-path="url(#pa756524601)" d="M 128.601237 307.584 
L 128.048478 299.560523 
L 127.638635 290.199799 
L 127.351662 278.164583 
L 127.198453 260.780382 
L 127.193226 227.349226 
L 127.202811 129.730251 
L 127.254606 78.914894 
L 127.484901 64.205186 
L 127.846639 53.507216 
L 128.298191 45.483739 
L 128.601237 41.472 
L 128.601237 41.472 
" style="fill:none;stroke:#00bba2;stroke-width:1.5;"/>
    <path clip-path="url(#pa756524601)" d="M 272.294763 41.472 
L 272.847522 49.495477 
L 273.257365 58.856201 
L 273.544338 70.891417 
L 273.697547 88.275618 
L 273.702774 121.706774 
L 273.693189 219.325749 
L 273.641394 270.141106 
L 273.411099 284.850814 
L 273.049361 295.548784 
L 272.597809 303.572261 
L 272.294763 307.584 
L 272.294763 307.584 
" style="fill:none;stroke:#00bba2;stroke-width:1.5;"/>
   </g>
   <g id="LineCollection_10">
    <path clip-path="url(#pa756524601)" d="M 123.659009 307.584 
L 123.092509 299.560523 
L 122.65804 290.199799 
L 122.34263 278.164583 
L 122.168853 262.117628 
L 122.129579 234.035457 
L 122.34263 70.891417 
L 122.65804 58.856201 
L 123.092509 49.495477 
L 123.659009 41.472 
L 123.659009 41.472 
" style="fill:none;stroke:#00b3a6;stroke-width:1.5;"/>
    <path clip-path="url(#pa756524601)" d="M 277.236991 41.472 
L 277.803491 49.495477 
L 278.23796 58.856201 
L 278.55337 70.891417 
L 278.727147 86.938372 
L 278.766421 115.020543 
L 278.55337 278.164583 
L 278.23796 290.199799 
L 277.803491 299.560523 
L 277.236991 307.584 
L 277.236991 307.584 
" style="fill:none;stroke:#00b3a6;stroke-width:1.5;"/>
   </g>
   <g id="LineCollection_11">
    <path clip-path="url(#pa756524601)" d="M 119.039862 307.584 
L 118.44888 299.560523 
L 117.98759 290.199799 
L 117.675337 279.501829 
L 117.46969 264.792121 
L 117.387916 240.721688 
L 117.441224 88.275618 
L 117.647957 70.891417 
L 117.98759 58.856201 
L 118.44888 49.495477 
L 119.039862 41.472 
L 119.039862 41.472 
" style="fill:none;stroke:#00aaaa;stroke-width:1.5;"/>
    <path clip-path="url(#pa756524601)" d="M 281.856138 41.472 
L 282.44712 49.495477 
L 282.90841 58.856201 
L 283.220663 69.554171 
L 283.42631 84.263879 
L 283.508084 108.334312 
L 283.454776 260.780382 
L 283.248043 278.164583 
L 282.90841 290.199799 
L 282.44712 299.560523 
L 281.856138 307.584 
L 281.856138 307.584 
" style="fill:none;stroke:#00aaaa;stroke-width:1.5;"/>
   </g>
   <g id="LineCollection_12">
    <path clip-path="url(#pa756524601)" d="M 114.685792 307.584 
L 114.069974 299.560523 
L 113.581902 290.199799 
L 113.214976 278.164583 
L 112.989052 262.117628 
L 112.903405 236.70995 
L 112.946234 93.624603 
L 113.160845 73.56591 
L 113.529172 60.193447 
L 113.986697 50.832724 
L 114.568035 42.809246 
L 114.685792 41.472 
L 114.685792 41.472 
" style="fill:none;stroke:#00a2ae;stroke-width:1.5;"/>
    <path clip-path="url(#pa756524601)" d="M 286.210208 41.472 
L 286.826026 49.495477 
L 287.314098 58.856201 
L 287.681024 70.891417 
L 287.906948 86.938372 
L 287.992595 112.34605 
L 287.949766 255.431397 
L 287.735155 275.49009 
L 287.366828 288.862553 
L 286.909303 298.223276 
L 286.327965 306.246754 
L 286.210208 307.584 
L 286.210208 307.584 
" style="fill:none;stroke:#00a2ae;stroke-width:1.5;"/>
   </g>
   <g id="LineCollection_13">
    <path clip-path="url(#pa756524601)" d="M 110.559382 307.584 
L 109.918818 299.560523 
L 109.40358 290.199799 
L 109.03859 279.501829 
L 108.778747 264.792121 
L 108.652096 243.396181 
L 108.647682 189.906332 
L 108.778747 84.263879 
L 109.074129 68.216925 
L 109.464533 57.518955 
L 110.011273 48.158231 
L 110.559382 41.472 
L 110.559382 41.472 
" style="fill:none;stroke:#0099b2;stroke-width:1.5;"/>
    <path clip-path="url(#pa756524601)" d="M 290.336618 41.472 
L 290.977182 49.495477 
L 291.49242 58.856201 
L 291.85741 69.554171 
L 292.117253 84.263879 
L 292.243904 105.659819 
L 292.248318 159.149668 
L 292.117253 264.792121 
L 291.821871 280.839075 
L 291.431467 291.537045 
L 290.884727 300.897769 
L 290.336618 307.584 
L 290.336618 307.584 
" style="fill:none;stroke:#0099b2;stroke-width:1.5;"/>
   </g>
   <g id="LineCollection_14">
    <path clip-path="url(#pa756524601)" d="M 106.633893 307.584 
L 105.965017 299.560523 
L 105.422777 290.199799 
L 105.026885 279.501829 
L 104.756068 266.129367 
L 104.595946 246.070673 
L 104.560563 205.953286 
L 104.692492 88.275618 
L 104.976724 71.416328 
L 105.361903 60.193447 
L 105.873706 50.832724 
L 106.505688 42.809246 
L 106.633893 41.472 
L 106.633893 41.472 
" style="fill:none;stroke:#0091b6;stroke-width:1.5;"/>
    <path clip-path="url(#pa756524601)" d="M 294.262107 41.472 
L 294.930983 49.495477 
L 295.473223 58.856201 
L 295.869115 69.554171 
L 296.139932 82.926633 
L 296.300054 102.985327 
L 296.335437 143.102714 
L 296.203508 260.780382 
L 295.919276 277.639672 
L 295.534097 288.862553 
L 295.022294 298.223276 
L 294.390312 306.246754 
L 294.262107 307.584 
L 294.262107 307.584 
" style="fill:none;stroke:#0091b6;stroke-width:1.5;"/>
   </g>
   <g id="LineCollection_15">
    <path clip-path="url(#pa756524601)" d="M 102.885492 307.584 
L 102.184564 299.560523 
L 101.614162 290.199799 
L 101.191344 279.501829 
L 100.890387 266.129367 
L 100.708455 247.40792 
L 100.646399 213.976764 
L 100.741867 96.299095 
L 100.987351 77.577648 
L 101.377428 64.205186 
L 101.912222 53.507216 
L 102.507938 45.483739 
L 102.885492 41.472 
L 102.885492 41.472 
" style="fill:none;stroke:#0088bb;stroke-width:1.5;"/>
    <path clip-path="url(#pa756524601)" d="M 298.010508 41.472 
L 298.711436 49.495477 
L 299.281838 58.856201 
L 299.704656 69.554171 
L 300.005613 82.926633 
L 300.187545 101.64808 
L 300.249601 135.079236 
L 300.154133 252.756905 
L 299.908649 271.478352 
L 299.518572 284.850814 
L 298.983778 295.548784 
L 298.388062 303.572261 
L 298.010508 307.584 
L 298.010508 307.584 
" style="fill:none;stroke:#0088bb;stroke-width:1.5;"/>
   </g>
   <g id="LineCollection_16">
    <path clip-path="url(#pa756524601)" d="M 99.290297 307.584 
L 98.564413 299.560523 
L 97.95907 290.199799 
L 97.506818 279.501829 
L 97.178869 266.129367 
L 96.971345 247.40792 
L 96.888864 215.31401 
L 96.942719 106.997065 
L 97.156303 84.263879 
L 97.506818 69.554171 
L 97.95907 58.856201 
L 98.564413 49.495477 
L 99.290297 41.472 
L 99.290297 41.472 
" style="fill:none;stroke:#007fc0;stroke-width:1.5;"/>
    <path clip-path="url(#pa756524601)" d="M 301.605703 41.472 
L 302.331587 49.495477 
L 302.93693 58.856201 
L 303.389182 69.554171 
L 303.717131 82.926633 
L 303.924655 101.64808 
L 304.007136 133.74199 
L 303.953281 242.058935 
L 303.739697 264.792121 
L 303.389182 279.501829 
L 302.93693 290.199799 
L 302.331587 299.560523 
L 301.605703 307.584 
L 301.605703 307.584 
" style="fill:none;stroke:#007fc0;stroke-width:1.5;"/>
   </g>
   <g id="LineCollection_17">
    <path clip-path="url(#pa756524601)" d="M 95.84141 307.584 
L 95.080858 299.560523 
L 94.446483 290.199799 
L 93.962429 279.501829 
L 93.601904 266.129367 
L 93.37672 248.745166 
L 93.268409 220.662995 
L 93.265179 131.067497 
L 93.412153 96.299095 
L 93.688009 78.914894 
L 94.119175 65.542432 
L 94.689614 54.844462 
L 95.310197 46.820985 
L 95.84141 41.472 
L 95.84141 41.472 
" style="fill:none;stroke:#0077c3;stroke-width:1.5;"/>
    <path clip-path="url(#pa756524601)" d="M 305.05459 41.472 
L 305.815142 49.495477 
L 306.449517 58.856201 
L 306.933571 69.554171 
L 307.294096 82.926633 
L 307.51928 100.310834 
L 307.627591 128.393005 
L 307.630821 217.988503 
L 307.483847 252.756905 
L 307.207991 270.141106 
L 306.776825 283.513568 
L 306.206386 294.211538 
L 305.585803 302.235015 
L 305.05459 307.584 
L 305.05459 307.584 
" style="fill:none;stroke:#0077c3;stroke-width:1.5;"/>
   </g>
   <g id="LineCollection_18">
    <path clip-path="url(#pa756524601)" d="M 92.518629 307.584 
L 91.727701 299.560523 
L 91.059284 290.199799 
L 90.541606 279.501829 
L 90.153207 266.129367 
L 89.900537 248.745166 
L 89.771014 222.000241 
L 89.747067 152.463437 
L 89.867222 104.322573 
L 90.125563 84.263879 
L 90.491982 70.891417 
L 90.981734 60.193447 
L 91.617439 50.832724 
L 92.370039 42.809246 
L 92.518629 41.472 
L 92.518629 41.472 
" style="fill:none;stroke:#006ec8;stroke-width:1.5;"/>
    <path clip-path="url(#pa756524601)" d="M 308.377371 41.472 
L 309.168299 49.495477 
L 309.836716 58.856201 
L 310.354394 69.554171 
L 310.742793 82.926633 
L 310.995463 100.310834 
L 311.124986 127.055759 
L 311.148933 196.592563 
L 311.028778 244.733427 
L 310.770437 264.792121 
L 310.404018 278.164583 
L 309.914266 288.862553 
L 309.278561 298.223276 
L 308.525961 306.246754 
L 308.377371 307.584 
L 308.377371 307.584 
" style="fill:none;stroke:#006ec8;stroke-width:1.5;"/>
   </g>
   <g id="LineCollection_19">
    <path clip-path="url(#pa756524601)" d="M 89.311995 307.584 
L 88.49127 299.560523 
L 87.786284 290.199799 
L 87.239609 279.501829 
L 86.849506 267.466613 
L 86.564404 251.419658 
L 86.401083 228.686472 
L 86.34287 181.882854 
L 86.43869 112.34605 
L 86.68129 89.612864 
L 87.042018 74.903156 
L 87.554131 62.86794 
L 88.159739 53.507216 
L 88.8728 45.483739 
L 89.311995 41.472 
L 89.311995 41.472 
" style="fill:none;stroke:#0066cc;stroke-width:1.5;"/>
    <path clip-path="url(#pa756524601)" d="M 311.584005 41.472 
L 312.40473 49.495477 
L 313.109716 58.856201 
L 313.656391 69.554171 
L 314.046494 81.589387 
L 314.331596 97.636342 
L 314.494917 120.369528 
L 314.55313 167.173146 
L 314.45731 236.70995 
L 314.21471 259.443136 
L 313.853982 274.152844 
L 313.341869 286.18806 
L 312.736261 295.548784 
L 312.0232 303.572261 
L 311.584005 307.584 
L 311.584005 307.584 
" style="fill:none;stroke:#0066cc;stroke-width:1.5;"/>
   </g>
   <g id="LineCollection_20">
    <path clip-path="url(#pa756524601)" d="M 86.214877 307.584 
L 85.361275 299.560523 
L 84.623387 290.199799 
L 84.0419 279.501829 
L 83.620042 267.466613 
L 83.306328 251.419658 
L 83.120034 228.686472 
L 83.047456 187.231839 
L 83.132808 117.695035 
L 83.365016 93.624603 
L 83.73863 77.577648 
L 84.233111 65.542432 
L 84.907876 54.844462 
L 85.621037 46.820985 
L 86.214877 41.472 
L 86.214877 41.472 
" style="fill:none;stroke:#005dd0;stroke-width:1.5;"/>
    <path clip-path="url(#pa756524601)" d="M 314.681123 41.472 
L 315.534725 49.495477 
L 316.272613 58.856201 
L 316.8541 69.554171 
L 317.275958 81.589387 
L 317.589672 97.636342 
L 317.775966 120.369528 
L 317.848544 161.824161 
L 317.763192 231.360965 
L 317.530984 255.431397 
L 317.15737 271.478352 
L 316.662889 283.513568 
L 315.988124 294.211538 
L 315.274963 302.235015 
L 314.681123 307.584 
L 314.681123 307.584 
" style="fill:none;stroke:#005dd0;stroke-width:1.5;"/>
   </g>
   <g id="LineCollection_21">
    <path clip-path="url(#pa756524601)" d="M 83.218722 307.584 
L 82.330556 299.560523 
L 81.653887 291.537045 
L 81.074114 282.176322 
L 80.570533 270.134382 
L 80.211403 255.431397 
L 79.974786 235.372704 
L 79.857596 203.278794 
L 79.874876 136.416482 
L 80.059548 104.322573 
L 80.380554 85.601126 
L 80.821753 72.228663 
L 81.381499 61.530693 
L 82.082435 52.16997 
L 82.897069 44.146492 
L 83.218722 41.472 
L 83.218722 41.472 
" style="fill:none;stroke:#0055d4;stroke-width:1.5;"/>
    <path clip-path="url(#pa756524601)" d="M 317.677278 41.472 
L 318.565444 49.495477 
L 319.242113 57.518955 
L 319.821886 66.879678 
L 320.325467 78.921618 
L 320.684597 93.624603 
L 320.921214 113.683296 
L 321.038404 145.777206 
L 321.021124 212.639518 
L 320.836452 244.733427 
L 320.515446 263.454874 
L 320.074247 276.827337 
L 319.514501 287.525307 
L 318.813565 296.88603 
L 317.998931 304.909508 
L 317.677278 307.584 
L 317.677278 307.584 
" style="fill:none;stroke:#0055d4;stroke-width:1.5;"/>
   </g>
   <g id="LineCollection_22">
    <path clip-path="url(#pa756524601)" d="M 80.314959 307.584 
L 79.392593 299.560523 
L 78.685649 291.537045 
L 78.073424 282.176322 
L 77.585492 271.478352 
L 77.201659 258.105889 
L 76.931637 240.721688 
L 76.768434 213.976764 
L 76.725176 161.824161 
L 76.86066 116.357789 
L 77.121016 94.961849 
L 77.492011 80.252141 
L 78.001278 68.216925 
L 78.685649 57.518955 
L 79.392593 49.495477 
L 80.314959 41.472 
L 80.314959 41.472 
" style="fill:none;stroke:#004cd9;stroke-width:1.5;"/>
    <path clip-path="url(#pa756524601)" d="M 320.581041 41.472 
L 321.503407 49.495477 
L 322.210351 57.518955 
L 322.822576 66.879678 
L 323.310508 77.577648 
L 323.694341 90.950111 
L 323.964363 108.334312 
L 324.127566 135.079236 
L 324.170824 187.231839 
L 324.03534 232.698211 
L 323.774984 254.094151 
L 323.403989 268.803859 
L 322.894722 280.839075 
L 322.210351 291.537045 
L 321.503407 299.560523 
L 320.581041 307.584 
L 320.581041 307.584 
" style="fill:none;stroke:#004cd9;stroke-width:1.5;"/>
   </g>
   <g id="LineCollection_23">
    <path clip-path="url(#pa756524601)" d="M 77.497539 307.584 
L 76.541421 299.560523 
L 75.803095 291.537045 
L 75.158322 282.176322 
L 74.639764 271.478352 
L 74.225059 258.105889 
L 73.92691 240.721688 
L 73.744886 215.31401 
L 73.68345 169.847638 
L 73.806683 121.706774 
L 74.06153 98.973588 
L 74.448505 82.926633 
L 74.939355 70.891417 
L 75.597767 60.193447 
L 76.40369 50.832724 
L 77.321767 42.809246 
L 77.497539 41.472 
L 77.497539 41.472 
" style="fill:none;stroke:#0044dd;stroke-width:1.5;"/>
    <path clip-path="url(#pa756524601)" d="M 323.398461 41.472 
L 324.354579 49.495477 
L 325.092905 57.518955 
L 325.737678 66.879678 
L 326.256236 77.577648 
L 326.670941 90.950111 
L 326.96909 108.334312 
L 327.151114 133.74199 
L 327.21255 179.208362 
L 327.089317 227.349226 
L 326.83447 250.082412 
L 326.447495 266.129367 
L 325.956645 278.164583 
L 325.298233 288.862553 
L 324.49231 298.223276 
L 323.574233 306.246754 
L 323.398461 307.584 
L 323.398461 307.584 
" style="fill:none;stroke:#0044dd;stroke-width:1.5;"/>
   </g>
   <g id="LineCollection_24">
    <path clip-path="url(#pa756524601)" d="M 74.760894 307.584 
L 73.771558 299.560523 
L 73.000923 291.537045 
L 72.323589 282.176322 
L 71.773016 271.478352 
L 71.32684 258.105889 
L 70.999646 240.721688 
L 70.799608 216.651256 
L 70.719922 176.533869 
L 70.820486 128.393005 
L 71.077868 102.985327 
L 71.438549 86.938372 
L 71.956583 73.521167 
L 72.588662 62.86794 
L 73.392241 53.173357 
L 74.237089 45.483739 
L 74.760894 41.472 
L 74.760894 41.472 
" style="fill:none;stroke:#003be2;stroke-width:1.5;"/>
    <path clip-path="url(#pa756524601)" d="M 326.135106 41.472 
L 327.124442 49.495477 
L 327.895077 57.518955 
L 328.572411 66.879678 
L 329.122984 77.577648 
L 329.56916 90.950111 
L 329.896354 108.334312 
L 330.096392 132.404744 
L 330.176078 172.522131 
L 330.075514 220.662995 
L 329.818132 246.070673 
L 329.457451 262.117628 
L 328.939417 275.534833 
L 328.307338 286.18806 
L 327.503759 295.882643 
L 326.658911 303.572261 
L 326.135106 307.584 
L 326.135106 307.584 
" style="fill:none;stroke:#003be2;stroke-width:1.5;"/>
   </g>
   <g id="LineCollection_25">
    <path clip-path="url(#pa756524601)" d="M 72.102038 307.584 
L 71.23231 300.897769 
L 70.393782 292.874291 
L 69.65328 283.513568 
L 69.041906 272.815598 
L 68.580774 260.780382 
L 68.208272 244.733427 
L 67.963061 223.337487 
L 67.837914 189.906332 
L 67.884066 140.428221 
L 68.108513 111.008804 
L 68.466039 92.287357 
L 68.922068 78.914894 
L 69.47936 68.216925 
L 70.159549 58.856201 
L 70.929535 50.832724 
L 71.956583 42.498257 
L 72.102038 41.472 
L 72.102038 41.472 
" style="fill:none;stroke:#0033e6;stroke-width:1.5;"/>
    <path clip-path="url(#pa756524601)" d="M 328.793962 41.472 
L 329.66369 48.158231 
L 330.502218 56.181709 
L 331.24272 65.542432 
L 331.854094 76.240402 
L 332.315226 88.275618 
L 332.687728 104.322573 
L 332.932939 125.718513 
L 333.058086 159.149668 
L 333.011934 208.627779 
L 332.787487 238.047196 
L 332.429961 256.768643 
L 331.973932 270.141106 
L 331.41664 280.839075 
L 330.736451 290.199799 
L 329.966465 298.223276 
L 328.939417 306.557743 
L 328.793962 307.584 
L 328.793962 307.584 
" style="fill:none;stroke:#0033e6;stroke-width:1.5;"/>
   </g>
   <g id="LineCollection_26">
    <path clip-path="url(#pa756524601)" d="M 69.516078 307.584 
L 68.45588 299.560523 
L 67.61852 291.537045 
L 66.876378 282.176322 
L 66.258855 271.478352 
L 65.788761 259.443136 
L 65.404704 243.396181 
L 65.147045 222.000241 
L 65.014762 189.906332 
L 65.052056 144.43996 
L 65.265765 115.020543 
L 65.601454 96.299095 
L 66.07989 81.589387 
L 66.70135 69.554171 
L 67.384236 60.193447 
L 68.154455 52.16997 
L 69.132769 44.146492 
L 69.516078 41.472 
L 69.516078 41.472 
" style="fill:none;stroke:#002aea;stroke-width:1.5;"/>
    <path clip-path="url(#pa756524601)" d="M 331.379922 41.472 
L 332.44012 49.495477 
L 333.27748 57.518955 
L 334.019622 66.879678 
L 334.637145 77.577648 
L 335.107239 89.612864 
L 335.491296 105.659819 
L 335.748955 127.055759 
L 335.881238 159.149668 
L 335.843944 204.61604 
L 335.630235 234.035457 
L 335.294546 252.756905 
L 334.81611 267.466613 
L 334.19465 279.501829 
L 333.511764 288.862553 
L 332.741545 296.88603 
L 331.763231 304.909508 
L 331.379922 307.584 
L 331.379922 307.584 
" style="fill:none;stroke:#002aea;stroke-width:1.5;"/>
   </g>
   <g id="LineCollection_27">
    <path clip-path="url(#pa756524601)" d="M 66.997451 307.584 
L 65.900984 299.560523 
L 65.033105 291.537045 
L 64.255334 282.176322 
L 63.605462 271.478352 
L 63.102654 259.443136 
L 62.71463 244.733427 
L 62.428938 224.674734 
L 62.270282 196.592563 
L 62.266725 153.800683 
L 62.455811 121.706774 
L 62.771106 101.64808 
L 63.196944 86.938372 
L 63.747808 74.903156 
L 64.454699 64.205186 
L 65.300514 54.844462 
L 66.23702 46.820985 
L 66.997451 41.472 
L 66.997451 41.472 
" style="fill:none;stroke:#0022ee;stroke-width:1.5;"/>
    <path clip-path="url(#pa756524601)" d="M 333.898549 41.472 
L 334.995016 49.495477 
L 335.862895 57.518955 
L 336.640666 66.879678 
L 337.290538 77.577648 
L 337.793346 89.612864 
L 338.18137 104.322573 
L 338.467062 124.381266 
L 338.625718 152.463437 
L 338.629275 195.255317 
L 338.440189 227.349226 
L 338.124894 247.40792 
L 337.699056 262.117628 
L 337.148192 274.152844 
L 336.441301 284.850814 
L 335.595486 294.211538 
L 334.65898 302.235015 
L 333.898549 307.584 
L 333.898549 307.584 
" style="fill:none;stroke:#0022ee;stroke-width:1.5;"/>
   </g>
   <g id="LineCollection_28">
    <path clip-path="url(#pa756524601)" d="M 64.541893 307.584 
L 63.410122 299.560523 
L 62.511794 291.537045 
L 61.697433 282.176322 
L 61.015276 271.478352 
L 60.471317 259.23198 
L 60.062104 244.733427 
L 59.764479 226.01198 
L 59.581691 199.267055 
L 59.552764 160.486915 
L 59.723202 127.055759 
L 60.033649 105.659819 
L 60.478821 89.612864 
L 61.015276 77.577648 
L 61.697433 66.879678 
L 62.511794 57.518955 
L 63.410122 49.495477 
L 64.541893 41.472 
L 64.541893 41.472 
" style="fill:none;stroke:#0019f2;stroke-width:1.5;"/>
    <path clip-path="url(#pa756524601)" d="M 336.354107 41.472 
L 337.485878 49.495477 
L 338.384206 57.518955 
L 339.198567 66.879678 
L 339.880724 77.577648 
L 340.424683 89.82402 
L 340.833896 104.322573 
L 341.131521 123.04402 
L 341.314309 149.788945 
L 341.343236 188.569085 
L 341.172798 222.000241 
L 340.862351 243.396181 
L 340.417179 259.443136 
L 339.880724 271.478352 
L 339.198567 282.176322 
L 338.384206 291.537045 
L 337.485878 299.560523 
L 336.354107 307.584 
L 336.354107 307.584 
" style="fill:none;stroke:#0019f2;stroke-width:1.5;"/>
   </g>
   <g id="LineCollection_29">
    <path clip-path="url(#pa756524601)" d="M 62.148993 307.584 
L 61.935339 306.246754 
L 61.906975 306.062388 
L 61.731425 304.909508 
L 61.534742 303.572261 
L 61.344705 302.235015 
L 61.161151 300.897769 
L 60.98392 299.560523 
L 60.812851 298.223276 
L 60.647782 296.88603 
L 60.488556 295.548784 
L 60.471317 295.398138 
L 60.336952 294.211538 
L 60.191024 292.874291 
L 60.050373 291.537045 
L 59.914852 290.199799 
L 59.784311 288.862553 
L 59.658607 287.525307 
L 59.537595 286.18806 
L 59.421134 284.850814 
L 59.309085 283.513568 
L 59.201311 282.176322 
L 59.097678 280.839075 
L 59.035658 280.005729 
L 58.998561 279.501829 
L 58.904102 278.164583 
L 58.813334 276.827337 
L 58.726136 275.49009 
L 58.642389 274.152844 
L 58.561978 272.815598 
L 58.484787 271.478352 
L 58.410707 270.141106 
L 58.339629 268.803859 
L 58.271449 267.466613 
L 58.206062 266.129367 
L 58.14337 264.792121 
L 58.083275 263.454874 
L 58.025681 262.117628 
L 57.970498 260.780382 
L 57.917636 259.443136 
L 57.867008 258.105889 
L 57.81853 256.768643 
L 57.772121 255.431397 
L 57.727701 254.094151 
L 57.685195 252.756905 
L 57.644527 251.419658 
L 57.605627 250.082412 
L 57.6 249.879937 
" style="fill:none;stroke:#0011f6;stroke-width:1.5;"/>
    <path clip-path="url(#pa756524601)" d="M 343.296 249.879937 
L 343.290373 250.082412 
L 343.251473 251.419658 
L 343.210805 252.756905 
L 343.168299 254.094151 
L 343.123879 255.431397 
L 343.07747 256.768643 
L 343.028992 258.105889 
L 342.978364 259.443136 
L 342.925502 260.780382 
L 342.870319 262.117628 
L 342.812725 263.454874 
L 342.75263 264.792121 
L 342.689938 266.129367 
L 342.624551 267.466613 
L 342.556371 268.803859 
L 342.485293 270.141106 
L 342.411213 271.478352 
L 342.334022 272.815598 
L 342.253611 274.152844 
L 342.169864 275.49009 
L 342.082666 276.827337 
L 341.991898 278.164583 
L 341.897439 279.501829 
L 341.860342 280.005729 
L 341.798322 280.839075 
L 341.694689 282.176322 
L 341.586915 283.513568 
L 341.474866 284.850814 
L 341.358405 286.18806 
L 341.237393 287.525307 
L 341.111689 288.862553 
L 340.981148 290.199799 
L 340.845627 291.537045 
L 340.704976 292.874291 
L 340.559048 294.211538 
L 340.424683 295.398138 
L 340.407444 295.548784 
L 340.248218 296.88603 
L 340.083149 298.223276 
L 339.91208 299.560523 
L 339.734849 300.897769 
L 339.551295 302.235015 
L 339.361258 303.572261 
L 339.164575 304.909508 
L 338.989025 306.062388 
L 338.960661 306.246754 
L 338.747007 307.584 
" style="fill:none;stroke:#0011f6;stroke-width:1.5;"/>
    <path clip-path="url(#pa756524601)" d="M 57.6 99.176063 
L 57.605627 98.973588 
L 57.644527 97.636342 
L 57.685195 96.299095 
L 57.727701 94.961849 
L 57.772121 93.624603 
L 57.81853 92.287357 
L 57.867008 90.950111 
L 57.917636 89.612864 
L 57.970498 88.275618 
L 58.025681 86.938372 
L 58.083275 85.601126 
L 58.14337 84.263879 
L 58.206062 82.926633 
L 58.271449 81.589387 
L 58.339629 80.252141 
L 58.410707 78.914894 
L 58.484787 77.577648 
L 58.561978 76.240402 
L 58.642389 74.903156 
L 58.726136 73.56591 
L 58.813334 72.228663 
L 58.904102 70.891417 
L 58.998561 69.554171 
L 59.035658 69.050271 
L 59.097678 68.216925 
L 59.201311 66.879678 
L 59.309085 65.542432 
L 59.421134 64.205186 
L 59.537595 62.86794 
L 59.658607 61.530693 
L 59.784311 60.193447 
L 59.914852 58.856201 
L 60.050373 57.518955 
L 60.191024 56.181709 
L 60.336952 54.844462 
L 60.471317 53.657862 
L 60.488556 53.507216 
L 60.647782 52.16997 
L 60.812851 50.832724 
L 60.98392 49.495477 
L 61.161151 48.158231 
L 61.344705 46.820985 
L 61.534742 45.483739 
L 61.731425 44.146492 
L 61.906975 42.993612 
L 61.935339 42.809246 
L 62.148993 41.472 
" style="fill:none;stroke:#0011f6;stroke-width:1.5;"/>
    <path clip-path="url(#pa756524601)" d="M 338.747007 41.472 
L 338.960661 42.809246 
L 338.989025 42.993612 
L 339.164575 44.146492 
L 339.361258 45.483739 
L 339.551295 46.820985 
L 339.734849 48.158231 
L 339.91208 49.495477 
L 340.083149 50.832724 
L 340.248218 52.16997 
L 340.407444 53.507216 
L 340.424683 53.657862 
L 340.559048 54.844462 
L 340.704976 56.181709 
L 340.845627 57.518955 
L 340.981148 58.856201 
L 341.111689 60.193447 
L 341.237393 61.530693 
L 341.358405 62.86794 
L 341.474866 64.205186 
L 341.586915 65.542432 
L 341.694689 66.879678 
L 341.798322 68.216925 
L 341.860342 69.050271 
L 341.897439 69.554171 
L 341.991898 70.891417 
L 342.082666 72.228663 
L 342.169864 73.56591 
L 342.253611 74.903156 
L 342.334022 76.240402 
L 342.411213 77.577648 
L 342.485293 78.914894 
L 342.556371 80.252141 
L 342.624551 81.589387 
L 342.689938 82.926633 
L 342.75263 84.263879 
L 342.812725 85.601126 
L 342.870319 86.938372 
L 342.925502 88.275618 
L 342.978364 89.612864 
L 343.028992 90.950111 
L 343.07747 92.287357 
L 343.123879 93.624603 
L 343.168299 94.961849 
L 343.210805 96.299095 
L 343.251473 97.636342 
L 343.290373 98.973588 
L 343.296 99.176063 
" style="fill:none;stroke:#0011f6;stroke-width:1.5;"/>
   </g>
   <g id="LineCollection_30">
    <path clip-path="url(#pa756524601)" d="M 59.815776 307.584 
L 59.597303 306.246754 
L 59.385905 304.909508 
L 59.181422 303.572261 
L 59.035658 302.585283 
L 58.984457 302.235015 
L 58.796112 300.897769 
L 58.614082 299.560523 
L 58.438213 298.223276 
L 58.268351 296.88603 
L 58.104343 295.548784 
L 57.946037 294.211538 
L 57.793281 292.874291 
L 57.645926 291.537045 
L 57.6 291.103813 
" style="fill:none;stroke:#0008fb;stroke-width:1.5;"/>
    <path clip-path="url(#pa756524601)" d="M 343.296 291.103813 
L 343.250074 291.537045 
L 343.102719 292.874291 
L 342.949963 294.211538 
L 342.791657 295.548784 
L 342.627649 296.88603 
L 342.457787 298.223276 
L 342.281918 299.560523 
L 342.099888 300.897769 
L 341.911543 302.235015 
L 341.860342 302.585283 
L 341.714578 303.572261 
L 341.510095 304.909508 
L 341.298697 306.246754 
L 341.080224 307.584 
" style="fill:none;stroke:#0008fb;stroke-width:1.5;"/>
    <path clip-path="url(#pa756524601)" d="M 57.6 57.952187 
L 57.645926 57.518955 
L 57.793281 56.181709 
L 57.946037 54.844462 
L 58.104343 53.507216 
L 58.268351 52.16997 
L 58.438213 50.832724 
L 58.614082 49.495477 
L 58.796112 48.158231 
L 58.984457 46.820985 
L 59.035658 46.470717 
L 59.181422 45.483739 
L 59.385905 44.146492 
L 59.597303 42.809246 
L 59.815776 41.472 
" style="fill:none;stroke:#0008fb;stroke-width:1.5;"/>
    <path clip-path="url(#pa756524601)" d="M 341.080224 41.472 
L 341.298697 42.809246 
L 341.510095 44.146492 
L 341.714578 45.483739 
L 341.860342 46.470717 
L 341.911543 46.820985 
L 342.099888 48.158231 
L 342.281918 49.495477 
L 342.457787 50.832724 
L 342.627649 52.16997 
L 342.791657 53.507216 
L 342.949963 54.844462 
L 343.102719 56.181709 
L 343.250074 57.518955 
L 343.296 57.952187 
" style="fill:none;stroke:#0008fb;stroke-width:1.5;"/>
   </g>
   <g id="LineCollection_31"/>
   <g id="patch_3">
    <path d="M 57.6 307.584 
L 57.6 41.472 
" style="fill:none;stroke:#000000;stroke-linecap:square;stroke-linejoin:miter;stroke-width:0.8;"/>
   </g>
   <g id="patch_4">
    <path d="M 343.296 307.584 
L 343.296 41.472 
" style="fill:none;stroke:#000000;stroke-linecap:square;stroke-linejoin:miter;stroke-width:0.8;"/>
   </g>
   <g id="patch_5">
    <path d="M 57.6 307.584 
L 343.296 307.584 
" style="fill:none;stroke:#000000;stroke-linecap:square;stroke-linejoin:miter;stroke-width:0.8;"/>
   </g>
   <g id="patch_6">
    <path d="M 57.6 41.472 
L 343.296 41.472 
" style="fill:none;stroke:#000000;stroke-linecap:square;stroke-linejoin:miter;stroke-width:0.8;"/>
   </g>
  </g>
  <g id="axes_2">
   <g id="patch_7">
    <path clip-path="url(#p815d2d13de)" d="M 361.152 307.584 
L 361.152 298.7136 
L 361.152 50.3424 
L 361.152 41.472 
L 374.4576 41.472 
L 374.4576 50.3424 
L 374.4576 298.7136 
L 374.4576 307.584 
z
" style="fill:#ffffff;stroke:#ffffff;stroke-linejoin:miter;stroke-width:0.01;"/>
   </g>
   <g id="matplotlib.axis_3"/>
   <g id="matplotlib.axis_4">
    <g id="ytick_10">
     <g id="line2d_19">
      <defs>
       <path d="M 0 0 
L 3.5 0 
" id="mb91241afdb" style="stroke:#000000;stroke-width:0.8;"/>
      </defs>
      <g>
       <use style="stroke:#000000;stroke-width:0.8;" x="374.4576" xlink:href="#mb91241afdb" y="298.7136"/>
      </g>
     </g>
     <g id="text_19">
      <!-- 0.0 -->
      <defs>
       <path d="M 10.6875 12.40625 
L 21 12.40625 
L 21 0 
L 10.6875 0 
z
" id="DejaVuSans-46"/>
      </defs>
      <g transform="translate(381.4576 302.512819)scale(0.1 -0.1)">
       <use xlink:href="#DejaVuSans-48"/>
       <use x="63.623047" xlink:href="#DejaVuSans-46"/>
       <use x="95.410156" xlink:href="#DejaVuSans-48"/>
      </g>
     </g>
    </g>
    <g id="ytick_11">
     <g id="line2d_20">
      <g>
       <use style="stroke:#000000;stroke-width:0.8;" x="374.4576" xlink:href="#mb91241afdb" y="263.232"/>
      </g>
     </g>
     <g id="text_20">
      <!-- 0.6 -->
      <defs>
       <path d="M 33.015625 40.375 
Q 26.375 40.375 22.484375 35.828125 
Q 18.609375 31.296875 18.609375 23.390625 
Q 18.609375 15.53125 22.484375 10.953125 
Q 26.375 6.390625 33.015625 6.390625 
Q 39.65625 6.390625 43.53125 10.953125 
Q 47.40625 15.53125 47.40625 23.390625 
Q 47.40625 31.296875 43.53125 35.828125 
Q 39.65625 40.375 33.015625 40.375 
z
M 52.59375 71.296875 
L 52.59375 62.3125 
Q 48.875 64.0625 45.09375 64.984375 
Q 41.3125 65.921875 37.59375 65.921875 
Q 27.828125 65.921875 22.671875 59.328125 
Q 17.53125 52.734375 16.796875 39.40625 
Q 19.671875 43.65625 24.015625 45.921875 
Q 28.375 48.1875 33.59375 48.1875 
Q 44.578125 48.1875 50.953125 41.515625 
Q 57.328125 34.859375 57.328125 23.390625 
Q 57.328125 12.15625 50.6875 5.359375 
Q 44.046875 -1.421875 33.015625 -1.421875 
Q 20.359375 -1.421875 13.671875 8.265625 
Q 6.984375 17.96875 6.984375 36.375 
Q 6.984375 53.65625 15.1875 63.9375 
Q 23.390625 74.21875 37.203125 74.21875 
Q 40.921875 74.21875 44.703125 73.484375 
Q 48.484375 72.75 52.59375 71.296875 
z
" id="DejaVuSans-54"/>
      </defs>
      <g transform="translate(381.4576 267.031219)scale(0.1 -0.1)">
       <use xlink:href="#DejaVuSans-48"/>
       <use x="63.623047" xlink:href="#DejaVuSans-46"/>
       <use x="95.410156" xlink:href="#DejaVuSans-54"/>
      </g>
     </g>
    </g>
    <g id="ytick_12">
     <g id="line2d_21">
      <g>
       <use style="stroke:#000000;stroke-width:0.8;" x="374.4576" xlink:href="#mb91241afdb" y="227.7504"/>
      </g>
     </g>
     <g id="text_21">
      <!-- 1.2 -->
      <g transform="translate(381.4576 231.549619)scale(0.1 -0.1)">
       <use xlink:href="#DejaVuSans-49"/>
       <use x="63.623047" xlink:href="#DejaVuSans-46"/>
       <use x="95.410156" xlink:href="#DejaVuSans-50"/>
      </g>
     </g>
    </g>
    <g id="ytick_13">
     <g id="line2d_22">
      <g>
       <use style="stroke:#000000;stroke-width:0.8;" x="374.4576" xlink:href="#mb91241afdb" y="192.2688"/>
      </g>
     </g>
     <g id="text_22">
      <!-- 1.8 -->
      <defs>
       <path d="M 31.78125 34.625 
Q 24.75 34.625 20.71875 30.859375 
Q 16.703125 27.09375 16.703125 20.515625 
Q 16.703125 13.921875 20.71875 10.15625 
Q 24.75 6.390625 31.78125 6.390625 
Q 38.8125 6.390625 42.859375 10.171875 
Q 46.921875 13.96875 46.921875 20.515625 
Q 46.921875 27.09375 42.890625 30.859375 
Q 38.875 34.625 31.78125 34.625 
z
M 21.921875 38.8125 
Q 15.578125 40.375 12.03125 44.71875 
Q 8.5 49.078125 8.5 55.328125 
Q 8.5 64.0625 14.71875 69.140625 
Q 20.953125 74.21875 31.78125 74.21875 
Q 42.671875 74.21875 48.875 69.140625 
Q 55.078125 64.0625 55.078125 55.328125 
Q 55.078125 49.078125 51.53125 44.71875 
Q 48 40.375 41.703125 38.8125 
Q 48.828125 37.15625 52.796875 32.3125 
Q 56.78125 27.484375 56.78125 20.515625 
Q 56.78125 9.90625 50.3125 4.234375 
Q 43.84375 -1.421875 31.78125 -1.421875 
Q 19.734375 -1.421875 13.25 4.234375 
Q 6.78125 9.90625 6.78125 20.515625 
Q 6.78125 27.484375 10.78125 32.3125 
Q 14.796875 37.15625 21.921875 38.8125 
z
M 18.3125 54.390625 
Q 18.3125 48.734375 21.84375 45.5625 
Q 25.390625 42.390625 31.78125 42.390625 
Q 38.140625 42.390625 41.71875 45.5625 
Q 45.3125 48.734375 45.3125 54.390625 
Q 45.3125 60.0625 41.71875 63.234375 
Q 38.140625 66.40625 31.78125 66.40625 
Q 25.390625 66.40625 21.84375 63.234375 
Q 18.3125 60.0625 18.3125 54.390625 
z
" id="DejaVuSans-56"/>
      </defs>
      <g transform="translate(381.4576 196.068019)scale(0.1 -0.1)">
       <use xlink:href="#DejaVuSans-49"/>
       <use x="63.623047" xlink:href="#DejaVuSans-46"/>
       <use x="95.410156" xlink:href="#DejaVuSans-56"/>
      </g>
     </g>
    </g>
    <g id="ytick_14">
     <g id="line2d_23">
      <g>
       <use style="stroke:#000000;stroke-width:0.8;" x="374.4576" xlink:href="#mb91241afdb" y="156.7872"/>
      </g>
     </g>
     <g id="text_23">
      <!-- 2.4 -->
      <defs>
       <path d="M 37.796875 64.3125 
L 12.890625 25.390625 
L 37.796875 25.390625 
z
M 35.203125 72.90625 
L 47.609375 72.90625 
L 47.609375 25.390625 
L 58.015625 25.390625 
L 58.015625 17.1875 
L 47.609375 17.1875 
L 47.609375 0 
L 37.796875 0 
L 37.796875 17.1875 
L 4.890625 17.1875 
L 4.890625 26.703125 
z
" id="DejaVuSans-52"/>
      </defs>
      <g transform="translate(381.4576 160.586419)scale(0.1 -0.1)">
       <use xlink:href="#DejaVuSans-50"/>
       <use x="63.623047" xlink:href="#DejaVuSans-46"/>
       <use x="95.410156" xlink:href="#DejaVuSans-52"/>
      </g>
     </g>
    </g>
    <g id="ytick_15">
     <g id="line2d_24">
      <g>
       <use style="stroke:#000000;stroke-width:0.8;" x="374.4576" xlink:href="#mb91241afdb" y="121.3056"/>
      </g>
     </g>
     <g id="text_24">
      <!-- 3.0 -->
      <defs>
       <path d="M 40.578125 39.3125 
Q 47.65625 37.796875 51.625 33 
Q 55.609375 28.21875 55.609375 21.1875 
Q 55.609375 10.40625 48.1875 4.484375 
Q 40.765625 -1.421875 27.09375 -1.421875 
Q 22.515625 -1.421875 17.65625 -0.515625 
Q 12.796875 0.390625 7.625 2.203125 
L 7.625 11.71875 
Q 11.71875 9.328125 16.59375 8.109375 
Q 21.484375 6.890625 26.8125 6.890625 
Q 36.078125 6.890625 40.9375 10.546875 
Q 45.796875 14.203125 45.796875 21.1875 
Q 45.796875 27.640625 41.28125 31.265625 
Q 36.765625 34.90625 28.71875 34.90625 
L 20.21875 34.90625 
L 20.21875 43.015625 
L 29.109375 43.015625 
Q 36.375 43.015625 40.234375 45.921875 
Q 44.09375 48.828125 44.09375 54.296875 
Q 44.09375 59.90625 40.109375 62.90625 
Q 36.140625 65.921875 28.71875 65.921875 
Q 24.65625 65.921875 20.015625 65.03125 
Q 15.375 64.15625 9.8125 62.3125 
L 9.8125 71.09375 
Q 15.4375 72.65625 20.34375 73.4375 
Q 25.25 74.21875 29.59375 74.21875 
Q 40.828125 74.21875 47.359375 69.109375 
Q 53.90625 64.015625 53.90625 55.328125 
Q 53.90625 49.265625 50.4375 45.09375 
Q 46.96875 40.921875 40.578125 39.3125 
z
" id="DejaVuSans-51"/>
      </defs>
      <g transform="translate(381.4576 125.104819)scale(0.1 -0.1)">
       <use xlink:href="#DejaVuSans-51"/>
       <use x="63.623047" xlink:href="#DejaVuSans-46"/>
       <use x="95.410156" xlink:href="#DejaVuSans-48"/>
      </g>
     </g>
    </g>
    <g id="ytick_16">
     <g id="line2d_25">
      <g>
       <use style="stroke:#000000;stroke-width:0.8;" x="374.4576" xlink:href="#mb91241afdb" y="85.824"/>
      </g>
     </g>
     <g id="text_25">
      <!-- 3.6 -->
      <g transform="translate(381.4576 89.623219)scale(0.1 -0.1)">
       <use xlink:href="#DejaVuSans-51"/>
       <use x="63.623047" xlink:href="#DejaVuSans-46"/>
       <use x="95.410156" xlink:href="#DejaVuSans-54"/>
      </g>
     </g>
    </g>
    <g id="ytick_17">
     <g id="line2d_26">
      <g>
       <use style="stroke:#000000;stroke-width:0.8;" x="374.4576" xlink:href="#mb91241afdb" y="50.3424"/>
      </g>
     </g>
     <g id="text_26">
      <!-- 4.2 -->
      <g transform="translate(381.4576 54.141619)scale(0.1 -0.1)">
       <use xlink:href="#DejaVuSans-52"/>
       <use x="63.623047" xlink:href="#DejaVuSans-46"/>
       <use x="95.410156" xlink:href="#DejaVuSans-50"/>
      </g>
     </g>
    </g>
    <g id="text_27">
     <!-- 1e7 -->
     <defs>
      <path d="M 56.203125 29.59375 
L 56.203125 25.203125 
L 14.890625 25.203125 
Q 15.484375 15.921875 20.484375 11.0625 
Q 25.484375 6.203125 34.421875 6.203125 
Q 39.59375 6.203125 44.453125 7.46875 
Q 49.3125 8.734375 54.109375 11.28125 
L 54.109375 2.78125 
Q 49.265625 0.734375 44.1875 -0.34375 
Q 39.109375 -1.421875 33.890625 -1.421875 
Q 20.796875 -1.421875 13.15625 6.1875 
Q 5.515625 13.8125 5.515625 26.8125 
Q 5.515625 40.234375 12.765625 48.109375 
Q 20.015625 56 32.328125 56 
Q 43.359375 56 49.78125 48.890625 
Q 56.203125 41.796875 56.203125 29.59375 
z
M 47.21875 32.234375 
Q 47.125 39.59375 43.09375 43.984375 
Q 39.0625 48.390625 32.421875 48.390625 
Q 24.90625 48.390625 20.390625 44.140625 
Q 15.875 39.890625 15.1875 32.171875 
z
" id="DejaVuSans-101"/>
      <path d="M 8.203125 72.90625 
L 55.078125 72.90625 
L 55.078125 68.703125 
L 28.609375 0 
L 18.3125 0 
L 43.21875 64.59375 
L 8.203125 64.59375 
z
" id="DejaVuSans-55"/>
     </defs>
     <g transform="translate(355.579475 38.472)scale(0.1 -0.1)">
      <use xlink:href="#DejaVuSans-49"/>
      <use x="63.623047" xlink:href="#DejaVuSans-101"/>
      <use x="125.146484" xlink:href="#DejaVuSans-55"/>
     </g>
    </g>
   </g>
   <g id="LineCollection_32">
    <path clip-path="url(#p815d2d13de)" d="M 361.152 307.584 
L 374.4576 307.584 
" style="fill:none;stroke:#00ff80;stroke-width:1.5;"/>
    <path clip-path="url(#p815d2d13de)" d="M 361.152 298.7136 
L 374.4576 298.7136 
" style="fill:none;stroke:#00f784;stroke-width:1.5;"/>
    <path clip-path="url(#p815d2d13de)" d="M 361.152 289.8432 
L 374.4576 289.8432 
" style="fill:none;stroke:#00ee88;stroke-width:1.5;"/>
    <path clip-path="url(#p815d2d13de)" d="M 361.152 280.9728 
L 374.4576 280.9728 
" style="fill:none;stroke:#00e68c;stroke-width:1.5;"/>
    <path clip-path="url(#p815d2d13de)" d="M 361.152 272.1024 
L 374.4576 272.1024 
" style="fill:none;stroke:#00dd90;stroke-width:1.5;"/>
    <path clip-path="url(#p815d2d13de)" d="M 361.152 263.232 
L 374.4576 263.232 
" style="fill:none;stroke:#00d594;stroke-width:1.5;"/>
    <path clip-path="url(#p815d2d13de)" d="M 361.152 254.3616 
L 374.4576 254.3616 
" style="fill:none;stroke:#00cc99;stroke-width:1.5;"/>
    <path clip-path="url(#p815d2d13de)" d="M 361.152 245.4912 
L 374.4576 245.4912 
" style="fill:none;stroke:#00c49d;stroke-width:1.5;"/>
    <path clip-path="url(#p815d2d13de)" d="M 361.152 236.6208 
L 374.4576 236.6208 
" style="fill:none;stroke:#00bba2;stroke-width:1.5;"/>
    <path clip-path="url(#p815d2d13de)" d="M 361.152 227.7504 
L 374.4576 227.7504 
" style="fill:none;stroke:#00b3a6;stroke-width:1.5;"/>
    <path clip-path="url(#p815d2d13de)" d="M 361.152 218.88 
L 374.4576 218.88 
" style="fill:none;stroke:#00aaaa;stroke-width:1.5;"/>
    <path clip-path="url(#p815d2d13de)" d="M 361.152 210.0096 
L 374.4576 210.0096 
" style="fill:none;stroke:#00a2ae;stroke-width:1.5;"/>
    <path clip-path="url(#p815d2d13de)" d="M 361.152 201.1392 
L 374.4576 201.1392 
" style="fill:none;stroke:#0099b2;stroke-width:1.5;"/>
    <path clip-path="url(#p815d2d13de)" d="M 361.152 192.2688 
L 374.4576 192.2688 
" style="fill:none;stroke:#0091b6;stroke-width:1.5;"/>
    <path clip-path="url(#p815d2d13de)" d="M 361.152 183.3984 
L 374.4576 183.3984 
" style="fill:none;stroke:#0088bb;stroke-width:1.5;"/>
    <path clip-path="url(#p815d2d13de)" d="M 361.152 174.528 
L 374.4576 174.528 
" style="fill:none;stroke:#007fc0;stroke-width:1.5;"/>
    <path clip-path="url(#p815d2d13de)" d="M 361.152 165.6576 
L 374.4576 165.6576 
" style="fill:none;stroke:#0077c3;stroke-width:1.5;"/>
    <path clip-path="url(#p815d2d13de)" d="M 361.152 156.7872 
L 374.4576 156.7872 
" style="fill:none;stroke:#006ec8;stroke-width:1.5;"/>
    <path clip-path="url(#p815d2d13de)" d="M 361.152 147.9168 
L 374.4576 147.9168 
" style="fill:none;stroke:#0066cc;stroke-width:1.5;"/>
    <path clip-path="url(#p815d2d13de)" d="M 361.152 139.0464 
L 374.4576 139.0464 
" style="fill:none;stroke:#005dd0;stroke-width:1.5;"/>
    <path clip-path="url(#p815d2d13de)" d="M 361.152 130.176 
L 374.4576 130.176 
" style="fill:none;stroke:#0055d4;stroke-width:1.5;"/>
    <path clip-path="url(#p815d2d13de)" d="M 361.152 121.3056 
L 374.4576 121.3056 
" style="fill:none;stroke:#004cd9;stroke-width:1.5;"/>
    <path clip-path="url(#p815d2d13de)" d="M 361.152 112.4352 
L 374.4576 112.4352 
" style="fill:none;stroke:#0044dd;stroke-width:1.5;"/>
    <path clip-path="url(#p815d2d13de)" d="M 361.152 103.5648 
L 374.4576 103.5648 
" style="fill:none;stroke:#003be2;stroke-width:1.5;"/>
    <path clip-path="url(#p815d2d13de)" d="M 361.152 94.6944 
L 374.4576 94.6944 
" style="fill:none;stroke:#0033e6;stroke-width:1.5;"/>
    <path clip-path="url(#p815d2d13de)" d="M 361.152 85.824 
L 374.4576 85.824 
" style="fill:none;stroke:#002aea;stroke-width:1.5;"/>
    <path clip-path="url(#p815d2d13de)" d="M 361.152 76.9536 
L 374.4576 76.9536 
" style="fill:none;stroke:#0022ee;stroke-width:1.5;"/>
    <path clip-path="url(#p815d2d13de)" d="M 361.152 68.0832 
L 374.4576 68.0832 
" style="fill:none;stroke:#0019f2;stroke-width:1.5;"/>
    <path clip-path="url(#p815d2d13de)" d="M 361.152 59.2128 
L 374.4576 59.2128 
" style="fill:none;stroke:#0011f6;stroke-width:1.5;"/>
    <path clip-path="url(#p815d2d13de)" d="M 361.152 50.3424 
L 374.4576 50.3424 
" style="fill:none;stroke:#0008fb;stroke-width:1.5;"/>
    <path clip-path="url(#p815d2d13de)" d="M 361.152 41.472 
L 374.4576 41.472 
" style="fill:none;stroke:#0000ff;stroke-width:1.5;"/>
   </g>
   <g id="patch_8">
    <path d="M 361.152 307.584 
L 361.152 298.7136 
L 361.152 50.3424 
L 361.152 41.472 
L 374.4576 41.472 
L 374.4576 50.3424 
L 374.4576 298.7136 
L 374.4576 307.584 
z
" style="fill:none;stroke:#000000;stroke-linejoin:miter;stroke-width:0.8;"/>
   </g>
  </g>
 </g>
 <defs>
  <clipPath id="pa756524601">
   <rect height="266.112" width="285.696" x="57.6" y="41.472"/>
  </clipPath>
  <clipPath id="p815d2d13de">
   <rect height="266.112" width="13.3056" x="361.152" y="41.472"/>
  </clipPath>
 </defs>
</svg>
