<?xml version="1.0" encoding="utf-8" standalone="no"?>
<!DOCTYPE svg PUBLIC "-//W3C//DTD SVG 1.1//EN"
  "http://www.w3.org/Graphics/SVG/1.1/DTD/svg11.dtd">
<!-- Created with matplotlib (https://matplotlib.org/) -->
<svg height="345.6pt" version="1.1" viewBox="0 0 460.8 345.6" width="460.8pt" xmlns="http://www.w3.org/2000/svg" xmlns:xlink="http://www.w3.org/1999/xlink">
 <defs>
  <style type="text/css">
*{stroke-linecap:butt;stroke-linejoin:round;}
  </style>
 </defs>
 <g id="figure_1">
  <g id="patch_1">
   <path d="M 0 345.6 
L 460.8 345.6 
L 460.8 0 
L 0 0 
z
" style="fill:#ffffff;"/>
  </g>
  <g id="axes_1">
   <g id="patch_2">
    <path d="M 57.6 307.584 
L 343.296 307.584 
L 343.296 41.472 
L 57.6 41.472 
z
" style="fill:#ffffff;"/>
   </g>
   <g id="matplotlib.axis_1">
    <g id="xtick_1">
     <g id="line2d_1">
      <defs>
       <path d="M 0 0 
L 0 3.5 
" id="m603a45ef4f" style="stroke:#000000;stroke-width:0.8;"/>
      </defs>
      <g>
       <use style="stroke:#000000;stroke-width:0.8;" x="86.1696" xlink:href="#m603a45ef4f" y="307.584"/>
      </g>
     </g>
     <g id="text_1">
      <!-- −40 -->
      <defs>
       <path d="M 10.59375 35.5 
L 73.1875 35.5 
L 73.1875 27.203125 
L 10.59375 27.203125 
z
" id="DejaVuSans-8722"/>
       <path d="M 37.796875 64.3125 
L 12.890625 25.390625 
L 37.796875 25.390625 
z
M 35.203125 72.90625 
L 47.609375 72.90625 
L 47.609375 25.390625 
L 58.015625 25.390625 
L 58.015625 17.1875 
L 47.609375 17.1875 
L 47.609375 0 
L 37.796875 0 
L 37.796875 17.1875 
L 4.890625 17.1875 
L 4.890625 26.703125 
z
" id="DejaVuSans-52"/>
       <path d="M 31.78125 66.40625 
Q 24.171875 66.40625 20.328125 58.90625 
Q 16.5 51.421875 16.5 36.375 
Q 16.5 21.390625 20.328125 13.890625 
Q 24.171875 6.390625 31.78125 6.390625 
Q 39.453125 6.390625 43.28125 13.890625 
Q 47.125 21.390625 47.125 36.375 
Q 47.125 51.421875 43.28125 58.90625 
Q 39.453125 66.40625 31.78125 66.40625 
z
M 31.78125 74.21875 
Q 44.046875 74.21875 50.515625 64.515625 
Q 56.984375 54.828125 56.984375 36.375 
Q 56.984375 17.96875 50.515625 8.265625 
Q 44.046875 -1.421875 31.78125 -1.421875 
Q 19.53125 -1.421875 13.0625 8.265625 
Q 6.59375 17.96875 6.59375 36.375 
Q 6.59375 54.828125 13.0625 64.515625 
Q 19.53125 74.21875 31.78125 74.21875 
z
" id="DejaVuSans-48"/>
      </defs>
      <g transform="translate(75.617256 322.182437)scale(0.1 -0.1)">
       <use xlink:href="#DejaVuSans-8722"/>
       <use x="83.789062" xlink:href="#DejaVuSans-52"/>
       <use x="147.412109" xlink:href="#DejaVuSans-48"/>
      </g>
     </g>
    </g>
    <g id="xtick_2">
     <g id="line2d_2">
      <g>
       <use style="stroke:#000000;stroke-width:0.8;" x="143.3088" xlink:href="#m603a45ef4f" y="307.584"/>
      </g>
     </g>
     <g id="text_2">
      <!-- −20 -->
      <defs>
       <path d="M 19.1875 8.296875 
L 53.609375 8.296875 
L 53.609375 0 
L 7.328125 0 
L 7.328125 8.296875 
Q 12.9375 14.109375 22.625 23.890625 
Q 32.328125 33.6875 34.8125 36.53125 
Q 39.546875 41.84375 41.421875 45.53125 
Q 43.3125 49.21875 43.3125 52.78125 
Q 43.3125 58.59375 39.234375 62.25 
Q 35.15625 65.921875 28.609375 65.921875 
Q 23.96875 65.921875 18.8125 64.3125 
Q 13.671875 62.703125 7.8125 59.421875 
L 7.8125 69.390625 
Q 13.765625 71.78125 18.9375 73 
Q 24.125 74.21875 28.421875 74.21875 
Q 39.75 74.21875 46.484375 68.546875 
Q 53.21875 62.890625 53.21875 53.421875 
Q 53.21875 48.921875 51.53125 44.890625 
Q 49.859375 40.875 45.40625 35.40625 
Q 44.1875 33.984375 37.640625 27.21875 
Q 31.109375 20.453125 19.1875 8.296875 
z
" id="DejaVuSans-50"/>
      </defs>
      <g transform="translate(132.756456 322.182437)scale(0.1 -0.1)">
       <use xlink:href="#DejaVuSans-8722"/>
       <use x="83.789062" xlink:href="#DejaVuSans-50"/>
       <use x="147.412109" xlink:href="#DejaVuSans-48"/>
      </g>
     </g>
    </g>
    <g id="xtick_3">
     <g id="line2d_3">
      <g>
       <use style="stroke:#000000;stroke-width:0.8;" x="200.448" xlink:href="#m603a45ef4f" y="307.584"/>
      </g>
     </g>
     <g id="text_3">
      <!-- 0 -->
      <g transform="translate(197.26675 322.182437)scale(0.1 -0.1)">
       <use xlink:href="#DejaVuSans-48"/>
      </g>
     </g>
    </g>
    <g id="xtick_4">
     <g id="line2d_4">
      <g>
       <use style="stroke:#000000;stroke-width:0.8;" x="257.5872" xlink:href="#m603a45ef4f" y="307.584"/>
      </g>
     </g>
     <g id="text_4">
      <!-- 20 -->
      <g transform="translate(251.2247 322.182437)scale(0.1 -0.1)">
       <use xlink:href="#DejaVuSans-50"/>
       <use x="63.623047" xlink:href="#DejaVuSans-48"/>
      </g>
     </g>
    </g>
    <g id="xtick_5">
     <g id="line2d_5">
      <g>
       <use style="stroke:#000000;stroke-width:0.8;" x="314.7264" xlink:href="#m603a45ef4f" y="307.584"/>
      </g>
     </g>
     <g id="text_5">
      <!-- 40 -->
      <g transform="translate(308.3639 322.182437)scale(0.1 -0.1)">
       <use xlink:href="#DejaVuSans-52"/>
       <use x="63.623047" xlink:href="#DejaVuSans-48"/>
      </g>
     </g>
    </g>
   </g>
   <g id="matplotlib.axis_2">
    <g id="ytick_1">
     <g id="line2d_6">
      <defs>
       <path d="M 0 0 
L -3.5 0 
" id="mdcd903b78a" style="stroke:#000000;stroke-width:0.8;"/>
      </defs>
      <g>
       <use style="stroke:#000000;stroke-width:0.8;" x="57.6" xlink:href="#mdcd903b78a" y="280.9728"/>
      </g>
     </g>
     <g id="text_6">
      <!-- −40 -->
      <g transform="translate(29.495313 284.772019)scale(0.1 -0.1)">
       <use xlink:href="#DejaVuSans-8722"/>
       <use x="83.789062" xlink:href="#DejaVuSans-52"/>
       <use x="147.412109" xlink:href="#DejaVuSans-48"/>
      </g>
     </g>
    </g>
    <g id="ytick_2">
     <g id="line2d_7">
      <g>
       <use style="stroke:#000000;stroke-width:0.8;" x="57.6" xlink:href="#mdcd903b78a" y="227.7504"/>
      </g>
     </g>
     <g id="text_7">
      <!-- −20 -->
      <g transform="translate(29.495313 231.549619)scale(0.1 -0.1)">
       <use xlink:href="#DejaVuSans-8722"/>
       <use x="83.789062" xlink:href="#DejaVuSans-50"/>
       <use x="147.412109" xlink:href="#DejaVuSans-48"/>
      </g>
     </g>
    </g>
    <g id="ytick_3">
     <g id="line2d_8">
      <g>
       <use style="stroke:#000000;stroke-width:0.8;" x="57.6" xlink:href="#mdcd903b78a" y="174.528"/>
      </g>
     </g>
     <g id="text_8">
      <!-- 0 -->
      <g transform="translate(44.2375 178.327219)scale(0.1 -0.1)">
       <use xlink:href="#DejaVuSans-48"/>
      </g>
     </g>
    </g>
    <g id="ytick_4">
     <g id="line2d_9">
      <g>
       <use style="stroke:#000000;stroke-width:0.8;" x="57.6" xlink:href="#mdcd903b78a" y="121.3056"/>
      </g>
     </g>
     <g id="text_9">
      <!-- 20 -->
      <g transform="translate(37.875 125.104819)scale(0.1 -0.1)">
       <use xlink:href="#DejaVuSans-50"/>
       <use x="63.623047" xlink:href="#DejaVuSans-48"/>
      </g>
     </g>
    </g>
    <g id="ytick_5">
     <g id="line2d_10">
      <g>
       <use style="stroke:#000000;stroke-width:0.8;" x="57.6" xlink:href="#mdcd903b78a" y="68.0832"/>
      </g>
     </g>
     <g id="text_10">
      <!-- 40 -->
      <g transform="translate(37.875 71.882419)scale(0.1 -0.1)">
       <use xlink:href="#DejaVuSans-52"/>
       <use x="63.623047" xlink:href="#DejaVuSans-48"/>
      </g>
     </g>
    </g>
   </g>
   <g id="LineCollection_1"/>
   <g id="LineCollection_2">
    <path clip-path="url(#p9f3bd34d32)" d="M 209.779779 166.11084 
L 209.484604 165.835899 
L 209.779779 165.726694 
L 209.897022 165.835899 
L 209.779779 166.11084 
" style="fill:none;stroke:#00f584;stroke-width:1.5;"/>
   </g>
   <g id="LineCollection_3">
    <path clip-path="url(#p9f3bd34d32)" d="M 209.779779 166.430962 
L 209.140924 165.835899 
L 209.779779 165.599542 
L 210.033531 165.835899 
L 209.779779 166.430962 
" style="fill:none;stroke:#00eb8a;stroke-width:1.5;"/>
   </g>
   <g id="LineCollection_4">
    <path clip-path="url(#p9f3bd34d32)" d="M 209.779779 166.751083 
L 208.797245 165.835899 
L 209.779779 165.472391 
L 210.17004 165.835899 
L 209.779779 166.751083 
" style="fill:none;stroke:#00e18e;stroke-width:1.5;"/>
   </g>
   <g id="LineCollection_5">
    <path clip-path="url(#p9f3bd34d32)" d="M 209.779779 167.071204 
L 208.453565 165.835899 
L 209.779779 165.345239 
L 210.306548 165.835899 
L 209.779779 167.071204 
" style="fill:none;stroke:#00d793;stroke-width:1.5;"/>
   </g>
   <g id="LineCollection_6">
    <path clip-path="url(#p9f3bd34d32)" d="M 209.779779 167.245974 
L 209.495828 167.173146 
L 208.344121 166.100386 
L 208.265932 165.835899 
L 208.344121 165.730846 
L 209.779779 165.218088 
L 210.443057 165.835899 
L 209.892564 167.173146 
L 209.779779 167.245974 
" style="fill:none;stroke:#00cc99;stroke-width:1.5;"/>
   </g>
   <g id="LineCollection_7">
    <path clip-path="url(#p9f3bd34d32)" d="M 209.779779 167.352832 
L 209.079203 167.173146 
L 208.344121 166.488452 
L 208.151211 165.835899 
L 208.344121 165.576707 
L 209.779779 165.090936 
L 210.579566 165.835899 
L 210.058046 167.173146 
L 209.779779 167.352832 
" style="fill:none;stroke:#00c29e;stroke-width:1.5;"/>
   </g>
   <g id="LineCollection_8">
    <path clip-path="url(#p9f3bd34d32)" d="M 209.779779 167.459689 
L 208.662579 167.173146 
L 208.344121 166.876517 
L 208.03649 165.835899 
L 208.344121 165.422568 
L 209.779779 164.963785 
L 210.716075 165.835899 
L 210.223528 167.173146 
L 209.779779 167.459689 
" style="fill:none;stroke:#00b8a3;stroke-width:1.5;"/>
   </g>
   <g id="LineCollection_9">
    <path clip-path="url(#p9f3bd34d32)" d="M 208.344121 167.203667 
L 208.311353 167.173146 
L 207.921769 165.835899 
L 208.344121 165.26843 
L 209.779779 164.836633 
L 210.852584 165.835899 
L 210.389011 167.173146 
L 209.779779 167.566546 
L 208.344121 167.203667 
" style="fill:none;stroke:#00aea8;stroke-width:1.5;"/>
   </g>
   <g id="LineCollection_10">
    <path clip-path="url(#p9f3bd34d32)" d="M 208.344121 167.333205 
L 208.172283 167.173146 
L 207.807048 165.835899 
L 208.344121 165.114291 
L 209.779779 164.709482 
L 210.989093 165.835899 
L 210.554493 167.173146 
L 209.779779 167.673403 
L 208.344121 167.333205 
" style="fill:none;stroke:#00a3ae;stroke-width:1.5;"/>
   </g>
   <g id="LineCollection_11">
    <path clip-path="url(#p9f3bd34d32)" d="M 208.344121 167.462742 
L 208.033212 167.173146 
L 207.692327 165.835899 
L 208.344121 164.960152 
L 209.779779 164.58233 
L 211.125602 165.835899 
L 210.719975 167.173146 
L 209.779779 167.78026 
L 208.344121 167.462742 
" style="fill:none;stroke:#0099b2;stroke-width:1.5;"/>
   </g>
   <g id="LineCollection_12">
    <path clip-path="url(#p9f3bd34d32)" d="M 208.344121 167.592279 
L 207.894142 167.173146 
L 207.577606 165.835899 
L 208.344121 164.806013 
L 209.569644 164.498653 
L 209.779779 164.454828 
L 209.863244 164.498653 
L 211.215437 165.758156 
L 211.262488 165.835899 
L 211.215437 166.03163 
L 210.885458 167.173146 
L 209.779779 167.887117 
L 208.344121 167.592279 
" style="fill:none;stroke:#008fb8;stroke-width:1.5;"/>
   </g>
   <g id="LineCollection_13">
    <path clip-path="url(#p9f3bd34d32)" d="M 208.344121 167.721816 
L 207.755072 167.173146 
L 207.462884 165.835899 
L 208.344121 164.651875 
L 208.955053 164.498653 
L 209.779779 164.326649 
L 210.107358 164.498653 
L 211.215437 165.530775 
L 211.400099 165.835899 
L 211.215437 166.604092 
L 211.05094 167.173146 
L 209.779779 167.993975 
L 208.344121 167.721816 
" style="fill:none;stroke:#0085bc;stroke-width:1.5;"/>
   </g>
   <g id="LineCollection_14">
    <path clip-path="url(#p9f3bd34d32)" d="M 208.344121 167.851353 
L 207.616002 167.173146 
L 207.348163 165.835899 
L 208.3429 164.498653 
L 208.344121 164.497728 
L 209.779779 164.198471 
L 210.351472 164.498653 
L 211.215437 165.303395 
L 211.537711 165.835899 
L 211.21643 167.173146 
L 211.215437 167.174283 
L 209.779779 168.100832 
L 208.344121 167.851353 
" style="fill:none;stroke:#007ac2;stroke-width:1.5;"/>
   </g>
   <g id="LineCollection_15">
    <path clip-path="url(#p9f3bd34d32)" d="M 208.344121 167.98089 
L 207.476932 167.173146 
L 207.233442 165.835899 
L 208.137748 164.498653 
L 208.344121 164.342345 
L 209.779779 164.070293 
L 210.595586 164.498653 
L 211.215437 165.076014 
L 211.675322 165.835899 
L 211.383249 167.173146 
L 211.215437 167.365372 
L 209.779779 168.207689 
L 208.344121 167.98089 
" style="fill:none;stroke:#0070c7;stroke-width:1.5;"/>
   </g>
   <g id="LineCollection_16">
    <path clip-path="url(#p9f3bd34d32)" d="M 208.344121 168.110427 
L 207.337862 167.173146 
L 207.118721 165.835899 
L 207.932596 164.498653 
L 208.344121 164.186961 
L 209.779779 163.942115 
L 210.839701 164.498653 
L 211.215437 164.848634 
L 211.812933 165.835899 
L 211.550067 167.173146 
L 211.215437 167.556461 
L 209.779779 168.314546 
L 208.344121 168.110427 
" style="fill:none;stroke:#0066cc;stroke-width:1.5;"/>
   </g>
   <g id="LineCollection_17">
    <path clip-path="url(#p9f3bd34d32)" d="M 208.344121 168.239964 
L 207.198792 167.173146 
L 207.004 165.835899 
L 207.727445 164.498653 
L 208.344121 164.031578 
L 209.779779 163.813936 
L 211.083815 164.498653 
L 211.215437 164.621253 
L 211.950545 165.835899 
L 211.716886 167.173146 
L 211.215437 167.74755 
L 209.779779 168.421403 
L 208.344121 168.239964 
" style="fill:none;stroke:#005cd1;stroke-width:1.5;"/>
   </g>
   <g id="LineCollection_18">
    <path clip-path="url(#p9f3bd34d32)" d="M 209.779779 168.544832 
L 209.588469 168.510392 
L 208.344121 168.369501 
L 207.059722 167.173146 
L 206.908462 166.014095 
L 206.871488 165.835899 
L 206.908462 165.765121 
L 207.522293 164.498653 
L 208.344121 163.876194 
L 209.779779 163.685758 
L 211.215437 164.393027 
L 211.328837 164.498653 
L 212.088156 165.835899 
L 211.883705 167.173146 
L 211.215437 167.938639 
L 209.855767 168.510392 
L 209.779779 168.544832 
" style="fill:none;stroke:#0051d6;stroke-width:1.5;"/>
   </g>
   <g id="LineCollection_19">
    <path clip-path="url(#p9f3bd34d32)" d="M 209.779779 168.750792 
L 208.444398 168.510392 
L 208.344121 168.499038 
L 206.920652 167.173146 
L 206.908462 167.079743 
L 206.650371 165.835899 
L 206.908462 165.341848 
L 207.317141 164.498653 
L 208.344121 163.720811 
L 209.779779 163.55758 
L 211.215437 164.16381 
L 211.574923 164.498653 
L 212.225767 165.835899 
L 212.050523 167.173146 
L 211.215437 168.129727 
L 210.31019 168.510392 
L 209.779779 168.750792 
" style="fill:none;stroke:#0047dc;stroke-width:1.5;"/>
   </g>
   <g id="LineCollection_20">
    <path clip-path="url(#p9f3bd34d32)" d="M 208.344121 168.738182 
L 207.9957 168.510392 
L 206.908462 167.497683 
L 206.663909 167.173146 
L 206.429254 165.835899 
L 206.908462 164.918575 
L 207.11199 164.498653 
L 208.344121 163.565427 
L 209.779779 163.429401 
L 211.215437 163.934593 
L 211.821008 164.498653 
L 212.363379 165.835899 
L 212.217342 167.173146 
L 211.215437 168.320816 
L 210.764613 168.510392 
L 209.779779 168.956752 
L 208.344121 168.738182 
" style="fill:none;stroke:#003de0;stroke-width:1.5;"/>
   </g>
   <g id="LineCollection_21">
    <path clip-path="url(#p9f3bd34d32)" d="M 208.344121 168.987856 
L 207.613806 168.510392 
L 206.908462 167.853399 
L 206.395861 167.173146 
L 206.208137 165.835899 
L 206.905331 164.498653 
L 206.908462 164.495275 
L 208.344121 163.410044 
L 209.779779 163.301223 
L 211.215437 163.705377 
L 212.067093 164.498653 
L 212.50099 165.835899 
L 212.384161 167.173146 
L 211.219065 168.510392 
L 211.215437 168.513308 
L 209.779779 169.162711 
L 208.344121 168.987856 
" style="fill:none;stroke:#0033e6;stroke-width:1.5;"/>
   </g>
   <g id="LineCollection_22">
    <path clip-path="url(#p9f3bd34d32)" d="M 208.344121 169.237529 
L 207.231912 168.510392 
L 206.908462 168.209114 
L 206.127813 167.173146 
L 205.98702 165.835899 
L 206.509916 164.498653 
L 206.908462 164.068583 
L 208.344121 163.25466 
L 209.779779 163.173045 
L 211.215437 163.47616 
L 212.313179 164.498653 
L 212.638601 165.835899 
L 212.550979 167.173146 
L 211.677157 168.510392 
L 211.215437 168.881619 
L 209.779779 169.368671 
L 208.344121 169.237529 
" style="fill:none;stroke:#0028eb;stroke-width:1.5;"/>
   </g>
   <g id="LineCollection_23">
    <path clip-path="url(#p9f3bd34d32)" d="M 206.908462 168.615317 
L 206.795816 168.510392 
L 205.859765 167.173146 
L 205.765903 165.835899 
L 206.1145 164.498653 
L 206.908462 163.641892 
L 207.967923 163.161407 
L 208.344121 162.946329 
L 209.779779 162.757974 
L 210.797664 163.161407 
L 211.215437 163.246943 
L 212.559264 164.498653 
L 212.651095 164.887788 
L 213.084219 165.835899 
L 212.882002 167.173146 
L 212.651095 167.523555 
L 212.13525 168.510392 
L 211.215437 169.249929 
L 209.779779 169.574631 
L 208.344121 169.487203 
L 206.908462 168.615317 
" style="fill:none;stroke:#001ef0;stroke-width:1.5;"/>
   </g>
   <g id="LineCollection_24">
    <path clip-path="url(#p9f3bd34d32)" d="M 206.908462 169.300933 
L 206.059742 168.510392 
L 205.591717 167.173146 
L 205.544786 165.835899 
L 205.719085 164.498653 
L 206.908462 163.215201 
L 207.027077 163.161407 
L 208.344121 162.408431 
L 209.779779 162.314254 
L 211.215437 162.664023 
L 211.922863 163.161407 
L 212.651095 163.83972 
L 213.185084 164.498653 
L 213.560593 165.835899 
L 213.459485 167.173146 
L 212.651095 168.399908 
L 212.593343 168.510392 
L 211.215437 169.61824 
L 209.779779 169.780591 
L 208.344121 169.736877 
L 206.908462 169.300933 
" style="fill:none;stroke:#0014f5;stroke-width:1.5;"/>
   </g>
   <g id="LineCollection_25">
    <path clip-path="url(#p9f3bd34d32)" d="M 205.472804 239.384442 
L 206.908462 239.384442 
L 208.344121 239.384442 
L 209.779779 239.384442 
L 211.215437 239.384442 
L 212.651095 239.384442 
L 214.036972 238.047196 
L 212.651095 238.047196 
L 211.215437 238.047196 
L 209.779779 238.047196 
L 208.344121 238.047196 
L 206.908462 238.047196 
L 205.472804 238.047196 
L 204.385473 238.047196 
L 205.472804 239.384442 
" style="fill:none;stroke:#000afa;stroke-width:1.5;"/>
    <path clip-path="url(#p9f3bd34d32)" d="M 196.858854 238.047196 
L 198.294513 238.047196 
L 199.730171 238.047196 
L 201.165829 238.047196 
L 202.601487 238.047196 
L 204.037146 238.047196 
L 204.385481 236.70995 
L 204.385481 235.372704 
L 204.385481 234.035457 
L 204.385481 232.698211 
L 204.385481 231.360965 
L 204.385481 230.023719 
L 205.472804 230.023719 
L 206.908462 230.023719 
L 208.344121 230.023719 
L 209.779779 230.023719 
L 211.215437 230.023719 
L 212.651095 230.023719 
L 214.036968 230.023719 
L 214.036968 231.360965 
L 214.036968 232.698211 
L 214.036968 234.035457 
L 214.036968 235.372704 
L 214.036968 236.70995 
L 214.086754 238.047196 
L 215.522412 238.047196 
L 216.95807 238.047196 
L 218.393729 238.047196 
L 219.829387 238.047196 
L 221.265045 238.047196 
L 222.700704 238.047196 
L 224.071356 236.70995 
L 224.071355 235.372704 
L 224.071355 234.035457 
L 224.071355 232.698211 
L 224.071355 231.360965 
L 224.071355 230.023719 
L 222.700704 230.023719 
L 221.265045 230.023719 
L 219.829387 230.023719 
L 218.393729 230.023719 
L 216.95807 230.023719 
L 215.522412 230.023719 
L 214.086754 230.023719 
L 214.036968 228.686472 
L 214.036968 227.349226 
L 214.036968 226.01198 
L 214.036968 224.674734 
L 214.036968 223.337487 
L 214.036968 222.000241 
L 214.036968 220.662995 
L 212.651095 220.662995 
L 211.215437 220.662995 
L 209.779779 220.662995 
L 208.344121 220.662995 
L 206.908462 220.662995 
L 205.472804 220.662995 
L 204.385481 220.662995 
L 204.385481 222.000241 
L 204.385481 223.337487 
L 204.385481 224.674734 
L 204.385481 226.01198 
L 204.385481 227.349226 
L 204.385481 228.686472 
L 204.037146 230.023719 
L 202.601487 230.023719 
L 201.165829 230.023719 
L 199.730171 230.023719 
L 198.294513 230.023719 
L 196.858854 230.023719 
L 195.431259 230.023719 
L 195.431259 231.360965 
L 195.431259 232.698211 
L 195.431259 234.035457 
L 195.431259 235.372704 
L 195.431259 236.70995 
L 196.858854 238.047196 
" style="fill:none;stroke:#000afa;stroke-width:1.5;"/>
    <path clip-path="url(#p9f3bd34d32)" d="M 186.809246 236.70995 
L 186.80934 230.023719 
L 195.423196 230.023719 
L 195.431259 220.662995 
L 204.037146 220.662995 
L 204.385481 219.325749 
L 204.385481 212.639518 
L 214.036968 212.639518 
L 214.086754 220.662995 
L 224.071355 220.662995 
L 224.136362 230.023719 
L 232.749501 230.023719 
L 232.750312 236.70995 
L 234.18597 235.372704 
L 237.057286 235.372704 
L 238.492945 234.035457 
L 239.928603 234.035457 
L 241.364261 232.698211 
L 241.364247 230.023719 
L 232.750312 230.023719 
L 232.749501 220.662995 
L 224.136362 220.662995 
L 224.071355 217.988503 
L 224.071355 212.639518 
L 214.086754 212.639518 
L 214.036968 208.627779 
L 214.036968 204.61604 
L 204.385481 204.61604 
L 204.385481 211.302271 
L 204.037146 212.639518 
L 195.431259 212.639518 
L 195.423196 220.662995 
L 186.80934 220.662995 
L 186.809246 230.023719 
L 176.759761 230.023719 
L 176.759761 231.360965 
L 179.630955 234.035457 
L 181.066613 234.035457 
L 182.502271 235.372704 
L 185.373588 235.372704 
L 186.809246 236.70995 
L 186.809246 236.70995 
" style="fill:none;stroke:#000afa;stroke-width:1.5;"/>
    <path clip-path="url(#p9f3bd34d32)" d="M 171.017005 230.023719 
L 176.759638 230.023719 
L 176.759761 220.662995 
L 186.809246 220.662995 
L 186.80934 212.639518 
L 195.423196 212.639518 
L 195.431259 204.61604 
L 204.037146 204.616039 
L 204.385481 203.278794 
L 204.385481 196.592563 
L 214.036968 196.592563 
L 214.086754 204.616039 
L 224.071355 204.61604 
L 224.136362 212.639518 
L 232.749501 212.639518 
L 232.750312 220.662995 
L 241.364247 220.662995 
L 241.364261 230.023719 
L 248.542553 230.023719 
L 249.978211 228.686472 
L 249.978211 220.662995 
L 241.364261 220.662995 
L 241.364247 212.639518 
L 232.750312 212.639518 
L 232.749501 204.61604 
L 224.136362 204.616039 
L 224.071355 201.941548 
L 224.071355 196.592563 
L 214.086754 196.592448 
L 214.036968 192.580824 
L 214.036968 187.231839 
L 204.385481 187.231839 
L 204.385481 195.255317 
L 204.037146 196.592448 
L 195.431259 196.592563 
L 195.423196 204.616039 
L 186.80934 204.61604 
L 186.809246 212.639518 
L 176.759761 212.639518 
L 176.759638 220.662995 
L 168.14569 220.662995 
L 168.14569 227.349226 
L 171.017005 230.023719 
L 171.017005 230.023719 
" style="fill:none;stroke:#000afa;stroke-width:1.5;"/>
    <path clip-path="url(#p9f3bd34d32)" d="M 159.531739 222.000241 
L 159.531739 220.662995 
L 168.145688 220.662995 
L 168.14569 212.639518 
L 176.759638 212.639518 
L 176.759761 204.61604 
L 186.809246 204.616039 
L 186.80934 196.592563 
L 195.423196 196.592448 
L 195.431259 187.231839 
L 204.037146 187.231752 
L 204.385481 185.894593 
L 204.385481 179.208362 
L 214.036968 179.208362 
L 214.086754 187.231752 
L 224.071355 187.231839 
L 224.136362 196.592448 
L 232.749501 196.592563 
L 232.750312 204.616039 
L 241.364247 204.61604 
L 241.364261 212.639518 
L 249.978211 212.639518 
L 249.978211 220.662995 
L 260.027819 220.662995 
L 260.027819 222.000241 
L 261.463477 220.662995 
L 260.027819 220.662995 
L 260.027819 212.639518 
L 249.978211 212.639518 
L 249.978211 204.61604 
L 241.364261 204.616039 
L 241.364247 196.592563 
L 232.750312 196.592448 
L 232.749501 187.231839 
L 224.136362 187.231752 
L 224.071355 184.557347 
L 224.071355 179.208362 
L 214.086754 179.200851 
L 214.036968 175.196623 
L 214.036968 171.184884 
L 212.651095 170.860427 
L 205.472804 170.860427 
L 204.385481 171.184884 
L 204.385481 177.871116 
L 204.037146 179.200851 
L 195.431259 179.208362 
L 195.423196 187.231752 
L 186.80934 187.231839 
L 186.809246 196.592448 
L 176.759761 196.592563 
L 176.759638 204.616039 
L 168.14569 204.61604 
L 168.145688 212.639518 
L 159.531739 212.639518 
L 159.531739 220.662995 
L 158.09608 220.662995 
L 159.531739 222.000241 
L 159.531739 222.000241 
" style="fill:none;stroke:#000afa;stroke-width:1.5;"/>
    <path clip-path="url(#p9f3bd34d32)" d="M 150.917789 213.976764 
L 150.917789 212.639518 
L 159.531739 212.639518 
L 159.531739 204.61604 
L 168.145688 204.616039 
L 168.14569 196.592563 
L 176.759638 196.592448 
L 176.759761 187.231839 
L 186.809246 187.231752 
L 186.80934 179.208362 
L 195.423196 179.200851 
L 195.431259 171.184884 
L 196.858854 170.860427 
L 204.037146 170.860427 
L 204.385481 169.847638 
L 204.385481 163.161407 
L 204.037146 161.870534 
L 195.431259 161.824161 
L 195.423196 152.523987 
L 186.80934 152.463437 
L 186.809246 144.440715 
L 176.759761 144.43996 
L 176.759638 136.416496 
L 168.14569 136.416482 
L 168.145688 128.393005 
L 159.531739 128.393005 
L 159.531739 119.032282 
L 150.917789 119.032281 
L 150.917789 117.695035 
L 149.482131 119.032281 
L 150.917789 119.032282 
L 150.917789 128.393005 
L 159.531739 128.393005 
L 159.531739 136.416482 
L 168.145688 136.416496 
L 168.14569 144.43996 
L 176.759638 144.440715 
L 176.759761 152.463437 
L 179.630955 152.523987 
L 186.809246 152.523987 
L 186.80934 161.824161 
L 191.116221 161.870534 
L 195.423196 161.870534 
L 195.423196 170.860427 
L 188.244905 170.860427 
L 186.80934 171.184884 
L 186.809246 179.200851 
L 176.759761 179.208362 
L 176.759638 187.231752 
L 168.14569 187.231839 
L 168.145688 196.592448 
L 159.531739 196.592563 
L 159.531739 204.616039 
L 150.917789 204.61604 
L 150.917789 212.639518 
L 149.482131 212.639518 
L 150.917789 213.976764 
L 150.917789 213.976764 
" style="fill:none;stroke:#000afa;stroke-width:1.5;"/>
    <path clip-path="url(#p9f3bd34d32)" d="M 268.641769 213.976764 
L 270.077427 212.639518 
L 268.641769 212.639518 
L 268.641769 204.61604 
L 260.027819 204.616039 
L 260.027819 196.592563 
L 249.978211 196.592448 
L 249.978211 187.231839 
L 241.364261 187.231752 
L 241.364247 179.208362 
L 232.750312 179.200851 
L 232.749501 171.184884 
L 231.314653 170.860427 
L 224.136362 170.860427 
L 224.071355 168.510392 
L 224.136362 161.870534 
L 232.749501 161.824161 
L 232.750312 152.523987 
L 241.364247 152.463437 
L 241.364261 144.440715 
L 249.978211 144.43996 
L 249.978211 136.416496 
L 260.027819 136.416482 
L 260.027819 128.393005 
L 268.641769 128.393005 
L 268.641769 120.369528 
L 267.206111 119.032282 
L 260.027819 119.032282 
L 260.027819 128.393005 
L 249.978211 128.393005 
L 249.978211 136.416482 
L 241.364261 136.416496 
L 241.364247 144.43996 
L 232.750312 144.440715 
L 232.749501 152.463437 
L 229.878995 152.523987 
L 224.136362 152.523987 
L 224.071355 155.13793 
L 224.071355 161.824161 
L 219.829387 161.870534 
L 214.086754 161.870534 
L 214.036968 165.835899 
L 214.086754 170.860427 
L 222.700704 170.860427 
L 224.071355 171.184884 
L 224.136362 179.200851 
L 232.749501 179.208362 
L 232.750312 187.231752 
L 241.364247 187.231839 
L 241.364261 196.592448 
L 249.978211 196.592563 
L 249.978211 204.616039 
L 260.027819 204.61604 
L 260.027819 212.639518 
L 268.641769 212.639518 
L 268.641769 213.976764 
L 268.641769 213.976764 
" style="fill:none;stroke:#000afa;stroke-width:1.5;"/>
    <path clip-path="url(#p9f3bd34d32)" d="M 143.739497 204.616039 
L 150.917789 204.616039 
L 150.917789 196.592563 
L 159.531739 196.592448 
L 159.531739 187.231839 
L 168.145688 187.231752 
L 168.14569 179.208362 
L 176.759638 179.200851 
L 176.759761 171.184884 
L 178.195296 170.860427 
L 186.809246 170.860427 
L 186.809246 161.870534 
L 176.759761 161.824161 
L 176.759638 152.523987 
L 168.14569 152.463437 
L 168.145688 144.440715 
L 159.531739 144.43996 
L 159.531739 136.416496 
L 150.917789 136.416482 
L 150.917789 128.393005 
L 142.303839 128.393005 
L 140.868181 129.730251 
L 140.868181 136.416482 
L 150.917789 136.416496 
L 150.917789 144.43996 
L 159.531739 144.440715 
L 159.531739 152.463437 
L 162.403055 152.523987 
L 168.145688 152.523987 
L 168.14569 161.824161 
L 172.452663 161.870534 
L 176.759638 161.870534 
L 176.759638 170.860427 
L 169.581347 170.860427 
L 168.14569 171.184884 
L 168.145688 179.200851 
L 159.531739 179.208362 
L 159.531739 187.231752 
L 150.917789 187.231839 
L 150.917789 196.592448 
L 140.868181 196.592563 
L 140.868181 201.941548 
L 143.739497 204.616039 
L 143.739497 204.616039 
" style="fill:none;stroke:#000afa;stroke-width:1.5;"/>
    <path clip-path="url(#p9f3bd34d32)" d="M 268.641769 204.616039 
L 275.82006 204.61604 
L 277.255719 203.278794 
L 277.255719 196.592563 
L 268.641769 196.592448 
L 268.641769 187.231839 
L 260.027819 187.231752 
L 260.027819 179.208362 
L 249.978211 179.200851 
L 249.978211 171.184884 
L 248.542553 170.860427 
L 241.364261 170.860427 
L 241.364261 161.870534 
L 249.978211 161.824161 
L 249.978211 152.523987 
L 260.027819 152.463437 
L 260.027819 144.440715 
L 268.641769 144.43996 
L 268.641769 136.416496 
L 277.255719 136.416482 
L 277.255719 129.730251 
L 275.82006 128.393005 
L 268.641769 128.393005 
L 268.641769 136.416482 
L 260.027819 136.416496 
L 260.027819 144.43996 
L 249.978211 144.440715 
L 249.978211 152.463437 
L 247.106894 152.523987 
L 241.364261 152.523987 
L 241.364247 161.824161 
L 237.057286 161.870534 
L 232.750312 161.870534 
L 232.750312 170.860427 
L 239.928603 170.860427 
L 241.364247 171.184884 
L 241.364261 179.200851 
L 249.978211 179.208362 
L 249.978211 187.231752 
L 260.027819 187.231839 
L 260.027819 196.592448 
L 268.641769 196.592563 
L 268.641769 204.616039 
L 268.641769 204.616039 
" style="fill:none;stroke:#000afa;stroke-width:1.5;"/>
    <path clip-path="url(#p9f3bd34d32)" d="M 139.432523 196.592448 
L 140.868181 196.592448 
L 140.868181 187.231839 
L 150.917789 187.231752 
L 150.917789 179.208362 
L 159.531739 179.200851 
L 159.531739 171.184884 
L 160.967397 170.860427 
L 168.145688 170.860427 
L 168.145688 161.870534 
L 159.531739 161.824161 
L 159.531739 152.523987 
L 150.917789 152.463437 
L 150.917789 144.440715 
L 140.868181 144.43996 
L 140.868181 136.416496 
L 137.996864 136.416482 
L 136.561206 137.753729 
L 136.561206 139.090975 
L 135.125548 140.428221 
L 135.125548 143.102714 
L 133.689889 144.43996 
L 140.868181 144.440715 
L 140.868181 152.463437 
L 143.739497 152.523987 
L 150.917789 152.523987 
L 150.917789 161.824161 
L 155.224764 161.870534 
L 159.531739 161.870534 
L 159.531739 170.860427 
L 152.353447 170.860427 
L 150.917789 171.184884 
L 150.917789 179.200851 
L 140.868181 179.208362 
L 140.868181 187.231752 
L 133.689889 187.231839 
L 135.125548 188.569085 
L 135.125548 191.243578 
L 136.561206 192.580824 
L 136.561206 193.91807 
L 139.432523 196.592448 
L 139.432523 196.592448 
" style="fill:none;stroke:#000afa;stroke-width:1.5;"/>
    <path clip-path="url(#p9f3bd34d32)" d="M 277.255719 196.592448 
L 280.127035 196.592399 
L 281.562693 195.255317 
L 281.562693 193.91807 
L 282.998352 192.580824 
L 282.998352 191.243578 
L 284.43401 189.906332 
L 284.43401 187.231839 
L 277.255719 187.231752 
L 277.255719 179.208362 
L 268.641769 179.200851 
L 268.641769 171.184884 
L 267.206111 170.860427 
L 260.027819 170.860427 
L 260.027819 161.870534 
L 268.641769 161.824161 
L 268.641769 152.523987 
L 277.255719 152.463437 
L 277.255719 144.440715 
L 284.43401 144.43996 
L 284.43401 143.102714 
L 282.998352 141.765467 
L 282.998352 139.090975 
L 280.127035 136.416496 
L 277.255719 136.416496 
L 277.255719 144.43996 
L 268.641769 144.440715 
L 268.641769 152.463437 
L 265.770452 152.523987 
L 260.027819 152.523987 
L 260.027819 161.824161 
L 255.720844 161.870534 
L 249.978211 161.870534 
L 249.978211 170.860427 
L 258.592161 170.860427 
L 260.027819 171.184884 
L 260.027819 179.200851 
L 268.641769 179.208362 
L 268.641769 187.231752 
L 277.255719 187.231839 
L 277.255719 196.592448 
L 277.255719 196.592448 
" style="fill:none;stroke:#000afa;stroke-width:1.5;"/>
    <path clip-path="url(#p9f3bd34d32)" d="M 285.869668 180.545608 
L 287.305327 179.208362 
L 285.869668 179.199678 
L 285.869668 177.871116 
L 285.869668 176.533869 
L 285.869668 175.196623 
L 285.869668 173.859377 
L 285.869668 172.522131 
L 285.869668 171.184884 
L 284.43401 170.860427 
L 282.998352 170.860427 
L 281.562693 170.860427 
L 280.127035 170.860427 
L 278.691377 170.860427 
L 277.255719 170.860427 
L 277.255719 169.847638 
L 277.255719 168.510392 
L 277.255719 167.173146 
L 277.255719 165.835899 
L 277.255719 164.498653 
L 277.255719 163.161407 
L 277.255719 161.870534 
L 278.691377 161.870534 
L 280.127035 161.870534 
L 281.562693 161.870534 
L 282.998352 161.870534 
L 284.43401 161.870534 
L 285.869668 161.824161 
L 285.869668 160.486915 
L 285.869668 159.149668 
L 285.869668 157.812422 
L 285.869668 156.475176 
L 285.869668 155.13793 
L 285.869668 153.800683 
L 284.43401 152.523987 
L 282.998352 152.523987 
L 281.562693 152.523987 
L 280.127035 152.523987 
L 278.691377 152.523987 
L 277.255719 152.523987 
L 277.255719 153.800683 
L 277.255719 155.13793 
L 277.255719 156.475176 
L 277.255719 157.812422 
L 277.255719 159.149668 
L 277.255719 160.486915 
L 277.255719 161.824161 
L 275.82006 161.870534 
L 274.384402 161.870534 
L 272.948744 161.870534 
L 271.513085 161.870534 
L 270.077427 161.870534 
L 268.641769 161.870534 
L 268.641769 163.161407 
L 268.641769 164.498653 
L 268.641769 165.835899 
L 268.641769 167.173146 
L 268.641769 168.510392 
L 268.641769 169.847638 
L 268.641769 170.860427 
L 270.077427 170.860427 
L 271.513085 170.860427 
L 272.948744 170.860427 
L 274.384402 170.860427 
L 275.82006 170.860427 
L 277.255719 171.184884 
L 277.255719 172.522131 
L 277.255719 173.859377 
L 277.255719 175.196623 
L 277.255719 176.533869 
L 277.255719 177.871116 
L 277.255719 179.200851 
L 278.691377 179.200851 
L 280.127035 179.200851 
L 281.562693 179.200851 
L 282.998352 179.200851 
L 284.43401 179.200851 
L 285.869668 179.208362 
L 285.869668 180.545608 
" style="fill:none;stroke:#000afa;stroke-width:1.5;"/>
    <path clip-path="url(#p9f3bd34d32)" d="M 133.689889 179.200851 
L 135.125548 179.200851 
L 136.561206 179.200851 
L 137.996864 179.200851 
L 139.432523 179.200851 
L 140.868181 179.200851 
L 140.868181 177.871116 
L 140.868181 176.533869 
L 140.868181 175.196623 
L 140.868181 173.859377 
L 140.868181 172.522131 
L 140.868181 171.184884 
L 142.303839 170.860427 
L 143.739497 170.860427 
L 145.175156 170.860427 
L 146.610814 170.860427 
L 148.046472 170.860427 
L 149.482131 170.860427 
L 150.917789 170.860427 
L 150.917789 169.847638 
L 150.917789 168.510392 
L 150.917789 167.173146 
L 150.917789 165.835899 
L 150.917789 164.498653 
L 150.917789 163.161407 
L 150.917789 161.870534 
L 149.482131 161.870534 
L 148.046472 161.870534 
L 146.610814 161.870534 
L 145.175156 161.870534 
L 143.739497 161.870534 
L 142.303839 161.870534 
L 140.868181 161.824161 
L 140.868181 160.486915 
L 140.868181 159.149668 
L 140.868181 157.812422 
L 140.868181 156.475176 
L 140.868181 155.13793 
L 140.868181 153.800683 
L 140.868181 152.523987 
L 139.432523 152.523987 
L 137.996864 152.523987 
L 136.561206 152.523987 
L 135.125548 152.523987 
L 133.689889 152.523987 
L 132.254231 153.800683 
L 132.254231 155.13793 
L 132.254231 156.475176 
L 132.254231 157.812422 
L 132.254231 159.149668 
L 132.254231 160.486915 
L 132.254231 161.824161 
L 133.689889 161.870534 
L 135.125548 161.870534 
L 136.561206 161.870534 
L 137.996864 161.870534 
L 139.432523 161.870534 
L 140.868181 161.870534 
L 140.868181 163.161407 
L 140.868181 164.498653 
L 140.868181 165.835899 
L 140.868181 167.173146 
L 140.868181 168.510392 
L 140.868181 169.847638 
L 140.868181 170.860427 
L 139.432523 170.860427 
L 137.996864 170.860427 
L 136.561206 170.860427 
L 135.125548 170.860427 
L 133.689889 170.860427 
L 132.254231 171.184884 
L 132.254231 172.522131 
L 132.254231 173.859377 
L 132.254231 175.196623 
L 132.254231 176.533869 
L 132.254231 177.871116 
L 133.689889 179.200851 
" style="fill:none;stroke:#000afa;stroke-width:1.5;"/>
    <path clip-path="url(#p9f3bd34d32)" d="M 132.254231 170.860434 
L 132.254231 169.847638 
L 132.254231 168.510392 
L 132.254231 167.173146 
L 132.254231 165.835899 
L 132.254231 164.498653 
L 132.254231 163.161407 
L 132.254231 161.87053 
L 130.818573 163.161407 
L 130.818573 164.498653 
L 130.818573 165.835899 
L 130.818573 167.173146 
L 130.818573 168.510392 
L 130.818573 169.847638 
L 132.254231 170.860434 
" style="fill:none;stroke:#000afa;stroke-width:1.5;"/>
    <path clip-path="url(#p9f3bd34d32)" d="M 285.869668 170.860427 
L 287.305327 169.847638 
L 288.740985 168.510392 
L 288.740985 167.173146 
L 288.740985 165.835899 
L 288.740985 164.498653 
L 287.305327 163.161407 
L 285.869668 161.870534 
L 285.869668 163.161407 
L 285.869668 164.498653 
L 285.869668 165.835899 
L 285.869668 167.173146 
L 285.869668 168.510392 
L 285.869668 169.847638 
L 285.869668 170.860427 
" style="fill:none;stroke:#000afa;stroke-width:1.5;"/>
    <path clip-path="url(#p9f3bd34d32)" d="M 205.472804 161.870534 
L 214.036968 161.824161 
L 214.086754 152.523987 
L 224.071355 152.463437 
L 224.136362 144.440715 
L 232.749501 144.43996 
L 232.750312 136.416496 
L 241.364247 136.416482 
L 241.364261 128.393005 
L 249.978211 128.393005 
L 249.978211 119.032282 
L 260.027819 119.032281 
L 260.027819 112.34605 
L 258.592161 111.008804 
L 249.978211 111.008804 
L 249.978211 119.032281 
L 241.364261 119.032282 
L 241.364247 128.393005 
L 232.750312 128.393005 
L 232.749501 136.416482 
L 224.136362 136.416496 
L 224.071355 139.090975 
L 224.071355 144.43996 
L 214.086754 144.440715 
L 214.036968 148.451698 
L 214.036968 152.463437 
L 211.215437 152.523987 
L 204.385481 152.463437 
L 204.385481 145.777206 
L 204.037146 144.440715 
L 195.431259 144.43996 
L 195.423196 136.416496 
L 186.80934 136.416482 
L 186.809246 128.393005 
L 176.759761 128.393005 
L 176.759638 119.032282 
L 168.14569 119.032281 
L 168.145688 111.008804 
L 159.531739 111.008804 
L 159.531739 109.671558 
L 158.09608 111.008804 
L 159.531739 111.008804 
L 159.531739 119.032281 
L 168.145688 119.032282 
L 168.14569 128.393005 
L 176.759638 128.393005 
L 176.759761 136.416482 
L 186.809246 136.416496 
L 186.80934 144.43996 
L 195.423196 144.440715 
L 195.431259 152.463437 
L 198.294513 152.523987 
L 204.037146 152.523987 
L 204.385481 153.800683 
L 204.385481 161.824161 
L 205.472804 161.870534 
L 205.472804 161.870534 
" style="fill:none;stroke:#000afa;stroke-width:1.5;"/>
    <path clip-path="url(#p9f3bd34d32)" d="M 205.472804 144.440715 
L 214.036968 144.43996 
L 214.086754 136.416496 
L 224.071355 136.416482 
L 224.136362 128.393005 
L 232.749501 128.393005 
L 232.750312 119.032282 
L 241.364247 119.032281 
L 241.364261 111.008804 
L 249.978211 111.008804 
L 249.978211 104.322573 
L 248.542553 102.985327 
L 241.364261 102.985327 
L 241.364247 111.008804 
L 232.750312 111.008804 
L 232.749501 119.032281 
L 224.136362 119.032282 
L 224.071355 121.706774 
L 224.071355 128.393005 
L 214.086754 128.393005 
L 214.036968 132.404744 
L 214.036968 136.416482 
L 204.385481 136.416482 
L 204.385481 129.730251 
L 204.037146 128.393005 
L 195.431259 128.393005 
L 195.423196 119.032282 
L 186.80934 119.032281 
L 186.809246 111.008804 
L 176.759761 111.008804 
L 176.759638 102.985327 
L 169.581347 102.985327 
L 168.145688 104.322573 
L 168.14569 111.008804 
L 176.759638 111.008804 
L 176.759761 119.032281 
L 186.809246 119.032282 
L 186.80934 128.393005 
L 195.423196 128.393005 
L 195.431259 136.416482 
L 204.037146 136.416496 
L 204.385481 137.753729 
L 204.385481 144.43996 
L 205.472804 144.440715 
L 205.472804 144.440715 
" style="fill:none;stroke:#000afa;stroke-width:1.5;"/>
    <path clip-path="url(#p9f3bd34d32)" d="M 205.472804 128.393005 
L 214.036968 128.393005 
L 214.086754 119.032282 
L 224.071355 119.032281 
L 224.136362 111.008804 
L 232.749501 111.008804 
L 232.750312 102.985327 
L 241.364247 102.985327 
L 241.364247 100.310834 
L 238.492945 97.636342 
L 235.621628 97.636342 
L 234.18597 96.299095 
L 232.750312 96.299095 
L 232.749501 102.985327 
L 224.136362 102.985327 
L 224.071355 105.659819 
L 224.071355 111.008804 
L 214.086754 111.008804 
L 214.036968 115.020543 
L 214.036968 119.032281 
L 204.385481 119.032281 
L 204.385481 112.34605 
L 204.037146 111.008804 
L 195.431259 111.008804 
L 195.423196 102.985327 
L 186.80934 102.985327 
L 186.809246 96.299095 
L 183.93793 96.299095 
L 182.502271 97.636342 
L 181.066613 97.636342 
L 179.630955 98.973588 
L 178.195296 98.973588 
L 176.759815 100.310834 
L 176.759761 102.985327 
L 186.809246 102.985327 
L 186.80934 111.008804 
L 195.423196 111.008804 
L 195.431259 119.032281 
L 204.037146 119.032282 
L 204.385481 120.369528 
L 204.385481 128.393005 
L 205.472804 128.393005 
L 205.472804 128.393005 
" style="fill:none;stroke:#000afa;stroke-width:1.5;"/>
    <path clip-path="url(#p9f3bd34d32)" d="M 205.472804 111.008804 
L 206.908462 111.008804 
L 208.344121 111.008804 
L 209.779779 111.008804 
L 211.215437 111.008804 
L 212.651095 111.008804 
L 214.036968 111.008804 
L 214.036968 109.671558 
L 214.036968 108.334312 
L 214.036968 106.997065 
L 214.036968 105.659819 
L 214.036968 104.322573 
L 214.086754 102.985327 
L 215.522412 102.985327 
L 216.95807 102.985327 
L 218.393729 102.985327 
L 219.829387 102.985327 
L 221.265045 102.985327 
L 222.700704 102.985327 
L 224.071355 102.985327 
L 224.071355 101.64808 
L 224.071355 100.310834 
L 224.071355 98.973588 
L 224.071355 97.636342 
L 224.071355 96.299095 
L 222.700704 94.961849 
L 221.265045 94.961849 
L 219.829387 94.961849 
L 218.393729 94.961849 
L 216.95807 94.961849 
L 215.522412 94.961849 
L 214.086754 94.961849 
L 214.036968 96.299095 
L 214.036968 97.636342 
L 214.036968 98.973588 
L 214.036968 100.310834 
L 214.036968 101.64808 
L 214.036968 102.985327 
L 212.651095 102.985327 
L 211.215437 102.985327 
L 209.779779 102.985327 
L 208.344121 102.985327 
L 206.908462 102.985327 
L 205.472804 102.985327 
L 204.385481 102.985327 
L 204.385481 101.64808 
L 204.385481 100.310834 
L 204.385481 98.973588 
L 204.385481 97.636342 
L 204.385481 96.299095 
L 204.037146 94.961849 
L 202.601487 94.961849 
L 201.165829 94.961849 
L 199.730171 94.961849 
L 198.294513 94.961849 
L 196.858854 94.961849 
L 195.432518 94.961849 
L 195.423196 93.624603 
L 193.987538 94.961849 
L 195.423196 94.961849 
L 195.431259 96.299095 
L 195.431259 97.636342 
L 195.431259 98.973588 
L 195.431259 100.310834 
L 195.431259 101.64808 
L 195.431259 102.985327 
L 196.858854 102.985327 
L 198.294513 102.985327 
L 199.730171 102.985327 
L 201.165829 102.985327 
L 202.601487 102.985327 
L 204.037146 102.985327 
L 204.385481 104.322573 
L 204.385481 105.659819 
L 204.385481 106.997065 
L 204.385481 108.334312 
L 204.385481 109.671558 
L 204.385481 111.008804 
L 205.472804 111.008804 
" style="fill:none;stroke:#000afa;stroke-width:1.5;"/>
    <path clip-path="url(#p9f3bd34d32)" d="M 205.472804 94.961849 
L 206.908462 94.961849 
L 208.344121 94.961849 
L 209.779779 94.961849 
L 211.215437 94.961849 
L 212.651095 94.961849 
L 214.036968 94.961849 
L 212.651095 93.624603 
L 211.215437 92.287357 
L 209.779779 92.287357 
L 208.344121 92.287357 
L 206.908462 92.287357 
L 205.472804 93.624603 
L 204.385481 94.961849 
L 205.472804 94.961849 
" style="fill:none;stroke:#000afa;stroke-width:1.5;"/>
   </g>
   <g id="LineCollection_26"/>
   <g id="patch_3">
    <path d="M 57.6 307.584 
L 57.6 41.472 
" style="fill:none;stroke:#000000;stroke-linecap:square;stroke-linejoin:miter;stroke-width:0.8;"/>
   </g>
   <g id="patch_4">
    <path d="M 343.296 307.584 
L 343.296 41.472 
" style="fill:none;stroke:#000000;stroke-linecap:square;stroke-linejoin:miter;stroke-width:0.8;"/>
   </g>
   <g id="patch_5">
    <path d="M 57.6 307.584 
L 343.296 307.584 
" style="fill:none;stroke:#000000;stroke-linecap:square;stroke-linejoin:miter;stroke-width:0.8;"/>
   </g>
   <g id="patch_6">
    <path d="M 57.6 41.472 
L 343.296 41.472 
" style="fill:none;stroke:#000000;stroke-linecap:square;stroke-linejoin:miter;stroke-width:0.8;"/>
   </g>
  </g>
  <g id="axes_2">
   <g id="patch_7">
    <path clip-path="url(#p332d1333b3)" d="M 361.152 307.584 
L 361.152 296.93952 
L 361.152 52.11648 
L 361.152 41.472 
L 374.4576 41.472 
L 374.4576 52.11648 
L 374.4576 296.93952 
L 374.4576 307.584 
z
" style="fill:#ffffff;stroke:#ffffff;stroke-linejoin:miter;stroke-width:0.01;"/>
   </g>
   <g id="matplotlib.axis_3"/>
   <g id="matplotlib.axis_4">
    <g id="ytick_6">
     <g id="line2d_11">
      <defs>
       <path d="M 0 0 
L 3.5 0 
" id="m77942df06b" style="stroke:#000000;stroke-width:0.8;"/>
      </defs>
      <g>
       <use style="stroke:#000000;stroke-width:0.8;" x="374.4576" xlink:href="#m77942df06b" y="307.584"/>
      </g>
     </g>
     <g id="text_11">
      <!-- −0.96 -->
      <defs>
       <path d="M 10.6875 12.40625 
L 21 12.40625 
L 21 0 
L 10.6875 0 
z
" id="DejaVuSans-46"/>
       <path d="M 10.984375 1.515625 
L 10.984375 10.5 
Q 14.703125 8.734375 18.5 7.8125 
Q 22.3125 6.890625 25.984375 6.890625 
Q 35.75 6.890625 40.890625 13.453125 
Q 46.046875 20.015625 46.78125 33.40625 
Q 43.953125 29.203125 39.59375 26.953125 
Q 35.25 24.703125 29.984375 24.703125 
Q 19.046875 24.703125 12.671875 31.3125 
Q 6.296875 37.9375 6.296875 49.421875 
Q 6.296875 60.640625 12.9375 67.421875 
Q 19.578125 74.21875 30.609375 74.21875 
Q 43.265625 74.21875 49.921875 64.515625 
Q 56.59375 54.828125 56.59375 36.375 
Q 56.59375 19.140625 48.40625 8.859375 
Q 40.234375 -1.421875 26.421875 -1.421875 
Q 22.703125 -1.421875 18.890625 -0.6875 
Q 15.09375 0.046875 10.984375 1.515625 
z
M 30.609375 32.421875 
Q 37.25 32.421875 41.125 36.953125 
Q 45.015625 41.5 45.015625 49.421875 
Q 45.015625 57.28125 41.125 61.84375 
Q 37.25 66.40625 30.609375 66.40625 
Q 23.96875 66.40625 20.09375 61.84375 
Q 16.21875 57.28125 16.21875 49.421875 
Q 16.21875 41.5 20.09375 36.953125 
Q 23.96875 32.421875 30.609375 32.421875 
z
" id="DejaVuSans-57"/>
       <path d="M 33.015625 40.375 
Q 26.375 40.375 22.484375 35.828125 
Q 18.609375 31.296875 18.609375 23.390625 
Q 18.609375 15.53125 22.484375 10.953125 
Q 26.375 6.390625 33.015625 6.390625 
Q 39.65625 6.390625 43.53125 10.953125 
Q 47.40625 15.53125 47.40625 23.390625 
Q 47.40625 31.296875 43.53125 35.828125 
Q 39.65625 40.375 33.015625 40.375 
z
M 52.59375 71.296875 
L 52.59375 62.3125 
Q 48.875 64.0625 45.09375 64.984375 
Q 41.3125 65.921875 37.59375 65.921875 
Q 27.828125 65.921875 22.671875 59.328125 
Q 17.53125 52.734375 16.796875 39.40625 
Q 19.671875 43.65625 24.015625 45.921875 
Q 28.375 48.1875 33.59375 48.1875 
Q 44.578125 48.1875 50.953125 41.515625 
Q 57.328125 34.859375 57.328125 23.390625 
Q 57.328125 12.15625 50.6875 5.359375 
Q 44.046875 -1.421875 33.015625 -1.421875 
Q 20.359375 -1.421875 13.671875 8.265625 
Q 6.984375 17.96875 6.984375 36.375 
Q 6.984375 53.65625 15.1875 63.9375 
Q 23.390625 74.21875 37.203125 74.21875 
Q 40.921875 74.21875 44.703125 73.484375 
Q 48.484375 72.75 52.59375 71.296875 
z
" id="DejaVuSans-54"/>
      </defs>
      <g transform="translate(381.4576 311.383219)scale(0.1 -0.1)">
       <use xlink:href="#DejaVuSans-8722"/>
       <use x="83.789062" xlink:href="#DejaVuSans-48"/>
       <use x="147.412109" xlink:href="#DejaVuSans-46"/>
       <use x="179.199219" xlink:href="#DejaVuSans-57"/>
       <use x="242.822266" xlink:href="#DejaVuSans-54"/>
      </g>
     </g>
    </g>
    <g id="ytick_7">
     <g id="line2d_12">
      <g>
       <use style="stroke:#000000;stroke-width:0.8;" x="374.4576" xlink:href="#m77942df06b" y="275.65056"/>
      </g>
     </g>
     <g id="text_12">
      <!-- −0.84 -->
      <defs>
       <path d="M 31.78125 34.625 
Q 24.75 34.625 20.71875 30.859375 
Q 16.703125 27.09375 16.703125 20.515625 
Q 16.703125 13.921875 20.71875 10.15625 
Q 24.75 6.390625 31.78125 6.390625 
Q 38.8125 6.390625 42.859375 10.171875 
Q 46.921875 13.96875 46.921875 20.515625 
Q 46.921875 27.09375 42.890625 30.859375 
Q 38.875 34.625 31.78125 34.625 
z
M 21.921875 38.8125 
Q 15.578125 40.375 12.03125 44.71875 
Q 8.5 49.078125 8.5 55.328125 
Q 8.5 64.0625 14.71875 69.140625 
Q 20.953125 74.21875 31.78125 74.21875 
Q 42.671875 74.21875 48.875 69.140625 
Q 55.078125 64.0625 55.078125 55.328125 
Q 55.078125 49.078125 51.53125 44.71875 
Q 48 40.375 41.703125 38.8125 
Q 48.828125 37.15625 52.796875 32.3125 
Q 56.78125 27.484375 56.78125 20.515625 
Q 56.78125 9.90625 50.3125 4.234375 
Q 43.84375 -1.421875 31.78125 -1.421875 
Q 19.734375 -1.421875 13.25 4.234375 
Q 6.78125 9.90625 6.78125 20.515625 
Q 6.78125 27.484375 10.78125 32.3125 
Q 14.796875 37.15625 21.921875 38.8125 
z
M 18.3125 54.390625 
Q 18.3125 48.734375 21.84375 45.5625 
Q 25.390625 42.390625 31.78125 42.390625 
Q 38.140625 42.390625 41.71875 45.5625 
Q 45.3125 48.734375 45.3125 54.390625 
Q 45.3125 60.0625 41.71875 63.234375 
Q 38.140625 66.40625 31.78125 66.40625 
Q 25.390625 66.40625 21.84375 63.234375 
Q 18.3125 60.0625 18.3125 54.390625 
z
" id="DejaVuSans-56"/>
      </defs>
      <g transform="translate(381.4576 279.449779)scale(0.1 -0.1)">
       <use xlink:href="#DejaVuSans-8722"/>
       <use x="83.789062" xlink:href="#DejaVuSans-48"/>
       <use x="147.412109" xlink:href="#DejaVuSans-46"/>
       <use x="179.199219" xlink:href="#DejaVuSans-56"/>
       <use x="242.822266" xlink:href="#DejaVuSans-52"/>
      </g>
     </g>
    </g>
    <g id="ytick_8">
     <g id="line2d_13">
      <g>
       <use style="stroke:#000000;stroke-width:0.8;" x="374.4576" xlink:href="#m77942df06b" y="243.71712"/>
      </g>
     </g>
     <g id="text_13">
      <!-- −0.72 -->
      <defs>
       <path d="M 8.203125 72.90625 
L 55.078125 72.90625 
L 55.078125 68.703125 
L 28.609375 0 
L 18.3125 0 
L 43.21875 64.59375 
L 8.203125 64.59375 
z
" id="DejaVuSans-55"/>
      </defs>
      <g transform="translate(381.4576 247.516339)scale(0.1 -0.1)">
       <use xlink:href="#DejaVuSans-8722"/>
       <use x="83.789062" xlink:href="#DejaVuSans-48"/>
       <use x="147.412109" xlink:href="#DejaVuSans-46"/>
       <use x="179.199219" xlink:href="#DejaVuSans-55"/>
       <use x="242.822266" xlink:href="#DejaVuSans-50"/>
      </g>
     </g>
    </g>
    <g id="ytick_9">
     <g id="line2d_14">
      <g>
       <use style="stroke:#000000;stroke-width:0.8;" x="374.4576" xlink:href="#m77942df06b" y="211.78368"/>
      </g>
     </g>
     <g id="text_14">
      <!-- −0.60 -->
      <g transform="translate(381.4576 215.582899)scale(0.1 -0.1)">
       <use xlink:href="#DejaVuSans-8722"/>
       <use x="83.789062" xlink:href="#DejaVuSans-48"/>
       <use x="147.412109" xlink:href="#DejaVuSans-46"/>
       <use x="179.199219" xlink:href="#DejaVuSans-54"/>
       <use x="242.822266" xlink:href="#DejaVuSans-48"/>
      </g>
     </g>
    </g>
    <g id="ytick_10">
     <g id="line2d_15">
      <g>
       <use style="stroke:#000000;stroke-width:0.8;" x="374.4576" xlink:href="#m77942df06b" y="179.85024"/>
      </g>
     </g>
     <g id="text_15">
      <!-- −0.48 -->
      <g transform="translate(381.4576 183.649459)scale(0.1 -0.1)">
       <use xlink:href="#DejaVuSans-8722"/>
       <use x="83.789062" xlink:href="#DejaVuSans-48"/>
       <use x="147.412109" xlink:href="#DejaVuSans-46"/>
       <use x="179.199219" xlink:href="#DejaVuSans-52"/>
       <use x="242.822266" xlink:href="#DejaVuSans-56"/>
      </g>
     </g>
    </g>
    <g id="ytick_11">
     <g id="line2d_16">
      <g>
       <use style="stroke:#000000;stroke-width:0.8;" x="374.4576" xlink:href="#m77942df06b" y="147.9168"/>
      </g>
     </g>
     <g id="text_16">
      <!-- −0.36 -->
      <defs>
       <path d="M 40.578125 39.3125 
Q 47.65625 37.796875 51.625 33 
Q 55.609375 28.21875 55.609375 21.1875 
Q 55.609375 10.40625 48.1875 4.484375 
Q 40.765625 -1.421875 27.09375 -1.421875 
Q 22.515625 -1.421875 17.65625 -0.515625 
Q 12.796875 0.390625 7.625 2.203125 
L 7.625 11.71875 
Q 11.71875 9.328125 16.59375 8.109375 
Q 21.484375 6.890625 26.8125 6.890625 
Q 36.078125 6.890625 40.9375 10.546875 
Q 45.796875 14.203125 45.796875 21.1875 
Q 45.796875 27.640625 41.28125 31.265625 
Q 36.765625 34.90625 28.71875 34.90625 
L 20.21875 34.90625 
L 20.21875 43.015625 
L 29.109375 43.015625 
Q 36.375 43.015625 40.234375 45.921875 
Q 44.09375 48.828125 44.09375 54.296875 
Q 44.09375 59.90625 40.109375 62.90625 
Q 36.140625 65.921875 28.71875 65.921875 
Q 24.65625 65.921875 20.015625 65.03125 
Q 15.375 64.15625 9.8125 62.3125 
L 9.8125 71.09375 
Q 15.4375 72.65625 20.34375 73.4375 
Q 25.25 74.21875 29.59375 74.21875 
Q 40.828125 74.21875 47.359375 69.109375 
Q 53.90625 64.015625 53.90625 55.328125 
Q 53.90625 49.265625 50.4375 45.09375 
Q 46.96875 40.921875 40.578125 39.3125 
z
" id="DejaVuSans-51"/>
      </defs>
      <g transform="translate(381.4576 151.716019)scale(0.1 -0.1)">
       <use xlink:href="#DejaVuSans-8722"/>
       <use x="83.789062" xlink:href="#DejaVuSans-48"/>
       <use x="147.412109" xlink:href="#DejaVuSans-46"/>
       <use x="179.199219" xlink:href="#DejaVuSans-51"/>
       <use x="242.822266" xlink:href="#DejaVuSans-54"/>
      </g>
     </g>
    </g>
    <g id="ytick_12">
     <g id="line2d_17">
      <g>
       <use style="stroke:#000000;stroke-width:0.8;" x="374.4576" xlink:href="#m77942df06b" y="115.98336"/>
      </g>
     </g>
     <g id="text_17">
      <!-- −0.24 -->
      <g transform="translate(381.4576 119.782579)scale(0.1 -0.1)">
       <use xlink:href="#DejaVuSans-8722"/>
       <use x="83.789062" xlink:href="#DejaVuSans-48"/>
       <use x="147.412109" xlink:href="#DejaVuSans-46"/>
       <use x="179.199219" xlink:href="#DejaVuSans-50"/>
       <use x="242.822266" xlink:href="#DejaVuSans-52"/>
      </g>
     </g>
    </g>
    <g id="ytick_13">
     <g id="line2d_18">
      <g>
       <use style="stroke:#000000;stroke-width:0.8;" x="374.4576" xlink:href="#m77942df06b" y="84.04992"/>
      </g>
     </g>
     <g id="text_18">
      <!-- −0.12 -->
      <defs>
       <path d="M 12.40625 8.296875 
L 28.515625 8.296875 
L 28.515625 63.921875 
L 10.984375 60.40625 
L 10.984375 69.390625 
L 28.421875 72.90625 
L 38.28125 72.90625 
L 38.28125 8.296875 
L 54.390625 8.296875 
L 54.390625 0 
L 12.40625 0 
z
" id="DejaVuSans-49"/>
      </defs>
      <g transform="translate(381.4576 87.849139)scale(0.1 -0.1)">
       <use xlink:href="#DejaVuSans-8722"/>
       <use x="83.789062" xlink:href="#DejaVuSans-48"/>
       <use x="147.412109" xlink:href="#DejaVuSans-46"/>
       <use x="179.199219" xlink:href="#DejaVuSans-49"/>
       <use x="242.822266" xlink:href="#DejaVuSans-50"/>
      </g>
     </g>
    </g>
    <g id="ytick_14">
     <g id="line2d_19">
      <g>
       <use style="stroke:#000000;stroke-width:0.8;" x="374.4576" xlink:href="#m77942df06b" y="52.11648"/>
      </g>
     </g>
     <g id="text_19">
      <!-- 0.00 -->
      <g transform="translate(381.4576 55.915699)scale(0.1 -0.1)">
       <use xlink:href="#DejaVuSans-48"/>
       <use x="63.623047" xlink:href="#DejaVuSans-46"/>
       <use x="95.410156" xlink:href="#DejaVuSans-48"/>
       <use x="159.033203" xlink:href="#DejaVuSans-48"/>
      </g>
     </g>
    </g>
   </g>
   <g id="LineCollection_27">
    <path clip-path="url(#p332d1333b3)" d="M 361.152 307.584 
L 374.4576 307.584 
" style="fill:none;stroke:#00ff80;stroke-width:1.5;"/>
    <path clip-path="url(#p332d1333b3)" d="M 361.152 296.93952 
L 374.4576 296.93952 
" style="fill:none;stroke:#00f584;stroke-width:1.5;"/>
    <path clip-path="url(#p332d1333b3)" d="M 361.152 286.29504 
L 374.4576 286.29504 
" style="fill:none;stroke:#00eb8a;stroke-width:1.5;"/>
    <path clip-path="url(#p332d1333b3)" d="M 361.152 275.65056 
L 374.4576 275.65056 
" style="fill:none;stroke:#00e18e;stroke-width:1.5;"/>
    <path clip-path="url(#p332d1333b3)" d="M 361.152 265.00608 
L 374.4576 265.00608 
" style="fill:none;stroke:#00d793;stroke-width:1.5;"/>
    <path clip-path="url(#p332d1333b3)" d="M 361.152 254.3616 
L 374.4576 254.3616 
" style="fill:none;stroke:#00cc99;stroke-width:1.5;"/>
    <path clip-path="url(#p332d1333b3)" d="M 361.152 243.71712 
L 374.4576 243.71712 
" style="fill:none;stroke:#00c29e;stroke-width:1.5;"/>
    <path clip-path="url(#p332d1333b3)" d="M 361.152 233.07264 
L 374.4576 233.07264 
" style="fill:none;stroke:#00b8a3;stroke-width:1.5;"/>
    <path clip-path="url(#p332d1333b3)" d="M 361.152 222.42816 
L 374.4576 222.42816 
" style="fill:none;stroke:#00aea8;stroke-width:1.5;"/>
    <path clip-path="url(#p332d1333b3)" d="M 361.152 211.78368 
L 374.4576 211.78368 
" style="fill:none;stroke:#00a3ae;stroke-width:1.5;"/>
    <path clip-path="url(#p332d1333b3)" d="M 361.152 201.1392 
L 374.4576 201.1392 
" style="fill:none;stroke:#0099b2;stroke-width:1.5;"/>
    <path clip-path="url(#p332d1333b3)" d="M 361.152 190.49472 
L 374.4576 190.49472 
" style="fill:none;stroke:#008fb8;stroke-width:1.5;"/>
    <path clip-path="url(#p332d1333b3)" d="M 361.152 179.85024 
L 374.4576 179.85024 
" style="fill:none;stroke:#0085bc;stroke-width:1.5;"/>
    <path clip-path="url(#p332d1333b3)" d="M 361.152 169.20576 
L 374.4576 169.20576 
" style="fill:none;stroke:#007ac2;stroke-width:1.5;"/>
    <path clip-path="url(#p332d1333b3)" d="M 361.152 158.56128 
L 374.4576 158.56128 
" style="fill:none;stroke:#0070c7;stroke-width:1.5;"/>
    <path clip-path="url(#p332d1333b3)" d="M 361.152 147.9168 
L 374.4576 147.9168 
" style="fill:none;stroke:#0066cc;stroke-width:1.5;"/>
    <path clip-path="url(#p332d1333b3)" d="M 361.152 137.27232 
L 374.4576 137.27232 
" style="fill:none;stroke:#005cd1;stroke-width:1.5;"/>
    <path clip-path="url(#p332d1333b3)" d="M 361.152 126.62784 
L 374.4576 126.62784 
" style="fill:none;stroke:#0051d6;stroke-width:1.5;"/>
    <path clip-path="url(#p332d1333b3)" d="M 361.152 115.98336 
L 374.4576 115.98336 
" style="fill:none;stroke:#0047dc;stroke-width:1.5;"/>
    <path clip-path="url(#p332d1333b3)" d="M 361.152 105.33888 
L 374.4576 105.33888 
" style="fill:none;stroke:#003de0;stroke-width:1.5;"/>
    <path clip-path="url(#p332d1333b3)" d="M 361.152 94.6944 
L 374.4576 94.6944 
" style="fill:none;stroke:#0033e6;stroke-width:1.5;"/>
    <path clip-path="url(#p332d1333b3)" d="M 361.152 84.04992 
L 374.4576 84.04992 
" style="fill:none;stroke:#0028eb;stroke-width:1.5;"/>
    <path clip-path="url(#p332d1333b3)" d="M 361.152 73.40544 
L 374.4576 73.40544 
" style="fill:none;stroke:#001ef0;stroke-width:1.5;"/>
    <path clip-path="url(#p332d1333b3)" d="M 361.152 62.76096 
L 374.4576 62.76096 
" style="fill:none;stroke:#0014f5;stroke-width:1.5;"/>
    <path clip-path="url(#p332d1333b3)" d="M 361.152 52.11648 
L 374.4576 52.11648 
" style="fill:none;stroke:#000afa;stroke-width:1.5;"/>
    <path clip-path="url(#p332d1333b3)" d="M 361.152 41.472 
L 374.4576 41.472 
" style="fill:none;stroke:#0000ff;stroke-width:1.5;"/>
   </g>
   <g id="patch_8">
    <path d="M 361.152 307.584 
L 361.152 296.93952 
L 361.152 52.11648 
L 361.152 41.472 
L 374.4576 41.472 
L 374.4576 52.11648 
L 374.4576 296.93952 
L 374.4576 307.584 
z
" style="fill:none;stroke:#000000;stroke-linejoin:miter;stroke-width:0.8;"/>
   </g>
  </g>
 </g>
 <defs>
  <clipPath id="p9f3bd34d32">
   <rect height="266.112" width="285.696" x="57.6" y="41.472"/>
  </clipPath>
  <clipPath id="p332d1333b3">
   <rect height="266.112" width="13.3056" x="361.152" y="41.472"/>
  </clipPath>
 </defs>
</svg>
