<?xml version="1.0" encoding="utf-8" standalone="no"?>
<!DOCTYPE svg PUBLIC "-//W3C//DTD SVG 1.1//EN"
  "http://www.w3.org/Graphics/SVG/1.1/DTD/svg11.dtd">
<!-- Created with matplotlib (https://matplotlib.org/) -->
<svg height="345.6pt" version="1.1" viewBox="0 0 460.8 345.6" width="460.8pt" xmlns="http://www.w3.org/2000/svg" xmlns:xlink="http://www.w3.org/1999/xlink">
 <defs>
  <style type="text/css">
*{stroke-linecap:butt;stroke-linejoin:round;}
  </style>
 </defs>
 <g id="figure_1">
  <g id="patch_1">
   <path d="M 0 345.6 
L 460.8 345.6 
L 460.8 0 
L 0 0 
z
" style="fill:#ffffff;"/>
  </g>
  <g id="axes_1">
   <g id="patch_2">
    <path d="M 57.6 307.584 
L 343.296 307.584 
L 343.296 41.472 
L 57.6 41.472 
z
" style="fill:#ffffff;"/>
   </g>
   <g id="matplotlib.axis_1">
    <g id="xtick_1">
     <g id="line2d_1">
      <defs>
       <path d="M 0 0 
L 0 3.5 
" id="m74edf408d7" style="stroke:#000000;stroke-width:0.8;"/>
      </defs>
      <g>
       <use style="stroke:#000000;stroke-width:0.8;" x="57.6" xlink:href="#m74edf408d7" y="307.584"/>
      </g>
     </g>
     <g id="text_1">
      <!-- −2.0 -->
      <defs>
       <path d="M 10.59375 35.5 
L 73.1875 35.5 
L 73.1875 27.203125 
L 10.59375 27.203125 
z
" id="DejaVuSans-8722"/>
       <path d="M 19.1875 8.296875 
L 53.609375 8.296875 
L 53.609375 0 
L 7.328125 0 
L 7.328125 8.296875 
Q 12.9375 14.109375 22.625 23.890625 
Q 32.328125 33.6875 34.8125 36.53125 
Q 39.546875 41.84375 41.421875 45.53125 
Q 43.3125 49.21875 43.3125 52.78125 
Q 43.3125 58.59375 39.234375 62.25 
Q 35.15625 65.921875 28.609375 65.921875 
Q 23.96875 65.921875 18.8125 64.3125 
Q 13.671875 62.703125 7.8125 59.421875 
L 7.8125 69.390625 
Q 13.765625 71.78125 18.9375 73 
Q 24.125 74.21875 28.421875 74.21875 
Q 39.75 74.21875 46.484375 68.546875 
Q 53.21875 62.890625 53.21875 53.421875 
Q 53.21875 48.921875 51.53125 44.890625 
Q 49.859375 40.875 45.40625 35.40625 
Q 44.1875 33.984375 37.640625 27.21875 
Q 31.109375 20.453125 19.1875 8.296875 
z
" id="DejaVuSans-50"/>
       <path d="M 10.6875 12.40625 
L 21 12.40625 
L 21 0 
L 10.6875 0 
z
" id="DejaVuSans-46"/>
       <path d="M 31.78125 66.40625 
Q 24.171875 66.40625 20.328125 58.90625 
Q 16.5 51.421875 16.5 36.375 
Q 16.5 21.390625 20.328125 13.890625 
Q 24.171875 6.390625 31.78125 6.390625 
Q 39.453125 6.390625 43.28125 13.890625 
Q 47.125 21.390625 47.125 36.375 
Q 47.125 51.421875 43.28125 58.90625 
Q 39.453125 66.40625 31.78125 66.40625 
z
M 31.78125 74.21875 
Q 44.046875 74.21875 50.515625 64.515625 
Q 56.984375 54.828125 56.984375 36.375 
Q 56.984375 17.96875 50.515625 8.265625 
Q 44.046875 -1.421875 31.78125 -1.421875 
Q 19.53125 -1.421875 13.0625 8.265625 
Q 6.59375 17.96875 6.59375 36.375 
Q 6.59375 54.828125 13.0625 64.515625 
Q 19.53125 74.21875 31.78125 74.21875 
z
" id="DejaVuSans-48"/>
      </defs>
      <g transform="translate(45.458594 322.182437)scale(0.1 -0.1)">
       <use xlink:href="#DejaVuSans-8722"/>
       <use x="83.789062" xlink:href="#DejaVuSans-50"/>
       <use x="147.412109" xlink:href="#DejaVuSans-46"/>
       <use x="179.199219" xlink:href="#DejaVuSans-48"/>
      </g>
     </g>
    </g>
    <g id="xtick_2">
     <g id="line2d_2">
      <g>
       <use style="stroke:#000000;stroke-width:0.8;" x="93.312" xlink:href="#m74edf408d7" y="307.584"/>
      </g>
     </g>
     <g id="text_2">
      <!-- −1.5 -->
      <defs>
       <path d="M 12.40625 8.296875 
L 28.515625 8.296875 
L 28.515625 63.921875 
L 10.984375 60.40625 
L 10.984375 69.390625 
L 28.421875 72.90625 
L 38.28125 72.90625 
L 38.28125 8.296875 
L 54.390625 8.296875 
L 54.390625 0 
L 12.40625 0 
z
" id="DejaVuSans-49"/>
       <path d="M 10.796875 72.90625 
L 49.515625 72.90625 
L 49.515625 64.59375 
L 19.828125 64.59375 
L 19.828125 46.734375 
Q 21.96875 47.46875 24.109375 47.828125 
Q 26.265625 48.1875 28.421875 48.1875 
Q 40.625 48.1875 47.75 41.5 
Q 54.890625 34.8125 54.890625 23.390625 
Q 54.890625 11.625 47.5625 5.09375 
Q 40.234375 -1.421875 26.90625 -1.421875 
Q 22.3125 -1.421875 17.546875 -0.640625 
Q 12.796875 0.140625 7.71875 1.703125 
L 7.71875 11.625 
Q 12.109375 9.234375 16.796875 8.0625 
Q 21.484375 6.890625 26.703125 6.890625 
Q 35.15625 6.890625 40.078125 11.328125 
Q 45.015625 15.765625 45.015625 23.390625 
Q 45.015625 31 40.078125 35.4375 
Q 35.15625 39.890625 26.703125 39.890625 
Q 22.75 39.890625 18.8125 39.015625 
Q 14.890625 38.140625 10.796875 36.28125 
z
" id="DejaVuSans-53"/>
      </defs>
      <g transform="translate(81.170594 322.182437)scale(0.1 -0.1)">
       <use xlink:href="#DejaVuSans-8722"/>
       <use x="83.789062" xlink:href="#DejaVuSans-49"/>
       <use x="147.412109" xlink:href="#DejaVuSans-46"/>
       <use x="179.199219" xlink:href="#DejaVuSans-53"/>
      </g>
     </g>
    </g>
    <g id="xtick_3">
     <g id="line2d_3">
      <g>
       <use style="stroke:#000000;stroke-width:0.8;" x="129.024" xlink:href="#m74edf408d7" y="307.584"/>
      </g>
     </g>
     <g id="text_3">
      <!-- −1.0 -->
      <g transform="translate(116.882594 322.182437)scale(0.1 -0.1)">
       <use xlink:href="#DejaVuSans-8722"/>
       <use x="83.789062" xlink:href="#DejaVuSans-49"/>
       <use x="147.412109" xlink:href="#DejaVuSans-46"/>
       <use x="179.199219" xlink:href="#DejaVuSans-48"/>
      </g>
     </g>
    </g>
    <g id="xtick_4">
     <g id="line2d_4">
      <g>
       <use style="stroke:#000000;stroke-width:0.8;" x="164.736" xlink:href="#m74edf408d7" y="307.584"/>
      </g>
     </g>
     <g id="text_4">
      <!-- −0.5 -->
      <g transform="translate(152.594594 322.182437)scale(0.1 -0.1)">
       <use xlink:href="#DejaVuSans-8722"/>
       <use x="83.789062" xlink:href="#DejaVuSans-48"/>
       <use x="147.412109" xlink:href="#DejaVuSans-46"/>
       <use x="179.199219" xlink:href="#DejaVuSans-53"/>
      </g>
     </g>
    </g>
    <g id="xtick_5">
     <g id="line2d_5">
      <g>
       <use style="stroke:#000000;stroke-width:0.8;" x="200.448" xlink:href="#m74edf408d7" y="307.584"/>
      </g>
     </g>
     <g id="text_5">
      <!-- 0.0 -->
      <g transform="translate(192.496438 322.182437)scale(0.1 -0.1)">
       <use xlink:href="#DejaVuSans-48"/>
       <use x="63.623047" xlink:href="#DejaVuSans-46"/>
       <use x="95.410156" xlink:href="#DejaVuSans-48"/>
      </g>
     </g>
    </g>
    <g id="xtick_6">
     <g id="line2d_6">
      <g>
       <use style="stroke:#000000;stroke-width:0.8;" x="236.16" xlink:href="#m74edf408d7" y="307.584"/>
      </g>
     </g>
     <g id="text_6">
      <!-- 0.5 -->
      <g transform="translate(228.208438 322.182437)scale(0.1 -0.1)">
       <use xlink:href="#DejaVuSans-48"/>
       <use x="63.623047" xlink:href="#DejaVuSans-46"/>
       <use x="95.410156" xlink:href="#DejaVuSans-53"/>
      </g>
     </g>
    </g>
    <g id="xtick_7">
     <g id="line2d_7">
      <g>
       <use style="stroke:#000000;stroke-width:0.8;" x="271.872" xlink:href="#m74edf408d7" y="307.584"/>
      </g>
     </g>
     <g id="text_7">
      <!-- 1.0 -->
      <g transform="translate(263.920437 322.182437)scale(0.1 -0.1)">
       <use xlink:href="#DejaVuSans-49"/>
       <use x="63.623047" xlink:href="#DejaVuSans-46"/>
       <use x="95.410156" xlink:href="#DejaVuSans-48"/>
      </g>
     </g>
    </g>
    <g id="xtick_8">
     <g id="line2d_8">
      <g>
       <use style="stroke:#000000;stroke-width:0.8;" x="307.584" xlink:href="#m74edf408d7" y="307.584"/>
      </g>
     </g>
     <g id="text_8">
      <!-- 1.5 -->
      <g transform="translate(299.632437 322.182437)scale(0.1 -0.1)">
       <use xlink:href="#DejaVuSans-49"/>
       <use x="63.623047" xlink:href="#DejaVuSans-46"/>
       <use x="95.410156" xlink:href="#DejaVuSans-53"/>
      </g>
     </g>
    </g>
    <g id="xtick_9">
     <g id="line2d_9">
      <g>
       <use style="stroke:#000000;stroke-width:0.8;" x="343.296" xlink:href="#m74edf408d7" y="307.584"/>
      </g>
     </g>
     <g id="text_9">
      <!-- 2.0 -->
      <g transform="translate(335.344438 322.182437)scale(0.1 -0.1)">
       <use xlink:href="#DejaVuSans-50"/>
       <use x="63.623047" xlink:href="#DejaVuSans-46"/>
       <use x="95.410156" xlink:href="#DejaVuSans-48"/>
      </g>
     </g>
    </g>
   </g>
   <g id="matplotlib.axis_2">
    <g id="ytick_1">
     <g id="line2d_10">
      <defs>
       <path d="M 0 0 
L -3.5 0 
" id="m990ec6bb4d" style="stroke:#000000;stroke-width:0.8;"/>
      </defs>
      <g>
       <use style="stroke:#000000;stroke-width:0.8;" x="57.6" xlink:href="#m990ec6bb4d" y="307.584"/>
      </g>
     </g>
     <g id="text_10">
      <!-- −2.0 -->
      <g transform="translate(26.317187 311.383219)scale(0.1 -0.1)">
       <use xlink:href="#DejaVuSans-8722"/>
       <use x="83.789062" xlink:href="#DejaVuSans-50"/>
       <use x="147.412109" xlink:href="#DejaVuSans-46"/>
       <use x="179.199219" xlink:href="#DejaVuSans-48"/>
      </g>
     </g>
    </g>
    <g id="ytick_2">
     <g id="line2d_11">
      <g>
       <use style="stroke:#000000;stroke-width:0.8;" x="57.6" xlink:href="#m990ec6bb4d" y="274.32"/>
      </g>
     </g>
     <g id="text_11">
      <!-- −1.5 -->
      <g transform="translate(26.317187 278.119219)scale(0.1 -0.1)">
       <use xlink:href="#DejaVuSans-8722"/>
       <use x="83.789062" xlink:href="#DejaVuSans-49"/>
       <use x="147.412109" xlink:href="#DejaVuSans-46"/>
       <use x="179.199219" xlink:href="#DejaVuSans-53"/>
      </g>
     </g>
    </g>
    <g id="ytick_3">
     <g id="line2d_12">
      <g>
       <use style="stroke:#000000;stroke-width:0.8;" x="57.6" xlink:href="#m990ec6bb4d" y="241.056"/>
      </g>
     </g>
     <g id="text_12">
      <!-- −1.0 -->
      <g transform="translate(26.317187 244.855219)scale(0.1 -0.1)">
       <use xlink:href="#DejaVuSans-8722"/>
       <use x="83.789062" xlink:href="#DejaVuSans-49"/>
       <use x="147.412109" xlink:href="#DejaVuSans-46"/>
       <use x="179.199219" xlink:href="#DejaVuSans-48"/>
      </g>
     </g>
    </g>
    <g id="ytick_4">
     <g id="line2d_13">
      <g>
       <use style="stroke:#000000;stroke-width:0.8;" x="57.6" xlink:href="#m990ec6bb4d" y="207.792"/>
      </g>
     </g>
     <g id="text_13">
      <!-- −0.5 -->
      <g transform="translate(26.317187 211.591219)scale(0.1 -0.1)">
       <use xlink:href="#DejaVuSans-8722"/>
       <use x="83.789062" xlink:href="#DejaVuSans-48"/>
       <use x="147.412109" xlink:href="#DejaVuSans-46"/>
       <use x="179.199219" xlink:href="#DejaVuSans-53"/>
      </g>
     </g>
    </g>
    <g id="ytick_5">
     <g id="line2d_14">
      <g>
       <use style="stroke:#000000;stroke-width:0.8;" x="57.6" xlink:href="#m990ec6bb4d" y="174.528"/>
      </g>
     </g>
     <g id="text_14">
      <!-- 0.0 -->
      <g transform="translate(34.696875 178.327219)scale(0.1 -0.1)">
       <use xlink:href="#DejaVuSans-48"/>
       <use x="63.623047" xlink:href="#DejaVuSans-46"/>
       <use x="95.410156" xlink:href="#DejaVuSans-48"/>
      </g>
     </g>
    </g>
    <g id="ytick_6">
     <g id="line2d_15">
      <g>
       <use style="stroke:#000000;stroke-width:0.8;" x="57.6" xlink:href="#m990ec6bb4d" y="141.264"/>
      </g>
     </g>
     <g id="text_15">
      <!-- 0.5 -->
      <g transform="translate(34.696875 145.063219)scale(0.1 -0.1)">
       <use xlink:href="#DejaVuSans-48"/>
       <use x="63.623047" xlink:href="#DejaVuSans-46"/>
       <use x="95.410156" xlink:href="#DejaVuSans-53"/>
      </g>
     </g>
    </g>
    <g id="ytick_7">
     <g id="line2d_16">
      <g>
       <use style="stroke:#000000;stroke-width:0.8;" x="57.6" xlink:href="#m990ec6bb4d" y="108"/>
      </g>
     </g>
     <g id="text_16">
      <!-- 1.0 -->
      <g transform="translate(34.696875 111.799219)scale(0.1 -0.1)">
       <use xlink:href="#DejaVuSans-49"/>
       <use x="63.623047" xlink:href="#DejaVuSans-46"/>
       <use x="95.410156" xlink:href="#DejaVuSans-48"/>
      </g>
     </g>
    </g>
    <g id="ytick_8">
     <g id="line2d_17">
      <g>
       <use style="stroke:#000000;stroke-width:0.8;" x="57.6" xlink:href="#m990ec6bb4d" y="74.736"/>
      </g>
     </g>
     <g id="text_17">
      <!-- 1.5 -->
      <g transform="translate(34.696875 78.535219)scale(0.1 -0.1)">
       <use xlink:href="#DejaVuSans-49"/>
       <use x="63.623047" xlink:href="#DejaVuSans-46"/>
       <use x="95.410156" xlink:href="#DejaVuSans-53"/>
      </g>
     </g>
    </g>
    <g id="ytick_9">
     <g id="line2d_18">
      <g>
       <use style="stroke:#000000;stroke-width:0.8;" x="57.6" xlink:href="#m990ec6bb4d" y="41.472"/>
      </g>
     </g>
     <g id="text_18">
      <!-- 2.0 -->
      <g transform="translate(34.696875 45.271219)scale(0.1 -0.1)">
       <use xlink:href="#DejaVuSans-50"/>
       <use x="63.623047" xlink:href="#DejaVuSans-46"/>
       <use x="95.410156" xlink:href="#DejaVuSans-48"/>
      </g>
     </g>
    </g>
   </g>
   <g id="LineCollection_1"/>
   <g id="LineCollection_2">
    <path clip-path="url(#p858b92a4f3)" d="M 230.639317 307.584 
L 229.878995 307.327735 
L 228.443337 306.870312 
L 227.007678 306.443938 
L 226.304964 306.246754 
L 225.57202 306.02538 
L 224.136362 305.616378 
L 222.700704 305.235758 
L 221.380333 304.909508 
L 221.265045 304.878767 
L 219.829387 304.515479 
L 218.393729 304.178481 
L 216.95807 303.866204 
L 215.522412 303.577245 
L 215.496071 303.572261 
L 214.086754 303.283373 
L 212.651095 303.012333 
L 211.215437 302.763442 
L 209.779779 302.53562 
L 208.344121 302.327895 
L 207.641402 302.235015 
L 206.908462 302.129582 
L 205.472804 301.942149 
L 204.037146 301.774341 
L 202.601487 301.62542 
L 201.165829 301.494727 
L 199.730171 301.381676 
L 198.294513 301.285743 
L 196.858854 301.206468 
L 195.423196 301.143447 
L 193.987538 301.096329 
L 192.551879 301.064813 
L 191.116221 301.048648 
L 189.680563 301.047628 
L 188.244905 301.061592 
L 186.809246 301.090423 
L 185.373588 301.134046 
L 183.93793 301.192431 
L 182.502271 301.265587 
L 181.066613 301.35357 
L 179.630955 301.456478 
L 178.195296 301.574454 
L 176.759638 301.70769 
L 175.32398 301.856424 
L 173.888322 302.020946 
L 172.452663 302.201603 
L 172.207402 302.235015 
L 171.017005 302.38309 
L 169.581347 302.576545 
L 168.145688 302.785585 
L 166.71003 303.010699 
L 165.274372 303.25244 
L 163.838714 303.511433 
L 163.519658 303.572261 
L 162.403055 303.767266 
L 160.967397 304.033692 
L 159.531739 304.317325 
L 158.09608 304.618961 
L 156.792502 304.909508 
L 156.660422 304.936529 
L 155.224764 305.242997 
L 153.789106 305.567728 
L 152.353447 305.911722 
L 151.031108 306.246754 
L 150.917789 306.273151 
L 149.482131 306.62001 
L 148.046472 306.986706 
L 146.610814 307.374489 
L 145.868655 307.584 
" style="fill:none;stroke:#00f684;stroke-width:1.5;"/>
    <path clip-path="url(#p858b92a4f3)" d="M 57.6 229.383431 
L 58.098538 228.686472 
L 59.013774 227.349226 
L 59.035658 227.316603 
L 59.935844 226.01198 
L 60.471317 225.196547 
L 60.824144 224.674734 
L 61.693371 223.337487 
L 61.906975 222.997242 
L 62.552792 222.000241 
L 63.342633 220.710419 
L 63.372632 220.662995 
L 64.196893 219.325749 
L 64.778291 218.324766 
L 64.98048 217.988503 
L 65.754591 216.651256 
L 66.21395 215.812404 
L 66.497105 215.31401 
L 67.223106 213.976764 
L 67.649608 213.145038 
L 67.919165 212.639518 
L 68.598629 211.302271 
L 69.085266 210.280912 
L 69.24214 209.965025 
L 69.876168 208.627779 
L 70.464658 207.290533 
L 70.520925 207.156533 
L 71.049363 205.953286 
L 71.594747 204.61604 
L 71.956583 203.664208 
L 72.110222 203.278794 
L 72.612279 201.941548 
L 73.074253 200.604302 
L 73.392241 199.607794 
L 73.506698 199.267055 
L 73.925412 197.929809 
L 74.306813 196.592563 
L 74.652597 195.255317 
L 74.827899 194.509934 
L 74.975208 193.91807 
L 75.276453 192.580824 
L 75.54361 191.243578 
L 75.777869 189.906332 
L 75.980278 188.569085 
L 76.151753 187.231839 
L 76.263558 186.176795 
L 76.29548 185.894593 
L 76.416439 184.557347 
L 76.506171 183.220101 
L 76.565165 181.882854 
L 76.593785 180.545608 
L 76.592282 179.208362 
L 76.560787 177.871116 
L 76.499313 176.533869 
L 76.407752 175.196623 
L 76.285871 173.859377 
L 76.263558 173.663662 
L 76.143452 172.522131 
L 75.974173 171.184884 
L 75.77578 169.847638 
L 75.547606 168.510392 
L 75.288835 167.173146 
L 74.998483 165.835899 
L 74.827899 165.126787 
L 74.687648 164.498653 
L 74.359576 163.161407 
L 73.999345 161.824161 
L 73.6054 160.486915 
L 73.392241 159.818099 
L 73.193802 159.149668 
L 72.766032 157.812422 
L 72.302687 156.475176 
L 71.956583 155.546231 
L 71.814517 155.13793 
L 71.31925 153.800683 
L 70.785516 152.463437 
L 70.520925 151.840156 
L 70.237201 151.126191 
L 69.672134 149.788945 
L 69.085266 148.496362 
L 69.066252 148.451698 
L 68.470523 147.114452 
L 67.830669 145.777206 
L 67.649608 145.416846 
L 67.188405 144.43996 
L 66.51629 143.102714 
L 66.21395 142.531673 
L 65.832202 141.765467 
L 65.127255 140.428221 
L 64.778291 139.799944 
L 64.407209 139.090975 
L 63.668387 137.753729 
L 63.342633 137.192415 
L 62.917715 136.416482 
L 62.143458 135.079236 
L 61.906975 134.687804 
L 61.367086 133.74199 
L 60.555241 132.404744 
L 60.471317 132.270847 
L 59.757811 131.067497 
L 59.035658 129.925459 
L 58.918797 129.730251 
L 58.091494 128.393005 
L 57.6 127.640757 
" style="fill:none;stroke:#00f684;stroke-width:1.5;"/>
    <path clip-path="url(#p858b92a4f3)" d="M 343.296 221.558494 
L 342.473254 222.000241 
L 341.860342 222.324657 
L 340.424683 223.102195 
L 339.998561 223.337487 
L 338.989025 223.888186 
L 337.591619 224.674734 
L 337.553367 224.696039 
L 336.117709 225.506026 
L 335.247583 226.01198 
L 334.68205 226.338119 
L 333.246392 227.186779 
L 332.976508 227.349226 
L 331.810734 228.046796 
L 330.773026 228.686472 
L 330.375075 228.930785 
L 328.939417 229.83196 
L 328.639843 230.023719 
L 327.503759 230.749808 
L 326.573798 231.360965 
L 326.068101 231.693441 
L 324.632442 232.661938 
L 324.579436 232.698211 
L 323.196784 233.647361 
L 322.645704 234.035457 
L 321.761126 234.661732 
L 320.781268 235.372704 
L 320.325467 235.705926 
L 318.983977 236.70995 
L 318.889809 236.781126 
L 317.454151 237.884662 
L 317.246724 238.047196 
L 316.018492 239.022336 
L 315.571685 239.384442 
L 314.582834 240.198547 
L 313.959564 240.721688 
L 313.147176 241.416272 
L 312.408964 242.058935 
L 311.711518 242.679206 
L 310.918717 243.396181 
L 310.275859 243.991909 
L 309.487892 244.733427 
L 308.840201 245.360018 
L 308.115814 246.070673 
L 307.404543 246.790505 
L 306.802073 247.40792 
L 305.968884 248.292031 
L 305.546542 248.745166 
L 304.533226 249.875407 
L 304.349393 250.082412 
L 303.207523 251.419658 
L 303.097568 251.553659 
L 302.117258 252.756905 
L 301.66191 253.345141 
L 301.085266 254.094151 
L 300.226251 255.275026 
L 300.112924 255.431397 
L 299.187891 256.768643 
L 298.790593 257.380137 
L 298.319537 258.105889 
L 297.508466 259.443136 
L 297.354935 259.711896 
L 296.743413 260.780382 
L 296.039259 262.117628 
L 295.919276 262.361428 
L 295.378471 263.454874 
L 294.775404 264.792121 
L 294.483618 265.49958 
L 294.221696 266.129367 
L 293.715094 267.466613 
L 293.264501 268.803859 
L 293.04796 269.524085 
L 292.859972 270.141106 
L 292.499705 271.478352 
L 292.190526 272.815598 
L 291.930472 274.152844 
L 291.717738 275.49009 
L 291.612302 276.327086 
L 291.547882 276.827337 
L 291.419299 278.164583 
L 291.335334 279.501829 
L 291.29477 280.839075 
L 291.29654 282.176322 
L 291.33973 283.513568 
L 291.423583 284.850814 
L 291.547503 286.18806 
L 291.612302 286.714159 
L 291.706212 287.525307 
L 291.898898 288.862553 
L 292.12848 290.199799 
L 292.394939 291.537045 
L 292.698461 292.874291 
L 293.039472 294.211538 
L 293.04796 294.241398 
L 293.398401 295.548784 
L 293.7927 296.88603 
L 294.223765 298.223276 
L 294.483618 298.964681 
L 294.680873 299.560523 
L 295.159212 300.897769 
L 295.674869 302.235015 
L 295.919276 302.826292 
L 296.210993 303.572261 
L 296.769671 304.909508 
L 297.354935 306.21833 
L 297.366973 306.246754 
L 297.965803 307.584 
" style="fill:none;stroke:#00f684;stroke-width:1.5;"/>
    <path clip-path="url(#p858b92a4f3)" d="M 57.6 95.030518 
L 64.778291 99.345762 
L 73.588886 104.322573 
L 79.134874 107.264224 
L 84.877508 110.104645 
L 90.620141 112.711611 
L 96.362774 115.056672 
L 100.669749 116.646854 
L 104.976724 118.064889 
L 109.283698 119.304417 
L 113.655065 120.369528 
L 117.897648 121.233752 
L 122.204623 121.902738 
L 126.511598 122.382112 
L 130.818573 122.653233 
L 135.125548 122.722357 
L 139.432523 122.591115 
L 143.739497 122.257159 
L 148.095274 121.706774 
L 152.353447 120.990856 
L 156.660422 120.061822 
L 160.967397 118.939797 
L 165.274372 117.631967 
L 169.581347 116.141125 
L 173.888322 114.466255 
L 179.630955 111.943797 
L 185.373588 109.100342 
L 191.580124 105.659819 
L 196.001093 102.985327 
L 201.165829 99.628091 
L 206.908462 95.608618 
L 214.086754 90.233599 
L 229.878995 78.171015 
L 234.18597 75.239418 
L 237.057286 73.450859 
L 241.682912 70.891417 
L 245.671236 69.00962 
L 249.978211 67.278005 
L 252.849528 66.286054 
L 257.156503 65.000688 
L 261.463477 63.917232 
L 267.206111 62.718028 
L 275.82006 61.27614 
L 290.176643 59.273684 
L 307.404543 56.781861 
L 317.454151 55.065701 
L 330.375075 52.506143 
L 343.296 49.51017 
L 343.296 49.51017 
" style="fill:none;stroke:#00f684;stroke-width:1.5;"/>
   </g>
   <g id="LineCollection_3">
    <path clip-path="url(#p858b92a4f3)" d="M 343.296 238.767126 
L 342.290383 239.384442 
L 341.860342 239.648507 
L 340.424683 240.552036 
L 340.160675 240.721688 
L 338.989025 241.476889 
L 338.111705 242.058935 
L 337.553367 242.431262 
L 336.146358 243.396181 
L 336.117709 243.415973 
L 334.68205 244.425151 
L 334.2547 244.733427 
L 333.246392 245.468403 
L 332.440952 246.070673 
L 331.810734 246.547994 
L 330.702757 247.40792 
L 330.375075 247.666163 
L 329.037484 248.745166 
L 328.939417 248.825705 
L 327.503759 250.02923 
L 327.44151 250.082412 
L 326.068101 251.281603 
L 325.913152 251.419658 
L 324.632442 252.589359 
L 324.452435 252.756905 
L 323.196784 253.958762 
L 323.057803 254.094151 
L 321.761126 255.397544 
L 321.727989 255.431397 
L 320.458909 256.768643 
L 320.325467 256.914468 
L 319.250551 258.105889 
L 318.889809 258.522683 
L 318.103183 259.443136 
L 317.454151 260.238351 
L 317.016672 260.780382 
L 316.018492 262.081752 
L 315.991238 262.117628 
L 315.015799 263.454874 
L 314.582834 264.084555 
L 314.099801 264.792121 
L 313.242445 266.129367 
L 313.147176 266.286002 
L 312.432436 267.466613 
L 311.711518 268.75517 
L 311.684354 268.803859 
L 310.979217 270.141106 
L 310.335084 271.478352 
L 310.275859 271.610005 
L 309.733026 272.815598 
L 309.186333 274.152844 
L 308.840201 275.085943 
L 308.689682 275.49009 
L 308.235834 276.827337 
L 307.833676 278.164583 
L 307.481178 279.501829 
L 307.404543 279.832022 
L 307.168543 280.839075 
L 306.900639 282.176322 
L 306.67843 283.513568 
L 306.50038 284.850814 
L 306.365077 286.18806 
L 306.271227 287.525307 
L 306.21765 288.862553 
L 306.203281 290.199799 
L 306.227169 291.537045 
L 306.288479 292.874291 
L 306.386493 294.211538 
L 306.520615 295.548784 
L 306.690373 296.88603 
L 306.895434 298.223276 
L 307.135603 299.560523 
L 307.404543 300.866879 
L 307.410576 300.897769 
L 307.707343 302.235015 
L 308.037363 303.572261 
L 308.400955 304.909508 
L 308.798644 306.246754 
L 308.840201 306.37496 
L 309.212715 307.584 
" style="fill:none;stroke:#00ec89;stroke-width:1.5;"/>
    <path clip-path="url(#p858b92a4f3)" d="M 57.6 209.641024 
L 58.087242 208.627779 
L 58.692121 207.290533 
L 59.035658 206.485645 
L 59.272407 205.953286 
L 59.836223 204.61604 
L 60.360982 203.278794 
L 60.471317 202.982233 
L 60.875936 201.941548 
L 61.361013 200.604302 
L 61.810153 199.267055 
L 61.906975 198.960339 
L 62.247998 197.929809 
L 62.657686 196.592563 
L 63.033797 195.255317 
L 63.342633 194.056997 
L 63.380293 193.91807 
L 63.715983 192.580824 
L 64.019757 191.243578 
L 64.292765 189.906332 
L 64.536038 188.569085 
L 64.750492 187.231839 
L 64.778291 187.034674 
L 64.948508 185.894593 
L 65.119291 184.557347 
L 65.261497 183.220101 
L 65.375713 181.882854 
L 65.462431 180.545608 
L 65.522056 179.208362 
L 65.554902 177.871116 
L 65.561201 176.533869 
L 65.541098 175.196623 
L 65.494655 173.859377 
L 65.421846 172.522131 
L 65.322559 171.184884 
L 65.19659 169.847638 
L 65.04364 168.510392 
L 64.86331 167.173146 
L 64.778291 166.626039 
L 64.663883 165.835899 
L 64.444221 164.498653 
L 64.197678 163.161407 
L 63.923517 161.824161 
L 63.620872 160.486915 
L 63.342633 159.365028 
L 63.292673 159.149668 
L 62.956651 157.812422 
L 62.591545 156.475176 
L 62.196065 155.13793 
L 61.906975 154.229294 
L 61.779056 153.800683 
L 61.35311 152.463437 
L 60.895236 151.126191 
L 60.471317 149.970478 
L 60.408723 149.788945 
L 59.921854 148.451698 
L 59.400754 147.114452 
L 59.035658 146.232651 
L 58.858052 145.777206 
L 58.308447 144.43996 
L 57.721407 143.102714 
L 57.6 142.838689 
" style="fill:none;stroke:#00ec89;stroke-width:1.5;"/>
    <path clip-path="url(#p858b92a4f3)" d="M 57.6 87.64112 
L 67.649608 93.108836 
L 76.263558 97.323865 
L 83.441849 100.449886 
L 87.748824 102.147396 
L 93.491457 104.162999 
L 99.23409 105.899827 
L 103.541065 106.998201 
L 107.84804 107.932816 
L 113.590673 108.885401 
L 117.897648 109.377432 
L 122.204623 109.674335 
L 126.511598 109.78451 
L 131.245448 109.671558 
L 135.125548 109.411181 
L 139.432523 108.928228 
L 143.739497 108.238648 
L 148.046472 107.358616 
L 152.353447 106.277022 
L 156.660422 104.994432 
L 160.967397 103.51115 
L 166.71003 101.219439 
L 171.609072 98.973588 
L 175.32398 97.100477 
L 181.066613 93.88865 
L 185.81278 90.950111 
L 189.812779 88.275618 
L 193.987538 85.300257 
L 199.730171 80.92575 
L 207.203915 74.903156 
L 215.522412 68.272868 
L 219.254208 65.542432 
L 223.28595 62.86794 
L 227.007678 60.702844 
L 230.672136 58.856201 
L 234.18597 57.352108 
L 238.492945 55.828148 
L 242.79992 54.598549 
L 247.625279 53.507216 
L 252.849528 52.606669 
L 258.592161 51.839321 
L 267.206111 50.974491 
L 278.691377 50.072129 
L 294.483618 48.754409 
L 304.533226 47.683214 
L 313.147176 46.557519 
L 320.325467 45.454545 
L 327.828653 44.146492 
L 334.68205 42.808667 
L 340.92308 41.472 
L 340.92308 41.472 
" style="fill:none;stroke:#00ec89;stroke-width:1.5;"/>
   </g>
   <g id="LineCollection_4">
    <path clip-path="url(#p858b92a4f3)" d="M 343.296 251.151721 
L 342.923385 251.419658 
L 341.860342 252.193535 
L 341.107075 252.756905 
L 340.424683 253.27486 
L 339.372922 254.094151 
L 338.989025 254.398427 
L 337.717693 255.431397 
L 337.553367 255.567619 
L 336.138397 256.768643 
L 336.117709 256.78661 
L 334.68205 258.060071 
L 334.631479 258.105889 
L 333.246392 259.395379 
L 333.196131 259.443136 
L 331.830319 260.780382 
L 331.810734 260.800167 
L 330.530479 262.117628 
L 330.375075 262.283467 
L 329.295989 263.454874 
L 328.939417 263.857891 
L 328.125703 264.792121 
L 327.503759 265.538828 
L 327.018823 266.129367 
L 326.068101 267.345854 
L 325.974912 267.466613 
L 324.985967 268.803859 
L 324.632442 269.30898 
L 324.056068 270.141106 
L 323.196784 271.46427 
L 323.187719 271.478352 
L 322.36703 272.815598 
L 321.761126 273.880746 
L 321.607306 274.152844 
L 320.895717 275.49009 
L 320.325467 276.656497 
L 320.242244 276.827337 
L 319.632884 278.164583 
L 319.079824 279.501829 
L 318.889809 280.002424 
L 318.572176 280.839075 
L 318.112214 282.176322 
L 317.703036 283.513568 
L 317.454151 284.430028 
L 317.339381 284.850814 
L 317.016566 286.18806 
L 316.740105 287.525307 
L 316.508372 288.862553 
L 316.319855 290.199799 
L 316.173151 291.537045 
L 316.066963 292.874291 
L 316.018492 293.838559 
L 315.999477 294.211538 
L 315.969851 295.548784 
L 315.978736 296.88603 
L 316.018492 298.025556 
L 316.025049 298.223276 
L 316.105593 299.560523 
L 316.221032 300.897769 
L 316.370794 302.235015 
L 316.554419 303.572261 
L 316.771568 304.909508 
L 317.022025 306.246754 
L 317.305712 307.584 
" style="fill:none;stroke:#00e28e;stroke-width:1.5;"/>
    <path clip-path="url(#p858b92a4f3)" d="M 57.6 186.650491 
L 57.726356 185.894593 
L 57.923192 184.557347 
L 58.092744 183.220101 
L 58.235621 181.882854 
L 58.352353 180.545608 
L 58.443389 179.208362 
L 58.509105 177.871116 
L 58.549804 176.533869 
L 58.565716 175.196623 
L 58.557003 173.859377 
L 58.523755 172.522131 
L 58.465992 171.184884 
L 58.383662 169.847638 
L 58.276639 168.510392 
L 58.144723 167.173146 
L 57.987634 165.835899 
L 57.805007 164.498653 
L 57.6 163.184464 
" style="fill:none;stroke:#00e28e;stroke-width:1.5;"/>
    <path clip-path="url(#p858b92a4f3)" d="M 57.6 82.603973 
L 66.21395 86.962475 
L 71.956583 89.61609 
L 76.263558 91.467773 
L 82.006191 93.705161 
L 86.313166 95.222682 
L 92.055799 97.004474 
L 97.798432 98.493162 
L 103.541065 99.67892 
L 107.84804 100.353467 
L 112.155015 100.857832 
L 116.46199 101.167861 
L 120.768965 101.286171 
L 125.07594 101.211879 
L 129.382915 100.941012 
L 133.689889 100.466706 
L 137.996864 99.798594 
L 142.303839 98.919449 
L 146.610814 97.842124 
L 151.687347 96.299095 
L 155.471824 94.961849 
L 159.531739 93.346105 
L 163.838714 91.416682 
L 168.145688 89.26188 
L 172.452663 86.876533 
L 176.759638 84.260131 
L 181.066613 81.411235 
L 186.380798 77.577648 
L 191.523338 73.56591 
L 198.294513 67.96778 
L 206.093222 61.530693 
L 209.779779 58.704771 
L 214.086754 55.733096 
L 217.789295 53.507216 
L 221.265045 51.71883 
L 224.136362 50.447554 
L 227.007678 49.348617 
L 231.314653 47.999824 
L 236.226016 46.820985 
L 239.928603 46.148406 
L 245.671236 45.353771 
L 251.413869 44.813505 
L 260.027819 44.265298 
L 272.948744 43.728456 
L 287.305327 43.054932 
L 298.790593 42.253779 
L 306.854802 41.472 
L 306.854802 41.472 
" style="fill:none;stroke:#00e28e;stroke-width:1.5;"/>
   </g>
   <g id="LineCollection_5">
    <path clip-path="url(#p858b92a4f3)" d="M 343.296 261.614192 
L 342.716 262.117628 
L 341.860342 262.87948 
L 341.228881 263.454874 
L 340.424683 264.208957 
L 339.816207 264.792121 
L 338.989025 265.610701 
L 338.475558 266.129367 
L 337.553367 267.094741 
L 337.204869 267.466613 
L 336.117709 268.673594 
L 336.002439 268.803859 
L 334.86369 270.141106 
L 334.68205 270.363845 
L 333.787287 271.478352 
L 333.246392 272.187783 
L 332.774433 272.815598 
L 331.824519 274.152844 
L 331.810734 274.173145 
L 330.927012 275.49009 
L 330.375075 276.369834 
L 330.090959 276.827337 
L 329.309 278.164583 
L 328.939417 278.841758 
L 328.581939 279.501829 
L 327.907673 280.839075 
L 327.503759 281.707371 
L 327.286721 282.176322 
L 326.713217 283.513568 
L 326.194148 284.850814 
L 326.068101 285.205019 
L 325.718761 286.18806 
L 325.291356 287.525307 
L 324.913071 288.862553 
L 324.632442 289.992069 
L 324.580693 290.199799 
L 324.287362 291.537045 
L 324.038893 292.874291 
L 323.833754 294.211538 
L 323.67052 295.548784 
L 323.547868 296.88603 
L 323.464575 298.223276 
L 323.419517 299.560523 
L 323.411665 300.897769 
L 323.440091 302.235015 
L 323.50396 303.572261 
L 323.602539 304.909508 
L 323.735194 306.246754 
L 323.901394 307.584 
" style="fill:none;stroke:#00d893;stroke-width:1.5;"/>
    <path clip-path="url(#p858b92a4f3)" d="M 57.6 78.607332 
L 66.21395 82.679466 
L 73.392241 85.69501 
L 79.134874 87.844536 
L 84.877508 89.724792 
L 89.184482 90.95629 
L 93.491457 92.032995 
L 99.23409 93.202036 
L 104.976724 94.057485 
L 109.283698 94.4875 
L 113.590673 94.728404 
L 117.897648 94.78029 
L 122.204623 94.640169 
L 126.511598 94.302228 
L 131.659342 93.624603 
L 135.125548 93.01661 
L 139.432523 92.061565 
L 143.739497 90.895165 
L 148.046472 89.515341 
L 152.353447 87.916066 
L 156.660422 86.087737 
L 160.967397 84.023499 
L 165.501337 81.589387 
L 169.984077 78.914894 
L 174.066152 76.240402 
L 178.195296 73.306071 
L 183.07419 69.554171 
L 188.244905 65.295861 
L 201.165829 54.428138 
L 204.140657 52.16997 
L 208.344121 49.315193 
L 211.215437 47.61808 
L 214.086754 46.126716 
L 216.95807 44.837151 
L 219.829387 43.734487 
L 222.700704 42.795805 
L 227.007678 41.682068 
L 227.957377 41.472 
L 227.957377 41.472 
" style="fill:none;stroke:#00d893;stroke-width:1.5;"/>
   </g>
   <g id="LineCollection_6">
    <path clip-path="url(#p858b92a4f3)" d="M 343.296 271.287866 
L 343.117884 271.478352 
L 341.915094 272.815598 
L 341.860342 272.878829 
L 340.777287 274.152844 
L 340.424683 274.587804 
L 339.705527 275.49009 
L 338.989025 276.437562 
L 338.698781 276.827337 
L 337.752878 278.164583 
L 337.553367 278.461786 
L 336.864314 279.501829 
L 336.117709 280.708647 
L 336.037944 280.839075 
L 335.262707 282.176322 
L 334.68205 283.259461 
L 334.547057 283.513568 
L 333.880271 284.850814 
L 333.271325 286.18806 
L 333.246392 286.246756 
L 332.70633 287.525307 
L 332.194765 288.862553 
L 331.810734 289.974747 
L 331.733244 290.199799 
L 331.313578 291.537045 
L 330.942565 292.874291 
L 330.618381 294.211538 
L 330.375075 295.373965 
L 330.338404 295.548784 
L 330.096746 296.88603 
L 329.897979 298.223276 
L 329.740702 299.560523 
L 329.623615 300.897769 
L 329.545513 302.235015 
L 329.505288 303.572261 
L 329.501928 304.909508 
L 329.534512 306.246754 
L 329.602218 307.584 
" style="fill:none;stroke:#00ce98;stroke-width:1.5;"/>
    <path clip-path="url(#p858b92a4f3)" d="M 57.6 75.223061 
L 63.342633 77.825847 
L 69.207585 80.252141 
L 74.827899 82.359162 
L 80.635274 84.263879 
L 85.306441 85.601126 
L 89.184482 86.579044 
L 94.927116 87.769895 
L 100.669749 88.652394 
L 104.976724 89.107065 
L 109.283698 89.374207 
L 113.590673 89.453502 
L 117.897648 89.341628 
L 122.204623 89.032504 
L 126.511598 88.51739 
L 130.818573 87.799787 
L 135.125548 86.866006 
L 139.828873 85.601126 
L 143.989005 84.263879 
L 148.046472 82.755942 
L 152.353447 80.925189 
L 156.660422 78.844514 
L 161.441432 76.240402 
L 165.829581 73.56591 
L 169.819356 70.891417 
L 173.888322 67.928209 
L 178.610454 64.205186 
L 183.93793 59.708219 
L 195.873668 49.495477 
L 199.730171 46.576269 
L 203.37119 44.146492 
L 205.634078 42.809246 
L 208.178367 41.472 
L 208.178367 41.472 
" style="fill:none;stroke:#00ce98;stroke-width:1.5;"/>
   </g>
   <g id="LineCollection_7">
    <path clip-path="url(#p858b92a4f3)" d="M 343.296 280.959227 
L 342.459888 282.176322 
L 341.860342 283.108051 
L 341.60293 283.513568 
L 340.802233 284.850814 
L 340.424683 285.525778 
L 340.058358 286.18806 
L 339.369054 287.525307 
L 338.989025 288.322222 
L 338.733583 288.862553 
L 338.147819 290.199799 
L 337.616617 291.537045 
L 337.553367 291.709755 
L 337.129077 292.874291 
L 336.691225 294.211538 
L 336.302379 295.548784 
L 336.117709 296.263574 
L 335.957103 296.88603 
L 335.65386 298.223276 
L 335.39512 299.560523 
L 335.179333 300.897769 
L 335.00505 302.235015 
L 334.870915 303.572261 
L 334.775672 304.909508 
L 334.718153 306.246754 
L 334.697285 307.584 
" style="fill:none;stroke:#00c49d;stroke-width:1.5;"/>
    <path clip-path="url(#p858b92a4f3)" d="M 57.6 72.245626 
L 63.342633 74.709871 
L 70.855666 77.577648 
L 74.827899 78.929197 
L 79.136783 80.252141 
L 84.122426 81.589387 
L 87.748824 82.438825 
L 93.491457 83.528827 
L 98.883196 84.263879 
L 102.105407 84.580732 
L 106.412382 84.835868 
L 110.719357 84.900596 
L 115.026332 84.770986 
L 119.333307 84.440333 
L 123.640281 83.910012 
L 127.947256 83.167973 
L 132.254231 82.213813 
L 136.561206 81.036375 
L 140.868181 79.630708 
L 145.175156 77.987727 
L 149.482131 76.097686 
L 153.789106 73.954629 
L 158.09608 71.543475 
L 162.403055 68.854786 
L 167.176771 65.542432 
L 171.017005 62.629534 
L 175.634682 58.856201 
L 181.772831 53.507216 
L 189.680563 46.594864 
L 193.987538 43.176647 
L 196.362838 41.472 
L 196.362838 41.472 
" style="fill:none;stroke:#00c49d;stroke-width:1.5;"/>
   </g>
   <g id="LineCollection_8">
    <path clip-path="url(#p858b92a4f3)" d="M 343.296 291.76499 
L 342.802144 292.874291 
L 342.259137 294.211538 
L 341.860342 295.294249 
L 341.767189 295.548784 
L 341.318993 296.88603 
L 340.920179 298.223276 
L 340.568856 299.560523 
L 340.424683 300.183663 
L 340.25974 300.897769 
L 339.992308 302.235015 
L 339.768058 303.572261 
L 339.58552 304.909508 
L 339.44332 306.246754 
L 339.340177 307.584 
" style="fill:none;stroke:#00bba2;stroke-width:1.5;"/>
    <path clip-path="url(#p858b92a4f3)" d="M 57.6 69.575205 
L 63.342633 71.912388 
L 70.520925 74.498263 
L 76.263558 76.277858 
L 81.131411 77.577648 
L 84.877508 78.451631 
L 90.620141 79.536774 
L 95.863047 80.252141 
L 99.23409 80.585225 
L 103.541065 80.8395 
L 107.84804 80.903765 
L 112.155015 80.773518 
L 116.46199 80.441528 
L 120.768965 79.90778 
L 125.07594 79.160373 
L 129.382915 78.197207 
L 133.689889 77.006564 
L 137.996864 75.58201 
L 142.303839 73.912928 
L 146.610814 71.989656 
L 151.367955 69.554171 
L 155.224764 67.333873 
L 159.531739 64.576068 
L 163.838714 61.520418 
L 168.145688 58.177613 
L 172.452663 54.568175 
L 179.6476 48.158231 
L 185.725394 42.809246 
L 187.3394 41.472 
L 187.3394 41.472 
" style="fill:none;stroke:#00bba2;stroke-width:1.5;"/>
   </g>
   <g id="LineCollection_9">
    <path clip-path="url(#p858b92a4f3)" d="M 57.6 67.13972 
L 59.035658 67.717312 
L 60.331797 68.216925 
L 60.471317 68.27274 
L 61.906975 68.825478 
L 63.342633 69.354061 
L 63.909411 69.554171 
L 64.778291 69.872709 
L 66.21395 70.37624 
L 67.649608 70.85695 
L 67.757232 70.891417 
L 69.085266 71.333262 
L 70.520925 71.788292 
L 71.956583 72.221426 
L 71.981791 72.228663 
L 73.392241 72.64955 
L 74.827899 73.055997 
L 76.263558 73.441133 
L 76.755528 73.56591 
L 77.699216 73.814818 
L 79.134874 74.1719 
L 80.570533 74.507968 
L 82.006191 74.823465 
L 82.394593 74.903156 
L 83.441849 75.126754 
L 84.877508 75.41207 
L 86.313166 75.676734 
L 87.748824 75.921015 
L 89.184482 76.145126 
L 89.856815 76.240402 
L 90.620141 76.353048 
L 92.055799 76.543567 
L 93.491457 76.713414 
L 94.927116 76.862664 
L 96.362774 76.991351 
L 97.798432 77.099467 
L 99.23409 77.186967 
L 100.669749 77.253768 
L 102.105407 77.299752 
L 103.541065 77.324766 
L 104.976724 77.328623 
L 106.412382 77.311103 
L 107.84804 77.271953 
L 109.283698 77.210889 
L 110.719357 77.127594 
L 112.155015 77.021719 
L 113.590673 76.892883 
L 115.026332 76.740673 
L 116.46199 76.564643 
L 117.897648 76.364316 
L 118.693367 76.240402 
L 119.333307 76.141812 
L 120.768965 75.897731 
L 122.204623 75.62823 
L 123.640281 75.332695 
L 125.07594 75.010476 
L 125.522148 74.903156 
L 126.511598 74.666672 
L 127.947256 74.297847 
L 129.382915 73.900657 
L 130.514761 73.56591 
L 130.818573 73.476364 
L 132.254231 73.03013 
L 133.689889 72.553507 
L 134.614863 72.228663 
L 135.125548 72.049448 
L 136.561206 71.52052 
L 137.996864 70.958848 
L 138.162611 70.891417 
L 139.432523 70.373852 
L 140.868181 69.755858 
L 141.318263 69.554171 
L 142.303839 69.110907 
L 143.739497 68.433698 
L 144.182227 68.216925 
L 145.175156 67.728125 
L 146.610814 66.988538 
L 146.815706 66.879678 
L 148.046472 66.221162 
L 149.261069 65.542432 
L 149.482131 65.417891 
L 150.917789 64.58513 
L 151.5504 64.205186 
L 152.353447 63.718278 
L 153.706857 62.86794 
L 153.789106 62.815723 
L 155.224764 61.882775 
L 155.750642 61.530693 
L 156.660422 60.914613 
L 157.695366 60.193447 
L 158.09608 59.910851 
L 159.531739 58.872131 
L 159.553374 58.856201 
L 160.967397 57.802002 
L 161.338745 57.518955 
L 162.403055 56.69735 
L 163.058013 56.181709 
L 163.838714 55.559199 
L 164.719777 54.844462 
L 165.274372 54.388891 
L 166.331938 53.507216 
L 166.71003 53.188176 
L 167.901891 52.16997 
L 168.145688 51.959314 
L 169.436686 50.832724 
L 169.581347 50.705174 
L 170.943194 49.495477 
L 171.017005 49.429322 
L 172.428262 48.158231 
L 172.452663 48.136093 
L 173.888322 46.83079 
L 173.899099 46.820985 
L 175.32398 45.519505 
L 175.363203 45.483739 
L 176.759638 44.208705 
L 176.828079 44.146492 
L 178.195296 42.90584 
L 178.302532 42.809246 
L 179.630955 41.618801 
L 179.796491 41.472 
" style="fill:none;stroke:#00b1a6;stroke-width:1.5;"/>
   </g>
   <g id="LineCollection_10">
    <path clip-path="url(#p858b92a4f3)" d="M 57.6 64.886266 
L 59.035658 65.43025 
L 59.343627 65.542432 
L 60.471317 65.968507 
L 61.906975 66.487884 
L 63.03846 66.879678 
L 63.342633 66.98897 
L 64.778291 67.483097 
L 66.21395 67.954734 
L 67.049897 68.216925 
L 67.649608 68.412198 
L 69.085266 68.857853 
L 70.520925 69.281831 
L 71.491237 69.554171 
L 71.956583 69.689831 
L 73.392241 70.086723 
L 74.827899 70.462429 
L 76.263558 70.817476 
L 76.581209 70.891417 
L 77.699216 71.161879 
L 79.134874 71.488067 
L 80.570533 71.793682 
L 82.006191 72.079059 
L 82.817041 72.228663 
L 83.441849 72.348541 
L 84.877508 72.602635 
L 86.313166 72.836233 
L 87.748824 73.049515 
L 89.184482 73.242614 
L 90.620141 73.415618 
L 92.030995 73.56591 
L 92.055799 73.568659 
L 93.491457 73.705849 
L 94.927116 73.822197 
L 96.362774 73.917665 
L 97.798432 73.992179 
L 99.23409 74.045625 
L 100.669749 74.077855 
L 102.105407 74.088685 
L 103.541065 74.077899 
L 104.976724 74.045247 
L 106.412382 73.990444 
L 107.84804 73.913174 
L 109.283698 73.813088 
L 110.719357 73.689806 
L 111.93291 73.56591 
L 112.155015 73.543513 
L 113.590673 73.376966 
L 115.026332 73.186398 
L 116.46199 72.971286 
L 117.897648 72.731079 
L 119.333307 72.465188 
L 120.499167 72.228663 
L 120.768965 72.174308 
L 122.204623 71.862582 
L 123.640281 71.523666 
L 125.07594 71.156835 
L 126.045279 70.891417 
L 126.511598 70.764165 
L 127.947256 70.348312 
L 129.382915 69.90258 
L 130.438299 69.554171 
L 130.818573 69.428713 
L 132.254231 68.930797 
L 133.689889 68.400696 
L 134.165007 68.216925 
L 135.125548 67.844673 
L 136.561206 67.258423 
L 137.444225 66.879678 
L 137.996864 66.641725 
L 139.432523 65.996431 
L 140.395634 65.542432 
L 140.868181 65.318416 
L 142.303839 64.610873 
L 143.092915 64.205186 
L 143.739497 63.870314 
L 145.175156 63.097084 
L 145.586526 62.86794 
L 146.610814 62.292308 
L 147.911716 61.530693 
L 148.046472 61.451015 
L 149.482131 60.578918 
L 150.095585 60.193447 
L 150.917789 59.671033 
L 152.158297 58.856201 
L 152.353447 58.72648 
L 153.789106 57.748435 
L 154.117458 57.518955 
L 155.224764 56.735184 
L 155.986399 56.181709 
L 156.660422 55.685409 
L 157.775734 54.844462 
L 158.09608 54.599648 
L 159.495604 53.507216 
L 159.531739 53.478625 
L 160.967397 52.325173 
L 161.157366 52.16997 
L 162.403055 51.138786 
L 162.767319 50.832724 
L 163.838714 49.921041 
L 164.332661 49.495477 
L 165.274372 48.674427 
L 165.860586 48.158231 
L 166.71003 47.402108 
L 167.35807 46.820985 
L 168.145688 46.108019 
L 168.832023 45.483739 
L 169.581347 44.79694 
L 170.289464 44.146492 
L 171.017005 43.474532 
L 171.737702 42.809246 
L 172.452663 42.14732 
L 173.184535 41.472 
" style="fill:none;stroke:#00a7ac;stroke-width:1.5;"/>
   </g>
   <g id="LineCollection_11">
    <path clip-path="url(#p858b92a4f3)" d="M 57.6 62.775485 
L 57.858735 62.86794 
L 59.035658 63.303877 
L 60.471317 63.813025 
L 61.62664 64.205186 
L 61.906975 64.303862 
L 63.342633 64.787709 
L 64.778291 65.249551 
L 65.732331 65.542432 
L 66.21395 65.695824 
L 67.649608 66.13153 
L 69.085266 66.545926 
L 70.302478 66.879678 
L 70.520925 66.941849 
L 71.956583 67.328916 
L 73.392241 67.695065 
L 74.827899 68.04077 
L 75.605555 68.216925 
L 76.263558 68.371718 
L 77.699216 68.688206 
L 79.134874 68.984254 
L 80.570533 69.260158 
L 82.006191 69.516157 
L 82.238278 69.554171 
L 83.441849 69.759029 
L 84.877508 69.982712 
L 86.313166 70.186065 
L 87.748824 70.369187 
L 89.184482 70.532133 
L 90.620141 70.674918 
L 92.055799 70.797517 
L 93.373925 70.891417 
L 93.491457 70.900125 
L 94.927116 70.984588 
L 96.362774 71.047891 
L 97.798432 71.089891 
L 99.23409 71.110411 
L 100.669749 71.109238 
L 102.105407 71.086126 
L 103.541065 71.040794 
L 104.976724 70.97293 
L 106.268065 70.891417 
L 106.412382 70.882428 
L 107.84804 70.771358 
L 109.283698 70.637141 
L 110.719357 70.479323 
L 112.155015 70.297415 
L 113.590673 70.090897 
L 115.026332 69.859217 
L 116.46199 69.601786 
L 116.706236 69.554171 
L 117.897648 69.323374 
L 119.333307 69.019479 
L 120.768965 68.688307 
L 122.204623 68.329128 
L 122.625334 68.216925 
L 123.640281 67.946978 
L 125.07594 67.538053 
L 126.511598 67.099128 
L 127.189301 66.879678 
L 127.947256 66.634236 
L 129.382915 66.142299 
L 130.818573 65.618015 
L 131.016741 65.542432 
L 132.254231 65.069203 
L 133.689889 64.487811 
L 134.355941 64.205186 
L 135.125548 63.877134 
L 136.561206 63.235627 
L 137.347432 62.86794 
L 137.996864 62.562292 
L 139.432523 61.857338 
L 140.071321 61.530693 
L 140.868181 61.119943 
L 142.303839 60.347964 
L 142.58212 60.193447 
L 143.739497 59.544638 
L 144.917533 58.856201 
L 145.175156 58.704043 
L 146.610814 57.830534 
L 147.106619 57.518955 
L 148.046472 56.921301 
L 149.170969 56.181709 
L 149.482131 55.974457 
L 150.917789 54.991938 
L 151.128181 54.844462 
L 152.353447 53.974021 
L 152.993256 53.507216 
L 153.789106 52.918469 
L 154.776899 52.16997 
L 155.224764 51.825774 
L 156.489536 50.832724 
L 156.660422 50.696631 
L 158.09608 49.532441 
L 158.141004 49.495477 
L 159.531739 48.335337 
L 159.740883 48.158231 
L 160.967397 47.105767 
L 161.295156 46.820985 
L 162.403055 45.84632 
L 162.811122 45.483739 
L 163.838714 44.56031 
L 164.295828 44.146492 
L 165.274372 43.251882 
L 165.756243 42.809246 
L 166.71003 41.926088 
L 167.199422 41.472 
" style="fill:none;stroke:#009db0;stroke-width:1.5;"/>
   </g>
   <g id="LineCollection_12">
    <path clip-path="url(#p858b92a4f3)" d="M 57.6 60.800435 
L 59.035658 61.298902 
L 59.73261 61.530693 
L 60.471317 61.785299 
L 61.906975 62.258523 
L 63.342633 62.710328 
L 63.867498 62.86794 
L 64.778291 63.151504 
L 66.21395 63.577136 
L 67.649608 63.981925 
L 68.483758 64.205186 
L 69.085266 64.37218 
L 70.520925 64.749521 
L 71.956583 65.10631 
L 73.392241 65.442971 
L 73.843978 65.542432 
L 74.827899 65.767258 
L 76.263558 66.074477 
L 77.699216 66.361491 
L 79.134874 66.628553 
L 80.570533 66.875863 
L 80.594734 66.879678 
L 82.006191 67.110737 
L 83.441849 67.325384 
L 84.877508 67.51979 
L 86.313166 67.694018 
L 87.748824 67.84809 
L 89.184482 67.98199 
L 90.620141 68.095662 
L 92.055799 68.189014 
L 92.608849 68.216925 
L 93.491457 68.263218 
L 94.927116 68.316982 
L 96.362774 68.349314 
L 97.798432 68.360009 
L 99.23409 68.348826 
L 100.669749 68.31549 
L 102.105407 68.259692 
L 102.891183 68.216925 
L 103.541065 68.182001 
L 104.976724 68.082757 
L 106.412382 67.96044 
L 107.84804 67.814599 
L 109.283698 67.644748 
L 110.719357 67.450372 
L 112.155015 67.230919 
L 113.590673 66.985807 
L 114.157777 66.879678 
L 115.026332 66.718063 
L 116.46199 66.426187 
L 117.897648 66.107113 
L 119.333307 65.760114 
L 120.171578 65.542432 
L 120.768965 65.387629 
L 122.204623 64.990511 
L 123.640281 64.563456 
L 124.768431 64.205186 
L 125.07594 64.107464 
L 126.511598 63.626941 
L 127.947256 63.11411 
L 128.601826 62.86794 
L 129.382915 62.573222 
L 130.818573 62.002719 
L 131.943043 61.530693 
L 132.254231 61.399382 
L 133.689889 60.768103 
L 134.928477 60.193447 
L 135.125548 60.10137 
L 136.561206 59.40587 
L 137.642018 58.856201 
L 137.996864 58.674158 
L 139.432523 57.91073 
L 140.140351 57.518955 
L 140.868181 57.111959 
L 142.303839 56.276756 
L 142.462641 56.181709 
L 143.739497 55.408551 
L 144.637006 54.844462 
L 145.175156 54.501975 
L 146.610814 53.55774 
L 146.685855 53.507216 
L 148.046472 52.578704 
L 148.627853 52.16997 
L 149.482131 51.560866 
L 150.476155 50.832724 
L 150.917789 50.504488 
L 152.242796 49.495477 
L 152.353447 49.40996 
L 153.789106 48.279125 
L 153.939795 48.158231 
L 155.224764 47.112137 
L 155.576123 46.820985 
L 156.660422 45.909496 
L 157.15929 45.483739 
L 158.09608 44.673127 
L 158.697089 44.146492 
L 159.531739 43.405595 
L 160.196878 42.809246 
L 160.967397 42.110231 
L 161.665756 41.472 
" style="fill:none;stroke:#0093b6;stroke-width:1.5;"/>
   </g>
   <g id="LineCollection_13">
    <path clip-path="url(#p858b92a4f3)" d="M 57.6 58.922472 
L 59.035658 59.406616 
L 60.471317 59.869267 
L 61.524519 60.193447 
L 61.906975 60.315418 
L 63.342633 60.752053 
L 64.778291 61.167811 
L 66.095869 61.530693 
L 66.21395 61.564403 
L 67.649608 61.952932 
L 69.085266 62.320909 
L 70.520925 62.668773 
L 71.393573 62.86794 
L 71.956583 63.001199 
L 73.392241 63.31992 
L 74.827899 63.61848 
L 76.263558 63.897143 
L 77.699216 64.15612 
L 77.99483 64.205186 
L 79.134874 64.401537 
L 80.570533 64.628251 
L 82.006191 64.834815 
L 83.441849 65.021301 
L 84.877508 65.18774 
L 86.313166 65.334121 
L 87.748824 65.460397 
L 88.861388 65.542432 
L 89.184482 65.567171 
L 90.620141 65.655351 
L 92.055799 65.722421 
L 93.491457 65.768215 
L 94.927116 65.792535 
L 96.362774 65.795145 
L 97.798432 65.775778 
L 99.23409 65.734132 
L 100.669749 65.669872 
L 102.105407 65.58263 
L 102.63164 65.542432 
L 103.541065 65.473693 
L 104.976724 65.342402 
L 106.412382 65.187301 
L 107.84804 65.007879 
L 109.283698 64.803591 
L 110.719357 64.57386 
L 112.155015 64.318073 
L 112.734534 64.205186 
L 113.590673 64.039151 
L 115.026332 63.735654 
L 116.46199 63.404451 
L 117.897648 63.044785 
L 118.557068 62.86794 
L 119.333307 62.659941 
L 120.768965 62.24882 
L 122.204623 61.807102 
L 123.050109 61.530693 
L 123.640281 61.337386 
L 125.07594 60.840547 
L 126.511598 60.310614 
L 126.814832 60.193447 
L 127.947256 59.753925 
L 129.382915 59.16434 
L 130.098001 58.856201 
L 130.818573 58.543711 
L 132.254231 57.89114 
L 133.036181 57.518955 
L 133.689889 57.205259 
L 135.125548 56.486036 
L 135.709121 56.181709 
L 136.561206 55.732977 
L 137.996864 54.943197 
L 138.170898 54.844462 
L 139.432523 54.12058 
L 140.458476 53.507216 
L 140.868181 53.259246 
L 142.303839 52.361473 
L 142.601258 52.16997 
L 143.739497 51.427167 
L 144.620744 50.832724 
L 145.175156 50.453413 
L 146.533681 49.495477 
L 146.610814 49.440281 
L 148.046472 48.390197 
L 148.355922 48.158231 
L 149.482131 47.301119 
L 150.09855 46.820985 
L 150.917789 46.173024 
L 151.771576 45.483739 
L 152.353447 45.006758 
L 153.384283 44.146492 
L 153.789106 43.803569 
L 154.945116 42.809246 
L 155.224764 42.565233 
L 156.461892 41.472 
" style="fill:none;stroke:#0089bb;stroke-width:1.5;"/>
   </g>
   <g id="LineCollection_14">
    <path clip-path="url(#p858b92a4f3)" d="M 57.6 57.145615 
L 58.784674 57.518955 
L 59.035658 57.600852 
L 60.471317 58.048227 
L 61.906975 58.474786 
L 63.254732 58.856201 
L 63.342633 58.881969 
L 64.778291 59.281608 
L 66.21395 59.66079 
L 67.649608 60.019961 
L 68.384391 60.193447 
L 69.085266 60.364943 
L 70.520925 60.695364 
L 71.956583 61.005757 
L 73.392241 61.296394 
L 74.633925 61.530693 
L 74.827899 61.568644 
L 76.263558 61.828084 
L 77.699216 62.067424 
L 79.134874 62.28679 
L 80.570533 62.486263 
L 82.006191 62.665879 
L 83.441849 62.825637 
L 83.878767 62.86794 
L 84.877508 62.96827 
L 86.313166 63.091458 
L 87.748824 63.193892 
L 89.184482 63.27545 
L 90.620141 63.335976 
L 92.055799 63.375276 
L 93.491457 63.393124 
L 94.927116 63.389259 
L 96.362774 63.363386 
L 97.798432 63.315179 
L 99.23409 63.244277 
L 100.669749 63.150286 
L 102.105407 63.032781 
L 103.541065 62.891301 
L 103.745757 62.86794 
L 104.976724 62.728528 
L 106.412382 62.541727 
L 107.84804 62.3298 
L 109.283698 62.092143 
L 110.719357 61.828118 
L 112.155015 61.537051 
L 112.184137 61.530693 
L 113.590673 61.224399 
L 115.026332 60.883747 
L 116.46199 60.514184 
L 117.619425 60.193447 
L 117.897648 60.116318 
L 119.333307 59.694129 
L 120.768965 59.240779 
L 121.911032 58.856201 
L 122.204623 58.757029 
L 123.640281 58.247078 
L 125.07594 57.70335 
L 125.540165 57.518955 
L 126.511598 57.1309 
L 127.947256 56.525724 
L 128.724536 56.181709 
L 129.382915 55.888115 
L 130.818573 55.217933 
L 131.58302 54.844462 
L 132.254231 54.513485 
L 133.689889 53.774421 
L 134.189338 53.507216 
L 135.125548 53.000866 
L 136.561206 52.188834 
L 136.593631 52.16997 
L 137.996864 51.343496 
L 138.830144 50.832724 
L 139.432523 50.458557 
L 140.868181 49.534438 
L 140.927224 49.495477 
L 142.303839 48.573998 
L 142.905424 48.158231 
L 143.739497 47.573091 
L 144.780878 46.820985 
L 145.175156 46.531788 
L 146.567038 45.483739 
L 146.610814 45.450251 
L 148.046472 44.330491 
L 148.277413 44.146492 
L 149.482131 43.171381 
L 149.920959 42.809246 
L 150.917789 41.973714 
L 151.506444 41.472 
" style="fill:none;stroke:#007fc0;stroke-width:1.5;"/>
   </g>
   <g id="LineCollection_15">
    <path clip-path="url(#p858b92a4f3)" d="M 57.6 55.446524 
L 59.035658 55.883681 
L 60.061896 56.181709 
L 60.471317 56.304791 
L 61.906975 56.715412 
L 63.342633 57.105745 
L 64.778291 57.476244 
L 64.953475 57.518955 
L 66.21395 57.837222 
L 67.649608 58.179441 
L 69.085266 58.501836 
L 70.520925 58.804687 
L 70.782899 58.856201 
L 71.956583 59.095333 
L 73.392241 59.367548 
L 74.827899 59.619904 
L 76.263558 59.852532 
L 77.699216 60.06552 
L 78.651351 60.193447 
L 79.134874 60.260797 
L 80.570533 60.439483 
L 82.006191 60.597829 
L 83.441849 60.735795 
L 84.877508 60.853306 
L 86.313166 60.950246 
L 87.748824 61.026466 
L 89.184482 61.081781 
L 90.620141 61.115972 
L 92.055799 61.128787 
L 93.491457 61.119937 
L 94.927116 61.089106 
L 96.362774 61.035941 
L 97.798432 60.960058 
L 99.23409 60.861038 
L 100.669749 60.738432 
L 102.105407 60.591756 
L 103.541065 60.420492 
L 104.976724 60.224091 
L 105.177509 60.193447 
L 106.412382 60.005913 
L 107.84804 59.762426 
L 109.283698 59.492326 
L 110.719357 59.194916 
L 112.155015 58.86946 
L 112.209688 58.856201 
L 113.590673 58.52148 
L 115.026332 58.144462 
L 116.46199 57.737308 
L 117.184363 57.518955 
L 117.897648 57.302866 
L 119.333307 56.840547 
L 120.768965 56.345619 
L 121.220546 56.181709 
L 122.204623 55.822769 
L 123.640281 55.268142 
L 124.677307 54.844462 
L 125.07594 54.680484 
L 126.511598 54.062769 
L 127.733082 53.507216 
L 127.947256 53.408958 
L 129.382915 52.724381 
L 130.487958 52.16997 
L 130.818573 52.002367 
L 132.254231 51.246852 
L 133.00841 50.832724 
L 133.689889 50.454024 
L 135.125548 49.623318 
L 135.339746 49.495477 
L 136.561206 48.75671 
L 137.513134 48.158231 
L 137.996864 47.84976 
L 139.432523 46.903178 
L 139.554029 46.820985 
L 140.868181 45.91844 
L 141.481928 45.483739 
L 142.303839 44.892364 
L 143.311958 44.146492 
L 143.739497 43.825018 
L 145.05697 42.809246 
L 145.175156 42.716619 
L 146.610814 41.568441 
L 146.729153 41.472 
" style="fill:none;stroke:#0076c4;stroke-width:1.5;"/>
   </g>
   <g id="LineCollection_16">
    <path clip-path="url(#p858b92a4f3)" d="M 57.6 53.815766 
L 59.035658 54.237201 
L 60.471317 54.638581 
L 61.246435 54.844462 
L 61.906975 55.026043 
L 63.342633 55.399979 
L 64.778291 55.754012 
L 66.21395 56.088488 
L 66.639925 56.181709 
L 67.649608 56.410495 
L 69.085266 56.715431 
L 70.520925 57.000618 
L 71.956583 57.266245 
L 73.392241 57.512447 
L 73.433701 57.518955 
L 74.827899 57.745646 
L 76.263558 57.958978 
L 77.699216 58.152301 
L 79.134874 58.325625 
L 80.570533 58.478917 
L 82.006191 58.612108 
L 83.441849 58.725091 
L 84.877508 58.817724 
L 85.647408 58.856201 
L 86.313166 58.890693 
L 87.748824 58.943341 
L 89.184482 58.974444 
L 90.620141 58.983743 
L 92.055799 58.970948 
L 93.491457 58.935733 
L 94.927116 58.877741 
L 95.311882 58.856201 
L 96.362774 58.797908 
L 97.798432 58.695429 
L 99.23409 58.56934 
L 100.669749 58.419135 
L 102.105407 58.244274 
L 103.541065 58.044184 
L 104.976724 57.818256 
L 106.412382 57.565847 
L 106.656596 57.518955 
L 107.84804 57.290701 
L 109.283698 56.988937 
L 110.719357 56.658891 
L 112.155015 56.299769 
L 112.59638 56.181709 
L 113.590673 55.915399 
L 115.026332 55.502617 
L 116.46199 55.05845 
L 117.113798 54.844462 
L 117.897648 54.586084 
L 119.333307 54.084093 
L 120.768965 53.548024 
L 120.873558 53.507216 
L 122.204623 52.984447 
L 123.640281 52.38547 
L 124.133729 52.16997 
L 125.07594 51.754975 
L 126.511598 51.089332 
L 127.041784 50.832724 
L 127.947256 50.389962 
L 129.382915 49.653549 
L 129.680108 49.495477 
L 130.818573 48.882721 
L 132.103502 48.158231 
L 132.254231 48.072136 
L 133.689889 47.225889 
L 134.350939 46.820985 
L 135.125548 46.339711 
L 136.452516 45.483739 
L 136.561206 45.412561 
L 137.996864 44.446916 
L 138.429973 44.146492 
L 139.432523 43.439888 
L 140.301167 42.809246 
L 140.868181 42.390758 
L 142.080189 41.472 
" style="fill:none;stroke:#006cc9;stroke-width:1.5;"/>
   </g>
   <g id="LineCollection_17">
    <path clip-path="url(#p858b92a4f3)" d="M 57.6 52.247068 
L 59.035658 52.652467 
L 60.471317 53.037863 
L 61.906975 53.403668 
L 62.337104 53.507216 
L 63.342633 53.75769 
L 64.778291 54.095008 
L 66.21395 54.412676 
L 67.649608 54.710937 
L 68.338652 54.844462 
L 69.085266 54.994233 
L 70.520925 55.261576 
L 71.956583 55.509136 
L 73.392241 55.737012 
L 74.827899 55.945261 
L 76.263558 56.133898 
L 76.672213 56.181709 
L 77.699216 56.306157 
L 79.134874 56.459341 
L 80.570533 56.592075 
L 82.006191 56.70425 
L 83.441849 56.795726 
L 84.877508 56.866324 
L 86.313166 56.91583 
L 87.748824 56.943997 
L 89.184482 56.950543 
L 90.620141 56.935154 
L 92.055799 56.897481 
L 93.491457 56.837142 
L 94.927116 56.753723 
L 96.362774 56.646776 
L 97.798432 56.515817 
L 99.23409 56.360332 
L 100.65456 56.181709 
L 100.669749 56.179808 
L 102.105407 55.977632 
L 103.541065 55.749547 
L 104.976724 55.494888 
L 106.412382 55.212956 
L 107.84804 54.903012 
L 108.09989 54.844462 
L 109.283698 54.569169 
L 110.719357 54.207078 
L 112.155015 53.814845 
L 113.203901 53.507216 
L 113.590673 53.393423 
L 115.026332 52.945298 
L 116.46199 52.464505 
L 117.291079 52.16997 
L 117.897648 51.953231 
L 119.333307 51.411826 
L 120.768965 50.834843 
L 120.77403 50.832724 
L 122.204623 50.229244 
L 123.640281 49.58603 
L 123.83462 49.495477 
L 125.07594 48.911204 
L 126.511598 48.197655 
L 126.588258 48.158231 
L 127.947256 47.451068 
L 129.100178 46.820985 
L 129.382915 46.664459 
L 130.818573 45.841386 
L 131.418827 45.483739 
L 132.254231 44.97882 
L 133.57785 44.146492 
L 133.689889 44.074961 
L 135.125548 43.132349 
L 135.601842 42.809246 
L 136.561206 42.147849 
L 137.511188 41.472 
" style="fill:none;stroke:#0062ce;stroke-width:1.5;"/>
   </g>
   <g id="LineCollection_18">
    <path clip-path="url(#p858b92a4f3)" d="M 57.6 50.737812 
L 57.961824 50.832724 
L 59.035658 51.123998 
L 60.471317 51.493232 
L 61.906975 51.842891 
L 63.328332 52.16997 
L 63.342633 52.173374 
L 64.778291 52.49383 
L 66.21395 52.794558 
L 67.649608 53.07576 
L 69.085266 53.337587 
L 70.091355 53.507216 
L 70.520925 53.582173 
L 71.956583 53.811584 
L 73.392241 54.021066 
L 74.827899 54.210639 
L 76.263558 54.380281 
L 77.699216 54.52993 
L 79.134874 54.659489 
L 80.570533 54.768823 
L 81.793412 54.844462 
L 82.006191 54.858092 
L 83.441849 54.928087 
L 84.877508 54.976689 
L 86.313166 55.003648 
L 87.748824 55.008679 
L 89.184482 54.991463 
L 90.620141 54.951648 
L 92.055799 54.888846 
L 92.799838 54.844462 
L 93.491457 54.803517 
L 94.927116 54.695707 
L 96.362774 54.563962 
L 97.798432 54.407747 
L 99.23409 54.226489 
L 100.669749 54.019584 
L 102.105407 53.786391 
L 103.541065 53.526232 
L 103.637439 53.507216 
L 104.976724 53.243159 
L 106.412382 52.932319 
L 107.84804 52.592574 
L 109.283698 52.223092 
L 109.477457 52.16997 
L 110.719357 51.828523 
L 112.155015 51.403565 
L 113.590673 50.946404 
L 113.928677 50.832724 
L 115.026332 50.461503 
L 116.46199 49.944284 
L 117.633224 49.495477 
L 117.897648 49.393386 
L 119.333307 48.81263 
L 120.768965 48.194764 
L 120.850582 48.158231 
L 122.204623 47.546093 
L 123.640281 46.85856 
L 123.715993 46.820985 
L 125.07594 46.138142 
L 126.3135 45.483739 
L 126.511598 45.377634 
L 127.947256 44.581299 
L 128.69865 44.146492 
L 129.382915 43.744834 
L 130.818573 42.867499 
L 130.911204 42.809246 
L 132.254231 41.951452 
L 132.977957 41.472 
" style="fill:none;stroke:#0058d3;stroke-width:1.5;"/>
   </g>
   <g id="LineCollection_19">
    <path clip-path="url(#p858b92a4f3)" d="M 57.6 49.280584 
L 58.453794 49.495477 
L 59.035658 49.646877 
L 60.471317 49.999864 
L 61.906975 50.3333 
L 63.342633 50.647439 
L 64.246092 50.832724 
L 64.778291 50.945603 
L 66.21395 51.229336 
L 67.649608 51.493434 
L 69.085266 51.738006 
L 70.520925 51.963119 
L 71.956583 52.168799 
L 71.965682 52.16997 
L 73.392241 52.359846 
L 74.827899 52.530743 
L 76.263558 52.681399 
L 77.699216 52.811718 
L 79.134874 52.921565 
L 80.570533 53.010772 
L 82.006191 53.079131 
L 83.441849 53.126404 
L 84.877508 53.152316 
L 86.313166 53.15656 
L 87.748824 53.138794 
L 89.184482 53.098643 
L 90.620141 53.0357 
L 92.055799 52.949521 
L 93.491457 52.839631 
L 94.927116 52.70552 
L 96.362774 52.546644 
L 97.798432 52.362424 
L 99.114778 52.16997 
L 99.23409 52.152571 
L 100.669749 51.920049 
L 102.105407 51.660564 
L 103.541065 51.373382 
L 104.976724 51.057734 
L 105.91916 50.832724 
L 106.412382 50.714751 
L 107.84804 50.345629 
L 109.283698 49.945769 
L 110.719357 49.514242 
L 110.778507 49.495477 
L 112.155015 49.056503 
L 113.590673 48.565621 
L 114.709114 48.158231 
L 115.026332 48.041841 
L 116.46199 47.48822 
L 117.897648 46.898111 
L 118.077429 46.820985 
L 119.333307 46.276942 
L 120.768965 45.618039 
L 121.049936 45.483739 
L 122.204623 44.925421 
L 123.640281 44.193306 
L 123.728984 44.146492 
L 125.07594 43.426215 
L 126.175567 42.809246 
L 126.511598 42.618004 
L 127.947256 41.77112 
L 128.436073 41.472 
" style="fill:none;stroke:#004ed8;stroke-width:1.5;"/>
   </g>
   <g id="LineCollection_20">
    <path clip-path="url(#p858b92a4f3)" d="M 57.6 47.868738 
L 58.801026 48.158231 
L 59.035658 48.216683 
L 60.471317 48.553415 
L 61.906975 48.870621 
L 63.342633 49.168514 
L 64.778291 49.447255 
L 65.046339 49.495477 
L 66.21395 49.712672 
L 67.649608 49.959676 
L 69.085266 50.187011 
L 70.520925 50.394704 
L 71.956583 50.582745 
L 73.392241 50.75108 
L 74.184684 50.832724 
L 74.827899 50.901279 
L 76.263558 51.032996 
L 77.699216 51.144038 
L 79.134874 51.234233 
L 80.570533 51.303376 
L 82.006191 51.351226 
L 83.441849 51.377507 
L 84.877508 51.381908 
L 86.313166 51.364086 
L 87.748824 51.323662 
L 89.184482 51.260223 
L 90.620141 51.173323 
L 92.055799 51.062481 
L 93.491457 50.927181 
L 94.342644 50.832724 
L 94.927116 50.768107 
L 96.362774 50.585602 
L 97.798432 50.377231 
L 99.23409 50.142324 
L 100.669749 49.880174 
L 102.105407 49.59004 
L 102.536453 49.495477 
L 103.541065 49.274769 
L 104.976724 48.931747 
L 106.412382 48.558552 
L 107.834276 48.158231 
L 107.84804 48.154339 
L 109.283698 47.724321 
L 110.719357 47.261523 
L 111.995834 46.820985 
L 112.155015 46.765662 
L 113.590673 46.241065 
L 115.026332 45.680678 
L 115.506511 45.483739 
L 116.46199 45.088113 
L 117.897648 44.459979 
L 118.580061 44.146492 
L 119.333307 43.796515 
L 120.768965 43.096247 
L 121.332255 42.809246 
L 122.204623 42.358932 
L 123.640281 41.581813 
L 123.836242 41.472 
" style="fill:none;stroke:#0044dd;stroke-width:1.5;"/>
   </g>
   <g id="LineCollection_21">
    <path clip-path="url(#p858b92a4f3)" d="M 57.6 46.498467 
L 59.00013 46.820985 
L 59.035658 46.829441 
L 60.471317 47.14997 
L 61.906975 47.450998 
L 63.342633 47.732694 
L 64.778291 47.995179 
L 65.742541 48.158231 
L 66.21395 48.240633 
L 67.649608 48.470602 
L 69.085266 48.68076 
L 70.520925 48.871095 
L 71.956583 49.04156 
L 73.392241 49.192066 
L 74.827899 49.322489 
L 76.263558 49.432667 
L 77.271669 49.495477 
L 77.699216 49.523029 
L 79.134874 49.593653 
L 80.570533 49.642817 
L 82.006191 49.670244 
L 83.441849 49.67562 
L 84.877508 49.658601 
L 86.313166 49.618805 
L 87.748824 49.555815 
L 88.752946 49.495477 
L 89.184482 49.469695 
L 90.620141 49.361045 
L 92.055799 49.228131 
L 93.491457 49.070384 
L 94.927116 48.887198 
L 96.362774 48.677933 
L 97.798432 48.441914 
L 99.23409 48.178425 
L 99.335091 48.158231 
L 100.669749 47.891108 
L 102.105407 47.575394 
L 103.541065 47.230112 
L 104.976724 46.854387 
L 105.096598 46.820985 
L 106.412382 46.452669 
L 107.84804 46.019348 
L 109.283698 45.552936 
L 109.485665 45.483739 
L 110.719357 45.057963 
L 112.155015 44.52887 
L 113.132834 44.146492 
L 113.590673 43.965784 
L 115.026332 43.370144 
L 116.299643 42.809246 
L 116.46199 42.736929 
L 117.897648 42.070407 
L 119.116586 41.472 
" style="fill:none;stroke:#003be2;stroke-width:1.5;"/>
   </g>
   <g id="LineCollection_22">
    <path clip-path="url(#p858b92a4f3)" d="M 57.6 45.166345 
L 59.035658 45.481627 
L 59.045946 45.483739 
L 60.471317 45.785996 
L 61.906975 46.070943 
L 63.342633 46.336535 
L 64.778291 46.582853 
L 66.21395 46.809935 
L 66.290877 46.820985 
L 67.649608 47.022684 
L 69.085266 47.215758 
L 70.520925 47.388828 
L 71.956583 47.541809 
L 73.392241 47.674578 
L 74.827899 47.786974 
L 76.263558 47.878801 
L 77.699216 47.949829 
L 79.134874 47.999793 
L 80.570533 48.028392 
L 82.006191 48.035293 
L 83.441849 48.020128 
L 84.877508 47.982496 
L 86.313166 47.921962 
L 87.748824 47.838056 
L 89.184482 47.730273 
L 90.620141 47.598074 
L 92.055799 47.440886 
L 93.491457 47.258098 
L 94.927116 47.049064 
L 96.315576 46.820985 
L 96.362774 46.813232 
L 97.798432 46.553889 
L 99.23409 46.266421 
L 100.669749 45.950022 
L 102.105407 45.603847 
L 102.568832 45.483739 
L 103.541065 45.230693 
L 104.976724 44.827934 
L 106.412382 44.392839 
L 107.174507 44.146492 
L 107.84804 43.927256 
L 109.283698 43.430689 
L 110.719357 42.898801 
L 110.949633 42.809246 
L 112.155015 42.335959 
L 113.590673 41.736676 
L 114.193939 41.472 
" style="fill:none;stroke:#0031e6;stroke-width:1.5;"/>
   </g>
   <g id="LineCollection_23">
    <path clip-path="url(#p858b92a4f3)" d="M 57.6 43.869278 
L 58.927429 44.146492 
L 59.035658 44.169835 
L 60.471317 44.4583 
L 61.906975 44.727297 
L 63.342633 44.976911 
L 64.778291 45.207185 
L 66.21395 45.418117 
L 66.70862 45.483739 
L 67.649608 45.612713 
L 69.085266 45.788823 
L 70.520925 45.944744 
L 71.956583 46.080355 
L 73.392241 46.195496 
L 74.827899 46.289973 
L 76.263558 46.363554 
L 77.699216 46.415974 
L 79.134874 46.446933 
L 80.570533 46.456095 
L 82.006191 46.443092 
L 83.441849 46.407521 
L 84.877508 46.348943 
L 86.313166 46.266886 
L 87.748824 46.160843 
L 89.184482 46.030272 
L 90.620141 45.874594 
L 92.055799 45.693195 
L 93.491457 45.485424 
L 93.501932 45.483739 
L 94.927116 45.254379 
L 96.362774 44.995865 
L 97.798432 44.709078 
L 99.23409 44.393206 
L 100.263693 44.146492 
L 100.669749 44.048818 
L 102.105407 43.677437 
L 103.541065 43.274506 
L 104.976724 42.839043 
L 105.06965 42.809246 
L 106.412382 42.375552 
L 107.84804 41.877993 
L 108.946764 41.472 
" style="fill:none;stroke:#0027ec;stroke-width:1.5;"/>
   </g>
   <g id="LineCollection_24">
    <path clip-path="url(#p858b92a4f3)" d="M 57.6 42.604474 
L 58.634195 42.809246 
L 59.035658 42.891321 
L 60.471317 43.163992 
L 61.906975 43.417201 
L 63.342633 43.65099 
L 64.778291 43.865365 
L 66.21395 44.060286 
L 66.922907 44.146492 
L 67.649608 44.237769 
L 69.085266 44.397054 
L 70.520925 44.53596 
L 71.956583 44.654329 
L 73.392241 44.751967 
L 74.827899 44.828643 
L 76.263558 44.884092 
L 77.699216 44.918014 
L 79.134874 44.930073 
L 80.570533 44.919898 
L 82.006191 44.887086 
L 83.441849 44.831197 
L 84.877508 44.751757 
L 86.313166 44.648255 
L 87.748824 44.520147 
L 89.184482 44.366852 
L 90.620141 44.187752 
L 90.91204 44.146492 
L 92.055799 43.984868 
L 93.491457 43.755814 
L 94.927116 43.499161 
L 96.362774 43.214129 
L 97.798432 42.899899 
L 98.18156 42.809246 
L 99.23409 42.559177 
L 100.669749 42.189016 
L 102.105407 41.787164 
L 103.152263 41.472 
" style="fill:none;stroke:#001df0;stroke-width:1.5;"/>
   </g>
   <g id="LineCollection_25">
    <path clip-path="url(#p858b92a4f3)" d="M 58.148296 41.472 
L 59.035658 41.643387 
L 60.471317 41.900459 
L 61.906975 42.13806 
L 63.342633 42.356197 
L 64.778291 42.554835 
L 66.21395 42.733901 
L 66.896118 42.809246 
L 67.649608 42.89519 
L 69.085266 43.037805 
L 70.520925 43.159842 
L 71.956583 43.261109 
L 73.392241 43.341376 
L 74.827899 43.400378 
L 76.263558 43.437815 
L 77.699216 43.453352 
L 79.134874 43.446617 
L 80.570533 43.417205 
L 82.006191 43.364676 
L 83.441849 43.288555 
L 84.877508 43.18833 
L 86.313166 43.063453 
L 87.748824 42.913342 
L 88.603571 42.809246 
L 89.184482 42.738552 
L 90.620141 42.539291 
L 92.055799 42.313113 
L 93.491457 42.059271 
L 94.927116 41.776981 
L 96.332976 41.472 
" style="fill:none;stroke:#0013f6;stroke-width:1.5;"/>
   </g>
   <g id="LineCollection_26">
    <path clip-path="url(#p858b92a4f3)" d="M 66.5703 41.472 
L 67.649608 41.582552 
L 69.085266 41.70866 
L 70.520925 41.813983 
L 71.956583 41.898294 
L 73.392241 41.961328 
L 74.827899 42.002786 
L 76.263558 42.022332 
L 77.699216 42.019596 
L 79.134874 41.994173 
L 80.570533 41.94562 
L 82.006191 41.873463 
L 83.441849 41.777188 
L 84.877508 41.656248 
L 86.313166 41.510057 
L 86.634609 41.472 
" style="fill:none;stroke:#0009fb;stroke-width:1.5;"/>
   </g>
   <g id="LineCollection_27"/>
   <g id="patch_3">
    <path d="M 57.6 307.584 
L 57.6 41.472 
" style="fill:none;stroke:#000000;stroke-linecap:square;stroke-linejoin:miter;stroke-width:0.8;"/>
   </g>
   <g id="patch_4">
    <path d="M 343.296 307.584 
L 343.296 41.472 
" style="fill:none;stroke:#000000;stroke-linecap:square;stroke-linejoin:miter;stroke-width:0.8;"/>
   </g>
   <g id="patch_5">
    <path d="M 57.6 307.584 
L 343.296 307.584 
" style="fill:none;stroke:#000000;stroke-linecap:square;stroke-linejoin:miter;stroke-width:0.8;"/>
   </g>
   <g id="patch_6">
    <path d="M 57.6 41.472 
L 343.296 41.472 
" style="fill:none;stroke:#000000;stroke-linecap:square;stroke-linejoin:miter;stroke-width:0.8;"/>
   </g>
  </g>
  <g id="axes_2">
   <g id="patch_7">
    <path clip-path="url(#p8ef56bcb7d)" d="M 361.152 307.584 
L 361.152 297.348923 
L 361.152 51.707077 
L 361.152 41.472 
L 374.4576 41.472 
L 374.4576 51.707077 
L 374.4576 297.348923 
L 374.4576 307.584 
z
" style="fill:#ffffff;stroke:#ffffff;stroke-linejoin:miter;stroke-width:0.01;"/>
   </g>
   <g id="matplotlib.axis_3"/>
   <g id="matplotlib.axis_4">
    <g id="ytick_10">
     <g id="line2d_19">
      <defs>
       <path d="M 0 0 
L 3.5 0 
" id="m1a4ee8e671" style="stroke:#000000;stroke-width:0.8;"/>
      </defs>
      <g>
       <use style="stroke:#000000;stroke-width:0.8;" x="374.4576" xlink:href="#m1a4ee8e671" y="307.584"/>
      </g>
     </g>
     <g id="text_19">
      <!-- 0 -->
      <g transform="translate(381.4576 311.383219)scale(0.1 -0.1)">
       <use xlink:href="#DejaVuSans-48"/>
      </g>
     </g>
    </g>
    <g id="ytick_11">
     <g id="line2d_20">
      <g>
       <use style="stroke:#000000;stroke-width:0.8;" x="374.4576" xlink:href="#m1a4ee8e671" y="276.878769"/>
      </g>
     </g>
     <g id="text_20">
      <!-- 120000 -->
      <g transform="translate(381.4576 280.677988)scale(0.1 -0.1)">
       <use xlink:href="#DejaVuSans-49"/>
       <use x="63.623047" xlink:href="#DejaVuSans-50"/>
       <use x="127.246094" xlink:href="#DejaVuSans-48"/>
       <use x="190.869141" xlink:href="#DejaVuSans-48"/>
       <use x="254.492188" xlink:href="#DejaVuSans-48"/>
       <use x="318.115234" xlink:href="#DejaVuSans-48"/>
      </g>
     </g>
    </g>
    <g id="ytick_12">
     <g id="line2d_21">
      <g>
       <use style="stroke:#000000;stroke-width:0.8;" x="374.4576" xlink:href="#m1a4ee8e671" y="246.173538"/>
      </g>
     </g>
     <g id="text_21">
      <!-- 240000 -->
      <defs>
       <path d="M 37.796875 64.3125 
L 12.890625 25.390625 
L 37.796875 25.390625 
z
M 35.203125 72.90625 
L 47.609375 72.90625 
L 47.609375 25.390625 
L 58.015625 25.390625 
L 58.015625 17.1875 
L 47.609375 17.1875 
L 47.609375 0 
L 37.796875 0 
L 37.796875 17.1875 
L 4.890625 17.1875 
L 4.890625 26.703125 
z
" id="DejaVuSans-52"/>
      </defs>
      <g transform="translate(381.4576 249.972757)scale(0.1 -0.1)">
       <use xlink:href="#DejaVuSans-50"/>
       <use x="63.623047" xlink:href="#DejaVuSans-52"/>
       <use x="127.246094" xlink:href="#DejaVuSans-48"/>
       <use x="190.869141" xlink:href="#DejaVuSans-48"/>
       <use x="254.492188" xlink:href="#DejaVuSans-48"/>
       <use x="318.115234" xlink:href="#DejaVuSans-48"/>
      </g>
     </g>
    </g>
    <g id="ytick_13">
     <g id="line2d_22">
      <g>
       <use style="stroke:#000000;stroke-width:0.8;" x="374.4576" xlink:href="#m1a4ee8e671" y="215.468308"/>
      </g>
     </g>
     <g id="text_22">
      <!-- 360000 -->
      <defs>
       <path d="M 40.578125 39.3125 
Q 47.65625 37.796875 51.625 33 
Q 55.609375 28.21875 55.609375 21.1875 
Q 55.609375 10.40625 48.1875 4.484375 
Q 40.765625 -1.421875 27.09375 -1.421875 
Q 22.515625 -1.421875 17.65625 -0.515625 
Q 12.796875 0.390625 7.625 2.203125 
L 7.625 11.71875 
Q 11.71875 9.328125 16.59375 8.109375 
Q 21.484375 6.890625 26.8125 6.890625 
Q 36.078125 6.890625 40.9375 10.546875 
Q 45.796875 14.203125 45.796875 21.1875 
Q 45.796875 27.640625 41.28125 31.265625 
Q 36.765625 34.90625 28.71875 34.90625 
L 20.21875 34.90625 
L 20.21875 43.015625 
L 29.109375 43.015625 
Q 36.375 43.015625 40.234375 45.921875 
Q 44.09375 48.828125 44.09375 54.296875 
Q 44.09375 59.90625 40.109375 62.90625 
Q 36.140625 65.921875 28.71875 65.921875 
Q 24.65625 65.921875 20.015625 65.03125 
Q 15.375 64.15625 9.8125 62.3125 
L 9.8125 71.09375 
Q 15.4375 72.65625 20.34375 73.4375 
Q 25.25 74.21875 29.59375 74.21875 
Q 40.828125 74.21875 47.359375 69.109375 
Q 53.90625 64.015625 53.90625 55.328125 
Q 53.90625 49.265625 50.4375 45.09375 
Q 46.96875 40.921875 40.578125 39.3125 
z
" id="DejaVuSans-51"/>
       <path d="M 33.015625 40.375 
Q 26.375 40.375 22.484375 35.828125 
Q 18.609375 31.296875 18.609375 23.390625 
Q 18.609375 15.53125 22.484375 10.953125 
Q 26.375 6.390625 33.015625 6.390625 
Q 39.65625 6.390625 43.53125 10.953125 
Q 47.40625 15.53125 47.40625 23.390625 
Q 47.40625 31.296875 43.53125 35.828125 
Q 39.65625 40.375 33.015625 40.375 
z
M 52.59375 71.296875 
L 52.59375 62.3125 
Q 48.875 64.0625 45.09375 64.984375 
Q 41.3125 65.921875 37.59375 65.921875 
Q 27.828125 65.921875 22.671875 59.328125 
Q 17.53125 52.734375 16.796875 39.40625 
Q 19.671875 43.65625 24.015625 45.921875 
Q 28.375 48.1875 33.59375 48.1875 
Q 44.578125 48.1875 50.953125 41.515625 
Q 57.328125 34.859375 57.328125 23.390625 
Q 57.328125 12.15625 50.6875 5.359375 
Q 44.046875 -1.421875 33.015625 -1.421875 
Q 20.359375 -1.421875 13.671875 8.265625 
Q 6.984375 17.96875 6.984375 36.375 
Q 6.984375 53.65625 15.1875 63.9375 
Q 23.390625 74.21875 37.203125 74.21875 
Q 40.921875 74.21875 44.703125 73.484375 
Q 48.484375 72.75 52.59375 71.296875 
z
" id="DejaVuSans-54"/>
      </defs>
      <g transform="translate(381.4576 219.267526)scale(0.1 -0.1)">
       <use xlink:href="#DejaVuSans-51"/>
       <use x="63.623047" xlink:href="#DejaVuSans-54"/>
       <use x="127.246094" xlink:href="#DejaVuSans-48"/>
       <use x="190.869141" xlink:href="#DejaVuSans-48"/>
       <use x="254.492188" xlink:href="#DejaVuSans-48"/>
       <use x="318.115234" xlink:href="#DejaVuSans-48"/>
      </g>
     </g>
    </g>
    <g id="ytick_14">
     <g id="line2d_23">
      <g>
       <use style="stroke:#000000;stroke-width:0.8;" x="374.4576" xlink:href="#m1a4ee8e671" y="184.763077"/>
      </g>
     </g>
     <g id="text_23">
      <!-- 480000 -->
      <defs>
       <path d="M 31.78125 34.625 
Q 24.75 34.625 20.71875 30.859375 
Q 16.703125 27.09375 16.703125 20.515625 
Q 16.703125 13.921875 20.71875 10.15625 
Q 24.75 6.390625 31.78125 6.390625 
Q 38.8125 6.390625 42.859375 10.171875 
Q 46.921875 13.96875 46.921875 20.515625 
Q 46.921875 27.09375 42.890625 30.859375 
Q 38.875 34.625 31.78125 34.625 
z
M 21.921875 38.8125 
Q 15.578125 40.375 12.03125 44.71875 
Q 8.5 49.078125 8.5 55.328125 
Q 8.5 64.0625 14.71875 69.140625 
Q 20.953125 74.21875 31.78125 74.21875 
Q 42.671875 74.21875 48.875 69.140625 
Q 55.078125 64.0625 55.078125 55.328125 
Q 55.078125 49.078125 51.53125 44.71875 
Q 48 40.375 41.703125 38.8125 
Q 48.828125 37.15625 52.796875 32.3125 
Q 56.78125 27.484375 56.78125 20.515625 
Q 56.78125 9.90625 50.3125 4.234375 
Q 43.84375 -1.421875 31.78125 -1.421875 
Q 19.734375 -1.421875 13.25 4.234375 
Q 6.78125 9.90625 6.78125 20.515625 
Q 6.78125 27.484375 10.78125 32.3125 
Q 14.796875 37.15625 21.921875 38.8125 
z
M 18.3125 54.390625 
Q 18.3125 48.734375 21.84375 45.5625 
Q 25.390625 42.390625 31.78125 42.390625 
Q 38.140625 42.390625 41.71875 45.5625 
Q 45.3125 48.734375 45.3125 54.390625 
Q 45.3125 60.0625 41.71875 63.234375 
Q 38.140625 66.40625 31.78125 66.40625 
Q 25.390625 66.40625 21.84375 63.234375 
Q 18.3125 60.0625 18.3125 54.390625 
z
" id="DejaVuSans-56"/>
      </defs>
      <g transform="translate(381.4576 188.562296)scale(0.1 -0.1)">
       <use xlink:href="#DejaVuSans-52"/>
       <use x="63.623047" xlink:href="#DejaVuSans-56"/>
       <use x="127.246094" xlink:href="#DejaVuSans-48"/>
       <use x="190.869141" xlink:href="#DejaVuSans-48"/>
       <use x="254.492188" xlink:href="#DejaVuSans-48"/>
       <use x="318.115234" xlink:href="#DejaVuSans-48"/>
      </g>
     </g>
    </g>
    <g id="ytick_15">
     <g id="line2d_24">
      <g>
       <use style="stroke:#000000;stroke-width:0.8;" x="374.4576" xlink:href="#m1a4ee8e671" y="154.057846"/>
      </g>
     </g>
     <g id="text_24">
      <!-- 600000 -->
      <g transform="translate(381.4576 157.857065)scale(0.1 -0.1)">
       <use xlink:href="#DejaVuSans-54"/>
       <use x="63.623047" xlink:href="#DejaVuSans-48"/>
       <use x="127.246094" xlink:href="#DejaVuSans-48"/>
       <use x="190.869141" xlink:href="#DejaVuSans-48"/>
       <use x="254.492188" xlink:href="#DejaVuSans-48"/>
       <use x="318.115234" xlink:href="#DejaVuSans-48"/>
      </g>
     </g>
    </g>
    <g id="ytick_16">
     <g id="line2d_25">
      <g>
       <use style="stroke:#000000;stroke-width:0.8;" x="374.4576" xlink:href="#m1a4ee8e671" y="123.352615"/>
      </g>
     </g>
     <g id="text_25">
      <!-- 720000 -->
      <defs>
       <path d="M 8.203125 72.90625 
L 55.078125 72.90625 
L 55.078125 68.703125 
L 28.609375 0 
L 18.3125 0 
L 43.21875 64.59375 
L 8.203125 64.59375 
z
" id="DejaVuSans-55"/>
      </defs>
      <g transform="translate(381.4576 127.151834)scale(0.1 -0.1)">
       <use xlink:href="#DejaVuSans-55"/>
       <use x="63.623047" xlink:href="#DejaVuSans-50"/>
       <use x="127.246094" xlink:href="#DejaVuSans-48"/>
       <use x="190.869141" xlink:href="#DejaVuSans-48"/>
       <use x="254.492188" xlink:href="#DejaVuSans-48"/>
       <use x="318.115234" xlink:href="#DejaVuSans-48"/>
      </g>
     </g>
    </g>
    <g id="ytick_17">
     <g id="line2d_26">
      <g>
       <use style="stroke:#000000;stroke-width:0.8;" x="374.4576" xlink:href="#m1a4ee8e671" y="92.647385"/>
      </g>
     </g>
     <g id="text_26">
      <!-- 840000 -->
      <g transform="translate(381.4576 96.446603)scale(0.1 -0.1)">
       <use xlink:href="#DejaVuSans-56"/>
       <use x="63.623047" xlink:href="#DejaVuSans-52"/>
       <use x="127.246094" xlink:href="#DejaVuSans-48"/>
       <use x="190.869141" xlink:href="#DejaVuSans-48"/>
       <use x="254.492188" xlink:href="#DejaVuSans-48"/>
       <use x="318.115234" xlink:href="#DejaVuSans-48"/>
      </g>
     </g>
    </g>
    <g id="ytick_18">
     <g id="line2d_27">
      <g>
       <use style="stroke:#000000;stroke-width:0.8;" x="374.4576" xlink:href="#m1a4ee8e671" y="61.942154"/>
      </g>
     </g>
     <g id="text_27">
      <!-- 960000 -->
      <defs>
       <path d="M 10.984375 1.515625 
L 10.984375 10.5 
Q 14.703125 8.734375 18.5 7.8125 
Q 22.3125 6.890625 25.984375 6.890625 
Q 35.75 6.890625 40.890625 13.453125 
Q 46.046875 20.015625 46.78125 33.40625 
Q 43.953125 29.203125 39.59375 26.953125 
Q 35.25 24.703125 29.984375 24.703125 
Q 19.046875 24.703125 12.671875 31.3125 
Q 6.296875 37.9375 6.296875 49.421875 
Q 6.296875 60.640625 12.9375 67.421875 
Q 19.578125 74.21875 30.609375 74.21875 
Q 43.265625 74.21875 49.921875 64.515625 
Q 56.59375 54.828125 56.59375 36.375 
Q 56.59375 19.140625 48.40625 8.859375 
Q 40.234375 -1.421875 26.421875 -1.421875 
Q 22.703125 -1.421875 18.890625 -0.6875 
Q 15.09375 0.046875 10.984375 1.515625 
z
M 30.609375 32.421875 
Q 37.25 32.421875 41.125 36.953125 
Q 45.015625 41.5 45.015625 49.421875 
Q 45.015625 57.28125 41.125 61.84375 
Q 37.25 66.40625 30.609375 66.40625 
Q 23.96875 66.40625 20.09375 61.84375 
Q 16.21875 57.28125 16.21875 49.421875 
Q 16.21875 41.5 20.09375 36.953125 
Q 23.96875 32.421875 30.609375 32.421875 
z
" id="DejaVuSans-57"/>
      </defs>
      <g transform="translate(381.4576 65.741373)scale(0.1 -0.1)">
       <use xlink:href="#DejaVuSans-57"/>
       <use x="63.623047" xlink:href="#DejaVuSans-54"/>
       <use x="127.246094" xlink:href="#DejaVuSans-48"/>
       <use x="190.869141" xlink:href="#DejaVuSans-48"/>
       <use x="254.492188" xlink:href="#DejaVuSans-48"/>
       <use x="318.115234" xlink:href="#DejaVuSans-48"/>
      </g>
     </g>
    </g>
   </g>
   <g id="LineCollection_28">
    <path clip-path="url(#p8ef56bcb7d)" d="M 361.152 307.584 
L 374.4576 307.584 
" style="fill:none;stroke:#00ff80;stroke-width:1.5;"/>
    <path clip-path="url(#p8ef56bcb7d)" d="M 361.152 297.348923 
L 374.4576 297.348923 
" style="fill:none;stroke:#00f684;stroke-width:1.5;"/>
    <path clip-path="url(#p8ef56bcb7d)" d="M 361.152 287.113846 
L 374.4576 287.113846 
" style="fill:none;stroke:#00ec89;stroke-width:1.5;"/>
    <path clip-path="url(#p8ef56bcb7d)" d="M 361.152 276.878769 
L 374.4576 276.878769 
" style="fill:none;stroke:#00e28e;stroke-width:1.5;"/>
    <path clip-path="url(#p8ef56bcb7d)" d="M 361.152 266.643692 
L 374.4576 266.643692 
" style="fill:none;stroke:#00d893;stroke-width:1.5;"/>
    <path clip-path="url(#p8ef56bcb7d)" d="M 361.152 256.408615 
L 374.4576 256.408615 
" style="fill:none;stroke:#00ce98;stroke-width:1.5;"/>
    <path clip-path="url(#p8ef56bcb7d)" d="M 361.152 246.173538 
L 374.4576 246.173538 
" style="fill:none;stroke:#00c49d;stroke-width:1.5;"/>
    <path clip-path="url(#p8ef56bcb7d)" d="M 361.152 235.938462 
L 374.4576 235.938462 
" style="fill:none;stroke:#00bba2;stroke-width:1.5;"/>
    <path clip-path="url(#p8ef56bcb7d)" d="M 361.152 225.703385 
L 374.4576 225.703385 
" style="fill:none;stroke:#00b1a6;stroke-width:1.5;"/>
    <path clip-path="url(#p8ef56bcb7d)" d="M 361.152 215.468308 
L 374.4576 215.468308 
" style="fill:none;stroke:#00a7ac;stroke-width:1.5;"/>
    <path clip-path="url(#p8ef56bcb7d)" d="M 361.152 205.233231 
L 374.4576 205.233231 
" style="fill:none;stroke:#009db0;stroke-width:1.5;"/>
    <path clip-path="url(#p8ef56bcb7d)" d="M 361.152 194.998154 
L 374.4576 194.998154 
" style="fill:none;stroke:#0093b6;stroke-width:1.5;"/>
    <path clip-path="url(#p8ef56bcb7d)" d="M 361.152 184.763077 
L 374.4576 184.763077 
" style="fill:none;stroke:#0089bb;stroke-width:1.5;"/>
    <path clip-path="url(#p8ef56bcb7d)" d="M 361.152 174.528 
L 374.4576 174.528 
" style="fill:none;stroke:#007fc0;stroke-width:1.5;"/>
    <path clip-path="url(#p8ef56bcb7d)" d="M 361.152 164.292923 
L 374.4576 164.292923 
" style="fill:none;stroke:#0076c4;stroke-width:1.5;"/>
    <path clip-path="url(#p8ef56bcb7d)" d="M 361.152 154.057846 
L 374.4576 154.057846 
" style="fill:none;stroke:#006cc9;stroke-width:1.5;"/>
    <path clip-path="url(#p8ef56bcb7d)" d="M 361.152 143.822769 
L 374.4576 143.822769 
" style="fill:none;stroke:#0062ce;stroke-width:1.5;"/>
    <path clip-path="url(#p8ef56bcb7d)" d="M 361.152 133.587692 
L 374.4576 133.587692 
" style="fill:none;stroke:#0058d3;stroke-width:1.5;"/>
    <path clip-path="url(#p8ef56bcb7d)" d="M 361.152 123.352615 
L 374.4576 123.352615 
" style="fill:none;stroke:#004ed8;stroke-width:1.5;"/>
    <path clip-path="url(#p8ef56bcb7d)" d="M 361.152 113.117538 
L 374.4576 113.117538 
" style="fill:none;stroke:#0044dd;stroke-width:1.5;"/>
    <path clip-path="url(#p8ef56bcb7d)" d="M 361.152 102.882462 
L 374.4576 102.882462 
" style="fill:none;stroke:#003be2;stroke-width:1.5;"/>
    <path clip-path="url(#p8ef56bcb7d)" d="M 361.152 92.647385 
L 374.4576 92.647385 
" style="fill:none;stroke:#0031e6;stroke-width:1.5;"/>
    <path clip-path="url(#p8ef56bcb7d)" d="M 361.152 82.412308 
L 374.4576 82.412308 
" style="fill:none;stroke:#0027ec;stroke-width:1.5;"/>
    <path clip-path="url(#p8ef56bcb7d)" d="M 361.152 72.177231 
L 374.4576 72.177231 
" style="fill:none;stroke:#001df0;stroke-width:1.5;"/>
    <path clip-path="url(#p8ef56bcb7d)" d="M 361.152 61.942154 
L 374.4576 61.942154 
" style="fill:none;stroke:#0013f6;stroke-width:1.5;"/>
    <path clip-path="url(#p8ef56bcb7d)" d="M 361.152 51.707077 
L 374.4576 51.707077 
" style="fill:none;stroke:#0009fb;stroke-width:1.5;"/>
    <path clip-path="url(#p8ef56bcb7d)" d="M 361.152 41.472 
L 374.4576 41.472 
" style="fill:none;stroke:#0000ff;stroke-width:1.5;"/>
   </g>
   <g id="patch_8">
    <path d="M 361.152 307.584 
L 361.152 297.348923 
L 361.152 51.707077 
L 361.152 41.472 
L 374.4576 41.472 
L 374.4576 51.707077 
L 374.4576 297.348923 
L 374.4576 307.584 
z
" style="fill:none;stroke:#000000;stroke-linejoin:miter;stroke-width:0.8;"/>
   </g>
  </g>
 </g>
 <defs>
  <clipPath id="p858b92a4f3">
   <rect height="266.112" width="285.696" x="57.6" y="41.472"/>
  </clipPath>
  <clipPath id="p8ef56bcb7d">
   <rect height="266.112" width="13.3056" x="361.152" y="41.472"/>
  </clipPath>
 </defs>
</svg>
