<?xml version="1.0" encoding="utf-8" standalone="no"?>
<!DOCTYPE svg PUBLIC "-//W3C//DTD SVG 1.1//EN"
  "http://www.w3.org/Graphics/SVG/1.1/DTD/svg11.dtd">
<!-- Created with matplotlib (https://matplotlib.org/) -->
<svg height="345.6pt" version="1.1" viewBox="0 0 460.8 345.6" width="460.8pt" xmlns="http://www.w3.org/2000/svg" xmlns:xlink="http://www.w3.org/1999/xlink">
 <defs>
  <style type="text/css">
*{stroke-linecap:butt;stroke-linejoin:round;}
  </style>
 </defs>
 <g id="figure_1">
  <g id="patch_1">
   <path d="M 0 345.6 
L 460.8 345.6 
L 460.8 0 
L 0 0 
z
" style="fill:#ffffff;"/>
  </g>
  <g id="axes_1">
   <g id="patch_2">
    <path d="M 57.6 307.584 
L 343.296 307.584 
L 343.296 41.472 
L 57.6 41.472 
z
" style="fill:#ffffff;"/>
   </g>
   <g id="matplotlib.axis_1">
    <g id="xtick_1">
     <g id="line2d_1">
      <defs>
       <path d="M 0 0 
L 0 3.5 
" id="m6b8510a2d4" style="stroke:#000000;stroke-width:0.8;"/>
      </defs>
      <g>
       <use style="stroke:#000000;stroke-width:0.8;" x="57.6" xlink:href="#m6b8510a2d4" y="307.584"/>
      </g>
     </g>
     <g id="text_1">
      <!-- −1.5 -->
      <defs>
       <path d="M 10.59375 35.5 
L 73.1875 35.5 
L 73.1875 27.203125 
L 10.59375 27.203125 
z
" id="DejaVuSans-8722"/>
       <path d="M 12.40625 8.296875 
L 28.515625 8.296875 
L 28.515625 63.921875 
L 10.984375 60.40625 
L 10.984375 69.390625 
L 28.421875 72.90625 
L 38.28125 72.90625 
L 38.28125 8.296875 
L 54.390625 8.296875 
L 54.390625 0 
L 12.40625 0 
z
" id="DejaVuSans-49"/>
       <path d="M 10.6875 12.40625 
L 21 12.40625 
L 21 0 
L 10.6875 0 
z
" id="DejaVuSans-46"/>
       <path d="M 10.796875 72.90625 
L 49.515625 72.90625 
L 49.515625 64.59375 
L 19.828125 64.59375 
L 19.828125 46.734375 
Q 21.96875 47.46875 24.109375 47.828125 
Q 26.265625 48.1875 28.421875 48.1875 
Q 40.625 48.1875 47.75 41.5 
Q 54.890625 34.8125 54.890625 23.390625 
Q 54.890625 11.625 47.5625 5.09375 
Q 40.234375 -1.421875 26.90625 -1.421875 
Q 22.3125 -1.421875 17.546875 -0.640625 
Q 12.796875 0.140625 7.71875 1.703125 
L 7.71875 11.625 
Q 12.109375 9.234375 16.796875 8.0625 
Q 21.484375 6.890625 26.703125 6.890625 
Q 35.15625 6.890625 40.078125 11.328125 
Q 45.015625 15.765625 45.015625 23.390625 
Q 45.015625 31 40.078125 35.4375 
Q 35.15625 39.890625 26.703125 39.890625 
Q 22.75 39.890625 18.8125 39.015625 
Q 14.890625 38.140625 10.796875 36.28125 
z
" id="DejaVuSans-53"/>
      </defs>
      <g transform="translate(45.458594 322.182437)scale(0.1 -0.1)">
       <use xlink:href="#DejaVuSans-8722"/>
       <use x="83.789062" xlink:href="#DejaVuSans-49"/>
       <use x="147.412109" xlink:href="#DejaVuSans-46"/>
       <use x="179.199219" xlink:href="#DejaVuSans-53"/>
      </g>
     </g>
    </g>
    <g id="xtick_2">
     <g id="line2d_2">
      <g>
       <use style="stroke:#000000;stroke-width:0.8;" x="105.216" xlink:href="#m6b8510a2d4" y="307.584"/>
      </g>
     </g>
     <g id="text_2">
      <!-- −1.0 -->
      <defs>
       <path d="M 31.78125 66.40625 
Q 24.171875 66.40625 20.328125 58.90625 
Q 16.5 51.421875 16.5 36.375 
Q 16.5 21.390625 20.328125 13.890625 
Q 24.171875 6.390625 31.78125 6.390625 
Q 39.453125 6.390625 43.28125 13.890625 
Q 47.125 21.390625 47.125 36.375 
Q 47.125 51.421875 43.28125 58.90625 
Q 39.453125 66.40625 31.78125 66.40625 
z
M 31.78125 74.21875 
Q 44.046875 74.21875 50.515625 64.515625 
Q 56.984375 54.828125 56.984375 36.375 
Q 56.984375 17.96875 50.515625 8.265625 
Q 44.046875 -1.421875 31.78125 -1.421875 
Q 19.53125 -1.421875 13.0625 8.265625 
Q 6.59375 17.96875 6.59375 36.375 
Q 6.59375 54.828125 13.0625 64.515625 
Q 19.53125 74.21875 31.78125 74.21875 
z
" id="DejaVuSans-48"/>
      </defs>
      <g transform="translate(93.074594 322.182437)scale(0.1 -0.1)">
       <use xlink:href="#DejaVuSans-8722"/>
       <use x="83.789062" xlink:href="#DejaVuSans-49"/>
       <use x="147.412109" xlink:href="#DejaVuSans-46"/>
       <use x="179.199219" xlink:href="#DejaVuSans-48"/>
      </g>
     </g>
    </g>
    <g id="xtick_3">
     <g id="line2d_3">
      <g>
       <use style="stroke:#000000;stroke-width:0.8;" x="152.832" xlink:href="#m6b8510a2d4" y="307.584"/>
      </g>
     </g>
     <g id="text_3">
      <!-- −0.5 -->
      <g transform="translate(140.690594 322.182437)scale(0.1 -0.1)">
       <use xlink:href="#DejaVuSans-8722"/>
       <use x="83.789062" xlink:href="#DejaVuSans-48"/>
       <use x="147.412109" xlink:href="#DejaVuSans-46"/>
       <use x="179.199219" xlink:href="#DejaVuSans-53"/>
      </g>
     </g>
    </g>
    <g id="xtick_4">
     <g id="line2d_4">
      <g>
       <use style="stroke:#000000;stroke-width:0.8;" x="200.448" xlink:href="#m6b8510a2d4" y="307.584"/>
      </g>
     </g>
     <g id="text_4">
      <!-- 0.0 -->
      <g transform="translate(192.496438 322.182437)scale(0.1 -0.1)">
       <use xlink:href="#DejaVuSans-48"/>
       <use x="63.623047" xlink:href="#DejaVuSans-46"/>
       <use x="95.410156" xlink:href="#DejaVuSans-48"/>
      </g>
     </g>
    </g>
    <g id="xtick_5">
     <g id="line2d_5">
      <g>
       <use style="stroke:#000000;stroke-width:0.8;" x="248.064" xlink:href="#m6b8510a2d4" y="307.584"/>
      </g>
     </g>
     <g id="text_5">
      <!-- 0.5 -->
      <g transform="translate(240.112438 322.182437)scale(0.1 -0.1)">
       <use xlink:href="#DejaVuSans-48"/>
       <use x="63.623047" xlink:href="#DejaVuSans-46"/>
       <use x="95.410156" xlink:href="#DejaVuSans-53"/>
      </g>
     </g>
    </g>
    <g id="xtick_6">
     <g id="line2d_6">
      <g>
       <use style="stroke:#000000;stroke-width:0.8;" x="295.68" xlink:href="#m6b8510a2d4" y="307.584"/>
      </g>
     </g>
     <g id="text_6">
      <!-- 1.0 -->
      <g transform="translate(287.728437 322.182437)scale(0.1 -0.1)">
       <use xlink:href="#DejaVuSans-49"/>
       <use x="63.623047" xlink:href="#DejaVuSans-46"/>
       <use x="95.410156" xlink:href="#DejaVuSans-48"/>
      </g>
     </g>
    </g>
    <g id="xtick_7">
     <g id="line2d_7">
      <g>
       <use style="stroke:#000000;stroke-width:0.8;" x="343.296" xlink:href="#m6b8510a2d4" y="307.584"/>
      </g>
     </g>
     <g id="text_7">
      <!-- 1.5 -->
      <g transform="translate(335.344438 322.182437)scale(0.1 -0.1)">
       <use xlink:href="#DejaVuSans-49"/>
       <use x="63.623047" xlink:href="#DejaVuSans-46"/>
       <use x="95.410156" xlink:href="#DejaVuSans-53"/>
      </g>
     </g>
    </g>
   </g>
   <g id="matplotlib.axis_2">
    <g id="ytick_1">
     <g id="line2d_8">
      <defs>
       <path d="M 0 0 
L -3.5 0 
" id="m0202be22c2" style="stroke:#000000;stroke-width:0.8;"/>
      </defs>
      <g>
       <use style="stroke:#000000;stroke-width:0.8;" x="57.6" xlink:href="#m0202be22c2" y="307.584"/>
      </g>
     </g>
     <g id="text_8">
      <!-- −1.5 -->
      <g transform="translate(26.317187 311.383219)scale(0.1 -0.1)">
       <use xlink:href="#DejaVuSans-8722"/>
       <use x="83.789062" xlink:href="#DejaVuSans-49"/>
       <use x="147.412109" xlink:href="#DejaVuSans-46"/>
       <use x="179.199219" xlink:href="#DejaVuSans-53"/>
      </g>
     </g>
    </g>
    <g id="ytick_2">
     <g id="line2d_9">
      <g>
       <use style="stroke:#000000;stroke-width:0.8;" x="57.6" xlink:href="#m0202be22c2" y="263.232"/>
      </g>
     </g>
     <g id="text_9">
      <!-- −1.0 -->
      <g transform="translate(26.317187 267.031219)scale(0.1 -0.1)">
       <use xlink:href="#DejaVuSans-8722"/>
       <use x="83.789062" xlink:href="#DejaVuSans-49"/>
       <use x="147.412109" xlink:href="#DejaVuSans-46"/>
       <use x="179.199219" xlink:href="#DejaVuSans-48"/>
      </g>
     </g>
    </g>
    <g id="ytick_3">
     <g id="line2d_10">
      <g>
       <use style="stroke:#000000;stroke-width:0.8;" x="57.6" xlink:href="#m0202be22c2" y="218.88"/>
      </g>
     </g>
     <g id="text_10">
      <!-- −0.5 -->
      <g transform="translate(26.317187 222.679219)scale(0.1 -0.1)">
       <use xlink:href="#DejaVuSans-8722"/>
       <use x="83.789062" xlink:href="#DejaVuSans-48"/>
       <use x="147.412109" xlink:href="#DejaVuSans-46"/>
       <use x="179.199219" xlink:href="#DejaVuSans-53"/>
      </g>
     </g>
    </g>
    <g id="ytick_4">
     <g id="line2d_11">
      <g>
       <use style="stroke:#000000;stroke-width:0.8;" x="57.6" xlink:href="#m0202be22c2" y="174.528"/>
      </g>
     </g>
     <g id="text_11">
      <!-- 0.0 -->
      <g transform="translate(34.696875 178.327219)scale(0.1 -0.1)">
       <use xlink:href="#DejaVuSans-48"/>
       <use x="63.623047" xlink:href="#DejaVuSans-46"/>
       <use x="95.410156" xlink:href="#DejaVuSans-48"/>
      </g>
     </g>
    </g>
    <g id="ytick_5">
     <g id="line2d_12">
      <g>
       <use style="stroke:#000000;stroke-width:0.8;" x="57.6" xlink:href="#m0202be22c2" y="130.176"/>
      </g>
     </g>
     <g id="text_12">
      <!-- 0.5 -->
      <g transform="translate(34.696875 133.975219)scale(0.1 -0.1)">
       <use xlink:href="#DejaVuSans-48"/>
       <use x="63.623047" xlink:href="#DejaVuSans-46"/>
       <use x="95.410156" xlink:href="#DejaVuSans-53"/>
      </g>
     </g>
    </g>
    <g id="ytick_6">
     <g id="line2d_13">
      <g>
       <use style="stroke:#000000;stroke-width:0.8;" x="57.6" xlink:href="#m0202be22c2" y="85.824"/>
      </g>
     </g>
     <g id="text_13">
      <!-- 1.0 -->
      <g transform="translate(34.696875 89.623219)scale(0.1 -0.1)">
       <use xlink:href="#DejaVuSans-49"/>
       <use x="63.623047" xlink:href="#DejaVuSans-46"/>
       <use x="95.410156" xlink:href="#DejaVuSans-48"/>
      </g>
     </g>
    </g>
    <g id="ytick_7">
     <g id="line2d_14">
      <g>
       <use style="stroke:#000000;stroke-width:0.8;" x="57.6" xlink:href="#m0202be22c2" y="41.472"/>
      </g>
     </g>
     <g id="text_14">
      <!-- 1.5 -->
      <g transform="translate(34.696875 45.271219)scale(0.1 -0.1)">
       <use xlink:href="#DejaVuSans-49"/>
       <use x="63.623047" xlink:href="#DejaVuSans-46"/>
       <use x="95.410156" xlink:href="#DejaVuSans-53"/>
      </g>
     </g>
    </g>
   </g>
   <g id="LineCollection_1"/>
   <g id="LineCollection_2">
    <path clip-path="url(#p5ca75762ca)" d="M 73.605261 307.584 
L 79.514792 279.501829 
L 84.116382 259.443136 
L 87.748824 244.603355 
L 93.820076 222.000241 
L 98.165287 207.290533 
L 102.105407 194.949832 
L 107.17159 180.545608 
L 109.711019 173.859377 
L 112.963472 165.835899 
L 115.265374 160.486915 
L 119.333307 151.724746 
L 123.786238 143.102714 
L 127.63124 136.416482 
L 129.382915 133.577409 
L 132.850173 128.393005 
L 135.787039 124.381266 
L 137.996864 121.576932 
L 141.36613 117.695035 
L 143.914536 115.020543 
L 146.717396 112.34605 
L 149.850773 109.671558 
L 152.353447 107.748489 
L 155.407826 105.659819 
L 158.09608 104.034635 
L 160.967397 102.510291 
L 163.838714 101.186745 
L 166.71003 100.049379 
L 169.955371 98.973588 
L 173.888322 97.930159 
L 178.195296 97.08153 
L 182.502271 96.487166 
L 186.809246 96.101471 
L 192.551879 95.825547 
L 201.165829 95.681447 
L 209.779779 95.512495 
L 215.522412 95.190612 
L 219.829387 94.757656 
L 224.136362 94.106485 
L 228.443337 93.185322 
L 232.750312 91.945956 
L 235.621628 90.917101 
L 238.705102 89.612864 
L 241.437349 88.275618 
L 244.235578 86.712373 
L 248.00044 84.263879 
L 249.978211 82.824087 
L 253.147225 80.252141 
L 256.089316 77.577648 
L 258.753972 74.903156 
L 262.342646 70.891417 
L 264.526331 68.216925 
L 267.544519 64.205186 
L 270.315575 60.193447 
L 273.699093 54.844462 
L 276.798086 49.495477 
L 279.66472 44.146492 
L 281.023627 41.472 
L 281.023627 41.472 
" style="fill:none;stroke:#00f784;stroke-width:1.5;"/>
    <path clip-path="url(#p5ca75762ca)" d="M 327.826513 41.472 
L 325.935378 50.832724 
L 319.546016 80.252141 
L 316.729008 92.287357 
L 313.435829 105.659819 
L 311.35832 113.683296 
L 306.953244 129.730251 
L 302.992912 143.102714 
L 298.226893 157.812422 
L 294.942605 167.173146 
L 292.967041 172.522131 
L 288.720262 183.220101 
L 284.43401 193.014224 
L 280.104545 201.941548 
L 275.82006 209.867937 
L 271.714607 216.651256 
L 269.962454 219.325749 
L 267.152318 223.337487 
L 264.074052 227.349226 
L 260.664763 231.360965 
L 258.162173 234.035457 
L 255.419437 236.70995 
L 252.363324 239.384442 
L 249.978211 241.27053 
L 246.965439 243.396181 
L 244.235578 245.097418 
L 241.364261 246.667712 
L 238.492945 248.029758 
L 235.621628 249.197908 
L 232.750312 250.187878 
L 228.443337 251.365797 
L 224.136362 252.218982 
L 219.829387 252.80395 
L 215.522412 253.160974 
L 209.779779 253.376509 
L 202.601487 253.388298 
L 191.116221 253.347849 
L 185.373588 253.548248 
L 181.066613 253.892021 
L 176.759638 254.453198 
L 172.452663 255.284973 
L 168.145688 256.432514 
L 165.274372 257.39847 
L 162.403055 258.543219 
L 159.531739 259.879989 
L 156.660422 261.423358 
L 153.397463 263.454874 
L 150.917789 265.190397 
L 148.02073 267.466613 
L 144.985136 270.141106 
L 142.249774 272.815598 
L 139.432523 275.848749 
L 136.361915 279.501829 
L 133.297966 283.513568 
L 130.491843 287.525307 
L 127.072195 292.874291 
L 123.94621 298.223276 
L 121.058842 303.572261 
L 119.024515 307.584 
L 119.024515 307.584 
" style="fill:none;stroke:#00f784;stroke-width:1.5;"/>
   </g>
   <g id="LineCollection_3">
    <path clip-path="url(#p5ca75762ca)" d="M 67.171411 307.584 
L 69.906294 292.874291 
L 73.021404 276.827337 
L 75.46753 264.792121 
L 79.16024 247.40792 
L 85.026886 222.000241 
L 90.120852 201.941548 
L 92.664025 192.580824 
L 96.362774 179.687983 
L 101.113623 164.498653 
L 104.976724 153.116632 
L 109.708453 140.428221 
L 112.969184 132.404744 
L 115.279208 127.055759 
L 119.007401 119.032281 
L 121.003373 115.020543 
L 124.578371 108.334312 
L 126.890704 104.322573 
L 130.223087 98.973588 
L 132.943851 94.961849 
L 135.90144 90.950111 
L 138.023207 88.275618 
L 141.531521 84.263879 
L 144.111554 81.589387 
L 146.952194 78.914894 
L 150.131304 76.240402 
L 152.353447 74.549623 
L 155.807248 72.228663 
L 158.09608 70.861897 
L 160.967397 69.350613 
L 163.838714 68.039586 
L 166.810564 66.879678 
L 171.030672 65.542432 
L 175.32398 64.516989 
L 179.630955 63.775482 
L 183.93793 63.273022 
L 189.680563 62.888914 
L 196.858854 62.709113 
L 211.215437 62.474941 
L 216.95807 62.104926 
L 221.819811 61.530693 
L 225.57202 60.888735 
L 229.878995 59.876058 
L 233.222184 58.856201 
L 235.621628 57.997337 
L 238.492945 56.798135 
L 242.404989 54.844462 
L 244.721464 53.507216 
L 247.106894 51.984809 
L 250.531291 49.495477 
L 252.849528 47.61983 
L 255.720844 45.045608 
L 259.265008 41.472 
L 259.265008 41.472 
" style="fill:none;stroke:#00ee88;stroke-width:1.5;"/>
    <path clip-path="url(#p5ca75762ca)" d="M 334.08426 41.472 
L 330.085997 62.86794 
L 324.632442 90.000376 
L 318.498963 117.695035 
L 314.308365 135.079236 
L 309.777252 152.463437 
L 305.968884 166.052594 
L 301.126642 181.882854 
L 297.583745 192.580824 
L 295.222241 199.267055 
L 292.230619 207.290533 
L 289.579366 213.976764 
L 286.760101 220.662995 
L 283.742095 227.349226 
L 281.1624 232.698211 
L 277.681749 239.384442 
L 275.433569 243.396181 
L 272.204466 248.745166 
L 269.579509 252.756905 
L 266.736755 256.768643 
L 263.623958 260.780382 
L 261.373874 263.454874 
L 258.592161 266.487009 
L 255.720844 269.323798 
L 252.849528 271.879687 
L 249.978211 274.170063 
L 247.106894 276.204705 
L 243.954502 278.164583 
L 241.364261 279.580813 
L 238.492945 280.947877 
L 235.470234 282.176322 
L 231.434845 283.513568 
L 228.443337 284.30035 
L 224.136362 285.165955 
L 219.829387 285.758536 
L 214.511741 286.18806 
L 209.779779 286.360664 
L 202.601487 286.393151 
L 191.116221 286.389592 
L 185.373588 286.609347 
L 181.066613 286.967431 
L 176.759638 287.547647 
L 172.452663 288.393686 
L 168.145688 289.559804 
L 165.274372 290.539106 
L 162.403055 291.696652 
L 159.531739 293.046107 
L 156.660422 294.602082 
L 153.047268 296.88603 
L 150.917789 298.396335 
L 147.77176 300.897769 
L 144.777647 303.572261 
L 142.074764 306.246754 
L 140.811671 307.584 
L 140.811671 307.584 
" style="fill:none;stroke:#00ee88;stroke-width:1.5;"/>
   </g>
   <g id="LineCollection_4">
    <path clip-path="url(#p5ca75762ca)" d="M 62.66202 307.584 
L 66.21395 287.199646 
L 72.723373 252.756905 
L 76.263558 235.333061 
L 82.144575 208.627779 
L 87.317956 187.231839 
L 89.735393 177.871116 
L 93.491457 164.072032 
L 98.527332 147.114452 
L 101.526476 137.753729 
L 104.250452 129.730251 
L 107.137155 121.706774 
L 110.212924 113.683296 
L 112.947336 106.997065 
L 115.862507 100.310834 
L 118.346553 94.961849 
L 121.681555 88.275618 
L 123.820119 84.263879 
L 126.881741 78.914894 
L 130.218662 73.56591 
L 132.943715 69.554171 
L 135.906736 65.542432 
L 138.033756 62.86794 
L 141.549996 58.856201 
L 144.138049 56.181709 
L 146.988721 53.507216 
L 150.180564 50.832724 
L 152.353447 49.185217 
L 155.888951 46.820985 
L 158.143395 45.483739 
L 160.967397 44.003468 
L 163.838714 42.697942 
L 167.020111 41.472 
L 167.020111 41.472 
" style="fill:none;stroke:#00e68c;stroke-width:1.5;"/>
    <path clip-path="url(#p5ca75762ca)" d="M 338.520214 41.472 
L 334.053587 66.879678 
L 330.316514 86.938372 
L 324.386345 116.357789 
L 319.38244 139.090975 
L 316.555716 151.126191 
L 313.585623 163.161407 
L 311.160849 172.522131 
L 307.404543 186.276336 
L 302.335599 203.278794 
L 299.322608 212.639518 
L 296.584041 220.662995 
L 293.680479 228.686472 
L 291.115394 235.372704 
L 287.830046 243.396181 
L 285.496328 248.745166 
L 282.381072 255.431397 
L 279.709869 260.780382 
L 276.843167 266.129367 
L 273.741142 271.478352 
L 271.234547 275.49009 
L 268.535366 279.501829 
L 265.596883 283.513568 
L 262.36178 287.525307 
L 260.014703 290.199799 
L 257.156503 293.169616 
L 254.285186 295.865761 
L 251.413869 298.288795 
L 247.893636 300.897769 
L 245.671236 302.369056 
L 242.79992 304.055701 
L 239.928603 305.527455 
L 237.057286 306.798262 
L 235.014247 307.584 
L 235.014247 307.584 
" style="fill:none;stroke:#00e68c;stroke-width:1.5;"/>
   </g>
   <g id="LineCollection_5">
    <path clip-path="url(#p5ca75762ca)" d="M 59.076667 307.584 
L 65.673049 268.803859 
L 68.840558 251.419658 
L 71.134601 239.384442 
L 74.853943 220.662995 
L 80.601637 193.91807 
L 85.967441 171.184884 
L 88.329071 161.824161 
L 92.055799 147.782715 
L 96.878123 131.067497 
L 100.669749 118.916941 
L 105.181064 105.659819 
L 109.283698 94.619236 
L 113.590673 84.059059 
L 117.897648 74.493608 
L 121.685146 66.879678 
L 123.826096 62.86794 
L 126.890783 57.518955 
L 130.231502 52.16997 
L 132.960461 48.158231 
L 135.928214 44.146492 
L 138.060189 41.472 
L 138.060189 41.472 
" style="fill:none;stroke:#00dd90;stroke-width:1.5;"/>
    <path clip-path="url(#p5ca75762ca)" d="M 342.054151 41.472 
L 339.850564 54.844462 
L 335.713634 78.914894 
L 331.048229 104.322573 
L 327.503759 122.519703 
L 321.761126 149.822204 
L 316.018492 174.65514 
L 310.770816 195.255317 
L 307.842909 205.953286 
L 305.141243 215.31401 
L 302.293711 224.674734 
L 299.278189 234.035457 
L 296.536749 242.058935 
L 293.630167 250.082412 
L 291.061461 256.768643 
L 287.772892 264.792121 
L 285.434677 270.141106 
L 282.315444 276.827337 
L 279.639233 282.176322 
L 276.767282 287.525307 
L 273.659733 292.874291 
L 271.146155 296.88603 
L 268.439416 300.897769 
L 265.492884 304.909508 
L 263.36757 307.584 
L 263.36757 307.584 
" style="fill:none;stroke:#00dd90;stroke-width:1.5;"/>
   </g>
   <g id="LineCollection_6">
    <path clip-path="url(#p5ca75762ca)" d="M 57.6 297.88841 
L 64.228388 258.105889 
L 67.649608 238.929231 
L 73.742365 207.290533 
L 78.215059 185.894593 
L 82.096627 168.510392 
L 86.934616 148.451698 
L 90.620141 134.21285 
L 95.250543 117.695035 
L 99.310324 104.322573 
L 103.7325 90.950111 
L 107.84804 79.536609 
L 112.155015 68.639057 
L 116.46199 58.751155 
L 120.267589 50.832724 
L 123.051402 45.483739 
L 125.273073 41.472 
L 125.273073 41.472 
" style="fill:none;stroke:#00d594;stroke-width:1.5;"/>
    <path clip-path="url(#p5ca75762ca)" d="M 343.296 52.503607 
L 336.656644 92.287357 
L 333.310664 111.008804 
L 331.051333 123.04402 
L 327.397722 141.765467 
L 322.057567 167.173146 
L 319.660519 177.871116 
L 316.018492 193.385945 
L 311.128442 212.639518 
L 307.404543 226.26622 
L 302.715406 242.058935 
L 298.790593 254.252134 
L 294.483618 266.532197 
L 290.000359 278.164583 
L 286.039272 287.525307 
L 283.595231 292.874291 
L 281.004236 298.223276 
L 278.235155 303.572261 
L 276.023704 307.584 
L 276.023704 307.584 
" style="fill:none;stroke:#00d594;stroke-width:1.5;"/>
   </g>
   <g id="LineCollection_7">
    <path clip-path="url(#p5ca75762ca)" d="M 57.6 280.83268 
L 64.053762 242.058935 
L 67.880092 220.662995 
L 73.007272 193.91807 
L 75.73296 180.545608 
L 78.870287 165.835899 
L 81.264496 155.13793 
L 84.877508 139.721625 
L 89.782298 120.369528 
L 93.491457 106.768239 
L 98.175798 90.950111 
L 102.105407 78.709205 
L 106.412382 66.392315 
L 110.844987 54.844462 
L 115.026332 44.935734 
L 116.592197 41.472 
L 116.592197 41.472 
" style="fill:none;stroke:#00cc99;stroke-width:1.5;"/>
    <path clip-path="url(#p5ca75762ca)" d="M 343.296 69.441756 
L 337.045864 106.997065 
L 332.726067 131.067497 
L 328.637052 152.463437 
L 323.97861 175.196623 
L 320.172908 192.580824 
L 315.442945 212.639518 
L 311.711518 227.396581 
L 306.959731 244.733427 
L 302.994598 258.105889 
L 298.689823 271.478352 
L 294.46571 283.513568 
L 290.176643 294.669768 
L 285.842112 304.909508 
L 284.630901 307.584 
L 284.630901 307.584 
" style="fill:none;stroke:#00cc99;stroke-width:1.5;"/>
   </g>
   <g id="LineCollection_8">
    <path clip-path="url(#p5ca75762ca)" d="M 57.6 265.167559 
L 63.887106 227.349226 
L 67.9529 204.61604 
L 72.555322 180.545608 
L 76.368265 161.824161 
L 81.355038 139.090975 
L 84.877508 124.07587 
L 89.889386 104.322573 
L 93.170782 92.287357 
L 95.873144 82.926633 
L 98.72072 73.56591 
L 101.29515 65.542432 
L 104.476734 56.181709 
L 107.38223 48.158231 
L 109.950958 41.472 
L 109.950958 41.472 
" style="fill:none;stroke:#00c49d;stroke-width:1.5;"/>
    <path clip-path="url(#p5ca75762ca)" d="M 343.296 85.016067 
L 336.96352 123.04402 
L 332.888371 145.777206 
L 328.275403 169.847638 
L 324.450528 188.569085 
L 319.755904 209.965025 
L 315.988745 226.01198 
L 311.238763 244.733427 
L 307.404543 258.770428 
L 302.844897 274.152844 
L 298.790593 286.755631 
L 294.287033 299.560523 
L 291.228845 307.584 
L 291.228845 307.584 
" style="fill:none;stroke:#00c49d;stroke-width:1.5;"/>
   </g>
   <g id="LineCollection_9">
    <path clip-path="url(#p5ca75762ca)" d="M 57.6 250.598024 
L 63.677329 213.976764 
L 68.478503 187.231839 
L 71.956583 168.972962 
L 77.537857 141.765467 
L 80.178366 129.730251 
L 82.93699 117.695035 
L 85.830029 105.659819 
L 88.875003 93.624603 
L 91.367967 84.263879 
L 94.741661 72.228663 
L 97.124423 64.205186 
L 100.044472 54.844462 
L 103.14326 45.483739 
L 104.534876 41.472 
L 104.534876 41.472 
" style="fill:none;stroke:#00bba2;stroke-width:1.5;"/>
    <path clip-path="url(#p5ca75762ca)" d="M 343.296 99.51255 
L 337.161016 136.416482 
L 332.598592 161.824161 
L 328.767931 181.882854 
L 323.832671 205.953286 
L 320.322928 222.000241 
L 315.273513 243.396181 
L 311.711518 257.461127 
L 307.146936 274.152844 
L 303.097568 287.843884 
L 298.790593 301.249278 
L 296.608786 307.584 
L 296.608786 307.584 
" style="fill:none;stroke:#00bba2;stroke-width:1.5;"/>
   </g>
   <g id="LineCollection_10">
    <path clip-path="url(#p5ca75762ca)" d="M 57.6 236.92201 
L 63.624283 200.604302 
L 68.42301 173.859377 
L 71.990022 155.13793 
L 77.193871 129.730251 
L 80.409138 115.020543 
L 82.869088 104.322573 
L 86.085633 90.950111 
L 88.801004 80.252141 
L 91.652862 69.554171 
L 94.278145 60.193447 
L 97.442588 49.495477 
L 99.953747 41.472 
L 99.953747 41.472 
" style="fill:none;stroke:#00b3a6;stroke-width:1.5;"/>
    <path clip-path="url(#p5ca75762ca)" d="M 343.296 113.12757 
L 337.203868 149.788945 
L 332.643955 175.196623 
L 328.816597 195.255317 
L 323.884191 219.325749 
L 320.325467 235.601887 
L 315.332926 256.768643 
L 311.711518 271.07408 
L 307.216621 287.525307 
L 302.852645 302.235015 
L 301.167109 307.584 
L 301.167109 307.584 
" style="fill:none;stroke:#00b3a6;stroke-width:1.5;"/>
   </g>
   <g id="LineCollection_11">
    <path clip-path="url(#p5ca75762ca)" d="M 57.6 223.994066 
L 63.467087 188.569085 
L 68.752951 159.149668 
L 71.561319 144.43996 
L 74.495902 129.730251 
L 77.289367 116.357789 
L 80.213843 102.985327 
L 82.974846 90.950111 
L 85.870464 78.914894 
L 88.918248 66.879678 
L 91.414244 57.518955 
L 94.791214 45.483739 
L 95.971937 41.472 
L 95.971937 41.472 
" style="fill:none;stroke:#00aaaa;stroke-width:1.5;"/>
    <path clip-path="url(#p5ca75762ca)" d="M 343.296 126.004995 
L 337.352368 161.824161 
L 332.303637 189.906332 
L 328.939417 207.521425 
L 323.495709 234.035457 
L 320.858284 246.070673 
L 317.790215 259.443136 
L 315.210922 270.141106 
L 311.823342 283.513568 
L 309.313688 292.874291 
L 306.30382 303.572261 
L 305.12704 307.584 
L 305.12704 307.584 
" style="fill:none;stroke:#00aaaa;stroke-width:1.5;"/>
   </g>
   <g id="LineCollection_12">
    <path clip-path="url(#p5ca75762ca)" d="M 57.6 211.702233 
L 63.422103 176.533869 
L 68.952361 145.777206 
L 71.512645 132.404744 
L 74.714428 116.357789 
L 77.23649 104.322573 
L 80.454376 89.612864 
L 82.917094 78.914894 
L 86.136608 65.542432 
L 88.855198 54.844462 
L 91.710551 44.146492 
L 92.448656 41.472 
L 92.448656 41.472 
" style="fill:none;stroke:#00a2ae;stroke-width:1.5;"/>
    <path clip-path="url(#p5ca75762ca)" d="M 343.296 138.252413 
L 337.389912 173.859377 
L 332.34307 201.941548 
L 328.939417 219.767861 
L 323.540495 246.070673 
L 320.608533 259.443136 
L 317.839471 271.478352 
L 314.935003 283.513568 
L 312.22161 294.211538 
L 309.371109 304.909508 
L 308.638523 307.584 
L 308.638523 307.584 
" style="fill:none;stroke:#00a2ae;stroke-width:1.5;"/>
   </g>
   <g id="LineCollection_13">
    <path clip-path="url(#p5ca75762ca)" d="M 57.6 199.961643 
L 63.474381 164.498653 
L 68.761087 135.079236 
L 71.570195 120.369528 
L 74.505649 105.659819 
L 77.299969 92.287357 
L 80.225436 78.914894 
L 82.987432 66.879678 
L 85.884181 54.844462 
L 88.933256 42.809246 
L 89.279958 41.472 
L 89.279958 41.472 
" style="fill:none;stroke:#0099b2;stroke-width:1.5;"/>
    <path clip-path="url(#p5ca75762ca)" d="M 343.296 149.955149 
L 337.331229 185.894593 
L 332.281496 213.976764 
L 328.939417 231.46985 
L 323.753224 256.768643 
L 320.325467 272.424714 
L 315.510157 292.874291 
L 311.791747 307.584 
L 311.791747 307.584 
" style="fill:none;stroke:#0099b2;stroke-width:1.5;"/>
   </g>
   <g id="LineCollection_14">
    <path clip-path="url(#p5ca75762ca)" d="M 57.6 188.703335 
L 63.375803 153.800683 
L 68.904739 123.04402 
L 71.462684 109.671558 
L 74.827899 92.804806 
L 79.805085 69.554171 
L 83.481454 53.507216 
L 86.405528 41.472 
L 86.405528 41.472 
" style="fill:none;stroke:#0091b6;stroke-width:1.5;"/>
    <path clip-path="url(#p5ca75762ca)" d="M 343.296 161.178639 
L 337.424034 196.592563 
L 332.13157 226.01198 
L 329.319013 240.721688 
L 326.379622 255.431397 
L 323.581196 268.803859 
L 320.651063 282.176322 
L 317.884173 294.211538 
L 314.981879 306.246754 
L 314.655156 307.584 
L 314.655156 307.584 
" style="fill:none;stroke:#0091b6;stroke-width:1.5;"/>
   </g>
   <g id="LineCollection_15">
    <path clip-path="url(#p5ca75762ca)" d="M 57.6 177.873093 
L 57.600321 177.871116 
L 57.817703 176.533869 
L 58.034087 175.196623 
L 58.249486 173.859377 
L 58.463913 172.522131 
L 58.677381 171.184884 
L 58.889904 169.847638 
L 59.035658 168.927751 
L 59.104876 168.510392 
L 59.326328 167.173146 
L 59.546767 165.835899 
L 59.766206 164.498653 
L 59.984658 163.161407 
L 60.202137 161.824161 
L 60.418657 160.486915 
L 60.471317 160.161346 
L 60.642519 159.149668 
L 60.868028 157.812422 
L 61.092509 156.475176 
L 61.315976 155.13793 
L 61.538444 153.800683 
L 61.759926 152.463437 
L 61.906975 151.572999 
L 61.984147 151.126191 
L 62.214752 149.788945 
L 62.444304 148.451698 
L 62.672816 147.114452 
L 62.900302 145.777206 
L 63.126777 144.43996 
L 63.342633 143.160013 
L 63.352736 143.102714 
L 63.588464 141.765467 
L 63.823112 140.428221 
L 64.056695 139.090975 
L 64.289228 137.753729 
L 64.520725 136.416482 
L 64.751199 135.079236 
L 64.778291 134.921967 
L 64.990722 133.74199 
L 65.230491 132.404744 
L 65.469171 131.067497 
L 65.706777 129.730251 
L 65.943323 128.393005 
L 66.178824 127.055759 
L 66.21395 126.85618 
L 66.423127 125.718513 
L 66.66804 124.381266 
L 66.911842 123.04402 
L 67.154547 121.706774 
L 67.39617 120.369528 
L 67.636725 119.032281 
L 67.649608 118.960649 
L 67.887322 117.695035 
L 68.137403 116.357789 
L 68.386351 115.020543 
L 68.63418 113.683296 
L 68.880906 112.34605 
L 69.085266 111.234349 
L 69.128554 111.008804 
L 69.384996 109.671558 
L 69.640268 108.334312 
L 69.894386 106.997065 
L 70.147366 105.659819 
L 70.399222 104.322573 
L 70.520925 103.675019 
L 70.656208 102.985327 
L 70.917886 101.64808 
L 71.178374 100.310834 
L 71.437688 98.973588 
L 71.695846 97.636342 
L 71.952861 96.299095 
L 71.956583 96.279731 
L 72.220844 94.961849 
L 72.487782 93.624603 
L 72.753512 92.287357 
L 73.018052 90.950111 
L 73.281416 89.612864 
L 73.392241 89.04911 
L 73.550842 88.275618 
L 73.824309 86.938372 
L 74.096535 85.601126 
L 74.367537 84.263879 
L 74.637332 82.926633 
L 74.827899 81.97912 
L 74.909637 81.589387 
L 75.189712 80.252141 
L 75.468513 78.914894 
L 75.746059 77.577648 
L 76.022366 76.240402 
L 76.263558 75.068561 
L 76.299049 74.903156 
L 76.585812 73.56591 
L 76.87127 72.228663 
L 77.155441 70.891417 
L 77.438342 69.554171 
L 77.699216 68.315969 
L 77.720965 68.216925 
L 78.014497 66.879678 
L 78.306693 65.542432 
L 78.597573 64.205186 
L 78.887152 62.86794 
L 79.134874 61.719624 
L 79.177342 61.530693 
L 79.477727 60.193447 
L 79.776746 58.856201 
L 80.074419 57.518955 
L 80.370764 56.181709 
L 80.570533 55.277559 
L 80.670215 54.844462 
L 80.977538 53.507216 
L 81.283468 52.16997 
L 81.588023 50.832724 
L 81.891222 49.495477 
L 82.006191 48.987569 
L 82.201701 48.158231 
L 82.516052 46.820985 
L 82.828983 45.483739 
L 83.140513 44.146492 
L 83.441849 42.847399 
L 83.451064 42.809246 
L 83.774006 41.472 
" style="fill:none;stroke:#0088bb;stroke-width:1.5;"/>
    <path clip-path="url(#p5ca75762ca)" d="M 343.296 171.978504 
L 343.207548 172.522131 
L 342.990382 173.859377 
L 342.774208 175.196623 
L 342.559015 176.533869 
L 342.344787 177.871116 
L 342.131513 179.208362 
L 341.919179 180.545608 
L 341.860342 180.916593 
L 341.69995 181.882854 
L 341.478718 183.220101 
L 341.258494 184.557347 
L 341.039264 185.894593 
L 340.821015 187.231839 
L 340.603734 188.569085 
L 340.424683 189.67506 
L 340.385509 189.906332 
L 340.159189 191.243578 
L 339.933904 192.580824 
L 339.70964 193.91807 
L 339.486385 195.255317 
L 339.264124 196.592563 
L 339.042843 197.929809 
L 338.989025 198.255381 
L 338.81413 199.267055 
L 338.583757 200.604302 
L 338.354431 201.941548 
L 338.12614 203.278794 
L 337.898868 204.61604 
L 337.672603 205.953286 
L 337.553367 206.659605 
L 337.442017 207.290533 
L 337.206529 208.627779 
L 336.972115 209.965025 
L 336.73876 211.302271 
L 336.506449 212.639518 
L 336.275169 213.976764 
L 336.117709 214.889922 
L 336.041284 215.31401 
L 335.800658 216.651256 
L 335.561129 217.988503 
L 335.322684 219.325749 
L 335.085307 220.662995 
L 334.848984 222.000241 
L 334.68205 222.947792 
L 334.610326 223.337487 
L 334.364538 224.674734 
L 334.119872 226.01198 
L 333.876311 227.349226 
L 333.633841 228.686472 
L 333.392448 230.023719 
L 333.246392 230.834981 
L 333.147495 231.360965 
L 332.896524 232.698211 
L 332.646696 234.035457 
L 332.397995 235.372704 
L 332.150406 236.70995 
L 331.903914 238.047196 
L 331.810734 238.553544 
L 331.651101 239.384442 
L 331.394922 240.721688 
L 331.139908 242.058935 
L 330.88604 243.396181 
L 330.633306 244.733427 
L 330.381688 246.070673 
L 330.375075 246.105822 
L 330.1194 247.40792 
L 329.85799 248.745166 
L 329.597764 250.082412 
L 329.338704 251.419658 
L 329.080795 252.756905 
L 328.939417 253.491715 
L 328.818482 254.094151 
L 328.550598 255.431397 
L 328.283931 256.768643 
L 328.018465 258.105889 
L 327.754183 259.443136 
L 327.503759 260.715622 
L 327.490465 260.780382 
L 327.216027 262.117628 
L 326.94284 263.454874 
L 326.670887 264.792121 
L 326.400152 266.129367 
L 326.130617 267.466613 
L 326.068101 267.777087 
L 325.852516 268.803859 
L 325.572729 270.141106 
L 325.294208 271.478352 
L 325.016937 272.815598 
L 324.740898 274.152844 
L 324.632442 274.679154 
L 324.458237 275.49009 
L 324.17177 276.827337 
L 323.8866 278.164583 
L 323.602711 279.501829 
L 323.320084 280.839075 
L 323.196784 281.42359 
L 323.031298 282.176322 
L 322.738068 283.513568 
L 322.446166 284.850814 
L 322.155575 286.18806 
L 321.866276 287.525307 
L 321.761126 288.012125 
L 321.569733 288.862553 
L 321.269657 290.199799 
L 320.970937 291.537045 
L 320.673558 292.874291 
L 320.377499 294.211538 
L 320.325467 294.446734 
L 320.0715 295.548784 
L 319.764489 296.88603 
L 319.458864 298.223276 
L 319.154607 299.560523 
L 318.889809 300.728866 
L 318.849939 300.897769 
L 318.534471 302.235015 
L 318.220435 303.572261 
L 317.907813 304.909508 
L 317.596585 306.246754 
L 317.454151 306.859982 
L 317.279044 307.584 
" style="fill:none;stroke:#0088bb;stroke-width:1.5;"/>
   </g>
   <g id="LineCollection_16">
    <path clip-path="url(#p5ca75762ca)" d="M 343.296 182.39897 
L 343.162455 183.220101 
L 342.945568 184.557347 
L 342.729637 185.894593 
L 342.514649 187.231839 
L 342.300592 188.569085 
L 342.087454 189.906332 
L 341.875223 191.243578 
L 341.860342 191.337369 
L 341.654027 192.580824 
L 341.433066 193.91807 
L 341.213075 195.255317 
L 340.994041 196.592563 
L 340.775953 197.929809 
L 340.558798 199.267055 
L 340.424683 200.095102 
L 340.338469 200.604302 
L 340.112443 201.941548 
L 339.887414 203.278794 
L 339.66337 204.61604 
L 339.440296 205.953286 
L 339.21818 207.290533 
L 338.997011 208.627779 
L 338.989025 208.67607 
L 338.766286 209.965025 
L 338.536188 211.302271 
L 338.3071 212.639518 
L 338.079007 213.976764 
L 337.851897 215.31401 
L 337.625757 216.651256 
L 337.553367 217.079897 
L 337.393075 217.988503 
L 337.157878 219.325749 
L 336.923714 220.662995 
L 336.69057 222.000241 
L 336.458432 223.337487 
L 336.227289 224.674734 
L 336.117709 225.309965 
L 335.991248 226.01198 
L 335.750922 227.349226 
L 335.511654 228.686472 
L 335.273428 230.023719 
L 335.036232 231.360965 
L 334.800052 232.698211 
L 334.68205 233.367746 
L 334.559203 234.035457 
L 334.313721 235.372704 
L 334.069318 236.70995 
L 333.82598 238.047196 
L 333.583694 239.384442 
L 333.342445 240.721688 
L 333.246392 241.255007 
L 333.095292 242.058935 
L 332.844626 243.396181 
L 332.59506 244.733427 
L 332.34658 246.070673 
L 332.099172 247.40792 
L 331.852823 248.745166 
L 331.810734 248.973793 
L 331.597821 250.082412 
L 331.341942 251.419658 
L 331.087184 252.756905 
L 330.833531 254.094151 
L 330.58097 255.431397 
L 330.375075 256.525368 
L 330.327321 256.768643 
L 330.065045 258.105889 
L 329.803924 259.443136 
L 329.543941 260.780382 
L 329.285083 262.117628 
L 329.027334 263.454874 
L 328.939417 263.91166 
L 328.762731 264.792121 
L 328.495162 266.129367 
L 328.228765 267.466613 
L 327.963526 268.803859 
L 327.699428 270.141106 
L 327.503759 271.135013 
L 327.433302 271.478352 
L 327.159203 272.815598 
L 326.886308 274.152844 
L 326.614602 275.49009 
L 326.344069 276.827337 
L 326.074694 278.164583 
L 326.068101 278.197318 
L 325.794289 279.501829 
L 325.514811 280.839075 
L 325.236554 282.176322 
L 324.9595 283.513568 
L 324.683634 284.850814 
L 324.632442 285.099154 
L 324.398597 286.18806 
L 324.112451 287.525307 
L 323.827556 288.862553 
L 323.543894 290.199799 
L 323.261449 291.537045 
L 323.196784 291.843498 
L 322.970236 292.874291 
L 322.677335 294.211538 
L 322.385713 295.548784 
L 322.095354 296.88603 
L 321.806241 298.223276 
L 321.761126 298.432082 
L 321.50724 299.560523 
L 321.207494 300.897769 
L 320.909055 302.235015 
L 320.611907 303.572261 
L 320.325467 304.866687 
L 320.315602 304.909508 
L 320.007564 306.246754 
L 319.70088 307.584 
" style="fill:none;stroke:#007fc0;stroke-width:1.5;"/>
    <path clip-path="url(#p5ca75762ca)" d="M 57.6 167.42603 
L 57.641094 167.173146 
L 57.858207 165.835899 
L 58.074359 164.498653 
L 58.289563 163.161407 
L 58.50383 161.824161 
L 58.717174 160.486915 
L 58.929606 159.149668 
L 59.035658 158.480667 
L 59.14644 157.812422 
L 59.367632 156.475176 
L 59.587849 155.13793 
L 59.807102 153.800683 
L 60.025405 152.463437 
L 60.242769 151.126191 
L 60.459208 149.788945 
L 60.471317 149.714117 
L 60.684868 148.451698 
L 60.91013 147.114452 
L 61.134404 145.777206 
L 61.357701 144.43996 
L 61.580034 143.102714 
L 61.801416 141.765467 
L 61.906975 141.126564 
L 62.027546 140.428221 
L 62.257886 139.090975 
L 62.487212 137.753729 
L 62.715536 136.416482 
L 62.942872 135.079236 
L 63.169232 133.74199 
L 63.342633 132.714251 
L 63.397186 132.404744 
L 63.632633 131.067497 
L 63.867041 129.730251 
L 64.100424 128.393005 
L 64.332794 127.055759 
L 64.564166 125.718513 
L 64.778291 124.476021 
L 64.795345 124.381266 
L 65.035927 123.04402 
L 65.275447 121.706774 
L 65.513919 120.369528 
L 65.751355 119.032281 
L 65.987769 117.695035 
L 66.21395 116.410413 
L 66.223622 116.357789 
L 66.469368 115.020543 
L 66.714028 113.683296 
L 66.957617 112.34605 
L 67.20015 111.008804 
L 67.441639 109.671558 
L 67.649608 108.515671 
L 67.683662 108.334312 
L 67.934597 106.997065 
L 68.184426 105.659819 
L 68.433163 104.322573 
L 68.680822 102.985327 
L 68.927418 101.64808 
L 69.085266 100.789756 
L 69.177153 100.310834 
L 69.433306 98.973588 
L 69.688333 97.636342 
L 69.942247 96.299095 
L 70.195065 94.961849 
L 70.446799 93.624603 
L 70.520925 93.230354 
L 70.705836 92.287357 
L 70.967236 90.950111 
L 71.227491 89.612864 
L 71.486615 88.275618 
L 71.744623 86.938372 
L 71.956583 85.835915 
L 72.00365 85.601126 
L 72.271507 84.263879 
L 72.538185 82.926633 
L 72.8037 81.589387 
L 73.068067 80.252141 
L 73.331301 78.914894 
L 73.392241 78.605017 
L 73.602836 77.577648 
L 73.876021 76.240402 
L 74.148011 74.903156 
L 74.418822 73.56591 
L 74.688468 72.228663 
L 74.827899 71.535666 
L 74.962977 70.891417 
L 75.242753 69.554171 
L 75.521302 68.216925 
L 75.798642 66.879678 
L 76.074787 65.542432 
L 76.263558 64.625619 
L 76.353746 64.205186 
L 76.640197 62.86794 
L 76.925392 61.530693 
L 77.209346 60.193447 
L 77.492077 58.856201 
L 77.699216 57.8734 
L 77.777027 57.518955 
L 78.07024 56.181709 
L 78.362167 54.844462 
L 78.652825 53.507216 
L 78.942231 52.16997 
L 79.134874 51.277286 
L 79.234778 50.832724 
L 79.534842 49.495477 
L 79.833592 48.158231 
L 80.131044 46.820985 
L 80.427216 45.483739 
L 80.570533 44.835316 
L 80.729036 44.146492 
L 81.036043 42.809246 
L 81.341708 41.472 
" style="fill:none;stroke:#007fc0;stroke-width:1.5;"/>
   </g>
   <g id="LineCollection_17">
    <path clip-path="url(#p5ca75762ca)" d="M 343.296 192.477885 
L 343.279264 192.580824 
L 343.061942 193.91807 
L 342.84555 195.255317 
L 342.630077 196.592563 
L 342.415513 197.929809 
L 342.201844 199.267055 
L 341.989061 200.604302 
L 341.860342 201.415251 
L 341.773049 201.941548 
L 341.551633 203.278794 
L 341.331163 204.61604 
L 341.111625 205.953286 
L 340.89301 207.290533 
L 340.675305 208.627779 
L 340.458499 209.965025 
L 340.424683 210.173724 
L 340.233679 211.302271 
L 340.008173 212.639518 
L 339.783627 213.976764 
L 339.560026 215.31401 
L 339.337361 216.651256 
L 339.115618 217.988503 
L 338.989025 218.753731 
L 338.890211 219.325749 
L 338.659635 220.662995 
L 338.430042 222.000241 
L 338.20142 223.337487 
L 337.973757 224.674734 
L 337.747041 226.01198 
L 337.553367 227.158381 
L 337.51971 227.349226 
L 337.284031 228.686472 
L 337.049358 230.023719 
L 336.81568 231.360965 
L 336.582983 232.698211 
L 336.351256 234.035457 
L 336.120486 235.372704 
L 336.117709 235.388799 
L 335.879804 236.70995 
L 335.640018 238.047196 
L 335.40125 239.384442 
L 335.163484 240.721688 
L 334.92671 242.058935 
L 334.690915 243.396181 
L 334.68205 243.446462 
L 334.445354 244.733427 
L 334.200423 246.070673 
L 333.956529 247.40792 
L 333.713661 248.745166 
L 333.471804 250.082412 
L 333.246392 251.333576 
L 333.230218 251.419658 
L 332.979035 252.756905 
L 332.728924 254.094151 
L 332.479872 255.431397 
L 332.231865 256.768643 
L 331.98489 258.105889 
L 331.810734 259.051616 
L 331.735564 259.443136 
L 331.479148 260.780382 
L 331.223825 262.117628 
L 330.969579 263.454874 
L 330.716398 264.792121 
L 330.464267 266.129367 
L 330.375075 266.603105 
L 330.205628 267.466613 
L 329.943945 268.803859 
L 329.683373 270.141106 
L 329.423897 271.478352 
L 329.165504 272.815598 
L 328.939417 273.989917 
L 328.906731 274.152844 
L 328.638603 275.49009 
L 328.371617 276.827337 
L 328.105759 278.164583 
L 327.841015 279.501829 
L 327.57737 280.839075 
L 327.503759 281.212864 
L 327.306108 282.176322 
L 327.032621 283.513568 
L 326.760292 284.850814 
L 326.489108 286.18806 
L 326.219053 287.525307 
L 326.068101 288.274516 
L 325.944706 288.862553 
L 325.66463 290.199799 
L 325.385743 291.537045 
L 325.108029 292.874291 
L 324.831474 294.211538 
L 324.632442 295.176813 
L 324.552581 295.548784 
L 324.265826 296.88603 
L 323.980289 298.223276 
L 323.695955 299.560523 
L 323.412809 300.897769 
L 323.196784 301.921254 
L 323.127843 302.235015 
L 322.834317 303.572261 
L 322.542039 304.909508 
L 322.250991 306.246754 
L 321.961159 307.584 
" style="fill:none;stroke:#0077c3;stroke-width:1.5;"/>
    <path clip-path="url(#p5ca75762ca)" d="M 57.6 157.323323 
L 57.737772 156.475176 
L 57.954397 155.13793 
L 58.170098 153.800683 
L 58.384886 152.463437 
L 58.598772 151.126191 
L 58.811769 149.788945 
L 59.023887 148.451698 
L 59.035658 148.377478 
L 59.244965 147.114452 
L 59.465673 145.777206 
L 59.685442 144.43996 
L 59.904285 143.102714 
L 60.122212 141.765467 
L 60.339236 140.428221 
L 60.471317 139.612334 
L 60.559482 139.090975 
L 60.785234 137.753729 
L 61.010022 136.416482 
L 61.233858 135.079236 
L 61.456754 133.74199 
L 61.678722 132.404744 
L 61.899773 131.067497 
L 61.906975 131.023928 
L 62.130253 129.730251 
L 62.360095 128.393005 
L 62.588961 127.055759 
L 62.816862 125.718513 
L 63.043812 124.381266 
L 63.269822 123.04402 
L 63.342633 122.612655 
L 63.502245 121.706774 
L 63.737174 120.369528 
L 63.971104 119.032281 
L 64.204046 117.695035 
L 64.436014 116.357789 
L 64.667019 115.020543 
L 64.778291 114.37514 
L 64.902763 113.683296 
L 65.142812 112.34605 
L 65.381839 111.008804 
L 65.619857 109.671558 
L 65.856878 108.334312 
L 66.092915 106.997065 
L 66.21395 106.309911 
L 66.333404 105.659819 
L 66.578605 104.322573 
L 66.822763 102.985327 
L 67.065891 101.64808 
L 67.308 100.310834 
L 67.549105 98.973588 
L 67.649608 98.415216 
L 67.795811 97.636342 
L 68.046198 96.299095 
L 68.29552 94.961849 
L 68.543791 93.624603 
L 68.791024 92.287357 
L 69.037233 90.950111 
L 69.085266 90.689024 
L 69.291677 89.612864 
L 69.547281 88.275618 
L 69.801802 86.938372 
L 70.055252 85.601126 
L 70.307646 84.263879 
L 70.520925 83.129899 
L 70.560773 82.926633 
L 70.822746 81.589387 
L 71.083603 80.252141 
L 71.343357 78.914894 
L 71.602023 77.577648 
L 71.859615 76.240402 
L 71.956583 75.736234 
L 72.12354 74.903156 
L 72.390819 73.56591 
L 72.656966 72.228663 
L 72.921992 70.891417 
L 73.185913 69.554171 
L 73.392241 68.505342 
L 73.451348 68.216925 
L 73.725138 66.879678 
L 73.997763 65.542432 
L 74.269238 64.205186 
L 74.539578 62.86794 
L 74.808796 61.530693 
L 74.827899 61.435778 
L 75.088307 60.193447 
L 75.367499 58.856201 
L 75.645511 57.518955 
L 75.922358 56.181709 
L 76.198055 54.844462 
L 76.263558 54.526442 
L 76.482138 53.507216 
L 76.767987 52.16997 
L 77.052627 50.832724 
L 77.336073 49.495477 
L 77.61834 48.158231 
L 77.699216 47.774633 
L 77.908517 46.820985 
L 78.201114 45.483739 
L 78.492474 44.146492 
L 78.782611 42.809246 
L 79.071543 41.472 
" style="fill:none;stroke:#0077c3;stroke-width:1.5;"/>
   </g>
   <g id="LineCollection_18">
    <path clip-path="url(#p5ca75762ca)" d="M 343.296 202.24564 
L 343.128099 203.278794 
L 342.91148 204.61604 
L 342.695755 205.953286 
L 342.480914 207.290533 
L 342.266947 208.627779 
L 342.053841 209.965025 
L 341.860342 211.183684 
L 341.840679 211.302271 
L 341.619047 212.639518 
L 341.398334 213.976764 
L 341.178531 215.31401 
L 340.959625 216.651256 
L 340.741606 217.988503 
L 340.524462 219.325749 
L 340.424683 219.941343 
L 340.302585 220.662995 
L 340.076845 222.000241 
L 339.852038 223.337487 
L 339.628153 224.674734 
L 339.405179 226.01198 
L 339.183104 227.349226 
L 338.989025 228.522002 
L 338.960622 228.686472 
L 338.729817 230.023719 
L 338.499968 231.360965 
L 338.271065 232.698211 
L 338.043095 234.035457 
L 337.816047 235.372704 
L 337.589911 236.70995 
L 337.553367 236.926181 
L 337.355737 238.047196 
L 337.120809 239.384442 
L 336.886849 240.721688 
L 336.653845 242.058935 
L 336.421785 243.396181 
L 336.190658 244.733427 
L 336.117709 245.156019 
L 335.953053 246.070673 
L 335.713009 247.40792 
L 335.473954 248.745166 
L 335.235877 250.082412 
L 334.998766 251.419658 
L 334.762609 252.756905 
L 334.68205 253.213681 
L 334.520163 254.094151 
L 334.274967 255.431397 
L 334.030781 256.768643 
L 333.787593 258.105889 
L 333.545391 259.443136 
L 333.304163 260.780382 
L 333.246392 261.100934 
L 333.055422 262.117628 
L 332.805036 263.454874 
L 332.555681 264.792121 
L 332.307343 266.129367 
L 332.060011 267.466613 
L 331.813672 268.803859 
L 331.810734 268.819811 
L 331.557132 270.141106 
L 331.301518 271.478352 
L 331.046954 272.815598 
L 330.793427 274.152844 
L 330.540924 275.49009 
L 330.375075 276.370737 
L 330.2855 276.827337 
L 330.023539 278.164583 
L 329.762659 279.501829 
L 329.502846 280.839075 
L 329.244087 282.176322 
L 328.986371 283.513568 
L 328.939417 283.757373 
L 328.720118 284.850814 
L 328.452831 286.18806 
L 328.186642 287.525307 
L 327.921537 288.862553 
L 327.657504 290.199799 
L 327.503759 290.980291 
L 327.389571 291.537045 
L 327.115787 292.874291 
L 326.84313 294.211538 
L 326.571588 295.548784 
L 326.301145 296.88603 
L 326.068101 298.042377 
L 326.03015 298.223276 
L 325.749777 299.560523 
L 325.47056 300.897769 
L 325.192487 302.235015 
L 324.915543 303.572261 
L 324.639713 304.909508 
L 324.632442 304.944761 
L 324.352985 306.246754 
L 324.067115 307.584 
" style="fill:none;stroke:#006ec8;stroke-width:1.5;"/>
    <path clip-path="url(#p5ca75762ca)" d="M 57.6 147.53293 
L 57.667955 147.114452 
L 57.884817 145.777206 
L 58.100779 144.43996 
L 58.315852 143.102714 
L 58.530048 141.765467 
L 58.743376 140.428221 
L 58.955848 139.090975 
L 59.035658 138.587927 
L 59.173858 137.753729 
L 59.394817 136.416482 
L 59.614862 135.079236 
L 59.834005 133.74199 
L 60.052256 132.404744 
L 60.269626 131.067497 
L 60.471317 129.822069 
L 60.486839 129.730251 
L 60.712834 128.393005 
L 60.937891 127.055759 
L 61.162021 125.718513 
L 61.385236 124.381266 
L 61.607547 123.04402 
L 61.828964 121.706774 
L 61.906975 121.234973 
L 62.056301 120.369528 
L 62.286407 119.032281 
L 62.515564 117.695035 
L 62.743782 116.357789 
L 62.971073 115.020543 
L 63.197447 113.683296 
L 63.342633 112.82345 
L 63.426725 112.34605 
L 63.661919 111.008804 
L 63.896139 109.671558 
L 64.129399 108.334312 
L 64.361709 106.997065 
L 64.593081 105.659819 
L 64.778291 104.585925 
L 64.825659 104.322573 
L 65.065976 102.985327 
L 65.305297 101.64808 
L 65.543636 100.310834 
L 65.781005 98.973588 
L 66.017414 97.636342 
L 66.21395 96.520914 
L 66.254698 96.299095 
L 66.500174 94.961849 
L 66.744633 93.624603 
L 66.988089 92.287357 
L 67.230554 90.950111 
L 67.47204 89.612864 
L 67.649608 88.626658 
L 67.715485 88.275618 
L 67.966156 86.938372 
L 68.215791 85.601126 
L 68.464402 84.263879 
L 68.712003 82.926633 
L 68.958604 81.589387 
L 69.085266 80.901131 
L 69.209714 80.252141 
L 69.465617 78.914894 
L 69.720465 77.577648 
L 69.974271 76.240402 
L 70.227047 74.903156 
L 70.478806 73.56591 
L 70.520925 73.34205 
L 70.739131 72.228663 
L 71.000305 70.891417 
L 71.260407 69.554171 
L 71.519448 68.216925 
L 71.777441 66.879678 
L 71.956583 65.948548 
L 72.037953 65.542432 
L 72.305544 64.205186 
L 72.57203 62.86794 
L 72.837427 61.530693 
L 73.101746 60.193447 
L 73.365001 58.856201 
L 73.392241 58.71778 
L 73.63786 57.518955 
L 73.910823 56.181709 
L 74.182665 54.844462 
L 74.453402 53.507216 
L 74.723046 52.16997 
L 74.827899 51.649165 
L 74.998998 50.832724 
L 75.278528 49.495477 
L 75.55691 48.158231 
L 75.834156 46.820985 
L 76.110282 45.483739 
L 76.263558 44.739788 
L 76.390768 44.146492 
L 76.676959 42.809246 
L 76.961973 41.472 
" style="fill:none;stroke:#006ec8;stroke-width:1.5;"/>
   </g>
   <g id="LineCollection_19">
    <path clip-path="url(#p5ca75762ca)" d="M 343.296 211.730214 
L 343.148274 212.639518 
L 342.931623 213.976764 
L 342.715843 215.31401 
L 342.500923 216.651256 
L 342.286852 217.988503 
L 342.07362 219.325749 
L 341.861219 220.662995 
L 341.860342 220.668515 
L 341.639612 222.000241 
L 341.418859 223.337487 
L 341.198989 224.674734 
L 340.979992 226.01198 
L 340.761859 227.349226 
L 340.544578 228.686472 
L 340.424683 229.425938 
L 340.323574 230.023719 
L 340.097805 231.360965 
L 339.872943 232.698211 
L 339.648977 234.035457 
L 339.425898 235.372704 
L 339.203694 236.70995 
L 338.989025 238.006744 
L 338.982041 238.047196 
L 338.751215 239.384442 
L 338.52132 240.721688 
L 338.292343 242.058935 
L 338.064275 243.396181 
L 337.837104 244.733427 
L 337.61082 246.070673 
L 337.553367 246.410528 
L 337.377583 247.40792 
L 337.142612 248.745166 
L 336.908584 250.082412 
L 336.675485 251.419658 
L 336.443305 252.756905 
L 336.212033 254.094151 
L 336.117709 254.640404 
L 335.975354 255.431397 
L 335.73527 256.768643 
L 335.496148 258.105889 
L 335.257977 259.443136 
L 335.020745 260.780382 
L 334.784442 262.117628 
L 334.68205 262.698036 
L 334.542933 263.454874 
L 334.297694 264.792121 
L 334.053438 266.129367 
L 333.810153 267.466613 
L 333.567827 268.803859 
L 333.32645 270.141106 
L 333.246392 270.585195 
L 333.078672 271.478352 
L 332.828238 272.815598 
L 332.578806 274.152844 
L 332.330365 275.49009 
L 332.082902 276.827337 
L 331.836406 278.164583 
L 331.810734 278.303907 
L 331.580871 279.501829 
L 331.3252 280.839075 
L 331.07055 282.176322 
L 330.816909 283.513568 
L 330.564265 284.850814 
L 330.375075 285.855129 
L 330.309778 286.18806 
L 330.047776 287.525307 
L 329.786825 288.862553 
L 329.526912 290.199799 
L 329.268025 291.537045 
L 329.010153 292.874291 
L 328.939417 293.241489 
L 328.744914 294.211538 
L 328.477568 295.548784 
L 328.211291 296.88603 
L 327.946068 298.223276 
L 327.681889 299.560523 
L 327.503759 300.464576 
L 327.414934 300.897769 
L 327.141101 302.235015 
L 326.868365 303.572261 
L 326.596712 304.909508 
L 326.32613 306.246754 
L 326.068101 307.526758 
L 326.056095 307.584 
" style="fill:none;stroke:#0066cc;stroke-width:1.5;"/>
    <path clip-path="url(#p5ca75762ca)" d="M 57.6 138.027701 
L 57.644476 137.753729 
L 57.861375 136.416482 
L 58.0774 135.079236 
L 58.29256 133.74199 
L 58.506865 132.404744 
L 58.720327 131.067497 
L 58.932955 129.730251 
L 59.035658 129.083132 
L 59.149956 128.393005 
L 59.370963 127.055759 
L 59.591081 125.718513 
L 59.810321 124.381266 
L 60.028694 123.04402 
L 60.246209 121.706774 
L 60.462877 120.369528 
L 60.471317 120.317431 
L 60.688508 119.032281 
L 60.913627 117.695035 
L 61.137844 116.357789 
L 61.361171 115.020543 
L 61.583617 113.683296 
L 61.805194 112.34605 
L 61.906975 111.7307 
L 62.031498 111.008804 
L 62.261659 109.671558 
L 62.490895 108.334312 
L 62.719218 106.997065 
L 62.946639 105.659819 
L 63.173168 104.322573 
L 63.342633 103.319262 
L 63.401439 102.985327 
L 63.636681 101.64808 
L 63.870977 100.310834 
L 64.104338 98.973588 
L 64.336775 97.636342 
L 64.5683 96.299095 
L 64.778291 95.081901 
L 64.799879 94.961849 
L 65.040242 93.624603 
L 65.279639 92.287357 
L 65.518079 90.950111 
L 65.755574 89.612864 
L 65.992136 88.275618 
L 66.21395 87.017123 
L 66.228413 86.938372 
L 66.473937 85.601126 
L 66.718474 84.263879 
L 66.962034 82.926633 
L 67.204629 81.589387 
L 67.446272 80.252141 
L 67.649608 79.123165 
L 67.688683 78.914894 
L 67.939408 77.577648 
L 68.189126 76.240402 
L 68.437848 74.903156 
L 68.685586 73.56591 
L 68.932352 72.228663 
L 69.085266 71.398006 
L 69.182385 70.891417 
L 69.438352 69.554171 
L 69.693292 68.216925 
L 69.947219 66.879678 
L 70.200144 65.542432 
L 70.452078 64.205186 
L 70.520925 63.839374 
L 70.711267 62.86794 
L 70.972519 61.530693 
L 71.232727 60.193447 
L 71.491903 58.856201 
L 71.750059 57.518955 
L 71.956583 56.44581 
L 72.009487 56.181709 
L 72.277142 54.844462 
L 72.543724 53.507216 
L 72.809245 52.16997 
L 73.073717 50.832724 
L 73.337154 49.495477 
L 73.392241 49.215626 
L 73.608838 48.158231 
L 73.881887 46.820985 
L 74.153846 45.483739 
L 74.424729 44.146492 
L 74.694549 42.809246 
L 74.827899 42.147078 
L 74.969344 41.472 
" style="fill:none;stroke:#0066cc;stroke-width:1.5;"/>
   </g>
   <g id="LineCollection_20">
    <path clip-path="url(#p5ca75762ca)" d="M 343.296 220.954976 
L 343.126236 222.000241 
L 342.909721 223.337487 
L 342.694051 224.674734 
L 342.479217 226.01198 
L 342.265209 227.349226 
L 342.052017 228.686472 
L 341.860342 229.892876 
L 341.83866 230.023719 
L 341.617166 231.360965 
L 341.39654 232.698211 
L 341.176774 234.035457 
L 340.957856 235.372704 
L 340.739778 236.70995 
L 340.522529 238.047196 
L 340.424683 238.650488 
L 340.300577 239.384442 
L 340.074951 240.721688 
L 339.850207 242.058935 
L 339.626334 243.396181 
L 339.403322 244.733427 
L 339.181162 246.070673 
L 338.989025 247.231015 
L 338.958493 247.40792 
L 338.727822 248.745166 
L 338.498056 250.082412 
L 338.269183 251.419658 
L 338.041193 252.756905 
L 337.814075 254.094151 
L 337.587821 255.431397 
L 337.553367 255.635145 
L 337.353649 256.768643 
L 337.118817 258.105889 
L 336.8849 259.443136 
L 336.651886 260.780382 
L 336.419766 262.117628 
L 336.18853 263.454874 
L 336.117709 263.864903 
L 335.950883 264.792121 
L 335.710942 266.129367 
L 335.471936 267.466613 
L 335.233855 268.803859 
L 334.996687 270.141106 
L 334.760422 271.478352 
L 334.68205 271.922483 
L 334.517926 272.815598 
L 334.272833 274.152844 
L 334.028695 275.49009 
L 333.7855 276.827337 
L 333.543239 278.164583 
L 333.3019 279.501829 
L 333.246392 279.809656 
L 333.053133 280.839075 
L 332.802843 282.176322 
L 332.553527 283.513568 
L 332.305174 284.850814 
L 332.057773 286.18806 
L 331.811312 287.525307 
L 331.810734 287.528443 
L 331.554802 288.862553 
L 331.29927 290.199799 
L 331.04473 291.537045 
L 330.791171 292.874291 
L 330.538582 294.211538 
L 330.375075 295.079295 
L 330.283017 295.548784 
L 330.021175 296.88603 
L 329.760354 298.223276 
L 329.500542 299.560523 
L 329.241728 300.897769 
L 328.9839 302.235015 
L 328.939417 302.465875 
L 328.717628 303.572261 
L 328.45043 304.909508 
L 328.184269 306.246754 
L 327.919135 307.584 
" style="fill:none;stroke:#005dd0;stroke-width:1.5;"/>
    <path clip-path="url(#p5ca75762ca)" d="M 57.6 128.784414 
L 57.663523 128.393005 
L 57.880291 127.055759 
L 58.09621 125.718513 
L 58.311288 124.381266 
L 58.525536 123.04402 
L 58.738963 121.706774 
L 58.951579 120.369528 
L 59.035658 119.839932 
L 59.169384 119.032281 
L 59.390267 117.695035 
L 59.610287 116.357789 
L 59.829453 115.020543 
L 60.047775 113.683296 
L 60.265263 112.34605 
L 60.471317 111.074533 
L 60.482422 111.008804 
L 60.708314 109.671558 
L 60.93332 108.334312 
L 61.15745 106.997065 
L 61.380713 105.659819 
L 61.603121 104.322573 
L 61.824682 102.985327 
L 61.906975 102.487956 
L 62.051811 101.64808 
L 62.281847 100.310834 
L 62.510985 98.973588 
L 62.739234 97.636342 
L 62.966607 96.299095 
L 63.193111 94.961849 
L 63.342633 94.076888 
L 63.42226 93.624603 
L 63.657368 92.287357 
L 63.891557 90.950111 
L 64.124838 89.612864 
L 64.35722 88.275618 
L 64.588713 86.938372 
L 64.778291 85.839838 
L 64.821205 85.601126 
L 65.06143 84.263879 
L 65.300714 82.926633 
L 65.539069 81.589387 
L 65.776505 80.252141 
L 66.013034 78.914894 
L 66.21395 77.775304 
L 66.250242 77.577648 
L 66.495625 76.240402 
L 66.740047 74.903156 
L 66.983521 73.56591 
L 67.226057 72.228663 
L 67.467666 70.891417 
L 67.649608 69.881524 
L 67.711011 69.554171 
L 67.961596 68.216925 
L 68.211202 66.879678 
L 68.45984 65.542432 
L 68.707522 64.205186 
L 68.954258 62.86794 
L 69.085266 62.15648 
L 69.205209 61.530693 
L 69.461041 60.193447 
L 69.715876 58.856201 
L 69.969725 57.518955 
L 70.2226 56.181709 
L 70.474511 54.844462 
L 70.520925 54.597914 
L 70.73459 53.507216 
L 70.995716 52.16997 
L 71.255827 50.832724 
L 71.514935 49.495477 
L 71.773052 48.158231 
L 71.956583 47.20482 
L 72.033456 46.820985 
L 72.300968 45.483739 
L 72.567437 44.146492 
L 72.832875 42.809246 
L 73.097293 41.472 
" style="fill:none;stroke:#005dd0;stroke-width:1.5;"/>
   </g>
   <g id="LineCollection_21">
    <path clip-path="url(#p5ca75762ca)" d="M 343.296 229.940131 
L 343.282428 230.023719 
L 343.065357 231.360965 
L 342.849117 232.698211 
L 342.633697 234.035457 
L 342.41909 235.372704 
L 342.205285 236.70995 
L 341.992273 238.047196 
L 341.860342 238.87733 
L 341.776334 239.384442 
L 341.555136 240.721688 
L 341.334782 242.058935 
L 341.115261 243.396181 
L 340.896566 244.733427 
L 340.678686 246.070673 
L 340.461612 247.40792 
L 340.424683 247.63555 
L 340.237107 248.745166 
L 340.01177 250.082412 
L 339.787289 251.419658 
L 339.563655 252.756905 
L 339.340858 254.094151 
L 339.118888 255.431397 
L 338.989025 256.215438 
L 338.893572 256.768643 
L 338.663206 258.105889 
L 338.433718 259.443136 
L 338.205097 260.780382 
L 337.977334 262.117628 
L 337.75042 263.454874 
L 337.553367 264.619895 
L 337.523028 264.792121 
L 337.287588 266.129367 
L 337.053046 267.466613 
L 336.819392 268.803859 
L 336.586616 270.141106 
L 336.354709 271.478352 
L 336.123661 272.815598 
L 336.117709 272.850051 
L 335.883368 274.152844 
L 335.643726 275.49009 
L 335.404992 276.827337 
L 335.167156 278.164583 
L 334.930208 279.501829 
L 334.694138 280.839075 
L 334.68205 280.907559 
L 334.448953 282.176322 
L 334.204164 283.513568 
L 333.960302 284.850814 
L 333.717358 286.18806 
L 333.47532 287.525307 
L 333.246392 288.794583 
L 333.233634 288.862553 
L 332.982694 290.199799 
L 332.73271 291.537045 
L 332.483673 292.874291 
L 332.23557 294.211538 
L 331.988393 295.548784 
L 331.810734 296.512498 
L 331.739091 296.88603 
L 331.482889 298.223276 
L 331.227662 299.560523 
L 330.973398 300.897769 
L 330.720088 302.235015 
L 330.467719 303.572261 
L 330.375075 304.063823 
L 330.20929 304.909508 
L 329.947776 306.246754 
L 329.687255 307.584 
" style="fill:none;stroke:#0055d4;stroke-width:1.5;"/>
    <path clip-path="url(#p5ca75762ca)" d="M 57.6 119.7823 
L 57.72169 119.032281 
L 57.938186 117.695035 
L 58.153857 116.357789 
L 58.368712 115.020543 
L 58.58276 113.683296 
L 58.79601 112.34605 
L 59.008471 111.008804 
L 59.035658 110.837613 
L 59.228676 109.671558 
L 59.449291 108.334312 
L 59.669067 106.997065 
L 59.888014 105.659819 
L 60.106141 104.322573 
L 60.323457 102.985327 
L 60.471317 102.073194 
L 60.543126 101.64808 
L 60.768732 100.310834 
L 60.993477 98.973588 
L 61.217371 97.636342 
L 61.440423 96.299095 
L 61.662644 94.961849 
L 61.884041 93.624603 
L 61.906975 93.486036 
L 62.113636 92.287357 
L 62.343396 90.950111 
L 62.572284 89.612864 
L 62.800309 88.275618 
L 63.027482 86.938372 
L 63.253811 85.601126 
L 63.342633 85.075574 
L 63.485501 84.263879 
L 63.720322 82.926633 
L 63.95425 81.589387 
L 64.187295 80.252141 
L 64.419467 78.914894 
L 64.650776 77.577648 
L 64.778291 76.838959 
L 64.88587 76.240402 
L 65.125798 74.903156 
L 65.364813 73.56591 
L 65.602926 72.228663 
L 65.840145 70.891417 
L 66.076482 69.554171 
L 66.21395 68.774679 
L 66.316336 68.216925 
L 66.561417 66.879678 
L 66.805566 65.542432 
L 67.048793 64.205186 
L 67.291108 62.86794 
L 67.532522 61.530693 
L 67.649608 60.880973 
L 67.778542 60.193447 
L 68.028823 58.856201 
L 68.278153 57.518955 
L 68.526543 56.181709 
L 68.774003 54.844462 
L 69.020544 53.507216 
L 69.085266 53.15583 
L 69.274184 52.16997 
L 69.529714 50.832724 
L 69.784275 49.495477 
L 70.037878 48.158231 
L 70.290534 46.820985 
L 70.520925 45.597434 
L 70.543193 45.483739 
L 70.805019 44.146492 
L 71.065848 42.809246 
L 71.325691 41.472 
" style="fill:none;stroke:#0055d4;stroke-width:1.5;"/>
   </g>
   <g id="LineCollection_22">
    <path clip-path="url(#p5ca75762ca)" d="M 343.296 238.702541 
L 343.185309 239.384442 
L 342.968655 240.721688 
L 342.752808 242.058935 
L 342.537757 243.396181 
L 342.323495 244.733427 
L 342.110012 246.070673 
L 341.897301 247.40792 
L 341.860342 247.640407 
L 341.677378 248.745166 
L 341.456596 250.082412 
L 341.236633 251.419658 
L 341.01748 252.756905 
L 340.799128 254.094151 
L 340.581568 255.431397 
L 340.424683 256.398212 
L 340.362077 256.768643 
L 340.136312 258.105889 
L 339.911387 259.443136 
L 339.687292 260.780382 
L 339.46402 262.117628 
L 339.241561 263.454874 
L 339.019906 264.792121 
L 338.989025 264.978516 
L 338.790501 266.129367 
L 338.560564 267.466613 
L 338.33148 268.803859 
L 338.103238 270.141106 
L 337.875829 271.478352 
L 337.649245 272.815598 
L 337.553367 273.382302 
L 337.417665 274.152844 
L 337.182669 275.49009 
L 336.948545 276.827337 
L 336.715283 278.164583 
L 336.482875 279.501829 
L 336.25131 280.839075 
L 336.117709 281.612204 
L 336.016259 282.176322 
L 335.776155 283.513568 
L 335.536942 284.850814 
L 335.298611 286.18806 
L 335.061152 287.525307 
L 334.824556 288.862553 
L 334.68205 289.66975 
L 334.584689 290.199799 
L 334.339427 291.537045 
L 334.095076 292.874291 
L 333.851626 294.211538 
L 333.609065 295.548784 
L 333.367386 296.88603 
L 333.246392 297.556713 
L 333.121309 298.223276 
L 332.87084 299.560523 
L 332.621299 300.897769 
L 332.372677 302.235015 
L 332.124963 303.572261 
L 331.878148 304.909508 
L 331.810734 305.27511 
L 331.624415 306.246754 
L 331.368687 307.584 
" style="fill:none;stroke:#004cd9;stroke-width:1.5;"/>
    <path clip-path="url(#p5ca75762ca)" d="M 57.6 111.002732 
L 57.815927 109.671558 
L 58.032031 108.334312 
L 58.247335 106.997065 
L 58.461846 105.659819 
L 58.675574 104.322573 
L 58.888526 102.985327 
L 59.035658 102.0591 
L 59.10368 101.64808 
L 59.324728 100.310834 
L 59.544953 98.973588 
L 59.764363 97.636342 
L 59.982969 96.299095 
L 60.200777 94.961849 
L 60.417798 93.624603 
L 60.471317 93.29455 
L 60.64141 92.287357 
L 60.866605 90.950111 
L 61.090964 89.612864 
L 61.314497 88.275618 
L 61.537213 86.938372 
L 61.759121 85.601126 
L 61.906975 84.707992 
L 61.983528 84.263879 
L 62.213742 82.926633 
L 62.443099 81.589387 
L 62.67161 80.252141 
L 62.899282 78.914894 
L 63.126127 77.577648 
L 63.342633 76.296914 
L 63.352578 76.240402 
L 63.587859 74.903156 
L 63.822263 73.56591 
L 64.0558 72.228663 
L 64.288479 70.891417 
L 64.520311 69.554171 
L 64.751304 68.216925 
L 64.778291 68.060629 
L 64.990498 66.879678 
L 65.229997 65.542432 
L 65.46861 64.205186 
L 65.706346 62.86794 
L 65.943215 61.530693 
L 66.179227 60.193447 
L 66.21395 59.996611 
L 66.423249 58.856201 
L 66.667893 57.518955 
L 66.911632 56.181709 
L 67.154476 54.844462 
L 67.396434 53.507216 
L 67.637516 52.16997 
L 67.649608 52.10289 
L 67.887757 50.832724 
L 68.137596 49.495477 
L 68.386511 48.158231 
L 68.634514 46.820985 
L 68.881614 45.483739 
L 69.085266 44.378317 
L 69.129683 44.146492 
L 69.38572 42.809246 
L 69.640806 41.472 
" style="fill:none;stroke:#004cd9;stroke-width:1.5;"/>
   </g>
   <g id="LineCollection_23">
    <path clip-path="url(#p5ca75762ca)" d="M 343.296 247.259492 
L 343.271912 247.40792 
L 343.054984 248.745166 
L 342.838846 250.082412 
L 342.623491 251.419658 
L 342.408909 252.756905 
L 342.195092 254.094151 
L 341.982033 255.431397 
L 341.860342 256.196709 
L 341.765642 256.768643 
L 341.544574 258.105889 
L 341.324309 259.443136 
L 341.104839 260.780382 
L 340.886155 262.117628 
L 340.668249 263.454874 
L 340.451112 264.792121 
L 340.424683 264.954949 
L 340.226246 266.129367 
L 340.001021 267.466613 
L 339.776611 268.803859 
L 339.553007 270.141106 
L 339.330202 271.478352 
L 339.108186 272.815598 
L 338.989025 273.53468 
L 338.882413 274.152844 
L 338.652176 275.49009 
L 338.422774 276.827337 
L 338.1942 278.164583 
L 337.966443 279.501829 
L 337.739495 280.839075 
L 337.553367 281.938985 
L 337.511577 282.176322 
L 337.276278 283.513568 
L 337.041834 284.850814 
L 336.808237 286.18806 
L 336.575476 287.525307 
L 336.343543 288.862553 
L 336.117709 290.169151 
L 336.112198 290.199799 
L 335.871786 291.537045 
L 335.632248 292.874291 
L 335.393575 294.211538 
L 335.155758 295.548784 
L 334.918788 296.88603 
L 334.682655 298.223276 
L 334.68205 298.226701 
L 334.437104 299.560523 
L 334.19242 300.897769 
L 333.94862 302.235015 
L 333.705693 303.572261 
L 333.463631 304.909508 
L 333.246392 306.113452 
L 333.221382 306.246754 
L 332.970588 307.584 
" style="fill:none;stroke:#0044dd;stroke-width:1.5;"/>
    <path clip-path="url(#p5ca75762ca)" d="M 57.6 102.431761 
L 57.727092 101.64808 
L 57.943492 100.310834 
L 58.159105 98.973588 
L 58.37394 97.636342 
L 58.588006 96.299095 
L 58.801311 94.961849 
L 59.013864 93.624603 
L 59.035658 93.487441 
L 59.23422 92.287357 
L 59.45475 90.950111 
L 59.674482 89.612864 
L 59.893424 88.275618 
L 60.111584 86.938372 
L 60.32897 85.601126 
L 60.471317 84.723466 
L 60.548916 84.263879 
L 60.774415 82.926633 
L 60.999095 81.589387 
L 61.222964 80.252141 
L 61.446031 78.914894 
L 61.668304 77.577648 
L 61.889792 76.240402 
L 61.906975 76.136635 
L 62.119546 74.903156 
L 62.349224 73.56591 
L 62.578072 72.228663 
L 62.806098 70.891417 
L 63.03331 69.554171 
L 63.259718 68.216925 
L 63.342633 67.726575 
L 63.491635 66.879678 
L 63.726364 65.542432 
L 63.960241 64.205186 
L 64.193277 62.86794 
L 64.425481 61.530693 
L 64.656862 60.193447 
L 64.778291 59.490359 
L 64.892223 58.856201 
L 65.132052 57.518955 
L 65.371011 56.181709 
L 65.60911 54.844462 
L 65.846358 53.507216 
L 66.082764 52.16997 
L 66.21395 51.426463 
L 66.3229 50.832724 
L 66.567881 49.495477 
L 66.811974 48.158231 
L 67.055188 46.820985 
L 67.297534 45.483739 
L 67.53902 44.146492 
L 67.649608 43.533118 
L 67.785307 42.809246 
L 68.035493 41.472 
" style="fill:none;stroke:#0044dd;stroke-width:1.5;"/>
   </g>
   <g id="LineCollection_24">
    <path clip-path="url(#p5ca75762ca)" d="M 343.296 255.623631 
L 343.110221 256.768643 
L 342.893916 258.105889 
L 342.678378 259.443136 
L 342.463598 260.780382 
L 342.249568 262.117628 
L 342.036282 263.454874 
L 341.860342 264.561118 
L 341.822101 264.792121 
L 341.600872 266.129367 
L 341.38043 267.466613 
L 341.160767 268.803859 
L 340.941875 270.141106 
L 340.723746 271.478352 
L 340.506372 272.815598 
L 340.424683 273.318777 
L 340.283783 274.152844 
L 340.058384 275.49009 
L 339.833785 276.827337 
L 339.609977 278.164583 
L 339.386952 279.501829 
L 339.164701 280.839075 
L 338.989025 281.898981 
L 338.941203 282.176322 
L 338.710795 283.513568 
L 338.481207 284.850814 
L 338.252429 286.18806 
L 338.024453 287.525307 
L 337.79727 288.862553 
L 337.570873 290.199799 
L 337.553367 290.303227 
L 337.336169 291.537045 
L 337.101538 292.874291 
L 336.867736 294.211538 
L 336.634755 295.548784 
L 336.402587 296.88603 
L 336.171222 298.223276 
L 336.117709 298.532815 
L 335.932965 299.560523 
L 335.693237 300.897769 
L 335.454358 302.235015 
L 335.216318 303.572261 
L 334.979108 304.909508 
L 334.74272 306.246754 
L 334.68205 306.590258 
L 334.499591 307.584 
" style="fill:none;stroke:#003be2;stroke-width:1.5;"/>
    <path clip-path="url(#p5ca75762ca)" d="M 57.6 94.053518 
L 57.669545 93.624603 
L 57.886115 92.287357 
L 58.101914 90.950111 
L 58.316951 89.612864 
L 58.531233 88.275618 
L 58.744769 86.938372 
L 58.957566 85.601126 
L 59.035658 85.109771 
L 59.175589 84.263879 
L 59.3963 82.926633 
L 59.616228 81.589387 
L 59.835381 80.252141 
L 60.053767 78.914894 
L 60.271394 77.577648 
L 60.471317 76.345272 
L 60.48902 76.240402 
L 60.714695 74.903156 
L 60.939567 73.56591 
L 61.163644 72.228663 
L 61.386934 70.891417 
L 61.609446 69.554171 
L 61.831187 68.216925 
L 61.906975 67.759345 
L 62.058544 66.879678 
L 62.288413 65.542432 
L 62.517467 64.205186 
L 62.745715 62.86794 
L 62.973165 61.530693 
L 63.199826 60.193447 
L 63.342633 59.349088 
L 63.429336 58.856201 
L 63.664255 57.518955 
L 63.898339 56.181709 
L 64.131599 54.844462 
L 64.364042 53.507216 
L 64.595677 52.16997 
L 64.778291 51.112844 
L 64.828609 50.832724 
L 65.06863 49.495477 
L 65.3078 48.158231 
L 65.546125 46.820985 
L 65.783616 45.483739 
L 66.020281 44.146492 
L 66.21395 43.049081 
L 66.257952 42.809246 
L 66.50313 41.472 
" style="fill:none;stroke:#003be2;stroke-width:1.5;"/>
   </g>
   <g id="LineCollection_25">
    <path clip-path="url(#p5ca75762ca)" d="M 343.296 263.807701 
L 343.13631 264.792121 
L 342.919945 266.129367 
L 342.704331 267.466613 
L 342.489461 268.803859 
L 342.275326 270.141106 
L 342.06192 271.478352 
L 341.860342 272.745535 
L 341.848746 272.815598 
L 341.627465 274.152844 
L 341.406956 275.49009 
L 341.187211 276.827337 
L 340.968221 278.164583 
L 340.749979 279.501829 
L 340.532477 280.839075 
L 340.424683 281.502918 
L 340.310946 282.176322 
L 340.085487 283.513568 
L 339.860811 284.850814 
L 339.636911 286.18806 
L 339.413777 287.525307 
L 339.191403 288.862553 
L 338.989025 290.083319 
L 338.968944 290.199799 
L 338.73848 291.537045 
L 338.508819 292.874291 
L 338.279952 294.211538 
L 338.051872 295.548784 
L 337.824569 296.88603 
L 337.598036 298.223276 
L 337.553367 298.487135 
L 337.364446 299.560523 
L 337.129744 300.897769 
L 336.895855 302.235015 
L 336.662771 303.572261 
L 336.430483 304.909508 
L 336.198984 306.246754 
L 336.117709 306.716785 
L 335.961844 307.584 
" style="fill:none;stroke:#0033e6;stroke-width:1.5;"/>
    <path clip-path="url(#p5ca75762ca)" d="M 57.6 85.856037 
L 57.641324 85.601126 
L 57.857956 84.263879 
L 58.073832 82.926633 
L 58.288962 81.589387 
L 58.503352 80.252141 
L 58.71701 78.914894 
L 58.929943 77.577648 
L 59.035658 76.91264 
L 59.146842 76.240402 
L 59.367622 74.903156 
L 59.587635 73.56591 
L 59.806888 72.228663 
L 60.025389 70.891417 
L 60.243147 69.554171 
L 60.460168 68.216925 
L 60.471317 68.148217 
L 60.685418 66.879678 
L 60.910369 65.542432 
L 61.13454 64.205186 
L 61.357941 62.86794 
L 61.580578 61.530693 
L 61.80246 60.193447 
L 61.906975 59.562555 
L 62.028661 58.856201 
L 62.258604 57.518955 
L 62.487749 56.181709 
L 62.716104 54.844462 
L 62.943677 53.507216 
L 63.170476 52.16997 
L 63.342633 51.152287 
L 63.398837 50.832724 
L 63.633828 49.495477 
L 63.868002 48.158231 
L 64.101367 46.820985 
L 64.333932 45.483739 
L 64.565704 44.146492 
L 64.778291 42.916112 
L 64.797484 42.809246 
L 65.037578 41.472 
" style="fill:none;stroke:#0033e6;stroke-width:1.5;"/>
   </g>
   <g id="LineCollection_26">
    <path clip-path="url(#p5ca75762ca)" d="M 343.296 271.823122 
L 343.135035 272.815598 
L 342.918705 274.152844 
L 342.703111 275.49009 
L 342.488245 276.827337 
L 342.274101 278.164583 
L 342.06067 279.501829 
L 341.860342 280.7609 
L 341.847405 280.839075 
L 341.626171 282.176322 
L 341.405692 283.513568 
L 341.185961 284.850814 
L 340.96697 286.18806 
L 340.748712 287.525307 
L 340.531179 288.862553 
L 340.424683 289.518275 
L 340.309596 290.199799 
L 340.084176 291.537045 
L 339.859522 292.874291 
L 339.635628 294.211538 
L 339.412486 295.548784 
L 339.190087 296.88603 
L 338.989025 298.098628 
L 338.96754 298.223276 
L 338.737121 299.560523 
L 338.507489 300.897769 
L 338.278634 302.235015 
L 338.05055 303.572261 
L 337.823228 304.909508 
L 337.596661 306.246754 
L 337.553367 306.50244 
L 337.363041 307.584 
" style="fill:none;stroke:#002aea;stroke-width:1.5;"/>
    <path clip-path="url(#p5ca75762ca)" d="M 57.6 77.828319 
L 57.640629 77.577648 
L 57.857227 76.240402 
L 58.073085 74.903156 
L 58.288211 73.56591 
L 58.502613 72.228663 
L 58.716297 70.891417 
L 58.929271 69.554171 
L 59.035658 68.885077 
L 59.146147 68.216925 
L 59.366898 66.879678 
L 59.586898 65.542432 
L 59.806153 64.205186 
L 60.024672 62.86794 
L 60.242462 61.530693 
L 60.45953 60.193447 
L 60.471317 60.120823 
L 60.68472 58.856201 
L 60.90965 57.518955 
L 61.133816 56.181709 
L 61.357227 54.844462 
L 61.57989 53.507216 
L 61.801812 52.16997 
L 61.906975 51.535298 
L 62.027989 50.832724 
L 62.257905 49.495477 
L 62.487039 48.158231 
L 62.715399 46.820985 
L 62.942992 45.483739 
L 63.169827 44.146492 
L 63.342633 43.125181 
L 63.39819 42.809246 
L 63.633149 41.472 
" style="fill:none;stroke:#002aea;stroke-width:1.5;"/>
   </g>
   <g id="LineCollection_27">
    <path clip-path="url(#p5ca75762ca)" d="M 343.296 279.679916 
L 343.108036 280.839075 
L 342.891826 282.176322 
L 342.676336 283.513568 
L 342.461559 284.850814 
L 342.247488 286.18806 
L 342.034117 287.525307 
L 341.860342 288.617282 
L 341.819762 288.862553 
L 341.598659 290.199799 
L 341.378296 291.537045 
L 341.158665 292.874291 
L 340.939759 294.211538 
L 340.721571 295.548784 
L 340.504094 296.88603 
L 340.424683 297.374887 
L 340.281444 298.223276 
L 340.056149 299.560523 
L 339.831606 300.897769 
L 339.607806 302.235015 
L 339.384742 303.572261 
L 339.162407 304.909508 
L 338.989025 305.954976 
L 338.938741 306.246754 
L 338.708457 307.584 
" style="fill:none;stroke:#0022ee;stroke-width:1.5;"/>
    <path clip-path="url(#p5ca75762ca)" d="M 57.6 69.960243 
L 57.665805 69.554171 
L 57.882284 68.216925 
L 58.098038 66.879678 
L 58.313076 65.542432 
L 58.527405 64.205186 
L 58.74103 62.86794 
L 58.95396 61.530693 
L 59.035658 61.016981 
L 59.171818 60.193447 
L 59.392454 58.856201 
L 59.612354 57.518955 
L 59.831525 56.181709 
L 60.049975 54.844462 
L 60.26771 53.507216 
L 60.471317 52.252925 
L 60.485313 52.16997 
L 60.710888 50.832724 
L 60.935708 49.495477 
L 61.159781 48.158231 
L 61.383114 46.820985 
L 61.605714 45.483739 
L 61.827588 44.146492 
L 61.906975 43.667477 
L 62.054776 42.809246 
L 62.284574 41.472 
" style="fill:none;stroke:#0022ee;stroke-width:1.5;"/>
   </g>
   <g id="LineCollection_28">
    <path clip-path="url(#p5ca75762ca)" d="M 343.296 287.386878 
L 343.273557 287.525307 
L 343.056828 288.862553 
L 342.840811 290.199799 
L 342.625499 291.537045 
L 342.410885 292.874291 
L 342.196963 294.211538 
L 341.983726 295.548784 
L 341.860342 296.323966 
L 341.767366 296.88603 
L 341.54647 298.223276 
L 341.326299 299.560523 
L 341.106844 300.897769 
L 340.888098 302.235015 
L 340.670056 303.572261 
L 340.45271 304.909508 
L 340.424683 305.082011 
L 340.228065 306.246754 
L 340.002974 307.584 
" style="fill:none;stroke:#0019f2;stroke-width:1.5;"/>
    <path clip-path="url(#p5ca75762ca)" d="M 57.6 62.242475 
L 57.715326 61.530693 
L 57.931611 60.193447 
L 58.147188 58.856201 
L 58.362063 57.518955 
L 58.576242 56.181709 
L 58.789734 54.844462 
L 59.002544 53.507216 
L 59.035658 53.299039 
L 59.222303 52.16997 
L 59.442748 50.832724 
L 59.662471 49.495477 
L 59.881482 48.158231 
L 60.099786 46.820985 
L 60.31739 45.483739 
L 60.471317 44.535677 
L 60.536971 44.146492 
L 60.762343 42.809246 
L 60.986975 41.472 
" style="fill:none;stroke:#0019f2;stroke-width:1.5;"/>
   </g>
   <g id="LineCollection_29">
    <path clip-path="url(#p5ca75762ca)" d="M 343.296 294.951998 
L 343.19926 295.548784 
L 342.982805 296.88603 
L 342.767047 298.223276 
L 342.551979 299.560523 
L 342.337595 300.897769 
L 342.123887 302.235015 
L 341.910849 303.572261 
L 341.860342 303.889529 
L 341.691647 304.909508 
L 341.471025 306.246754 
L 341.251112 307.584 
" style="fill:none;stroke:#0011f6;stroke-width:1.5;"/>
    <path clip-path="url(#p5ca75762ca)" d="M 57.6 54.666394 
L 57.787785 53.507216 
L 58.003811 52.16997 
L 58.219143 50.832724 
L 58.433788 49.495477 
L 58.647753 48.158231 
L 58.861044 46.820985 
L 59.035658 45.723412 
L 59.075273 45.483739 
L 59.29617 44.146492 
L 59.516355 42.809246 
L 59.735835 41.472 
" style="fill:none;stroke:#0011f6;stroke-width:1.5;"/>
   </g>
   <g id="LineCollection_30">
    <path clip-path="url(#p5ca75762ca)" d="M 343.296 302.383814 
L 343.103383 303.572261 
L 342.88726 304.909508 
L 342.671819 306.246754 
L 342.457053 307.584 
" style="fill:none;stroke:#0008fb;stroke-width:1.5;"/>
    <path clip-path="url(#p5ca75762ca)" d="M 57.6 47.225293 
L 57.665489 46.820985 
L 57.881881 45.483739 
L 58.097588 44.146492 
L 58.312617 42.809246 
L 58.526974 41.472 
" style="fill:none;stroke:#0008fb;stroke-width:1.5;"/>
   </g>
   <g id="LineCollection_31"/>
   <g id="patch_3">
    <path d="M 57.6 307.584 
L 57.6 41.472 
" style="fill:none;stroke:#000000;stroke-linecap:square;stroke-linejoin:miter;stroke-width:0.8;"/>
   </g>
   <g id="patch_4">
    <path d="M 343.296 307.584 
L 343.296 41.472 
" style="fill:none;stroke:#000000;stroke-linecap:square;stroke-linejoin:miter;stroke-width:0.8;"/>
   </g>
   <g id="patch_5">
    <path d="M 57.6 307.584 
L 343.296 307.584 
" style="fill:none;stroke:#000000;stroke-linecap:square;stroke-linejoin:miter;stroke-width:0.8;"/>
   </g>
   <g id="patch_6">
    <path d="M 57.6 41.472 
L 343.296 41.472 
" style="fill:none;stroke:#000000;stroke-linecap:square;stroke-linejoin:miter;stroke-width:0.8;"/>
   </g>
  </g>
  <g id="axes_2">
   <g id="patch_7">
    <path clip-path="url(#pa9c85fa8ec)" d="M 361.152 307.584 
L 361.152 298.7136 
L 361.152 50.3424 
L 361.152 41.472 
L 374.4576 41.472 
L 374.4576 50.3424 
L 374.4576 298.7136 
L 374.4576 307.584 
z
" style="fill:#ffffff;stroke:#ffffff;stroke-linejoin:miter;stroke-width:0.01;"/>
   </g>
   <g id="matplotlib.axis_3"/>
   <g id="matplotlib.axis_4">
    <g id="ytick_8">
     <g id="line2d_15">
      <defs>
       <path d="M 0 0 
L 3.5 0 
" id="m8f2ca10bca" style="stroke:#000000;stroke-width:0.8;"/>
      </defs>
      <g>
       <use style="stroke:#000000;stroke-width:0.8;" x="374.4576" xlink:href="#m8f2ca10bca" y="307.584"/>
      </g>
     </g>
     <g id="text_15">
      <!-- 0 -->
      <g transform="translate(381.4576 311.383219)scale(0.1 -0.1)">
       <use xlink:href="#DejaVuSans-48"/>
      </g>
     </g>
    </g>
    <g id="ytick_9">
     <g id="line2d_16">
      <g>
       <use style="stroke:#000000;stroke-width:0.8;" x="374.4576" xlink:href="#m8f2ca10bca" y="272.1024"/>
      </g>
     </g>
     <g id="text_16">
      <!-- 320 -->
      <defs>
       <path d="M 40.578125 39.3125 
Q 47.65625 37.796875 51.625 33 
Q 55.609375 28.21875 55.609375 21.1875 
Q 55.609375 10.40625 48.1875 4.484375 
Q 40.765625 -1.421875 27.09375 -1.421875 
Q 22.515625 -1.421875 17.65625 -0.515625 
Q 12.796875 0.390625 7.625 2.203125 
L 7.625 11.71875 
Q 11.71875 9.328125 16.59375 8.109375 
Q 21.484375 6.890625 26.8125 6.890625 
Q 36.078125 6.890625 40.9375 10.546875 
Q 45.796875 14.203125 45.796875 21.1875 
Q 45.796875 27.640625 41.28125 31.265625 
Q 36.765625 34.90625 28.71875 34.90625 
L 20.21875 34.90625 
L 20.21875 43.015625 
L 29.109375 43.015625 
Q 36.375 43.015625 40.234375 45.921875 
Q 44.09375 48.828125 44.09375 54.296875 
Q 44.09375 59.90625 40.109375 62.90625 
Q 36.140625 65.921875 28.71875 65.921875 
Q 24.65625 65.921875 20.015625 65.03125 
Q 15.375 64.15625 9.8125 62.3125 
L 9.8125 71.09375 
Q 15.4375 72.65625 20.34375 73.4375 
Q 25.25 74.21875 29.59375 74.21875 
Q 40.828125 74.21875 47.359375 69.109375 
Q 53.90625 64.015625 53.90625 55.328125 
Q 53.90625 49.265625 50.4375 45.09375 
Q 46.96875 40.921875 40.578125 39.3125 
z
" id="DejaVuSans-51"/>
       <path d="M 19.1875 8.296875 
L 53.609375 8.296875 
L 53.609375 0 
L 7.328125 0 
L 7.328125 8.296875 
Q 12.9375 14.109375 22.625 23.890625 
Q 32.328125 33.6875 34.8125 36.53125 
Q 39.546875 41.84375 41.421875 45.53125 
Q 43.3125 49.21875 43.3125 52.78125 
Q 43.3125 58.59375 39.234375 62.25 
Q 35.15625 65.921875 28.609375 65.921875 
Q 23.96875 65.921875 18.8125 64.3125 
Q 13.671875 62.703125 7.8125 59.421875 
L 7.8125 69.390625 
Q 13.765625 71.78125 18.9375 73 
Q 24.125 74.21875 28.421875 74.21875 
Q 39.75 74.21875 46.484375 68.546875 
Q 53.21875 62.890625 53.21875 53.421875 
Q 53.21875 48.921875 51.53125 44.890625 
Q 49.859375 40.875 45.40625 35.40625 
Q 44.1875 33.984375 37.640625 27.21875 
Q 31.109375 20.453125 19.1875 8.296875 
z
" id="DejaVuSans-50"/>
      </defs>
      <g transform="translate(381.4576 275.901619)scale(0.1 -0.1)">
       <use xlink:href="#DejaVuSans-51"/>
       <use x="63.623047" xlink:href="#DejaVuSans-50"/>
       <use x="127.246094" xlink:href="#DejaVuSans-48"/>
      </g>
     </g>
    </g>
    <g id="ytick_10">
     <g id="line2d_17">
      <g>
       <use style="stroke:#000000;stroke-width:0.8;" x="374.4576" xlink:href="#m8f2ca10bca" y="236.6208"/>
      </g>
     </g>
     <g id="text_17">
      <!-- 640 -->
      <defs>
       <path d="M 33.015625 40.375 
Q 26.375 40.375 22.484375 35.828125 
Q 18.609375 31.296875 18.609375 23.390625 
Q 18.609375 15.53125 22.484375 10.953125 
Q 26.375 6.390625 33.015625 6.390625 
Q 39.65625 6.390625 43.53125 10.953125 
Q 47.40625 15.53125 47.40625 23.390625 
Q 47.40625 31.296875 43.53125 35.828125 
Q 39.65625 40.375 33.015625 40.375 
z
M 52.59375 71.296875 
L 52.59375 62.3125 
Q 48.875 64.0625 45.09375 64.984375 
Q 41.3125 65.921875 37.59375 65.921875 
Q 27.828125 65.921875 22.671875 59.328125 
Q 17.53125 52.734375 16.796875 39.40625 
Q 19.671875 43.65625 24.015625 45.921875 
Q 28.375 48.1875 33.59375 48.1875 
Q 44.578125 48.1875 50.953125 41.515625 
Q 57.328125 34.859375 57.328125 23.390625 
Q 57.328125 12.15625 50.6875 5.359375 
Q 44.046875 -1.421875 33.015625 -1.421875 
Q 20.359375 -1.421875 13.671875 8.265625 
Q 6.984375 17.96875 6.984375 36.375 
Q 6.984375 53.65625 15.1875 63.9375 
Q 23.390625 74.21875 37.203125 74.21875 
Q 40.921875 74.21875 44.703125 73.484375 
Q 48.484375 72.75 52.59375 71.296875 
z
" id="DejaVuSans-54"/>
       <path d="M 37.796875 64.3125 
L 12.890625 25.390625 
L 37.796875 25.390625 
z
M 35.203125 72.90625 
L 47.609375 72.90625 
L 47.609375 25.390625 
L 58.015625 25.390625 
L 58.015625 17.1875 
L 47.609375 17.1875 
L 47.609375 0 
L 37.796875 0 
L 37.796875 17.1875 
L 4.890625 17.1875 
L 4.890625 26.703125 
z
" id="DejaVuSans-52"/>
      </defs>
      <g transform="translate(381.4576 240.420019)scale(0.1 -0.1)">
       <use xlink:href="#DejaVuSans-54"/>
       <use x="63.623047" xlink:href="#DejaVuSans-52"/>
       <use x="127.246094" xlink:href="#DejaVuSans-48"/>
      </g>
     </g>
    </g>
    <g id="ytick_11">
     <g id="line2d_18">
      <g>
       <use style="stroke:#000000;stroke-width:0.8;" x="374.4576" xlink:href="#m8f2ca10bca" y="201.1392"/>
      </g>
     </g>
     <g id="text_18">
      <!-- 960 -->
      <defs>
       <path d="M 10.984375 1.515625 
L 10.984375 10.5 
Q 14.703125 8.734375 18.5 7.8125 
Q 22.3125 6.890625 25.984375 6.890625 
Q 35.75 6.890625 40.890625 13.453125 
Q 46.046875 20.015625 46.78125 33.40625 
Q 43.953125 29.203125 39.59375 26.953125 
Q 35.25 24.703125 29.984375 24.703125 
Q 19.046875 24.703125 12.671875 31.3125 
Q 6.296875 37.9375 6.296875 49.421875 
Q 6.296875 60.640625 12.9375 67.421875 
Q 19.578125 74.21875 30.609375 74.21875 
Q 43.265625 74.21875 49.921875 64.515625 
Q 56.59375 54.828125 56.59375 36.375 
Q 56.59375 19.140625 48.40625 8.859375 
Q 40.234375 -1.421875 26.421875 -1.421875 
Q 22.703125 -1.421875 18.890625 -0.6875 
Q 15.09375 0.046875 10.984375 1.515625 
z
M 30.609375 32.421875 
Q 37.25 32.421875 41.125 36.953125 
Q 45.015625 41.5 45.015625 49.421875 
Q 45.015625 57.28125 41.125 61.84375 
Q 37.25 66.40625 30.609375 66.40625 
Q 23.96875 66.40625 20.09375 61.84375 
Q 16.21875 57.28125 16.21875 49.421875 
Q 16.21875 41.5 20.09375 36.953125 
Q 23.96875 32.421875 30.609375 32.421875 
z
" id="DejaVuSans-57"/>
      </defs>
      <g transform="translate(381.4576 204.938419)scale(0.1 -0.1)">
       <use xlink:href="#DejaVuSans-57"/>
       <use x="63.623047" xlink:href="#DejaVuSans-54"/>
       <use x="127.246094" xlink:href="#DejaVuSans-48"/>
      </g>
     </g>
    </g>
    <g id="ytick_12">
     <g id="line2d_19">
      <g>
       <use style="stroke:#000000;stroke-width:0.8;" x="374.4576" xlink:href="#m8f2ca10bca" y="165.6576"/>
      </g>
     </g>
     <g id="text_19">
      <!-- 1280 -->
      <defs>
       <path d="M 31.78125 34.625 
Q 24.75 34.625 20.71875 30.859375 
Q 16.703125 27.09375 16.703125 20.515625 
Q 16.703125 13.921875 20.71875 10.15625 
Q 24.75 6.390625 31.78125 6.390625 
Q 38.8125 6.390625 42.859375 10.171875 
Q 46.921875 13.96875 46.921875 20.515625 
Q 46.921875 27.09375 42.890625 30.859375 
Q 38.875 34.625 31.78125 34.625 
z
M 21.921875 38.8125 
Q 15.578125 40.375 12.03125 44.71875 
Q 8.5 49.078125 8.5 55.328125 
Q 8.5 64.0625 14.71875 69.140625 
Q 20.953125 74.21875 31.78125 74.21875 
Q 42.671875 74.21875 48.875 69.140625 
Q 55.078125 64.0625 55.078125 55.328125 
Q 55.078125 49.078125 51.53125 44.71875 
Q 48 40.375 41.703125 38.8125 
Q 48.828125 37.15625 52.796875 32.3125 
Q 56.78125 27.484375 56.78125 20.515625 
Q 56.78125 9.90625 50.3125 4.234375 
Q 43.84375 -1.421875 31.78125 -1.421875 
Q 19.734375 -1.421875 13.25 4.234375 
Q 6.78125 9.90625 6.78125 20.515625 
Q 6.78125 27.484375 10.78125 32.3125 
Q 14.796875 37.15625 21.921875 38.8125 
z
M 18.3125 54.390625 
Q 18.3125 48.734375 21.84375 45.5625 
Q 25.390625 42.390625 31.78125 42.390625 
Q 38.140625 42.390625 41.71875 45.5625 
Q 45.3125 48.734375 45.3125 54.390625 
Q 45.3125 60.0625 41.71875 63.234375 
Q 38.140625 66.40625 31.78125 66.40625 
Q 25.390625 66.40625 21.84375 63.234375 
Q 18.3125 60.0625 18.3125 54.390625 
z
" id="DejaVuSans-56"/>
      </defs>
      <g transform="translate(381.4576 169.456819)scale(0.1 -0.1)">
       <use xlink:href="#DejaVuSans-49"/>
       <use x="63.623047" xlink:href="#DejaVuSans-50"/>
       <use x="127.246094" xlink:href="#DejaVuSans-56"/>
       <use x="190.869141" xlink:href="#DejaVuSans-48"/>
      </g>
     </g>
    </g>
    <g id="ytick_13">
     <g id="line2d_20">
      <g>
       <use style="stroke:#000000;stroke-width:0.8;" x="374.4576" xlink:href="#m8f2ca10bca" y="130.176"/>
      </g>
     </g>
     <g id="text_20">
      <!-- 1600 -->
      <g transform="translate(381.4576 133.975219)scale(0.1 -0.1)">
       <use xlink:href="#DejaVuSans-49"/>
       <use x="63.623047" xlink:href="#DejaVuSans-54"/>
       <use x="127.246094" xlink:href="#DejaVuSans-48"/>
       <use x="190.869141" xlink:href="#DejaVuSans-48"/>
      </g>
     </g>
    </g>
    <g id="ytick_14">
     <g id="line2d_21">
      <g>
       <use style="stroke:#000000;stroke-width:0.8;" x="374.4576" xlink:href="#m8f2ca10bca" y="94.6944"/>
      </g>
     </g>
     <g id="text_21">
      <!-- 1920 -->
      <g transform="translate(381.4576 98.493619)scale(0.1 -0.1)">
       <use xlink:href="#DejaVuSans-49"/>
       <use x="63.623047" xlink:href="#DejaVuSans-57"/>
       <use x="127.246094" xlink:href="#DejaVuSans-50"/>
       <use x="190.869141" xlink:href="#DejaVuSans-48"/>
      </g>
     </g>
    </g>
    <g id="ytick_15">
     <g id="line2d_22">
      <g>
       <use style="stroke:#000000;stroke-width:0.8;" x="374.4576" xlink:href="#m8f2ca10bca" y="59.2128"/>
      </g>
     </g>
     <g id="text_22">
      <!-- 2240 -->
      <g transform="translate(381.4576 63.012019)scale(0.1 -0.1)">
       <use xlink:href="#DejaVuSans-50"/>
       <use x="63.623047" xlink:href="#DejaVuSans-50"/>
       <use x="127.246094" xlink:href="#DejaVuSans-52"/>
       <use x="190.869141" xlink:href="#DejaVuSans-48"/>
      </g>
     </g>
    </g>
   </g>
   <g id="LineCollection_32">
    <path clip-path="url(#pa9c85fa8ec)" d="M 361.152 307.584 
L 374.4576 307.584 
" style="fill:none;stroke:#00ff80;stroke-width:1.5;"/>
    <path clip-path="url(#pa9c85fa8ec)" d="M 361.152 298.7136 
L 374.4576 298.7136 
" style="fill:none;stroke:#00f784;stroke-width:1.5;"/>
    <path clip-path="url(#pa9c85fa8ec)" d="M 361.152 289.8432 
L 374.4576 289.8432 
" style="fill:none;stroke:#00ee88;stroke-width:1.5;"/>
    <path clip-path="url(#pa9c85fa8ec)" d="M 361.152 280.9728 
L 374.4576 280.9728 
" style="fill:none;stroke:#00e68c;stroke-width:1.5;"/>
    <path clip-path="url(#pa9c85fa8ec)" d="M 361.152 272.1024 
L 374.4576 272.1024 
" style="fill:none;stroke:#00dd90;stroke-width:1.5;"/>
    <path clip-path="url(#pa9c85fa8ec)" d="M 361.152 263.232 
L 374.4576 263.232 
" style="fill:none;stroke:#00d594;stroke-width:1.5;"/>
    <path clip-path="url(#pa9c85fa8ec)" d="M 361.152 254.3616 
L 374.4576 254.3616 
" style="fill:none;stroke:#00cc99;stroke-width:1.5;"/>
    <path clip-path="url(#pa9c85fa8ec)" d="M 361.152 245.4912 
L 374.4576 245.4912 
" style="fill:none;stroke:#00c49d;stroke-width:1.5;"/>
    <path clip-path="url(#pa9c85fa8ec)" d="M 361.152 236.6208 
L 374.4576 236.6208 
" style="fill:none;stroke:#00bba2;stroke-width:1.5;"/>
    <path clip-path="url(#pa9c85fa8ec)" d="M 361.152 227.7504 
L 374.4576 227.7504 
" style="fill:none;stroke:#00b3a6;stroke-width:1.5;"/>
    <path clip-path="url(#pa9c85fa8ec)" d="M 361.152 218.88 
L 374.4576 218.88 
" style="fill:none;stroke:#00aaaa;stroke-width:1.5;"/>
    <path clip-path="url(#pa9c85fa8ec)" d="M 361.152 210.0096 
L 374.4576 210.0096 
" style="fill:none;stroke:#00a2ae;stroke-width:1.5;"/>
    <path clip-path="url(#pa9c85fa8ec)" d="M 361.152 201.1392 
L 374.4576 201.1392 
" style="fill:none;stroke:#0099b2;stroke-width:1.5;"/>
    <path clip-path="url(#pa9c85fa8ec)" d="M 361.152 192.2688 
L 374.4576 192.2688 
" style="fill:none;stroke:#0091b6;stroke-width:1.5;"/>
    <path clip-path="url(#pa9c85fa8ec)" d="M 361.152 183.3984 
L 374.4576 183.3984 
" style="fill:none;stroke:#0088bb;stroke-width:1.5;"/>
    <path clip-path="url(#pa9c85fa8ec)" d="M 361.152 174.528 
L 374.4576 174.528 
" style="fill:none;stroke:#007fc0;stroke-width:1.5;"/>
    <path clip-path="url(#pa9c85fa8ec)" d="M 361.152 165.6576 
L 374.4576 165.6576 
" style="fill:none;stroke:#0077c3;stroke-width:1.5;"/>
    <path clip-path="url(#pa9c85fa8ec)" d="M 361.152 156.7872 
L 374.4576 156.7872 
" style="fill:none;stroke:#006ec8;stroke-width:1.5;"/>
    <path clip-path="url(#pa9c85fa8ec)" d="M 361.152 147.9168 
L 374.4576 147.9168 
" style="fill:none;stroke:#0066cc;stroke-width:1.5;"/>
    <path clip-path="url(#pa9c85fa8ec)" d="M 361.152 139.0464 
L 374.4576 139.0464 
" style="fill:none;stroke:#005dd0;stroke-width:1.5;"/>
    <path clip-path="url(#pa9c85fa8ec)" d="M 361.152 130.176 
L 374.4576 130.176 
" style="fill:none;stroke:#0055d4;stroke-width:1.5;"/>
    <path clip-path="url(#pa9c85fa8ec)" d="M 361.152 121.3056 
L 374.4576 121.3056 
" style="fill:none;stroke:#004cd9;stroke-width:1.5;"/>
    <path clip-path="url(#pa9c85fa8ec)" d="M 361.152 112.4352 
L 374.4576 112.4352 
" style="fill:none;stroke:#0044dd;stroke-width:1.5;"/>
    <path clip-path="url(#pa9c85fa8ec)" d="M 361.152 103.5648 
L 374.4576 103.5648 
" style="fill:none;stroke:#003be2;stroke-width:1.5;"/>
    <path clip-path="url(#pa9c85fa8ec)" d="M 361.152 94.6944 
L 374.4576 94.6944 
" style="fill:none;stroke:#0033e6;stroke-width:1.5;"/>
    <path clip-path="url(#pa9c85fa8ec)" d="M 361.152 85.824 
L 374.4576 85.824 
" style="fill:none;stroke:#002aea;stroke-width:1.5;"/>
    <path clip-path="url(#pa9c85fa8ec)" d="M 361.152 76.9536 
L 374.4576 76.9536 
" style="fill:none;stroke:#0022ee;stroke-width:1.5;"/>
    <path clip-path="url(#pa9c85fa8ec)" d="M 361.152 68.0832 
L 374.4576 68.0832 
" style="fill:none;stroke:#0019f2;stroke-width:1.5;"/>
    <path clip-path="url(#pa9c85fa8ec)" d="M 361.152 59.2128 
L 374.4576 59.2128 
" style="fill:none;stroke:#0011f6;stroke-width:1.5;"/>
    <path clip-path="url(#pa9c85fa8ec)" d="M 361.152 50.3424 
L 374.4576 50.3424 
" style="fill:none;stroke:#0008fb;stroke-width:1.5;"/>
    <path clip-path="url(#pa9c85fa8ec)" d="M 361.152 41.472 
L 374.4576 41.472 
" style="fill:none;stroke:#0000ff;stroke-width:1.5;"/>
   </g>
   <g id="patch_8">
    <path d="M 361.152 307.584 
L 361.152 298.7136 
L 361.152 50.3424 
L 361.152 41.472 
L 374.4576 41.472 
L 374.4576 50.3424 
L 374.4576 298.7136 
L 374.4576 307.584 
z
" style="fill:none;stroke:#000000;stroke-linejoin:miter;stroke-width:0.8;"/>
   </g>
  </g>
 </g>
 <defs>
  <clipPath id="p5ca75762ca">
   <rect height="266.112" width="285.696" x="57.6" y="41.472"/>
  </clipPath>
  <clipPath id="pa9c85fa8ec">
   <rect height="266.112" width="13.3056" x="361.152" y="41.472"/>
  </clipPath>
 </defs>
</svg>
