<?xml version="1.0" encoding="utf-8" standalone="no"?>
<!DOCTYPE svg PUBLIC "-//W3C//DTD SVG 1.1//EN"
  "http://www.w3.org/Graphics/SVG/1.1/DTD/svg11.dtd">
<!-- Created with matplotlib (https://matplotlib.org/) -->
<svg height="345.6pt" version="1.1" viewBox="0 0 460.8 345.6" width="460.8pt" xmlns="http://www.w3.org/2000/svg" xmlns:xlink="http://www.w3.org/1999/xlink">
 <defs>
  <style type="text/css">
*{stroke-linecap:butt;stroke-linejoin:round;}
  </style>
 </defs>
 <g id="figure_1">
  <g id="patch_1">
   <path d="M 0 345.6 
L 460.8 345.6 
L 460.8 0 
L 0 0 
z
" style="fill:#ffffff;"/>
  </g>
  <g id="axes_1">
   <g id="patch_2">
    <path d="M 57.6 307.584 
L 343.296 307.584 
L 343.296 41.472 
L 57.6 41.472 
z
" style="fill:#ffffff;"/>
   </g>
   <g id="matplotlib.axis_1">
    <g id="xtick_1">
     <g id="line2d_1">
      <defs>
       <path d="M 0 0 
L 0 3.5 
" id="me78138688a" style="stroke:#000000;stroke-width:0.8;"/>
      </defs>
      <g>
       <use style="stroke:#000000;stroke-width:0.8;" x="57.6" xlink:href="#me78138688a" y="307.584"/>
      </g>
     </g>
     <g id="text_1">
      <!-- −10.0 -->
      <defs>
       <path d="M 10.59375 35.5 
L 73.1875 35.5 
L 73.1875 27.203125 
L 10.59375 27.203125 
z
" id="DejaVuSans-8722"/>
       <path d="M 12.40625 8.296875 
L 28.515625 8.296875 
L 28.515625 63.921875 
L 10.984375 60.40625 
L 10.984375 69.390625 
L 28.421875 72.90625 
L 38.28125 72.90625 
L 38.28125 8.296875 
L 54.390625 8.296875 
L 54.390625 0 
L 12.40625 0 
z
" id="DejaVuSans-49"/>
       <path d="M 31.78125 66.40625 
Q 24.171875 66.40625 20.328125 58.90625 
Q 16.5 51.421875 16.5 36.375 
Q 16.5 21.390625 20.328125 13.890625 
Q 24.171875 6.390625 31.78125 6.390625 
Q 39.453125 6.390625 43.28125 13.890625 
Q 47.125 21.390625 47.125 36.375 
Q 47.125 51.421875 43.28125 58.90625 
Q 39.453125 66.40625 31.78125 66.40625 
z
M 31.78125 74.21875 
Q 44.046875 74.21875 50.515625 64.515625 
Q 56.984375 54.828125 56.984375 36.375 
Q 56.984375 17.96875 50.515625 8.265625 
Q 44.046875 -1.421875 31.78125 -1.421875 
Q 19.53125 -1.421875 13.0625 8.265625 
Q 6.59375 17.96875 6.59375 36.375 
Q 6.59375 54.828125 13.0625 64.515625 
Q 19.53125 74.21875 31.78125 74.21875 
z
" id="DejaVuSans-48"/>
       <path d="M 10.6875 12.40625 
L 21 12.40625 
L 21 0 
L 10.6875 0 
z
" id="DejaVuSans-46"/>
      </defs>
      <g transform="translate(42.277344 322.182437)scale(0.1 -0.1)">
       <use xlink:href="#DejaVuSans-8722"/>
       <use x="83.789062" xlink:href="#DejaVuSans-49"/>
       <use x="147.412109" xlink:href="#DejaVuSans-48"/>
       <use x="211.035156" xlink:href="#DejaVuSans-46"/>
       <use x="242.822266" xlink:href="#DejaVuSans-48"/>
      </g>
     </g>
    </g>
    <g id="xtick_2">
     <g id="line2d_2">
      <g>
       <use style="stroke:#000000;stroke-width:0.8;" x="93.312" xlink:href="#me78138688a" y="307.584"/>
      </g>
     </g>
     <g id="text_2">
      <!-- −7.5 -->
      <defs>
       <path d="M 8.203125 72.90625 
L 55.078125 72.90625 
L 55.078125 68.703125 
L 28.609375 0 
L 18.3125 0 
L 43.21875 64.59375 
L 8.203125 64.59375 
z
" id="DejaVuSans-55"/>
       <path d="M 10.796875 72.90625 
L 49.515625 72.90625 
L 49.515625 64.59375 
L 19.828125 64.59375 
L 19.828125 46.734375 
Q 21.96875 47.46875 24.109375 47.828125 
Q 26.265625 48.1875 28.421875 48.1875 
Q 40.625 48.1875 47.75 41.5 
Q 54.890625 34.8125 54.890625 23.390625 
Q 54.890625 11.625 47.5625 5.09375 
Q 40.234375 -1.421875 26.90625 -1.421875 
Q 22.3125 -1.421875 17.546875 -0.640625 
Q 12.796875 0.140625 7.71875 1.703125 
L 7.71875 11.625 
Q 12.109375 9.234375 16.796875 8.0625 
Q 21.484375 6.890625 26.703125 6.890625 
Q 35.15625 6.890625 40.078125 11.328125 
Q 45.015625 15.765625 45.015625 23.390625 
Q 45.015625 31 40.078125 35.4375 
Q 35.15625 39.890625 26.703125 39.890625 
Q 22.75 39.890625 18.8125 39.015625 
Q 14.890625 38.140625 10.796875 36.28125 
z
" id="DejaVuSans-53"/>
      </defs>
      <g transform="translate(81.170594 322.182437)scale(0.1 -0.1)">
       <use xlink:href="#DejaVuSans-8722"/>
       <use x="83.789062" xlink:href="#DejaVuSans-55"/>
       <use x="147.412109" xlink:href="#DejaVuSans-46"/>
       <use x="179.199219" xlink:href="#DejaVuSans-53"/>
      </g>
     </g>
    </g>
    <g id="xtick_3">
     <g id="line2d_3">
      <g>
       <use style="stroke:#000000;stroke-width:0.8;" x="129.024" xlink:href="#me78138688a" y="307.584"/>
      </g>
     </g>
     <g id="text_3">
      <!-- −5.0 -->
      <g transform="translate(116.882594 322.182437)scale(0.1 -0.1)">
       <use xlink:href="#DejaVuSans-8722"/>
       <use x="83.789062" xlink:href="#DejaVuSans-53"/>
       <use x="147.412109" xlink:href="#DejaVuSans-46"/>
       <use x="179.199219" xlink:href="#DejaVuSans-48"/>
      </g>
     </g>
    </g>
    <g id="xtick_4">
     <g id="line2d_4">
      <g>
       <use style="stroke:#000000;stroke-width:0.8;" x="164.736" xlink:href="#me78138688a" y="307.584"/>
      </g>
     </g>
     <g id="text_4">
      <!-- −2.5 -->
      <defs>
       <path d="M 19.1875 8.296875 
L 53.609375 8.296875 
L 53.609375 0 
L 7.328125 0 
L 7.328125 8.296875 
Q 12.9375 14.109375 22.625 23.890625 
Q 32.328125 33.6875 34.8125 36.53125 
Q 39.546875 41.84375 41.421875 45.53125 
Q 43.3125 49.21875 43.3125 52.78125 
Q 43.3125 58.59375 39.234375 62.25 
Q 35.15625 65.921875 28.609375 65.921875 
Q 23.96875 65.921875 18.8125 64.3125 
Q 13.671875 62.703125 7.8125 59.421875 
L 7.8125 69.390625 
Q 13.765625 71.78125 18.9375 73 
Q 24.125 74.21875 28.421875 74.21875 
Q 39.75 74.21875 46.484375 68.546875 
Q 53.21875 62.890625 53.21875 53.421875 
Q 53.21875 48.921875 51.53125 44.890625 
Q 49.859375 40.875 45.40625 35.40625 
Q 44.1875 33.984375 37.640625 27.21875 
Q 31.109375 20.453125 19.1875 8.296875 
z
" id="DejaVuSans-50"/>
      </defs>
      <g transform="translate(152.594594 322.182437)scale(0.1 -0.1)">
       <use xlink:href="#DejaVuSans-8722"/>
       <use x="83.789062" xlink:href="#DejaVuSans-50"/>
       <use x="147.412109" xlink:href="#DejaVuSans-46"/>
       <use x="179.199219" xlink:href="#DejaVuSans-53"/>
      </g>
     </g>
    </g>
    <g id="xtick_5">
     <g id="line2d_5">
      <g>
       <use style="stroke:#000000;stroke-width:0.8;" x="200.448" xlink:href="#me78138688a" y="307.584"/>
      </g>
     </g>
     <g id="text_5">
      <!-- 0.0 -->
      <g transform="translate(192.496438 322.182437)scale(0.1 -0.1)">
       <use xlink:href="#DejaVuSans-48"/>
       <use x="63.623047" xlink:href="#DejaVuSans-46"/>
       <use x="95.410156" xlink:href="#DejaVuSans-48"/>
      </g>
     </g>
    </g>
    <g id="xtick_6">
     <g id="line2d_6">
      <g>
       <use style="stroke:#000000;stroke-width:0.8;" x="236.16" xlink:href="#me78138688a" y="307.584"/>
      </g>
     </g>
     <g id="text_6">
      <!-- 2.5 -->
      <g transform="translate(228.208438 322.182437)scale(0.1 -0.1)">
       <use xlink:href="#DejaVuSans-50"/>
       <use x="63.623047" xlink:href="#DejaVuSans-46"/>
       <use x="95.410156" xlink:href="#DejaVuSans-53"/>
      </g>
     </g>
    </g>
    <g id="xtick_7">
     <g id="line2d_7">
      <g>
       <use style="stroke:#000000;stroke-width:0.8;" x="271.872" xlink:href="#me78138688a" y="307.584"/>
      </g>
     </g>
     <g id="text_7">
      <!-- 5.0 -->
      <g transform="translate(263.920437 322.182437)scale(0.1 -0.1)">
       <use xlink:href="#DejaVuSans-53"/>
       <use x="63.623047" xlink:href="#DejaVuSans-46"/>
       <use x="95.410156" xlink:href="#DejaVuSans-48"/>
      </g>
     </g>
    </g>
    <g id="xtick_8">
     <g id="line2d_8">
      <g>
       <use style="stroke:#000000;stroke-width:0.8;" x="307.584" xlink:href="#me78138688a" y="307.584"/>
      </g>
     </g>
     <g id="text_8">
      <!-- 7.5 -->
      <g transform="translate(299.632438 322.182437)scale(0.1 -0.1)">
       <use xlink:href="#DejaVuSans-55"/>
       <use x="63.623047" xlink:href="#DejaVuSans-46"/>
       <use x="95.410156" xlink:href="#DejaVuSans-53"/>
      </g>
     </g>
    </g>
    <g id="xtick_9">
     <g id="line2d_9">
      <g>
       <use style="stroke:#000000;stroke-width:0.8;" x="343.296" xlink:href="#me78138688a" y="307.584"/>
      </g>
     </g>
     <g id="text_9">
      <!-- 10.0 -->
      <g transform="translate(332.163188 322.182437)scale(0.1 -0.1)">
       <use xlink:href="#DejaVuSans-49"/>
       <use x="63.623047" xlink:href="#DejaVuSans-48"/>
       <use x="127.246094" xlink:href="#DejaVuSans-46"/>
       <use x="159.033203" xlink:href="#DejaVuSans-48"/>
      </g>
     </g>
    </g>
   </g>
   <g id="matplotlib.axis_2">
    <g id="ytick_1">
     <g id="line2d_10">
      <defs>
       <path d="M 0 0 
L -3.5 0 
" id="m883798ea44" style="stroke:#000000;stroke-width:0.8;"/>
      </defs>
      <g>
       <use style="stroke:#000000;stroke-width:0.8;" x="57.6" xlink:href="#m883798ea44" y="307.584"/>
      </g>
     </g>
     <g id="text_10">
      <!-- −10.0 -->
      <g transform="translate(19.954687 311.383219)scale(0.1 -0.1)">
       <use xlink:href="#DejaVuSans-8722"/>
       <use x="83.789062" xlink:href="#DejaVuSans-49"/>
       <use x="147.412109" xlink:href="#DejaVuSans-48"/>
       <use x="211.035156" xlink:href="#DejaVuSans-46"/>
       <use x="242.822266" xlink:href="#DejaVuSans-48"/>
      </g>
     </g>
    </g>
    <g id="ytick_2">
     <g id="line2d_11">
      <g>
       <use style="stroke:#000000;stroke-width:0.8;" x="57.6" xlink:href="#m883798ea44" y="274.32"/>
      </g>
     </g>
     <g id="text_11">
      <!-- −7.5 -->
      <g transform="translate(26.317187 278.119219)scale(0.1 -0.1)">
       <use xlink:href="#DejaVuSans-8722"/>
       <use x="83.789062" xlink:href="#DejaVuSans-55"/>
       <use x="147.412109" xlink:href="#DejaVuSans-46"/>
       <use x="179.199219" xlink:href="#DejaVuSans-53"/>
      </g>
     </g>
    </g>
    <g id="ytick_3">
     <g id="line2d_12">
      <g>
       <use style="stroke:#000000;stroke-width:0.8;" x="57.6" xlink:href="#m883798ea44" y="241.056"/>
      </g>
     </g>
     <g id="text_12">
      <!-- −5.0 -->
      <g transform="translate(26.317187 244.855219)scale(0.1 -0.1)">
       <use xlink:href="#DejaVuSans-8722"/>
       <use x="83.789062" xlink:href="#DejaVuSans-53"/>
       <use x="147.412109" xlink:href="#DejaVuSans-46"/>
       <use x="179.199219" xlink:href="#DejaVuSans-48"/>
      </g>
     </g>
    </g>
    <g id="ytick_4">
     <g id="line2d_13">
      <g>
       <use style="stroke:#000000;stroke-width:0.8;" x="57.6" xlink:href="#m883798ea44" y="207.792"/>
      </g>
     </g>
     <g id="text_13">
      <!-- −2.5 -->
      <g transform="translate(26.317187 211.591219)scale(0.1 -0.1)">
       <use xlink:href="#DejaVuSans-8722"/>
       <use x="83.789062" xlink:href="#DejaVuSans-50"/>
       <use x="147.412109" xlink:href="#DejaVuSans-46"/>
       <use x="179.199219" xlink:href="#DejaVuSans-53"/>
      </g>
     </g>
    </g>
    <g id="ytick_5">
     <g id="line2d_14">
      <g>
       <use style="stroke:#000000;stroke-width:0.8;" x="57.6" xlink:href="#m883798ea44" y="174.528"/>
      </g>
     </g>
     <g id="text_14">
      <!-- 0.0 -->
      <g transform="translate(34.696875 178.327219)scale(0.1 -0.1)">
       <use xlink:href="#DejaVuSans-48"/>
       <use x="63.623047" xlink:href="#DejaVuSans-46"/>
       <use x="95.410156" xlink:href="#DejaVuSans-48"/>
      </g>
     </g>
    </g>
    <g id="ytick_6">
     <g id="line2d_15">
      <g>
       <use style="stroke:#000000;stroke-width:0.8;" x="57.6" xlink:href="#m883798ea44" y="141.264"/>
      </g>
     </g>
     <g id="text_15">
      <!-- 2.5 -->
      <g transform="translate(34.696875 145.063219)scale(0.1 -0.1)">
       <use xlink:href="#DejaVuSans-50"/>
       <use x="63.623047" xlink:href="#DejaVuSans-46"/>
       <use x="95.410156" xlink:href="#DejaVuSans-53"/>
      </g>
     </g>
    </g>
    <g id="ytick_7">
     <g id="line2d_16">
      <g>
       <use style="stroke:#000000;stroke-width:0.8;" x="57.6" xlink:href="#m883798ea44" y="108"/>
      </g>
     </g>
     <g id="text_16">
      <!-- 5.0 -->
      <g transform="translate(34.696875 111.799219)scale(0.1 -0.1)">
       <use xlink:href="#DejaVuSans-53"/>
       <use x="63.623047" xlink:href="#DejaVuSans-46"/>
       <use x="95.410156" xlink:href="#DejaVuSans-48"/>
      </g>
     </g>
    </g>
    <g id="ytick_8">
     <g id="line2d_17">
      <g>
       <use style="stroke:#000000;stroke-width:0.8;" x="57.6" xlink:href="#m883798ea44" y="74.736"/>
      </g>
     </g>
     <g id="text_17">
      <!-- 7.5 -->
      <g transform="translate(34.696875 78.535219)scale(0.1 -0.1)">
       <use xlink:href="#DejaVuSans-55"/>
       <use x="63.623047" xlink:href="#DejaVuSans-46"/>
       <use x="95.410156" xlink:href="#DejaVuSans-53"/>
      </g>
     </g>
    </g>
    <g id="ytick_9">
     <g id="line2d_18">
      <g>
       <use style="stroke:#000000;stroke-width:0.8;" x="57.6" xlink:href="#m883798ea44" y="41.472"/>
      </g>
     </g>
     <g id="text_18">
      <!-- 10.0 -->
      <g transform="translate(28.334375 45.271219)scale(0.1 -0.1)">
       <use xlink:href="#DejaVuSans-49"/>
       <use x="63.623047" xlink:href="#DejaVuSans-48"/>
       <use x="127.246094" xlink:href="#DejaVuSans-46"/>
       <use x="159.033203" xlink:href="#DejaVuSans-48"/>
      </g>
     </g>
    </g>
   </g>
   <g id="LineCollection_1"/>
   <g id="LineCollection_2">
    <path clip-path="url(#pb1911c573e)" d="M 57.6 287.131999 
L 59.064759 283.513568 
L 61.581675 278.164583 
L 64.420394 272.815598 
L 67.649608 267.259434 
L 71.956583 260.421204 
L 76.263558 254.020133 
L 82.006191 245.98182 
L 87.991334 238.047196 
L 94.326862 230.023719 
L 100.916645 222.000241 
L 107.84804 213.858871 
L 116.46199 204.101715 
L 125.07594 194.67738 
L 134.636633 184.557347 
L 143.756691 175.196623 
L 154.515446 164.498653 
L 165.274372 154.128842 
L 175.633918 144.43996 
L 186.809246 134.299176 
L 198.083386 124.381266 
L 208.344121 115.631025 
L 218.778104 106.997065 
L 229.878995 98.114509 
L 239.928603 90.351221 
L 249.978211 82.862955 
L 260.027819 75.681295 
L 268.980367 69.554171 
L 277.255719 64.143985 
L 285.869668 58.808099 
L 293.04796 54.624965 
L 300.226251 50.715046 
L 305.968884 47.824867 
L 311.711518 45.180737 
L 317.528409 42.809246 
L 321.338873 41.472 
L 321.338873 41.472 
" style="fill:none;stroke:#00f584;stroke-width:1.5;"/>
    <path clip-path="url(#pb1911c573e)" d="M 343.296 61.924001 
L 341.831241 65.542432 
L 339.314325 70.891417 
L 336.475606 76.240402 
L 333.246392 81.796566 
L 328.939417 88.634796 
L 324.632442 95.035867 
L 318.889809 103.07418 
L 312.904666 111.008804 
L 306.569138 119.032281 
L 299.979355 127.055759 
L 293.04796 135.197129 
L 284.43401 144.954285 
L 275.82006 154.37862 
L 266.259367 164.498653 
L 257.139309 173.859377 
L 246.380554 184.557347 
L 235.621628 194.927158 
L 225.262082 204.61604 
L 214.086754 214.756824 
L 202.812614 224.674734 
L 192.551879 233.424975 
L 182.117896 242.058935 
L 171.017005 250.941491 
L 160.967397 258.704779 
L 150.917789 266.193045 
L 140.868181 273.374705 
L 131.915633 279.501829 
L 123.640281 284.912015 
L 115.026332 290.247901 
L 107.84804 294.431035 
L 100.669749 298.340954 
L 94.927116 301.231133 
L 89.184482 303.875263 
L 83.367591 306.246754 
L 79.557127 307.584 
L 79.557127 307.584 
" style="fill:none;stroke:#00f584;stroke-width:1.5;"/>
   </g>
   <g id="LineCollection_3">
    <path clip-path="url(#pb1911c573e)" d="M 57.6 244.170002 
L 66.21395 233.954615 
L 76.630252 222.000241 
L 86.313166 211.217446 
L 97.798432 198.797198 
L 109.283698 186.727521 
L 120.768965 174.975255 
L 132.616166 163.161407 
L 145.175156 150.952791 
L 158.09608 138.714934 
L 171.017005 126.785594 
L 184.090084 115.020543 
L 197.825452 102.985327 
L 210.360588 92.287357 
L 223.229902 81.589387 
L 236.468192 70.891417 
L 248.542553 61.410379 
L 260.669574 52.16997 
L 271.517917 44.146492 
L 275.215171 41.472 
L 275.215171 41.472 
" style="fill:none;stroke:#00eb8a;stroke-width:1.5;"/>
    <path clip-path="url(#pb1911c573e)" d="M 343.296 104.885998 
L 334.68205 115.101385 
L 324.265748 127.055759 
L 314.582834 137.838554 
L 303.097568 150.258802 
L 291.612302 162.328479 
L 280.127035 174.080745 
L 268.279834 185.894593 
L 255.720844 198.103209 
L 242.79992 210.341066 
L 229.878995 222.270406 
L 216.805916 234.035457 
L 203.070548 246.070673 
L 190.535412 256.768643 
L 177.666098 267.466613 
L 164.427808 278.164583 
L 152.353447 287.645621 
L 140.226426 296.88603 
L 129.378083 304.909508 
L 125.680829 307.584 
L 125.680829 307.584 
" style="fill:none;stroke:#00eb8a;stroke-width:1.5;"/>
   </g>
   <g id="LineCollection_4">
    <path clip-path="url(#pb1911c573e)" d="M 57.6 222.839243 
L 69.394804 209.965025 
L 80.693613 197.929809 
L 93.551551 184.557347 
L 106.726586 171.184884 
L 120.215468 157.812422 
L 134.019859 144.43996 
L 148.146031 131.067497 
L 162.605368 117.695035 
L 177.409796 104.322573 
L 191.116221 92.220041 
L 205.472804 79.833967 
L 219.829387 67.739445 
L 234.18597 55.939476 
L 247.224071 45.483739 
L 252.314616 41.472 
L 252.314616 41.472 
" style="fill:none;stroke:#00e18e;stroke-width:1.5;"/>
    <path clip-path="url(#pb1911c573e)" d="M 343.296 126.216757 
L 331.501196 139.090975 
L 320.202387 151.126191 
L 307.344449 164.498653 
L 294.169414 177.871116 
L 280.680532 191.243578 
L 266.876141 204.61604 
L 252.749969 217.988503 
L 238.290632 231.360965 
L 223.486204 244.733427 
L 209.779779 256.835959 
L 195.423196 269.222033 
L 181.066613 281.316555 
L 166.71003 293.116524 
L 153.671929 303.572261 
L 148.581384 307.584 
L 148.581384 307.584 
" style="fill:none;stroke:#00e18e;stroke-width:1.5;"/>
   </g>
   <g id="LineCollection_5">
    <path clip-path="url(#pb1911c573e)" d="M 57.6 206.379704 
L 70.747739 192.580824 
L 83.768813 179.208362 
L 97.798432 165.103514 
L 112.155015 150.973825 
L 127.270497 136.416482 
L 142.303839 122.244433 
L 157.374239 108.334312 
L 172.452663 94.705016 
L 188.244905 80.7361 
L 204.037146 67.073314 
L 219.829387 53.718482 
L 234.643769 41.472 
L 234.643769 41.472 
" style="fill:none;stroke:#00d793;stroke-width:1.5;"/>
    <path clip-path="url(#pb1911c573e)" d="M 343.296 142.676296 
L 330.148261 156.475176 
L 317.127187 169.847638 
L 303.097568 183.952486 
L 288.740985 198.082175 
L 273.625503 212.639518 
L 258.592161 226.811567 
L 243.521761 240.721688 
L 228.443337 254.350984 
L 212.651095 268.3199 
L 196.858854 281.982686 
L 181.066613 295.337518 
L 166.252231 307.584 
L 166.252231 307.584 
" style="fill:none;stroke:#00d793;stroke-width:1.5;"/>
   </g>
   <g id="LineCollection_6">
    <path clip-path="url(#pb1911c573e)" d="M 57.6 192.471235 
L 73.177964 176.533869 
L 87.862099 161.824161 
L 103.541065 146.436568 
L 119.524642 131.067497 
L 135.133329 116.357789 
L 151.055329 101.64808 
L 167.300172 86.938372 
L 183.93793 72.175831 
L 200.8117 57.518955 
L 216.95807 43.786284 
L 219.711733 41.472 
L 219.711733 41.472 
" style="fill:none;stroke:#00cc99;stroke-width:1.5;"/>
    <path clip-path="url(#pb1911c573e)" d="M 343.296 156.584765 
L 327.718036 172.522131 
L 313.033901 187.231839 
L 297.354935 202.619432 
L 281.371358 217.988503 
L 265.762671 232.698211 
L 249.840671 247.40792 
L 233.595828 262.117628 
L 216.95807 276.880169 
L 200.0843 291.537045 
L 183.93793 305.269716 
L 181.184267 307.584 
L 181.184267 307.584 
" style="fill:none;stroke:#00cc99;stroke-width:1.5;"/>
   </g>
   <g id="LineCollection_7">
    <path clip-path="url(#pb1911c573e)" d="M 57.6 180.204563 
L 73.392241 164.313721 
L 89.470161 148.451698 
L 106.056662 132.404744 
L 122.204623 117.078502 
L 139.432523 101.037587 
L 156.660422 85.307894 
L 174.26036 69.554171 
L 191.116221 54.759545 
L 206.542319 41.472 
L 206.542319 41.472 
" style="fill:none;stroke:#00c29e;stroke-width:1.5;"/>
    <path clip-path="url(#pb1911c573e)" d="M 343.296 168.851437 
L 327.503759 184.742279 
L 311.425839 200.604302 
L 294.839338 216.651256 
L 278.691377 231.977498 
L 261.463477 248.018413 
L 244.235578 263.748106 
L 226.63564 279.501829 
L 209.779779 294.296455 
L 194.353681 307.584 
L 194.353681 307.584 
" style="fill:none;stroke:#00c29e;stroke-width:1.5;"/>
   </g>
   <g id="LineCollection_8">
    <path clip-path="url(#pb1911c573e)" d="M 343.296 179.950501 
L 326.540413 196.592563 
L 310.08102 212.639518 
L 293.04796 228.943793 
L 275.82006 245.134398 
L 258.592161 261.033062 
L 241.162127 276.827337 
L 222.700704 293.242208 
L 206.26956 307.584 
L 206.26956 307.584 
" style="fill:none;stroke:#00b8a3;stroke-width:1.5;"/>
    <path clip-path="url(#pb1911c573e)" d="M 57.6 169.105499 
L 74.355587 152.463437 
L 90.81498 136.416482 
L 107.84804 120.112207 
L 125.07594 103.921602 
L 142.303839 88.022938 
L 159.733873 72.228663 
L 178.195296 55.813792 
L 194.62644 41.472 
L 194.62644 41.472 
" style="fill:none;stroke:#00b8a3;stroke-width:1.5;"/>
   </g>
   <g id="LineCollection_9">
    <path clip-path="url(#pb1911c573e)" d="M 343.296 190.163628 
L 325.876428 207.290533 
L 307.867731 224.674734 
L 290.176643 241.447383 
L 272.292186 258.105889 
L 254.285186 274.584282 
L 235.421089 291.537045 
L 217.234302 307.584 
L 217.234302 307.584 
" style="fill:none;stroke:#00aea8;stroke-width:1.5;"/>
    <path clip-path="url(#pb1911c573e)" d="M 57.6 158.892372 
L 75.019572 141.765467 
L 93.028269 124.381266 
L 110.719357 107.608617 
L 128.603814 90.950111 
L 146.610814 74.471718 
L 165.474911 57.518955 
L 183.661698 41.472 
L 183.661698 41.472 
" style="fill:none;stroke:#00aea8;stroke-width:1.5;"/>
   </g>
   <g id="LineCollection_10">
    <path clip-path="url(#pb1911c573e)" d="M 343.296 199.672591 
L 324.632442 217.866182 
L 307.404543 234.370899 
L 288.740985 251.950255 
L 270.077427 269.225914 
L 251.413869 286.205679 
L 231.981777 303.572261 
L 227.443058 307.584 
L 227.443058 307.584 
" style="fill:none;stroke:#00a3ae;stroke-width:1.5;"/>
    <path clip-path="url(#pb1911c573e)" d="M 57.6 149.383409 
L 76.263558 131.189818 
L 93.491457 114.685101 
L 112.155015 97.105745 
L 130.818573 79.830086 
L 149.482131 62.850321 
L 168.914223 45.483739 
L 173.452942 41.472 
L 173.452942 41.472 
" style="fill:none;stroke:#00a3ae;stroke-width:1.5;"/>
   </g>
   <g id="LineCollection_11">
    <path clip-path="url(#pb1911c573e)" d="M 343.296 208.607751 
L 325.326614 226.01198 
L 307.082201 243.396181 
L 288.535073 260.780382 
L 269.677632 278.164583 
L 249.978211 296.019583 
L 237.035785 307.584 
L 237.035785 307.584 
" style="fill:none;stroke:#0099b2;stroke-width:1.5;"/>
    <path clip-path="url(#pb1911c573e)" d="M 57.6 140.448249 
L 75.569386 123.04402 
L 93.813799 105.659819 
L 112.360927 88.275618 
L 131.218368 70.891417 
L 150.917789 53.036417 
L 163.860215 41.472 
L 163.860215 41.472 
" style="fill:none;stroke:#0099b2;stroke-width:1.5;"/>
   </g>
   <g id="LineCollection_12">
    <path clip-path="url(#pb1911c573e)" d="M 343.296 217.05866 
L 324.272233 235.372704 
L 304.498857 254.094151 
L 284.387062 272.815598 
L 263.928083 291.537045 
L 246.108622 307.584 
L 246.108622 307.584 
" style="fill:none;stroke:#008fb8;stroke-width:1.5;"/>
    <path clip-path="url(#pb1911c573e)" d="M 57.6 131.99734 
L 76.623767 113.683296 
L 96.397143 94.961849 
L 116.508938 76.240402 
L 136.967917 57.518955 
L 154.787378 41.472 
L 154.787378 41.472 
" style="fill:none;stroke:#008fb8;stroke-width:1.5;"/>
   </g>
   <g id="LineCollection_13">
    <path clip-path="url(#pb1911c573e)" d="M 343.296 225.099159 
L 342.350181 226.01198 
L 341.860342 226.48445 
L 340.963261 227.349226 
L 340.424683 227.868101 
L 339.574752 228.686472 
L 338.989025 229.250117 
L 338.184654 230.023719 
L 337.553367 230.630498 
L 336.792962 231.360965 
L 336.117709 232.009249 
L 335.399674 232.698211 
L 334.68205 233.386372 
L 334.004787 234.035457 
L 333.246392 234.76187 
L 332.608299 235.372704 
L 331.810734 236.135746 
L 331.210206 236.70995 
L 330.375075 237.508003 
L 329.810507 238.047196 
L 328.939417 238.878643 
L 328.409198 239.384442 
L 327.503759 240.24767 
L 327.006276 240.721688 
L 326.068101 241.615087 
L 325.601739 242.058935 
L 324.632442 242.980896 
L 324.195584 243.396181 
L 323.196784 244.345099 
L 322.787807 244.733427 
L 321.761126 245.707701 
L 321.378408 246.070673 
L 320.325467 247.068703 
L 319.967381 247.40792 
L 318.889809 248.428109 
L 318.554725 248.745166 
L 317.454151 249.785921 
L 317.140437 250.082412 
L 316.018492 251.142142 
L 315.724514 251.419658 
L 314.582834 252.496776 
L 314.306954 252.756905 
L 313.147176 253.849824 
L 312.887752 254.094151 
L 311.711518 255.201289 
L 311.466907 255.431397 
L 310.275859 256.551175 
L 310.044416 256.768643 
L 308.840201 257.899483 
L 308.620275 258.105889 
L 307.404543 259.246218 
L 307.194482 259.443136 
L 305.968884 260.591381 
L 305.767034 260.780382 
L 304.533226 261.934975 
L 304.337928 262.117628 
L 303.097568 263.277003 
L 302.907162 263.454874 
L 301.66191 264.617469 
L 301.474731 264.792121 
L 300.226251 265.956373 
L 300.040635 266.129367 
L 298.790593 267.29372 
L 298.604868 267.466613 
L 297.354935 268.629512 
L 297.16743 268.803859 
L 295.919276 269.963751 
L 295.728315 270.141106 
L 294.483618 271.296441 
L 294.287523 271.478352 
L 293.04796 272.627584 
L 292.84505 272.815598 
L 291.612302 273.957183 
L 291.400892 274.152844 
L 290.176643 275.28524 
L 289.955047 275.49009 
L 288.740985 276.611758 
L 288.507512 276.827337 
L 287.305327 277.93674 
L 287.058284 278.164583 
L 285.869668 279.260188 
L 285.60736 279.501829 
L 284.43401 280.582106 
L 284.154738 280.839075 
L 282.998352 281.902495 
L 282.700413 282.176322 
L 281.562693 283.221359 
L 281.244383 283.513568 
L 280.127035 284.5387 
L 279.786645 284.850814 
L 278.691377 285.85452 
L 278.327197 286.18806 
L 277.255719 287.168823 
L 276.866034 287.525307 
L 275.82006 288.481611 
L 275.403154 288.862553 
L 274.384402 289.792886 
L 273.938555 290.199799 
L 272.948744 291.102652 
L 272.472232 291.537045 
L 271.513085 292.41091 
L 271.004183 292.874291 
L 270.077427 293.717664 
L 269.534405 294.211538 
L 268.641769 295.022916 
L 268.062895 295.548784 
L 267.206111 296.326668 
L 266.589649 296.88603 
L 265.770452 297.628923 
L 265.114666 298.223276 
L 264.334794 298.929685 
L 263.63794 299.560523 
L 262.899136 300.228954 
L 262.159471 300.897769 
L 261.463477 301.526734 
L 260.679253 302.235015 
L 260.027819 302.823028 
L 259.197285 303.572261 
L 258.592161 304.117838 
L 257.713563 304.909508 
L 257.156503 305.411166 
L 256.228085 306.246754 
L 255.720844 306.703015 
L 254.740846 307.584 
" style="fill:none;stroke:#0085bc;stroke-width:1.5;"/>
    <path clip-path="url(#pb1911c573e)" d="M 57.6 123.956841 
L 58.545819 123.04402 
L 59.035658 122.57155 
L 59.932739 121.706774 
L 60.471317 121.187899 
L 61.321248 120.369528 
L 61.906975 119.805883 
L 62.711346 119.032281 
L 63.342633 118.425502 
L 64.103038 117.695035 
L 64.778291 117.046751 
L 65.496326 116.357789 
L 66.21395 115.669628 
L 66.891213 115.020543 
L 67.649608 114.29413 
L 68.287701 113.683296 
L 69.085266 112.920254 
L 69.685794 112.34605 
L 70.520925 111.547997 
L 71.085493 111.008804 
L 71.956583 110.177357 
L 72.486802 109.671558 
L 73.392241 108.80833 
L 73.889724 108.334312 
L 74.827899 107.440913 
L 75.294261 106.997065 
L 76.263558 106.075104 
L 76.700416 105.659819 
L 77.699216 104.710901 
L 78.108193 104.322573 
L 79.134874 103.348299 
L 79.517592 102.985327 
L 80.570533 101.987297 
L 80.928619 101.64808 
L 82.006191 100.627891 
L 82.341275 100.310834 
L 83.441849 99.270079 
L 83.755563 98.973588 
L 84.877508 97.913858 
L 85.171486 97.636342 
L 86.313166 96.559224 
L 86.589046 96.299095 
L 87.748824 95.206176 
L 88.008248 94.961849 
L 89.184482 93.854711 
L 89.429093 93.624603 
L 90.620141 92.504825 
L 90.851584 92.287357 
L 92.055799 91.156517 
L 92.275725 90.950111 
L 93.491457 89.809782 
L 93.701518 89.612864 
L 94.927116 88.464619 
L 95.128966 88.275618 
L 96.362774 87.121025 
L 96.558072 86.938372 
L 97.798432 85.778997 
L 97.988838 85.601126 
L 99.23409 84.438531 
L 99.421269 84.263879 
L 100.669749 83.099627 
L 100.855365 82.926633 
L 102.105407 81.76228 
L 102.291132 81.589387 
L 103.541065 80.426488 
L 103.72857 80.252141 
L 104.976724 79.092249 
L 105.167685 78.914894 
L 106.412382 77.759559 
L 106.608477 77.577648 
L 107.84804 76.428416 
L 108.05095 76.240402 
L 109.283698 75.098817 
L 109.495108 74.903156 
L 110.719357 73.77076 
L 110.940953 73.56591 
L 112.155015 72.444242 
L 112.388488 72.228663 
L 113.590673 71.11926 
L 113.837716 70.891417 
L 115.026332 69.795812 
L 115.28864 69.554171 
L 116.46199 68.473894 
L 116.741262 68.216925 
L 117.897648 67.153505 
L 118.195587 66.879678 
L 119.333307 65.834641 
L 119.651617 65.542432 
L 120.768965 64.5173 
L 121.109355 64.205186 
L 122.204623 63.20148 
L 122.568803 62.86794 
L 123.640281 61.887177 
L 124.029966 61.530693 
L 125.07594 60.574389 
L 125.492846 60.193447 
L 126.511598 59.263114 
L 126.957445 58.856201 
L 127.947256 57.953348 
L 128.423768 57.518955 
L 129.382915 56.64509 
L 129.891817 56.181709 
L 130.818573 55.338336 
L 131.361595 54.844462 
L 132.254231 54.033084 
L 132.833105 53.507216 
L 133.689889 52.729332 
L 134.306351 52.16997 
L 135.125548 51.427077 
L 135.781334 50.832724 
L 136.561206 50.126315 
L 137.25806 49.495477 
L 137.996864 48.827046 
L 138.736529 48.158231 
L 139.432523 47.529266 
L 140.216747 46.820985 
L 140.868181 46.232972 
L 141.698715 45.483739 
L 142.303839 44.938162 
L 143.182437 44.146492 
L 143.739497 43.644834 
L 144.667915 42.809246 
L 145.175156 42.352985 
L 146.155154 41.472 
" style="fill:none;stroke:#0085bc;stroke-width:1.5;"/>
   </g>
   <g id="LineCollection_14">
    <path clip-path="url(#pb1911c573e)" d="M 343.296 232.783777 
L 341.992791 234.035457 
L 341.860342 234.162598 
L 340.599013 235.372704 
L 340.424683 235.539859 
L 339.203703 236.70995 
L 338.989025 236.915564 
L 337.806858 238.047196 
L 337.553367 238.289714 
L 336.408475 239.384442 
L 336.117709 239.662312 
L 335.008552 240.721688 
L 334.68205 241.03336 
L 333.607086 242.058935 
L 333.246392 242.402863 
L 332.204076 243.396181 
L 331.810734 243.770821 
L 330.799517 244.733427 
L 330.375075 245.137238 
L 329.393408 246.070673 
L 328.939417 246.502116 
L 327.985747 247.40792 
L 327.503759 247.865458 
L 326.57653 248.745166 
L 326.068101 249.227266 
L 325.165755 250.082412 
L 324.632442 250.587544 
L 323.753419 251.419658 
L 323.196784 251.946293 
L 322.33952 252.756905 
L 321.761126 253.303516 
L 320.924056 254.094151 
L 320.325467 254.659216 
L 319.507023 255.431397 
L 318.889809 256.013395 
L 318.088419 256.768643 
L 317.454151 257.366056 
L 316.668241 258.105889 
L 316.018492 258.717202 
L 315.246488 259.443136 
L 314.582834 260.066835 
L 313.823155 260.780382 
L 313.147176 261.414957 
L 312.398241 262.117628 
L 311.711518 262.761571 
L 310.971743 263.454874 
L 310.275859 264.106679 
L 309.543658 264.792121 
L 308.840201 265.450285 
L 308.113983 266.129367 
L 307.404543 266.79239 
L 306.682717 267.466613 
L 305.968884 268.132997 
L 305.249856 268.803859 
L 304.533226 269.47211 
L 303.815397 270.141106 
L 303.097568 270.809729 
L 302.379338 271.478352 
L 301.66191 272.145857 
L 300.941677 272.815598 
L 300.226251 273.480498 
L 299.50241 274.152844 
L 298.790593 274.813654 
L 298.061535 275.49009 
L 297.354935 276.145326 
L 296.619049 276.827337 
L 295.919276 277.475518 
L 295.17495 278.164583 
L 294.483618 278.804232 
L 293.729235 279.501829 
L 293.04796 280.131471 
L 292.2819 280.839075 
L 291.612302 281.457236 
L 290.832944 282.176322 
L 290.176643 282.781531 
L 289.382364 283.513568 
L 288.740985 284.104358 
L 287.930156 284.850814 
L 287.305327 285.425719 
L 286.476319 286.18806 
L 285.869668 286.745616 
L 285.020848 287.525307 
L 284.43401 288.064053 
L 283.563743 288.862553 
L 282.998352 289.381032 
L 282.104999 290.199799 
L 281.562693 290.696554 
L 280.644615 291.537045 
L 280.127035 292.010622 
L 279.182587 292.874291 
L 278.691377 293.32324 
L 277.718912 294.211538 
L 277.255719 294.634409 
L 276.253589 295.548784 
L 275.82006 295.944131 
L 274.786613 296.88603 
L 274.384402 297.252409 
L 273.317982 298.223276 
L 272.948744 298.559246 
L 271.847694 299.560523 
L 271.513085 299.864643 
L 270.375746 300.897769 
L 270.077427 301.168604 
L 268.902134 302.235015 
L 268.641769 302.47113 
L 267.426856 303.572261 
L 267.206111 303.772223 
L 265.94991 304.909508 
L 265.770452 305.071887 
L 264.471291 306.246754 
L 264.334794 306.370124 
L 262.990998 307.584 
" style="fill:none;stroke:#007ac2;stroke-width:1.5;"/>
    <path clip-path="url(#pb1911c573e)" d="M 57.6 116.272223 
L 58.903209 115.020543 
L 59.035658 114.893402 
L 60.296987 113.683296 
L 60.471317 113.516141 
L 61.692297 112.34605 
L 61.906975 112.140436 
L 63.089142 111.008804 
L 63.342633 110.766286 
L 64.487525 109.671558 
L 64.778291 109.393688 
L 65.887448 108.334312 
L 66.21395 108.02264 
L 67.288914 106.997065 
L 67.649608 106.653137 
L 68.691924 105.659819 
L 69.085266 105.285179 
L 70.096483 104.322573 
L 70.520925 103.918762 
L 71.502592 102.985327 
L 71.956583 102.553884 
L 72.910253 101.64808 
L 73.392241 101.190542 
L 74.31947 100.310834 
L 74.827899 99.828734 
L 75.730245 98.973588 
L 76.263558 98.468456 
L 77.142581 97.636342 
L 77.699216 97.109707 
L 78.55648 96.299095 
L 79.134874 95.752484 
L 79.971944 94.961849 
L 80.570533 94.396784 
L 81.388977 93.624603 
L 82.006191 93.042605 
L 82.807581 92.287357 
L 83.441849 91.689944 
L 84.227759 90.950111 
L 84.877508 90.338798 
L 85.649512 89.612864 
L 86.313166 88.989165 
L 87.072845 88.275618 
L 87.748824 87.641043 
L 88.497759 86.938372 
L 89.184482 86.294429 
L 89.924257 85.601126 
L 90.620141 84.949321 
L 91.352342 84.263879 
L 92.055799 83.605715 
L 92.782017 82.926633 
L 93.491457 82.26361 
L 94.213283 81.589387 
L 94.927116 80.923003 
L 95.646144 80.252141 
L 96.362774 79.58389 
L 97.080603 78.914894 
L 97.798432 78.246271 
L 98.516662 77.577648 
L 99.23409 76.910143 
L 99.954323 76.240402 
L 100.669749 75.575502 
L 101.39359 74.903156 
L 102.105407 74.242346 
L 102.834465 73.56591 
L 103.541065 72.910674 
L 104.276951 72.228663 
L 104.976724 71.580482 
L 105.72105 70.891417 
L 106.412382 70.251768 
L 107.166765 69.554171 
L 107.84804 68.924529 
L 108.6141 68.216925 
L 109.283698 67.598764 
L 110.063056 66.879678 
L 110.719357 66.274469 
L 111.513636 65.542432 
L 112.155015 64.951642 
L 112.965844 64.205186 
L 113.590673 63.630281 
L 114.419681 62.86794 
L 115.026332 62.310384 
L 115.875152 61.530693 
L 116.46199 60.991947 
L 117.332257 60.193447 
L 117.897648 59.674968 
L 118.791001 58.856201 
L 119.333307 58.359446 
L 120.251385 57.518955 
L 120.768965 57.045378 
L 121.713413 56.181709 
L 122.204623 55.73276 
L 123.177088 54.844462 
L 123.640281 54.421591 
L 124.642411 53.507216 
L 125.07594 53.111869 
L 126.109387 52.16997 
L 126.511598 51.803591 
L 127.578018 50.832724 
L 127.947256 50.496754 
L 129.048306 49.495477 
L 129.382915 49.191357 
L 130.520254 48.158231 
L 130.818573 47.887396 
L 131.993866 46.820985 
L 132.254231 46.58487 
L 133.469144 45.483739 
L 133.689889 45.283777 
L 134.94609 44.146492 
L 135.125548 43.984113 
L 136.424709 42.809246 
L 136.561206 42.685876 
L 137.905002 41.472 
" style="fill:none;stroke:#007ac2;stroke-width:1.5;"/>
   </g>
   <g id="LineCollection_15">
    <path clip-path="url(#pb1911c573e)" d="M 343.296 240.153669 
L 342.702388 240.721688 
L 341.860342 241.526992 
L 341.303833 242.058935 
L 340.424683 242.898817 
L 339.903789 243.396181 
L 338.989025 244.269146 
L 338.502254 244.733427 
L 337.553367 245.637981 
L 337.099226 246.070673 
L 336.117709 247.005325 
L 335.694702 247.40792 
L 334.68205 248.371181 
L 334.28868 248.745166 
L 333.246392 249.73555 
L 332.881157 250.082412 
L 331.810734 251.098436 
L 331.472131 251.419658 
L 330.375075 252.45984 
L 330.0616 252.756905 
L 328.939417 253.819765 
L 328.649561 254.094151 
L 327.503759 255.178213 
L 327.236012 255.431397 
L 326.068101 256.535187 
L 325.820951 256.768643 
L 324.632442 257.89069 
L 324.404374 258.105889 
L 323.196784 259.244723 
L 322.98628 259.443136 
L 321.761126 260.597289 
L 321.566665 260.780382 
L 320.325467 261.948391 
L 320.145529 262.117628 
L 318.889809 263.29803 
L 318.722868 263.454874 
L 317.454151 264.64621 
L 317.298679 264.792121 
L 316.018492 265.992932 
L 315.872961 266.129367 
L 314.582834 267.338198 
L 314.44571 267.466613 
L 313.147176 268.682012 
L 313.016925 268.803859 
L 311.711518 270.024376 
L 311.586602 270.141106 
L 310.275859 271.365292 
L 310.15474 271.478352 
L 308.840201 272.704762 
L 308.721336 272.815598 
L 307.404543 274.042788 
L 307.286387 274.152844 
L 305.968884 275.379373 
L 305.849891 275.49009 
L 304.533226 276.71452 
L 304.411846 276.827337 
L 303.097568 278.04823 
L 302.972248 278.164583 
L 301.66191 279.380506 
L 301.531096 279.501829 
L 300.226251 280.711351 
L 300.088386 280.839075 
L 298.790593 282.040766 
L 298.644117 282.176322 
L 297.354935 283.368753 
L 297.198286 283.513568 
L 295.919276 284.695316 
L 295.75089 284.850814 
L 294.483618 286.020456 
L 294.301926 286.18806 
L 293.04796 287.344176 
L 292.851393 287.525307 
L 291.612302 288.666478 
L 291.399287 288.862553 
L 290.176643 289.987364 
L 289.945607 290.199799 
L 288.740985 291.306837 
L 288.490348 291.537045 
L 287.305327 292.624899 
L 287.03351 292.874291 
L 285.869668 293.941551 
L 285.575089 294.211538 
L 284.43401 295.256797 
L 284.115083 295.548784 
L 282.998352 296.570639 
L 282.653489 296.88603 
L 281.562693 297.883078 
L 281.190305 298.223276 
L 280.127035 299.194117 
L 279.725528 299.560523 
L 278.691377 300.503759 
L 278.259155 300.897769 
L 277.255719 301.812005 
L 276.791183 302.235015 
L 275.82006 303.118858 
L 275.321611 303.572261 
L 274.384402 304.42432 
L 273.850436 304.909508 
L 272.948744 305.728393 
L 272.377654 306.246754 
L 271.513085 307.03108 
L 270.903264 307.584 
" style="fill:none;stroke:#0070c7;stroke-width:1.5;"/>
    <path clip-path="url(#pb1911c573e)" d="M 57.6 108.902331 
L 58.193612 108.334312 
L 59.035658 107.529008 
L 59.592167 106.997065 
L 60.471317 106.157183 
L 60.992211 105.659819 
L 61.906975 104.786854 
L 62.393746 104.322573 
L 63.342633 103.418019 
L 63.796774 102.985327 
L 64.778291 102.050675 
L 65.201298 101.64808 
L 66.21395 100.684819 
L 66.60732 100.310834 
L 67.649608 99.32045 
L 68.014843 98.973588 
L 69.085266 97.957564 
L 69.423869 97.636342 
L 70.520925 96.59616 
L 70.8344 96.299095 
L 71.956583 95.236235 
L 72.246439 94.961849 
L 73.392241 93.877787 
L 73.659988 93.624603 
L 74.827899 92.520813 
L 75.075049 92.287357 
L 76.263558 91.16531 
L 76.491626 90.950111 
L 77.699216 89.811277 
L 77.90972 89.612864 
L 79.134874 88.458711 
L 79.329335 88.275618 
L 80.570533 87.107609 
L 80.750471 86.938372 
L 82.006191 85.75797 
L 82.173132 85.601126 
L 83.441849 84.40979 
L 83.597321 84.263879 
L 84.877508 83.063068 
L 85.023039 82.926633 
L 86.313166 81.717802 
L 86.45029 81.589387 
L 87.748824 80.373988 
L 87.879075 80.252141 
L 89.184482 79.031624 
L 89.309398 78.914894 
L 90.620141 77.690708 
L 90.74126 77.577648 
L 92.055799 76.351238 
L 92.174664 76.240402 
L 93.491457 75.013212 
L 93.609613 74.903156 
L 94.927116 73.676627 
L 95.046109 73.56591 
L 96.362774 72.34148 
L 96.484154 72.228663 
L 97.798432 71.00777 
L 97.923752 70.891417 
L 99.23409 69.675494 
L 99.364904 69.554171 
L 100.669749 68.344649 
L 100.807614 68.216925 
L 102.105407 67.015234 
L 102.251883 66.879678 
L 103.541065 65.687247 
L 103.697714 65.542432 
L 104.976724 64.360684 
L 105.14511 64.205186 
L 106.412382 63.035544 
L 106.594074 62.86794 
L 107.84804 61.711824 
L 108.044607 61.530693 
L 109.283698 60.389522 
L 109.496713 60.193447 
L 110.719357 59.068636 
L 110.950393 58.856201 
L 112.155015 57.749163 
L 112.405652 57.518955 
L 113.590673 56.431101 
L 113.86249 56.181709 
L 115.026332 55.114449 
L 115.320911 54.844462 
L 116.46199 53.799203 
L 116.780917 53.507216 
L 117.897648 52.485361 
L 118.242511 52.16997 
L 119.333307 51.172922 
L 119.705695 50.832724 
L 120.768965 49.861883 
L 121.170472 49.495477 
L 122.204623 48.552241 
L 122.636845 48.158231 
L 123.640281 47.243995 
L 124.104817 46.820985 
L 125.07594 45.937142 
L 125.574389 45.483739 
L 126.511598 44.63168 
L 127.045564 44.146492 
L 127.947256 43.327607 
L 128.518346 42.809246 
L 129.382915 42.02492 
L 129.992736 41.472 
" style="fill:none;stroke:#0070c7;stroke-width:1.5;"/>
   </g>
   <g id="LineCollection_16">
    <path clip-path="url(#pb1911c573e)" d="M 343.296 247.247464 
L 343.12773 247.40792 
L 341.860342 248.615812 
L 341.724546 248.745166 
L 340.424683 249.982717 
L 340.319915 250.082412 
L 338.989025 251.348184 
L 338.913835 251.419658 
L 337.553367 252.712212 
L 337.506302 252.756905 
L 336.117709 254.074806 
L 336.097316 254.094151 
L 334.686841 255.431397 
L 334.68205 255.435936 
L 333.274781 256.768643 
L 333.246392 256.795514 
L 331.861269 258.105889 
L 331.810734 258.153673 
L 330.446305 259.443136 
L 330.375075 259.510416 
L 329.029884 260.780382 
L 328.939417 260.865745 
L 327.612006 262.117628 
L 327.503759 262.219663 
L 326.192667 263.454874 
L 326.068101 263.572171 
L 324.771866 264.792121 
L 324.632442 264.923271 
L 323.3496 266.129367 
L 323.196784 266.272966 
L 321.925867 267.466613 
L 321.761126 267.621258 
L 320.500665 268.803859 
L 320.325467 268.96815 
L 319.073991 270.141106 
L 318.889809 270.313642 
L 317.645844 271.478352 
L 317.454151 271.657738 
L 316.21622 272.815598 
L 316.018492 273.00044 
L 314.785118 274.152844 
L 314.582834 274.34175 
L 313.352535 275.49009 
L 313.147176 275.68167 
L 311.918469 276.827337 
L 311.711518 277.020202 
L 310.482918 278.164583 
L 310.275859 278.357348 
L 309.04588 279.501829 
L 308.840201 279.693111 
L 307.607351 280.839075 
L 307.404543 281.027493 
L 306.16733 282.176322 
L 305.968884 282.360495 
L 304.725814 283.513568 
L 304.533226 283.692121 
L 303.282802 284.850814 
L 303.097568 285.022371 
L 301.83829 286.18806 
L 301.66191 286.351249 
L 300.392277 287.525307 
L 300.226251 287.678755 
L 298.94476 288.862553 
L 298.790593 289.004894 
L 297.495737 290.199799 
L 297.354935 290.329666 
L 296.045205 291.537045 
L 295.919276 291.653073 
L 294.593162 292.874291 
L 294.483618 292.975118 
L 293.139606 294.211538 
L 293.04796 294.295803 
L 291.684534 295.548784 
L 291.612302 295.615131 
L 290.227943 296.88603 
L 290.176643 296.933102 
L 288.769833 298.223276 
L 288.740985 298.249719 
L 287.3102 299.560523 
L 287.305327 299.564985 
L 285.869668 300.878774 
L 285.8489 300.897769 
L 284.43401 302.191177 
L 284.386029 302.235015 
L 282.998352 303.502225 
L 282.921617 303.572261 
L 281.562693 304.811921 
L 281.455662 304.909508 
L 280.127035 306.120267 
L 279.988162 306.246754 
L 278.691377 307.427265 
L 278.519113 307.584 
" style="fill:none;stroke:#0066cc;stroke-width:1.5;"/>
    <path clip-path="url(#pb1911c573e)" d="M 57.6 101.808536 
L 57.76827 101.64808 
L 59.035658 100.440188 
L 59.171454 100.310834 
L 60.471317 99.073283 
L 60.576085 98.973588 
L 61.906975 97.707816 
L 61.982165 97.636342 
L 63.342633 96.343788 
L 63.389698 96.299095 
L 64.778291 94.981194 
L 64.798684 94.961849 
L 66.209159 93.624603 
L 66.21395 93.620064 
L 67.621219 92.287357 
L 67.649608 92.260486 
L 69.034731 90.950111 
L 69.085266 90.902327 
L 70.449695 89.612864 
L 70.520925 89.545584 
L 71.866116 88.275618 
L 71.956583 88.190255 
L 73.283994 86.938372 
L 73.392241 86.836337 
L 74.703333 85.601126 
L 74.827899 85.483829 
L 76.124134 84.263879 
L 76.263558 84.132729 
L 77.5464 82.926633 
L 77.699216 82.783034 
L 78.970133 81.589387 
L 79.134874 81.434742 
L 80.395335 80.252141 
L 80.570533 80.08785 
L 81.822009 78.914894 
L 82.006191 78.742358 
L 83.250156 77.577648 
L 83.441849 77.398262 
L 84.67978 76.240402 
L 84.877508 76.05556 
L 86.110882 74.903156 
L 86.313166 74.71425 
L 87.543465 73.56591 
L 87.748824 73.37433 
L 88.977531 72.228663 
L 89.184482 72.035798 
L 90.413082 70.891417 
L 90.620141 70.698652 
L 91.85012 69.554171 
L 92.055799 69.362889 
L 93.288649 68.216925 
L 93.491457 68.028507 
L 94.72867 66.879678 
L 94.927116 66.695505 
L 96.170186 65.542432 
L 96.362774 65.363879 
L 97.613198 64.205186 
L 97.798432 64.033629 
L 99.05771 62.86794 
L 99.23409 62.704751 
L 100.503723 61.530693 
L 100.669749 61.377245 
L 101.95124 60.193447 
L 102.105407 60.051106 
L 103.400263 58.856201 
L 103.541065 58.726334 
L 104.850795 57.518955 
L 104.976724 57.402927 
L 106.302838 56.181709 
L 106.412382 56.080882 
L 107.756394 54.844462 
L 107.84804 54.760197 
L 109.211466 53.507216 
L 109.283698 53.440869 
L 110.668057 52.16997 
L 110.719357 52.122898 
L 112.126167 50.832724 
L 112.155015 50.806281 
L 113.5858 49.495477 
L 113.590673 49.491015 
L 115.026332 48.177226 
L 115.0471 48.158231 
L 116.46199 46.864823 
L 116.509971 46.820985 
L 117.897648 45.553775 
L 117.974383 45.483739 
L 119.333307 44.244079 
L 119.440338 44.146492 
L 120.768965 42.935733 
L 120.907838 42.809246 
L 122.204623 41.628735 
L 122.376887 41.472 
" style="fill:none;stroke:#0066cc;stroke-width:1.5;"/>
   </g>
   <g id="LineCollection_17">
    <path clip-path="url(#pb1911c573e)" d="M 343.296 254.092616 
L 343.294386 254.094151 
L 341.886552 255.431397 
L 341.860342 255.45628 
L 340.477308 256.768643 
L 340.424683 256.818553 
L 339.066662 258.105889 
L 338.989025 258.179448 
L 337.654613 259.443136 
L 337.553367 259.538967 
L 336.241158 260.780382 
L 336.117709 260.897112 
L 334.826295 262.117628 
L 334.68205 262.253885 
L 333.410023 263.454874 
L 333.246392 263.609289 
L 331.992338 264.792121 
L 331.810734 264.963325 
L 330.573239 266.129367 
L 330.375075 266.315995 
L 329.152724 267.466613 
L 328.939417 267.667301 
L 327.730791 268.803859 
L 327.503759 269.017246 
L 326.307437 270.141106 
L 326.068101 270.365832 
L 324.88266 271.478352 
L 324.632442 271.71306 
L 323.456459 272.815598 
L 323.196784 273.058932 
L 322.02883 274.152844 
L 321.761126 274.403452 
L 320.599773 275.49009 
L 320.325467 275.74662 
L 319.169284 276.827337 
L 318.889809 277.088439 
L 317.737362 278.164583 
L 317.454151 278.428911 
L 316.304005 279.501829 
L 316.018492 279.768037 
L 314.86921 280.839075 
L 314.582834 281.10582 
L 313.432975 282.176322 
L 313.147176 282.442263 
L 311.995298 283.513568 
L 311.711518 283.777366 
L 310.556177 284.850814 
L 310.275859 285.111132 
L 309.115609 286.18806 
L 308.840201 286.443563 
L 307.673593 287.525307 
L 307.404543 287.77466 
L 306.230127 288.862553 
L 305.968884 289.104427 
L 304.785207 290.199799 
L 304.533226 290.432865 
L 303.338832 291.537045 
L 303.097568 291.759975 
L 301.891 292.874291 
L 301.66191 293.085761 
L 300.441709 294.211538 
L 300.226251 294.410223 
L 298.990955 295.548784 
L 298.790593 295.733364 
L 297.538738 296.88603 
L 297.354935 297.055186 
L 296.085055 298.223276 
L 295.919276 298.37569 
L 294.629903 299.560523 
L 294.483618 299.69488 
L 293.173281 300.897769 
L 293.04796 301.012756 
L 291.715186 302.235015 
L 291.612302 302.329321 
L 290.255615 303.572261 
L 290.176643 303.644576 
L 288.794568 304.909508 
L 288.740985 304.958524 
L 287.332041 306.246754 
L 287.305327 306.271167 
L 285.869668 307.582496 
L 285.868021 307.584 
" style="fill:none;stroke:#005cd1;stroke-width:1.5;"/>
    <path clip-path="url(#pb1911c573e)" d="M 57.6 94.963384 
L 57.601614 94.961849 
L 59.009448 93.624603 
L 59.035658 93.59972 
L 60.418692 92.287357 
L 60.471317 92.237447 
L 61.829338 90.950111 
L 61.906975 90.876552 
L 63.241387 89.612864 
L 63.342633 89.517033 
L 64.654842 88.275618 
L 64.778291 88.158888 
L 66.069705 86.938372 
L 66.21395 86.802115 
L 67.485977 85.601126 
L 67.649608 85.446711 
L 68.903662 84.263879 
L 69.085266 84.092675 
L 70.322761 82.926633 
L 70.520925 82.740005 
L 71.743276 81.589387 
L 71.956583 81.388699 
L 73.165209 80.252141 
L 73.392241 80.038754 
L 74.588563 78.914894 
L 74.827899 78.690168 
L 76.01334 77.577648 
L 76.263558 77.34294 
L 77.439541 76.240402 
L 77.699216 75.997068 
L 78.86717 74.903156 
L 79.134874 74.652548 
L 80.296227 73.56591 
L 80.570533 73.30938 
L 81.726716 72.228663 
L 82.006191 71.967561 
L 83.158638 70.891417 
L 83.441849 70.627089 
L 84.591995 69.554171 
L 84.877508 69.287963 
L 86.02679 68.216925 
L 86.313166 67.95018 
L 87.463025 66.879678 
L 87.748824 66.613737 
L 88.900702 65.542432 
L 89.184482 65.278634 
L 90.339823 64.205186 
L 90.620141 63.944868 
L 91.780391 62.86794 
L 92.055799 62.612437 
L 93.222407 61.530693 
L 93.491457 61.28134 
L 94.665873 60.193447 
L 94.927116 59.951573 
L 96.110793 58.856201 
L 96.362774 58.623135 
L 97.557168 57.518955 
L 97.798432 57.296025 
L 99.005 56.181709 
L 99.23409 55.970239 
L 100.454291 54.844462 
L 100.669749 54.645777 
L 101.905045 53.507216 
L 102.105407 53.322636 
L 103.357262 52.16997 
L 103.541065 52.000814 
L 104.810945 50.832724 
L 104.976724 50.68031 
L 106.266097 49.495477 
L 106.412382 49.36112 
L 107.722719 48.158231 
L 107.84804 48.043244 
L 109.180814 46.820985 
L 109.283698 46.726679 
L 110.640385 45.483739 
L 110.719357 45.411424 
L 112.101432 44.146492 
L 112.155015 44.097476 
L 113.563959 42.809246 
L 113.590673 42.784833 
L 115.026332 41.473504 
L 115.027979 41.472 
" style="fill:none;stroke:#005cd1;stroke-width:1.5;"/>
   </g>
   <g id="LineCollection_18">
    <path clip-path="url(#pb1911c573e)" d="M 343.296 260.713058 
L 343.224948 260.780382 
L 341.860342 262.072767 
L 341.812951 262.117628 
L 340.424683 263.431136 
L 340.399582 263.454874 
L 338.989025 264.788166 
L 338.98484 264.792121 
L 337.568625 266.129367 
L 337.553367 266.143767 
L 336.151015 267.466613 
L 336.117709 267.498016 
L 334.732034 268.803859 
L 334.68205 268.850941 
L 333.311681 270.141106 
L 333.246392 270.202543 
L 331.889952 271.478352 
L 331.810734 271.552825 
L 330.466846 272.815598 
L 330.375075 272.901788 
L 329.042362 274.152844 
L 328.939417 274.249434 
L 327.616496 275.49009 
L 327.503759 275.595766 
L 326.189247 276.827337 
L 326.068101 276.940784 
L 324.760614 278.164583 
L 324.632442 278.284492 
L 323.330593 279.501829 
L 323.196784 279.626891 
L 321.899183 280.839075 
L 321.761126 280.967982 
L 320.466382 282.176322 
L 320.325467 282.307769 
L 319.032188 283.513568 
L 318.889809 283.646252 
L 317.596599 284.850814 
L 317.454151 284.983434 
L 316.159613 286.18806 
L 316.018492 286.319316 
L 314.721228 287.525307 
L 314.582834 287.6539 
L 313.281441 288.862553 
L 313.147176 288.987189 
L 311.840251 290.199799 
L 311.711518 290.319184 
L 310.397656 291.537045 
L 310.275859 291.649888 
L 308.953653 292.874291 
L 308.840201 292.979301 
L 307.508241 294.211538 
L 307.404543 294.307425 
L 306.061417 295.548784 
L 305.968884 295.634264 
L 304.61318 296.88603 
L 304.533226 296.959818 
L 303.163527 298.223276 
L 303.097568 298.28409 
L 301.712456 299.560523 
L 301.66191 299.607081 
L 300.259965 300.897769 
L 300.226251 300.928792 
L 298.806053 302.235015 
L 298.790593 302.249227 
L 297.354935 303.568363 
L 297.350689 303.572261 
L 295.919276 304.886127 
L 295.893791 304.909508 
L 294.483618 306.202612 
L 294.435456 306.246754 
L 293.04796 307.517819 
L 292.975681 307.584 
" style="fill:none;stroke:#0051d6;stroke-width:1.5;"/>
    <path clip-path="url(#pb1911c573e)" d="M 57.6 88.342942 
L 57.671052 88.275618 
L 59.035658 86.983233 
L 59.083049 86.938372 
L 60.471317 85.624864 
L 60.496418 85.601126 
L 61.906975 84.267834 
L 61.91116 84.263879 
L 63.327375 82.926633 
L 63.342633 82.912233 
L 64.744985 81.589387 
L 64.778291 81.557984 
L 66.163966 80.252141 
L 66.21395 80.205059 
L 67.584319 78.914894 
L 67.649608 78.853457 
L 69.006048 77.577648 
L 69.085266 77.503175 
L 70.429154 76.240402 
L 70.520925 76.154212 
L 71.853638 74.903156 
L 71.956583 74.806566 
L 73.279504 73.56591 
L 73.392241 73.460234 
L 74.706753 72.228663 
L 74.827899 72.115216 
L 76.135386 70.891417 
L 76.263558 70.771508 
L 77.565407 69.554171 
L 77.699216 69.429109 
L 78.996817 68.216925 
L 79.134874 68.088018 
L 80.429618 66.879678 
L 80.570533 66.748231 
L 81.863812 65.542432 
L 82.006191 65.409748 
L 83.299401 64.205186 
L 83.441849 64.072566 
L 84.736387 62.86794 
L 84.877508 62.736684 
L 86.174772 61.530693 
L 86.313166 61.4021 
L 87.614559 60.193447 
L 87.748824 60.068811 
L 89.055749 58.856201 
L 89.184482 58.736816 
L 90.498344 57.518955 
L 90.620141 57.406112 
L 91.942347 56.181709 
L 92.055799 56.076699 
L 93.387759 54.844462 
L 93.491457 54.748575 
L 94.834583 53.507216 
L 94.927116 53.421736 
L 96.28282 52.16997 
L 96.362774 52.096182 
L 97.732473 50.832724 
L 97.798432 50.77191 
L 99.183544 49.495477 
L 99.23409 49.448919 
L 100.636035 48.158231 
L 100.669749 48.127208 
L 102.089947 46.820985 
L 102.105407 46.806773 
L 103.541065 45.487637 
L 103.545311 45.483739 
L 104.976724 44.169873 
L 105.002209 44.146492 
L 106.412382 42.853388 
L 106.460544 42.809246 
L 107.84804 41.538181 
L 107.920319 41.472 
" style="fill:none;stroke:#0051d6;stroke-width:1.5;"/>
   </g>
   <g id="LineCollection_19">
    <path clip-path="url(#pb1911c573e)" d="M 343.296 267.129743 
L 342.939455 267.466613 
L 341.860342 268.485688 
L 341.523267 268.803859 
L 340.424683 269.840337 
L 340.105742 270.141106 
L 338.989025 271.193692 
L 338.686879 271.478352 
L 337.553367 272.545755 
L 337.266676 272.815598 
L 336.117709 273.896528 
L 335.84513 274.152844 
L 334.68205 275.246013 
L 334.42224 275.49009 
L 333.246392 276.594211 
L 332.998004 276.827337 
L 331.810734 277.941125 
L 331.57242 278.164583 
L 330.375075 279.286755 
L 330.145486 279.501829 
L 328.939417 280.631105 
L 328.717199 280.839075 
L 327.503759 281.974176 
L 327.28756 282.176322 
L 326.068101 283.31597 
L 325.856564 283.513568 
L 324.632442 284.656488 
L 324.42421 284.850814 
L 323.196784 285.995732 
L 322.990497 286.18806 
L 321.761126 287.333704 
L 321.555423 287.525307 
L 320.325467 288.670407 
L 320.118985 288.862553 
L 318.889809 290.005841 
L 318.681181 290.199799 
L 317.454151 291.340009 
L 317.242011 291.537045 
L 316.018492 292.672912 
L 315.80147 292.874291 
L 314.582834 294.004553 
L 314.359559 294.211538 
L 313.147176 295.334932 
L 312.916274 295.548784 
L 311.711518 296.664052 
L 311.471614 296.88603 
L 310.275859 297.991915 
L 310.025577 298.223276 
L 308.840201 299.318522 
L 308.578161 299.560523 
L 307.404543 300.643875 
L 307.129363 300.897769 
L 305.968884 301.967976 
L 305.679183 302.235015 
L 304.533226 303.290827 
L 304.227617 303.572261 
L 303.097568 304.612429 
L 302.774665 304.909508 
L 301.66191 305.932785 
L 301.320323 306.246754 
L 300.226251 307.251895 
L 299.86459 307.584 
" style="fill:none;stroke:#0047dc;stroke-width:1.5;"/>
    <path clip-path="url(#pb1911c573e)" d="M 57.6 81.926257 
L 57.956545 81.589387 
L 59.035658 80.570312 
L 59.372733 80.252141 
L 60.471317 79.215663 
L 60.790258 78.914894 
L 61.906975 77.862308 
L 62.209121 77.577648 
L 63.342633 76.510245 
L 63.629324 76.240402 
L 64.778291 75.159472 
L 65.05087 74.903156 
L 66.21395 73.809987 
L 66.47376 73.56591 
L 67.649608 72.461789 
L 67.897996 72.228663 
L 69.085266 71.114875 
L 69.32358 70.891417 
L 70.520925 69.769245 
L 70.750514 69.554171 
L 71.956583 68.424895 
L 72.178801 68.216925 
L 73.392241 67.081824 
L 73.60844 66.879678 
L 74.827899 65.74003 
L 75.039436 65.542432 
L 76.263558 64.399512 
L 76.47179 64.205186 
L 77.699216 63.060268 
L 77.905503 62.86794 
L 79.134874 61.722296 
L 79.340577 61.530693 
L 80.570533 60.385593 
L 80.777015 60.193447 
L 82.006191 59.050159 
L 82.214819 58.856201 
L 83.441849 57.715991 
L 83.653989 57.518955 
L 84.877508 56.383088 
L 85.09453 56.181709 
L 86.313166 55.051447 
L 86.536441 54.844462 
L 87.748824 53.721068 
L 87.979726 53.507216 
L 89.184482 52.391948 
L 89.424386 52.16997 
L 90.620141 51.064085 
L 90.870423 50.832724 
L 92.055799 49.737478 
L 92.317839 49.495477 
L 93.491457 48.412125 
L 93.766637 48.158231 
L 94.927116 47.088024 
L 95.216817 46.820985 
L 96.362774 45.765173 
L 96.668383 45.483739 
L 97.798432 44.443571 
L 98.121335 44.146492 
L 99.23409 43.123215 
L 99.575677 42.809246 
L 100.669749 41.804105 
L 101.03141 41.472 
" style="fill:none;stroke:#0047dc;stroke-width:1.5;"/>
   </g>
   <g id="LineCollection_20">
    <path clip-path="url(#pb1911c573e)" d="M 343.296 273.361103 
L 342.455735 274.152844 
L 341.860342 274.713595 
L 341.035497 275.49009 
L 340.424683 276.064834 
L 339.613955 276.827337 
L 338.989025 277.414821 
L 338.191108 278.164583 
L 337.553367 278.763558 
L 336.766953 279.501829 
L 336.117709 280.111047 
L 335.34149 280.839075 
L 334.68205 281.457289 
L 333.914716 282.176322 
L 333.246392 282.802286 
L 332.486629 283.513568 
L 331.810734 284.146041 
L 331.057228 284.850814 
L 330.375075 285.488554 
L 329.62651 286.18806 
L 328.939417 286.829827 
L 328.194475 287.525307 
L 327.503759 288.169863 
L 326.76112 288.862553 
L 326.068101 289.508662 
L 325.326443 290.199799 
L 324.632442 290.846227 
L 323.890443 291.537045 
L 323.196784 292.182559 
L 322.453117 292.874291 
L 321.761126 293.51766 
L 321.014464 294.211538 
L 320.325467 294.851532 
L 319.574482 295.548784 
L 318.889809 296.184176 
L 318.133169 296.88603 
L 317.454151 297.515594 
L 316.690524 298.223276 
L 316.018492 298.845788 
L 315.246544 299.560523 
L 314.582834 300.174759 
L 313.801228 300.897769 
L 313.147176 301.502509 
L 312.354573 302.235015 
L 311.711518 302.82904 
L 310.906578 303.572261 
L 310.275859 304.154353 
L 309.457241 304.909508 
L 308.840201 305.478451 
L 308.006561 306.246754 
L 307.404543 306.801334 
L 306.554534 307.584 
" style="fill:none;stroke:#003de0;stroke-width:1.5;"/>
    <path clip-path="url(#pb1911c573e)" d="M 57.6 75.694897 
L 58.440265 74.903156 
L 59.035658 74.342405 
L 59.860503 73.56591 
L 60.471317 72.991166 
L 61.282045 72.228663 
L 61.906975 71.641179 
L 62.704892 70.891417 
L 63.342633 70.292442 
L 64.129047 69.554171 
L 64.778291 68.944953 
L 65.55451 68.216925 
L 66.21395 67.598711 
L 66.981284 66.879678 
L 67.649608 66.253714 
L 68.409371 65.542432 
L 69.085266 64.909959 
L 69.838772 64.205186 
L 70.520925 63.567446 
L 71.26949 62.86794 
L 71.956583 62.226173 
L 72.701525 61.530693 
L 73.392241 60.886137 
L 74.13488 60.193447 
L 74.827899 59.547338 
L 75.569557 58.856201 
L 76.263558 58.209773 
L 77.005557 57.518955 
L 77.699216 56.873441 
L 78.442883 56.181709 
L 79.134874 55.53834 
L 79.881536 54.844462 
L 80.570533 54.204468 
L 81.321518 53.507216 
L 82.006191 52.871824 
L 82.762831 52.16997 
L 83.441849 51.540406 
L 84.205476 50.832724 
L 84.877508 50.210212 
L 85.649456 49.495477 
L 86.313166 48.881241 
L 87.094772 48.158231 
L 87.748824 47.553491 
L 88.541427 46.820985 
L 89.184482 46.22696 
L 89.989422 45.483739 
L 90.620141 44.901647 
L 91.438759 44.146492 
L 92.055799 43.577549 
L 92.889439 42.809246 
L 93.491457 42.254666 
L 94.341466 41.472 
" style="fill:none;stroke:#003de0;stroke-width:1.5;"/>
   </g>
   <g id="LineCollection_21">
    <path clip-path="url(#pb1911c573e)" d="M 343.296 279.422945 
L 343.212108 279.501829 
L 341.860342 280.772334 
L 341.7893 280.839075 
L 340.424683 282.120502 
L 340.365214 282.176322 
L 338.989025 283.467451 
L 338.939848 283.513568 
L 337.553367 284.813181 
L 337.513201 284.850814 
L 336.117709 286.157696 
L 336.085271 286.18806 
L 334.68205 287.500996 
L 334.656056 287.525307 
L 333.246392 288.843083 
L 333.225555 288.862553 
L 331.810734 290.183958 
L 331.793766 290.199799 
L 330.375075 291.523625 
L 330.360686 291.537045 
L 328.939417 292.862083 
L 328.926316 292.874291 
L 327.503759 294.199334 
L 327.490651 294.211538 
L 326.068101 295.535381 
L 326.053692 295.548784 
L 324.632442 296.870225 
L 324.615436 296.88603 
L 323.196784 298.203868 
L 323.175881 298.223276 
L 321.761126 299.53631 
L 321.735026 299.560523 
L 320.325467 300.867555 
L 320.292868 300.897769 
L 318.889809 302.197602 
L 318.849407 302.235015 
L 317.454151 303.526455 
L 317.40464 303.572261 
L 316.018492 304.854114 
L 315.958565 304.909508 
L 314.582834 306.180582 
L 314.511181 306.246754 
L 313.147176 307.505859 
L 313.062486 307.584 
" style="fill:none;stroke:#0033e6;stroke-width:1.5;"/>
    <path clip-path="url(#pb1911c573e)" d="M 57.6 69.633055 
L 57.683892 69.554171 
L 59.035658 68.283666 
L 59.1067 68.216925 
L 60.471317 66.935498 
L 60.530786 66.879678 
L 61.906975 65.588549 
L 61.956152 65.542432 
L 63.342633 64.242819 
L 63.382799 64.205186 
L 64.778291 62.898304 
L 64.810729 62.86794 
L 66.21395 61.555004 
L 66.239944 61.530693 
L 67.649608 60.212917 
L 67.670445 60.193447 
L 69.085266 58.872042 
L 69.102234 58.856201 
L 70.520925 57.532375 
L 70.535314 57.518955 
L 71.956583 56.193917 
L 71.969684 56.181709 
L 73.392241 54.856666 
L 73.405349 54.844462 
L 74.827899 53.520619 
L 74.842308 53.507216 
L 76.263558 52.185775 
L 76.280564 52.16997 
L 77.699216 50.852132 
L 77.720119 50.832724 
L 79.134874 49.51969 
L 79.160974 49.495477 
L 80.570533 48.188445 
L 80.603132 48.158231 
L 82.006191 46.858398 
L 82.046593 46.820985 
L 83.441849 45.529545 
L 83.49136 45.483739 
L 84.877508 44.201886 
L 84.937435 44.146492 
L 86.313166 42.875418 
L 86.384819 42.809246 
L 87.748824 41.550141 
L 87.833514 41.472 
" style="fill:none;stroke:#0033e6;stroke-width:1.5;"/>
   </g>
   <g id="LineCollection_22">
    <path clip-path="url(#pb1911c573e)" d="M 343.296 285.326175 
L 342.377154 286.18806 
L 341.860342 286.672621 
L 340.950506 287.525307 
L 340.424683 288.017883 
L 339.52261 288.862553 
L 338.989025 289.361964 
L 338.093466 290.199799 
L 337.553367 290.704863 
L 336.66307 291.537045 
L 336.117709 292.046584 
L 335.231422 292.874291 
L 334.68205 293.387127 
L 333.79852 294.211538 
L 333.246392 294.726495 
L 332.364362 295.548784 
L 331.810734 296.064688 
L 330.928946 296.88603 
L 330.375075 297.401708 
L 329.492271 298.223276 
L 328.939417 298.737557 
L 328.054336 299.560523 
L 327.503759 300.072236 
L 326.615138 300.897769 
L 326.068101 301.405747 
L 325.174676 302.235015 
L 324.632442 302.738091 
L 323.732948 303.572261 
L 323.196784 304.06927 
L 322.289953 304.909508 
L 321.761126 305.399286 
L 320.845688 306.246754 
L 320.325467 306.728139 
L 319.400153 307.584 
" style="fill:none;stroke:#0028eb;stroke-width:1.5;"/>
    <path clip-path="url(#pb1911c573e)" d="M 57.6 63.729825 
L 58.518846 62.86794 
L 59.035658 62.383379 
L 59.945494 61.530693 
L 60.471317 61.038117 
L 61.37339 60.193447 
L 61.906975 59.694036 
L 62.802534 58.856201 
L 63.342633 58.351137 
L 64.23293 57.518955 
L 64.778291 57.009416 
L 65.664578 56.181709 
L 66.21395 55.668873 
L 67.09748 54.844462 
L 67.649608 54.329505 
L 68.531638 53.507216 
L 69.085266 52.991312 
L 69.967054 52.16997 
L 70.520925 51.654292 
L 71.403729 50.832724 
L 71.956583 50.318443 
L 72.841664 49.495477 
L 73.392241 48.983764 
L 74.280862 48.158231 
L 74.827899 47.650253 
L 75.721324 46.820985 
L 76.263558 46.317909 
L 77.163052 45.483739 
L 77.699216 44.98673 
L 78.606047 44.146492 
L 79.134874 43.656714 
L 80.050312 42.809246 
L 80.570533 42.327861 
L 81.495847 41.472 
" style="fill:none;stroke:#0028eb;stroke-width:1.5;"/>
   </g>
   <g id="LineCollection_23">
    <path clip-path="url(#pb1911c573e)" d="M 343.296 291.084538 
L 342.812686 291.537045 
L 341.860342 292.428303 
L 341.383581 292.874291 
L 340.424683 293.770913 
L 339.953253 294.211538 
L 338.989025 295.112369 
L 338.521698 295.548784 
L 337.553367 296.452674 
L 337.088916 296.88603 
L 336.117709 297.791828 
L 335.654906 298.223276 
L 334.68205 299.129833 
L 334.219665 299.560523 
L 333.246392 300.46669 
L 332.783192 300.897769 
L 331.810734 301.802402 
L 331.345485 302.235015 
L 330.375075 303.136969 
L 329.906544 303.572261 
L 328.939417 304.470393 
L 328.466366 304.909508 
L 327.503759 305.802675 
L 327.024949 306.246754 
L 326.068101 307.133817 
L 325.582292 307.584 
" style="fill:none;stroke:#001ef0;stroke-width:1.5;"/>
    <path clip-path="url(#pb1911c573e)" d="M 57.6 57.971462 
L 58.083314 57.518955 
L 59.035658 56.627697 
L 59.512419 56.181709 
L 60.471317 55.285087 
L 60.942747 54.844462 
L 61.906975 53.943631 
L 62.374302 53.507216 
L 63.342633 52.603326 
L 63.807084 52.16997 
L 64.778291 51.264172 
L 65.241094 50.832724 
L 66.21395 49.926167 
L 66.676335 49.495477 
L 67.649608 48.58931 
L 68.112808 48.158231 
L 69.085266 47.253598 
L 69.550515 46.820985 
L 70.520925 45.919031 
L 70.989456 45.483739 
L 71.956583 44.585607 
L 72.429634 44.146492 
L 73.392241 43.253325 
L 73.871051 42.809246 
L 74.827899 41.922183 
L 75.313708 41.472 
" style="fill:none;stroke:#001ef0;stroke-width:1.5;"/>
   </g>
   <g id="LineCollection_24">
    <path clip-path="url(#pb1911c573e)" d="M 343.296 296.707974 
L 343.105482 296.88603 
L 341.860342 298.049232 
L 341.673959 298.223276 
L 340.424683 299.389362 
L 340.241235 299.560523 
L 338.989025 300.728366 
L 338.807308 300.897769 
L 337.553367 302.066245 
L 337.372176 302.235015 
L 336.117709 303.403 
L 335.935838 303.572261 
L 334.68205 304.738634 
L 334.498293 304.909508 
L 333.246392 306.073147 
L 333.059539 306.246754 
L 331.810734 307.406542 
L 331.619574 307.584 
" style="fill:none;stroke:#0014f5;stroke-width:1.5;"/>
    <path clip-path="url(#pb1911c573e)" d="M 57.6 52.348026 
L 57.790518 52.16997 
L 59.035658 51.006768 
L 59.222041 50.832724 
L 60.471317 49.666638 
L 60.654765 49.495477 
L 61.906975 48.327634 
L 62.088692 48.158231 
L 63.342633 46.989755 
L 63.523824 46.820985 
L 64.778291 45.653 
L 64.960162 45.483739 
L 66.21395 44.317366 
L 66.397707 44.146492 
L 67.649608 42.982853 
L 67.836461 42.809246 
L 69.085266 41.649458 
L 69.276426 41.472 
" style="fill:none;stroke:#0014f5;stroke-width:1.5;"/>
   </g>
   <g id="LineCollection_25">
    <path clip-path="url(#pb1911c573e)" d="M 343.296 302.205149 
L 343.263988 302.235015 
L 341.860342 303.544058 
L 341.830088 303.572261 
L 340.424683 304.881866 
L 340.395008 304.909508 
L 338.989025 306.218574 
L 338.958746 306.246754 
L 337.553367 307.554183 
L 337.521302 307.584 
" style="fill:none;stroke:#000afa;stroke-width:1.5;"/>
    <path clip-path="url(#pb1911c573e)" d="M 57.6 46.850851 
L 57.632012 46.820985 
L 59.035658 45.511942 
L 59.065912 45.483739 
L 60.471317 44.174134 
L 60.500992 44.146492 
L 61.906975 42.837426 
L 61.937254 42.809246 
L 63.342633 41.501817 
L 63.374698 41.472 
" style="fill:none;stroke:#000afa;stroke-width:1.5;"/>
   </g>
   <g id="LineCollection_26"/>
   <g id="patch_3">
    <path d="M 57.6 307.584 
L 57.6 41.472 
" style="fill:none;stroke:#000000;stroke-linecap:square;stroke-linejoin:miter;stroke-width:0.8;"/>
   </g>
   <g id="patch_4">
    <path d="M 343.296 307.584 
L 343.296 41.472 
" style="fill:none;stroke:#000000;stroke-linecap:square;stroke-linejoin:miter;stroke-width:0.8;"/>
   </g>
   <g id="patch_5">
    <path d="M 57.6 307.584 
L 343.296 307.584 
" style="fill:none;stroke:#000000;stroke-linecap:square;stroke-linejoin:miter;stroke-width:0.8;"/>
   </g>
   <g id="patch_6">
    <path d="M 57.6 41.472 
L 343.296 41.472 
" style="fill:none;stroke:#000000;stroke-linecap:square;stroke-linejoin:miter;stroke-width:0.8;"/>
   </g>
  </g>
  <g id="axes_2">
   <g id="patch_7">
    <path clip-path="url(#p27a3253933)" d="M 361.152 307.584 
L 361.152 296.93952 
L 361.152 52.11648 
L 361.152 41.472 
L 374.4576 41.472 
L 374.4576 52.11648 
L 374.4576 296.93952 
L 374.4576 307.584 
z
" style="fill:#ffffff;stroke:#ffffff;stroke-linejoin:miter;stroke-width:0.01;"/>
   </g>
   <g id="matplotlib.axis_3"/>
   <g id="matplotlib.axis_4">
    <g id="ytick_10">
     <g id="line2d_19">
      <defs>
       <path d="M 0 0 
L 3.5 0 
" id="me2d306ffb4" style="stroke:#000000;stroke-width:0.8;"/>
      </defs>
      <g>
       <use style="stroke:#000000;stroke-width:0.8;" x="374.4576" xlink:href="#me2d306ffb4" y="307.584"/>
      </g>
     </g>
     <g id="text_19">
      <!-- 0 -->
      <g transform="translate(381.4576 311.383219)scale(0.1 -0.1)">
       <use xlink:href="#DejaVuSans-48"/>
      </g>
     </g>
    </g>
    <g id="ytick_11">
     <g id="line2d_20">
      <g>
       <use style="stroke:#000000;stroke-width:0.8;" x="374.4576" xlink:href="#me2d306ffb4" y="275.65056"/>
      </g>
     </g>
     <g id="text_20">
      <!-- 12 -->
      <g transform="translate(381.4576 279.449779)scale(0.1 -0.1)">
       <use xlink:href="#DejaVuSans-49"/>
       <use x="63.623047" xlink:href="#DejaVuSans-50"/>
      </g>
     </g>
    </g>
    <g id="ytick_12">
     <g id="line2d_21">
      <g>
       <use style="stroke:#000000;stroke-width:0.8;" x="374.4576" xlink:href="#me2d306ffb4" y="243.71712"/>
      </g>
     </g>
     <g id="text_21">
      <!-- 24 -->
      <defs>
       <path d="M 37.796875 64.3125 
L 12.890625 25.390625 
L 37.796875 25.390625 
z
M 35.203125 72.90625 
L 47.609375 72.90625 
L 47.609375 25.390625 
L 58.015625 25.390625 
L 58.015625 17.1875 
L 47.609375 17.1875 
L 47.609375 0 
L 37.796875 0 
L 37.796875 17.1875 
L 4.890625 17.1875 
L 4.890625 26.703125 
z
" id="DejaVuSans-52"/>
      </defs>
      <g transform="translate(381.4576 247.516339)scale(0.1 -0.1)">
       <use xlink:href="#DejaVuSans-50"/>
       <use x="63.623047" xlink:href="#DejaVuSans-52"/>
      </g>
     </g>
    </g>
    <g id="ytick_13">
     <g id="line2d_22">
      <g>
       <use style="stroke:#000000;stroke-width:0.8;" x="374.4576" xlink:href="#me2d306ffb4" y="211.78368"/>
      </g>
     </g>
     <g id="text_22">
      <!-- 36 -->
      <defs>
       <path d="M 40.578125 39.3125 
Q 47.65625 37.796875 51.625 33 
Q 55.609375 28.21875 55.609375 21.1875 
Q 55.609375 10.40625 48.1875 4.484375 
Q 40.765625 -1.421875 27.09375 -1.421875 
Q 22.515625 -1.421875 17.65625 -0.515625 
Q 12.796875 0.390625 7.625 2.203125 
L 7.625 11.71875 
Q 11.71875 9.328125 16.59375 8.109375 
Q 21.484375 6.890625 26.8125 6.890625 
Q 36.078125 6.890625 40.9375 10.546875 
Q 45.796875 14.203125 45.796875 21.1875 
Q 45.796875 27.640625 41.28125 31.265625 
Q 36.765625 34.90625 28.71875 34.90625 
L 20.21875 34.90625 
L 20.21875 43.015625 
L 29.109375 43.015625 
Q 36.375 43.015625 40.234375 45.921875 
Q 44.09375 48.828125 44.09375 54.296875 
Q 44.09375 59.90625 40.109375 62.90625 
Q 36.140625 65.921875 28.71875 65.921875 
Q 24.65625 65.921875 20.015625 65.03125 
Q 15.375 64.15625 9.8125 62.3125 
L 9.8125 71.09375 
Q 15.4375 72.65625 20.34375 73.4375 
Q 25.25 74.21875 29.59375 74.21875 
Q 40.828125 74.21875 47.359375 69.109375 
Q 53.90625 64.015625 53.90625 55.328125 
Q 53.90625 49.265625 50.4375 45.09375 
Q 46.96875 40.921875 40.578125 39.3125 
z
" id="DejaVuSans-51"/>
       <path d="M 33.015625 40.375 
Q 26.375 40.375 22.484375 35.828125 
Q 18.609375 31.296875 18.609375 23.390625 
Q 18.609375 15.53125 22.484375 10.953125 
Q 26.375 6.390625 33.015625 6.390625 
Q 39.65625 6.390625 43.53125 10.953125 
Q 47.40625 15.53125 47.40625 23.390625 
Q 47.40625 31.296875 43.53125 35.828125 
Q 39.65625 40.375 33.015625 40.375 
z
M 52.59375 71.296875 
L 52.59375 62.3125 
Q 48.875 64.0625 45.09375 64.984375 
Q 41.3125 65.921875 37.59375 65.921875 
Q 27.828125 65.921875 22.671875 59.328125 
Q 17.53125 52.734375 16.796875 39.40625 
Q 19.671875 43.65625 24.015625 45.921875 
Q 28.375 48.1875 33.59375 48.1875 
Q 44.578125 48.1875 50.953125 41.515625 
Q 57.328125 34.859375 57.328125 23.390625 
Q 57.328125 12.15625 50.6875 5.359375 
Q 44.046875 -1.421875 33.015625 -1.421875 
Q 20.359375 -1.421875 13.671875 8.265625 
Q 6.984375 17.96875 6.984375 36.375 
Q 6.984375 53.65625 15.1875 63.9375 
Q 23.390625 74.21875 37.203125 74.21875 
Q 40.921875 74.21875 44.703125 73.484375 
Q 48.484375 72.75 52.59375 71.296875 
z
" id="DejaVuSans-54"/>
      </defs>
      <g transform="translate(381.4576 215.582899)scale(0.1 -0.1)">
       <use xlink:href="#DejaVuSans-51"/>
       <use x="63.623047" xlink:href="#DejaVuSans-54"/>
      </g>
     </g>
    </g>
    <g id="ytick_14">
     <g id="line2d_23">
      <g>
       <use style="stroke:#000000;stroke-width:0.8;" x="374.4576" xlink:href="#me2d306ffb4" y="179.85024"/>
      </g>
     </g>
     <g id="text_23">
      <!-- 48 -->
      <defs>
       <path d="M 31.78125 34.625 
Q 24.75 34.625 20.71875 30.859375 
Q 16.703125 27.09375 16.703125 20.515625 
Q 16.703125 13.921875 20.71875 10.15625 
Q 24.75 6.390625 31.78125 6.390625 
Q 38.8125 6.390625 42.859375 10.171875 
Q 46.921875 13.96875 46.921875 20.515625 
Q 46.921875 27.09375 42.890625 30.859375 
Q 38.875 34.625 31.78125 34.625 
z
M 21.921875 38.8125 
Q 15.578125 40.375 12.03125 44.71875 
Q 8.5 49.078125 8.5 55.328125 
Q 8.5 64.0625 14.71875 69.140625 
Q 20.953125 74.21875 31.78125 74.21875 
Q 42.671875 74.21875 48.875 69.140625 
Q 55.078125 64.0625 55.078125 55.328125 
Q 55.078125 49.078125 51.53125 44.71875 
Q 48 40.375 41.703125 38.8125 
Q 48.828125 37.15625 52.796875 32.3125 
Q 56.78125 27.484375 56.78125 20.515625 
Q 56.78125 9.90625 50.3125 4.234375 
Q 43.84375 -1.421875 31.78125 -1.421875 
Q 19.734375 -1.421875 13.25 4.234375 
Q 6.78125 9.90625 6.78125 20.515625 
Q 6.78125 27.484375 10.78125 32.3125 
Q 14.796875 37.15625 21.921875 38.8125 
z
M 18.3125 54.390625 
Q 18.3125 48.734375 21.84375 45.5625 
Q 25.390625 42.390625 31.78125 42.390625 
Q 38.140625 42.390625 41.71875 45.5625 
Q 45.3125 48.734375 45.3125 54.390625 
Q 45.3125 60.0625 41.71875 63.234375 
Q 38.140625 66.40625 31.78125 66.40625 
Q 25.390625 66.40625 21.84375 63.234375 
Q 18.3125 60.0625 18.3125 54.390625 
z
" id="DejaVuSans-56"/>
      </defs>
      <g transform="translate(381.4576 183.649459)scale(0.1 -0.1)">
       <use xlink:href="#DejaVuSans-52"/>
       <use x="63.623047" xlink:href="#DejaVuSans-56"/>
      </g>
     </g>
    </g>
    <g id="ytick_15">
     <g id="line2d_24">
      <g>
       <use style="stroke:#000000;stroke-width:0.8;" x="374.4576" xlink:href="#me2d306ffb4" y="147.9168"/>
      </g>
     </g>
     <g id="text_24">
      <!-- 60 -->
      <g transform="translate(381.4576 151.716019)scale(0.1 -0.1)">
       <use xlink:href="#DejaVuSans-54"/>
       <use x="63.623047" xlink:href="#DejaVuSans-48"/>
      </g>
     </g>
    </g>
    <g id="ytick_16">
     <g id="line2d_25">
      <g>
       <use style="stroke:#000000;stroke-width:0.8;" x="374.4576" xlink:href="#me2d306ffb4" y="115.98336"/>
      </g>
     </g>
     <g id="text_25">
      <!-- 72 -->
      <g transform="translate(381.4576 119.782579)scale(0.1 -0.1)">
       <use xlink:href="#DejaVuSans-55"/>
       <use x="63.623047" xlink:href="#DejaVuSans-50"/>
      </g>
     </g>
    </g>
    <g id="ytick_17">
     <g id="line2d_26">
      <g>
       <use style="stroke:#000000;stroke-width:0.8;" x="374.4576" xlink:href="#me2d306ffb4" y="84.04992"/>
      </g>
     </g>
     <g id="text_26">
      <!-- 84 -->
      <g transform="translate(381.4576 87.849139)scale(0.1 -0.1)">
       <use xlink:href="#DejaVuSans-56"/>
       <use x="63.623047" xlink:href="#DejaVuSans-52"/>
      </g>
     </g>
    </g>
    <g id="ytick_18">
     <g id="line2d_27">
      <g>
       <use style="stroke:#000000;stroke-width:0.8;" x="374.4576" xlink:href="#me2d306ffb4" y="52.11648"/>
      </g>
     </g>
     <g id="text_27">
      <!-- 96 -->
      <defs>
       <path d="M 10.984375 1.515625 
L 10.984375 10.5 
Q 14.703125 8.734375 18.5 7.8125 
Q 22.3125 6.890625 25.984375 6.890625 
Q 35.75 6.890625 40.890625 13.453125 
Q 46.046875 20.015625 46.78125 33.40625 
Q 43.953125 29.203125 39.59375 26.953125 
Q 35.25 24.703125 29.984375 24.703125 
Q 19.046875 24.703125 12.671875 31.3125 
Q 6.296875 37.9375 6.296875 49.421875 
Q 6.296875 60.640625 12.9375 67.421875 
Q 19.578125 74.21875 30.609375 74.21875 
Q 43.265625 74.21875 49.921875 64.515625 
Q 56.59375 54.828125 56.59375 36.375 
Q 56.59375 19.140625 48.40625 8.859375 
Q 40.234375 -1.421875 26.421875 -1.421875 
Q 22.703125 -1.421875 18.890625 -0.6875 
Q 15.09375 0.046875 10.984375 1.515625 
z
M 30.609375 32.421875 
Q 37.25 32.421875 41.125 36.953125 
Q 45.015625 41.5 45.015625 49.421875 
Q 45.015625 57.28125 41.125 61.84375 
Q 37.25 66.40625 30.609375 66.40625 
Q 23.96875 66.40625 20.09375 61.84375 
Q 16.21875 57.28125 16.21875 49.421875 
Q 16.21875 41.5 20.09375 36.953125 
Q 23.96875 32.421875 30.609375 32.421875 
z
" id="DejaVuSans-57"/>
      </defs>
      <g transform="translate(381.4576 55.915699)scale(0.1 -0.1)">
       <use xlink:href="#DejaVuSans-57"/>
       <use x="63.623047" xlink:href="#DejaVuSans-54"/>
      </g>
     </g>
    </g>
   </g>
   <g id="LineCollection_27">
    <path clip-path="url(#p27a3253933)" d="M 361.152 307.584 
L 374.4576 307.584 
" style="fill:none;stroke:#00ff80;stroke-width:1.5;"/>
    <path clip-path="url(#p27a3253933)" d="M 361.152 296.93952 
L 374.4576 296.93952 
" style="fill:none;stroke:#00f584;stroke-width:1.5;"/>
    <path clip-path="url(#p27a3253933)" d="M 361.152 286.29504 
L 374.4576 286.29504 
" style="fill:none;stroke:#00eb8a;stroke-width:1.5;"/>
    <path clip-path="url(#p27a3253933)" d="M 361.152 275.65056 
L 374.4576 275.65056 
" style="fill:none;stroke:#00e18e;stroke-width:1.5;"/>
    <path clip-path="url(#p27a3253933)" d="M 361.152 265.00608 
L 374.4576 265.00608 
" style="fill:none;stroke:#00d793;stroke-width:1.5;"/>
    <path clip-path="url(#p27a3253933)" d="M 361.152 254.3616 
L 374.4576 254.3616 
" style="fill:none;stroke:#00cc99;stroke-width:1.5;"/>
    <path clip-path="url(#p27a3253933)" d="M 361.152 243.71712 
L 374.4576 243.71712 
" style="fill:none;stroke:#00c29e;stroke-width:1.5;"/>
    <path clip-path="url(#p27a3253933)" d="M 361.152 233.07264 
L 374.4576 233.07264 
" style="fill:none;stroke:#00b8a3;stroke-width:1.5;"/>
    <path clip-path="url(#p27a3253933)" d="M 361.152 222.42816 
L 374.4576 222.42816 
" style="fill:none;stroke:#00aea8;stroke-width:1.5;"/>
    <path clip-path="url(#p27a3253933)" d="M 361.152 211.78368 
L 374.4576 211.78368 
" style="fill:none;stroke:#00a3ae;stroke-width:1.5;"/>
    <path clip-path="url(#p27a3253933)" d="M 361.152 201.1392 
L 374.4576 201.1392 
" style="fill:none;stroke:#0099b2;stroke-width:1.5;"/>
    <path clip-path="url(#p27a3253933)" d="M 361.152 190.49472 
L 374.4576 190.49472 
" style="fill:none;stroke:#008fb8;stroke-width:1.5;"/>
    <path clip-path="url(#p27a3253933)" d="M 361.152 179.85024 
L 374.4576 179.85024 
" style="fill:none;stroke:#0085bc;stroke-width:1.5;"/>
    <path clip-path="url(#p27a3253933)" d="M 361.152 169.20576 
L 374.4576 169.20576 
" style="fill:none;stroke:#007ac2;stroke-width:1.5;"/>
    <path clip-path="url(#p27a3253933)" d="M 361.152 158.56128 
L 374.4576 158.56128 
" style="fill:none;stroke:#0070c7;stroke-width:1.5;"/>
    <path clip-path="url(#p27a3253933)" d="M 361.152 147.9168 
L 374.4576 147.9168 
" style="fill:none;stroke:#0066cc;stroke-width:1.5;"/>
    <path clip-path="url(#p27a3253933)" d="M 361.152 137.27232 
L 374.4576 137.27232 
" style="fill:none;stroke:#005cd1;stroke-width:1.5;"/>
    <path clip-path="url(#p27a3253933)" d="M 361.152 126.62784 
L 374.4576 126.62784 
" style="fill:none;stroke:#0051d6;stroke-width:1.5;"/>
    <path clip-path="url(#p27a3253933)" d="M 361.152 115.98336 
L 374.4576 115.98336 
" style="fill:none;stroke:#0047dc;stroke-width:1.5;"/>
    <path clip-path="url(#p27a3253933)" d="M 361.152 105.33888 
L 374.4576 105.33888 
" style="fill:none;stroke:#003de0;stroke-width:1.5;"/>
    <path clip-path="url(#p27a3253933)" d="M 361.152 94.6944 
L 374.4576 94.6944 
" style="fill:none;stroke:#0033e6;stroke-width:1.5;"/>
    <path clip-path="url(#p27a3253933)" d="M 361.152 84.04992 
L 374.4576 84.04992 
" style="fill:none;stroke:#0028eb;stroke-width:1.5;"/>
    <path clip-path="url(#p27a3253933)" d="M 361.152 73.40544 
L 374.4576 73.40544 
" style="fill:none;stroke:#001ef0;stroke-width:1.5;"/>
    <path clip-path="url(#p27a3253933)" d="M 361.152 62.76096 
L 374.4576 62.76096 
" style="fill:none;stroke:#0014f5;stroke-width:1.5;"/>
    <path clip-path="url(#p27a3253933)" d="M 361.152 52.11648 
L 374.4576 52.11648 
" style="fill:none;stroke:#000afa;stroke-width:1.5;"/>
    <path clip-path="url(#p27a3253933)" d="M 361.152 41.472 
L 374.4576 41.472 
" style="fill:none;stroke:#0000ff;stroke-width:1.5;"/>
   </g>
   <g id="patch_8">
    <path d="M 361.152 307.584 
L 361.152 296.93952 
L 361.152 52.11648 
L 361.152 41.472 
L 374.4576 41.472 
L 374.4576 52.11648 
L 374.4576 296.93952 
L 374.4576 307.584 
z
" style="fill:none;stroke:#000000;stroke-linejoin:miter;stroke-width:0.8;"/>
   </g>
  </g>
 </g>
 <defs>
  <clipPath id="pb1911c573e">
   <rect height="266.112" width="285.696" x="57.6" y="41.472"/>
  </clipPath>
  <clipPath id="p27a3253933">
   <rect height="266.112" width="13.3056" x="361.152" y="41.472"/>
  </clipPath>
 </defs>
</svg>
