<?xml version="1.0" encoding="utf-8" standalone="no"?>
<!DOCTYPE svg PUBLIC "-//W3C//DTD SVG 1.1//EN"
  "http://www.w3.org/Graphics/SVG/1.1/DTD/svg11.dtd">
<!-- Created with matplotlib (https://matplotlib.org/) -->
<svg height="345.6pt" version="1.1" viewBox="0 0 460.8 345.6" width="460.8pt" xmlns="http://www.w3.org/2000/svg" xmlns:xlink="http://www.w3.org/1999/xlink">
 <defs>
  <style type="text/css">
*{stroke-linecap:butt;stroke-linejoin:round;}
  </style>
 </defs>
 <g id="figure_1">
  <g id="patch_1">
   <path d="M 0 345.6 
L 460.8 345.6 
L 460.8 0 
L 0 0 
z
" style="fill:#ffffff;"/>
  </g>
  <g id="axes_1">
   <g id="patch_2">
    <path d="M 57.6 307.584 
L 343.296 307.584 
L 343.296 41.472 
L 57.6 41.472 
z
" style="fill:#ffffff;"/>
   </g>
   <g id="matplotlib.axis_1">
    <g id="xtick_1">
     <g id="line2d_1">
      <defs>
       <path d="M 0 0 
L 0 3.5 
" id="md832f33e37" style="stroke:#000000;stroke-width:0.8;"/>
      </defs>
      <g>
       <use style="stroke:#000000;stroke-width:0.8;" x="57.6" xlink:href="#md832f33e37" y="307.584"/>
      </g>
     </g>
     <g id="text_1">
      <!-- −2 -->
      <defs>
       <path d="M 10.59375 35.5 
L 73.1875 35.5 
L 73.1875 27.203125 
L 10.59375 27.203125 
z
" id="DejaVuSans-8722"/>
       <path d="M 19.1875 8.296875 
L 53.609375 8.296875 
L 53.609375 0 
L 7.328125 0 
L 7.328125 8.296875 
Q 12.9375 14.109375 22.625 23.890625 
Q 32.328125 33.6875 34.8125 36.53125 
Q 39.546875 41.84375 41.421875 45.53125 
Q 43.3125 49.21875 43.3125 52.78125 
Q 43.3125 58.59375 39.234375 62.25 
Q 35.15625 65.921875 28.609375 65.921875 
Q 23.96875 65.921875 18.8125 64.3125 
Q 13.671875 62.703125 7.8125 59.421875 
L 7.8125 69.390625 
Q 13.765625 71.78125 18.9375 73 
Q 24.125 74.21875 28.421875 74.21875 
Q 39.75 74.21875 46.484375 68.546875 
Q 53.21875 62.890625 53.21875 53.421875 
Q 53.21875 48.921875 51.53125 44.890625 
Q 49.859375 40.875 45.40625 35.40625 
Q 44.1875 33.984375 37.640625 27.21875 
Q 31.109375 20.453125 19.1875 8.296875 
z
" id="DejaVuSans-50"/>
      </defs>
      <g transform="translate(50.228906 322.182437)scale(0.1 -0.1)">
       <use xlink:href="#DejaVuSans-8722"/>
       <use x="83.789062" xlink:href="#DejaVuSans-50"/>
      </g>
     </g>
    </g>
    <g id="xtick_2">
     <g id="line2d_2">
      <g>
       <use style="stroke:#000000;stroke-width:0.8;" x="105.216" xlink:href="#md832f33e37" y="307.584"/>
      </g>
     </g>
     <g id="text_2">
      <!-- −1 -->
      <defs>
       <path d="M 12.40625 8.296875 
L 28.515625 8.296875 
L 28.515625 63.921875 
L 10.984375 60.40625 
L 10.984375 69.390625 
L 28.421875 72.90625 
L 38.28125 72.90625 
L 38.28125 8.296875 
L 54.390625 8.296875 
L 54.390625 0 
L 12.40625 0 
z
" id="DejaVuSans-49"/>
      </defs>
      <g transform="translate(97.844906 322.182437)scale(0.1 -0.1)">
       <use xlink:href="#DejaVuSans-8722"/>
       <use x="83.789062" xlink:href="#DejaVuSans-49"/>
      </g>
     </g>
    </g>
    <g id="xtick_3">
     <g id="line2d_3">
      <g>
       <use style="stroke:#000000;stroke-width:0.8;" x="152.832" xlink:href="#md832f33e37" y="307.584"/>
      </g>
     </g>
     <g id="text_3">
      <!-- 0 -->
      <defs>
       <path d="M 31.78125 66.40625 
Q 24.171875 66.40625 20.328125 58.90625 
Q 16.5 51.421875 16.5 36.375 
Q 16.5 21.390625 20.328125 13.890625 
Q 24.171875 6.390625 31.78125 6.390625 
Q 39.453125 6.390625 43.28125 13.890625 
Q 47.125 21.390625 47.125 36.375 
Q 47.125 51.421875 43.28125 58.90625 
Q 39.453125 66.40625 31.78125 66.40625 
z
M 31.78125 74.21875 
Q 44.046875 74.21875 50.515625 64.515625 
Q 56.984375 54.828125 56.984375 36.375 
Q 56.984375 17.96875 50.515625 8.265625 
Q 44.046875 -1.421875 31.78125 -1.421875 
Q 19.53125 -1.421875 13.0625 8.265625 
Q 6.59375 17.96875 6.59375 36.375 
Q 6.59375 54.828125 13.0625 64.515625 
Q 19.53125 74.21875 31.78125 74.21875 
z
" id="DejaVuSans-48"/>
      </defs>
      <g transform="translate(149.65075 322.182437)scale(0.1 -0.1)">
       <use xlink:href="#DejaVuSans-48"/>
      </g>
     </g>
    </g>
    <g id="xtick_4">
     <g id="line2d_4">
      <g>
       <use style="stroke:#000000;stroke-width:0.8;" x="200.448" xlink:href="#md832f33e37" y="307.584"/>
      </g>
     </g>
     <g id="text_4">
      <!-- 1 -->
      <g transform="translate(197.26675 322.182437)scale(0.1 -0.1)">
       <use xlink:href="#DejaVuSans-49"/>
      </g>
     </g>
    </g>
    <g id="xtick_5">
     <g id="line2d_5">
      <g>
       <use style="stroke:#000000;stroke-width:0.8;" x="248.064" xlink:href="#md832f33e37" y="307.584"/>
      </g>
     </g>
     <g id="text_5">
      <!-- 2 -->
      <g transform="translate(244.88275 322.182437)scale(0.1 -0.1)">
       <use xlink:href="#DejaVuSans-50"/>
      </g>
     </g>
    </g>
    <g id="xtick_6">
     <g id="line2d_6">
      <g>
       <use style="stroke:#000000;stroke-width:0.8;" x="295.68" xlink:href="#md832f33e37" y="307.584"/>
      </g>
     </g>
     <g id="text_6">
      <!-- 3 -->
      <defs>
       <path d="M 40.578125 39.3125 
Q 47.65625 37.796875 51.625 33 
Q 55.609375 28.21875 55.609375 21.1875 
Q 55.609375 10.40625 48.1875 4.484375 
Q 40.765625 -1.421875 27.09375 -1.421875 
Q 22.515625 -1.421875 17.65625 -0.515625 
Q 12.796875 0.390625 7.625 2.203125 
L 7.625 11.71875 
Q 11.71875 9.328125 16.59375 8.109375 
Q 21.484375 6.890625 26.8125 6.890625 
Q 36.078125 6.890625 40.9375 10.546875 
Q 45.796875 14.203125 45.796875 21.1875 
Q 45.796875 27.640625 41.28125 31.265625 
Q 36.765625 34.90625 28.71875 34.90625 
L 20.21875 34.90625 
L 20.21875 43.015625 
L 29.109375 43.015625 
Q 36.375 43.015625 40.234375 45.921875 
Q 44.09375 48.828125 44.09375 54.296875 
Q 44.09375 59.90625 40.109375 62.90625 
Q 36.140625 65.921875 28.71875 65.921875 
Q 24.65625 65.921875 20.015625 65.03125 
Q 15.375 64.15625 9.8125 62.3125 
L 9.8125 71.09375 
Q 15.4375 72.65625 20.34375 73.4375 
Q 25.25 74.21875 29.59375 74.21875 
Q 40.828125 74.21875 47.359375 69.109375 
Q 53.90625 64.015625 53.90625 55.328125 
Q 53.90625 49.265625 50.4375 45.09375 
Q 46.96875 40.921875 40.578125 39.3125 
z
" id="DejaVuSans-51"/>
      </defs>
      <g transform="translate(292.49875 322.182437)scale(0.1 -0.1)">
       <use xlink:href="#DejaVuSans-51"/>
      </g>
     </g>
    </g>
    <g id="xtick_7">
     <g id="line2d_7">
      <g>
       <use style="stroke:#000000;stroke-width:0.8;" x="343.296" xlink:href="#md832f33e37" y="307.584"/>
      </g>
     </g>
     <g id="text_7">
      <!-- 4 -->
      <defs>
       <path d="M 37.796875 64.3125 
L 12.890625 25.390625 
L 37.796875 25.390625 
z
M 35.203125 72.90625 
L 47.609375 72.90625 
L 47.609375 25.390625 
L 58.015625 25.390625 
L 58.015625 17.1875 
L 47.609375 17.1875 
L 47.609375 0 
L 37.796875 0 
L 37.796875 17.1875 
L 4.890625 17.1875 
L 4.890625 26.703125 
z
" id="DejaVuSans-52"/>
      </defs>
      <g transform="translate(340.11475 322.182437)scale(0.1 -0.1)">
       <use xlink:href="#DejaVuSans-52"/>
      </g>
     </g>
    </g>
   </g>
   <g id="matplotlib.axis_2">
    <g id="ytick_1">
     <g id="line2d_8">
      <defs>
       <path d="M 0 0 
L -3.5 0 
" id="me2c0219f3d" style="stroke:#000000;stroke-width:0.8;"/>
      </defs>
      <g>
       <use style="stroke:#000000;stroke-width:0.8;" x="57.6" xlink:href="#me2c0219f3d" y="307.584"/>
      </g>
     </g>
     <g id="text_8">
      <!-- −3 -->
      <g transform="translate(35.857813 311.383219)scale(0.1 -0.1)">
       <use xlink:href="#DejaVuSans-8722"/>
       <use x="83.789062" xlink:href="#DejaVuSans-51"/>
      </g>
     </g>
    </g>
    <g id="ytick_2">
     <g id="line2d_9">
      <g>
       <use style="stroke:#000000;stroke-width:0.8;" x="57.6" xlink:href="#me2c0219f3d" y="263.232"/>
      </g>
     </g>
     <g id="text_9">
      <!-- −2 -->
      <g transform="translate(35.857813 267.031219)scale(0.1 -0.1)">
       <use xlink:href="#DejaVuSans-8722"/>
       <use x="83.789062" xlink:href="#DejaVuSans-50"/>
      </g>
     </g>
    </g>
    <g id="ytick_3">
     <g id="line2d_10">
      <g>
       <use style="stroke:#000000;stroke-width:0.8;" x="57.6" xlink:href="#me2c0219f3d" y="218.88"/>
      </g>
     </g>
     <g id="text_10">
      <!-- −1 -->
      <g transform="translate(35.857813 222.679219)scale(0.1 -0.1)">
       <use xlink:href="#DejaVuSans-8722"/>
       <use x="83.789062" xlink:href="#DejaVuSans-49"/>
      </g>
     </g>
    </g>
    <g id="ytick_4">
     <g id="line2d_11">
      <g>
       <use style="stroke:#000000;stroke-width:0.8;" x="57.6" xlink:href="#me2c0219f3d" y="174.528"/>
      </g>
     </g>
     <g id="text_11">
      <!-- 0 -->
      <g transform="translate(44.2375 178.327219)scale(0.1 -0.1)">
       <use xlink:href="#DejaVuSans-48"/>
      </g>
     </g>
    </g>
    <g id="ytick_5">
     <g id="line2d_12">
      <g>
       <use style="stroke:#000000;stroke-width:0.8;" x="57.6" xlink:href="#me2c0219f3d" y="130.176"/>
      </g>
     </g>
     <g id="text_12">
      <!-- 1 -->
      <g transform="translate(44.2375 133.975219)scale(0.1 -0.1)">
       <use xlink:href="#DejaVuSans-49"/>
      </g>
     </g>
    </g>
    <g id="ytick_6">
     <g id="line2d_13">
      <g>
       <use style="stroke:#000000;stroke-width:0.8;" x="57.6" xlink:href="#me2c0219f3d" y="85.824"/>
      </g>
     </g>
     <g id="text_13">
      <!-- 2 -->
      <g transform="translate(44.2375 89.623219)scale(0.1 -0.1)">
       <use xlink:href="#DejaVuSans-50"/>
      </g>
     </g>
    </g>
    <g id="ytick_7">
     <g id="line2d_14">
      <g>
       <use style="stroke:#000000;stroke-width:0.8;" x="57.6" xlink:href="#me2c0219f3d" y="41.472"/>
      </g>
     </g>
     <g id="text_14">
      <!-- 3 -->
      <g transform="translate(44.2375 45.271219)scale(0.1 -0.1)">
       <use xlink:href="#DejaVuSans-51"/>
      </g>
     </g>
    </g>
   </g>
   <g id="LineCollection_1"/>
   <g id="LineCollection_2">
    <path clip-path="url(#p48c5f90550)" d="M 57.6 305.340138 
L 58.738704 306.246754 
L 59.035658 306.523353 
L 60.008995 307.584 
" style="fill:none;stroke:#00f684;stroke-width:1.5;"/>
    <path clip-path="url(#p48c5f90550)" d="M 102.105407 271.573561 
L 100.669749 271.006691 
L 99.188835 270.141106 
L 97.762613 268.803859 
L 96.869146 267.466613 
L 96.260557 266.129367 
L 95.879393 264.792121 
L 95.645261 263.454874 
L 95.512262 260.780382 
L 95.712645 258.105889 
L 96.161049 255.431397 
L 96.828128 252.756905 
L 97.798432 249.742347 
L 99.277584 246.070673 
L 101.290377 242.058935 
L 102.865745 239.384442 
L 104.976724 236.261725 
L 106.685586 234.035457 
L 109.283698 231.072908 
L 112.155015 228.279613 
L 115.026332 225.898624 
L 117.897648 223.892798 
L 120.768965 222.199267 
L 123.640281 220.807284 
L 126.511598 219.702835 
L 129.382915 218.870366 
L 132.254231 218.312397 
L 135.125548 218.038633 
L 137.996864 218.084904 
L 140.868181 218.494236 
L 143.75516 219.325749 
L 145.175156 219.952908 
L 146.610814 220.735213 
L 148.351988 222.000241 
L 149.750564 223.337487 
L 150.917789 224.786281 
L 151.680134 226.01198 
L 152.360167 227.349226 
L 152.863034 228.686472 
L 153.517864 231.360965 
L 153.756074 234.035457 
L 153.62872 236.70995 
L 153.177837 239.384442 
L 152.353447 242.299273 
L 151.389966 244.733427 
L 150.049015 247.40792 
L 148.400804 250.082412 
L 146.421212 252.756905 
L 144.069258 255.431397 
L 142.303839 257.18597 
L 139.432523 259.695995 
L 136.194844 262.117628 
L 133.689889 263.757326 
L 130.818573 265.421148 
L 127.947256 266.888528 
L 125.07594 268.175792 
L 122.204623 269.295729 
L 119.333307 270.25743 
L 115.026332 271.381877 
L 112.155015 271.900407 
L 109.283698 272.21013 
L 106.412382 272.254226 
L 103.541065 271.928598 
L 102.105407 271.573561 
L 102.105407 271.573561 
" style="fill:none;stroke:#00f684;stroke-width:1.5;"/>
   </g>
   <g id="LineCollection_3">
    <path clip-path="url(#p48c5f90550)" d="M 57.6 257.636487 
L 60.543574 254.094151 
L 64.778291 248.591579 
L 70.520925 240.655747 
L 77.699216 230.801341 
L 82.006191 225.287249 
L 85.913457 220.662995 
L 89.608088 216.651256 
L 93.67249 212.639518 
L 97.798432 208.985017 
L 101.611398 205.953286 
L 105.349657 203.278794 
L 109.541163 200.604302 
L 113.590673 198.322077 
L 117.897648 196.191267 
L 122.204623 194.345193 
L 126.511598 192.763947 
L 130.818573 191.437907 
L 135.125548 190.358441 
L 139.432523 189.519002 
L 143.739497 188.924619 
L 148.407205 188.569085 
L 152.353447 188.518445 
L 155.224764 188.643733 
L 158.09608 188.92139 
L 160.967397 189.366819 
L 163.838714 190.00382 
L 166.71003 190.878398 
L 169.581347 192.036133 
L 171.017005 192.741676 
L 173.888322 194.490504 
L 175.32398 195.566935 
L 176.759638 196.820022 
L 178.195296 198.297139 
L 180.019852 200.604302 
L 181.651389 203.278794 
L 182.894326 205.953286 
L 183.93793 208.992017 
L 184.517147 211.302271 
L 184.995357 213.976764 
L 185.293447 216.651256 
L 185.427955 219.325749 
L 185.359205 223.337487 
L 184.99189 227.349226 
L 184.353764 231.360965 
L 183.452548 235.372704 
L 182.293641 239.384442 
L 180.870014 243.396181 
L 179.172399 247.40792 
L 177.190467 251.419658 
L 174.902844 255.431397 
L 172.287317 259.443136 
L 169.309352 263.454874 
L 166.71003 266.589512 
L 163.455185 270.141106 
L 160.771316 272.815598 
L 156.660422 276.551364 
L 153.103707 279.501829 
L 149.482131 282.297861 
L 144.030698 286.18806 
L 139.432523 289.255328 
L 131.604388 294.211538 
L 118.878672 302.235015 
L 113.590673 305.852747 
L 111.223304 307.584 
L 111.223304 307.584 
" style="fill:none;stroke:#00ed88;stroke-width:1.5;"/>
   </g>
   <g id="LineCollection_4">
    <path clip-path="url(#p48c5f90550)" d="M 57.6 230.648648 
L 67.934879 217.988503 
L 72.586152 212.639518 
L 76.286669 208.627779 
L 80.570533 204.296371 
L 84.877508 200.278988 
L 89.185036 196.592563 
L 93.491457 193.231264 
L 98.17431 189.906332 
L 102.317952 187.231839 
L 106.875317 184.557347 
L 111.929047 181.882854 
L 116.46199 179.723607 
L 120.768965 177.85604 
L 126.511598 175.629551 
L 132.254231 173.66392 
L 137.996864 171.937787 
L 143.739497 170.425081 
L 149.482131 169.109875 
L 155.224764 167.979941 
L 162.403055 166.8192 
L 168.145688 166.095362 
L 173.888322 165.56974 
L 179.630955 165.276883 
L 183.93793 165.247281 
L 188.244905 165.434126 
L 191.967869 165.835899 
L 193.987538 166.179104 
L 196.858854 166.876976 
L 198.294513 167.345473 
L 200.946584 168.510392 
L 202.601487 169.51161 
L 204.037146 170.630486 
L 205.472804 172.085232 
L 205.833561 172.522131 
L 206.908462 174.063593 
L 208.159112 176.533869 
L 208.662087 177.871116 
L 209.411317 180.545608 
L 209.906382 183.220101 
L 210.21112 185.894593 
L 210.411716 189.906332 
L 210.379935 193.91807 
L 210.065526 199.267055 
L 209.501222 204.61604 
L 208.724115 209.965025 
L 207.750998 215.31401 
L 206.587183 220.662995 
L 205.226279 226.01198 
L 203.656222 231.360965 
L 201.860657 236.70995 
L 199.730171 242.276909 
L 197.498659 247.40792 
L 195.423196 251.687518 
L 192.673771 256.768643 
L 190.25743 260.780382 
L 187.606531 264.792121 
L 184.69588 268.803859 
L 181.501478 272.815598 
L 177.998433 276.827337 
L 173.888322 281.109436 
L 169.581347 285.203233 
L 165.274372 288.978653 
L 160.490977 292.874291 
L 155.224764 296.899873 
L 147.834497 302.235015 
L 140.197261 307.584 
L 140.197261 307.584 
" style="fill:none;stroke:#00e38e;stroke-width:1.5;"/>
    <path clip-path="url(#p48c5f90550)" d="M 258.592161 125.934821 
L 257.156503 125.397888 
L 255.445263 124.381266 
L 254.066776 123.04402 
L 253.193748 121.706774 
L 252.6173 120.369528 
L 252.262639 119.032281 
L 252.062256 117.695035 
L 252.025338 115.020543 
L 252.363048 112.34605 
L 252.998357 109.671558 
L 253.911216 106.997065 
L 255.075432 104.322573 
L 256.493613 101.64808 
L 258.184435 98.973588 
L 260.18386 96.299095 
L 262.569705 93.624603 
L 264.334794 91.920587 
L 267.206111 89.550141 
L 270.077427 87.633448 
L 272.948744 86.087578 
L 275.82006 84.895858 
L 278.691377 84.038081 
L 281.562693 83.534394 
L 284.43401 83.39071 
L 285.869668 83.471502 
L 287.305327 83.664998 
L 289.657557 84.263879 
L 290.176643 84.444401 
L 292.50063 85.601126 
L 293.04796 85.959291 
L 294.483618 87.125481 
L 295.919276 88.785429 
L 296.462566 89.612864 
L 297.354935 91.433614 
L 297.659036 92.287357 
L 297.99789 93.624603 
L 298.205626 94.961849 
L 298.292363 96.299095 
L 298.138105 98.973588 
L 297.597351 101.64808 
L 296.676446 104.322573 
L 295.397025 106.997065 
L 293.737389 109.671558 
L 291.679641 112.34605 
L 290.176643 113.98708 
L 287.663868 116.357789 
L 285.869668 117.827372 
L 282.998352 119.853312 
L 279.883714 121.706774 
L 277.213794 123.04402 
L 273.941141 124.381266 
L 271.513085 125.180437 
L 268.641769 125.909945 
L 265.770452 126.366632 
L 262.899136 126.519329 
L 261.463477 126.451818 
L 260.027819 126.265171 
L 258.592161 125.934821 
L 258.592161 125.934821 
" style="fill:none;stroke:#00e38e;stroke-width:1.5;"/>
   </g>
   <g id="LineCollection_5">
    <path clip-path="url(#p48c5f90550)" d="M 57.6 211.19659 
L 63.487849 204.61604 
L 68.586379 199.267055 
L 73.392241 194.570696 
L 77.699216 190.660063 
L 82.006191 187.026561 
L 86.904677 183.220101 
L 90.620141 180.543472 
L 94.927116 177.659385 
L 99.23409 174.983965 
L 104.976724 171.710644 
L 110.719357 168.728372 
L 116.819914 165.835899 
L 123.640281 162.878857 
L 130.818573 160.018785 
L 139.432523 156.832048 
L 153.789106 151.812921 
L 165.274372 147.703671 
L 172.452663 144.89469 
L 178.195296 142.400454 
L 182.502271 140.320119 
L 187.245816 137.753729 
L 191.116221 135.38336 
L 193.987538 133.42867 
L 197.123863 131.067497 
L 200.309381 128.393005 
L 203.174232 125.718513 
L 205.781721 123.04402 
L 209.325675 119.032281 
L 212.651095 114.884644 
L 216.95807 109.071369 
L 231.314653 89.121892 
L 235.246001 84.263879 
L 238.777115 80.252141 
L 242.79992 76.093058 
L 246.970589 72.228663 
L 250.170557 69.554171 
L 254.285186 66.458875 
L 257.628617 64.205186 
L 261.463477 61.88758 
L 264.59291 60.193447 
L 268.641769 58.250395 
L 272.948744 56.465308 
L 277.255719 54.957371 
L 281.562693 53.717319 
L 285.869668 52.737192 
L 290.176643 52.011552 
L 294.483618 51.556656 
L 298.790593 51.381214 
L 303.097568 51.51641 
L 305.968884 51.799784 
L 308.840201 52.259304 
L 311.711518 52.930107 
L 314.582834 53.840237 
L 317.454151 55.050175 
L 320.325467 56.648823 
L 321.761126 57.628027 
L 323.301616 58.856201 
L 324.729308 60.193447 
L 326.068101 61.670534 
L 327.919059 64.205186 
L 329.411666 66.879678 
L 330.544434 69.554171 
L 331.383442 72.228663 
L 331.987418 74.903156 
L 332.382362 77.577648 
L 332.600369 80.252141 
L 332.657537 82.926633 
L 332.469183 86.938372 
L 331.98081 90.950111 
L 331.201768 94.961849 
L 330.14951 98.973588 
L 328.818199 102.985327 
L 327.199288 106.997065 
L 325.282831 111.008804 
L 323.054941 115.020543 
L 320.325467 119.26022 
L 317.454151 123.156185 
L 314.192404 127.055759 
L 311.711518 129.740098 
L 308.840201 132.58899 
L 304.588883 136.416482 
L 301.328402 139.090975 
L 297.354935 142.115346 
L 292.139406 145.777206 
L 287.305327 148.944622 
L 279.475577 153.800683 
L 267.206111 161.372645 
L 262.511777 164.498653 
L 258.592161 167.321405 
L 254.285186 170.747489 
L 251.413869 173.289548 
L 248.542553 176.09912 
L 245.671236 179.241797 
L 242.79992 182.786783 
L 240.556973 185.894593 
L 237.969694 189.906332 
L 235.621628 193.989901 
L 233.56446 197.929809 
L 231.020485 203.278794 
L 228.11053 209.965025 
L 223.765581 220.662995 
L 218.332415 234.035457 
L 214.824962 242.058935 
L 211.651873 248.745166 
L 208.894617 254.094151 
L 205.900472 259.443136 
L 202.601487 264.8329 
L 199.023355 270.141106 
L 195.423196 275.005408 
L 192.551879 278.586393 
L 189.469247 282.176322 
L 185.373588 286.590561 
L 181.066613 290.86916 
L 176.759638 294.842345 
L 172.452663 298.568897 
L 166.287725 303.572261 
L 161.080856 307.584 
L 161.080856 307.584 
" style="fill:none;stroke:#00da92;stroke-width:1.5;"/>
   </g>
   <g id="LineCollection_6">
    <path clip-path="url(#p48c5f90550)" d="M 57.6 195.782515 
L 62.058572 191.243578 
L 66.225439 187.231839 
L 70.658058 183.220101 
L 75.410755 179.208362 
L 80.570533 175.172531 
L 86.313166 171.050778 
L 92.216782 167.173146 
L 97.798432 163.801977 
L 103.724597 160.486915 
L 110.719357 156.8685 
L 117.897648 153.410307 
L 127.947256 148.859984 
L 150.917789 138.641356 
L 158.209145 135.079236 
L 163.838714 132.087097 
L 169.581347 128.731932 
L 174.247027 125.718513 
L 178.195296 122.923222 
L 182.502271 119.577422 
L 186.275731 116.357789 
L 189.680563 113.202881 
L 193.211703 109.671558 
L 196.939544 105.659819 
L 201.577918 100.310834 
L 207.051709 93.624603 
L 218.992435 78.914894 
L 223.65351 73.56591 
L 227.37902 69.554171 
L 231.366457 65.542432 
L 235.69286 61.530693 
L 240.448266 57.518955 
L 244.235578 54.600548 
L 248.542553 51.565351 
L 252.849528 48.804448 
L 257.156503 46.295594 
L 261.463477 44.015004 
L 266.822977 41.472 
L 266.822977 41.472 
" style="fill:none;stroke:#00d097;stroke-width:1.5;"/>
    <path clip-path="url(#p48c5f90550)" d="M 343.296 112.702921 
L 341.328101 116.357789 
L 338.962422 120.369528 
L 336.117709 124.722695 
L 333.246392 128.703943 
L 330.324338 132.404744 
L 326.849017 136.416482 
L 323.041472 140.428221 
L 318.873181 144.43996 
L 314.328216 148.451698 
L 309.413029 152.463437 
L 304.155708 156.475176 
L 296.71817 161.824161 
L 277.255719 175.598609 
L 271.513085 180.083004 
L 267.206111 183.736135 
L 262.899136 187.728783 
L 259.44256 191.243578 
L 255.720844 195.407644 
L 252.589749 199.267055 
L 249.614341 203.278794 
L 246.878738 207.290533 
L 243.529966 212.639518 
L 239.928603 218.918884 
L 236.14508 226.01198 
L 229.878995 238.359806 
L 223.836436 250.082412 
L 219.829387 257.366779 
L 216.23958 263.454874 
L 212.651095 269.107853 
L 209.194854 274.152844 
L 205.227155 279.501829 
L 201.165829 284.533255 
L 197.387151 288.862553 
L 193.632431 292.874291 
L 189.620532 296.88603 
L 185.34155 300.897769 
L 179.630955 305.904818 
L 177.6293 307.584 
L 177.6293 307.584 
" style="fill:none;stroke:#00d097;stroke-width:1.5;"/>
   </g>
   <g id="LineCollection_7">
    <path clip-path="url(#p48c5f90550)" d="M 57.6 182.85098 
L 62.980432 177.871116 
L 67.649608 173.83063 
L 73.392241 169.215 
L 77.90869 165.835899 
L 83.666447 161.824161 
L 89.896613 157.812422 
L 96.362774 153.951716 
L 103.541065 149.960692 
L 111.552764 145.777206 
L 122.293213 140.428221 
L 138.418867 132.404744 
L 145.974285 128.393005 
L 152.353447 124.750385 
L 157.297272 121.706774 
L 162.403055 118.307534 
L 166.947199 115.020543 
L 171.017005 111.837008 
L 175.32398 108.191754 
L 179.630955 104.244117 
L 183.93793 99.988182 
L 188.68013 94.961849 
L 194.601335 88.275618 
L 214.272727 65.542432 
L 219.391835 60.193447 
L 224.136362 55.584314 
L 228.443337 51.700689 
L 232.750312 48.096417 
L 237.895343 44.146492 
L 241.669738 41.472 
L 241.669738 41.472 
" style="fill:none;stroke:#00c79c;stroke-width:1.5;"/>
    <path clip-path="url(#p48c5f90550)" d="M 343.296 136.131945 
L 340.424683 139.647612 
L 337.407518 143.102714 
L 333.246392 147.512915 
L 328.939417 151.721439 
L 324.632442 155.634007 
L 320.325467 159.309245 
L 314.582834 163.921538 
L 307.404543 169.379634 
L 285.359586 185.894593 
L 280.127035 190.200741 
L 275.82006 193.994855 
L 271.513085 198.080771 
L 267.206111 202.528564 
L 264.143525 205.953286 
L 260.027819 210.945999 
L 256.722144 215.31401 
L 252.849528 220.860441 
L 249.508379 226.01198 
L 245.438704 232.698211 
L 239.928603 242.251317 
L 229.878995 259.759808 
L 225.143142 267.466613 
L 221.265045 273.374523 
L 217.918363 278.164583 
L 213.925237 283.513568 
L 209.616848 288.862553 
L 204.950251 294.211538 
L 201.165829 298.255227 
L 196.858854 302.572388 
L 191.512506 307.584 
L 191.512506 307.584 
" style="fill:none;stroke:#00c79c;stroke-width:1.5;"/>
   </g>
   <g id="LineCollection_8">
    <path clip-path="url(#p48c5f90550)" d="M 57.6 171.59282 
L 62.739317 167.173146 
L 67.717027 163.161407 
L 73.392241 158.894554 
L 79.134874 154.873729 
L 84.877508 151.113183 
L 92.055799 146.722333 
L 99.23409 142.597336 
L 108.099474 137.753729 
L 133.689889 123.992926 
L 140.868181 119.797802 
L 146.610814 116.202784 
L 152.353447 112.330504 
L 157.814232 108.334312 
L 162.403055 104.699689 
L 166.71003 101.03374 
L 171.017005 97.10629 
L 175.946966 92.287357 
L 181.068496 86.938372 
L 187.130514 80.252141 
L 206.173119 58.856201 
L 211.340038 53.507216 
L 215.522412 49.425859 
L 219.829387 45.468059 
L 224.485995 41.472 
L 224.485995 41.472 
" style="fill:none;stroke:#00bda0;stroke-width:1.5;"/>
    <path clip-path="url(#p48c5f90550)" d="M 343.296 152.137771 
L 338.989025 156.491583 
L 334.68205 160.555297 
L 328.939417 165.613359 
L 323.196784 170.357825 
L 315.315843 176.533869 
L 294.481444 192.580824 
L 288.06722 197.929809 
L 282.998352 202.467538 
L 278.691377 206.606338 
L 274.384402 211.063945 
L 270.575791 215.31401 
L 267.206111 219.346359 
L 262.899136 224.897594 
L 259.205962 230.023719 
L 255.580168 235.372704 
L 250.443736 243.396181 
L 242.79992 255.86394 
L 235.588828 267.466613 
L 230.299972 275.49009 
L 226.554372 280.839075 
L 222.583098 286.18806 
L 218.340874 291.537045 
L 213.785285 296.88603 
L 208.880959 302.235015 
L 204.037146 307.155018 
L 203.599188 307.584 
L 203.599188 307.584 
" style="fill:none;stroke:#00bda0;stroke-width:1.5;"/>
   </g>
   <g id="LineCollection_9">
    <path clip-path="url(#p48c5f90550)" d="M 343.296 165.110426 
L 338.080501 169.847638 
L 333.246392 174.00032 
L 326.068101 179.856041 
L 316.018492 187.718076 
L 304.533226 196.724726 
L 297.354935 202.648491 
L 291.612302 207.699947 
L 286.377617 212.639518 
L 282.406842 216.651256 
L 278.677338 220.662995 
L 274.044413 226.01198 
L 269.752097 231.360965 
L 265.741023 236.70995 
L 261.030401 243.396181 
L 255.68233 251.419658 
L 237.241222 279.501829 
L 232.429961 286.18806 
L 228.345324 291.537045 
L 224.003934 296.88603 
L 219.366347 302.235015 
L 214.400566 307.584 
L 214.400566 307.584 
" style="fill:none;stroke:#00b4a5;stroke-width:1.5;"/>
    <path clip-path="url(#p48c5f90550)" d="M 57.6 161.53186 
L 63.342633 156.906475 
L 69.255318 152.463437 
L 74.962036 148.451698 
L 82.006191 143.820218 
L 89.184482 139.391724 
L 97.798432 134.360656 
L 110.811499 127.055759 
L 123.640281 119.786254 
L 131.594868 115.020543 
L 137.996864 110.930669 
L 143.747871 106.997065 
L 149.482131 102.77287 
L 155.224764 98.187305 
L 159.531739 94.48872 
L 164.834827 89.612864 
L 169.581347 84.950431 
L 175.32398 78.968267 
L 181.495926 72.228663 
L 198.459766 53.507216 
L 204.037146 47.756184 
L 209.125837 42.809246 
L 210.558642 41.472 
L 210.558642 41.472 
" style="fill:none;stroke:#00b4a5;stroke-width:1.5;"/>
   </g>
   <g id="LineCollection_10">
    <path clip-path="url(#p48c5f90550)" d="M 343.296 176.360967 
L 337.553367 181.266142 
L 330.24037 187.231839 
L 305.239386 207.290533 
L 299.109174 212.639518 
L 294.483618 216.922208 
L 289.338738 222.000241 
L 285.528819 226.01198 
L 280.770885 231.360965 
L 276.338951 236.70995 
L 272.17978 242.058935 
L 267.206111 248.85213 
L 261.463477 257.128958 
L 242.554949 284.850814 
L 237.597021 291.537045 
L 232.750312 297.692246 
L 228.443337 302.839442 
L 224.239672 307.584 
L 224.239672 307.584 
" style="fill:none;stroke:#00aaaa;stroke-width:1.5;"/>
    <path clip-path="url(#p48c5f90550)" d="M 57.6 152.367209 
L 63.342633 147.968185 
L 69.085266 143.832193 
L 74.827899 139.925484 
L 82.371751 135.079236 
L 91.169444 129.730251 
L 104.976724 121.662503 
L 117.897648 114.033361 
L 125.07594 109.570296 
L 132.254231 104.829614 
L 137.996864 100.769681 
L 142.303839 97.535601 
L 148.046472 92.936186 
L 153.451222 88.275618 
L 158.09608 84.001211 
L 163.838714 78.379646 
L 169.767652 72.228663 
L 178.388483 62.86794 
L 190.666935 49.495477 
L 197.138619 42.809246 
L 198.480139 41.472 
L 198.480139 41.472 
" style="fill:none;stroke:#00aaaa;stroke-width:1.5;"/>
   </g>
   <g id="LineCollection_11">
    <path clip-path="url(#p48c5f90550)" d="M 343.296 186.482713 
L 335.893476 192.580824 
L 311.16823 212.639518 
L 305.062766 217.988503 
L 300.226251 222.468712 
L 295.25998 227.349226 
L 290.171673 232.698211 
L 285.422687 238.047196 
L 280.9722 243.396181 
L 276.770729 248.745166 
L 271.513085 255.814857 
L 265.15396 264.792121 
L 249.231345 287.525307 
L 244.235578 294.221495 
L 238.967049 300.897769 
L 234.18597 306.600231 
L 233.33089 307.584 
L 233.33089 307.584 
" style="fill:none;stroke:#00a1ae;stroke-width:1.5;"/>
    <path clip-path="url(#p48c5f90550)" d="M 57.6 143.899179 
L 64.155092 139.090975 
L 70.520925 134.695213 
L 78.123059 129.730251 
L 87.748824 123.756932 
L 117.897648 105.321608 
L 125.380808 100.310834 
L 131.008622 96.299095 
L 136.561206 92.089158 
L 142.303839 87.431791 
L 147.498289 82.926633 
L 152.353447 78.45465 
L 158.09608 72.848675 
L 163.896086 66.879678 
L 172.619608 57.518955 
L 185.373588 43.79963 
L 187.613503 41.472 
L 187.613503 41.472 
" style="fill:none;stroke:#00a1ae;stroke-width:1.5;"/>
   </g>
   <g id="LineCollection_12">
    <path clip-path="url(#p48c5f90550)" d="M 343.296 195.809636 
L 330.779977 205.953286 
L 320.325467 214.51121 
L 313.147176 220.669926 
L 307.257062 226.01198 
L 301.66191 231.409008 
L 296.513895 236.70995 
L 291.612302 242.099787 
L 287.074368 247.40792 
L 281.700854 254.094151 
L 276.620886 260.780382 
L 269.826814 270.141106 
L 254.285186 291.791719 
L 248.357622 299.560523 
L 242.79992 306.430786 
L 241.831183 307.584 
L 241.831183 307.584 
" style="fill:none;stroke:#0097b3;stroke-width:1.5;"/>
    <path clip-path="url(#p48c5f90550)" d="M 57.6 135.981567 
L 64.778291 130.885862 
L 72.494281 125.718513 
L 82.006191 119.657815 
L 112.84084 100.310834 
L 119.333307 95.880596 
L 126.137195 90.950111 
L 131.338733 86.938372 
L 136.561206 82.667355 
L 142.401263 77.577648 
L 148.155929 72.228663 
L 153.789106 66.686483 
L 160.967397 59.260621 
L 172.452663 46.951324 
L 177.600184 41.472 
L 177.600184 41.472 
" style="fill:none;stroke:#0097b3;stroke-width:1.5;"/>
   </g>
   <g id="LineCollection_13">
    <path clip-path="url(#p48c5f90550)" d="M 343.296 204.546017 
L 323.196784 221.088431 
L 316.018492 227.377212 
L 310.275859 232.701659 
L 304.533226 238.362111 
L 299.734655 243.396181 
L 294.483618 249.25753 
L 289.291472 255.431397 
L 283.983756 262.117628 
L 277.923612 270.141106 
L 268.177786 283.513568 
L 260.027819 294.588757 
L 254.153835 302.235015 
L 249.851491 307.584 
L 249.851491 307.584 
" style="fill:none;stroke:#008eb8;stroke-width:1.5;"/>
    <path clip-path="url(#p48c5f90550)" d="M 57.6 128.511039 
L 64.778291 123.527911 
L 73.611887 117.695035 
L 86.313166 109.633722 
L 100.973318 100.310834 
L 109.283698 94.772204 
L 116.60275 89.612864 
L 122.204623 85.428625 
L 128.720537 80.252141 
L 133.689889 76.052434 
L 139.453292 70.891417 
L 145.175156 65.460276 
L 151.770594 58.856201 
L 159.531739 50.734569 
L 168.220865 41.472 
L 168.220865 41.472 
" style="fill:none;stroke:#008eb8;stroke-width:1.5;"/>
   </g>
   <g id="LineCollection_14">
    <path clip-path="url(#p48c5f90550)" d="M 343.296 212.825504 
L 330.375075 223.515875 
L 322.855817 230.023719 
L 316.983881 235.372704 
L 311.425318 240.721688 
L 305.968884 246.29629 
L 301.240352 251.419658 
L 295.919276 257.531196 
L 291.040755 263.454874 
L 285.79004 270.141106 
L 278.691377 279.55861 
L 262.744602 300.897769 
L 257.473755 307.584 
L 257.473755 307.584 
" style="fill:none;stroke:#0084bd;stroke-width:1.5;"/>
    <path clip-path="url(#p48c5f90550)" d="M 57.6 121.411268 
L 66.21395 115.543897 
L 77.269317 108.334312 
L 97.909621 94.961849 
L 106.412382 89.138888 
L 113.590673 83.931676 
L 120.094626 78.914894 
L 125.07594 74.846836 
L 131.197508 69.554171 
L 137.022529 64.205186 
L 142.551177 58.856201 
L 149.482131 51.831241 
L 159.332065 41.472 
L 159.332065 41.472 
" style="fill:none;stroke:#0084bd;stroke-width:1.5;"/>
   </g>
   <g id="LineCollection_15">
    <path clip-path="url(#p48c5f90550)" d="M 343.296 220.74602 
L 341.860342 221.934112 
L 341.780533 222.000241 
L 340.424683 223.125709 
L 340.170127 223.337487 
L 338.989025 224.322287 
L 338.567464 224.674734 
L 337.553367 225.524797 
L 336.973992 226.01198 
L 336.117709 226.73419 
L 335.391081 227.349226 
L 334.68205 227.951424 
L 333.820017 228.686472 
L 333.246392 229.177462 
L 332.261987 230.023719 
L 331.810734 230.41327 
L 330.71808 231.360965 
L 330.375075 231.65982 
L 329.189277 232.698211 
L 328.939417 232.918086 
L 327.67645 234.035457 
L 327.503759 234.189044 
L 326.180361 235.372704 
L 326.068101 235.473671 
L 324.701659 236.70995 
L 324.632442 236.772942 
L 323.240883 238.047196 
L 323.196784 238.087828 
L 321.798466 239.384442 
L 321.761126 239.419291 
L 320.374734 240.721688 
L 320.325467 240.768282 
L 318.969912 242.058935 
L 318.889809 242.135735 
L 317.584132 243.396181 
L 317.454151 243.522563 
L 316.217434 244.733427 
L 316.018492 244.929653 
L 314.869777 246.070673 
L 314.582834 246.357854 
L 313.541039 247.40792 
L 313.147176 247.807979 
L 312.23103 248.745166 
L 311.711518 249.280787 
L 310.939497 250.082412 
L 310.275859 250.776982 
L 309.666127 251.419658 
L 308.840201 252.2972 
L 308.410558 252.756905 
L 307.404543 253.842 
L 307.172382 254.094151 
L 305.968884 255.411852 
L 305.951155 255.431397 
L 304.745648 256.768643 
L 304.533226 257.006126 
L 303.555972 258.105889 
L 303.097568 258.625849 
L 302.381651 259.443136 
L 301.66191 260.271224 
L 301.222128 260.780382 
L 300.226251 261.942245 
L 300.076831 262.117628 
L 298.944604 263.454874 
L 298.790593 263.637889 
L 297.824788 264.792121 
L 297.354935 265.357682 
L 296.717321 266.129367 
L 295.919276 267.101941 
L 295.621594 267.466613 
L 294.536782 268.803859 
L 294.483618 268.86966 
L 293.461207 270.141106 
L 293.04796 270.658189 
L 292.395414 271.478352 
L 291.612302 272.468378 
L 291.33879 272.815598 
L 290.290223 274.152844 
L 290.176643 274.298142 
L 289.248298 275.49009 
L 288.740985 276.144614 
L 288.213579 276.827337 
L 287.305327 278.008268 
L 287.185465 278.164583 
L 286.161921 279.501829 
L 285.869668 279.884735 
L 285.143068 280.839075 
L 284.43401 281.773401 
L 284.128882 282.176322 
L 283.118144 283.513568 
L 282.998352 283.672116 
L 282.109182 284.850814 
L 281.562693 285.576693 
L 281.102976 286.18806 
L 280.127035 287.487862 
L 280.098945 287.525307 
L 279.094142 288.862553 
L 278.691377 289.398851 
L 278.090041 290.199799 
L 277.255719 291.311266 
L 277.086227 291.537045 
L 276.080482 292.874291 
L 275.82006 293.22 
L 275.072688 294.211538 
L 274.384402 295.123668 
L 274.063303 295.548784 
L 273.051062 296.88603 
L 272.948744 297.020719 
L 272.033846 298.223276 
L 271.513085 298.906169 
L 271.013168 299.560523 
L 270.077427 300.781882 
L 269.988447 300.897769 
L 268.956783 302.235015 
L 268.641769 302.641749 
L 267.91916 303.572261 
L 267.206111 304.48687 
L 266.875622 304.909508 
L 265.825157 306.246754 
L 265.770452 306.315985 
L 264.765028 307.584 
" style="fill:none;stroke:#007bc2;stroke-width:1.5;"/>
    <path clip-path="url(#p48c5f90550)" d="M 57.6 114.6198 
L 58.961332 113.683296 
L 59.035658 113.632342 
L 60.471317 112.653884 
L 60.925057 112.34605 
L 61.906975 111.68188 
L 62.905966 111.008804 
L 63.342633 110.715384 
L 64.778291 109.754439 
L 64.902706 109.671558 
L 66.21395 108.79996 
L 66.91646 108.334312 
L 67.649608 107.849248 
L 68.940665 106.997065 
L 69.085266 106.901761 
L 70.520925 105.958907 
L 70.977327 105.659819 
L 71.956583 105.018714 
L 73.021091 104.322573 
L 73.392241 104.080003 
L 74.827899 103.1432 
L 75.070295 102.985327 
L 76.263558 102.208196 
L 77.123449 101.64808 
L 77.699216 101.272924 
L 79.134874 100.336999 
L 79.175074 100.310834 
L 80.570533 99.401793 
L 81.226893 98.973588 
L 82.006191 98.46456 
L 83.271633 97.636342 
L 83.441849 97.524761 
L 84.877508 96.583307 
L 85.31008 96.299095 
L 86.313166 95.638643 
L 87.337739 94.961849 
L 87.748824 94.68963 
L 89.184482 93.736248 
L 89.352301 93.624603 
L 90.620141 92.77861 
L 91.353107 92.287357 
L 92.055799 91.814819 
L 93.335467 90.950111 
L 93.491457 90.844316 
L 94.927116 89.867627 
L 95.299888 89.612864 
L 96.362774 88.883433 
L 97.243295 88.275618 
L 97.798432 87.890699 
L 99.163447 86.938372 
L 99.23409 86.888852 
L 100.669749 85.878402 
L 101.061258 85.601126 
L 102.105407 84.857786 
L 102.933883 84.263879 
L 103.541065 83.826234 
L 104.78024 82.926633 
L 104.976724 82.783179 
L 106.412382 81.728564 
L 106.600672 81.589387 
L 107.84804 80.661776 
L 108.394668 80.252141 
L 109.283698 79.581736 
L 110.161132 78.914894 
L 110.719357 78.487913 
L 111.900055 77.577648 
L 112.155015 77.379787 
L 113.590673 76.256916 
L 113.611657 76.240402 
L 115.026332 75.119402 
L 115.297039 74.903156 
L 116.46199 73.966101 
L 116.955525 73.56591 
L 117.897648 72.796599 
L 118.587621 72.228663 
L 119.333307 71.610517 
L 120.193926 70.891417 
L 120.768965 70.407516 
L 121.775122 69.554171 
L 122.204623 69.187307 
L 123.331966 68.216925 
L 123.640281 67.949652 
L 124.865273 66.879678 
L 125.07594 66.694374 
L 126.375915 65.542432 
L 126.511598 65.421361 
L 127.864804 64.205186 
L 127.947256 64.130574 
L 129.332892 62.86794 
L 129.382915 62.82205 
L 130.781159 61.530693 
L 130.818573 61.495912 
L 132.210609 60.193447 
L 132.254231 60.152371 
L 133.622261 58.856201 
L 133.689889 58.791729 
L 135.01715 57.518955 
L 135.125548 57.41439 
L 136.396317 56.181709 
L 136.561206 56.020855 
L 137.760809 54.844462 
L 137.996864 54.61173 
L 139.111674 53.507216 
L 139.432523 53.187724 
L 140.449961 52.16997 
L 140.868181 51.749649 
L 141.776716 50.832724 
L 142.303839 50.29842 
L 143.092982 49.495477 
L 143.739497 48.835049 
L 144.399796 48.158231 
L 145.175156 47.360645 
L 145.698192 46.820985 
L 146.610814 45.876402 
L 146.989198 45.483739 
L 148.046472 44.383599 
L 148.273837 44.146492 
L 149.482131 42.883584 
L 149.553126 42.809246 
L 150.828654 41.472 
" style="fill:none;stroke:#007bc2;stroke-width:1.5;"/>
   </g>
   <g id="LineCollection_16">
    <path clip-path="url(#p48c5f90550)" d="M 343.296 228.375949 
L 342.926307 228.686472 
L 341.860342 229.584085 
L 341.339812 230.023719 
L 340.424683 230.79887 
L 339.763334 231.360965 
L 338.989025 232.021226 
L 338.198098 232.698211 
L 337.553367 233.252078 
L 336.645242 234.035457 
L 336.117709 234.492353 
L 335.105808 235.372704 
L 334.68205 235.742982 
L 333.58074 236.70995 
L 333.246392 237.004895 
L 332.07088 238.047196 
L 331.810734 238.279024 
L 330.576967 239.384442 
L 330.375075 239.566299 
L 329.099634 240.721688 
L 328.939417 240.867645 
L 327.639412 242.058935 
L 327.503759 242.183982 
L 326.19673 243.396181 
L 326.068101 243.516217 
L 324.771916 244.733427 
L 324.632442 244.865248 
L 323.365206 246.070673 
L 323.196784 246.23195 
L 321.976743 247.40792 
L 321.761126 247.61718 
L 320.606585 248.745166 
L 320.325467 249.021761 
L 319.25471 250.082412 
L 318.889809 250.446487 
L 317.921022 251.419658 
L 317.454151 251.892105 
L 316.605355 252.756905 
L 316.018492 253.359318 
L 315.307482 254.094151 
L 314.582834 254.848767 
L 314.027121 255.431397 
L 313.147176 256.361032 
L 312.763939 256.768643 
L 311.711518 257.896616 
L 311.517556 258.105889 
L 310.287519 259.443136 
L 310.275859 259.455888 
L 309.072707 260.780382 
L 308.840201 261.038286 
L 307.873286 262.117628 
L 307.404543 262.644826 
L 306.688745 263.454874 
L 305.968884 264.275599 
L 305.518555 264.792121 
L 304.533226 265.930572 
L 304.362168 266.129367 
L 303.218593 267.466613 
L 303.097568 267.608936 
L 302.087003 268.803859 
L 301.66191 269.309945 
L 300.967415 270.141106 
L 300.226251 271.033992 
L 299.859237 271.478352 
L 298.790593 272.780446 
L 298.761879 272.815598 
L 297.673476 274.152844 
L 297.354935 274.546429 
L 296.594474 275.49009 
L 295.919276 276.332609 
L 295.524385 276.827337 
L 294.483618 278.138032 
L 294.462613 278.164583 
L 293.40698 279.501829 
L 293.04796 279.958653 
L 292.358253 280.839075 
L 291.612302 281.795302 
L 291.315927 282.176322 
L 290.27893 283.513568 
L 290.176643 283.645661 
L 289.245658 284.850814 
L 288.740985 285.506128 
L 288.216885 286.18806 
L 287.305327 287.37725 
L 287.192029 287.525307 
L 286.168932 288.862553 
L 285.869668 289.254162 
L 285.14787 290.199799 
L 284.43401 291.136353 
L 284.128845 291.537045 
L 283.110648 292.874291 
L 282.998352 293.021602 
L 282.091522 294.211538 
L 281.562693 294.905578 
L 281.07257 295.548784 
L 280.127035 296.78923 
L 280.053219 296.88603 
L 279.030772 298.223276 
L 278.691377 298.666522 
L 278.006199 299.560523 
L 277.255719 300.538219 
L 276.979375 300.897769 
L 275.948866 302.235015 
L 275.82006 302.401563 
L 274.91305 303.572261 
L 274.384402 304.252767 
L 273.873139 304.909508 
L 272.948744 306.093222 
L 272.828554 306.246754 
L 271.7768 307.584 
" style="fill:none;stroke:#0071c6;stroke-width:1.5;"/>
    <path clip-path="url(#p48c5f90550)" d="M 57.6 108.088674 
L 59.035658 107.109016 
L 59.200489 106.997065 
L 60.471317 106.136036 
L 61.176388 105.659819 
L 61.906975 105.167409 
L 63.163828 104.322573 
L 63.342633 104.202596 
L 64.778291 103.242727 
L 65.164302 102.985327 
L 66.21395 102.28629 
L 67.173742 101.64808 
L 67.649608 101.33195 
L 69.085266 100.37959 
L 69.18919 100.310834 
L 70.520925 99.430115 
L 71.211466 98.973588 
L 71.956583 98.481009 
L 73.234089 97.636342 
L 73.392241 97.531744 
L 74.827899 96.583342 
L 75.25808 96.299095 
L 76.263558 95.634169 
L 77.278787 94.961849 
L 77.699216 94.6831 
L 79.134874 93.730134 
L 79.293827 93.624603 
L 80.570533 92.77553 
L 81.302651 92.287357 
L 82.006191 91.817278 
L 83.300035 90.950111 
L 83.441849 90.854836 
L 84.877508 89.888923 
L 85.286568 89.612864 
L 86.313166 88.918047 
L 87.258381 88.275618 
L 87.748824 87.941208 
L 89.184482 86.957937 
L 89.212988 86.938372 
L 90.620141 85.968948 
L 91.151277 85.601126 
L 92.055799 84.972212 
L 93.068907 84.263879 
L 93.491457 83.967174 
L 94.927116 82.953379 
L 94.964855 82.926633 
L 96.362774 81.931242 
L 96.839835 81.589387 
L 97.798432 80.899029 
L 98.69076 80.252141 
L 99.23409 79.856187 
L 100.516952 78.914894 
L 100.669749 78.802166 
L 102.105407 77.73698 
L 102.318832 77.577648 
L 103.541065 76.659862 
L 104.0956 76.240402 
L 104.976724 75.569887 
L 105.846386 74.903156 
L 106.412382 74.466544 
L 107.571156 73.56591 
L 107.84804 73.349341 
L 109.270007 72.228663 
L 109.283698 72.217803 
L 110.719357 71.072083 
L 110.944031 70.891417 
L 112.155015 69.911138 
L 112.592623 69.554171 
L 113.590673 68.734544 
L 114.216181 68.216925 
L 115.026332 67.54195 
L 115.815243 66.879678 
L 116.46199 66.333045 
L 117.390432 65.542432 
L 117.897648 65.107565 
L 118.942438 64.205186 
L 119.333307 63.865298 
L 120.472014 62.86794 
L 120.768965 62.606092 
L 121.979963 61.530693 
L 122.204623 61.329856 
L 123.467136 60.193447 
L 123.640281 60.03657 
L 124.934418 58.856201 
L 125.07594 58.726288 
L 126.382728 57.518955 
L 126.511598 57.399143 
L 127.813007 56.181709 
L 127.947256 56.055354 
L 129.226216 54.844462 
L 129.382915 54.695228 
L 130.623333 53.507216 
L 130.818573 53.319164 
L 132.005342 52.16997 
L 132.254231 51.927656 
L 133.373238 50.832724 
L 133.689889 50.521295 
L 134.72802 49.495477 
L 135.125548 49.100768 
L 136.070686 48.158231 
L 136.561206 47.666859 
L 137.402236 46.820985 
L 137.996864 46.220449 
L 138.72367 45.483739 
L 139.432523 44.762508 
L 140.035983 44.146492 
L 140.868181 43.294095 
L 141.340168 42.809246 
L 142.303839 41.816351 
L 142.637215 41.472 
" style="fill:none;stroke:#0071c6;stroke-width:1.5;"/>
   </g>
   <g id="LineCollection_17">
    <path clip-path="url(#p48c5f90550)" d="M 343.296 235.768728 
L 342.200191 236.70995 
L 341.860342 237.00288 
L 340.653554 238.047196 
L 340.424683 238.246017 
L 339.119821 239.384442 
L 338.989025 239.499033 
L 337.599891 240.721688 
L 337.553367 240.762822 
L 336.117709 242.038188 
L 336.094465 242.058935 
L 334.68205 243.325993 
L 334.604227 243.396181 
L 333.246392 244.627303 
L 333.129996 244.733427 
L 331.810734 245.942991 
L 331.672275 246.070673 
L 330.375075 247.273921 
L 330.231474 247.40792 
L 328.939417 248.620942 
L 328.807908 248.745166 
L 327.503759 249.984884 
L 327.401803 250.082412 
L 326.068101 251.366556 
L 326.013299 251.419658 
L 324.642422 252.756905 
L 324.632442 252.766701 
L 323.288943 254.094151 
L 323.196784 254.18584 
L 321.952974 255.431397 
L 321.761126 255.624872 
L 320.634362 256.768643 
L 320.325467 257.084452 
L 319.332898 258.105889 
L 318.889809 258.565177 
L 318.048314 259.443136 
L 317.454151 260.067586 
L 316.780297 260.780382 
L 316.018492 261.592141 
L 315.528487 262.117628 
L 314.582834 263.139228 
L 314.292489 263.454874 
L 313.147176 264.709141 
L 313.071872 264.792121 
L 311.865672 266.129367 
L 311.711518 266.301402 
L 310.673602 267.466613 
L 310.275859 267.916317 
L 309.495396 268.803859 
L 308.840201 269.554164 
L 308.330526 270.141106 
L 307.404543 271.214778 
L 307.178451 271.478352 
L 306.038373 272.815598 
L 305.968884 272.897495 
L 304.909108 274.152844 
L 304.533226 274.600904 
L 303.790861 275.49009 
L 303.097568 276.325541 
L 302.683053 276.827337 
L 301.66191 278.070663 
L 301.585105 278.164583 
L 300.495368 279.501829 
L 300.226251 279.833635 
L 299.413917 280.839075 
L 298.790593 281.614408 
L 298.340458 282.176322 
L 297.354935 283.412251 
L 297.274409 283.513568 
L 296.213893 284.850814 
L 295.919276 285.223589 
L 295.15915 286.18806 
L 294.483618 287.048285 
L 294.109941 287.525307 
L 293.065604 288.862553 
L 293.04796 288.885156 
L 292.023803 290.199799 
L 291.612302 290.729339 
L 290.985669 291.537045 
L 290.176643 292.581987 
L 289.950629 292.874291 
L 288.917185 294.211538 
L 288.740985 294.439531 
L 287.884406 295.548784 
L 287.305327 296.299333 
L 286.852872 296.88603 
L 285.869668 298.161454 
L 285.822016 298.223276 
L 284.789202 299.560523 
L 284.43401 300.020148 
L 283.755528 300.897769 
L 282.998352 301.876413 
L 282.720698 302.235015 
L 281.683391 303.572261 
L 281.562693 303.727417 
L 280.641998 304.909508 
L 280.127035 305.569403 
L 279.597624 306.246754 
L 278.691377 307.403501 
L 278.549699 307.584 
" style="fill:none;stroke:#0068cb;stroke-width:1.5;"/>
    <path clip-path="url(#p48c5f90550)" d="M 57.6 101.780047 
L 57.793782 101.64808 
L 59.035658 100.803955 
L 59.762858 100.310834 
L 60.471317 99.831171 
L 61.7404 98.973588 
L 61.906975 98.861164 
L 63.342633 97.894963 
L 63.727626 97.636342 
L 64.778291 96.931068 
L 65.720499 96.299095 
L 66.21395 95.968251 
L 67.649608 95.006235 
L 67.71598 94.961849 
L 69.085266 94.046042 
L 69.71514 93.624603 
L 70.520925 93.085219 
L 71.711811 92.287357 
L 71.956583 92.123235 
L 73.392241 91.160632 
L 73.706057 90.950111 
L 74.827899 90.196542 
L 75.695048 89.612864 
L 76.263558 89.22957 
L 77.674949 88.275618 
L 77.699216 88.259184 
L 79.134874 87.286434 
L 79.647002 86.938372 
L 80.570533 86.309147 
L 81.605982 85.601126 
L 82.006191 85.326705 
L 83.441849 84.338885 
L 83.550623 84.263879 
L 84.877508 83.345912 
L 85.480774 82.926633 
L 86.313166 82.346037 
L 87.3926 81.589387 
L 87.748824 81.338718 
L 89.184482 80.323681 
L 89.285314 80.252141 
L 90.620141 79.300995 
L 91.158865 78.914894 
L 92.055799 78.269126 
L 93.010424 77.577648 
L 93.491457 77.227533 
L 94.839192 76.240402 
L 94.927116 76.175677 
L 96.362774 75.11375 
L 96.645745 74.903156 
L 97.798432 74.040647 
L 98.428568 73.56591 
L 99.23409 72.955627 
L 100.186949 72.228663 
L 100.669749 71.858185 
L 101.920711 70.891417 
L 102.105407 70.74783 
L 103.541065 69.624313 
L 103.630151 69.554171 
L 104.976724 68.487367 
L 105.3156 68.216925 
L 106.412382 67.336095 
L 106.976541 66.879678 
L 107.84804 66.170095 
L 108.613293 65.542432 
L 109.283698 64.988998 
L 110.226268 64.205186 
L 110.719357 63.79247 
L 111.815965 62.86794 
L 112.155015 62.580219 
L 113.38296 61.530693 
L 113.590673 61.351996 
L 114.927894 60.193447 
L 115.026332 60.107605 
L 116.451472 58.856201 
L 116.46199 58.846906 
L 117.897648 57.569999 
L 117.954659 57.518955 
L 119.333307 56.276675 
L 119.438012 56.181709 
L 120.768965 54.966956 
L 120.902331 54.844462 
L 122.204623 53.640973 
L 122.348483 53.507216 
L 123.640281 52.298937 
L 123.77736 52.16997 
L 125.07594 50.941141 
L 125.189874 50.832724 
L 126.511598 49.567966 
L 126.586951 49.495477 
L 127.947256 48.179881 
L 127.96953 48.158231 
L 129.338754 46.820985 
L 129.382915 46.77765 
L 130.695549 45.483739 
L 130.818573 45.361909 
L 132.040778 44.146492 
L 132.254231 43.933311 
L 133.375401 42.809246 
L 133.689889 42.492693 
L 134.700378 41.472 
" style="fill:none;stroke:#0068cb;stroke-width:1.5;"/>
   </g>
   <g id="LineCollection_18">
    <path clip-path="url(#p48c5f90550)" d="M 343.296 242.963881 
L 342.803634 243.396181 
L 341.860342 244.227888 
L 341.289608 244.733427 
L 340.424683 245.503019 
L 339.78981 246.070673 
L 338.989025 246.790126 
L 338.304904 247.40792 
L 337.553367 248.090057 
L 336.835458 248.745166 
L 336.117709 249.403649 
L 335.381952 250.082412 
L 334.68205 250.731731 
L 333.944772 251.419658 
L 333.246392 252.075112 
L 332.524217 252.756905 
L 331.810734 253.434587 
L 331.120499 254.094151 
L 330.375075 254.810926 
L 329.733752 255.431397 
L 328.939417 256.204871 
L 328.36403 256.768643 
L 327.503759 257.617132 
L 327.011317 258.105889 
L 326.068101 259.048378 
L 325.675527 259.443136 
L 324.632442 260.499236 
L 324.356514 260.780382 
L 323.196784 261.970278 
L 323.054074 262.117628 
L 321.767932 263.454874 
L 321.761126 263.461993 
L 320.497311 264.792121 
L 320.325467 264.974255 
L 319.242313 266.129367 
L 318.889809 266.507941 
L 318.002555 267.466613 
L 317.454151 268.063327 
L 316.777618 268.803859 
L 316.018492 269.640601 
L 315.567057 270.141106 
L 314.582834 271.239848 
L 314.370401 271.478352 
L 313.187032 272.815598 
L 313.147176 272.860867 
L 312.01582 274.152844 
L 311.711518 274.502627 
L 310.856917 275.49009 
L 310.275859 276.16577 
L 309.709782 276.827337 
L 308.840201 277.849892 
L 308.573866 278.164583 
L 307.448458 279.501829 
L 307.404543 279.554213 
L 306.332131 280.839075 
L 305.968884 281.276694 
L 305.225242 282.176322 
L 304.533226 283.017892 
L 304.127218 283.513568 
L 303.097568 284.776837 
L 303.037489 284.850814 
L 301.954292 286.18806 
L 301.66191 286.55046 
L 300.877891 287.525307 
L 300.226251 288.33883 
L 299.807946 288.862553 
L 298.790593 290.140956 
L 298.743886 290.199799 
L 297.683652 291.537045 
L 297.354935 291.952783 
L 296.627828 292.874291 
L 295.919276 293.774636 
L 295.576049 294.211538 
L 294.527535 295.548784 
L 294.483618 295.604789 
L 293.480185 296.88603 
L 293.04796 297.438757 
L 292.43505 298.223276 
L 291.612302 299.277509 
L 291.391565 299.560523 
L 290.348239 300.897769 
L 290.176643 301.117526 
L 289.304155 302.235015 
L 288.740985 302.956272 
L 288.259904 303.572261 
L 287.305327 304.793882 
L 287.214927 304.909508 
L 286.166885 306.246754 
L 285.869668 306.625368 
L 285.11635 307.584 
" style="fill:none;stroke:#005ed0;stroke-width:1.5;"/>
    <path clip-path="url(#p48c5f90550)" d="M 57.6 95.663529 
L 58.629181 94.961849 
L 59.035658 94.685006 
L 60.471317 93.708806 
L 60.595451 93.624603 
L 61.906975 92.73546 
L 62.568296 92.287357 
L 63.342633 91.762791 
L 64.542362 90.950111 
L 64.778291 90.790277 
L 66.21395 89.81847 
L 66.517792 89.612864 
L 67.649608 88.846514 
L 68.491863 88.275618 
L 69.085266 87.873021 
L 70.460798 86.938372 
L 70.520925 86.897465 
L 71.956583 85.920825 
L 72.425637 85.601126 
L 73.392241 84.941144 
L 74.381566 84.263879 
L 74.827899 83.957695 
L 76.263558 82.970139 
L 76.326731 82.926633 
L 77.699216 81.979018 
L 78.261481 81.589387 
L 79.134874 80.982416 
L 80.181463 80.252141 
L 80.570533 79.9798 
L 82.006191 78.970855 
L 82.085612 78.914894 
L 83.441849 77.955825 
L 83.974004 77.577648 
L 84.877508 76.933069 
L 85.843342 76.240402 
L 86.313166 75.902055 
L 87.692585 74.903156 
L 87.748824 74.862251 
L 89.184482 73.813987 
L 89.522333 73.56591 
L 90.620141 72.755937 
L 91.330394 72.228663 
L 92.055799 71.687436 
L 93.115933 70.891417 
L 93.491457 70.607974 
L 94.878515 69.554171 
L 94.927116 69.517047 
L 96.362774 68.414796 
L 96.61883 68.216925 
L 97.798432 67.300169 
L 98.335771 66.879678 
L 99.23409 66.17259 
L 100.029121 65.542432 
L 100.669749 65.03162 
L 101.698973 64.205186 
L 102.105407 63.876845 
L 103.345527 62.86794 
L 103.541065 62.707876 
L 104.969081 61.530693 
L 104.976724 61.524354 
L 106.412382 60.326374 
L 106.570576 60.193447 
L 107.84804 59.113215 
L 108.149876 58.856201 
L 109.283698 57.884618 
L 109.707507 57.518955 
L 110.719357 56.640394 
L 111.244084 56.181709 
L 112.155015 55.380407 
L 112.760277 54.844462 
L 113.590673 54.104578 
L 114.256807 53.507216 
L 115.026332 52.81289 
L 115.734435 52.16997 
L 116.46199 51.505395 
L 117.193958 50.832724 
L 117.897648 50.182216 
L 118.636203 49.495477 
L 119.333307 48.843552 
L 120.062021 48.158231 
L 120.768965 47.489682 
L 121.472285 46.820985 
L 122.204623 46.120965 
L 122.867882 45.483739 
L 123.640281 44.737846 
L 124.249712 44.146492 
L 125.07594 43.340857 
L 125.618683 42.809246 
L 126.511598 41.930615 
L 126.975712 41.472 
" style="fill:none;stroke:#005ed0;stroke-width:1.5;"/>
   </g>
   <g id="LineCollection_19">
    <path clip-path="url(#p48c5f90550)" d="M 343.296 249.992502 
L 343.19605 250.082412 
L 341.860342 251.28973 
L 341.717323 251.419658 
L 340.424683 252.599941 
L 340.253683 252.756905 
L 338.989025 253.92393 
L 338.805569 254.094151 
L 337.553367 255.262477 
L 337.373336 255.431397 
L 336.117709 256.616344 
L 335.957254 256.768643 
L 334.68205 257.986273 
L 334.557514 258.105889 
L 333.246392 259.372978 
L 333.174229 259.443136 
L 331.810734 260.777141 
L 331.807441 260.780382 
L 330.456863 262.117628 
L 330.375075 262.199133 
L 329.122611 263.454874 
L 328.939417 263.639761 
L 327.804545 264.792121 
L 327.503759 265.099586 
L 326.502462 266.129367 
L 326.068101 266.579102 
L 325.216105 267.466613 
L 324.632442 268.078738 
L 323.945178 268.803859 
L 323.196784 269.598856 
L 322.689341 270.141106 
L 321.761126 271.139735 
L 321.448218 271.478352 
L 320.325467 272.701573 
L 320.221406 272.815598 
L 319.008105 274.152844 
L 318.889809 274.283991 
L 317.807847 275.49009 
L 317.454151 275.886938 
L 316.620466 276.827337 
L 316.018492 277.510707 
L 315.445463 278.164583 
L 314.582834 279.155063 
L 314.282325 279.501829 
L 313.147176 280.819656 
L 313.130528 280.839075 
L 311.988585 282.176322 
L 311.711518 282.502589 
L 310.856763 283.513568 
L 310.275859 284.2044 
L 309.734564 284.850814 
L 308.840201 285.92442 
L 308.621434 286.18806 
L 307.516391 287.525307 
L 307.404543 287.661099 
L 306.418394 288.862553 
L 305.968884 289.412619 
L 305.327675 290.199799 
L 304.533226 291.179076 
L 304.243671 291.537045 
L 303.165531 292.874291 
L 303.097568 292.95873 
L 302.091689 294.211538 
L 301.66191 294.748494 
L 301.02275 295.548784 
L 300.226251 296.548798 
L 299.958151 296.88603 
L 298.896835 298.223276 
L 298.790593 298.357211 
L 297.837405 299.560523 
L 297.354935 300.170616 
L 296.780508 300.897769 
L 295.919276 301.989337 
L 295.725586 302.235015 
L 294.671107 303.572261 
L 294.483618 303.809922 
L 293.616393 304.909508 
L 293.04796 305.63035 
L 292.561857 306.246754 
L 291.612302 307.450489 
L 291.506943 307.584 
" style="fill:none;stroke:#0055d4;stroke-width:1.5;"/>
    <path clip-path="url(#p48c5f90550)" d="M 57.6 89.711 
L 57.743336 89.612864 
L 59.035658 88.728399 
L 59.697425 88.275618 
L 60.471317 87.74615 
L 61.651824 86.938372 
L 61.906975 86.763735 
L 63.342633 85.781539 
L 63.606391 85.601126 
L 64.778291 84.79893 
L 65.558958 84.263879 
L 66.21395 83.814481 
L 67.505816 82.926633 
L 67.649608 82.827673 
L 69.085266 81.839109 
L 69.447317 81.589387 
L 70.520925 80.847487 
L 71.380111 80.252141 
L 71.956583 79.851822 
L 73.301589 78.914894 
L 73.392241 78.85159 
L 74.827899 77.847355 
L 75.212213 77.577648 
L 76.263558 76.837657 
L 77.108668 76.240402 
L 77.699216 75.821706 
L 78.989088 74.903156 
L 79.134874 74.798974 
L 80.570533 73.76968 
L 80.853575 73.56591 
L 82.006191 72.732853 
L 82.700176 72.228663 
L 83.441849 71.68758 
L 84.527229 70.891417 
L 84.877508 70.633342 
L 86.313166 69.569678 
L 86.334015 69.554171 
L 87.748824 68.496834 
L 88.121109 68.216925 
L 89.184482 67.413427 
L 89.886479 66.879678 
L 90.620141 66.318969 
L 91.629746 65.542432 
L 92.055799 65.212981 
L 93.35066 64.205186 
L 93.491457 64.094999 
L 94.927116 62.964868 
L 95.049532 62.86794 
L 96.362774 61.822151 
L 96.72631 61.530693 
L 97.798432 60.666106 
L 98.380588 60.193447 
L 99.23409 59.496354 
L 100.012575 58.856201 
L 100.669749 58.312547 
L 101.622575 57.518955 
L 102.105407 57.114369 
L 103.210973 56.181709 
L 103.541065 55.90154 
L 104.778231 54.844462 
L 104.976724 54.673826 
L 106.324879 53.507216 
L 106.412382 53.431035 
L 107.84804 52.173037 
L 107.85152 52.16997 
L 109.283698 50.89994 
L 109.359019 50.832724 
L 110.719357 49.611477 
L 110.847776 49.495477 
L 112.155015 48.307686 
L 112.318522 48.158231 
L 113.590673 46.988675 
L 113.772025 46.820985 
L 115.026332 45.654619 
L 115.209079 45.483739 
L 116.46199 44.305771 
L 116.630504 44.146492 
L 117.897648 42.942461 
L 118.037138 42.809246 
L 119.333307 41.565098 
L 119.429833 41.472 
" style="fill:none;stroke:#0055d4;stroke-width:1.5;"/>
   </g>
   <g id="LineCollection_20">
    <path clip-path="url(#p48c5f90550)" d="M 343.296 256.877398 
L 341.97218 258.105889 
L 341.860342 258.21023 
L 340.545987 259.443136 
L 340.424683 259.557556 
L 339.135476 260.780382 
L 338.989025 260.920091 
L 337.740811 262.117628 
L 337.553367 262.298528 
L 336.362085 263.454874 
L 336.117709 263.693529 
L 334.999323 264.792121 
L 334.68205 265.105718 
L 333.652483 266.129367 
L 333.246392 266.535683 
L 332.321462 267.466613 
L 331.810734 267.983962 
L 331.006103 268.803859 
L 330.375075 269.451043 
L 329.706196 270.141106 
L 328.939417 270.937354 
L 328.421485 271.478352 
L 327.503759 272.443258 
L 327.151672 272.815598 
L 326.068101 273.969045 
L 325.89642 274.152844 
L 324.655293 275.49009 
L 324.632442 275.514841 
L 323.427404 276.827337 
L 323.196784 277.08014 
L 322.212828 278.164583 
L 321.761126 278.665578 
L 321.011108 279.501829 
L 320.325467 280.271075 
L 319.821775 280.839075 
L 318.889809 281.896445 
L 318.644337 282.176322 
L 317.478218 283.513568 
L 317.454151 283.541281 
L 316.322133 284.850814 
L 316.018492 285.204043 
L 315.176324 286.18806 
L 314.582834 286.885257 
L 314.040256 287.525307 
L 313.147176 288.584254 
L 312.913388 288.862553 
L 311.794874 290.199799 
L 311.711518 290.299774 
L 310.68355 291.537045 
L 310.275859 292.029912 
L 309.579682 292.874291 
L 308.840201 293.774866 
L 308.482713 294.211538 
L 307.404543 295.533473 
L 307.392089 295.548784 
L 306.305858 296.88603 
L 305.968884 297.302169 
L 305.224697 298.223276 
L 304.533226 299.081551 
L 304.148101 299.560523 
L 303.097568 300.870228 
L 303.075514 300.897769 
L 302.004797 302.235015 
L 301.66191 302.663982 
L 300.936763 303.572261 
L 300.226251 304.463462 
L 299.870956 304.909508 
L 298.806744 306.246754 
L 298.790593 306.267027 
L 297.74183 307.584 
" style="fill:none;stroke:#004bda;stroke-width:1.5;"/>
    <path clip-path="url(#p48c5f90550)" d="M 57.6 83.903505 
L 59.013893 82.926633 
L 59.035658 82.911589 
L 60.471317 81.920327 
L 60.950188 81.589387 
L 61.906975 80.92758 
L 62.882097 80.252141 
L 63.342633 79.932758 
L 64.778291 78.935437 
L 64.807859 78.914894 
L 66.21395 77.936374 
L 66.728171 77.577648 
L 67.649608 76.933577 
L 68.638502 76.240402 
L 69.085266 75.926528 
L 70.520925 74.914756 
L 70.537363 74.903156 
L 71.956583 73.898893 
L 72.425391 73.56591 
L 73.392241 72.877119 
L 74.298761 72.228663 
L 74.827899 71.848919 
L 76.156226 70.891417 
L 76.263558 70.813775 
L 77.699216 69.771933 
L 77.997996 69.554171 
L 79.134874 68.72231 
L 79.822027 68.216925 
L 80.570533 67.664117 
L 81.626967 66.879678 
L 82.006191 66.596852 
L 83.412097 65.542432 
L 83.441849 65.520015 
L 84.877508 64.433831 
L 85.177981 64.205186 
L 86.313166 63.337105 
L 86.922967 62.86794 
L 87.748824 62.229298 
L 88.646618 61.530693 
L 89.184482 61.109955 
L 90.348733 60.193447 
L 90.620141 59.978635 
L 92.029227 58.856201 
L 92.055799 58.834917 
L 93.491457 57.678867 
L 93.688783 57.518955 
L 94.927116 56.509661 
L 95.326858 56.181709 
L 96.362774 55.326891 
L 96.943585 54.844462 
L 97.798432 54.130245 
L 98.539278 53.507216 
L 99.23409 52.919444 
L 100.114326 52.16997 
L 100.669749 51.694251 
L 101.669189 50.832724 
L 102.105407 50.45447 
L 103.204389 49.495477 
L 103.541065 49.199953 
L 104.720506 48.158231 
L 104.976724 47.930606 
L 106.218169 46.820985 
L 106.412382 46.64639 
L 107.698049 45.483739 
L 107.84804 45.347327 
L 109.160858 44.146492 
L 109.283698 44.033504 
L 110.607337 42.809246 
L 110.719357 42.705074 
L 112.038257 41.472 
" style="fill:none;stroke:#004bda;stroke-width:1.5;"/>
   </g>
   <g id="LineCollection_21">
    <path clip-path="url(#p48c5f90550)" d="M 343.296 263.637223 
L 342.08443 264.792121 
L 341.860342 265.006937 
L 340.695956 266.129367 
L 340.424683 266.392389 
L 339.322989 267.466613 
L 338.989025 267.794193 
L 337.965526 268.803859 
L 337.553367 269.212924 
L 336.623508 270.141106 
L 336.117709 270.649118 
L 335.296817 271.478352 
L 334.68205 272.103259 
L 333.985282 272.815598 
L 333.246392 273.575779 
L 332.688684 274.152844 
L 331.810734 275.067047 
L 331.406761 275.49009 
L 330.375075 276.577368 
L 330.139211 276.827337 
L 328.939417 278.106971 
L 328.885696 278.164583 
L 327.645439 279.501829 
L 327.503759 279.65549 
L 326.418246 280.839075 
L 326.068101 281.223218 
L 325.203844 282.176322 
L 324.632442 282.810305 
L 324.001786 283.513568 
L 323.196784 284.416611 
L 322.811604 284.850814 
L 321.761126 286.041895 
L 321.632818 286.18806 
L 320.464493 287.525307 
L 320.325467 287.685179 
L 319.306092 288.862553 
L 318.889809 289.34592 
L 318.157492 290.199799 
L 317.454151 291.024076 
L 317.018165 291.537045 
L 316.018492 292.718941 
L 315.88758 292.874291 
L 314.764551 294.211538 
L 314.582834 294.428694 
L 313.64864 295.548784 
L 313.147176 296.152508 
L 312.539755 296.88603 
L 311.711518 297.890007 
L 311.437349 298.223276 
L 310.340617 299.560523 
L 310.275859 299.639612 
L 309.24811 300.897769 
L 308.840201 301.39858 
L 308.160331 302.235015 
L 307.404543 303.167214 
L 307.076729 303.572261 
L 305.996634 304.909508 
L 305.968884 304.943869 
L 304.918105 306.246754 
L 304.533226 306.724718 
L 303.841996 307.584 
" style="fill:none;stroke:#0042de;stroke-width:1.5;"/>
    <path clip-path="url(#p48c5f90550)" d="M 57.6 78.221496 
L 58.52252 77.577648 
L 59.035658 77.219152 
L 60.434426 76.240402 
L 60.471317 76.214555 
L 61.906975 75.208499 
L 62.341831 74.903156 
L 63.342633 74.199176 
L 64.240625 73.56591 
L 64.778291 73.185962 
L 66.12904 72.228663 
L 66.21395 72.168345 
L 67.649608 71.146792 
L 68.007404 70.891417 
L 69.085266 70.119954 
L 69.87277 69.554171 
L 70.520925 69.087081 
L 71.723445 68.216925 
L 71.956583 68.047664 
L 73.392241 67.001617 
L 73.559024 66.879678 
L 74.827899 65.948532 
L 75.37862 65.542432 
L 76.263558 64.887304 
L 77.180277 64.205186 
L 77.699216 63.817438 
L 78.963236 62.86794 
L 79.134874 62.738444 
L 80.570533 61.650205 
L 80.727455 61.530693 
L 82.006191 60.552223 
L 82.472348 60.193447 
L 83.441849 59.443627 
L 84.196867 58.856201 
L 84.877508 58.323968 
L 85.900753 57.518955 
L 86.313166 57.192811 
L 87.583855 56.181709 
L 87.748824 56.04974 
L 89.184482 54.8945 
L 89.246334 54.844462 
L 90.620141 53.726912 
L 90.888506 53.507216 
L 92.055799 52.546251 
L 92.509975 52.16997 
L 93.491457 51.352201 
L 94.110991 50.832724 
L 94.927116 50.144483 
L 95.691877 49.495477 
L 96.362774 48.922852 
L 97.253033 48.158231 
L 97.798432 47.687103 
L 98.794921 46.820985 
L 99.23409 46.437078 
L 100.318062 45.483739 
L 100.669749 45.172668 
L 101.823028 44.146492 
L 102.105407 43.893815 
L 103.31044 42.809246 
L 103.541065 42.600519 
L 104.780955 41.472 
" style="fill:none;stroke:#0042de;stroke-width:1.5;"/>
   </g>
   <g id="LineCollection_22">
    <path clip-path="url(#p48c5f90550)" d="M 343.296 270.285978 
L 342.078379 271.478352 
L 341.860342 271.693117 
L 340.727071 272.815598 
L 340.424683 273.11689 
L 339.390749 274.152844 
L 338.989025 274.557785 
L 338.069276 275.49009 
L 337.553367 276.016238 
L 336.762467 276.827337 
L 336.117709 277.49263 
L 335.47009 278.164583 
L 334.68205 278.987282 
L 334.191873 279.501829 
L 333.246392 280.500444 
L 332.927507 280.839075 
L 331.810734 282.032295 
L 331.676649 282.176322 
L 330.438748 283.513568 
L 330.375075 283.582705 
L 329.213161 284.850814 
L 328.939417 285.151355 
L 327.999838 286.18806 
L 327.503759 286.738619 
L 326.798331 287.525307 
L 326.068101 288.344308 
L 325.608177 288.862553 
L 324.632442 289.968135 
L 324.428901 290.199799 
L 323.259814 291.537045 
L 323.196784 291.609427 
L 322.099922 292.874291 
L 321.761126 293.266952 
L 320.94933 294.211538 
L 320.325467 294.940946 
L 319.807517 295.548784 
L 318.889809 296.630673 
L 318.673958 296.88603 
L 317.547794 298.223276 
L 317.454151 298.334787 
L 316.427992 299.560523 
L 316.018492 300.051538 
L 315.314752 300.897769 
L 314.582834 301.780972 
L 314.207533 302.235015 
L 313.147176 303.521925 
L 313.105797 303.572261 
L 312.007797 304.909508 
L 311.711518 305.271213 
L 310.913928 306.246754 
L 310.275859 307.028958 
L 309.823811 307.584 
" style="fill:none;stroke:#0038e3;stroke-width:1.5;"/>
    <path clip-path="url(#p48c5f90550)" d="M 57.6 72.649725 
L 58.195889 72.228663 
L 59.035658 71.634333 
L 60.082993 70.891417 
L 60.471317 70.615448 
L 61.906975 69.592714 
L 61.961015 69.554171 
L 63.342633 68.566499 
L 63.830091 68.216925 
L 64.778291 67.535179 
L 65.686799 66.879678 
L 66.21395 66.498249 
L 67.529891 65.542432 
L 67.649608 65.455208 
L 69.085266 64.40624 
L 69.359416 64.205186 
L 70.520925 63.350386 
L 71.173495 62.86794 
L 71.956583 62.286842 
L 72.970683 61.530693 
L 73.392241 61.215121 
L 74.750191 60.193447 
L 74.827899 60.134738 
L 76.263558 59.04579 
L 76.512271 58.856201 
L 77.699216 57.947351 
L 78.2556 57.518955 
L 79.134874 56.838781 
L 79.979457 56.181709 
L 80.570533 55.719635 
L 81.683532 54.844462 
L 82.006191 54.589483 
L 83.367624 53.507216 
L 83.441849 53.447908 
L 84.877508 52.294863 
L 85.032133 52.16997 
L 86.313166 51.12975 
L 86.676718 50.832724 
L 87.748824 49.952054 
L 88.301238 49.495477 
L 89.184482 48.761456 
L 89.905886 48.158231 
L 90.620141 47.55767 
L 91.490931 46.820985 
L 92.055799 46.34044 
L 93.056716 45.483739 
L 93.491457 45.109553 
L 94.60365 44.146492 
L 94.927116 43.864833 
L 96.132203 42.809246 
L 96.362774 42.606155 
L 97.642898 41.472 
" style="fill:none;stroke:#0038e3;stroke-width:1.5;"/>
   </g>
   <g id="LineCollection_23">
    <path clip-path="url(#p48c5f90550)" d="M 343.296 276.833793 
L 341.972531 278.164583 
L 341.860342 278.278058 
L 340.656989 279.501829 
L 340.424683 279.739482 
L 339.355625 280.839075 
L 338.989025 281.218402 
L 338.068193 282.176322 
L 337.553367 282.715092 
L 336.794409 283.513568 
L 336.117709 284.229759 
L 335.533953 284.850814 
L 334.68205 285.762535 
L 334.286475 286.18806 
L 333.246392 287.313475 
L 333.0516 287.525307 
L 331.828874 288.862553 
L 331.810734 288.882481 
L 330.617335 290.199799 
L 330.375075 290.468713 
L 329.417075 291.537045 
L 328.939417 292.072627 
L 328.227632 292.874291 
L 327.503759 293.693897 
L 327.04853 294.211538 
L 326.068101 295.332096 
L 325.879282 295.548784 
L 324.719118 296.88603 
L 324.632442 296.986299 
L 323.56715 298.223276 
L 323.196784 298.655287 
L 322.423444 299.560523 
L 321.761126 300.33913 
L 321.28748 300.897769 
L 320.325467 302.03697 
L 320.158734 302.235015 
L 319.03615 303.572261 
L 318.889809 303.74704 
L 317.919052 304.909508 
L 317.454151 305.468025 
L 316.807489 306.246754 
L 316.018492 307.199654 
L 315.700926 307.584 
" style="fill:none;stroke:#002fe8;stroke-width:1.5;"/>
    <path clip-path="url(#p48c5f90550)" d="M 57.6 67.175476 
L 58.012632 66.879678 
L 59.035658 66.144766 
L 59.871696 65.542432 
L 60.471317 65.109399 
L 61.719334 64.205186 
L 61.906975 64.068876 
L 63.342633 63.023244 
L 63.555253 62.86794 
L 64.778291 61.971872 
L 65.378042 61.530693 
L 66.21395 60.913776 
L 67.185804 60.193447 
L 67.649608 59.848469 
L 68.977619 58.856201 
L 69.085266 58.775467 
L 70.520925 57.69483 
L 70.753559 57.518955 
L 71.956583 56.605732 
L 72.512318 56.181709 
L 73.392241 55.507456 
L 74.252902 54.844462 
L 74.827899 54.399547 
L 75.974853 53.507216 
L 76.263558 53.281563 
L 77.677821 52.16997 
L 77.699216 52.153073 
L 79.134874 51.014163 
L 79.362295 50.832724 
L 80.570533 49.863936 
L 81.027373 49.495477 
L 82.006191 48.701972 
L 82.672952 48.158231 
L 83.441849 47.527918 
L 84.299088 46.820985 
L 84.877508 46.341449 
L 85.905924 45.483739 
L 86.313166 45.142269 
L 87.493682 44.146492 
L 87.748824 43.930111 
L 89.062656 42.809246 
L 89.184482 42.704747 
L 90.61321 41.472 
" style="fill:none;stroke:#002fe8;stroke-width:1.5;"/>
   </g>
   <g id="LineCollection_24">
    <path clip-path="url(#p48c5f90550)" d="M 343.296 283.287187 
L 343.075421 283.513568 
L 341.860342 284.767893 
L 341.780436 284.850814 
L 340.498723 286.18806 
L 340.424683 286.265719 
L 339.229935 287.525307 
L 338.989025 287.780761 
L 337.973951 288.862553 
L 337.553367 289.313355 
L 336.730413 290.199799 
L 336.117709 290.863516 
L 335.498934 291.537045 
L 334.68205 292.431178 
L 334.27911 292.874291 
L 333.246392 294.016184 
L 333.070514 294.211538 
L 331.872525 295.548784 
L 331.810734 295.618045 
L 330.684309 296.88603 
L 330.375075 297.235887 
L 329.505883 298.223276 
L 328.939417 298.869909 
L 328.336763 299.560523 
L 327.503759 300.519558 
L 327.176453 300.897769 
L 326.068101 302.184182 
L 326.024454 302.235015 
L 324.879436 303.572261 
L 324.632442 303.861811 
L 323.741484 304.909508 
L 323.196784 305.552437 
L 322.610218 306.246754 
L 321.761126 307.255307 
L 321.485118 307.584 
" style="fill:none;stroke:#0025ec;stroke-width:1.5;"/>
    <path clip-path="url(#p48c5f90550)" d="M 57.6 61.787781 
L 57.952882 61.530693 
L 59.035658 60.739805 
L 59.781072 60.193447 
L 60.471317 59.686086 
L 61.596116 58.856201 
L 61.906975 58.626138 
L 63.342633 57.559609 
L 63.397207 57.518955 
L 64.778291 56.486578 
L 65.184336 56.181709 
L 66.21395 55.405806 
L 66.955388 54.844462 
L 67.649608 54.316827 
L 68.709662 53.507216 
L 69.085266 53.21918 
L 70.446566 52.16997 
L 70.520925 52.112414 
L 71.956583 50.996545 
L 72.166314 50.832724 
L 73.392241 49.870797 
L 73.867965 49.495477 
L 74.827899 48.734589 
L 75.550995 48.158231 
L 76.263558 47.587527 
L 77.215238 46.820985 
L 77.699216 46.429231 
L 78.860621 45.483739 
L 79.134874 45.259343 
L 80.487159 44.146492 
L 80.570533 44.077528 
L 82.006191 42.883675 
L 82.095214 42.809246 
L 83.441849 41.677459 
L 83.68489 41.472 
" style="fill:none;stroke:#0025ec;stroke-width:1.5;"/>
   </g>
   <g id="LineCollection_25">
    <path clip-path="url(#p48c5f90550)" d="M 343.296 289.651258 
L 342.774303 290.199799 
L 341.860342 291.166222 
L 341.511375 291.537045 
L 340.424683 292.698274 
L 340.260759 292.874291 
L 339.022004 294.211538 
L 338.989025 294.247298 
L 337.794332 295.548784 
L 337.553367 295.812698 
L 336.577759 296.88603 
L 336.117709 297.394818 
L 335.371854 298.223276 
L 334.68205 298.993386 
L 334.176169 299.560523 
L 333.246392 300.608034 
L 332.990246 300.897769 
L 331.813605 302.235015 
L 331.810734 302.238289 
L 330.644961 303.572261 
L 330.375075 303.882451 
L 329.484565 304.909508 
L 328.939417 305.540876 
L 328.331915 306.246754 
L 327.503759 307.212804 
L 327.186508 307.584 
" style="fill:none;stroke:#001cf1;stroke-width:1.5;"/>
    <path clip-path="url(#p48c5f90550)" d="M 57.6 56.477212 
L 57.998514 56.181709 
L 59.035658 55.410321 
L 59.793484 54.844462 
L 60.471317 54.336684 
L 61.573958 53.507216 
L 61.906975 53.25583 
L 63.339119 52.16997 
L 63.342633 52.167295 
L 64.778291 51.071311 
L 65.089349 50.832724 
L 66.21395 49.966681 
L 66.822824 49.495477 
L 67.649608 48.852959 
L 68.539035 48.158231 
L 69.085266 47.729716 
L 70.237589 46.820985 
L 70.520925 46.596538 
L 71.91819 45.483739 
L 71.956583 45.45302 
L 73.392241 44.29918 
L 73.581212 44.146492 
L 74.827899 43.134292 
L 75.226013 42.809246 
L 76.263558 41.957935 
L 76.852467 41.472 
" style="fill:none;stroke:#001cf1;stroke-width:1.5;"/>
   </g>
   <g id="LineCollection_26">
    <path clip-path="url(#p48c5f90550)" d="M 343.296 295.928695 
L 342.40557 296.88603 
L 341.860342 297.475358 
L 341.171525 298.223276 
L 340.424683 299.038452 
L 339.948479 299.560523 
L 338.989025 300.617779 
L 338.736015 300.897769 
L 337.553367 302.213055 
L 337.533702 302.235015 
L 336.340458 303.572261 
L 336.117709 303.82304 
L 335.156341 304.909508 
L 334.68205 305.44794 
L 333.980934 306.246754 
L 333.246392 307.087261 
L 332.813755 307.584 
" style="fill:none;stroke:#0012f6;stroke-width:1.5;"/>
    <path clip-path="url(#p48c5f90550)" d="M 57.6 51.235704 
L 58.133296 50.832724 
L 59.035658 50.148533 
L 59.893259 49.495477 
L 60.471317 49.053698 
L 61.637741 48.158231 
L 61.906975 47.950751 
L 63.342633 46.839302 
L 63.366209 46.820985 
L 64.778291 45.719405 
L 65.078887 45.483739 
L 66.21395 44.590054 
L 66.774442 44.146492 
L 67.649608 43.450846 
L 68.452568 42.809246 
L 69.085266 42.301392 
L 70.113055 41.472 
" style="fill:none;stroke:#0012f6;stroke-width:1.5;"/>
   </g>
   <g id="LineCollection_27">
    <path clip-path="url(#p48c5f90550)" d="M 343.296 302.120213 
L 343.190932 302.235015 
L 341.972393 303.572261 
L 341.860342 303.695761 
L 340.763586 304.909508 
L 340.424683 305.28635 
L 339.564344 306.246754 
L 338.989025 306.891943 
L 338.374215 307.584 
" style="fill:none;stroke:#0009fb;stroke-width:1.5;"/>
    <path clip-path="url(#p48c5f90550)" d="M 57.6 46.056404 
L 58.342987 45.483739 
L 59.035658 44.947857 
L 60.066741 44.146492 
L 60.471317 43.830821 
L 61.774386 42.809246 
L 61.906975 42.704875 
L 63.342633 41.569866 
L 63.465883 41.472 
" style="fill:none;stroke:#0009fb;stroke-width:1.5;"/>
   </g>
   <g id="LineCollection_28"/>
   <g id="patch_3">
    <path d="M 57.6 307.584 
L 57.6 41.472 
" style="fill:none;stroke:#000000;stroke-linecap:square;stroke-linejoin:miter;stroke-width:0.8;"/>
   </g>
   <g id="patch_4">
    <path d="M 343.296 307.584 
L 343.296 41.472 
" style="fill:none;stroke:#000000;stroke-linecap:square;stroke-linejoin:miter;stroke-width:0.8;"/>
   </g>
   <g id="patch_5">
    <path d="M 57.6 307.584 
L 343.296 307.584 
" style="fill:none;stroke:#000000;stroke-linecap:square;stroke-linejoin:miter;stroke-width:0.8;"/>
   </g>
   <g id="patch_6">
    <path d="M 57.6 41.472 
L 343.296 41.472 
" style="fill:none;stroke:#000000;stroke-linecap:square;stroke-linejoin:miter;stroke-width:0.8;"/>
   </g>
  </g>
  <g id="axes_2">
   <g id="patch_7">
    <path clip-path="url(#p51fd1e7ca8)" d="M 361.152 307.584 
L 361.152 297.728 
L 361.152 51.328 
L 361.152 41.472 
L 374.4576 41.472 
L 374.4576 51.328 
L 374.4576 297.728 
L 374.4576 307.584 
z
" style="fill:#ffffff;stroke:#ffffff;stroke-linejoin:miter;stroke-width:0.01;"/>
   </g>
   <g id="matplotlib.axis_3"/>
   <g id="matplotlib.axis_4">
    <g id="ytick_8">
     <g id="line2d_15">
      <defs>
       <path d="M 0 0 
L 3.5 0 
" id="mc9613fe4db" style="stroke:#000000;stroke-width:0.8;"/>
      </defs>
      <g>
       <use style="stroke:#000000;stroke-width:0.8;" x="374.4576" xlink:href="#mc9613fe4db" y="287.872"/>
      </g>
     </g>
     <g id="text_15">
      <!-- 0.0 -->
      <defs>
       <path d="M 10.6875 12.40625 
L 21 12.40625 
L 21 0 
L 10.6875 0 
z
" id="DejaVuSans-46"/>
      </defs>
      <g transform="translate(381.4576 291.671219)scale(0.1 -0.1)">
       <use xlink:href="#DejaVuSans-48"/>
       <use x="63.623047" xlink:href="#DejaVuSans-46"/>
       <use x="95.410156" xlink:href="#DejaVuSans-48"/>
      </g>
     </g>
    </g>
    <g id="ytick_9">
     <g id="line2d_16">
      <g>
       <use style="stroke:#000000;stroke-width:0.8;" x="374.4576" xlink:href="#mc9613fe4db" y="258.304"/>
      </g>
     </g>
     <g id="text_16">
      <!-- 4.5 -->
      <defs>
       <path d="M 10.796875 72.90625 
L 49.515625 72.90625 
L 49.515625 64.59375 
L 19.828125 64.59375 
L 19.828125 46.734375 
Q 21.96875 47.46875 24.109375 47.828125 
Q 26.265625 48.1875 28.421875 48.1875 
Q 40.625 48.1875 47.75 41.5 
Q 54.890625 34.8125 54.890625 23.390625 
Q 54.890625 11.625 47.5625 5.09375 
Q 40.234375 -1.421875 26.90625 -1.421875 
Q 22.3125 -1.421875 17.546875 -0.640625 
Q 12.796875 0.140625 7.71875 1.703125 
L 7.71875 11.625 
Q 12.109375 9.234375 16.796875 8.0625 
Q 21.484375 6.890625 26.703125 6.890625 
Q 35.15625 6.890625 40.078125 11.328125 
Q 45.015625 15.765625 45.015625 23.390625 
Q 45.015625 31 40.078125 35.4375 
Q 35.15625 39.890625 26.703125 39.890625 
Q 22.75 39.890625 18.8125 39.015625 
Q 14.890625 38.140625 10.796875 36.28125 
z
" id="DejaVuSans-53"/>
      </defs>
      <g transform="translate(381.4576 262.103219)scale(0.1 -0.1)">
       <use xlink:href="#DejaVuSans-52"/>
       <use x="63.623047" xlink:href="#DejaVuSans-46"/>
       <use x="95.410156" xlink:href="#DejaVuSans-53"/>
      </g>
     </g>
    </g>
    <g id="ytick_10">
     <g id="line2d_17">
      <g>
       <use style="stroke:#000000;stroke-width:0.8;" x="374.4576" xlink:href="#mc9613fe4db" y="228.736"/>
      </g>
     </g>
     <g id="text_17">
      <!-- 9.0 -->
      <defs>
       <path d="M 10.984375 1.515625 
L 10.984375 10.5 
Q 14.703125 8.734375 18.5 7.8125 
Q 22.3125 6.890625 25.984375 6.890625 
Q 35.75 6.890625 40.890625 13.453125 
Q 46.046875 20.015625 46.78125 33.40625 
Q 43.953125 29.203125 39.59375 26.953125 
Q 35.25 24.703125 29.984375 24.703125 
Q 19.046875 24.703125 12.671875 31.3125 
Q 6.296875 37.9375 6.296875 49.421875 
Q 6.296875 60.640625 12.9375 67.421875 
Q 19.578125 74.21875 30.609375 74.21875 
Q 43.265625 74.21875 49.921875 64.515625 
Q 56.59375 54.828125 56.59375 36.375 
Q 56.59375 19.140625 48.40625 8.859375 
Q 40.234375 -1.421875 26.421875 -1.421875 
Q 22.703125 -1.421875 18.890625 -0.6875 
Q 15.09375 0.046875 10.984375 1.515625 
z
M 30.609375 32.421875 
Q 37.25 32.421875 41.125 36.953125 
Q 45.015625 41.5 45.015625 49.421875 
Q 45.015625 57.28125 41.125 61.84375 
Q 37.25 66.40625 30.609375 66.40625 
Q 23.96875 66.40625 20.09375 61.84375 
Q 16.21875 57.28125 16.21875 49.421875 
Q 16.21875 41.5 20.09375 36.953125 
Q 23.96875 32.421875 30.609375 32.421875 
z
" id="DejaVuSans-57"/>
      </defs>
      <g transform="translate(381.4576 232.535219)scale(0.1 -0.1)">
       <use xlink:href="#DejaVuSans-57"/>
       <use x="63.623047" xlink:href="#DejaVuSans-46"/>
       <use x="95.410156" xlink:href="#DejaVuSans-48"/>
      </g>
     </g>
    </g>
    <g id="ytick_11">
     <g id="line2d_18">
      <g>
       <use style="stroke:#000000;stroke-width:0.8;" x="374.4576" xlink:href="#mc9613fe4db" y="199.168"/>
      </g>
     </g>
     <g id="text_18">
      <!-- 13.5 -->
      <g transform="translate(381.4576 202.967219)scale(0.1 -0.1)">
       <use xlink:href="#DejaVuSans-49"/>
       <use x="63.623047" xlink:href="#DejaVuSans-51"/>
       <use x="127.246094" xlink:href="#DejaVuSans-46"/>
       <use x="159.033203" xlink:href="#DejaVuSans-53"/>
      </g>
     </g>
    </g>
    <g id="ytick_12">
     <g id="line2d_19">
      <g>
       <use style="stroke:#000000;stroke-width:0.8;" x="374.4576" xlink:href="#mc9613fe4db" y="169.6"/>
      </g>
     </g>
     <g id="text_19">
      <!-- 18.0 -->
      <defs>
       <path d="M 31.78125 34.625 
Q 24.75 34.625 20.71875 30.859375 
Q 16.703125 27.09375 16.703125 20.515625 
Q 16.703125 13.921875 20.71875 10.15625 
Q 24.75 6.390625 31.78125 6.390625 
Q 38.8125 6.390625 42.859375 10.171875 
Q 46.921875 13.96875 46.921875 20.515625 
Q 46.921875 27.09375 42.890625 30.859375 
Q 38.875 34.625 31.78125 34.625 
z
M 21.921875 38.8125 
Q 15.578125 40.375 12.03125 44.71875 
Q 8.5 49.078125 8.5 55.328125 
Q 8.5 64.0625 14.71875 69.140625 
Q 20.953125 74.21875 31.78125 74.21875 
Q 42.671875 74.21875 48.875 69.140625 
Q 55.078125 64.0625 55.078125 55.328125 
Q 55.078125 49.078125 51.53125 44.71875 
Q 48 40.375 41.703125 38.8125 
Q 48.828125 37.15625 52.796875 32.3125 
Q 56.78125 27.484375 56.78125 20.515625 
Q 56.78125 9.90625 50.3125 4.234375 
Q 43.84375 -1.421875 31.78125 -1.421875 
Q 19.734375 -1.421875 13.25 4.234375 
Q 6.78125 9.90625 6.78125 20.515625 
Q 6.78125 27.484375 10.78125 32.3125 
Q 14.796875 37.15625 21.921875 38.8125 
z
M 18.3125 54.390625 
Q 18.3125 48.734375 21.84375 45.5625 
Q 25.390625 42.390625 31.78125 42.390625 
Q 38.140625 42.390625 41.71875 45.5625 
Q 45.3125 48.734375 45.3125 54.390625 
Q 45.3125 60.0625 41.71875 63.234375 
Q 38.140625 66.40625 31.78125 66.40625 
Q 25.390625 66.40625 21.84375 63.234375 
Q 18.3125 60.0625 18.3125 54.390625 
z
" id="DejaVuSans-56"/>
      </defs>
      <g transform="translate(381.4576 173.399219)scale(0.1 -0.1)">
       <use xlink:href="#DejaVuSans-49"/>
       <use x="63.623047" xlink:href="#DejaVuSans-56"/>
       <use x="127.246094" xlink:href="#DejaVuSans-46"/>
       <use x="159.033203" xlink:href="#DejaVuSans-48"/>
      </g>
     </g>
    </g>
    <g id="ytick_13">
     <g id="line2d_20">
      <g>
       <use style="stroke:#000000;stroke-width:0.8;" x="374.4576" xlink:href="#mc9613fe4db" y="140.032"/>
      </g>
     </g>
     <g id="text_20">
      <!-- 22.5 -->
      <g transform="translate(381.4576 143.831219)scale(0.1 -0.1)">
       <use xlink:href="#DejaVuSans-50"/>
       <use x="63.623047" xlink:href="#DejaVuSans-50"/>
       <use x="127.246094" xlink:href="#DejaVuSans-46"/>
       <use x="159.033203" xlink:href="#DejaVuSans-53"/>
      </g>
     </g>
    </g>
    <g id="ytick_14">
     <g id="line2d_21">
      <g>
       <use style="stroke:#000000;stroke-width:0.8;" x="374.4576" xlink:href="#mc9613fe4db" y="110.464"/>
      </g>
     </g>
     <g id="text_21">
      <!-- 27.0 -->
      <defs>
       <path d="M 8.203125 72.90625 
L 55.078125 72.90625 
L 55.078125 68.703125 
L 28.609375 0 
L 18.3125 0 
L 43.21875 64.59375 
L 8.203125 64.59375 
z
" id="DejaVuSans-55"/>
      </defs>
      <g transform="translate(381.4576 114.263219)scale(0.1 -0.1)">
       <use xlink:href="#DejaVuSans-50"/>
       <use x="63.623047" xlink:href="#DejaVuSans-55"/>
       <use x="127.246094" xlink:href="#DejaVuSans-46"/>
       <use x="159.033203" xlink:href="#DejaVuSans-48"/>
      </g>
     </g>
    </g>
    <g id="ytick_15">
     <g id="line2d_22">
      <g>
       <use style="stroke:#000000;stroke-width:0.8;" x="374.4576" xlink:href="#mc9613fe4db" y="80.896"/>
      </g>
     </g>
     <g id="text_22">
      <!-- 31.5 -->
      <g transform="translate(381.4576 84.695219)scale(0.1 -0.1)">
       <use xlink:href="#DejaVuSans-51"/>
       <use x="63.623047" xlink:href="#DejaVuSans-49"/>
       <use x="127.246094" xlink:href="#DejaVuSans-46"/>
       <use x="159.033203" xlink:href="#DejaVuSans-53"/>
      </g>
     </g>
    </g>
    <g id="ytick_16">
     <g id="line2d_23">
      <g>
       <use style="stroke:#000000;stroke-width:0.8;" x="374.4576" xlink:href="#mc9613fe4db" y="51.328"/>
      </g>
     </g>
     <g id="text_23">
      <!-- 36.0 -->
      <defs>
       <path d="M 33.015625 40.375 
Q 26.375 40.375 22.484375 35.828125 
Q 18.609375 31.296875 18.609375 23.390625 
Q 18.609375 15.53125 22.484375 10.953125 
Q 26.375 6.390625 33.015625 6.390625 
Q 39.65625 6.390625 43.53125 10.953125 
Q 47.40625 15.53125 47.40625 23.390625 
Q 47.40625 31.296875 43.53125 35.828125 
Q 39.65625 40.375 33.015625 40.375 
z
M 52.59375 71.296875 
L 52.59375 62.3125 
Q 48.875 64.0625 45.09375 64.984375 
Q 41.3125 65.921875 37.59375 65.921875 
Q 27.828125 65.921875 22.671875 59.328125 
Q 17.53125 52.734375 16.796875 39.40625 
Q 19.671875 43.65625 24.015625 45.921875 
Q 28.375 48.1875 33.59375 48.1875 
Q 44.578125 48.1875 50.953125 41.515625 
Q 57.328125 34.859375 57.328125 23.390625 
Q 57.328125 12.15625 50.6875 5.359375 
Q 44.046875 -1.421875 33.015625 -1.421875 
Q 20.359375 -1.421875 13.671875 8.265625 
Q 6.984375 17.96875 6.984375 36.375 
Q 6.984375 53.65625 15.1875 63.9375 
Q 23.390625 74.21875 37.203125 74.21875 
Q 40.921875 74.21875 44.703125 73.484375 
Q 48.484375 72.75 52.59375 71.296875 
z
" id="DejaVuSans-54"/>
      </defs>
      <g transform="translate(381.4576 55.127219)scale(0.1 -0.1)">
       <use xlink:href="#DejaVuSans-51"/>
       <use x="63.623047" xlink:href="#DejaVuSans-54"/>
       <use x="127.246094" xlink:href="#DejaVuSans-46"/>
       <use x="159.033203" xlink:href="#DejaVuSans-48"/>
      </g>
     </g>
    </g>
   </g>
   <g id="LineCollection_29">
    <path clip-path="url(#p51fd1e7ca8)" d="M 361.152 307.584 
L 374.4576 307.584 
" style="fill:none;stroke:#00ff80;stroke-width:1.5;"/>
    <path clip-path="url(#p51fd1e7ca8)" d="M 361.152 297.728 
L 374.4576 297.728 
" style="fill:none;stroke:#00f684;stroke-width:1.5;"/>
    <path clip-path="url(#p51fd1e7ca8)" d="M 361.152 287.872 
L 374.4576 287.872 
" style="fill:none;stroke:#00ed88;stroke-width:1.5;"/>
    <path clip-path="url(#p51fd1e7ca8)" d="M 361.152 278.016 
L 374.4576 278.016 
" style="fill:none;stroke:#00e38e;stroke-width:1.5;"/>
    <path clip-path="url(#p51fd1e7ca8)" d="M 361.152 268.16 
L 374.4576 268.16 
" style="fill:none;stroke:#00da92;stroke-width:1.5;"/>
    <path clip-path="url(#p51fd1e7ca8)" d="M 361.152 258.304 
L 374.4576 258.304 
" style="fill:none;stroke:#00d097;stroke-width:1.5;"/>
    <path clip-path="url(#p51fd1e7ca8)" d="M 361.152 248.448 
L 374.4576 248.448 
" style="fill:none;stroke:#00c79c;stroke-width:1.5;"/>
    <path clip-path="url(#p51fd1e7ca8)" d="M 361.152 238.592 
L 374.4576 238.592 
" style="fill:none;stroke:#00bda0;stroke-width:1.5;"/>
    <path clip-path="url(#p51fd1e7ca8)" d="M 361.152 228.736 
L 374.4576 228.736 
" style="fill:none;stroke:#00b4a5;stroke-width:1.5;"/>
    <path clip-path="url(#p51fd1e7ca8)" d="M 361.152 218.88 
L 374.4576 218.88 
" style="fill:none;stroke:#00aaaa;stroke-width:1.5;"/>
    <path clip-path="url(#p51fd1e7ca8)" d="M 361.152 209.024 
L 374.4576 209.024 
" style="fill:none;stroke:#00a1ae;stroke-width:1.5;"/>
    <path clip-path="url(#p51fd1e7ca8)" d="M 361.152 199.168 
L 374.4576 199.168 
" style="fill:none;stroke:#0097b3;stroke-width:1.5;"/>
    <path clip-path="url(#p51fd1e7ca8)" d="M 361.152 189.312 
L 374.4576 189.312 
" style="fill:none;stroke:#008eb8;stroke-width:1.5;"/>
    <path clip-path="url(#p51fd1e7ca8)" d="M 361.152 179.456 
L 374.4576 179.456 
" style="fill:none;stroke:#0084bd;stroke-width:1.5;"/>
    <path clip-path="url(#p51fd1e7ca8)" d="M 361.152 169.6 
L 374.4576 169.6 
" style="fill:none;stroke:#007bc2;stroke-width:1.5;"/>
    <path clip-path="url(#p51fd1e7ca8)" d="M 361.152 159.744 
L 374.4576 159.744 
" style="fill:none;stroke:#0071c6;stroke-width:1.5;"/>
    <path clip-path="url(#p51fd1e7ca8)" d="M 361.152 149.888 
L 374.4576 149.888 
" style="fill:none;stroke:#0068cb;stroke-width:1.5;"/>
    <path clip-path="url(#p51fd1e7ca8)" d="M 361.152 140.032 
L 374.4576 140.032 
" style="fill:none;stroke:#005ed0;stroke-width:1.5;"/>
    <path clip-path="url(#p51fd1e7ca8)" d="M 361.152 130.176 
L 374.4576 130.176 
" style="fill:none;stroke:#0055d4;stroke-width:1.5;"/>
    <path clip-path="url(#p51fd1e7ca8)" d="M 361.152 120.32 
L 374.4576 120.32 
" style="fill:none;stroke:#004bda;stroke-width:1.5;"/>
    <path clip-path="url(#p51fd1e7ca8)" d="M 361.152 110.464 
L 374.4576 110.464 
" style="fill:none;stroke:#0042de;stroke-width:1.5;"/>
    <path clip-path="url(#p51fd1e7ca8)" d="M 361.152 100.608 
L 374.4576 100.608 
" style="fill:none;stroke:#0038e3;stroke-width:1.5;"/>
    <path clip-path="url(#p51fd1e7ca8)" d="M 361.152 90.752 
L 374.4576 90.752 
" style="fill:none;stroke:#002fe8;stroke-width:1.5;"/>
    <path clip-path="url(#p51fd1e7ca8)" d="M 361.152 80.896 
L 374.4576 80.896 
" style="fill:none;stroke:#0025ec;stroke-width:1.5;"/>
    <path clip-path="url(#p51fd1e7ca8)" d="M 361.152 71.04 
L 374.4576 71.04 
" style="fill:none;stroke:#001cf1;stroke-width:1.5;"/>
    <path clip-path="url(#p51fd1e7ca8)" d="M 361.152 61.184 
L 374.4576 61.184 
" style="fill:none;stroke:#0012f6;stroke-width:1.5;"/>
    <path clip-path="url(#p51fd1e7ca8)" d="M 361.152 51.328 
L 374.4576 51.328 
" style="fill:none;stroke:#0009fb;stroke-width:1.5;"/>
    <path clip-path="url(#p51fd1e7ca8)" d="M 361.152 41.472 
L 374.4576 41.472 
" style="fill:none;stroke:#0000ff;stroke-width:1.5;"/>
   </g>
   <g id="patch_8">
    <path d="M 361.152 307.584 
L 361.152 297.728 
L 361.152 51.328 
L 361.152 41.472 
L 374.4576 41.472 
L 374.4576 51.328 
L 374.4576 297.728 
L 374.4576 307.584 
z
" style="fill:none;stroke:#000000;stroke-linejoin:miter;stroke-width:0.8;"/>
   </g>
  </g>
 </g>
 <defs>
  <clipPath id="p48c5f90550">
   <rect height="266.112" width="285.696" x="57.6" y="41.472"/>
  </clipPath>
  <clipPath id="p51fd1e7ca8">
   <rect height="266.112" width="13.3056" x="361.152" y="41.472"/>
  </clipPath>
 </defs>
</svg>
