<?xml version="1.0" encoding="utf-8" standalone="no"?>
<!DOCTYPE svg PUBLIC "-//W3C//DTD SVG 1.1//EN"
  "http://www.w3.org/Graphics/SVG/1.1/DTD/svg11.dtd">
<!-- Created with matplotlib (https://matplotlib.org/) -->
<svg height="345.6pt" version="1.1" viewBox="0 0 460.8 345.6" width="460.8pt" xmlns="http://www.w3.org/2000/svg" xmlns:xlink="http://www.w3.org/1999/xlink">
 <defs>
  <style type="text/css">
*{stroke-linecap:butt;stroke-linejoin:round;}
  </style>
 </defs>
 <g id="figure_1">
  <g id="patch_1">
   <path d="M 0 345.6 
L 460.8 345.6 
L 460.8 0 
L 0 0 
z
" style="fill:#ffffff;"/>
  </g>
  <g id="axes_1">
   <g id="patch_2">
    <path d="M 57.6 307.584 
L 343.296 307.584 
L 343.296 41.472 
L 57.6 41.472 
z
" style="fill:#ffffff;"/>
   </g>
   <g id="matplotlib.axis_1">
    <g id="xtick_1">
     <g id="line2d_1">
      <defs>
       <path d="M 0 0 
L 0 3.5 
" id="m10cd3845a6" style="stroke:#000000;stroke-width:0.8;"/>
      </defs>
      <g>
       <use style="stroke:#000000;stroke-width:0.8;" x="57.6" xlink:href="#m10cd3845a6" y="307.584"/>
      </g>
     </g>
     <g id="text_1">
      <!-- −2.0 -->
      <defs>
       <path d="M 10.59375 35.5 
L 73.1875 35.5 
L 73.1875 27.203125 
L 10.59375 27.203125 
z
" id="DejaVuSans-8722"/>
       <path d="M 19.1875 8.296875 
L 53.609375 8.296875 
L 53.609375 0 
L 7.328125 0 
L 7.328125 8.296875 
Q 12.9375 14.109375 22.625 23.890625 
Q 32.328125 33.6875 34.8125 36.53125 
Q 39.546875 41.84375 41.421875 45.53125 
Q 43.3125 49.21875 43.3125 52.78125 
Q 43.3125 58.59375 39.234375 62.25 
Q 35.15625 65.921875 28.609375 65.921875 
Q 23.96875 65.921875 18.8125 64.3125 
Q 13.671875 62.703125 7.8125 59.421875 
L 7.8125 69.390625 
Q 13.765625 71.78125 18.9375 73 
Q 24.125 74.21875 28.421875 74.21875 
Q 39.75 74.21875 46.484375 68.546875 
Q 53.21875 62.890625 53.21875 53.421875 
Q 53.21875 48.921875 51.53125 44.890625 
Q 49.859375 40.875 45.40625 35.40625 
Q 44.1875 33.984375 37.640625 27.21875 
Q 31.109375 20.453125 19.1875 8.296875 
z
" id="DejaVuSans-50"/>
       <path d="M 10.6875 12.40625 
L 21 12.40625 
L 21 0 
L 10.6875 0 
z
" id="DejaVuSans-46"/>
       <path d="M 31.78125 66.40625 
Q 24.171875 66.40625 20.328125 58.90625 
Q 16.5 51.421875 16.5 36.375 
Q 16.5 21.390625 20.328125 13.890625 
Q 24.171875 6.390625 31.78125 6.390625 
Q 39.453125 6.390625 43.28125 13.890625 
Q 47.125 21.390625 47.125 36.375 
Q 47.125 51.421875 43.28125 58.90625 
Q 39.453125 66.40625 31.78125 66.40625 
z
M 31.78125 74.21875 
Q 44.046875 74.21875 50.515625 64.515625 
Q 56.984375 54.828125 56.984375 36.375 
Q 56.984375 17.96875 50.515625 8.265625 
Q 44.046875 -1.421875 31.78125 -1.421875 
Q 19.53125 -1.421875 13.0625 8.265625 
Q 6.59375 17.96875 6.59375 36.375 
Q 6.59375 54.828125 13.0625 64.515625 
Q 19.53125 74.21875 31.78125 74.21875 
z
" id="DejaVuSans-48"/>
      </defs>
      <g transform="translate(45.458594 322.182437)scale(0.1 -0.1)">
       <use xlink:href="#DejaVuSans-8722"/>
       <use x="83.789062" xlink:href="#DejaVuSans-50"/>
       <use x="147.412109" xlink:href="#DejaVuSans-46"/>
       <use x="179.199219" xlink:href="#DejaVuSans-48"/>
      </g>
     </g>
    </g>
    <g id="xtick_2">
     <g id="line2d_2">
      <g>
       <use style="stroke:#000000;stroke-width:0.8;" x="93.312" xlink:href="#m10cd3845a6" y="307.584"/>
      </g>
     </g>
     <g id="text_2">
      <!-- −1.5 -->
      <defs>
       <path d="M 12.40625 8.296875 
L 28.515625 8.296875 
L 28.515625 63.921875 
L 10.984375 60.40625 
L 10.984375 69.390625 
L 28.421875 72.90625 
L 38.28125 72.90625 
L 38.28125 8.296875 
L 54.390625 8.296875 
L 54.390625 0 
L 12.40625 0 
z
" id="DejaVuSans-49"/>
       <path d="M 10.796875 72.90625 
L 49.515625 72.90625 
L 49.515625 64.59375 
L 19.828125 64.59375 
L 19.828125 46.734375 
Q 21.96875 47.46875 24.109375 47.828125 
Q 26.265625 48.1875 28.421875 48.1875 
Q 40.625 48.1875 47.75 41.5 
Q 54.890625 34.8125 54.890625 23.390625 
Q 54.890625 11.625 47.5625 5.09375 
Q 40.234375 -1.421875 26.90625 -1.421875 
Q 22.3125 -1.421875 17.546875 -0.640625 
Q 12.796875 0.140625 7.71875 1.703125 
L 7.71875 11.625 
Q 12.109375 9.234375 16.796875 8.0625 
Q 21.484375 6.890625 26.703125 6.890625 
Q 35.15625 6.890625 40.078125 11.328125 
Q 45.015625 15.765625 45.015625 23.390625 
Q 45.015625 31 40.078125 35.4375 
Q 35.15625 39.890625 26.703125 39.890625 
Q 22.75 39.890625 18.8125 39.015625 
Q 14.890625 38.140625 10.796875 36.28125 
z
" id="DejaVuSans-53"/>
      </defs>
      <g transform="translate(81.170594 322.182437)scale(0.1 -0.1)">
       <use xlink:href="#DejaVuSans-8722"/>
       <use x="83.789062" xlink:href="#DejaVuSans-49"/>
       <use x="147.412109" xlink:href="#DejaVuSans-46"/>
       <use x="179.199219" xlink:href="#DejaVuSans-53"/>
      </g>
     </g>
    </g>
    <g id="xtick_3">
     <g id="line2d_3">
      <g>
       <use style="stroke:#000000;stroke-width:0.8;" x="129.024" xlink:href="#m10cd3845a6" y="307.584"/>
      </g>
     </g>
     <g id="text_3">
      <!-- −1.0 -->
      <g transform="translate(116.882594 322.182437)scale(0.1 -0.1)">
       <use xlink:href="#DejaVuSans-8722"/>
       <use x="83.789062" xlink:href="#DejaVuSans-49"/>
       <use x="147.412109" xlink:href="#DejaVuSans-46"/>
       <use x="179.199219" xlink:href="#DejaVuSans-48"/>
      </g>
     </g>
    </g>
    <g id="xtick_4">
     <g id="line2d_4">
      <g>
       <use style="stroke:#000000;stroke-width:0.8;" x="164.736" xlink:href="#m10cd3845a6" y="307.584"/>
      </g>
     </g>
     <g id="text_4">
      <!-- −0.5 -->
      <g transform="translate(152.594594 322.182437)scale(0.1 -0.1)">
       <use xlink:href="#DejaVuSans-8722"/>
       <use x="83.789062" xlink:href="#DejaVuSans-48"/>
       <use x="147.412109" xlink:href="#DejaVuSans-46"/>
       <use x="179.199219" xlink:href="#DejaVuSans-53"/>
      </g>
     </g>
    </g>
    <g id="xtick_5">
     <g id="line2d_5">
      <g>
       <use style="stroke:#000000;stroke-width:0.8;" x="200.448" xlink:href="#m10cd3845a6" y="307.584"/>
      </g>
     </g>
     <g id="text_5">
      <!-- 0.0 -->
      <g transform="translate(192.496438 322.182437)scale(0.1 -0.1)">
       <use xlink:href="#DejaVuSans-48"/>
       <use x="63.623047" xlink:href="#DejaVuSans-46"/>
       <use x="95.410156" xlink:href="#DejaVuSans-48"/>
      </g>
     </g>
    </g>
    <g id="xtick_6">
     <g id="line2d_6">
      <g>
       <use style="stroke:#000000;stroke-width:0.8;" x="236.16" xlink:href="#m10cd3845a6" y="307.584"/>
      </g>
     </g>
     <g id="text_6">
      <!-- 0.5 -->
      <g transform="translate(228.208438 322.182437)scale(0.1 -0.1)">
       <use xlink:href="#DejaVuSans-48"/>
       <use x="63.623047" xlink:href="#DejaVuSans-46"/>
       <use x="95.410156" xlink:href="#DejaVuSans-53"/>
      </g>
     </g>
    </g>
    <g id="xtick_7">
     <g id="line2d_7">
      <g>
       <use style="stroke:#000000;stroke-width:0.8;" x="271.872" xlink:href="#m10cd3845a6" y="307.584"/>
      </g>
     </g>
     <g id="text_7">
      <!-- 1.0 -->
      <g transform="translate(263.920437 322.182437)scale(0.1 -0.1)">
       <use xlink:href="#DejaVuSans-49"/>
       <use x="63.623047" xlink:href="#DejaVuSans-46"/>
       <use x="95.410156" xlink:href="#DejaVuSans-48"/>
      </g>
     </g>
    </g>
    <g id="xtick_8">
     <g id="line2d_8">
      <g>
       <use style="stroke:#000000;stroke-width:0.8;" x="307.584" xlink:href="#m10cd3845a6" y="307.584"/>
      </g>
     </g>
     <g id="text_8">
      <!-- 1.5 -->
      <g transform="translate(299.632437 322.182437)scale(0.1 -0.1)">
       <use xlink:href="#DejaVuSans-49"/>
       <use x="63.623047" xlink:href="#DejaVuSans-46"/>
       <use x="95.410156" xlink:href="#DejaVuSans-53"/>
      </g>
     </g>
    </g>
    <g id="xtick_9">
     <g id="line2d_9">
      <g>
       <use style="stroke:#000000;stroke-width:0.8;" x="343.296" xlink:href="#m10cd3845a6" y="307.584"/>
      </g>
     </g>
     <g id="text_9">
      <!-- 2.0 -->
      <g transform="translate(335.344438 322.182437)scale(0.1 -0.1)">
       <use xlink:href="#DejaVuSans-50"/>
       <use x="63.623047" xlink:href="#DejaVuSans-46"/>
       <use x="95.410156" xlink:href="#DejaVuSans-48"/>
      </g>
     </g>
    </g>
   </g>
   <g id="matplotlib.axis_2">
    <g id="ytick_1">
     <g id="line2d_10">
      <defs>
       <path d="M 0 0 
L -3.5 0 
" id="m6b1a8828bd" style="stroke:#000000;stroke-width:0.8;"/>
      </defs>
      <g>
       <use style="stroke:#000000;stroke-width:0.8;" x="57.6" xlink:href="#m6b1a8828bd" y="307.584"/>
      </g>
     </g>
     <g id="text_10">
      <!-- −2.0 -->
      <g transform="translate(26.317187 311.383219)scale(0.1 -0.1)">
       <use xlink:href="#DejaVuSans-8722"/>
       <use x="83.789062" xlink:href="#DejaVuSans-50"/>
       <use x="147.412109" xlink:href="#DejaVuSans-46"/>
       <use x="179.199219" xlink:href="#DejaVuSans-48"/>
      </g>
     </g>
    </g>
    <g id="ytick_2">
     <g id="line2d_11">
      <g>
       <use style="stroke:#000000;stroke-width:0.8;" x="57.6" xlink:href="#m6b1a8828bd" y="274.32"/>
      </g>
     </g>
     <g id="text_11">
      <!-- −1.5 -->
      <g transform="translate(26.317187 278.119219)scale(0.1 -0.1)">
       <use xlink:href="#DejaVuSans-8722"/>
       <use x="83.789062" xlink:href="#DejaVuSans-49"/>
       <use x="147.412109" xlink:href="#DejaVuSans-46"/>
       <use x="179.199219" xlink:href="#DejaVuSans-53"/>
      </g>
     </g>
    </g>
    <g id="ytick_3">
     <g id="line2d_12">
      <g>
       <use style="stroke:#000000;stroke-width:0.8;" x="57.6" xlink:href="#m6b1a8828bd" y="241.056"/>
      </g>
     </g>
     <g id="text_12">
      <!-- −1.0 -->
      <g transform="translate(26.317187 244.855219)scale(0.1 -0.1)">
       <use xlink:href="#DejaVuSans-8722"/>
       <use x="83.789062" xlink:href="#DejaVuSans-49"/>
       <use x="147.412109" xlink:href="#DejaVuSans-46"/>
       <use x="179.199219" xlink:href="#DejaVuSans-48"/>
      </g>
     </g>
    </g>
    <g id="ytick_4">
     <g id="line2d_13">
      <g>
       <use style="stroke:#000000;stroke-width:0.8;" x="57.6" xlink:href="#m6b1a8828bd" y="207.792"/>
      </g>
     </g>
     <g id="text_13">
      <!-- −0.5 -->
      <g transform="translate(26.317187 211.591219)scale(0.1 -0.1)">
       <use xlink:href="#DejaVuSans-8722"/>
       <use x="83.789062" xlink:href="#DejaVuSans-48"/>
       <use x="147.412109" xlink:href="#DejaVuSans-46"/>
       <use x="179.199219" xlink:href="#DejaVuSans-53"/>
      </g>
     </g>
    </g>
    <g id="ytick_5">
     <g id="line2d_14">
      <g>
       <use style="stroke:#000000;stroke-width:0.8;" x="57.6" xlink:href="#m6b1a8828bd" y="174.528"/>
      </g>
     </g>
     <g id="text_14">
      <!-- 0.0 -->
      <g transform="translate(34.696875 178.327219)scale(0.1 -0.1)">
       <use xlink:href="#DejaVuSans-48"/>
       <use x="63.623047" xlink:href="#DejaVuSans-46"/>
       <use x="95.410156" xlink:href="#DejaVuSans-48"/>
      </g>
     </g>
    </g>
    <g id="ytick_6">
     <g id="line2d_15">
      <g>
       <use style="stroke:#000000;stroke-width:0.8;" x="57.6" xlink:href="#m6b1a8828bd" y="141.264"/>
      </g>
     </g>
     <g id="text_15">
      <!-- 0.5 -->
      <g transform="translate(34.696875 145.063219)scale(0.1 -0.1)">
       <use xlink:href="#DejaVuSans-48"/>
       <use x="63.623047" xlink:href="#DejaVuSans-46"/>
       <use x="95.410156" xlink:href="#DejaVuSans-53"/>
      </g>
     </g>
    </g>
    <g id="ytick_7">
     <g id="line2d_16">
      <g>
       <use style="stroke:#000000;stroke-width:0.8;" x="57.6" xlink:href="#m6b1a8828bd" y="108"/>
      </g>
     </g>
     <g id="text_16">
      <!-- 1.0 -->
      <g transform="translate(34.696875 111.799219)scale(0.1 -0.1)">
       <use xlink:href="#DejaVuSans-49"/>
       <use x="63.623047" xlink:href="#DejaVuSans-46"/>
       <use x="95.410156" xlink:href="#DejaVuSans-48"/>
      </g>
     </g>
    </g>
    <g id="ytick_8">
     <g id="line2d_17">
      <g>
       <use style="stroke:#000000;stroke-width:0.8;" x="57.6" xlink:href="#m6b1a8828bd" y="74.736"/>
      </g>
     </g>
     <g id="text_17">
      <!-- 1.5 -->
      <g transform="translate(34.696875 78.535219)scale(0.1 -0.1)">
       <use xlink:href="#DejaVuSans-49"/>
       <use x="63.623047" xlink:href="#DejaVuSans-46"/>
       <use x="95.410156" xlink:href="#DejaVuSans-53"/>
      </g>
     </g>
    </g>
    <g id="ytick_9">
     <g id="line2d_18">
      <g>
       <use style="stroke:#000000;stroke-width:0.8;" x="57.6" xlink:href="#m6b1a8828bd" y="41.472"/>
      </g>
     </g>
     <g id="text_18">
      <!-- 2.0 -->
      <g transform="translate(34.696875 45.271219)scale(0.1 -0.1)">
       <use xlink:href="#DejaVuSans-50"/>
       <use x="63.623047" xlink:href="#DejaVuSans-46"/>
       <use x="95.410156" xlink:href="#DejaVuSans-48"/>
      </g>
     </g>
    </g>
   </g>
   <g id="LineCollection_1"/>
   <g id="LineCollection_2">
    <path clip-path="url(#p823b3438bc)" d="M 57.6 161.2224 
L 58.246046 161.824161 
L 59.035658 162.559646 
L 59.681705 163.161407 
L 60.471317 163.896892 
L 61.117363 164.498653 
L 61.906975 165.234139 
L 62.553021 165.835899 
L 63.342633 166.571385 
L 63.988679 167.173146 
L 64.778291 167.908631 
L 65.424338 168.510392 
L 66.21395 169.245877 
L 66.859996 169.847638 
L 67.649608 170.583124 
L 68.295654 171.184884 
L 69.085266 171.92037 
L 69.731313 172.522131 
L 70.520925 173.257616 
L 71.166971 173.859377 
L 71.166971 175.196623 
L 70.520925 175.798384 
L 69.731313 176.533869 
L 69.085266 177.13563 
L 68.295654 177.871116 
L 67.649608 178.472876 
L 66.859996 179.208362 
L 66.21395 179.810123 
L 65.424338 180.545608 
L 64.778291 181.147369 
L 63.988679 181.882854 
L 63.342633 182.484615 
L 62.553021 183.220101 
L 61.906975 183.821861 
L 61.117363 184.557347 
L 60.471317 185.159108 
L 59.681705 185.894593 
L 59.035658 186.496354 
L 58.246046 187.231839 
L 57.6 187.8336 
" style="fill:none;stroke:#00f784;stroke-width:1.5;"/>
   </g>
   <g id="LineCollection_3">
    <path clip-path="url(#p823b3438bc)" d="M 57.6 147.9168 
L 58.174263 148.451698 
L 59.035658 149.254046 
L 59.609922 149.788945 
L 60.471317 150.591292 
L 61.04558 151.126191 
L 61.906975 151.928539 
L 62.481238 152.463437 
L 63.342633 153.265785 
L 63.916896 153.800683 
L 64.778291 154.603031 
L 65.352555 155.13793 
L 66.21395 155.940277 
L 66.788213 156.475176 
L 67.649608 157.277524 
L 68.223871 157.812422 
L 69.085266 158.61477 
L 69.65953 159.149668 
L 70.520925 159.952016 
L 71.095188 160.486915 
L 71.956583 161.289262 
L 72.530846 161.824161 
L 73.392241 162.626509 
L 73.966505 163.161407 
L 74.827899 163.963755 
L 75.402163 164.498653 
L 76.263558 165.301001 
L 76.837821 165.835899 
L 77.699216 166.638247 
L 78.273479 167.173146 
L 79.134874 167.975493 
L 79.709138 168.510392 
L 80.570533 169.31274 
L 81.144796 169.847638 
L 82.006191 170.649986 
L 82.580454 171.184884 
L 83.441849 171.987232 
L 84.016113 172.522131 
L 84.877508 173.324478 
L 85.451771 173.859377 
L 85.451771 175.196623 
L 84.877508 175.731522 
L 84.016113 176.533869 
L 83.441849 177.068768 
L 82.580454 177.871116 
L 82.006191 178.406014 
L 81.144796 179.208362 
L 80.570533 179.74326 
L 79.709138 180.545608 
L 79.134874 181.080507 
L 78.273479 181.882854 
L 77.699216 182.417753 
L 76.837821 183.220101 
L 76.263558 183.754999 
L 75.402163 184.557347 
L 74.827899 185.092245 
L 73.966505 185.894593 
L 73.392241 186.429491 
L 72.530846 187.231839 
L 71.956583 187.766738 
L 71.095188 188.569085 
L 70.520925 189.103984 
L 69.65953 189.906332 
L 69.085266 190.44123 
L 68.223871 191.243578 
L 67.649608 191.778476 
L 66.788213 192.580824 
L 66.21395 193.115723 
L 65.352555 193.91807 
L 64.778291 194.452969 
L 63.916896 195.255317 
L 63.342633 195.790215 
L 62.481238 196.592563 
L 61.906975 197.127461 
L 61.04558 197.929809 
L 60.471317 198.464708 
L 59.609922 199.267055 
L 59.035658 199.801954 
L 58.174263 200.604302 
L 57.6 201.1392 
" style="fill:none;stroke:#00ee88;stroke-width:1.5;"/>
   </g>
   <g id="LineCollection_4">
    <path clip-path="url(#p823b3438bc)" d="M 57.6 134.6112 
L 58.10248 135.079236 
L 59.035658 135.948446 
L 59.538139 136.416482 
L 60.471317 137.285692 
L 60.973797 137.753729 
L 61.906975 138.622939 
L 62.409455 139.090975 
L 63.342633 139.960185 
L 63.845114 140.428221 
L 64.778291 141.297431 
L 65.280772 141.765467 
L 66.21395 142.634677 
L 66.71643 143.102714 
L 67.649608 143.971924 
L 68.152088 144.43996 
L 69.085266 145.30917 
L 69.587747 145.777206 
L 70.520925 146.646416 
L 71.023405 147.114452 
L 71.956583 147.983662 
L 72.459063 148.451698 
L 73.392241 149.320909 
L 73.894722 149.788945 
L 74.827899 150.658155 
L 75.33038 151.126191 
L 76.263558 151.995401 
L 76.766038 152.463437 
L 77.699216 153.332647 
L 78.201696 153.800683 
L 79.134874 154.669893 
L 79.637355 155.13793 
L 80.570533 156.00714 
L 81.073013 156.475176 
L 82.006191 157.344386 
L 82.508671 157.812422 
L 83.441849 158.681632 
L 83.94433 159.149668 
L 84.877508 160.018878 
L 85.379988 160.486915 
L 86.313166 161.356125 
L 86.815646 161.824161 
L 87.748824 162.693371 
L 88.251305 163.161407 
L 89.184482 164.030617 
L 89.686963 164.498653 
L 90.620141 165.367863 
L 91.122621 165.835899 
L 92.055799 166.70511 
L 92.558279 167.173146 
L 93.491457 168.042356 
L 93.993938 168.510392 
L 94.927116 169.379602 
L 95.429596 169.847638 
L 96.362774 170.716848 
L 96.865254 171.184884 
L 97.798432 172.054094 
L 98.300913 172.522131 
L 99.23409 173.391341 
L 99.736571 173.859377 
L 99.736571 175.196623 
L 99.23409 175.664659 
L 98.300913 176.533869 
L 97.798432 177.001906 
L 96.865254 177.871116 
L 96.362774 178.339152 
L 95.429596 179.208362 
L 94.927116 179.676398 
L 93.993938 180.545608 
L 93.491457 181.013644 
L 92.558279 181.882854 
L 92.055799 182.35089 
L 91.122621 183.220101 
L 90.620141 183.688137 
L 89.686963 184.557347 
L 89.184482 185.025383 
L 88.251305 185.894593 
L 87.748824 186.362629 
L 86.815646 187.231839 
L 86.313166 187.699875 
L 85.379988 188.569085 
L 84.877508 189.037122 
L 83.94433 189.906332 
L 83.441849 190.374368 
L 82.508671 191.243578 
L 82.006191 191.711614 
L 81.073013 192.580824 
L 80.570533 193.04886 
L 79.637355 193.91807 
L 79.134874 194.386107 
L 78.201696 195.255317 
L 77.699216 195.723353 
L 76.766038 196.592563 
L 76.263558 197.060599 
L 75.33038 197.929809 
L 74.827899 198.397845 
L 73.894722 199.267055 
L 73.392241 199.735091 
L 72.459063 200.604302 
L 71.956583 201.072338 
L 71.023405 201.941548 
L 70.520925 202.409584 
L 69.587747 203.278794 
L 69.085266 203.74683 
L 68.152088 204.61604 
L 67.649608 205.084076 
L 66.71643 205.953286 
L 66.21395 206.421323 
L 65.280772 207.290533 
L 64.778291 207.758569 
L 63.845114 208.627779 
L 63.342633 209.095815 
L 62.409455 209.965025 
L 61.906975 210.433061 
L 60.973797 211.302271 
L 60.471317 211.770308 
L 59.538139 212.639518 
L 59.035658 213.107554 
L 58.10248 213.976764 
L 57.6 214.4448 
" style="fill:none;stroke:#00e68c;stroke-width:1.5;"/>
   </g>
   <g id="LineCollection_5">
    <path clip-path="url(#p823b3438bc)" d="M 57.6 121.3056 
L 114.021371 173.859377 
L 114.021371 175.196623 
L 57.6 227.7504 
L 57.6 227.7504 
" style="fill:none;stroke:#00dd90;stroke-width:1.5;"/>
   </g>
   <g id="LineCollection_6">
    <path clip-path="url(#p823b3438bc)" d="M 57.6 108 
L 128.306171 173.859377 
L 128.306171 175.196623 
L 57.6 241.056 
L 57.6 241.056 
" style="fill:none;stroke:#00d594;stroke-width:1.5;"/>
   </g>
   <g id="LineCollection_7">
    <path clip-path="url(#p823b3438bc)" d="M 57.6 94.6944 
L 142.590971 173.859377 
L 142.590971 175.196623 
L 57.6 254.3616 
L 57.6 254.3616 
" style="fill:none;stroke:#00cc99;stroke-width:1.5;"/>
   </g>
   <g id="LineCollection_8">
    <path clip-path="url(#p823b3438bc)" d="M 57.6 81.3888 
L 156.875771 173.859377 
L 156.875771 175.196623 
L 57.6 267.6672 
L 57.6 267.6672 
" style="fill:none;stroke:#00c49d;stroke-width:1.5;"/>
   </g>
   <g id="LineCollection_9">
    <path clip-path="url(#p823b3438bc)" d="M 57.6 68.0832 
L 171.160571 173.859377 
L 171.160571 175.196623 
L 57.6 280.9728 
L 57.6 280.9728 
" style="fill:none;stroke:#00bba2;stroke-width:1.5;"/>
   </g>
   <g id="LineCollection_10">
    <path clip-path="url(#p823b3438bc)" d="M 57.6 54.7776 
L 185.445371 173.859377 
L 185.373588 175.263485 
L 57.6 294.2784 
L 57.6 294.2784 
" style="fill:none;stroke:#00b3a6;stroke-width:1.5;"/>
   </g>
   <g id="LineCollection_11">
    <path clip-path="url(#p823b3438bc)" d="M 57.6 41.472 
L 199.730171 173.859377 
L 199.730171 173.859377 
L 199.730171 175.196623 
L 57.6 307.584 
L 57.6 307.584 
" style="fill:none;stroke:#00aaaa;stroke-width:1.5;"/>
   </g>
   <g id="LineCollection_12">
    <path clip-path="url(#p823b3438bc)" d="M 71.8848 41.472 
L 214.014971 173.859377 
L 214.014971 175.196623 
L 71.8848 307.584 
L 71.8848 307.584 
" style="fill:none;stroke:#00a2ae;stroke-width:1.5;"/>
   </g>
   <g id="LineCollection_13">
    <path clip-path="url(#p823b3438bc)" d="M 86.1696 41.472 
L 228.299771 173.859377 
L 228.299771 175.196623 
L 86.1696 307.584 
L 86.1696 307.584 
" style="fill:none;stroke:#0099b2;stroke-width:1.5;"/>
   </g>
   <g id="LineCollection_14">
    <path clip-path="url(#p823b3438bc)" d="M 100.4544 41.472 
L 242.584571 173.859377 
L 242.584571 175.196623 
L 100.4544 307.584 
L 100.4544 307.584 
" style="fill:none;stroke:#0091b6;stroke-width:1.5;"/>
   </g>
   <g id="LineCollection_15">
    <path clip-path="url(#p823b3438bc)" d="M 114.7392 41.472 
L 256.869371 173.859377 
L 256.869371 175.196623 
L 114.7392 307.584 
L 114.7392 307.584 
" style="fill:none;stroke:#0088bb;stroke-width:1.5;"/>
   </g>
   <g id="LineCollection_16">
    <path clip-path="url(#p823b3438bc)" d="M 129.024 41.472 
L 271.154171 173.859377 
L 271.154171 175.196623 
L 129.024 307.584 
L 129.024 307.584 
" style="fill:none;stroke:#007fc0;stroke-width:1.5;"/>
   </g>
   <g id="LineCollection_17">
    <path clip-path="url(#p823b3438bc)" d="M 143.3088 41.472 
L 285.438971 173.859377 
L 285.438971 175.196623 
L 143.3088 307.584 
L 143.3088 307.584 
" style="fill:none;stroke:#0077c3;stroke-width:1.5;"/>
   </g>
   <g id="LineCollection_18">
    <path clip-path="url(#p823b3438bc)" d="M 157.5936 41.472 
L 299.723771 173.859377 
L 299.723771 175.196623 
L 157.5936 307.584 
L 157.5936 307.584 
" style="fill:none;stroke:#006ec8;stroke-width:1.5;"/>
   </g>
   <g id="LineCollection_19">
    <path clip-path="url(#p823b3438bc)" d="M 171.8784 41.472 
L 314.008571 173.859377 
L 314.008571 175.196623 
L 171.8784 307.584 
L 171.8784 307.584 
" style="fill:none;stroke:#0066cc;stroke-width:1.5;"/>
   </g>
   <g id="LineCollection_20">
    <path clip-path="url(#p823b3438bc)" d="M 186.1632 41.472 
L 328.293371 173.859377 
L 328.293371 175.196623 
L 186.1632 307.584 
L 186.1632 307.584 
" style="fill:none;stroke:#005dd0;stroke-width:1.5;"/>
   </g>
   <g id="LineCollection_21">
    <path clip-path="url(#p823b3438bc)" d="M 200.448 41.472 
L 342.578171 173.859377 
L 342.578171 175.196623 
L 200.448 307.584 
L 200.448 307.584 
" style="fill:none;stroke:#0055d4;stroke-width:1.5;"/>
   </g>
   <g id="LineCollection_22">
    <path clip-path="url(#p823b3438bc)" d="M 343.296 187.8336 
L 214.7328 307.584 
L 214.7328 307.584 
" style="fill:none;stroke:#004cd9;stroke-width:1.5;"/>
    <path clip-path="url(#p823b3438bc)" d="M 214.7328 41.472 
L 343.296 161.2224 
L 343.296 161.2224 
" style="fill:none;stroke:#004cd9;stroke-width:1.5;"/>
   </g>
   <g id="LineCollection_23">
    <path clip-path="url(#p823b3438bc)" d="M 343.296 201.1392 
L 229.0176 307.584 
L 229.0176 307.584 
" style="fill:none;stroke:#0044dd;stroke-width:1.5;"/>
    <path clip-path="url(#p823b3438bc)" d="M 229.0176 41.472 
L 343.296 147.9168 
L 343.296 147.9168 
" style="fill:none;stroke:#0044dd;stroke-width:1.5;"/>
   </g>
   <g id="LineCollection_24">
    <path clip-path="url(#p823b3438bc)" d="M 343.296 214.4448 
L 243.3024 307.584 
L 243.3024 307.584 
" style="fill:none;stroke:#003be2;stroke-width:1.5;"/>
    <path clip-path="url(#p823b3438bc)" d="M 243.3024 41.472 
L 343.296 134.6112 
L 343.296 134.6112 
" style="fill:none;stroke:#003be2;stroke-width:1.5;"/>
   </g>
   <g id="LineCollection_25">
    <path clip-path="url(#p823b3438bc)" d="M 343.296 227.7504 
L 342.291039 228.686472 
L 341.860342 229.087646 
L 340.855381 230.023719 
L 340.424683 230.424892 
L 339.419723 231.360965 
L 338.989025 231.762139 
L 337.984064 232.698211 
L 337.553367 233.099385 
L 336.548406 234.035457 
L 336.117709 234.436631 
L 335.112748 235.372704 
L 334.68205 235.773877 
L 333.677089 236.70995 
L 333.246392 237.111124 
L 332.241431 238.047196 
L 331.810734 238.44837 
L 330.805773 239.384442 
L 330.375075 239.785616 
L 329.370115 240.721688 
L 328.939417 241.122862 
L 327.934456 242.058935 
L 327.503759 242.460109 
L 326.498798 243.396181 
L 326.068101 243.797355 
L 325.06314 244.733427 
L 324.632442 245.134601 
L 323.627481 246.070673 
L 323.196784 246.471847 
L 322.191823 247.40792 
L 321.761126 247.809093 
L 320.756165 248.745166 
L 320.325467 249.14634 
L 319.320507 250.082412 
L 318.889809 250.483586 
L 317.884848 251.419658 
L 317.454151 251.820832 
L 316.44919 252.756905 
L 316.018492 253.158078 
L 315.013532 254.094151 
L 314.582834 254.495325 
L 313.577873 255.431397 
L 313.147176 255.832571 
L 312.142215 256.768643 
L 311.711518 257.169817 
L 310.706557 258.105889 
L 310.275859 258.507063 
L 309.270898 259.443136 
L 308.840201 259.84431 
L 307.83524 260.780382 
L 307.404543 261.181556 
L 306.399582 262.117628 
L 305.968884 262.518802 
L 304.963924 263.454874 
L 304.533226 263.856048 
L 303.528265 264.792121 
L 303.097568 265.193294 
L 302.092607 266.129367 
L 301.66191 266.530541 
L 300.656949 267.466613 
L 300.226251 267.867787 
L 299.22129 268.803859 
L 298.790593 269.205033 
L 297.785632 270.141106 
L 297.354935 270.542279 
L 296.349974 271.478352 
L 295.919276 271.879526 
L 294.914316 272.815598 
L 294.483618 273.216772 
L 293.478657 274.152844 
L 293.04796 274.554018 
L 292.042999 275.49009 
L 291.612302 275.891264 
L 290.607341 276.827337 
L 290.176643 277.228511 
L 289.171682 278.164583 
L 288.740985 278.565757 
L 287.736024 279.501829 
L 287.305327 279.903003 
L 286.300366 280.839075 
L 285.869668 281.240249 
L 284.864708 282.176322 
L 284.43401 282.577495 
L 283.429049 283.513568 
L 282.998352 283.914742 
L 281.993391 284.850814 
L 281.562693 285.251988 
L 280.557733 286.18806 
L 280.127035 286.589234 
L 279.122074 287.525307 
L 278.691377 287.92648 
L 277.686416 288.862553 
L 277.255719 289.263727 
L 276.250758 290.199799 
L 275.82006 290.600973 
L 274.815099 291.537045 
L 274.384402 291.938219 
L 273.379441 292.874291 
L 272.948744 293.275465 
L 271.943783 294.211538 
L 271.513085 294.612712 
L 270.508125 295.548784 
L 270.077427 295.949958 
L 269.072466 296.88603 
L 268.641769 297.287204 
L 267.636808 298.223276 
L 267.206111 298.62445 
L 266.20115 299.560523 
L 265.770452 299.961696 
L 264.765491 300.897769 
L 264.334794 301.298943 
L 263.329833 302.235015 
L 262.899136 302.636189 
L 261.894175 303.572261 
L 261.463477 303.973435 
L 260.458517 304.909508 
L 260.027819 305.310681 
L 259.022858 306.246754 
L 258.592161 306.647928 
L 257.5872 307.584 
" style="fill:none;stroke:#0033e6;stroke-width:1.5;"/>
    <path clip-path="url(#p823b3438bc)" d="M 257.5872 41.472 
L 258.592161 42.408072 
L 259.022858 42.809246 
L 260.027819 43.745319 
L 260.458517 44.146492 
L 261.463477 45.082565 
L 261.894175 45.483739 
L 262.899136 46.419811 
L 263.329833 46.820985 
L 264.334794 47.757057 
L 264.765491 48.158231 
L 265.770452 49.094304 
L 266.20115 49.495477 
L 267.206111 50.43155 
L 267.636808 50.832724 
L 268.641769 51.768796 
L 269.072466 52.16997 
L 270.077427 53.106042 
L 270.508125 53.507216 
L 271.513085 54.443288 
L 271.943783 54.844462 
L 272.948744 55.780535 
L 273.379441 56.181709 
L 274.384402 57.117781 
L 274.815099 57.518955 
L 275.82006 58.455027 
L 276.250758 58.856201 
L 277.255719 59.792273 
L 277.686416 60.193447 
L 278.691377 61.12952 
L 279.122074 61.530693 
L 280.127035 62.466766 
L 280.557733 62.86794 
L 281.562693 63.804012 
L 281.993391 64.205186 
L 282.998352 65.141258 
L 283.429049 65.542432 
L 284.43401 66.478505 
L 284.864708 66.879678 
L 285.869668 67.815751 
L 286.300366 68.216925 
L 287.305327 69.152997 
L 287.736024 69.554171 
L 288.740985 70.490243 
L 289.171682 70.891417 
L 290.176643 71.827489 
L 290.607341 72.228663 
L 291.612302 73.164736 
L 292.042999 73.56591 
L 293.04796 74.501982 
L 293.478657 74.903156 
L 294.483618 75.839228 
L 294.914316 76.240402 
L 295.919276 77.176474 
L 296.349974 77.577648 
L 297.354935 78.513721 
L 297.785632 78.914894 
L 298.790593 79.850967 
L 299.22129 80.252141 
L 300.226251 81.188213 
L 300.656949 81.589387 
L 301.66191 82.525459 
L 302.092607 82.926633 
L 303.097568 83.862706 
L 303.528265 84.263879 
L 304.533226 85.199952 
L 304.963924 85.601126 
L 305.968884 86.537198 
L 306.399582 86.938372 
L 307.404543 87.874444 
L 307.83524 88.275618 
L 308.840201 89.21169 
L 309.270898 89.612864 
L 310.275859 90.548937 
L 310.706557 90.950111 
L 311.711518 91.886183 
L 312.142215 92.287357 
L 313.147176 93.223429 
L 313.577873 93.624603 
L 314.582834 94.560675 
L 315.013532 94.961849 
L 316.018492 95.897922 
L 316.44919 96.299095 
L 317.454151 97.235168 
L 317.884848 97.636342 
L 318.889809 98.572414 
L 319.320507 98.973588 
L 320.325467 99.90966 
L 320.756165 100.310834 
L 321.761126 101.246907 
L 322.191823 101.64808 
L 323.196784 102.584153 
L 323.627481 102.985327 
L 324.632442 103.921399 
L 325.06314 104.322573 
L 326.068101 105.258645 
L 326.498798 105.659819 
L 327.503759 106.595891 
L 327.934456 106.997065 
L 328.939417 107.933138 
L 329.370115 108.334312 
L 330.375075 109.270384 
L 330.805773 109.671558 
L 331.810734 110.60763 
L 332.241431 111.008804 
L 333.246392 111.944876 
L 333.677089 112.34605 
L 334.68205 113.282123 
L 335.112748 113.683296 
L 336.117709 114.619369 
L 336.548406 115.020543 
L 337.553367 115.956615 
L 337.984064 116.357789 
L 338.989025 117.293861 
L 339.419723 117.695035 
L 340.424683 118.631108 
L 340.855381 119.032281 
L 341.860342 119.968354 
L 342.291039 120.369528 
L 343.296 121.3056 
" style="fill:none;stroke:#0033e6;stroke-width:1.5;"/>
   </g>
   <g id="LineCollection_26">
    <path clip-path="url(#p823b3438bc)" d="M 343.296 241.056 
L 342.219256 242.058935 
L 341.860342 242.393246 
L 340.783598 243.396181 
L 340.424683 243.730492 
L 339.34794 244.733427 
L 338.989025 245.067739 
L 337.912281 246.070673 
L 337.553367 246.404985 
L 336.476623 247.40792 
L 336.117709 247.742231 
L 335.040965 248.745166 
L 334.68205 249.079477 
L 333.605307 250.082412 
L 333.246392 250.416724 
L 332.169648 251.419658 
L 331.810734 251.75397 
L 330.73399 252.756905 
L 330.375075 253.091216 
L 329.298332 254.094151 
L 328.939417 254.428462 
L 327.862673 255.431397 
L 327.503759 255.765709 
L 326.427015 256.768643 
L 326.068101 257.102955 
L 324.991357 258.105889 
L 324.632442 258.440201 
L 323.555698 259.443136 
L 323.196784 259.777447 
L 322.12004 260.780382 
L 321.761126 261.114693 
L 320.684382 262.117628 
L 320.325467 262.45194 
L 319.248724 263.454874 
L 318.889809 263.789186 
L 317.813065 264.792121 
L 317.454151 265.126432 
L 316.377407 266.129367 
L 316.018492 266.463678 
L 314.941749 267.466613 
L 314.582834 267.800925 
L 313.50609 268.803859 
L 313.147176 269.138171 
L 312.070432 270.141106 
L 311.711518 270.475417 
L 310.634774 271.478352 
L 310.275859 271.812663 
L 309.199116 272.815598 
L 308.840201 273.14991 
L 307.763457 274.152844 
L 307.404543 274.487156 
L 306.327799 275.49009 
L 305.968884 275.824402 
L 304.892141 276.827337 
L 304.533226 277.161648 
L 303.456482 278.164583 
L 303.097568 278.498894 
L 302.020824 279.501829 
L 301.66191 279.836141 
L 300.585166 280.839075 
L 300.226251 281.173387 
L 299.149508 282.176322 
L 298.790593 282.510633 
L 297.713849 283.513568 
L 297.354935 283.847879 
L 296.278191 284.850814 
L 295.919276 285.185126 
L 294.842533 286.18806 
L 294.483618 286.522372 
L 293.406874 287.525307 
L 293.04796 287.859618 
L 291.971216 288.862553 
L 291.612302 289.196864 
L 290.535558 290.199799 
L 290.176643 290.534111 
L 289.099899 291.537045 
L 288.740985 291.871357 
L 287.664241 292.874291 
L 287.305327 293.208603 
L 286.228583 294.211538 
L 285.869668 294.545849 
L 284.792925 295.548784 
L 284.43401 295.883095 
L 283.357266 296.88603 
L 282.998352 297.220342 
L 281.921608 298.223276 
L 281.562693 298.557588 
L 280.48595 299.560523 
L 280.127035 299.894834 
L 279.050291 300.897769 
L 278.691377 301.23208 
L 277.614633 302.235015 
L 277.255719 302.569327 
L 276.178975 303.572261 
L 275.82006 303.906573 
L 274.743317 304.909508 
L 274.384402 305.243819 
L 273.307658 306.246754 
L 272.948744 306.581065 
L 271.872 307.584 
" style="fill:none;stroke:#002aea;stroke-width:1.5;"/>
    <path clip-path="url(#p823b3438bc)" d="M 271.872 41.472 
L 272.948744 42.474935 
L 273.307658 42.809246 
L 274.384402 43.812181 
L 274.743317 44.146492 
L 275.82006 45.149427 
L 276.178975 45.483739 
L 277.255719 46.486673 
L 277.614633 46.820985 
L 278.691377 47.82392 
L 279.050291 48.158231 
L 280.127035 49.161166 
L 280.48595 49.495477 
L 281.562693 50.498412 
L 281.921608 50.832724 
L 282.998352 51.835658 
L 283.357266 52.16997 
L 284.43401 53.172905 
L 284.792925 53.507216 
L 285.869668 54.510151 
L 286.228583 54.844462 
L 287.305327 55.847397 
L 287.664241 56.181709 
L 288.740985 57.184643 
L 289.099899 57.518955 
L 290.176643 58.521889 
L 290.535558 58.856201 
L 291.612302 59.859136 
L 291.971216 60.193447 
L 293.04796 61.196382 
L 293.406874 61.530693 
L 294.483618 62.533628 
L 294.842533 62.86794 
L 295.919276 63.870874 
L 296.278191 64.205186 
L 297.354935 65.208121 
L 297.713849 65.542432 
L 298.790593 66.545367 
L 299.149508 66.879678 
L 300.226251 67.882613 
L 300.585166 68.216925 
L 301.66191 69.219859 
L 302.020824 69.554171 
L 303.097568 70.557106 
L 303.456482 70.891417 
L 304.533226 71.894352 
L 304.892141 72.228663 
L 305.968884 73.231598 
L 306.327799 73.56591 
L 307.404543 74.568844 
L 307.763457 74.903156 
L 308.840201 75.90609 
L 309.199116 76.240402 
L 310.275859 77.243337 
L 310.634774 77.577648 
L 311.711518 78.580583 
L 312.070432 78.914894 
L 313.147176 79.917829 
L 313.50609 80.252141 
L 314.582834 81.255075 
L 314.941749 81.589387 
L 316.018492 82.592322 
L 316.377407 82.926633 
L 317.454151 83.929568 
L 317.813065 84.263879 
L 318.889809 85.266814 
L 319.248724 85.601126 
L 320.325467 86.60406 
L 320.684382 86.938372 
L 321.761126 87.941307 
L 322.12004 88.275618 
L 323.196784 89.278553 
L 323.555698 89.612864 
L 324.632442 90.615799 
L 324.991357 90.950111 
L 326.068101 91.953045 
L 326.427015 92.287357 
L 327.503759 93.290291 
L 327.862673 93.624603 
L 328.939417 94.627538 
L 329.298332 94.961849 
L 330.375075 95.964784 
L 330.73399 96.299095 
L 331.810734 97.30203 
L 332.169648 97.636342 
L 333.246392 98.639276 
L 333.605307 98.973588 
L 334.68205 99.976523 
L 335.040965 100.310834 
L 336.117709 101.313769 
L 336.476623 101.64808 
L 337.553367 102.651015 
L 337.912281 102.985327 
L 338.989025 103.988261 
L 339.34794 104.322573 
L 340.424683 105.325508 
L 340.783598 105.659819 
L 341.860342 106.662754 
L 342.219256 106.997065 
L 343.296 108 
" style="fill:none;stroke:#002aea;stroke-width:1.5;"/>
   </g>
   <g id="LineCollection_27">
    <path clip-path="url(#p823b3438bc)" d="M 343.296 254.3616 
L 342.147473 255.431397 
L 341.860342 255.698846 
L 340.711815 256.768643 
L 340.424683 257.036092 
L 339.276157 258.105889 
L 338.989025 258.373339 
L 337.840498 259.443136 
L 337.553367 259.710585 
L 336.40484 260.780382 
L 336.117709 261.047831 
L 334.969182 262.117628 
L 334.68205 262.385077 
L 333.533524 263.454874 
L 333.246392 263.722324 
L 332.097865 264.792121 
L 331.810734 265.05957 
L 330.662207 266.129367 
L 330.375075 266.396816 
L 329.226549 267.466613 
L 328.939417 267.734062 
L 327.79089 268.803859 
L 327.503759 269.071309 
L 326.355232 270.141106 
L 326.068101 270.408555 
L 324.919574 271.478352 
L 324.632442 271.745801 
L 323.483916 272.815598 
L 323.196784 273.083047 
L 322.048257 274.152844 
L 321.761126 274.420293 
L 320.612599 275.49009 
L 320.325467 275.75754 
L 319.176941 276.827337 
L 318.889809 277.094786 
L 317.741282 278.164583 
L 317.454151 278.432032 
L 316.305624 279.501829 
L 316.018492 279.769278 
L 314.869966 280.839075 
L 314.582834 281.106525 
L 313.434308 282.176322 
L 313.147176 282.443771 
L 311.998649 283.513568 
L 311.711518 283.781017 
L 310.562991 284.850814 
L 310.275859 285.118263 
L 309.127333 286.18806 
L 308.840201 286.45551 
L 307.691674 287.525307 
L 307.404543 287.792756 
L 306.256016 288.862553 
L 305.968884 289.130002 
L 304.820358 290.199799 
L 304.533226 290.467248 
L 303.384699 291.537045 
L 303.097568 291.804494 
L 301.949041 292.874291 
L 301.66191 293.141741 
L 300.513383 294.211538 
L 300.226251 294.478987 
L 299.077725 295.548784 
L 298.790593 295.816233 
L 297.642066 296.88603 
L 297.354935 297.153479 
L 296.206408 298.223276 
L 295.919276 298.490726 
L 294.77075 299.560523 
L 294.483618 299.827972 
L 293.335091 300.897769 
L 293.04796 301.165218 
L 291.899433 302.235015 
L 291.612302 302.502464 
L 290.463775 303.572261 
L 290.176643 303.839711 
L 289.028117 304.909508 
L 288.740985 305.176957 
L 287.592458 306.246754 
L 287.305327 306.514203 
L 286.1568 307.584 
" style="fill:none;stroke:#0022ee;stroke-width:1.5;"/>
    <path clip-path="url(#p823b3438bc)" d="M 286.1568 41.472 
L 287.305327 42.541797 
L 287.592458 42.809246 
L 288.740985 43.879043 
L 289.028117 44.146492 
L 290.176643 45.216289 
L 290.463775 45.483739 
L 291.612302 46.553536 
L 291.899433 46.820985 
L 293.04796 47.890782 
L 293.335091 48.158231 
L 294.483618 49.228028 
L 294.77075 49.495477 
L 295.919276 50.565274 
L 296.206408 50.832724 
L 297.354935 51.902521 
L 297.642066 52.16997 
L 298.790593 53.239767 
L 299.077725 53.507216 
L 300.226251 54.577013 
L 300.513383 54.844462 
L 301.66191 55.914259 
L 301.949041 56.181709 
L 303.097568 57.251506 
L 303.384699 57.518955 
L 304.533226 58.588752 
L 304.820358 58.856201 
L 305.968884 59.925998 
L 306.256016 60.193447 
L 307.404543 61.263244 
L 307.691674 61.530693 
L 308.840201 62.60049 
L 309.127333 62.86794 
L 310.275859 63.937737 
L 310.562991 64.205186 
L 311.711518 65.274983 
L 311.998649 65.542432 
L 313.147176 66.612229 
L 313.434308 66.879678 
L 314.582834 67.949475 
L 314.869966 68.216925 
L 316.018492 69.286722 
L 316.305624 69.554171 
L 317.454151 70.623968 
L 317.741282 70.891417 
L 318.889809 71.961214 
L 319.176941 72.228663 
L 320.325467 73.29846 
L 320.612599 73.56591 
L 321.761126 74.635707 
L 322.048257 74.903156 
L 323.196784 75.972953 
L 323.483916 76.240402 
L 324.632442 77.310199 
L 324.919574 77.577648 
L 326.068101 78.647445 
L 326.355232 78.914894 
L 327.503759 79.984691 
L 327.79089 80.252141 
L 328.939417 81.321938 
L 329.226549 81.589387 
L 330.375075 82.659184 
L 330.662207 82.926633 
L 331.810734 83.99643 
L 332.097865 84.263879 
L 333.246392 85.333676 
L 333.533524 85.601126 
L 334.68205 86.670923 
L 334.969182 86.938372 
L 336.117709 88.008169 
L 336.40484 88.275618 
L 337.553367 89.345415 
L 337.840498 89.612864 
L 338.989025 90.682661 
L 339.276157 90.950111 
L 340.424683 92.019908 
L 340.711815 92.287357 
L 341.860342 93.357154 
L 342.147473 93.624603 
L 343.296 94.6944 
" style="fill:none;stroke:#0022ee;stroke-width:1.5;"/>
   </g>
   <g id="LineCollection_28">
    <path clip-path="url(#p823b3438bc)" d="M 343.296 267.6672 
L 342.07569 268.803859 
L 341.860342 269.004446 
L 340.640032 270.141106 
L 340.424683 270.341692 
L 339.204374 271.478352 
L 338.989025 271.678939 
L 337.768716 272.815598 
L 337.553367 273.016185 
L 336.333057 274.152844 
L 336.117709 274.353431 
L 334.897399 275.49009 
L 334.68205 275.690677 
L 333.461741 276.827337 
L 333.246392 277.027924 
L 332.026082 278.164583 
L 331.810734 278.36517 
L 330.590424 279.501829 
L 330.375075 279.702416 
L 329.154766 280.839075 
L 328.939417 281.039662 
L 327.719108 282.176322 
L 327.503759 282.376909 
L 326.283449 283.513568 
L 326.068101 283.714155 
L 324.847791 284.850814 
L 324.632442 285.051401 
L 323.412133 286.18806 
L 323.196784 286.388647 
L 321.976474 287.525307 
L 321.761126 287.725893 
L 320.540816 288.862553 
L 320.325467 289.06314 
L 319.105158 290.199799 
L 318.889809 290.400386 
L 317.669499 291.537045 
L 317.454151 291.737632 
L 316.233841 292.874291 
L 316.018492 293.074878 
L 314.798183 294.211538 
L 314.582834 294.412125 
L 313.362525 295.548784 
L 313.147176 295.749371 
L 311.926866 296.88603 
L 311.711518 297.086617 
L 310.491208 298.223276 
L 310.275859 298.423863 
L 309.05555 299.560523 
L 308.840201 299.76111 
L 307.619891 300.897769 
L 307.404543 301.098356 
L 306.184233 302.235015 
L 305.968884 302.435602 
L 304.748575 303.572261 
L 304.533226 303.772848 
L 303.312917 304.909508 
L 303.097568 305.110094 
L 301.877258 306.246754 
L 301.66191 306.447341 
L 300.4416 307.584 
" style="fill:none;stroke:#0019f2;stroke-width:1.5;"/>
    <path clip-path="url(#p823b3438bc)" d="M 300.4416 41.472 
L 301.66191 42.608659 
L 301.877258 42.809246 
L 303.097568 43.945906 
L 303.312917 44.146492 
L 304.533226 45.283152 
L 304.748575 45.483739 
L 305.968884 46.620398 
L 306.184233 46.820985 
L 307.404543 47.957644 
L 307.619891 48.158231 
L 308.840201 49.29489 
L 309.05555 49.495477 
L 310.275859 50.632137 
L 310.491208 50.832724 
L 311.711518 51.969383 
L 311.926866 52.16997 
L 313.147176 53.306629 
L 313.362525 53.507216 
L 314.582834 54.643875 
L 314.798183 54.844462 
L 316.018492 55.981122 
L 316.233841 56.181709 
L 317.454151 57.318368 
L 317.669499 57.518955 
L 318.889809 58.655614 
L 319.105158 58.856201 
L 320.325467 59.99286 
L 320.540816 60.193447 
L 321.761126 61.330107 
L 321.976474 61.530693 
L 323.196784 62.667353 
L 323.412133 62.86794 
L 324.632442 64.004599 
L 324.847791 64.205186 
L 326.068101 65.341845 
L 326.283449 65.542432 
L 327.503759 66.679091 
L 327.719108 66.879678 
L 328.939417 68.016338 
L 329.154766 68.216925 
L 330.375075 69.353584 
L 330.590424 69.554171 
L 331.810734 70.69083 
L 332.026082 70.891417 
L 333.246392 72.028076 
L 333.461741 72.228663 
L 334.68205 73.365323 
L 334.897399 73.56591 
L 336.117709 74.702569 
L 336.333057 74.903156 
L 337.553367 76.039815 
L 337.768716 76.240402 
L 338.989025 77.377061 
L 339.204374 77.577648 
L 340.424683 78.714308 
L 340.640032 78.914894 
L 341.860342 80.051554 
L 342.07569 80.252141 
L 343.296 81.3888 
" style="fill:none;stroke:#0019f2;stroke-width:1.5;"/>
   </g>
   <g id="LineCollection_29">
    <path clip-path="url(#p823b3438bc)" d="M 343.296 280.9728 
L 342.003908 282.176322 
L 341.860342 282.310046 
L 340.568249 283.513568 
L 340.424683 283.647292 
L 339.132591 284.850814 
L 338.989025 284.984539 
L 337.696933 286.18806 
L 337.553367 286.321785 
L 336.261274 287.525307 
L 336.117709 287.659031 
L 334.825616 288.862553 
L 334.68205 288.996277 
L 333.389958 290.199799 
L 333.246392 290.333524 
L 331.954299 291.537045 
L 331.810734 291.67077 
L 330.518641 292.874291 
L 330.375075 293.008016 
L 329.082983 294.211538 
L 328.939417 294.345262 
L 327.647325 295.548784 
L 327.503759 295.682509 
L 326.211666 296.88603 
L 326.068101 297.019755 
L 324.776008 298.223276 
L 324.632442 298.357001 
L 323.34035 299.560523 
L 323.196784 299.694247 
L 321.904691 300.897769 
L 321.761126 301.031493 
L 320.469033 302.235015 
L 320.325467 302.36874 
L 319.033375 303.572261 
L 318.889809 303.705986 
L 317.597717 304.909508 
L 317.454151 305.043232 
L 316.162058 306.246754 
L 316.018492 306.380478 
L 314.7264 307.584 
" style="fill:none;stroke:#0011f6;stroke-width:1.5;"/>
    <path clip-path="url(#p823b3438bc)" d="M 314.7264 41.472 
L 316.018492 42.675522 
L 316.162058 42.809246 
L 317.454151 44.012768 
L 317.597717 44.146492 
L 318.889809 45.350014 
L 319.033375 45.483739 
L 320.325467 46.68726 
L 320.469033 46.820985 
L 321.761126 48.024507 
L 321.904691 48.158231 
L 323.196784 49.361753 
L 323.34035 49.495477 
L 324.632442 50.698999 
L 324.776008 50.832724 
L 326.068101 52.036245 
L 326.211666 52.16997 
L 327.503759 53.373491 
L 327.647325 53.507216 
L 328.939417 54.710738 
L 329.082983 54.844462 
L 330.375075 56.047984 
L 330.518641 56.181709 
L 331.810734 57.38523 
L 331.954299 57.518955 
L 333.246392 58.722476 
L 333.389958 58.856201 
L 334.68205 60.059723 
L 334.825616 60.193447 
L 336.117709 61.396969 
L 336.261274 61.530693 
L 337.553367 62.734215 
L 337.696933 62.86794 
L 338.989025 64.071461 
L 339.132591 64.205186 
L 340.424683 65.408708 
L 340.568249 65.542432 
L 341.860342 66.745954 
L 342.003908 66.879678 
L 343.296 68.0832 
" style="fill:none;stroke:#0011f6;stroke-width:1.5;"/>
   </g>
   <g id="LineCollection_30">
    <path clip-path="url(#p823b3438bc)" d="M 343.296 294.2784 
L 341.932125 295.548784 
L 341.860342 295.615646 
L 340.496466 296.88603 
L 340.424683 296.952892 
L 339.060808 298.223276 
L 338.989025 298.290139 
L 337.62515 299.560523 
L 337.553367 299.627385 
L 336.189491 300.897769 
L 336.117709 300.964631 
L 334.753833 302.235015 
L 334.68205 302.301877 
L 333.318175 303.572261 
L 333.246392 303.639124 
L 331.882517 304.909508 
L 331.810734 304.97637 
L 330.446858 306.246754 
L 330.375075 306.313616 
L 329.0112 307.584 
" style="fill:none;stroke:#0008fb;stroke-width:1.5;"/>
    <path clip-path="url(#p823b3438bc)" d="M 329.0112 41.472 
L 330.375075 42.742384 
L 330.446858 42.809246 
L 331.810734 44.07963 
L 331.882517 44.146492 
L 333.246392 45.416876 
L 333.318175 45.483739 
L 334.68205 46.754123 
L 334.753833 46.820985 
L 336.117709 48.091369 
L 336.189491 48.158231 
L 337.553367 49.428615 
L 337.62515 49.495477 
L 338.989025 50.765861 
L 339.060808 50.832724 
L 340.424683 52.103108 
L 340.496466 52.16997 
L 341.860342 53.440354 
L 341.932125 53.507216 
L 343.296 54.7776 
" style="fill:none;stroke:#0008fb;stroke-width:1.5;"/>
   </g>
   <g id="LineCollection_31"/>
   <g id="patch_3">
    <path d="M 57.6 307.584 
L 57.6 41.472 
" style="fill:none;stroke:#000000;stroke-linecap:square;stroke-linejoin:miter;stroke-width:0.8;"/>
   </g>
   <g id="patch_4">
    <path d="M 343.296 307.584 
L 343.296 41.472 
" style="fill:none;stroke:#000000;stroke-linecap:square;stroke-linejoin:miter;stroke-width:0.8;"/>
   </g>
   <g id="patch_5">
    <path d="M 57.6 307.584 
L 343.296 307.584 
" style="fill:none;stroke:#000000;stroke-linecap:square;stroke-linejoin:miter;stroke-width:0.8;"/>
   </g>
   <g id="patch_6">
    <path d="M 57.6 41.472 
L 343.296 41.472 
" style="fill:none;stroke:#000000;stroke-linecap:square;stroke-linejoin:miter;stroke-width:0.8;"/>
   </g>
  </g>
  <g id="axes_2">
   <g id="patch_7">
    <path clip-path="url(#p0ce7977ffa)" d="M 361.152 307.584 
L 361.152 298.7136 
L 361.152 50.3424 
L 361.152 41.472 
L 374.4576 41.472 
L 374.4576 50.3424 
L 374.4576 298.7136 
L 374.4576 307.584 
z
" style="fill:#ffffff;stroke:#ffffff;stroke-linejoin:miter;stroke-width:0.01;"/>
   </g>
   <g id="matplotlib.axis_3"/>
   <g id="matplotlib.axis_4">
    <g id="ytick_10">
     <g id="line2d_19">
      <defs>
       <path d="M 0 0 
L 3.5 0 
" id="m65a3c715b8" style="stroke:#000000;stroke-width:0.8;"/>
      </defs>
      <g>
       <use style="stroke:#000000;stroke-width:0.8;" x="374.4576" xlink:href="#m65a3c715b8" y="289.8432"/>
      </g>
     </g>
     <g id="text_19">
      <!-- −1.6 -->
      <defs>
       <path d="M 33.015625 40.375 
Q 26.375 40.375 22.484375 35.828125 
Q 18.609375 31.296875 18.609375 23.390625 
Q 18.609375 15.53125 22.484375 10.953125 
Q 26.375 6.390625 33.015625 6.390625 
Q 39.65625 6.390625 43.53125 10.953125 
Q 47.40625 15.53125 47.40625 23.390625 
Q 47.40625 31.296875 43.53125 35.828125 
Q 39.65625 40.375 33.015625 40.375 
z
M 52.59375 71.296875 
L 52.59375 62.3125 
Q 48.875 64.0625 45.09375 64.984375 
Q 41.3125 65.921875 37.59375 65.921875 
Q 27.828125 65.921875 22.671875 59.328125 
Q 17.53125 52.734375 16.796875 39.40625 
Q 19.671875 43.65625 24.015625 45.921875 
Q 28.375 48.1875 33.59375 48.1875 
Q 44.578125 48.1875 50.953125 41.515625 
Q 57.328125 34.859375 57.328125 23.390625 
Q 57.328125 12.15625 50.6875 5.359375 
Q 44.046875 -1.421875 33.015625 -1.421875 
Q 20.359375 -1.421875 13.671875 8.265625 
Q 6.984375 17.96875 6.984375 36.375 
Q 6.984375 53.65625 15.1875 63.9375 
Q 23.390625 74.21875 37.203125 74.21875 
Q 40.921875 74.21875 44.703125 73.484375 
Q 48.484375 72.75 52.59375 71.296875 
z
" id="DejaVuSans-54"/>
      </defs>
      <g transform="translate(381.4576 293.642419)scale(0.1 -0.1)">
       <use xlink:href="#DejaVuSans-8722"/>
       <use x="83.789062" xlink:href="#DejaVuSans-49"/>
       <use x="147.412109" xlink:href="#DejaVuSans-46"/>
       <use x="179.199219" xlink:href="#DejaVuSans-54"/>
      </g>
     </g>
    </g>
    <g id="ytick_11">
     <g id="line2d_20">
      <g>
       <use style="stroke:#000000;stroke-width:0.8;" x="374.4576" xlink:href="#m65a3c715b8" y="254.3616"/>
      </g>
     </g>
     <g id="text_20">
      <!-- −0.8 -->
      <defs>
       <path d="M 31.78125 34.625 
Q 24.75 34.625 20.71875 30.859375 
Q 16.703125 27.09375 16.703125 20.515625 
Q 16.703125 13.921875 20.71875 10.15625 
Q 24.75 6.390625 31.78125 6.390625 
Q 38.8125 6.390625 42.859375 10.171875 
Q 46.921875 13.96875 46.921875 20.515625 
Q 46.921875 27.09375 42.890625 30.859375 
Q 38.875 34.625 31.78125 34.625 
z
M 21.921875 38.8125 
Q 15.578125 40.375 12.03125 44.71875 
Q 8.5 49.078125 8.5 55.328125 
Q 8.5 64.0625 14.71875 69.140625 
Q 20.953125 74.21875 31.78125 74.21875 
Q 42.671875 74.21875 48.875 69.140625 
Q 55.078125 64.0625 55.078125 55.328125 
Q 55.078125 49.078125 51.53125 44.71875 
Q 48 40.375 41.703125 38.8125 
Q 48.828125 37.15625 52.796875 32.3125 
Q 56.78125 27.484375 56.78125 20.515625 
Q 56.78125 9.90625 50.3125 4.234375 
Q 43.84375 -1.421875 31.78125 -1.421875 
Q 19.734375 -1.421875 13.25 4.234375 
Q 6.78125 9.90625 6.78125 20.515625 
Q 6.78125 27.484375 10.78125 32.3125 
Q 14.796875 37.15625 21.921875 38.8125 
z
M 18.3125 54.390625 
Q 18.3125 48.734375 21.84375 45.5625 
Q 25.390625 42.390625 31.78125 42.390625 
Q 38.140625 42.390625 41.71875 45.5625 
Q 45.3125 48.734375 45.3125 54.390625 
Q 45.3125 60.0625 41.71875 63.234375 
Q 38.140625 66.40625 31.78125 66.40625 
Q 25.390625 66.40625 21.84375 63.234375 
Q 18.3125 60.0625 18.3125 54.390625 
z
" id="DejaVuSans-56"/>
      </defs>
      <g transform="translate(381.4576 258.160819)scale(0.1 -0.1)">
       <use xlink:href="#DejaVuSans-8722"/>
       <use x="83.789062" xlink:href="#DejaVuSans-48"/>
       <use x="147.412109" xlink:href="#DejaVuSans-46"/>
       <use x="179.199219" xlink:href="#DejaVuSans-56"/>
      </g>
     </g>
    </g>
    <g id="ytick_12">
     <g id="line2d_21">
      <g>
       <use style="stroke:#000000;stroke-width:0.8;" x="374.4576" xlink:href="#m65a3c715b8" y="218.88"/>
      </g>
     </g>
     <g id="text_21">
      <!-- 0.0 -->
      <g transform="translate(381.4576 222.679219)scale(0.1 -0.1)">
       <use xlink:href="#DejaVuSans-48"/>
       <use x="63.623047" xlink:href="#DejaVuSans-46"/>
       <use x="95.410156" xlink:href="#DejaVuSans-48"/>
      </g>
     </g>
    </g>
    <g id="ytick_13">
     <g id="line2d_22">
      <g>
       <use style="stroke:#000000;stroke-width:0.8;" x="374.4576" xlink:href="#m65a3c715b8" y="183.3984"/>
      </g>
     </g>
     <g id="text_22">
      <!-- 0.8 -->
      <g transform="translate(381.4576 187.197619)scale(0.1 -0.1)">
       <use xlink:href="#DejaVuSans-48"/>
       <use x="63.623047" xlink:href="#DejaVuSans-46"/>
       <use x="95.410156" xlink:href="#DejaVuSans-56"/>
      </g>
     </g>
    </g>
    <g id="ytick_14">
     <g id="line2d_23">
      <g>
       <use style="stroke:#000000;stroke-width:0.8;" x="374.4576" xlink:href="#m65a3c715b8" y="147.9168"/>
      </g>
     </g>
     <g id="text_23">
      <!-- 1.6 -->
      <g transform="translate(381.4576 151.716019)scale(0.1 -0.1)">
       <use xlink:href="#DejaVuSans-49"/>
       <use x="63.623047" xlink:href="#DejaVuSans-46"/>
       <use x="95.410156" xlink:href="#DejaVuSans-54"/>
      </g>
     </g>
    </g>
    <g id="ytick_15">
     <g id="line2d_24">
      <g>
       <use style="stroke:#000000;stroke-width:0.8;" x="374.4576" xlink:href="#m65a3c715b8" y="112.4352"/>
      </g>
     </g>
     <g id="text_24">
      <!-- 2.4 -->
      <defs>
       <path d="M 37.796875 64.3125 
L 12.890625 25.390625 
L 37.796875 25.390625 
z
M 35.203125 72.90625 
L 47.609375 72.90625 
L 47.609375 25.390625 
L 58.015625 25.390625 
L 58.015625 17.1875 
L 47.609375 17.1875 
L 47.609375 0 
L 37.796875 0 
L 37.796875 17.1875 
L 4.890625 17.1875 
L 4.890625 26.703125 
z
" id="DejaVuSans-52"/>
      </defs>
      <g transform="translate(381.4576 116.234419)scale(0.1 -0.1)">
       <use xlink:href="#DejaVuSans-50"/>
       <use x="63.623047" xlink:href="#DejaVuSans-46"/>
       <use x="95.410156" xlink:href="#DejaVuSans-52"/>
      </g>
     </g>
    </g>
    <g id="ytick_16">
     <g id="line2d_25">
      <g>
       <use style="stroke:#000000;stroke-width:0.8;" x="374.4576" xlink:href="#m65a3c715b8" y="76.9536"/>
      </g>
     </g>
     <g id="text_25">
      <!-- 3.2 -->
      <defs>
       <path d="M 40.578125 39.3125 
Q 47.65625 37.796875 51.625 33 
Q 55.609375 28.21875 55.609375 21.1875 
Q 55.609375 10.40625 48.1875 4.484375 
Q 40.765625 -1.421875 27.09375 -1.421875 
Q 22.515625 -1.421875 17.65625 -0.515625 
Q 12.796875 0.390625 7.625 2.203125 
L 7.625 11.71875 
Q 11.71875 9.328125 16.59375 8.109375 
Q 21.484375 6.890625 26.8125 6.890625 
Q 36.078125 6.890625 40.9375 10.546875 
Q 45.796875 14.203125 45.796875 21.1875 
Q 45.796875 27.640625 41.28125 31.265625 
Q 36.765625 34.90625 28.71875 34.90625 
L 20.21875 34.90625 
L 20.21875 43.015625 
L 29.109375 43.015625 
Q 36.375 43.015625 40.234375 45.921875 
Q 44.09375 48.828125 44.09375 54.296875 
Q 44.09375 59.90625 40.109375 62.90625 
Q 36.140625 65.921875 28.71875 65.921875 
Q 24.65625 65.921875 20.015625 65.03125 
Q 15.375 64.15625 9.8125 62.3125 
L 9.8125 71.09375 
Q 15.4375 72.65625 20.34375 73.4375 
Q 25.25 74.21875 29.59375 74.21875 
Q 40.828125 74.21875 47.359375 69.109375 
Q 53.90625 64.015625 53.90625 55.328125 
Q 53.90625 49.265625 50.4375 45.09375 
Q 46.96875 40.921875 40.578125 39.3125 
z
" id="DejaVuSans-51"/>
      </defs>
      <g transform="translate(381.4576 80.752819)scale(0.1 -0.1)">
       <use xlink:href="#DejaVuSans-51"/>
       <use x="63.623047" xlink:href="#DejaVuSans-46"/>
       <use x="95.410156" xlink:href="#DejaVuSans-50"/>
      </g>
     </g>
    </g>
    <g id="ytick_17">
     <g id="line2d_26">
      <g>
       <use style="stroke:#000000;stroke-width:0.8;" x="374.4576" xlink:href="#m65a3c715b8" y="41.472"/>
      </g>
     </g>
     <g id="text_26">
      <!-- 4.0 -->
      <g transform="translate(381.4576 45.271219)scale(0.1 -0.1)">
       <use xlink:href="#DejaVuSans-52"/>
       <use x="63.623047" xlink:href="#DejaVuSans-46"/>
       <use x="95.410156" xlink:href="#DejaVuSans-48"/>
      </g>
     </g>
    </g>
   </g>
   <g id="LineCollection_32">
    <path clip-path="url(#p0ce7977ffa)" d="M 361.152 307.584 
L 374.4576 307.584 
" style="fill:none;stroke:#00ff80;stroke-width:1.5;"/>
    <path clip-path="url(#p0ce7977ffa)" d="M 361.152 298.7136 
L 374.4576 298.7136 
" style="fill:none;stroke:#00f784;stroke-width:1.5;"/>
    <path clip-path="url(#p0ce7977ffa)" d="M 361.152 289.8432 
L 374.4576 289.8432 
" style="fill:none;stroke:#00ee88;stroke-width:1.5;"/>
    <path clip-path="url(#p0ce7977ffa)" d="M 361.152 280.9728 
L 374.4576 280.9728 
" style="fill:none;stroke:#00e68c;stroke-width:1.5;"/>
    <path clip-path="url(#p0ce7977ffa)" d="M 361.152 272.1024 
L 374.4576 272.1024 
" style="fill:none;stroke:#00dd90;stroke-width:1.5;"/>
    <path clip-path="url(#p0ce7977ffa)" d="M 361.152 263.232 
L 374.4576 263.232 
" style="fill:none;stroke:#00d594;stroke-width:1.5;"/>
    <path clip-path="url(#p0ce7977ffa)" d="M 361.152 254.3616 
L 374.4576 254.3616 
" style="fill:none;stroke:#00cc99;stroke-width:1.5;"/>
    <path clip-path="url(#p0ce7977ffa)" d="M 361.152 245.4912 
L 374.4576 245.4912 
" style="fill:none;stroke:#00c49d;stroke-width:1.5;"/>
    <path clip-path="url(#p0ce7977ffa)" d="M 361.152 236.6208 
L 374.4576 236.6208 
" style="fill:none;stroke:#00bba2;stroke-width:1.5;"/>
    <path clip-path="url(#p0ce7977ffa)" d="M 361.152 227.7504 
L 374.4576 227.7504 
" style="fill:none;stroke:#00b3a6;stroke-width:1.5;"/>
    <path clip-path="url(#p0ce7977ffa)" d="M 361.152 218.88 
L 374.4576 218.88 
" style="fill:none;stroke:#00aaaa;stroke-width:1.5;"/>
    <path clip-path="url(#p0ce7977ffa)" d="M 361.152 210.0096 
L 374.4576 210.0096 
" style="fill:none;stroke:#00a2ae;stroke-width:1.5;"/>
    <path clip-path="url(#p0ce7977ffa)" d="M 361.152 201.1392 
L 374.4576 201.1392 
" style="fill:none;stroke:#0099b2;stroke-width:1.5;"/>
    <path clip-path="url(#p0ce7977ffa)" d="M 361.152 192.2688 
L 374.4576 192.2688 
" style="fill:none;stroke:#0091b6;stroke-width:1.5;"/>
    <path clip-path="url(#p0ce7977ffa)" d="M 361.152 183.3984 
L 374.4576 183.3984 
" style="fill:none;stroke:#0088bb;stroke-width:1.5;"/>
    <path clip-path="url(#p0ce7977ffa)" d="M 361.152 174.528 
L 374.4576 174.528 
" style="fill:none;stroke:#007fc0;stroke-width:1.5;"/>
    <path clip-path="url(#p0ce7977ffa)" d="M 361.152 165.6576 
L 374.4576 165.6576 
" style="fill:none;stroke:#0077c3;stroke-width:1.5;"/>
    <path clip-path="url(#p0ce7977ffa)" d="M 361.152 156.7872 
L 374.4576 156.7872 
" style="fill:none;stroke:#006ec8;stroke-width:1.5;"/>
    <path clip-path="url(#p0ce7977ffa)" d="M 361.152 147.9168 
L 374.4576 147.9168 
" style="fill:none;stroke:#0066cc;stroke-width:1.5;"/>
    <path clip-path="url(#p0ce7977ffa)" d="M 361.152 139.0464 
L 374.4576 139.0464 
" style="fill:none;stroke:#005dd0;stroke-width:1.5;"/>
    <path clip-path="url(#p0ce7977ffa)" d="M 361.152 130.176 
L 374.4576 130.176 
" style="fill:none;stroke:#0055d4;stroke-width:1.5;"/>
    <path clip-path="url(#p0ce7977ffa)" d="M 361.152 121.3056 
L 374.4576 121.3056 
" style="fill:none;stroke:#004cd9;stroke-width:1.5;"/>
    <path clip-path="url(#p0ce7977ffa)" d="M 361.152 112.4352 
L 374.4576 112.4352 
" style="fill:none;stroke:#0044dd;stroke-width:1.5;"/>
    <path clip-path="url(#p0ce7977ffa)" d="M 361.152 103.5648 
L 374.4576 103.5648 
" style="fill:none;stroke:#003be2;stroke-width:1.5;"/>
    <path clip-path="url(#p0ce7977ffa)" d="M 361.152 94.6944 
L 374.4576 94.6944 
" style="fill:none;stroke:#0033e6;stroke-width:1.5;"/>
    <path clip-path="url(#p0ce7977ffa)" d="M 361.152 85.824 
L 374.4576 85.824 
" style="fill:none;stroke:#002aea;stroke-width:1.5;"/>
    <path clip-path="url(#p0ce7977ffa)" d="M 361.152 76.9536 
L 374.4576 76.9536 
" style="fill:none;stroke:#0022ee;stroke-width:1.5;"/>
    <path clip-path="url(#p0ce7977ffa)" d="M 361.152 68.0832 
L 374.4576 68.0832 
" style="fill:none;stroke:#0019f2;stroke-width:1.5;"/>
    <path clip-path="url(#p0ce7977ffa)" d="M 361.152 59.2128 
L 374.4576 59.2128 
" style="fill:none;stroke:#0011f6;stroke-width:1.5;"/>
    <path clip-path="url(#p0ce7977ffa)" d="M 361.152 50.3424 
L 374.4576 50.3424 
" style="fill:none;stroke:#0008fb;stroke-width:1.5;"/>
    <path clip-path="url(#p0ce7977ffa)" d="M 361.152 41.472 
L 374.4576 41.472 
" style="fill:none;stroke:#0000ff;stroke-width:1.5;"/>
   </g>
   <g id="patch_8">
    <path d="M 361.152 307.584 
L 361.152 298.7136 
L 361.152 50.3424 
L 361.152 41.472 
L 374.4576 41.472 
L 374.4576 50.3424 
L 374.4576 298.7136 
L 374.4576 307.584 
z
" style="fill:none;stroke:#000000;stroke-linejoin:miter;stroke-width:0.8;"/>
   </g>
  </g>
 </g>
 <defs>
  <clipPath id="p823b3438bc">
   <rect height="266.112" width="285.696" x="57.6" y="41.472"/>
  </clipPath>
  <clipPath id="p0ce7977ffa">
   <rect height="266.112" width="13.3056" x="361.152" y="41.472"/>
  </clipPath>
 </defs>
</svg>
