<?xml version="1.0" encoding="utf-8" standalone="no"?>
<!DOCTYPE svg PUBLIC "-//W3C//DTD SVG 1.1//EN"
  "http://www.w3.org/Graphics/SVG/1.1/DTD/svg11.dtd">
<!-- Created with matplotlib (https://matplotlib.org/) -->
<svg height="345.6pt" version="1.1" viewBox="0 0 460.8 345.6" width="460.8pt" xmlns="http://www.w3.org/2000/svg" xmlns:xlink="http://www.w3.org/1999/xlink">
 <defs>
  <style type="text/css">
*{stroke-linecap:butt;stroke-linejoin:round;}
  </style>
 </defs>
 <g id="figure_1">
  <g id="patch_1">
   <path d="M 0 345.6 
L 460.8 345.6 
L 460.8 0 
L 0 0 
z
" style="fill:#ffffff;"/>
  </g>
  <g id="axes_1">
   <g id="patch_2">
    <path d="M 57.6 307.584 
L 343.296 307.584 
L 343.296 41.472 
L 57.6 41.472 
z
" style="fill:#ffffff;"/>
   </g>
   <g id="matplotlib.axis_1">
    <g id="xtick_1">
     <g id="line2d_1">
      <defs>
       <path d="M 0 0 
L 0 3.5 
" id="m5e0cc5e884" style="stroke:#000000;stroke-width:0.8;"/>
      </defs>
      <g>
       <use style="stroke:#000000;stroke-width:0.8;" x="57.6" xlink:href="#m5e0cc5e884" y="307.584"/>
      </g>
     </g>
     <g id="text_1">
      <!-- −10.0 -->
      <defs>
       <path d="M 10.59375 35.5 
L 73.1875 35.5 
L 73.1875 27.203125 
L 10.59375 27.203125 
z
" id="DejaVuSans-8722"/>
       <path d="M 12.40625 8.296875 
L 28.515625 8.296875 
L 28.515625 63.921875 
L 10.984375 60.40625 
L 10.984375 69.390625 
L 28.421875 72.90625 
L 38.28125 72.90625 
L 38.28125 8.296875 
L 54.390625 8.296875 
L 54.390625 0 
L 12.40625 0 
z
" id="DejaVuSans-49"/>
       <path d="M 31.78125 66.40625 
Q 24.171875 66.40625 20.328125 58.90625 
Q 16.5 51.421875 16.5 36.375 
Q 16.5 21.390625 20.328125 13.890625 
Q 24.171875 6.390625 31.78125 6.390625 
Q 39.453125 6.390625 43.28125 13.890625 
Q 47.125 21.390625 47.125 36.375 
Q 47.125 51.421875 43.28125 58.90625 
Q 39.453125 66.40625 31.78125 66.40625 
z
M 31.78125 74.21875 
Q 44.046875 74.21875 50.515625 64.515625 
Q 56.984375 54.828125 56.984375 36.375 
Q 56.984375 17.96875 50.515625 8.265625 
Q 44.046875 -1.421875 31.78125 -1.421875 
Q 19.53125 -1.421875 13.0625 8.265625 
Q 6.59375 17.96875 6.59375 36.375 
Q 6.59375 54.828125 13.0625 64.515625 
Q 19.53125 74.21875 31.78125 74.21875 
z
" id="DejaVuSans-48"/>
       <path d="M 10.6875 12.40625 
L 21 12.40625 
L 21 0 
L 10.6875 0 
z
" id="DejaVuSans-46"/>
      </defs>
      <g transform="translate(42.277344 322.182437)scale(0.1 -0.1)">
       <use xlink:href="#DejaVuSans-8722"/>
       <use x="83.789062" xlink:href="#DejaVuSans-49"/>
       <use x="147.412109" xlink:href="#DejaVuSans-48"/>
       <use x="211.035156" xlink:href="#DejaVuSans-46"/>
       <use x="242.822266" xlink:href="#DejaVuSans-48"/>
      </g>
     </g>
    </g>
    <g id="xtick_2">
     <g id="line2d_2">
      <g>
       <use style="stroke:#000000;stroke-width:0.8;" x="93.312" xlink:href="#m5e0cc5e884" y="307.584"/>
      </g>
     </g>
     <g id="text_2">
      <!-- −7.5 -->
      <defs>
       <path d="M 8.203125 72.90625 
L 55.078125 72.90625 
L 55.078125 68.703125 
L 28.609375 0 
L 18.3125 0 
L 43.21875 64.59375 
L 8.203125 64.59375 
z
" id="DejaVuSans-55"/>
       <path d="M 10.796875 72.90625 
L 49.515625 72.90625 
L 49.515625 64.59375 
L 19.828125 64.59375 
L 19.828125 46.734375 
Q 21.96875 47.46875 24.109375 47.828125 
Q 26.265625 48.1875 28.421875 48.1875 
Q 40.625 48.1875 47.75 41.5 
Q 54.890625 34.8125 54.890625 23.390625 
Q 54.890625 11.625 47.5625 5.09375 
Q 40.234375 -1.421875 26.90625 -1.421875 
Q 22.3125 -1.421875 17.546875 -0.640625 
Q 12.796875 0.140625 7.71875 1.703125 
L 7.71875 11.625 
Q 12.109375 9.234375 16.796875 8.0625 
Q 21.484375 6.890625 26.703125 6.890625 
Q 35.15625 6.890625 40.078125 11.328125 
Q 45.015625 15.765625 45.015625 23.390625 
Q 45.015625 31 40.078125 35.4375 
Q 35.15625 39.890625 26.703125 39.890625 
Q 22.75 39.890625 18.8125 39.015625 
Q 14.890625 38.140625 10.796875 36.28125 
z
" id="DejaVuSans-53"/>
      </defs>
      <g transform="translate(81.170594 322.182437)scale(0.1 -0.1)">
       <use xlink:href="#DejaVuSans-8722"/>
       <use x="83.789062" xlink:href="#DejaVuSans-55"/>
       <use x="147.412109" xlink:href="#DejaVuSans-46"/>
       <use x="179.199219" xlink:href="#DejaVuSans-53"/>
      </g>
     </g>
    </g>
    <g id="xtick_3">
     <g id="line2d_3">
      <g>
       <use style="stroke:#000000;stroke-width:0.8;" x="129.024" xlink:href="#m5e0cc5e884" y="307.584"/>
      </g>
     </g>
     <g id="text_3">
      <!-- −5.0 -->
      <g transform="translate(116.882594 322.182437)scale(0.1 -0.1)">
       <use xlink:href="#DejaVuSans-8722"/>
       <use x="83.789062" xlink:href="#DejaVuSans-53"/>
       <use x="147.412109" xlink:href="#DejaVuSans-46"/>
       <use x="179.199219" xlink:href="#DejaVuSans-48"/>
      </g>
     </g>
    </g>
    <g id="xtick_4">
     <g id="line2d_4">
      <g>
       <use style="stroke:#000000;stroke-width:0.8;" x="164.736" xlink:href="#m5e0cc5e884" y="307.584"/>
      </g>
     </g>
     <g id="text_4">
      <!-- −2.5 -->
      <defs>
       <path d="M 19.1875 8.296875 
L 53.609375 8.296875 
L 53.609375 0 
L 7.328125 0 
L 7.328125 8.296875 
Q 12.9375 14.109375 22.625 23.890625 
Q 32.328125 33.6875 34.8125 36.53125 
Q 39.546875 41.84375 41.421875 45.53125 
Q 43.3125 49.21875 43.3125 52.78125 
Q 43.3125 58.59375 39.234375 62.25 
Q 35.15625 65.921875 28.609375 65.921875 
Q 23.96875 65.921875 18.8125 64.3125 
Q 13.671875 62.703125 7.8125 59.421875 
L 7.8125 69.390625 
Q 13.765625 71.78125 18.9375 73 
Q 24.125 74.21875 28.421875 74.21875 
Q 39.75 74.21875 46.484375 68.546875 
Q 53.21875 62.890625 53.21875 53.421875 
Q 53.21875 48.921875 51.53125 44.890625 
Q 49.859375 40.875 45.40625 35.40625 
Q 44.1875 33.984375 37.640625 27.21875 
Q 31.109375 20.453125 19.1875 8.296875 
z
" id="DejaVuSans-50"/>
      </defs>
      <g transform="translate(152.594594 322.182437)scale(0.1 -0.1)">
       <use xlink:href="#DejaVuSans-8722"/>
       <use x="83.789062" xlink:href="#DejaVuSans-50"/>
       <use x="147.412109" xlink:href="#DejaVuSans-46"/>
       <use x="179.199219" xlink:href="#DejaVuSans-53"/>
      </g>
     </g>
    </g>
    <g id="xtick_5">
     <g id="line2d_5">
      <g>
       <use style="stroke:#000000;stroke-width:0.8;" x="200.448" xlink:href="#m5e0cc5e884" y="307.584"/>
      </g>
     </g>
     <g id="text_5">
      <!-- 0.0 -->
      <g transform="translate(192.496438 322.182437)scale(0.1 -0.1)">
       <use xlink:href="#DejaVuSans-48"/>
       <use x="63.623047" xlink:href="#DejaVuSans-46"/>
       <use x="95.410156" xlink:href="#DejaVuSans-48"/>
      </g>
     </g>
    </g>
    <g id="xtick_6">
     <g id="line2d_6">
      <g>
       <use style="stroke:#000000;stroke-width:0.8;" x="236.16" xlink:href="#m5e0cc5e884" y="307.584"/>
      </g>
     </g>
     <g id="text_6">
      <!-- 2.5 -->
      <g transform="translate(228.208438 322.182437)scale(0.1 -0.1)">
       <use xlink:href="#DejaVuSans-50"/>
       <use x="63.623047" xlink:href="#DejaVuSans-46"/>
       <use x="95.410156" xlink:href="#DejaVuSans-53"/>
      </g>
     </g>
    </g>
    <g id="xtick_7">
     <g id="line2d_7">
      <g>
       <use style="stroke:#000000;stroke-width:0.8;" x="271.872" xlink:href="#m5e0cc5e884" y="307.584"/>
      </g>
     </g>
     <g id="text_7">
      <!-- 5.0 -->
      <g transform="translate(263.920437 322.182437)scale(0.1 -0.1)">
       <use xlink:href="#DejaVuSans-53"/>
       <use x="63.623047" xlink:href="#DejaVuSans-46"/>
       <use x="95.410156" xlink:href="#DejaVuSans-48"/>
      </g>
     </g>
    </g>
    <g id="xtick_8">
     <g id="line2d_8">
      <g>
       <use style="stroke:#000000;stroke-width:0.8;" x="307.584" xlink:href="#m5e0cc5e884" y="307.584"/>
      </g>
     </g>
     <g id="text_8">
      <!-- 7.5 -->
      <g transform="translate(299.632438 322.182437)scale(0.1 -0.1)">
       <use xlink:href="#DejaVuSans-55"/>
       <use x="63.623047" xlink:href="#DejaVuSans-46"/>
       <use x="95.410156" xlink:href="#DejaVuSans-53"/>
      </g>
     </g>
    </g>
    <g id="xtick_9">
     <g id="line2d_9">
      <g>
       <use style="stroke:#000000;stroke-width:0.8;" x="343.296" xlink:href="#m5e0cc5e884" y="307.584"/>
      </g>
     </g>
     <g id="text_9">
      <!-- 10.0 -->
      <g transform="translate(332.163188 322.182437)scale(0.1 -0.1)">
       <use xlink:href="#DejaVuSans-49"/>
       <use x="63.623047" xlink:href="#DejaVuSans-48"/>
       <use x="127.246094" xlink:href="#DejaVuSans-46"/>
       <use x="159.033203" xlink:href="#DejaVuSans-48"/>
      </g>
     </g>
    </g>
   </g>
   <g id="matplotlib.axis_2">
    <g id="ytick_1">
     <g id="line2d_10">
      <defs>
       <path d="M 0 0 
L -3.5 0 
" id="mce0928b77b" style="stroke:#000000;stroke-width:0.8;"/>
      </defs>
      <g>
       <use style="stroke:#000000;stroke-width:0.8;" x="57.6" xlink:href="#mce0928b77b" y="307.584"/>
      </g>
     </g>
     <g id="text_10">
      <!-- −10.0 -->
      <g transform="translate(19.954687 311.383219)scale(0.1 -0.1)">
       <use xlink:href="#DejaVuSans-8722"/>
       <use x="83.789062" xlink:href="#DejaVuSans-49"/>
       <use x="147.412109" xlink:href="#DejaVuSans-48"/>
       <use x="211.035156" xlink:href="#DejaVuSans-46"/>
       <use x="242.822266" xlink:href="#DejaVuSans-48"/>
      </g>
     </g>
    </g>
    <g id="ytick_2">
     <g id="line2d_11">
      <g>
       <use style="stroke:#000000;stroke-width:0.8;" x="57.6" xlink:href="#mce0928b77b" y="274.32"/>
      </g>
     </g>
     <g id="text_11">
      <!-- −7.5 -->
      <g transform="translate(26.317187 278.119219)scale(0.1 -0.1)">
       <use xlink:href="#DejaVuSans-8722"/>
       <use x="83.789062" xlink:href="#DejaVuSans-55"/>
       <use x="147.412109" xlink:href="#DejaVuSans-46"/>
       <use x="179.199219" xlink:href="#DejaVuSans-53"/>
      </g>
     </g>
    </g>
    <g id="ytick_3">
     <g id="line2d_12">
      <g>
       <use style="stroke:#000000;stroke-width:0.8;" x="57.6" xlink:href="#mce0928b77b" y="241.056"/>
      </g>
     </g>
     <g id="text_12">
      <!-- −5.0 -->
      <g transform="translate(26.317187 244.855219)scale(0.1 -0.1)">
       <use xlink:href="#DejaVuSans-8722"/>
       <use x="83.789062" xlink:href="#DejaVuSans-53"/>
       <use x="147.412109" xlink:href="#DejaVuSans-46"/>
       <use x="179.199219" xlink:href="#DejaVuSans-48"/>
      </g>
     </g>
    </g>
    <g id="ytick_4">
     <g id="line2d_13">
      <g>
       <use style="stroke:#000000;stroke-width:0.8;" x="57.6" xlink:href="#mce0928b77b" y="207.792"/>
      </g>
     </g>
     <g id="text_13">
      <!-- −2.5 -->
      <g transform="translate(26.317187 211.591219)scale(0.1 -0.1)">
       <use xlink:href="#DejaVuSans-8722"/>
       <use x="83.789062" xlink:href="#DejaVuSans-50"/>
       <use x="147.412109" xlink:href="#DejaVuSans-46"/>
       <use x="179.199219" xlink:href="#DejaVuSans-53"/>
      </g>
     </g>
    </g>
    <g id="ytick_5">
     <g id="line2d_14">
      <g>
       <use style="stroke:#000000;stroke-width:0.8;" x="57.6" xlink:href="#mce0928b77b" y="174.528"/>
      </g>
     </g>
     <g id="text_14">
      <!-- 0.0 -->
      <g transform="translate(34.696875 178.327219)scale(0.1 -0.1)">
       <use xlink:href="#DejaVuSans-48"/>
       <use x="63.623047" xlink:href="#DejaVuSans-46"/>
       <use x="95.410156" xlink:href="#DejaVuSans-48"/>
      </g>
     </g>
    </g>
    <g id="ytick_6">
     <g id="line2d_15">
      <g>
       <use style="stroke:#000000;stroke-width:0.8;" x="57.6" xlink:href="#mce0928b77b" y="141.264"/>
      </g>
     </g>
     <g id="text_15">
      <!-- 2.5 -->
      <g transform="translate(34.696875 145.063219)scale(0.1 -0.1)">
       <use xlink:href="#DejaVuSans-50"/>
       <use x="63.623047" xlink:href="#DejaVuSans-46"/>
       <use x="95.410156" xlink:href="#DejaVuSans-53"/>
      </g>
     </g>
    </g>
    <g id="ytick_7">
     <g id="line2d_16">
      <g>
       <use style="stroke:#000000;stroke-width:0.8;" x="57.6" xlink:href="#mce0928b77b" y="108"/>
      </g>
     </g>
     <g id="text_16">
      <!-- 5.0 -->
      <g transform="translate(34.696875 111.799219)scale(0.1 -0.1)">
       <use xlink:href="#DejaVuSans-53"/>
       <use x="63.623047" xlink:href="#DejaVuSans-46"/>
       <use x="95.410156" xlink:href="#DejaVuSans-48"/>
      </g>
     </g>
    </g>
    <g id="ytick_8">
     <g id="line2d_17">
      <g>
       <use style="stroke:#000000;stroke-width:0.8;" x="57.6" xlink:href="#mce0928b77b" y="74.736"/>
      </g>
     </g>
     <g id="text_17">
      <!-- 7.5 -->
      <g transform="translate(34.696875 78.535219)scale(0.1 -0.1)">
       <use xlink:href="#DejaVuSans-55"/>
       <use x="63.623047" xlink:href="#DejaVuSans-46"/>
       <use x="95.410156" xlink:href="#DejaVuSans-53"/>
      </g>
     </g>
    </g>
    <g id="ytick_9">
     <g id="line2d_18">
      <g>
       <use style="stroke:#000000;stroke-width:0.8;" x="57.6" xlink:href="#mce0928b77b" y="41.472"/>
      </g>
     </g>
     <g id="text_18">
      <!-- 10.0 -->
      <g transform="translate(28.334375 45.271219)scale(0.1 -0.1)">
       <use xlink:href="#DejaVuSans-49"/>
       <use x="63.623047" xlink:href="#DejaVuSans-48"/>
       <use x="127.246094" xlink:href="#DejaVuSans-46"/>
       <use x="159.033203" xlink:href="#DejaVuSans-48"/>
      </g>
     </g>
    </g>
   </g>
   <g id="LineCollection_1"/>
   <g id="LineCollection_2">
    <path clip-path="url(#pa07f17e2df)" d="M 155.287146 307.584 
L 153.297083 295.548784 
L 149.732671 272.815598 
L 147.560139 258.105889 
L 143.629185 230.023719 
L 138.459933 189.906332 
L 135.551664 165.835899 
L 132.769752 141.765467 
L 129.657275 113.683296 
L 127.242246 90.950111 
L 123.415963 53.507216 
L 122.221199 41.472 
L 122.221199 41.472 
" style="fill:none;stroke:#00f784;stroke-width:1.5;"/>
    <path clip-path="url(#pa07f17e2df)" d="M 278.682207 41.472 
L 271.394448 112.34605 
L 265.351581 165.835899 
L 260.765691 203.278794 
L 257.094733 231.360965 
L 251.968122 267.466613 
L 249.103171 286.18806 
L 246.282541 303.572261 
L 245.616207 307.584 
L 245.616207 307.584 
" style="fill:none;stroke:#00f784;stroke-width:1.5;"/>
   </g>
   <g id="LineCollection_3">
    <path clip-path="url(#pa07f17e2df)" d="M 139.375742 307.584 
L 134.073232 263.454874 
L 131.201142 238.047196 
L 128.156529 209.965025 
L 125.514285 184.557347 
L 122.204623 151.57645 
L 115.512546 80.252141 
L 112.074671 41.472 
L 112.074671 41.472 
" style="fill:none;stroke:#00ef88;stroke-width:1.5;"/>
    <path clip-path="url(#pa07f17e2df)" d="M 288.826248 41.472 
L 286.348543 69.554171 
L 282.820008 108.334312 
L 276.741692 171.184884 
L 272.170076 215.31401 
L 268.509792 248.745166 
L 263.016352 295.548784 
L 261.525185 307.584 
L 261.525185 307.584 
" style="fill:none;stroke:#00ef88;stroke-width:1.5;"/>
   </g>
   <g id="LineCollection_4">
    <path clip-path="url(#pa07f17e2df)" d="M 129.549623 307.584 
L 126.856374 282.176322 
L 123.640281 250.692234 
L 117.431937 185.894593 
L 112.395237 129.730251 
L 109.283698 93.421875 
L 105.015748 41.472 
L 105.015748 41.472 
" style="fill:none;stroke:#00e78c;stroke-width:1.5;"/>
    <path clip-path="url(#pa07f17e2df)" d="M 295.884482 41.472 
L 288.623625 128.393005 
L 282.223001 199.267055 
L 278.241053 240.721688 
L 273.482557 287.525307 
L 271.35058 307.584 
L 271.35058 307.584 
" style="fill:none;stroke:#00e78c;stroke-width:1.5;"/>
   </g>
   <g id="LineCollection_5">
    <path clip-path="url(#pa07f17e2df)" d="M 122.213977 307.584 
L 119.512093 279.501829 
L 116.524876 247.40792 
L 113.762775 216.651256 
L 110.719357 181.67685 
L 103.917751 98.973588 
L 100.371092 53.507216 
L 99.452 41.472 
L 99.452 41.472 
" style="fill:none;stroke:#00de90;stroke-width:1.5;"/>
    <path clip-path="url(#pa07f17e2df)" d="M 301.447634 41.472 
L 294.94158 124.381266 
L 291.178159 169.847638 
L 285.828539 231.360965 
L 279.590127 298.223276 
L 278.685676 307.584 
L 278.685676 307.584 
" style="fill:none;stroke:#00de90;stroke-width:1.5;"/>
   </g>
   <g id="LineCollection_6">
    <path clip-path="url(#pa07f17e2df)" d="M 116.284898 307.584 
L 110.514346 242.058935 
L 104.558623 169.847638 
L 99.047377 98.973588 
L 94.788352 41.472 
L 94.788352 41.472 
" style="fill:none;stroke:#00d694;stroke-width:1.5;"/>
    <path clip-path="url(#pa07f17e2df)" d="M 306.110783 41.472 
L 302.958859 84.263879 
L 296.234729 171.184884 
L 292.746406 213.976764 
L 287.134804 279.501829 
L 284.614244 307.584 
L 284.614244 307.584 
" style="fill:none;stroke:#00d694;stroke-width:1.5;"/>
   </g>
   <g id="LineCollection_7">
    <path clip-path="url(#pa07f17e2df)" d="M 111.264286 307.584 
L 107.437099 262.117628 
L 102.074537 195.255317 
L 95.131546 102.985327 
L 91.871869 57.518955 
L 90.743506 41.472 
L 90.743506 41.472 
" style="fill:none;stroke:#00ce98;stroke-width:1.5;"/>
    <path clip-path="url(#pa07f17e2df)" d="M 310.155465 41.472 
L 303.007373 140.428221 
L 296.179452 228.686472 
L 292.800017 270.141106 
L 289.634645 307.584 
L 289.634645 307.584 
" style="fill:none;stroke:#00ce98;stroke-width:1.5;"/>
   </g>
   <g id="LineCollection_8">
    <path clip-path="url(#pa07f17e2df)" d="M 106.881104 307.584 
L 103.121362 260.780382 
L 97.686033 189.906332 
L 91.022044 97.636342 
L 87.15665 41.472 
L 87.15665 41.472 
" style="fill:none;stroke:#00c69c;stroke-width:1.5;"/>
    <path clip-path="url(#pa07f17e2df)" d="M 313.74204 41.472 
L 309.219018 106.997065 
L 305.379633 160.486915 
L 300.17578 230.023719 
L 294.017615 307.584 
L 294.017615 307.584 
" style="fill:none;stroke:#00c69c;stroke-width:1.5;"/>
   </g>
   <g id="LineCollection_9">
    <path clip-path="url(#pa07f17e2df)" d="M 102.979225 307.584 
L 97.950626 242.058935 
L 94.7023 197.929809 
L 88.397821 108.334312 
L 83.911965 41.472 
L 83.911965 41.472 
" style="fill:none;stroke:#00bda0;stroke-width:1.5;"/>
    <path clip-path="url(#pa07f17e2df)" d="M 316.986579 41.472 
L 311.21298 127.055759 
L 305.611366 205.953286 
L 299.795394 283.513568 
L 297.919289 307.584 
L 297.919289 307.584 
" style="fill:none;stroke:#00bda0;stroke-width:1.5;"/>
   </g>
   <g id="LineCollection_10">
    <path clip-path="url(#pa07f17e2df)" d="M 99.448124 307.584 
L 96.05496 262.117628 
L 90.135366 179.208362 
L 84.515291 96.299095 
L 80.944545 41.472 
L 80.944545 41.472 
" style="fill:none;stroke:#00b5a4;stroke-width:1.5;"/>
    <path clip-path="url(#pa07f17e2df)" d="M 319.953859 41.472 
L 313.697652 136.416482 
L 309.266249 200.604302 
L 305.233311 256.768643 
L 301.450289 307.584 
L 301.450289 307.584 
" style="fill:none;stroke:#00b5a4;stroke-width:1.5;"/>
   </g>
   <g id="LineCollection_11">
    <path clip-path="url(#pa07f17e2df)" d="M 96.220173 307.584 
L 89.829822 217.988503 
L 85.107905 148.451698 
L 81.521698 93.624603 
L 78.205913 41.472 
L 78.205913 41.472 
" style="fill:none;stroke:#00ada8;stroke-width:1.5;"/>
    <path clip-path="url(#pa07f17e2df)" d="M 322.692359 41.472 
L 316.849152 132.404744 
L 311.441116 212.639518 
L 305.262393 299.560523 
L 304.678052 307.584 
L 304.678052 307.584 
" style="fill:none;stroke:#00ada8;stroke-width:1.5;"/>
   </g>
   <g id="LineCollection_12">
    <path clip-path="url(#pa07f17e2df)" d="M 93.242395 307.584 
L 87.108752 219.325749 
L 81.887247 140.428221 
L 75.656391 41.472 
L 75.656391 41.472 
" style="fill:none;stroke:#00a5ac;stroke-width:1.5;"/>
    <path clip-path="url(#pa07f17e2df)" d="M 325.241756 41.472 
L 320.302701 120.369528 
L 312.883769 232.698211 
L 307.655733 307.584 
L 307.655733 307.584 
" style="fill:none;stroke:#00a5ac;stroke-width:1.5;"/>
   </g>
   <g id="LineCollection_13">
    <path clip-path="url(#pa07f17e2df)" d="M 90.469893 307.584 
L 83.954243 211.302271 
L 79.548417 143.102714 
L 75.380986 76.240402 
L 73.263356 41.472 
L 73.263356 41.472 
" style="fill:none;stroke:#009cb1;stroke-width:1.5;"/>
    <path clip-path="url(#pa07f17e2df)" d="M 327.634675 41.472 
L 324.032524 100.310834 
L 318.518343 187.231839 
L 312.456423 278.164583 
L 310.42814 307.584 
L 310.42814 307.584 
" style="fill:none;stroke:#009cb1;stroke-width:1.5;"/>
   </g>
   <g id="LineCollection_14">
    <path clip-path="url(#pa07f17e2df)" d="M 87.875658 307.584 
L 84.469391 256.768643 
L 78.607035 165.835899 
L 72.93261 73.56591 
L 71.017515 41.472 
L 71.017515 41.472 
" style="fill:none;stroke:#0094b5;stroke-width:1.5;"/>
    <path clip-path="url(#pa07f17e2df)" d="M 329.880477 41.472 
L 323.878966 140.428221 
L 318.79497 220.662995 
L 313.022352 307.584 
L 313.022352 307.584 
" style="fill:none;stroke:#0094b5;stroke-width:1.5;"/>
   </g>
   <g id="LineCollection_15">
    <path clip-path="url(#pa07f17e2df)" d="M 85.438847 307.584 
L 80.891479 238.047196 
L 76.928538 175.196623 
L 71.880237 92.287357 
L 68.886447 41.472 
L 68.886447 41.472 
" style="fill:none;stroke:#008cb9;stroke-width:1.5;"/>
    <path clip-path="url(#pa07f17e2df)" d="M 332.011437 41.472 
L 328.212649 105.659819 
L 322.972201 191.243578 
L 316.260967 295.548784 
L 315.459069 307.584 
L 315.459069 307.584 
" style="fill:none;stroke:#008cb9;stroke-width:1.5;"/>
   </g>
   <g id="LineCollection_16">
    <path clip-path="url(#pa07f17e2df)" d="M 83.130335 307.584 
L 76.917096 209.965025 
L 71.869517 127.055759 
L 66.868245 41.472 
L 66.868245 41.472 
" style="fill:none;stroke:#0084bd;stroke-width:1.5;"/>
    <path clip-path="url(#pa07f17e2df)" d="M 334.029603 41.472 
L 328.464871 136.416482 
L 322.477612 234.035457 
L 317.767492 307.584 
L 317.767492 307.584 
" style="fill:none;stroke:#0084bd;stroke-width:1.5;"/>
   </g>
   <g id="LineCollection_17">
    <path clip-path="url(#pa07f17e2df)" d="M 80.942001 307.584 
L 76.81063 242.058935 
L 72.006263 163.161407 
L 68.545526 104.322573 
L 64.938094 41.472 
L 64.938094 41.472 
" style="fill:none;stroke:#007bc2;stroke-width:1.5;"/>
    <path clip-path="url(#pa07f17e2df)" d="M 335.959716 41.472 
L 328.567988 168.510392 
L 322.249376 271.478352 
L 319.955799 307.584 
L 319.955799 307.584 
" style="fill:none;stroke:#007bc2;stroke-width:1.5;"/>
   </g>
   <g id="LineCollection_18">
    <path clip-path="url(#pa07f17e2df)" d="M 78.857361 307.584 
L 72.450621 203.278794 
L 67.727334 123.04402 
L 64.149481 60.193447 
L 63.097865 41.472 
L 63.097865 41.472 
" style="fill:none;stroke:#0073c6;stroke-width:1.5;"/>
    <path clip-path="url(#pa07f17e2df)" d="M 337.799849 41.472 
L 333.706055 113.683296 
L 328.939417 195.133833 
L 322.040355 307.584 
L 322.040355 307.584 
" style="fill:none;stroke:#0073c6;stroke-width:1.5;"/>
   </g>
   <g id="LineCollection_19">
    <path clip-path="url(#pa07f17e2df)" d="M 76.8696 307.584 
L 71.903434 226.01198 
L 64.464689 97.636342 
L 61.335626 41.472 
L 61.335626 41.472 
" style="fill:none;stroke:#006bca;stroke-width:1.5;"/>
    <path clip-path="url(#pa07f17e2df)" d="M 339.562052 41.472 
L 334.45926 132.404744 
L 327.38806 252.756905 
L 324.028088 307.584 
L 324.028088 307.584 
" style="fill:none;stroke:#006bca;stroke-width:1.5;"/>
   </g>
   <g id="LineCollection_20">
    <path clip-path="url(#pa07f17e2df)" d="M 74.960973 307.584 
L 71.260917 246.070673 
L 65.894424 153.800683 
L 59.64068 41.472 
L 59.64068 41.472 
" style="fill:none;stroke:#0063ce;stroke-width:1.5;"/>
    <path clip-path="url(#pa07f17e2df)" d="M 341.256963 41.472 
L 335.381904 147.114452 
L 330.034531 239.384442 
L 325.936687 307.584 
L 325.936687 307.584 
" style="fill:none;stroke:#0063ce;stroke-width:1.5;"/>
   </g>
   <g id="LineCollection_21">
    <path clip-path="url(#pa07f17e2df)" d="M 73.134385 307.584 
L 66.46364 193.91807 
L 62.395015 121.706774 
L 58.008139 41.472 
L 58.008139 41.472 
" style="fill:none;stroke:#005ad2;stroke-width:1.5;"/>
    <path clip-path="url(#pa07f17e2df)" d="M 342.889469 41.472 
L 336.259355 161.824161 
L 332.34953 230.023719 
L 327.763197 307.584 
L 327.763197 307.584 
" style="fill:none;stroke:#005ad2;stroke-width:1.5;"/>
   </g>
   <g id="LineCollection_22">
    <path clip-path="url(#pa07f17e2df)" d="M 71.378487 307.584 
L 65.704062 209.965025 
L 59.675885 101.64808 
L 57.6 63.358378 
L 57.6 63.358378 
" style="fill:none;stroke:#0052d6;stroke-width:1.5;"/>
    <path clip-path="url(#pa07f17e2df)" d="M 343.296 63.387411 
L 335.269285 208.627779 
L 330.235451 295.548784 
L 329.519067 307.584 
L 329.519067 307.584 
" style="fill:none;stroke:#0052d6;stroke-width:1.5;"/>
   </g>
   <g id="LineCollection_23">
    <path clip-path="url(#pa07f17e2df)" d="M 69.684733 307.584 
L 64.679863 220.662995 
L 57.6 92.058002 
L 57.6 92.058002 
" style="fill:none;stroke:#004ada;stroke-width:1.5;"/>
    <path clip-path="url(#pa07f17e2df)" d="M 343.296 92.086381 
L 335.304343 236.70995 
L 331.212793 307.584 
L 331.212793 307.584 
" style="fill:none;stroke:#004ada;stroke-width:1.5;"/>
   </g>
   <g id="LineCollection_24">
    <path clip-path="url(#pa07f17e2df)" d="M 68.049025 307.584 
L 63.478875 227.349226 
L 59.570519 156.475176 
L 57.6 120.112281 
L 57.6 120.112281 
" style="fill:none;stroke:#0042de;stroke-width:1.5;"/>
    <path clip-path="url(#pa07f17e2df)" d="M 343.296 120.140036 
L 335.378712 263.454874 
L 332.848474 307.584 
L 332.848474 307.584 
" style="fill:none;stroke:#0042de;stroke-width:1.5;"/>
   </g>
   <g id="LineCollection_25">
    <path clip-path="url(#pa07f17e2df)" d="M 66.467539 307.584 
L 66.390224 306.246754 
L 66.312828 304.909508 
L 66.235352 303.572261 
L 66.21395 303.202962 
L 66.159454 302.235015 
L 66.084112 300.897769 
L 66.008693 299.560523 
L 65.933198 298.223276 
L 65.857627 296.88603 
L 65.781979 295.548784 
L 65.706254 294.211538 
L 65.630451 292.874291 
L 65.554571 291.537045 
L 65.478614 290.199799 
L 65.402578 288.862553 
L 65.326464 287.525307 
L 65.250272 286.18806 
L 65.174001 284.850814 
L 65.097651 283.513568 
L 65.021221 282.176322 
L 64.944713 280.839075 
L 64.868124 279.501829 
L 64.791456 278.164583 
L 64.778291 277.935013 
L 64.716592 276.827337 
L 64.642042 275.49009 
L 64.567417 274.152844 
L 64.492717 272.815598 
L 64.417941 271.478352 
L 64.343089 270.141106 
L 64.268161 268.803859 
L 64.193156 267.466613 
L 64.118074 266.129367 
L 64.042916 264.792121 
L 63.967681 263.454874 
L 63.892368 262.117628 
L 63.816977 260.780382 
L 63.741508 259.443136 
L 63.665962 258.105889 
L 63.590337 256.768643 
L 63.514633 255.431397 
L 63.438851 254.094151 
L 63.362989 252.756905 
L 63.342633 252.398181 
L 63.288701 251.419658 
L 63.214942 250.082412 
L 63.14111 248.745166 
L 63.067202 247.40792 
L 62.99322 246.070673 
L 62.919163 244.733427 
L 62.84503 243.396181 
L 62.770821 242.058935 
L 62.696537 240.721688 
L 62.622177 239.384442 
L 62.54774 238.047196 
L 62.473227 236.70995 
L 62.398637 235.372704 
L 62.32397 234.035457 
L 62.249225 232.698211 
L 62.174403 231.360965 
L 62.099504 230.023719 
L 62.024526 228.686472 
L 61.94947 227.349226 
L 61.906975 226.592546 
L 61.875309 226.01198 
L 61.802341 224.674734 
L 61.729299 223.337487 
L 61.656183 222.000241 
L 61.582993 220.662995 
L 61.509729 219.325749 
L 61.43639 217.988503 
L 61.362976 216.651256 
L 61.289488 215.31401 
L 61.215924 213.976764 
L 61.142285 212.639518 
L 61.06857 211.302271 
L 60.994779 209.965025 
L 60.920913 208.627779 
L 60.846969 207.290533 
L 60.772949 205.953286 
L 60.698853 204.61604 
L 60.624679 203.278794 
L 60.550428 201.941548 
L 60.476099 200.604302 
L 60.471317 200.518264 
L 60.403776 199.267055 
L 60.331523 197.929809 
L 60.259197 196.592563 
L 60.186798 195.255317 
L 60.114325 193.91807 
L 60.041779 192.580824 
L 59.969159 191.243578 
L 59.896465 189.906332 
L 59.823697 188.569085 
L 59.750854 187.231839 
L 59.677936 185.894593 
L 59.604944 184.557347 
L 59.531876 183.220101 
L 59.458732 181.882854 
L 59.385513 180.545608 
L 59.312218 179.208362 
L 59.238847 177.871116 
L 59.1654 176.533869 
L 59.091876 175.196623 
L 59.035658 174.174966 
L 59.018796 173.859377 
L 58.947331 172.522131 
L 58.875793 171.184884 
L 58.804184 169.847638 
L 58.732501 168.510392 
L 58.660746 167.173146 
L 58.588919 165.835899 
L 58.517018 164.498653 
L 58.445043 163.161407 
L 58.372995 161.824161 
L 58.300873 160.486915 
L 58.228678 159.149668 
L 58.156407 157.812422 
L 58.084063 156.475176 
L 58.011643 155.13793 
L 57.939149 153.800683 
L 57.866579 152.463437 
L 57.793934 151.126191 
L 57.721214 149.788945 
L 57.648417 148.451698 
L 57.6 147.562915 
" style="fill:none;stroke:#0039e2;stroke-width:1.5;"/>
    <path clip-path="url(#pa07f17e2df)" d="M 343.296 147.590072 
L 343.249062 148.451698 
L 343.176263 149.788945 
L 343.10354 151.126191 
L 343.030893 152.463437 
L 342.958321 153.800683 
L 342.885824 155.13793 
L 342.813403 156.475176 
L 342.741056 157.812422 
L 342.668783 159.149668 
L 342.596585 160.486915 
L 342.524461 161.824161 
L 342.452411 163.161407 
L 342.380434 164.498653 
L 342.308531 165.835899 
L 342.236701 167.173146 
L 342.164944 168.510392 
L 342.093259 169.847638 
L 342.021647 171.184884 
L 341.950108 172.522131 
L 341.87864 173.859377 
L 341.860342 174.201848 
L 341.805603 175.196623 
L 341.732076 176.533869 
L 341.658627 177.871116 
L 341.585253 179.208362 
L 341.511956 180.545608 
L 341.438735 181.882854 
L 341.365589 183.220101 
L 341.292519 184.557347 
L 341.219524 185.894593 
L 341.146604 187.231839 
L 341.073759 188.569085 
L 341.000988 189.906332 
L 340.928292 191.243578 
L 340.85567 192.580824 
L 340.783122 193.91807 
L 340.710647 195.255317 
L 340.638245 196.592563 
L 340.565917 197.929809 
L 340.493662 199.267055 
L 340.424683 200.544892 
L 340.421381 200.604302 
L 340.34705 201.941548 
L 340.272797 203.278794 
L 340.19862 204.61604 
L 340.124521 205.953286 
L 340.050499 207.290533 
L 339.976554 208.627779 
L 339.902685 209.965025 
L 339.828892 211.302271 
L 339.755174 212.639518 
L 339.681533 213.976764 
L 339.607967 215.31401 
L 339.534476 216.651256 
L 339.461061 217.988503 
L 339.38772 219.325749 
L 339.314453 220.662995 
L 339.241261 222.000241 
L 339.168143 223.337487 
L 339.095098 224.674734 
L 339.022128 226.01198 
L 338.989025 226.618887 
L 338.948008 227.349226 
L 338.87295 228.686472 
L 338.79797 230.023719 
L 338.723068 231.360965 
L 338.648244 232.698211 
L 338.573498 234.035457 
L 338.498828 235.372704 
L 338.424236 236.70995 
L 338.34972 238.047196 
L 338.275281 239.384442 
L 338.200919 240.721688 
L 338.126632 242.058935 
L 338.052421 243.396181 
L 337.978286 244.733427 
L 337.904227 246.070673 
L 337.830242 247.40792 
L 337.756332 248.745166 
L 337.682498 250.082412 
L 337.608737 251.419658 
L 337.553367 252.424257 
L 337.53449 252.756905 
L 337.458626 254.094151 
L 337.382842 255.431397 
L 337.307136 256.768643 
L 337.231508 258.105889 
L 337.155959 259.443136 
L 337.080489 260.780382 
L 337.005096 262.117628 
L 336.92978 263.454874 
L 336.854543 264.792121 
L 336.779382 266.129367 
L 336.704298 267.466613 
L 336.629291 268.803859 
L 336.554361 270.141106 
L 336.479506 271.478352 
L 336.404728 272.815598 
L 336.330025 274.152844 
L 336.255398 275.49009 
L 336.180847 276.827337 
L 336.117709 277.960819 
L 336.106024 278.164583 
L 336.029353 279.501829 
L 335.952762 280.839075 
L 335.876251 282.176322 
L 335.79982 283.513568 
L 335.723467 284.850814 
L 335.647194 286.18806 
L 335.570999 287.525307 
L 335.494883 288.862553 
L 335.418845 290.199799 
L 335.342885 291.537045 
L 335.267003 292.874291 
L 335.191198 294.211538 
L 335.11547 295.548784 
L 335.03982 296.88603 
L 334.964246 298.223276 
L 334.888749 299.560523 
L 334.813329 300.897769 
L 334.737984 302.235015 
L 334.68205 303.228491 
L 334.662127 303.572261 
L 334.584648 304.909508 
L 334.507251 306.246754 
L 334.429933 307.584 
" style="fill:none;stroke:#0039e2;stroke-width:1.5;"/>
   </g>
   <g id="LineCollection_26">
    <path clip-path="url(#pa07f17e2df)" d="M 64.936707 307.584 
L 64.860123 306.246754 
L 64.78346 304.909508 
L 64.778291 304.819352 
L 64.708813 303.572261 
L 64.634243 302.235015 
L 64.559599 300.897769 
L 64.484882 299.560523 
L 64.41009 298.223276 
L 64.335223 296.88603 
L 64.260282 295.548784 
L 64.185266 294.211538 
L 64.110174 292.874291 
L 64.035007 291.537045 
L 63.959765 290.199799 
L 63.884447 288.862553 
L 63.809052 287.525307 
L 63.733581 286.18806 
L 63.658034 284.850814 
L 63.58241 283.513568 
L 63.506709 282.176322 
L 63.430931 280.839075 
L 63.355075 279.501829 
L 63.342633 279.282536 
L 63.281004 278.164583 
L 63.207226 276.827337 
L 63.133374 275.49009 
L 63.059449 274.152844 
L 62.98545 272.815598 
L 62.911378 271.478352 
L 62.837232 270.141106 
L 62.763012 268.803859 
L 62.688718 267.466613 
L 62.614349 266.129367 
L 62.539905 264.792121 
L 62.465386 263.454874 
L 62.390792 262.117628 
L 62.316122 260.780382 
L 62.241377 259.443136 
L 62.166556 258.105889 
L 62.091658 256.768643 
L 62.016685 255.431397 
L 61.941634 254.094151 
L 61.906975 253.476889 
L 61.867698 252.756905 
L 61.794708 251.419658 
L 61.721647 250.082412 
L 61.648513 248.745166 
L 61.575306 247.40792 
L 61.502027 246.070673 
L 61.428675 244.733427 
L 61.355249 243.396181 
L 61.28175 242.058935 
L 61.208177 240.721688 
L 61.13453 239.384442 
L 61.060809 238.047196 
L 60.987014 236.70995 
L 60.913144 235.372704 
L 60.839199 234.035457 
L 60.765179 232.698211 
L 60.691084 231.360965 
L 60.616913 230.023719 
L 60.542667 228.686472 
L 60.471317 227.402651 
L 60.468432 227.349226 
L 60.39623 226.01198 
L 60.323957 224.674734 
L 60.251613 223.337487 
L 60.179196 222.000241 
L 60.106708 220.662995 
L 60.034148 219.325749 
L 59.961515 217.988503 
L 59.888809 216.651256 
L 59.816031 215.31401 
L 59.74318 213.976764 
L 59.670255 212.639518 
L 59.597257 211.302271 
L 59.524185 209.965025 
L 59.451039 208.627779 
L 59.377819 207.290533 
L 59.304525 205.953286 
L 59.231156 204.61604 
L 59.157712 203.278794 
L 59.084193 201.941548 
L 59.035658 201.05934 
L 59.011341 200.604302 
L 58.939854 199.267055 
L 58.868297 197.929809 
L 58.796669 196.592563 
L 58.72497 195.255317 
L 58.6532 193.91807 
L 58.581358 192.580824 
L 58.509445 191.243578 
L 58.437459 189.906332 
L 58.365402 188.569085 
L 58.293272 187.231839 
L 58.221069 185.894593 
L 58.148794 184.557347 
L 58.076446 183.220101 
L 58.004024 181.882854 
L 57.931529 180.545608 
L 57.858961 179.208362 
L 57.786318 177.871116 
L 57.713601 176.533869 
L 57.64081 175.196623 
L 57.6 174.447333 
" style="fill:none;stroke:#0031e6;stroke-width:1.5;"/>
    <path clip-path="url(#pa07f17e2df)" d="M 343.296 174.473944 
L 343.256639 175.196623 
L 343.183846 176.533869 
L 343.111127 177.871116 
L 343.038482 179.208362 
L 342.965911 180.545608 
L 342.893414 181.882854 
L 342.82099 183.220101 
L 342.74864 184.557347 
L 342.676362 185.894593 
L 342.604157 187.231839 
L 342.532025 188.569085 
L 342.459966 189.906332 
L 342.387978 191.243578 
L 342.316062 192.580824 
L 342.244218 193.91807 
L 342.172446 195.255317 
L 342.100745 196.592563 
L 342.029115 197.929809 
L 341.957556 199.267055 
L 341.886067 200.604302 
L 341.860342 201.085681 
L 341.813256 201.941548 
L 341.739734 203.278794 
L 341.666288 204.61604 
L 341.592917 205.953286 
L 341.519621 207.290533 
L 341.446399 208.627779 
L 341.373251 209.965025 
L 341.300176 211.302271 
L 341.227176 212.639518 
L 341.154249 213.976764 
L 341.081396 215.31401 
L 341.008615 216.651256 
L 340.935908 217.988503 
L 340.863273 219.325749 
L 340.79071 220.662995 
L 340.718219 222.000241 
L 340.645801 223.337487 
L 340.573454 224.674734 
L 340.501179 226.01198 
L 340.428975 227.349226 
L 340.424683 227.428717 
L 340.354781 228.686472 
L 340.280532 230.023719 
L 340.206359 231.360965 
L 340.132262 232.698211 
L 340.05824 234.035457 
L 339.984293 235.372704 
L 339.910421 236.70995 
L 339.836623 238.047196 
L 339.7629 239.384442 
L 339.689251 240.721688 
L 339.615676 242.058935 
L 339.542175 243.396181 
L 339.468747 244.733427 
L 339.395392 246.070673 
L 339.322111 247.40792 
L 339.248902 248.745166 
L 339.175766 250.082412 
L 339.102702 251.419658 
L 339.029711 252.756905 
L 338.989025 253.5027 
L 338.955815 254.094151 
L 338.880762 255.431397 
L 338.805786 256.768643 
L 338.730886 258.105889 
L 338.656063 259.443136 
L 338.581315 260.780382 
L 338.506644 262.117628 
L 338.432047 263.454874 
L 338.357526 264.792121 
L 338.28308 266.129367 
L 338.208709 267.466613 
L 338.134412 268.803859 
L 338.06019 270.141106 
L 337.986042 271.478352 
L 337.911967 272.815598 
L 337.837967 274.152844 
L 337.76404 275.49009 
L 337.690186 276.827337 
L 337.616405 278.164583 
L 337.553367 279.308088 
L 337.542375 279.501829 
L 337.466517 280.839075 
L 337.390736 282.176322 
L 337.315033 283.513568 
L 337.239406 284.850814 
L 337.163857 286.18806 
L 337.088384 287.525307 
L 337.012987 288.862553 
L 336.937667 290.199799 
L 336.862422 291.537045 
L 336.787253 292.874291 
L 336.712159 294.211538 
L 336.637141 295.548784 
L 336.562197 296.88603 
L 336.487329 298.223276 
L 336.412534 299.560523 
L 336.337814 300.897769 
L 336.263169 302.235015 
L 336.188596 303.572261 
L 336.117709 304.844638 
L 336.113989 304.909508 
L 336.037324 306.246754 
L 335.960738 307.584 
" style="fill:none;stroke:#0031e6;stroke-width:1.5;"/>
   </g>
   <g id="LineCollection_27">
    <path clip-path="url(#pa07f17e2df)" d="M 63.453201 307.584 
L 63.377381 306.246754 
L 63.342633 305.634197 
L 63.302676 304.909508 
L 63.228907 303.572261 
L 63.155065 302.235015 
L 63.081152 300.897769 
L 63.007167 299.560523 
L 62.93311 298.223276 
L 62.858981 296.88603 
L 62.784778 295.548784 
L 62.710503 294.211538 
L 62.636155 292.874291 
L 62.561734 291.537045 
L 62.487239 290.199799 
L 62.41267 288.862553 
L 62.338027 287.525307 
L 62.263311 286.18806 
L 62.188519 284.850814 
L 62.113654 283.513568 
L 62.038713 282.176322 
L 61.963697 280.839075 
L 61.906975 279.828694 
L 61.88914 279.501829 
L 61.816159 278.164583 
L 61.743108 276.827337 
L 61.669985 275.49009 
L 61.596791 274.152844 
L 61.523526 272.815598 
L 61.450189 271.478352 
L 61.376781 270.141106 
L 61.3033 268.803859 
L 61.229747 267.466613 
L 61.156122 266.129367 
L 61.082424 264.792121 
L 61.008653 263.454874 
L 60.934809 262.117628 
L 60.860892 260.780382 
L 60.786901 259.443136 
L 60.712837 258.105889 
L 60.638698 256.768643 
L 60.564486 255.431397 
L 60.490199 254.094151 
L 60.471317 253.754339 
L 60.417454 252.756905 
L 60.34519 251.419658 
L 60.272856 250.082412 
L 60.200451 248.745166 
L 60.127976 247.40792 
L 60.05543 246.070673 
L 59.982813 244.733427 
L 59.910125 243.396181 
L 59.837366 242.058935 
L 59.764535 240.721688 
L 59.691632 239.384442 
L 59.618658 238.047196 
L 59.545611 236.70995 
L 59.472491 235.372704 
L 59.399299 234.035457 
L 59.326034 232.698211 
L 59.252696 231.360965 
L 59.179285 230.023719 
L 59.1058 228.686472 
L 59.035658 227.411278 
L 59.032342 227.349226 
L 58.960863 226.01198 
L 58.889315 224.674734 
L 58.817697 223.337487 
L 58.74601 222.000241 
L 58.674253 220.662995 
L 58.602426 219.325749 
L 58.530529 217.988503 
L 58.458561 216.651256 
L 58.386522 215.31401 
L 58.314413 213.976764 
L 58.242232 212.639518 
L 58.169981 211.302271 
L 58.097657 209.965025 
L 58.025262 208.627779 
L 57.952795 207.290533 
L 57.880256 205.953286 
L 57.807644 204.61604 
L 57.73496 203.278794 
L 57.662203 201.941548 
L 57.6 200.799261 
" style="fill:none;stroke:#0029eb;stroke-width:1.5;"/>
    <path clip-path="url(#pa07f17e2df)" d="M 343.296 200.825348 
L 343.235217 201.941548 
L 343.162458 203.278794 
L 343.089771 204.61604 
L 343.017158 205.953286 
L 342.944616 207.290533 
L 342.872147 208.627779 
L 342.79975 209.965025 
L 342.727425 211.302271 
L 342.655171 212.639518 
L 342.582988 213.976764 
L 342.510876 215.31401 
L 342.438836 216.651256 
L 342.366866 217.988503 
L 342.294967 219.325749 
L 342.223137 220.662995 
L 342.151378 222.000241 
L 342.079689 223.337487 
L 342.00807 224.674734 
L 341.936519 226.01198 
L 341.865039 227.349226 
L 341.860342 227.4371 
L 341.791619 228.686472 
L 341.718132 230.023719 
L 341.644719 231.360965 
L 341.571379 232.698211 
L 341.498112 234.035457 
L 341.424918 235.372704 
L 341.351796 236.70995 
L 341.278747 238.047196 
L 341.20577 239.384442 
L 341.132865 240.721688 
L 341.060032 242.058935 
L 340.987271 243.396181 
L 340.914581 244.733427 
L 340.841962 246.070673 
L 340.769414 247.40792 
L 340.696937 248.745166 
L 340.62453 250.082412 
L 340.552194 251.419658 
L 340.479927 252.756905 
L 340.424683 253.779917 
L 340.407222 254.094151 
L 340.332933 255.431397 
L 340.258718 256.768643 
L 340.184578 258.105889 
L 340.110511 259.443136 
L 340.036518 260.780382 
L 339.962599 262.117628 
L 339.888753 263.454874 
L 339.81498 264.792121 
L 339.74128 266.129367 
L 339.667652 267.466613 
L 339.594098 268.803859 
L 339.520615 270.141106 
L 339.447204 271.478352 
L 339.373865 272.815598 
L 339.300598 274.152844 
L 339.227402 275.49009 
L 339.154277 276.827337 
L 339.081224 278.164583 
L 339.008241 279.501829 
L 338.989025 279.853996 
L 338.933722 280.839075 
L 338.858705 282.176322 
L 338.783762 283.513568 
L 338.708894 284.850814 
L 338.634101 286.18806 
L 338.559382 287.525307 
L 338.484737 288.862553 
L 338.410166 290.199799 
L 338.335669 291.537045 
L 338.261245 292.874291 
L 338.186895 294.211538 
L 338.112618 295.548784 
L 338.038413 296.88603 
L 337.964282 298.223276 
L 337.890222 299.560523 
L 337.816235 300.897769 
L 337.74232 302.235015 
L 337.668477 303.572261 
L 337.594705 304.909508 
L 337.553367 305.659244 
L 337.52004 306.246754 
L 337.444217 307.584 
" style="fill:none;stroke:#0029eb;stroke-width:1.5;"/>
   </g>
   <g id="LineCollection_28">
    <path clip-path="url(#pa07f17e2df)" d="M 62.013912 307.584 
L 61.938883 306.246754 
L 61.906975 305.678286 
L 61.865021 304.909508 
L 61.792005 303.572261 
L 61.71892 302.235015 
L 61.645764 300.897769 
L 61.572539 299.560523 
L 61.499244 298.223276 
L 61.425878 296.88603 
L 61.352442 295.548784 
L 61.278935 294.211538 
L 61.205357 292.874291 
L 61.131708 291.537045 
L 61.057988 290.199799 
L 60.984196 288.862553 
L 60.910332 287.525307 
L 60.836397 286.18806 
L 60.762389 284.850814 
L 60.688308 283.513568 
L 60.614155 282.176322 
L 60.53993 280.839075 
L 60.471317 279.604074 
L 60.465794 279.501829 
L 60.393565 278.164583 
L 60.321266 276.827337 
L 60.248899 275.49009 
L 60.176463 274.152844 
L 60.103957 272.815598 
L 60.031382 271.478352 
L 59.958737 270.141106 
L 59.886022 268.803859 
L 59.813237 267.466613 
L 59.740382 266.129367 
L 59.667456 264.792121 
L 59.59446 263.454874 
L 59.521392 262.117628 
L 59.448254 260.780382 
L 59.375044 259.443136 
L 59.301762 258.105889 
L 59.228409 256.768643 
L 59.154984 255.431397 
L 59.081487 254.094151 
L 59.035658 253.260836 
L 59.008718 252.756905 
L 58.937205 251.419658 
L 58.865623 250.082412 
L 58.793973 248.745166 
L 58.722255 247.40792 
L 58.650468 246.070673 
L 58.578612 244.733427 
L 58.506687 243.396181 
L 58.434693 242.058935 
L 58.36263 240.721688 
L 58.290496 239.384442 
L 58.218293 238.047196 
L 58.14602 236.70995 
L 58.073677 235.372704 
L 58.001263 234.035457 
L 57.928779 232.698211 
L 57.856223 231.360965 
L 57.783597 230.023719 
L 57.710899 228.686472 
L 57.63813 227.349226 
L 57.6 226.64889 
" style="fill:none;stroke:#0021ee;stroke-width:1.5;"/>
    <path clip-path="url(#pa07f17e2df)" d="M 343.296 226.674497 
L 343.259264 227.349226 
L 343.186492 228.686472 
L 343.113793 230.023719 
L 343.041164 231.360965 
L 342.968607 232.698211 
L 342.89612 234.035457 
L 342.823705 235.372704 
L 342.751359 236.70995 
L 342.679084 238.047196 
L 342.606879 239.384442 
L 342.534744 240.721688 
L 342.462678 242.058935 
L 342.390682 243.396181 
L 342.318755 244.733427 
L 342.246897 246.070673 
L 342.175108 247.40792 
L 342.103388 248.745166 
L 342.031736 250.082412 
L 341.960153 251.419658 
L 341.888637 252.756905 
L 341.860342 253.286184 
L 341.815907 254.094151 
L 341.742407 255.431397 
L 341.66898 256.768643 
L 341.595625 258.105889 
L 341.522341 259.443136 
L 341.449129 260.780382 
L 341.375989 262.117628 
L 341.302919 263.454874 
L 341.229921 264.792121 
L 341.156993 266.129367 
L 341.084136 267.466613 
L 341.011349 268.803859 
L 340.938632 270.141106 
L 340.865985 271.478352 
L 340.793408 272.815598 
L 340.7209 274.152844 
L 340.648462 275.49009 
L 340.576093 276.827337 
L 340.503792 278.164583 
L 340.43156 279.501829 
L 340.424683 279.629157 
L 340.357463 280.839075 
L 340.283235 282.176322 
L 340.20908 283.513568 
L 340.134998 284.850814 
L 340.060988 286.18806 
L 339.98705 287.525307 
L 339.913184 288.862553 
L 339.83939 290.199799 
L 339.765668 291.537045 
L 339.692017 292.874291 
L 339.618437 294.211538 
L 339.544928 295.548784 
L 339.47149 296.88603 
L 339.398122 298.223276 
L 339.324825 299.560523 
L 339.251598 300.897769 
L 339.17844 302.235015 
L 339.105353 303.572261 
L 339.032335 304.909508 
L 338.989025 305.703124 
L 338.958511 306.246754 
L 338.88348 307.584 
" style="fill:none;stroke:#0021ee;stroke-width:1.5;"/>
   </g>
   <g id="LineCollection_29">
    <path clip-path="url(#pa07f17e2df)" d="M 60.615936 307.584 
L 60.541723 306.246754 
L 60.471317 304.979265 
L 60.467548 304.909508 
L 60.395309 303.572261 
L 60.323001 302.235015 
L 60.250627 300.897769 
L 60.178184 299.560523 
L 60.105673 298.223276 
L 60.033094 296.88603 
L 59.960446 295.548784 
L 59.88773 294.211538 
L 59.814945 292.874291 
L 59.742091 291.537045 
L 59.669168 290.199799 
L 59.596175 288.862553 
L 59.523113 287.525307 
L 59.44998 286.18806 
L 59.376778 284.850814 
L 59.303506 283.513568 
L 59.230163 282.176322 
L 59.156749 280.839075 
L 59.083265 279.501829 
L 59.035658 278.636046 
L 59.01045 278.164583 
L 58.938927 276.827337 
L 58.867337 275.49009 
L 58.795679 274.152844 
L 58.723955 272.815598 
L 58.652163 271.478352 
L 58.580304 270.141106 
L 58.508377 268.803859 
L 58.436381 267.466613 
L 58.364318 266.129367 
L 58.292186 264.792121 
L 58.219986 263.454874 
L 58.147717 262.117628 
L 58.075378 260.780382 
L 58.002971 259.443136 
L 57.930494 258.105889 
L 57.857948 256.768643 
L 57.785332 255.431397 
L 57.712646 254.094151 
L 57.63989 252.756905 
L 57.6 252.024122 
" style="fill:none;stroke:#0018f3;stroke-width:1.5;"/>
    <path clip-path="url(#pa07f17e2df)" d="M 343.296 252.049268 
L 343.257478 252.756905 
L 343.18472 254.094151 
L 343.112032 255.431397 
L 343.039414 256.768643 
L 342.966866 258.105889 
L 342.894387 259.443136 
L 342.821978 260.780382 
L 342.749638 262.117628 
L 342.677367 263.454874 
L 342.605165 264.792121 
L 342.533031 266.129367 
L 342.460965 267.466613 
L 342.388968 268.803859 
L 342.317039 270.141106 
L 342.245178 271.478352 
L 342.173384 272.815598 
L 342.101657 274.152844 
L 342.029998 275.49009 
L 341.958406 276.827337 
L 341.886881 278.164583 
L 341.860342 278.660937 
L 341.814103 279.501829 
L 341.740617 280.839075 
L 341.667201 282.176322 
L 341.593856 283.513568 
L 341.520582 284.850814 
L 341.447378 286.18806 
L 341.374244 287.525307 
L 341.301179 288.862553 
L 341.228184 290.199799 
L 341.155259 291.537045 
L 341.082403 292.874291 
L 341.009616 294.211538 
L 340.936898 295.548784 
L 340.864248 296.88603 
L 340.791667 298.223276 
L 340.719155 299.560523 
L 340.64671 300.897769 
L 340.574333 302.235015 
L 340.502024 303.572261 
L 340.429782 304.909508 
L 340.424683 305.003896 
L 340.355645 306.246754 
L 340.281429 307.584 
" style="fill:none;stroke:#0018f3;stroke-width:1.5;"/>
   </g>
   <g id="LineCollection_30">
    <path clip-path="url(#pa07f17e2df)" d="M 59.256563 307.584 
L 59.183183 306.246754 
L 59.109734 304.909508 
L 59.036216 303.572261 
L 59.035658 303.562117 
L 58.96469 302.235015 
L 58.893114 300.897769 
L 58.821472 299.560523 
L 58.749764 298.223276 
L 58.67799 296.88603 
L 58.60615 295.548784 
L 58.534242 294.211538 
L 58.462269 292.874291 
L 58.390228 291.537045 
L 58.31812 290.199799 
L 58.245945 288.862553 
L 58.173702 287.525307 
L 58.101392 286.18806 
L 58.029014 284.850814 
L 57.956567 283.513568 
L 57.884053 282.176322 
L 57.811469 280.839075 
L 57.738818 279.501829 
L 57.666097 278.164583 
L 57.6 276.950182 
" style="fill:none;stroke:#0010f7;stroke-width:1.5;"/>
    <path clip-path="url(#pa07f17e2df)" d="M 343.296 276.974882 
L 343.231247 278.164583 
L 343.158524 279.501829 
L 343.08587 280.839075 
L 343.013285 282.176322 
L 342.940769 283.513568 
L 342.868321 284.850814 
L 342.79594 286.18806 
L 342.723628 287.525307 
L 342.651383 288.862553 
L 342.579206 290.199799 
L 342.507097 291.537045 
L 342.435054 292.874291 
L 342.363078 294.211538 
L 342.291169 295.548784 
L 342.219327 296.88603 
L 342.147551 298.223276 
L 342.075841 299.560523 
L 342.004197 300.897769 
L 341.932619 302.235015 
L 341.861107 303.572261 
L 341.860342 303.586575 
L 341.787609 304.909508 
L 341.714158 306.246754 
L 341.640777 307.584 
" style="fill:none;stroke:#0010f7;stroke-width:1.5;"/>
   </g>
   <g id="LineCollection_31">
    <path clip-path="url(#pa07f17e2df)" d="M 57.933255 307.584 
L 57.860725 306.246754 
L 57.788128 304.909508 
L 57.715463 303.572261 
L 57.64273 302.235015 
L 57.6 301.449817 
" style="fill:none;stroke:#0008fb;stroke-width:1.5;"/>
    <path clip-path="url(#pa07f17e2df)" d="M 343.296 301.474108 
L 343.254591 302.235015 
L 343.181857 303.572261 
L 343.10919 304.909508 
L 343.036591 306.246754 
L 342.964059 307.584 
" style="fill:none;stroke:#0008fb;stroke-width:1.5;"/>
   </g>
   <g id="LineCollection_32"/>
   <g id="patch_3">
    <path d="M 57.6 307.584 
L 57.6 41.472 
" style="fill:none;stroke:#000000;stroke-linecap:square;stroke-linejoin:miter;stroke-width:0.8;"/>
   </g>
   <g id="patch_4">
    <path d="M 343.296 307.584 
L 343.296 41.472 
" style="fill:none;stroke:#000000;stroke-linecap:square;stroke-linejoin:miter;stroke-width:0.8;"/>
   </g>
   <g id="patch_5">
    <path d="M 57.6 307.584 
L 343.296 307.584 
" style="fill:none;stroke:#000000;stroke-linecap:square;stroke-linejoin:miter;stroke-width:0.8;"/>
   </g>
   <g id="patch_6">
    <path d="M 57.6 41.472 
L 343.296 41.472 
" style="fill:none;stroke:#000000;stroke-linecap:square;stroke-linejoin:miter;stroke-width:0.8;"/>
   </g>
  </g>
  <g id="axes_2">
   <g id="patch_7">
    <path clip-path="url(#pce288489ee)" d="M 361.152 307.584 
L 361.152 298.999742 
L 361.152 50.056258 
L 361.152 41.472 
L 374.4576 41.472 
L 374.4576 50.056258 
L 374.4576 298.999742 
L 374.4576 307.584 
z
" style="fill:#ffffff;stroke:#ffffff;stroke-linejoin:miter;stroke-width:0.01;"/>
   </g>
   <g id="matplotlib.axis_3"/>
   <g id="matplotlib.axis_4">
    <g id="ytick_10">
     <g id="line2d_19">
      <defs>
       <path d="M 0 0 
L 3.5 0 
" id="m14002043dd" style="stroke:#000000;stroke-width:0.8;"/>
      </defs>
      <g>
       <use style="stroke:#000000;stroke-width:0.8;" x="374.4576" xlink:href="#m14002043dd" y="307.584"/>
      </g>
     </g>
     <g id="text_19">
      <!-- 0.00 -->
      <g transform="translate(381.4576 311.383219)scale(0.1 -0.1)">
       <use xlink:href="#DejaVuSans-48"/>
       <use x="63.623047" xlink:href="#DejaVuSans-46"/>
       <use x="95.410156" xlink:href="#DejaVuSans-48"/>
       <use x="159.033203" xlink:href="#DejaVuSans-48"/>
      </g>
     </g>
    </g>
    <g id="ytick_11">
     <g id="line2d_20">
      <g>
       <use style="stroke:#000000;stroke-width:0.8;" x="374.4576" xlink:href="#m14002043dd" y="273.246968"/>
      </g>
     </g>
     <g id="text_20">
      <!-- 0.16 -->
      <defs>
       <path d="M 33.015625 40.375 
Q 26.375 40.375 22.484375 35.828125 
Q 18.609375 31.296875 18.609375 23.390625 
Q 18.609375 15.53125 22.484375 10.953125 
Q 26.375 6.390625 33.015625 6.390625 
Q 39.65625 6.390625 43.53125 10.953125 
Q 47.40625 15.53125 47.40625 23.390625 
Q 47.40625 31.296875 43.53125 35.828125 
Q 39.65625 40.375 33.015625 40.375 
z
M 52.59375 71.296875 
L 52.59375 62.3125 
Q 48.875 64.0625 45.09375 64.984375 
Q 41.3125 65.921875 37.59375 65.921875 
Q 27.828125 65.921875 22.671875 59.328125 
Q 17.53125 52.734375 16.796875 39.40625 
Q 19.671875 43.65625 24.015625 45.921875 
Q 28.375 48.1875 33.59375 48.1875 
Q 44.578125 48.1875 50.953125 41.515625 
Q 57.328125 34.859375 57.328125 23.390625 
Q 57.328125 12.15625 50.6875 5.359375 
Q 44.046875 -1.421875 33.015625 -1.421875 
Q 20.359375 -1.421875 13.671875 8.265625 
Q 6.984375 17.96875 6.984375 36.375 
Q 6.984375 53.65625 15.1875 63.9375 
Q 23.390625 74.21875 37.203125 74.21875 
Q 40.921875 74.21875 44.703125 73.484375 
Q 48.484375 72.75 52.59375 71.296875 
z
" id="DejaVuSans-54"/>
      </defs>
      <g transform="translate(381.4576 277.046186)scale(0.1 -0.1)">
       <use xlink:href="#DejaVuSans-48"/>
       <use x="63.623047" xlink:href="#DejaVuSans-46"/>
       <use x="95.410156" xlink:href="#DejaVuSans-49"/>
       <use x="159.033203" xlink:href="#DejaVuSans-54"/>
      </g>
     </g>
    </g>
    <g id="ytick_12">
     <g id="line2d_21">
      <g>
       <use style="stroke:#000000;stroke-width:0.8;" x="374.4576" xlink:href="#m14002043dd" y="238.909935"/>
      </g>
     </g>
     <g id="text_21">
      <!-- 0.32 -->
      <defs>
       <path d="M 40.578125 39.3125 
Q 47.65625 37.796875 51.625 33 
Q 55.609375 28.21875 55.609375 21.1875 
Q 55.609375 10.40625 48.1875 4.484375 
Q 40.765625 -1.421875 27.09375 -1.421875 
Q 22.515625 -1.421875 17.65625 -0.515625 
Q 12.796875 0.390625 7.625 2.203125 
L 7.625 11.71875 
Q 11.71875 9.328125 16.59375 8.109375 
Q 21.484375 6.890625 26.8125 6.890625 
Q 36.078125 6.890625 40.9375 10.546875 
Q 45.796875 14.203125 45.796875 21.1875 
Q 45.796875 27.640625 41.28125 31.265625 
Q 36.765625 34.90625 28.71875 34.90625 
L 20.21875 34.90625 
L 20.21875 43.015625 
L 29.109375 43.015625 
Q 36.375 43.015625 40.234375 45.921875 
Q 44.09375 48.828125 44.09375 54.296875 
Q 44.09375 59.90625 40.109375 62.90625 
Q 36.140625 65.921875 28.71875 65.921875 
Q 24.65625 65.921875 20.015625 65.03125 
Q 15.375 64.15625 9.8125 62.3125 
L 9.8125 71.09375 
Q 15.4375 72.65625 20.34375 73.4375 
Q 25.25 74.21875 29.59375 74.21875 
Q 40.828125 74.21875 47.359375 69.109375 
Q 53.90625 64.015625 53.90625 55.328125 
Q 53.90625 49.265625 50.4375 45.09375 
Q 46.96875 40.921875 40.578125 39.3125 
z
" id="DejaVuSans-51"/>
      </defs>
      <g transform="translate(381.4576 242.709154)scale(0.1 -0.1)">
       <use xlink:href="#DejaVuSans-48"/>
       <use x="63.623047" xlink:href="#DejaVuSans-46"/>
       <use x="95.410156" xlink:href="#DejaVuSans-51"/>
       <use x="159.033203" xlink:href="#DejaVuSans-50"/>
      </g>
     </g>
    </g>
    <g id="ytick_13">
     <g id="line2d_22">
      <g>
       <use style="stroke:#000000;stroke-width:0.8;" x="374.4576" xlink:href="#m14002043dd" y="204.572903"/>
      </g>
     </g>
     <g id="text_22">
      <!-- 0.48 -->
      <defs>
       <path d="M 37.796875 64.3125 
L 12.890625 25.390625 
L 37.796875 25.390625 
z
M 35.203125 72.90625 
L 47.609375 72.90625 
L 47.609375 25.390625 
L 58.015625 25.390625 
L 58.015625 17.1875 
L 47.609375 17.1875 
L 47.609375 0 
L 37.796875 0 
L 37.796875 17.1875 
L 4.890625 17.1875 
L 4.890625 26.703125 
z
" id="DejaVuSans-52"/>
       <path d="M 31.78125 34.625 
Q 24.75 34.625 20.71875 30.859375 
Q 16.703125 27.09375 16.703125 20.515625 
Q 16.703125 13.921875 20.71875 10.15625 
Q 24.75 6.390625 31.78125 6.390625 
Q 38.8125 6.390625 42.859375 10.171875 
Q 46.921875 13.96875 46.921875 20.515625 
Q 46.921875 27.09375 42.890625 30.859375 
Q 38.875 34.625 31.78125 34.625 
z
M 21.921875 38.8125 
Q 15.578125 40.375 12.03125 44.71875 
Q 8.5 49.078125 8.5 55.328125 
Q 8.5 64.0625 14.71875 69.140625 
Q 20.953125 74.21875 31.78125 74.21875 
Q 42.671875 74.21875 48.875 69.140625 
Q 55.078125 64.0625 55.078125 55.328125 
Q 55.078125 49.078125 51.53125 44.71875 
Q 48 40.375 41.703125 38.8125 
Q 48.828125 37.15625 52.796875 32.3125 
Q 56.78125 27.484375 56.78125 20.515625 
Q 56.78125 9.90625 50.3125 4.234375 
Q 43.84375 -1.421875 31.78125 -1.421875 
Q 19.734375 -1.421875 13.25 4.234375 
Q 6.78125 9.90625 6.78125 20.515625 
Q 6.78125 27.484375 10.78125 32.3125 
Q 14.796875 37.15625 21.921875 38.8125 
z
M 18.3125 54.390625 
Q 18.3125 48.734375 21.84375 45.5625 
Q 25.390625 42.390625 31.78125 42.390625 
Q 38.140625 42.390625 41.71875 45.5625 
Q 45.3125 48.734375 45.3125 54.390625 
Q 45.3125 60.0625 41.71875 63.234375 
Q 38.140625 66.40625 31.78125 66.40625 
Q 25.390625 66.40625 21.84375 63.234375 
Q 18.3125 60.0625 18.3125 54.390625 
z
" id="DejaVuSans-56"/>
      </defs>
      <g transform="translate(381.4576 208.372122)scale(0.1 -0.1)">
       <use xlink:href="#DejaVuSans-48"/>
       <use x="63.623047" xlink:href="#DejaVuSans-46"/>
       <use x="95.410156" xlink:href="#DejaVuSans-52"/>
       <use x="159.033203" xlink:href="#DejaVuSans-56"/>
      </g>
     </g>
    </g>
    <g id="ytick_14">
     <g id="line2d_23">
      <g>
       <use style="stroke:#000000;stroke-width:0.8;" x="374.4576" xlink:href="#m14002043dd" y="170.235871"/>
      </g>
     </g>
     <g id="text_23">
      <!-- 0.64 -->
      <g transform="translate(381.4576 174.03509)scale(0.1 -0.1)">
       <use xlink:href="#DejaVuSans-48"/>
       <use x="63.623047" xlink:href="#DejaVuSans-46"/>
       <use x="95.410156" xlink:href="#DejaVuSans-54"/>
       <use x="159.033203" xlink:href="#DejaVuSans-52"/>
      </g>
     </g>
    </g>
    <g id="ytick_15">
     <g id="line2d_24">
      <g>
       <use style="stroke:#000000;stroke-width:0.8;" x="374.4576" xlink:href="#m14002043dd" y="135.898839"/>
      </g>
     </g>
     <g id="text_24">
      <!-- 0.80 -->
      <g transform="translate(381.4576 139.698057)scale(0.1 -0.1)">
       <use xlink:href="#DejaVuSans-48"/>
       <use x="63.623047" xlink:href="#DejaVuSans-46"/>
       <use x="95.410156" xlink:href="#DejaVuSans-56"/>
       <use x="159.033203" xlink:href="#DejaVuSans-48"/>
      </g>
     </g>
    </g>
    <g id="ytick_16">
     <g id="line2d_25">
      <g>
       <use style="stroke:#000000;stroke-width:0.8;" x="374.4576" xlink:href="#m14002043dd" y="101.561806"/>
      </g>
     </g>
     <g id="text_25">
      <!-- 0.96 -->
      <defs>
       <path d="M 10.984375 1.515625 
L 10.984375 10.5 
Q 14.703125 8.734375 18.5 7.8125 
Q 22.3125 6.890625 25.984375 6.890625 
Q 35.75 6.890625 40.890625 13.453125 
Q 46.046875 20.015625 46.78125 33.40625 
Q 43.953125 29.203125 39.59375 26.953125 
Q 35.25 24.703125 29.984375 24.703125 
Q 19.046875 24.703125 12.671875 31.3125 
Q 6.296875 37.9375 6.296875 49.421875 
Q 6.296875 60.640625 12.9375 67.421875 
Q 19.578125 74.21875 30.609375 74.21875 
Q 43.265625 74.21875 49.921875 64.515625 
Q 56.59375 54.828125 56.59375 36.375 
Q 56.59375 19.140625 48.40625 8.859375 
Q 40.234375 -1.421875 26.421875 -1.421875 
Q 22.703125 -1.421875 18.890625 -0.6875 
Q 15.09375 0.046875 10.984375 1.515625 
z
M 30.609375 32.421875 
Q 37.25 32.421875 41.125 36.953125 
Q 45.015625 41.5 45.015625 49.421875 
Q 45.015625 57.28125 41.125 61.84375 
Q 37.25 66.40625 30.609375 66.40625 
Q 23.96875 66.40625 20.09375 61.84375 
Q 16.21875 57.28125 16.21875 49.421875 
Q 16.21875 41.5 20.09375 36.953125 
Q 23.96875 32.421875 30.609375 32.421875 
z
" id="DejaVuSans-57"/>
      </defs>
      <g transform="translate(381.4576 105.361025)scale(0.1 -0.1)">
       <use xlink:href="#DejaVuSans-48"/>
       <use x="63.623047" xlink:href="#DejaVuSans-46"/>
       <use x="95.410156" xlink:href="#DejaVuSans-57"/>
       <use x="159.033203" xlink:href="#DejaVuSans-54"/>
      </g>
     </g>
    </g>
    <g id="ytick_17">
     <g id="line2d_26">
      <g>
       <use style="stroke:#000000;stroke-width:0.8;" x="374.4576" xlink:href="#m14002043dd" y="67.224774"/>
      </g>
     </g>
     <g id="text_26">
      <!-- 1.12 -->
      <g transform="translate(381.4576 71.023993)scale(0.1 -0.1)">
       <use xlink:href="#DejaVuSans-49"/>
       <use x="63.623047" xlink:href="#DejaVuSans-46"/>
       <use x="95.410156" xlink:href="#DejaVuSans-49"/>
       <use x="159.033203" xlink:href="#DejaVuSans-50"/>
      </g>
     </g>
    </g>
    <g id="text_27">
     <!-- 1e6 -->
     <defs>
      <path d="M 56.203125 29.59375 
L 56.203125 25.203125 
L 14.890625 25.203125 
Q 15.484375 15.921875 20.484375 11.0625 
Q 25.484375 6.203125 34.421875 6.203125 
Q 39.59375 6.203125 44.453125 7.46875 
Q 49.3125 8.734375 54.109375 11.28125 
L 54.109375 2.78125 
Q 49.265625 0.734375 44.1875 -0.34375 
Q 39.109375 -1.421875 33.890625 -1.421875 
Q 20.796875 -1.421875 13.15625 6.1875 
Q 5.515625 13.8125 5.515625 26.8125 
Q 5.515625 40.234375 12.765625 48.109375 
Q 20.015625 56 32.328125 56 
Q 43.359375 56 49.78125 48.890625 
Q 56.203125 41.796875 56.203125 29.59375 
z
M 47.21875 32.234375 
Q 47.125 39.59375 43.09375 43.984375 
Q 39.0625 48.390625 32.421875 48.390625 
Q 24.90625 48.390625 20.390625 44.140625 
Q 15.875 39.890625 15.1875 32.171875 
z
" id="DejaVuSans-101"/>
     </defs>
     <g transform="translate(355.579475 38.472)scale(0.1 -0.1)">
      <use xlink:href="#DejaVuSans-49"/>
      <use x="63.623047" xlink:href="#DejaVuSans-101"/>
      <use x="125.146484" xlink:href="#DejaVuSans-54"/>
     </g>
    </g>
   </g>
   <g id="LineCollection_33">
    <path clip-path="url(#pce288489ee)" d="M 361.152 307.584 
L 374.4576 307.584 
" style="fill:none;stroke:#00ff80;stroke-width:1.5;"/>
    <path clip-path="url(#pce288489ee)" d="M 361.152 298.999742 
L 374.4576 298.999742 
" style="fill:none;stroke:#00f784;stroke-width:1.5;"/>
    <path clip-path="url(#pce288489ee)" d="M 361.152 290.415484 
L 374.4576 290.415484 
" style="fill:none;stroke:#00ef88;stroke-width:1.5;"/>
    <path clip-path="url(#pce288489ee)" d="M 361.152 281.831226 
L 374.4576 281.831226 
" style="fill:none;stroke:#00e78c;stroke-width:1.5;"/>
    <path clip-path="url(#pce288489ee)" d="M 361.152 273.246968 
L 374.4576 273.246968 
" style="fill:none;stroke:#00de90;stroke-width:1.5;"/>
    <path clip-path="url(#pce288489ee)" d="M 361.152 264.66271 
L 374.4576 264.66271 
" style="fill:none;stroke:#00d694;stroke-width:1.5;"/>
    <path clip-path="url(#pce288489ee)" d="M 361.152 256.078452 
L 374.4576 256.078452 
" style="fill:none;stroke:#00ce98;stroke-width:1.5;"/>
    <path clip-path="url(#pce288489ee)" d="M 361.152 247.494194 
L 374.4576 247.494194 
" style="fill:none;stroke:#00c69c;stroke-width:1.5;"/>
    <path clip-path="url(#pce288489ee)" d="M 361.152 238.909935 
L 374.4576 238.909935 
" style="fill:none;stroke:#00bda0;stroke-width:1.5;"/>
    <path clip-path="url(#pce288489ee)" d="M 361.152 230.325677 
L 374.4576 230.325677 
" style="fill:none;stroke:#00b5a4;stroke-width:1.5;"/>
    <path clip-path="url(#pce288489ee)" d="M 361.152 221.741419 
L 374.4576 221.741419 
" style="fill:none;stroke:#00ada8;stroke-width:1.5;"/>
    <path clip-path="url(#pce288489ee)" d="M 361.152 213.157161 
L 374.4576 213.157161 
" style="fill:none;stroke:#00a5ac;stroke-width:1.5;"/>
    <path clip-path="url(#pce288489ee)" d="M 361.152 204.572903 
L 374.4576 204.572903 
" style="fill:none;stroke:#009cb1;stroke-width:1.5;"/>
    <path clip-path="url(#pce288489ee)" d="M 361.152 195.988645 
L 374.4576 195.988645 
" style="fill:none;stroke:#0094b5;stroke-width:1.5;"/>
    <path clip-path="url(#pce288489ee)" d="M 361.152 187.404387 
L 374.4576 187.404387 
" style="fill:none;stroke:#008cb9;stroke-width:1.5;"/>
    <path clip-path="url(#pce288489ee)" d="M 361.152 178.820129 
L 374.4576 178.820129 
" style="fill:none;stroke:#0084bd;stroke-width:1.5;"/>
    <path clip-path="url(#pce288489ee)" d="M 361.152 170.235871 
L 374.4576 170.235871 
" style="fill:none;stroke:#007bc2;stroke-width:1.5;"/>
    <path clip-path="url(#pce288489ee)" d="M 361.152 161.651613 
L 374.4576 161.651613 
" style="fill:none;stroke:#0073c6;stroke-width:1.5;"/>
    <path clip-path="url(#pce288489ee)" d="M 361.152 153.067355 
L 374.4576 153.067355 
" style="fill:none;stroke:#006bca;stroke-width:1.5;"/>
    <path clip-path="url(#pce288489ee)" d="M 361.152 144.483097 
L 374.4576 144.483097 
" style="fill:none;stroke:#0063ce;stroke-width:1.5;"/>
    <path clip-path="url(#pce288489ee)" d="M 361.152 135.898839 
L 374.4576 135.898839 
" style="fill:none;stroke:#005ad2;stroke-width:1.5;"/>
    <path clip-path="url(#pce288489ee)" d="M 361.152 127.314581 
L 374.4576 127.314581 
" style="fill:none;stroke:#0052d6;stroke-width:1.5;"/>
    <path clip-path="url(#pce288489ee)" d="M 361.152 118.730323 
L 374.4576 118.730323 
" style="fill:none;stroke:#004ada;stroke-width:1.5;"/>
    <path clip-path="url(#pce288489ee)" d="M 361.152 110.146065 
L 374.4576 110.146065 
" style="fill:none;stroke:#0042de;stroke-width:1.5;"/>
    <path clip-path="url(#pce288489ee)" d="M 361.152 101.561806 
L 374.4576 101.561806 
" style="fill:none;stroke:#0039e2;stroke-width:1.5;"/>
    <path clip-path="url(#pce288489ee)" d="M 361.152 92.977548 
L 374.4576 92.977548 
" style="fill:none;stroke:#0031e6;stroke-width:1.5;"/>
    <path clip-path="url(#pce288489ee)" d="M 361.152 84.39329 
L 374.4576 84.39329 
" style="fill:none;stroke:#0029eb;stroke-width:1.5;"/>
    <path clip-path="url(#pce288489ee)" d="M 361.152 75.809032 
L 374.4576 75.809032 
" style="fill:none;stroke:#0021ee;stroke-width:1.5;"/>
    <path clip-path="url(#pce288489ee)" d="M 361.152 67.224774 
L 374.4576 67.224774 
" style="fill:none;stroke:#0018f3;stroke-width:1.5;"/>
    <path clip-path="url(#pce288489ee)" d="M 361.152 58.640516 
L 374.4576 58.640516 
" style="fill:none;stroke:#0010f7;stroke-width:1.5;"/>
    <path clip-path="url(#pce288489ee)" d="M 361.152 50.056258 
L 374.4576 50.056258 
" style="fill:none;stroke:#0008fb;stroke-width:1.5;"/>
    <path clip-path="url(#pce288489ee)" d="M 361.152 41.472 
L 374.4576 41.472 
" style="fill:none;stroke:#0000ff;stroke-width:1.5;"/>
   </g>
   <g id="patch_8">
    <path d="M 361.152 307.584 
L 361.152 298.999742 
L 361.152 50.056258 
L 361.152 41.472 
L 374.4576 41.472 
L 374.4576 50.056258 
L 374.4576 298.999742 
L 374.4576 307.584 
z
" style="fill:none;stroke:#000000;stroke-linejoin:miter;stroke-width:0.8;"/>
   </g>
  </g>
 </g>
 <defs>
  <clipPath id="pa07f17e2df">
   <rect height="266.112" width="285.696" x="57.6" y="41.472"/>
  </clipPath>
  <clipPath id="pce288489ee">
   <rect height="266.112" width="13.3056" x="361.152" y="41.472"/>
  </clipPath>
 </defs>
</svg>
