<?xml version="1.0" encoding="utf-8" standalone="no"?>
<!DOCTYPE svg PUBLIC "-//W3C//DTD SVG 1.1//EN"
  "http://www.w3.org/Graphics/SVG/1.1/DTD/svg11.dtd">
<!-- Created with matplotlib (https://matplotlib.org/) -->
<svg height="345.6pt" version="1.1" viewBox="0 0 460.8 345.6" width="460.8pt" xmlns="http://www.w3.org/2000/svg" xmlns:xlink="http://www.w3.org/1999/xlink">
 <defs>
  <style type="text/css">
*{stroke-linecap:butt;stroke-linejoin:round;}
  </style>
 </defs>
 <g id="figure_1">
  <g id="patch_1">
   <path d="M 0 345.6 
L 460.8 345.6 
L 460.8 0 
L 0 0 
z
" style="fill:#ffffff;"/>
  </g>
  <g id="axes_1">
   <g id="patch_2">
    <path d="M 57.6 307.584 
L 343.296 307.584 
L 343.296 41.472 
L 57.6 41.472 
z
" style="fill:#ffffff;"/>
   </g>
   <g id="matplotlib.axis_1">
    <g id="xtick_1">
     <g id="line2d_1">
      <defs>
       <path d="M 0 0 
L 0 3.5 
" id="m69a2f526a7" style="stroke:#000000;stroke-width:0.8;"/>
      </defs>
      <g>
       <use style="stroke:#000000;stroke-width:0.8;" x="57.6" xlink:href="#m69a2f526a7" y="307.584"/>
      </g>
     </g>
     <g id="text_1">
      <!-- −10.0 -->
      <defs>
       <path d="M 10.59375 35.5 
L 73.1875 35.5 
L 73.1875 27.203125 
L 10.59375 27.203125 
z
" id="DejaVuSans-8722"/>
       <path d="M 12.40625 8.296875 
L 28.515625 8.296875 
L 28.515625 63.921875 
L 10.984375 60.40625 
L 10.984375 69.390625 
L 28.421875 72.90625 
L 38.28125 72.90625 
L 38.28125 8.296875 
L 54.390625 8.296875 
L 54.390625 0 
L 12.40625 0 
z
" id="DejaVuSans-49"/>
       <path d="M 31.78125 66.40625 
Q 24.171875 66.40625 20.328125 58.90625 
Q 16.5 51.421875 16.5 36.375 
Q 16.5 21.390625 20.328125 13.890625 
Q 24.171875 6.390625 31.78125 6.390625 
Q 39.453125 6.390625 43.28125 13.890625 
Q 47.125 21.390625 47.125 36.375 
Q 47.125 51.421875 43.28125 58.90625 
Q 39.453125 66.40625 31.78125 66.40625 
z
M 31.78125 74.21875 
Q 44.046875 74.21875 50.515625 64.515625 
Q 56.984375 54.828125 56.984375 36.375 
Q 56.984375 17.96875 50.515625 8.265625 
Q 44.046875 -1.421875 31.78125 -1.421875 
Q 19.53125 -1.421875 13.0625 8.265625 
Q 6.59375 17.96875 6.59375 36.375 
Q 6.59375 54.828125 13.0625 64.515625 
Q 19.53125 74.21875 31.78125 74.21875 
z
" id="DejaVuSans-48"/>
       <path d="M 10.6875 12.40625 
L 21 12.40625 
L 21 0 
L 10.6875 0 
z
" id="DejaVuSans-46"/>
      </defs>
      <g transform="translate(42.277344 322.182437)scale(0.1 -0.1)">
       <use xlink:href="#DejaVuSans-8722"/>
       <use x="83.789062" xlink:href="#DejaVuSans-49"/>
       <use x="147.412109" xlink:href="#DejaVuSans-48"/>
       <use x="211.035156" xlink:href="#DejaVuSans-46"/>
       <use x="242.822266" xlink:href="#DejaVuSans-48"/>
      </g>
     </g>
    </g>
    <g id="xtick_2">
     <g id="line2d_2">
      <g>
       <use style="stroke:#000000;stroke-width:0.8;" x="93.312" xlink:href="#m69a2f526a7" y="307.584"/>
      </g>
     </g>
     <g id="text_2">
      <!-- −7.5 -->
      <defs>
       <path d="M 8.203125 72.90625 
L 55.078125 72.90625 
L 55.078125 68.703125 
L 28.609375 0 
L 18.3125 0 
L 43.21875 64.59375 
L 8.203125 64.59375 
z
" id="DejaVuSans-55"/>
       <path d="M 10.796875 72.90625 
L 49.515625 72.90625 
L 49.515625 64.59375 
L 19.828125 64.59375 
L 19.828125 46.734375 
Q 21.96875 47.46875 24.109375 47.828125 
Q 26.265625 48.1875 28.421875 48.1875 
Q 40.625 48.1875 47.75 41.5 
Q 54.890625 34.8125 54.890625 23.390625 
Q 54.890625 11.625 47.5625 5.09375 
Q 40.234375 -1.421875 26.90625 -1.421875 
Q 22.3125 -1.421875 17.546875 -0.640625 
Q 12.796875 0.140625 7.71875 1.703125 
L 7.71875 11.625 
Q 12.109375 9.234375 16.796875 8.0625 
Q 21.484375 6.890625 26.703125 6.890625 
Q 35.15625 6.890625 40.078125 11.328125 
Q 45.015625 15.765625 45.015625 23.390625 
Q 45.015625 31 40.078125 35.4375 
Q 35.15625 39.890625 26.703125 39.890625 
Q 22.75 39.890625 18.8125 39.015625 
Q 14.890625 38.140625 10.796875 36.28125 
z
" id="DejaVuSans-53"/>
      </defs>
      <g transform="translate(81.170594 322.182437)scale(0.1 -0.1)">
       <use xlink:href="#DejaVuSans-8722"/>
       <use x="83.789062" xlink:href="#DejaVuSans-55"/>
       <use x="147.412109" xlink:href="#DejaVuSans-46"/>
       <use x="179.199219" xlink:href="#DejaVuSans-53"/>
      </g>
     </g>
    </g>
    <g id="xtick_3">
     <g id="line2d_3">
      <g>
       <use style="stroke:#000000;stroke-width:0.8;" x="129.024" xlink:href="#m69a2f526a7" y="307.584"/>
      </g>
     </g>
     <g id="text_3">
      <!-- −5.0 -->
      <g transform="translate(116.882594 322.182437)scale(0.1 -0.1)">
       <use xlink:href="#DejaVuSans-8722"/>
       <use x="83.789062" xlink:href="#DejaVuSans-53"/>
       <use x="147.412109" xlink:href="#DejaVuSans-46"/>
       <use x="179.199219" xlink:href="#DejaVuSans-48"/>
      </g>
     </g>
    </g>
    <g id="xtick_4">
     <g id="line2d_4">
      <g>
       <use style="stroke:#000000;stroke-width:0.8;" x="164.736" xlink:href="#m69a2f526a7" y="307.584"/>
      </g>
     </g>
     <g id="text_4">
      <!-- −2.5 -->
      <defs>
       <path d="M 19.1875 8.296875 
L 53.609375 8.296875 
L 53.609375 0 
L 7.328125 0 
L 7.328125 8.296875 
Q 12.9375 14.109375 22.625 23.890625 
Q 32.328125 33.6875 34.8125 36.53125 
Q 39.546875 41.84375 41.421875 45.53125 
Q 43.3125 49.21875 43.3125 52.78125 
Q 43.3125 58.59375 39.234375 62.25 
Q 35.15625 65.921875 28.609375 65.921875 
Q 23.96875 65.921875 18.8125 64.3125 
Q 13.671875 62.703125 7.8125 59.421875 
L 7.8125 69.390625 
Q 13.765625 71.78125 18.9375 73 
Q 24.125 74.21875 28.421875 74.21875 
Q 39.75 74.21875 46.484375 68.546875 
Q 53.21875 62.890625 53.21875 53.421875 
Q 53.21875 48.921875 51.53125 44.890625 
Q 49.859375 40.875 45.40625 35.40625 
Q 44.1875 33.984375 37.640625 27.21875 
Q 31.109375 20.453125 19.1875 8.296875 
z
" id="DejaVuSans-50"/>
      </defs>
      <g transform="translate(152.594594 322.182437)scale(0.1 -0.1)">
       <use xlink:href="#DejaVuSans-8722"/>
       <use x="83.789062" xlink:href="#DejaVuSans-50"/>
       <use x="147.412109" xlink:href="#DejaVuSans-46"/>
       <use x="179.199219" xlink:href="#DejaVuSans-53"/>
      </g>
     </g>
    </g>
    <g id="xtick_5">
     <g id="line2d_5">
      <g>
       <use style="stroke:#000000;stroke-width:0.8;" x="200.448" xlink:href="#m69a2f526a7" y="307.584"/>
      </g>
     </g>
     <g id="text_5">
      <!-- 0.0 -->
      <g transform="translate(192.496438 322.182437)scale(0.1 -0.1)">
       <use xlink:href="#DejaVuSans-48"/>
       <use x="63.623047" xlink:href="#DejaVuSans-46"/>
       <use x="95.410156" xlink:href="#DejaVuSans-48"/>
      </g>
     </g>
    </g>
    <g id="xtick_6">
     <g id="line2d_6">
      <g>
       <use style="stroke:#000000;stroke-width:0.8;" x="236.16" xlink:href="#m69a2f526a7" y="307.584"/>
      </g>
     </g>
     <g id="text_6">
      <!-- 2.5 -->
      <g transform="translate(228.208438 322.182437)scale(0.1 -0.1)">
       <use xlink:href="#DejaVuSans-50"/>
       <use x="63.623047" xlink:href="#DejaVuSans-46"/>
       <use x="95.410156" xlink:href="#DejaVuSans-53"/>
      </g>
     </g>
    </g>
    <g id="xtick_7">
     <g id="line2d_7">
      <g>
       <use style="stroke:#000000;stroke-width:0.8;" x="271.872" xlink:href="#m69a2f526a7" y="307.584"/>
      </g>
     </g>
     <g id="text_7">
      <!-- 5.0 -->
      <g transform="translate(263.920437 322.182437)scale(0.1 -0.1)">
       <use xlink:href="#DejaVuSans-53"/>
       <use x="63.623047" xlink:href="#DejaVuSans-46"/>
       <use x="95.410156" xlink:href="#DejaVuSans-48"/>
      </g>
     </g>
    </g>
    <g id="xtick_8">
     <g id="line2d_8">
      <g>
       <use style="stroke:#000000;stroke-width:0.8;" x="307.584" xlink:href="#m69a2f526a7" y="307.584"/>
      </g>
     </g>
     <g id="text_8">
      <!-- 7.5 -->
      <g transform="translate(299.632438 322.182437)scale(0.1 -0.1)">
       <use xlink:href="#DejaVuSans-55"/>
       <use x="63.623047" xlink:href="#DejaVuSans-46"/>
       <use x="95.410156" xlink:href="#DejaVuSans-53"/>
      </g>
     </g>
    </g>
    <g id="xtick_9">
     <g id="line2d_9">
      <g>
       <use style="stroke:#000000;stroke-width:0.8;" x="343.296" xlink:href="#m69a2f526a7" y="307.584"/>
      </g>
     </g>
     <g id="text_9">
      <!-- 10.0 -->
      <g transform="translate(332.163188 322.182437)scale(0.1 -0.1)">
       <use xlink:href="#DejaVuSans-49"/>
       <use x="63.623047" xlink:href="#DejaVuSans-48"/>
       <use x="127.246094" xlink:href="#DejaVuSans-46"/>
       <use x="159.033203" xlink:href="#DejaVuSans-48"/>
      </g>
     </g>
    </g>
   </g>
   <g id="matplotlib.axis_2">
    <g id="ytick_1">
     <g id="line2d_10">
      <defs>
       <path d="M 0 0 
L -3.5 0 
" id="m806b60ec65" style="stroke:#000000;stroke-width:0.8;"/>
      </defs>
      <g>
       <use style="stroke:#000000;stroke-width:0.8;" x="57.6" xlink:href="#m806b60ec65" y="307.584"/>
      </g>
     </g>
     <g id="text_10">
      <!-- −10.0 -->
      <g transform="translate(19.954687 311.383219)scale(0.1 -0.1)">
       <use xlink:href="#DejaVuSans-8722"/>
       <use x="83.789062" xlink:href="#DejaVuSans-49"/>
       <use x="147.412109" xlink:href="#DejaVuSans-48"/>
       <use x="211.035156" xlink:href="#DejaVuSans-46"/>
       <use x="242.822266" xlink:href="#DejaVuSans-48"/>
      </g>
     </g>
    </g>
    <g id="ytick_2">
     <g id="line2d_11">
      <g>
       <use style="stroke:#000000;stroke-width:0.8;" x="57.6" xlink:href="#m806b60ec65" y="274.32"/>
      </g>
     </g>
     <g id="text_11">
      <!-- −7.5 -->
      <g transform="translate(26.317187 278.119219)scale(0.1 -0.1)">
       <use xlink:href="#DejaVuSans-8722"/>
       <use x="83.789062" xlink:href="#DejaVuSans-55"/>
       <use x="147.412109" xlink:href="#DejaVuSans-46"/>
       <use x="179.199219" xlink:href="#DejaVuSans-53"/>
      </g>
     </g>
    </g>
    <g id="ytick_3">
     <g id="line2d_12">
      <g>
       <use style="stroke:#000000;stroke-width:0.8;" x="57.6" xlink:href="#m806b60ec65" y="241.056"/>
      </g>
     </g>
     <g id="text_12">
      <!-- −5.0 -->
      <g transform="translate(26.317187 244.855219)scale(0.1 -0.1)">
       <use xlink:href="#DejaVuSans-8722"/>
       <use x="83.789062" xlink:href="#DejaVuSans-53"/>
       <use x="147.412109" xlink:href="#DejaVuSans-46"/>
       <use x="179.199219" xlink:href="#DejaVuSans-48"/>
      </g>
     </g>
    </g>
    <g id="ytick_4">
     <g id="line2d_13">
      <g>
       <use style="stroke:#000000;stroke-width:0.8;" x="57.6" xlink:href="#m806b60ec65" y="207.792"/>
      </g>
     </g>
     <g id="text_13">
      <!-- −2.5 -->
      <g transform="translate(26.317187 211.591219)scale(0.1 -0.1)">
       <use xlink:href="#DejaVuSans-8722"/>
       <use x="83.789062" xlink:href="#DejaVuSans-50"/>
       <use x="147.412109" xlink:href="#DejaVuSans-46"/>
       <use x="179.199219" xlink:href="#DejaVuSans-53"/>
      </g>
     </g>
    </g>
    <g id="ytick_5">
     <g id="line2d_14">
      <g>
       <use style="stroke:#000000;stroke-width:0.8;" x="57.6" xlink:href="#m806b60ec65" y="174.528"/>
      </g>
     </g>
     <g id="text_14">
      <!-- 0.0 -->
      <g transform="translate(34.696875 178.327219)scale(0.1 -0.1)">
       <use xlink:href="#DejaVuSans-48"/>
       <use x="63.623047" xlink:href="#DejaVuSans-46"/>
       <use x="95.410156" xlink:href="#DejaVuSans-48"/>
      </g>
     </g>
    </g>
    <g id="ytick_6">
     <g id="line2d_15">
      <g>
       <use style="stroke:#000000;stroke-width:0.8;" x="57.6" xlink:href="#m806b60ec65" y="141.264"/>
      </g>
     </g>
     <g id="text_15">
      <!-- 2.5 -->
      <g transform="translate(34.696875 145.063219)scale(0.1 -0.1)">
       <use xlink:href="#DejaVuSans-50"/>
       <use x="63.623047" xlink:href="#DejaVuSans-46"/>
       <use x="95.410156" xlink:href="#DejaVuSans-53"/>
      </g>
     </g>
    </g>
    <g id="ytick_7">
     <g id="line2d_16">
      <g>
       <use style="stroke:#000000;stroke-width:0.8;" x="57.6" xlink:href="#m806b60ec65" y="108"/>
      </g>
     </g>
     <g id="text_16">
      <!-- 5.0 -->
      <g transform="translate(34.696875 111.799219)scale(0.1 -0.1)">
       <use xlink:href="#DejaVuSans-53"/>
       <use x="63.623047" xlink:href="#DejaVuSans-46"/>
       <use x="95.410156" xlink:href="#DejaVuSans-48"/>
      </g>
     </g>
    </g>
    <g id="ytick_8">
     <g id="line2d_17">
      <g>
       <use style="stroke:#000000;stroke-width:0.8;" x="57.6" xlink:href="#m806b60ec65" y="74.736"/>
      </g>
     </g>
     <g id="text_17">
      <!-- 7.5 -->
      <g transform="translate(34.696875 78.535219)scale(0.1 -0.1)">
       <use xlink:href="#DejaVuSans-55"/>
       <use x="63.623047" xlink:href="#DejaVuSans-46"/>
       <use x="95.410156" xlink:href="#DejaVuSans-53"/>
      </g>
     </g>
    </g>
    <g id="ytick_9">
     <g id="line2d_18">
      <g>
       <use style="stroke:#000000;stroke-width:0.8;" x="57.6" xlink:href="#m806b60ec65" y="41.472"/>
      </g>
     </g>
     <g id="text_18">
      <!-- 10.0 -->
      <g transform="translate(28.334375 45.271219)scale(0.1 -0.1)">
       <use xlink:href="#DejaVuSans-49"/>
       <use x="63.623047" xlink:href="#DejaVuSans-48"/>
       <use x="127.246094" xlink:href="#DejaVuSans-46"/>
       <use x="159.033203" xlink:href="#DejaVuSans-48"/>
      </g>
     </g>
    </g>
   </g>
   <g id="LineCollection_1"/>
   <g id="LineCollection_2">
    <path clip-path="url(#p001b0880fd)" d="M 199.730171 184.503857 
L 198.351939 183.220101 
L 198.294513 183.166611 
L 196.916281 181.882854 
L 196.858854 181.829364 
L 195.480622 180.545608 
L 195.423196 180.492118 
L 194.044964 179.208362 
L 193.987538 179.154872 
L 192.609306 177.871116 
L 192.551879 177.817626 
L 191.173647 176.533869 
L 191.116221 176.480379 
L 189.737989 175.196623 
L 189.737989 173.859377 
L 191.116221 172.575621 
L 191.173647 172.522131 
L 192.551879 171.238374 
L 192.609306 171.184884 
L 193.987538 169.901128 
L 194.044964 169.847638 
L 195.423196 168.563882 
L 195.480622 168.510392 
L 196.858854 167.226636 
L 196.916281 167.173146 
L 198.294513 165.889389 
L 198.351939 165.835899 
L 199.730171 164.552143 
L 201.165829 164.552143 
L 202.544061 165.835899 
L 202.601487 165.889389 
L 203.979719 167.173146 
L 204.037146 167.226636 
L 205.415378 168.510392 
L 205.472804 168.563882 
L 206.851036 169.847638 
L 206.908462 169.901128 
L 208.286694 171.184884 
L 208.344121 171.238374 
L 209.722353 172.522131 
L 209.779779 172.575621 
L 211.158011 173.859377 
L 211.158011 175.196623 
L 209.779779 176.480379 
L 209.722353 176.533869 
L 208.344121 177.817626 
L 208.286694 177.871116 
L 206.908462 179.154872 
L 206.851036 179.208362 
L 205.472804 180.492118 
L 205.415378 180.545608 
L 204.037146 181.829364 
L 203.979719 181.882854 
L 202.601487 183.166611 
L 202.544061 183.220101 
L 201.165829 184.503857 
L 199.730171 184.503857 
" style="fill:none;stroke:#00f584;stroke-width:1.5;"/>
   </g>
   <g id="LineCollection_3">
    <path clip-path="url(#p001b0880fd)" d="M 199.730171 195.148337 
L 198.409365 193.91807 
L 198.294513 193.811091 
L 196.973707 192.580824 
L 196.858854 192.473844 
L 195.538049 191.243578 
L 195.423196 191.136598 
L 194.10239 189.906332 
L 193.987538 189.799352 
L 192.666732 188.569085 
L 192.551879 188.462106 
L 191.231074 187.231839 
L 191.116221 187.124859 
L 189.795415 185.894593 
L 189.680563 185.787613 
L 188.359757 184.557347 
L 188.244905 184.450367 
L 186.924099 183.220101 
L 186.809246 183.113121 
L 185.488441 181.882854 
L 185.373588 181.775875 
L 184.052782 180.545608 
L 183.93793 180.438628 
L 182.617124 179.208362 
L 182.502271 179.101382 
L 181.181466 177.871116 
L 181.066613 177.764136 
L 179.745807 176.533869 
L 179.630955 176.42689 
L 178.310149 175.196623 
L 178.310149 173.859377 
L 179.630955 172.62911 
L 179.745807 172.522131 
L 181.066613 171.291864 
L 181.181466 171.184884 
L 182.502271 169.954618 
L 182.617124 169.847638 
L 183.93793 168.617372 
L 184.052782 168.510392 
L 185.373588 167.280125 
L 185.488441 167.173146 
L 186.809246 165.942879 
L 186.924099 165.835899 
L 188.244905 164.605633 
L 188.359757 164.498653 
L 189.680563 163.268387 
L 189.795415 163.161407 
L 191.116221 161.931141 
L 191.231074 161.824161 
L 192.551879 160.593894 
L 192.666732 160.486915 
L 193.987538 159.256648 
L 194.10239 159.149668 
L 195.423196 157.919402 
L 195.538049 157.812422 
L 196.858854 156.582156 
L 196.973707 156.475176 
L 198.294513 155.244909 
L 198.409365 155.13793 
L 199.730171 153.907663 
L 201.165829 153.907663 
L 202.486635 155.13793 
L 202.601487 155.244909 
L 203.922293 156.475176 
L 204.037146 156.582156 
L 205.357951 157.812422 
L 205.472804 157.919402 
L 206.79361 159.149668 
L 206.908462 159.256648 
L 208.229268 160.486915 
L 208.344121 160.593894 
L 209.664926 161.824161 
L 209.779779 161.931141 
L 211.100585 163.161407 
L 211.215437 163.268387 
L 212.536243 164.498653 
L 212.651095 164.605633 
L 213.971901 165.835899 
L 214.086754 165.942879 
L 215.407559 167.173146 
L 215.522412 167.280125 
L 216.843218 168.510392 
L 216.95807 168.617372 
L 218.278876 169.847638 
L 218.393729 169.954618 
L 219.714534 171.184884 
L 219.829387 171.291864 
L 221.150193 172.522131 
L 221.265045 172.62911 
L 222.585851 173.859377 
L 222.585851 175.196623 
L 221.265045 176.42689 
L 221.150193 176.533869 
L 219.829387 177.764136 
L 219.714534 177.871116 
L 218.393729 179.101382 
L 218.278876 179.208362 
L 216.95807 180.438628 
L 216.843218 180.545608 
L 215.522412 181.775875 
L 215.407559 181.882854 
L 214.086754 183.113121 
L 213.971901 183.220101 
L 212.651095 184.450367 
L 212.536243 184.557347 
L 211.215437 185.787613 
L 211.100585 185.894593 
L 209.779779 187.124859 
L 209.664926 187.231839 
L 208.344121 188.462106 
L 208.229268 188.569085 
L 206.908462 189.799352 
L 206.79361 189.906332 
L 205.472804 191.136598 
L 205.357951 191.243578 
L 204.037146 192.473844 
L 203.922293 192.580824 
L 202.601487 193.811091 
L 202.486635 193.91807 
L 201.165829 195.148337 
L 199.730171 195.148337 
" style="fill:none;stroke:#00eb8a;stroke-width:1.5;"/>
   </g>
   <g id="LineCollection_4">
    <path clip-path="url(#p001b0880fd)" d="M 199.730171 205.792817 
L 166.882309 175.196623 
L 166.882309 173.859377 
L 199.730171 143.263183 
L 201.165829 143.263183 
L 234.013691 173.859377 
L 234.013691 175.196623 
L 201.165829 205.792817 
L 199.730171 205.792817 
L 199.730171 205.792817 
" style="fill:none;stroke:#00e18e;stroke-width:1.5;"/>
   </g>
   <g id="LineCollection_5">
    <path clip-path="url(#p001b0880fd)" d="M 199.730171 216.437297 
L 155.454469 175.196623 
L 155.454469 173.859377 
L 199.730171 132.618703 
L 201.165829 132.618703 
L 245.441531 173.859377 
L 245.441531 175.196623 
L 201.165829 216.437297 
L 199.730171 216.437297 
L 199.730171 216.437297 
" style="fill:none;stroke:#00d793;stroke-width:1.5;"/>
   </g>
   <g id="LineCollection_6">
    <path clip-path="url(#p001b0880fd)" d="M 199.730171 227.081777 
L 144.026629 175.196623 
L 144.026629 173.859377 
L 199.730171 121.974223 
L 201.165829 121.974223 
L 256.869371 173.859377 
L 256.869371 175.196623 
L 201.165829 227.081777 
L 199.730171 227.081777 
L 199.730171 227.081777 
" style="fill:none;stroke:#00cc99;stroke-width:1.5;"/>
   </g>
   <g id="LineCollection_7">
    <path clip-path="url(#p001b0880fd)" d="M 199.730171 237.726257 
L 132.598789 175.196623 
L 132.598789 173.859377 
L 199.730171 111.329743 
L 201.165829 111.329743 
L 268.297211 173.859377 
L 268.297211 175.196623 
L 201.165829 237.726257 
L 199.730171 237.726257 
L 199.730171 237.726257 
" style="fill:none;stroke:#00c29e;stroke-width:1.5;"/>
   </g>
   <g id="LineCollection_8">
    <path clip-path="url(#p001b0880fd)" d="M 199.730171 248.370737 
L 121.170949 175.196623 
L 121.170949 173.859377 
L 199.730171 100.685263 
L 201.165829 100.685263 
L 279.725051 173.859377 
L 279.725051 175.196623 
L 201.165829 248.370737 
L 199.730171 248.370737 
L 199.730171 248.370737 
" style="fill:none;stroke:#00b8a3;stroke-width:1.5;"/>
   </g>
   <g id="LineCollection_9">
    <path clip-path="url(#p001b0880fd)" d="M 199.730171 259.015217 
L 109.743109 175.196623 
L 109.743109 173.859377 
L 199.730171 90.040783 
L 201.165829 90.040783 
L 291.152891 173.859377 
L 291.152891 175.196623 
L 201.165829 259.015217 
L 199.730171 259.015217 
L 199.730171 259.015217 
" style="fill:none;stroke:#00aea8;stroke-width:1.5;"/>
   </g>
   <g id="LineCollection_10">
    <path clip-path="url(#p001b0880fd)" d="M 199.730171 269.659697 
L 98.315269 175.196623 
L 98.315269 173.859377 
L 199.730171 79.396303 
L 201.165829 79.396303 
L 302.580731 173.859377 
L 302.580731 175.196623 
L 201.165829 269.659697 
L 199.730171 269.659697 
L 199.730171 269.659697 
" style="fill:none;stroke:#00a3ae;stroke-width:1.5;"/>
   </g>
   <g id="LineCollection_11">
    <path clip-path="url(#p001b0880fd)" d="M 199.730171 280.304177 
L 86.887429 175.196623 
L 86.887429 173.859377 
L 199.730171 68.751823 
L 201.165829 68.751823 
L 314.008571 173.859377 
L 314.008571 175.196623 
L 201.165829 280.304177 
L 199.730171 280.304177 
L 199.730171 280.304177 
" style="fill:none;stroke:#0099b2;stroke-width:1.5;"/>
   </g>
   <g id="LineCollection_12">
    <path clip-path="url(#p001b0880fd)" d="M 199.730171 290.948657 
L 75.459589 175.196623 
L 75.459589 173.859377 
L 199.730171 58.107343 
L 201.165829 58.107343 
L 325.436411 173.859377 
L 325.436411 175.196623 
L 201.165829 290.948657 
L 199.730171 290.948657 
L 199.730171 290.948657 
" style="fill:none;stroke:#008fb8;stroke-width:1.5;"/>
   </g>
   <g id="LineCollection_13">
    <path clip-path="url(#p001b0880fd)" d="M 199.730171 301.593137 
L 64.031749 175.196623 
L 64.031749 173.859377 
L 199.730171 47.462863 
L 201.165829 47.462863 
L 336.864251 173.859377 
L 336.864251 175.196623 
L 201.165829 301.593137 
L 199.730171 301.593137 
L 199.730171 301.593137 
" style="fill:none;stroke:#0085bc;stroke-width:1.5;"/>
   </g>
   <g id="LineCollection_14">
    <path clip-path="url(#p001b0880fd)" d="M 194.73408 307.584 
L 57.6 179.85024 
L 57.6 179.85024 
" style="fill:none;stroke:#007ac2;stroke-width:1.5;"/>
    <path clip-path="url(#p001b0880fd)" d="M 343.296 179.85024 
L 206.16192 307.584 
L 206.16192 307.584 
" style="fill:none;stroke:#007ac2;stroke-width:1.5;"/>
    <path clip-path="url(#p001b0880fd)" d="M 57.6 169.20576 
L 194.73408 41.472 
L 194.73408 41.472 
" style="fill:none;stroke:#007ac2;stroke-width:1.5;"/>
    <path clip-path="url(#p001b0880fd)" d="M 206.16192 41.472 
L 343.296 169.20576 
L 343.296 169.20576 
" style="fill:none;stroke:#007ac2;stroke-width:1.5;"/>
   </g>
   <g id="LineCollection_15">
    <path clip-path="url(#p001b0880fd)" d="M 183.30624 307.584 
L 57.6 190.49472 
L 57.6 190.49472 
" style="fill:none;stroke:#0070c7;stroke-width:1.5;"/>
    <path clip-path="url(#p001b0880fd)" d="M 343.296 190.49472 
L 217.58976 307.584 
L 217.58976 307.584 
" style="fill:none;stroke:#0070c7;stroke-width:1.5;"/>
    <path clip-path="url(#p001b0880fd)" d="M 57.6 158.56128 
L 183.30624 41.472 
L 183.30624 41.472 
" style="fill:none;stroke:#0070c7;stroke-width:1.5;"/>
    <path clip-path="url(#p001b0880fd)" d="M 217.58976 41.472 
L 343.296 158.56128 
L 343.296 158.56128 
" style="fill:none;stroke:#0070c7;stroke-width:1.5;"/>
   </g>
   <g id="LineCollection_16">
    <path clip-path="url(#p001b0880fd)" d="M 171.8784 307.584 
L 57.6 201.1392 
L 57.6 201.1392 
" style="fill:none;stroke:#0066cc;stroke-width:1.5;"/>
    <path clip-path="url(#p001b0880fd)" d="M 343.296 201.1392 
L 229.0176 307.584 
L 229.0176 307.584 
" style="fill:none;stroke:#0066cc;stroke-width:1.5;"/>
    <path clip-path="url(#p001b0880fd)" d="M 57.6 147.9168 
L 171.8784 41.472 
L 171.8784 41.472 
" style="fill:none;stroke:#0066cc;stroke-width:1.5;"/>
    <path clip-path="url(#p001b0880fd)" d="M 229.0176 41.472 
L 343.296 147.9168 
L 343.296 147.9168 
" style="fill:none;stroke:#0066cc;stroke-width:1.5;"/>
   </g>
   <g id="LineCollection_17">
    <path clip-path="url(#p001b0880fd)" d="M 160.45056 307.584 
L 57.6 211.78368 
L 57.6 211.78368 
" style="fill:none;stroke:#005cd1;stroke-width:1.5;"/>
    <path clip-path="url(#p001b0880fd)" d="M 343.296 211.78368 
L 240.44544 307.584 
L 240.44544 307.584 
" style="fill:none;stroke:#005cd1;stroke-width:1.5;"/>
    <path clip-path="url(#p001b0880fd)" d="M 57.6 137.27232 
L 160.45056 41.472 
L 160.45056 41.472 
" style="fill:none;stroke:#005cd1;stroke-width:1.5;"/>
    <path clip-path="url(#p001b0880fd)" d="M 240.44544 41.472 
L 343.296 137.27232 
L 343.296 137.27232 
" style="fill:none;stroke:#005cd1;stroke-width:1.5;"/>
   </g>
   <g id="LineCollection_18">
    <path clip-path="url(#p001b0880fd)" d="M 149.02272 307.584 
L 57.6 222.42816 
L 57.6 222.42816 
" style="fill:none;stroke:#0051d6;stroke-width:1.5;"/>
    <path clip-path="url(#p001b0880fd)" d="M 343.296 222.42816 
L 251.87328 307.584 
L 251.87328 307.584 
" style="fill:none;stroke:#0051d6;stroke-width:1.5;"/>
    <path clip-path="url(#p001b0880fd)" d="M 57.6 126.62784 
L 149.02272 41.472 
L 149.02272 41.472 
" style="fill:none;stroke:#0051d6;stroke-width:1.5;"/>
    <path clip-path="url(#p001b0880fd)" d="M 251.87328 41.472 
L 343.296 126.62784 
L 343.296 126.62784 
" style="fill:none;stroke:#0051d6;stroke-width:1.5;"/>
   </g>
   <g id="LineCollection_19">
    <path clip-path="url(#p001b0880fd)" d="M 137.59488 307.584 
L 136.561206 306.621183 
L 136.159222 306.246754 
L 135.125548 305.283936 
L 134.723563 304.909508 
L 133.689889 303.94669 
L 133.287905 303.572261 
L 132.254231 302.609444 
L 131.852247 302.235015 
L 130.818573 301.272198 
L 130.416589 300.897769 
L 129.382915 299.934952 
L 128.98093 299.560523 
L 127.947256 298.597705 
L 127.545272 298.223276 
L 126.511598 297.260459 
L 126.109614 296.88603 
L 125.07594 295.923213 
L 124.673955 295.548784 
L 123.640281 294.585967 
L 123.238297 294.211538 
L 122.204623 293.24872 
L 121.802639 292.874291 
L 120.768965 291.911474 
L 120.366981 291.537045 
L 119.333307 290.574228 
L 118.931322 290.199799 
L 117.897648 289.236982 
L 117.495664 288.862553 
L 116.46199 287.899735 
L 116.060006 287.525307 
L 115.026332 286.562489 
L 114.624347 286.18806 
L 113.590673 285.225243 
L 113.188689 284.850814 
L 112.155015 283.887997 
L 111.753031 283.513568 
L 110.719357 282.550751 
L 110.317372 282.176322 
L 109.283698 281.213504 
L 108.881714 280.839075 
L 107.84804 279.876258 
L 107.446056 279.501829 
L 106.412382 278.539012 
L 106.010398 278.164583 
L 104.976724 277.201766 
L 104.574739 276.827337 
L 103.541065 275.864519 
L 103.139081 275.49009 
L 102.105407 274.527273 
L 101.703423 274.152844 
L 100.669749 273.190027 
L 100.267764 272.815598 
L 99.23409 271.852781 
L 98.832106 271.478352 
L 97.798432 270.515534 
L 97.396448 270.141106 
L 96.362774 269.178288 
L 95.96079 268.803859 
L 94.927116 267.841042 
L 94.525131 267.466613 
L 93.491457 266.503796 
L 93.089473 266.129367 
L 92.055799 265.16655 
L 91.653815 264.792121 
L 90.620141 263.829303 
L 90.218156 263.454874 
L 89.184482 262.492057 
L 88.782498 262.117628 
L 87.748824 261.154811 
L 87.34684 260.780382 
L 86.313166 259.817565 
L 85.911182 259.443136 
L 84.877508 258.480318 
L 84.475523 258.105889 
L 83.441849 257.143072 
L 83.039865 256.768643 
L 82.006191 255.805826 
L 81.604207 255.431397 
L 80.570533 254.46858 
L 80.168548 254.094151 
L 79.134874 253.131333 
L 78.73289 252.756905 
L 77.699216 251.794087 
L 77.297232 251.419658 
L 76.263558 250.456841 
L 75.861573 250.082412 
L 74.827899 249.119595 
L 74.425915 248.745166 
L 73.392241 247.782349 
L 72.990257 247.40792 
L 71.956583 246.445102 
L 71.554599 246.070673 
L 70.520925 245.107856 
L 70.11894 244.733427 
L 69.085266 243.77061 
L 68.683282 243.396181 
L 67.649608 242.433364 
L 67.247624 242.058935 
L 66.21395 241.096117 
L 65.811965 240.721688 
L 64.778291 239.758871 
L 64.376307 239.384442 
L 63.342633 238.421625 
L 62.940649 238.047196 
L 61.906975 237.084379 
L 61.504991 236.70995 
L 60.471317 235.747132 
L 60.069332 235.372704 
L 59.035658 234.409886 
L 58.633674 234.035457 
L 57.6 233.07264 
" style="fill:none;stroke:#0047dc;stroke-width:1.5;"/>
    <path clip-path="url(#p001b0880fd)" d="M 343.296 233.07264 
L 342.262326 234.035457 
L 341.860342 234.409886 
L 340.826668 235.372704 
L 340.424683 235.747132 
L 339.391009 236.70995 
L 338.989025 237.084379 
L 337.955351 238.047196 
L 337.553367 238.421625 
L 336.519693 239.384442 
L 336.117709 239.758871 
L 335.084035 240.721688 
L 334.68205 241.096117 
L 333.648376 242.058935 
L 333.246392 242.433364 
L 332.212718 243.396181 
L 331.810734 243.77061 
L 330.77706 244.733427 
L 330.375075 245.107856 
L 329.341401 246.070673 
L 328.939417 246.445102 
L 327.905743 247.40792 
L 327.503759 247.782349 
L 326.470085 248.745166 
L 326.068101 249.119595 
L 325.034427 250.082412 
L 324.632442 250.456841 
L 323.598768 251.419658 
L 323.196784 251.794087 
L 322.16311 252.756905 
L 321.761126 253.131333 
L 320.727452 254.094151 
L 320.325467 254.46858 
L 319.291793 255.431397 
L 318.889809 255.805826 
L 317.856135 256.768643 
L 317.454151 257.143072 
L 316.420477 258.105889 
L 316.018492 258.480318 
L 314.984818 259.443136 
L 314.582834 259.817565 
L 313.54916 260.780382 
L 313.147176 261.154811 
L 312.113502 262.117628 
L 311.711518 262.492057 
L 310.677844 263.454874 
L 310.275859 263.829303 
L 309.242185 264.792121 
L 308.840201 265.16655 
L 307.806527 266.129367 
L 307.404543 266.503796 
L 306.370869 267.466613 
L 305.968884 267.841042 
L 304.93521 268.803859 
L 304.533226 269.178288 
L 303.499552 270.141106 
L 303.097568 270.515534 
L 302.063894 271.478352 
L 301.66191 271.852781 
L 300.628236 272.815598 
L 300.226251 273.190027 
L 299.192577 274.152844 
L 298.790593 274.527273 
L 297.756919 275.49009 
L 297.354935 275.864519 
L 296.321261 276.827337 
L 295.919276 277.201766 
L 294.885602 278.164583 
L 294.483618 278.539012 
L 293.449944 279.501829 
L 293.04796 279.876258 
L 292.014286 280.839075 
L 291.612302 281.213504 
L 290.578628 282.176322 
L 290.176643 282.550751 
L 289.142969 283.513568 
L 288.740985 283.887997 
L 287.707311 284.850814 
L 287.305327 285.225243 
L 286.271653 286.18806 
L 285.869668 286.562489 
L 284.835994 287.525307 
L 284.43401 287.899735 
L 283.400336 288.862553 
L 282.998352 289.236982 
L 281.964678 290.199799 
L 281.562693 290.574228 
L 280.529019 291.537045 
L 280.127035 291.911474 
L 279.093361 292.874291 
L 278.691377 293.24872 
L 277.657703 294.211538 
L 277.255719 294.585967 
L 276.222045 295.548784 
L 275.82006 295.923213 
L 274.786386 296.88603 
L 274.384402 297.260459 
L 273.350728 298.223276 
L 272.948744 298.597705 
L 271.91507 299.560523 
L 271.513085 299.934952 
L 270.479411 300.897769 
L 270.077427 301.272198 
L 269.043753 302.235015 
L 268.641769 302.609444 
L 267.608095 303.572261 
L 267.206111 303.94669 
L 266.172437 304.909508 
L 265.770452 305.283936 
L 264.736778 306.246754 
L 264.334794 306.621183 
L 263.30112 307.584 
" style="fill:none;stroke:#0047dc;stroke-width:1.5;"/>
    <path clip-path="url(#p001b0880fd)" d="M 57.6 115.98336 
L 58.633674 115.020543 
L 59.035658 114.646114 
L 60.069332 113.683296 
L 60.471317 113.308868 
L 61.504991 112.34605 
L 61.906975 111.971621 
L 62.940649 111.008804 
L 63.342633 110.634375 
L 64.376307 109.671558 
L 64.778291 109.297129 
L 65.811965 108.334312 
L 66.21395 107.959883 
L 67.247624 106.997065 
L 67.649608 106.622636 
L 68.683282 105.659819 
L 69.085266 105.28539 
L 70.11894 104.322573 
L 70.520925 103.948144 
L 71.554599 102.985327 
L 71.956583 102.610898 
L 72.990257 101.64808 
L 73.392241 101.273651 
L 74.425915 100.310834 
L 74.827899 99.936405 
L 75.861573 98.973588 
L 76.263558 98.599159 
L 77.297232 97.636342 
L 77.699216 97.261913 
L 78.73289 96.299095 
L 79.134874 95.924667 
L 80.168548 94.961849 
L 80.570533 94.58742 
L 81.604207 93.624603 
L 82.006191 93.250174 
L 83.039865 92.287357 
L 83.441849 91.912928 
L 84.475523 90.950111 
L 84.877508 90.575682 
L 85.911182 89.612864 
L 86.313166 89.238435 
L 87.34684 88.275618 
L 87.748824 87.901189 
L 88.782498 86.938372 
L 89.184482 86.563943 
L 90.218156 85.601126 
L 90.620141 85.226697 
L 91.653815 84.263879 
L 92.055799 83.88945 
L 93.089473 82.926633 
L 93.491457 82.552204 
L 94.525131 81.589387 
L 94.927116 81.214958 
L 95.96079 80.252141 
L 96.362774 79.877712 
L 97.396448 78.914894 
L 97.798432 78.540466 
L 98.832106 77.577648 
L 99.23409 77.203219 
L 100.267764 76.240402 
L 100.669749 75.865973 
L 101.703423 74.903156 
L 102.105407 74.528727 
L 103.139081 73.56591 
L 103.541065 73.191481 
L 104.574739 72.228663 
L 104.976724 71.854234 
L 106.010398 70.891417 
L 106.412382 70.516988 
L 107.446056 69.554171 
L 107.84804 69.179742 
L 108.881714 68.216925 
L 109.283698 67.842496 
L 110.317372 66.879678 
L 110.719357 66.505249 
L 111.753031 65.542432 
L 112.155015 65.168003 
L 113.188689 64.205186 
L 113.590673 63.830757 
L 114.624347 62.86794 
L 115.026332 62.493511 
L 116.060006 61.530693 
L 116.46199 61.156265 
L 117.495664 60.193447 
L 117.897648 59.819018 
L 118.931322 58.856201 
L 119.333307 58.481772 
L 120.366981 57.518955 
L 120.768965 57.144526 
L 121.802639 56.181709 
L 122.204623 55.80728 
L 123.238297 54.844462 
L 123.640281 54.470033 
L 124.673955 53.507216 
L 125.07594 53.132787 
L 126.109614 52.16997 
L 126.511598 51.795541 
L 127.545272 50.832724 
L 127.947256 50.458295 
L 128.98093 49.495477 
L 129.382915 49.121048 
L 130.416589 48.158231 
L 130.818573 47.783802 
L 131.852247 46.820985 
L 132.254231 46.446556 
L 133.287905 45.483739 
L 133.689889 45.10931 
L 134.723563 44.146492 
L 135.125548 43.772064 
L 136.159222 42.809246 
L 136.561206 42.434817 
L 137.59488 41.472 
" style="fill:none;stroke:#0047dc;stroke-width:1.5;"/>
    <path clip-path="url(#p001b0880fd)" d="M 263.30112 41.472 
L 264.334794 42.434817 
L 264.736778 42.809246 
L 265.770452 43.772064 
L 266.172437 44.146492 
L 267.206111 45.10931 
L 267.608095 45.483739 
L 268.641769 46.446556 
L 269.043753 46.820985 
L 270.077427 47.783802 
L 270.479411 48.158231 
L 271.513085 49.121048 
L 271.91507 49.495477 
L 272.948744 50.458295 
L 273.350728 50.832724 
L 274.384402 51.795541 
L 274.786386 52.16997 
L 275.82006 53.132787 
L 276.222045 53.507216 
L 277.255719 54.470033 
L 277.657703 54.844462 
L 278.691377 55.80728 
L 279.093361 56.181709 
L 280.127035 57.144526 
L 280.529019 57.518955 
L 281.562693 58.481772 
L 281.964678 58.856201 
L 282.998352 59.819018 
L 283.400336 60.193447 
L 284.43401 61.156265 
L 284.835994 61.530693 
L 285.869668 62.493511 
L 286.271653 62.86794 
L 287.305327 63.830757 
L 287.707311 64.205186 
L 288.740985 65.168003 
L 289.142969 65.542432 
L 290.176643 66.505249 
L 290.578628 66.879678 
L 291.612302 67.842496 
L 292.014286 68.216925 
L 293.04796 69.179742 
L 293.449944 69.554171 
L 294.483618 70.516988 
L 294.885602 70.891417 
L 295.919276 71.854234 
L 296.321261 72.228663 
L 297.354935 73.191481 
L 297.756919 73.56591 
L 298.790593 74.528727 
L 299.192577 74.903156 
L 300.226251 75.865973 
L 300.628236 76.240402 
L 301.66191 77.203219 
L 302.063894 77.577648 
L 303.097568 78.540466 
L 303.499552 78.914894 
L 304.533226 79.877712 
L 304.93521 80.252141 
L 305.968884 81.214958 
L 306.370869 81.589387 
L 307.404543 82.552204 
L 307.806527 82.926633 
L 308.840201 83.88945 
L 309.242185 84.263879 
L 310.275859 85.226697 
L 310.677844 85.601126 
L 311.711518 86.563943 
L 312.113502 86.938372 
L 313.147176 87.901189 
L 313.54916 88.275618 
L 314.582834 89.238435 
L 314.984818 89.612864 
L 316.018492 90.575682 
L 316.420477 90.950111 
L 317.454151 91.912928 
L 317.856135 92.287357 
L 318.889809 93.250174 
L 319.291793 93.624603 
L 320.325467 94.58742 
L 320.727452 94.961849 
L 321.761126 95.924667 
L 322.16311 96.299095 
L 323.196784 97.261913 
L 323.598768 97.636342 
L 324.632442 98.599159 
L 325.034427 98.973588 
L 326.068101 99.936405 
L 326.470085 100.310834 
L 327.503759 101.273651 
L 327.905743 101.64808 
L 328.939417 102.610898 
L 329.341401 102.985327 
L 330.375075 103.948144 
L 330.77706 104.322573 
L 331.810734 105.28539 
L 332.212718 105.659819 
L 333.246392 106.622636 
L 333.648376 106.997065 
L 334.68205 107.959883 
L 335.084035 108.334312 
L 336.117709 109.297129 
L 336.519693 109.671558 
L 337.553367 110.634375 
L 337.955351 111.008804 
L 338.989025 111.971621 
L 339.391009 112.34605 
L 340.424683 113.308868 
L 340.826668 113.683296 
L 341.860342 114.646114 
L 342.262326 115.020543 
L 343.296 115.98336 
" style="fill:none;stroke:#0047dc;stroke-width:1.5;"/>
   </g>
   <g id="LineCollection_20">
    <path clip-path="url(#p001b0880fd)" d="M 126.16704 307.584 
L 125.07594 306.567693 
L 124.731382 306.246754 
L 123.640281 305.230447 
L 123.295723 304.909508 
L 122.204623 303.8932 
L 121.860065 303.572261 
L 120.768965 302.555954 
L 120.424407 302.235015 
L 119.333307 301.218708 
L 118.988749 300.897769 
L 117.897648 299.881462 
L 117.55309 299.560523 
L 116.46199 298.544215 
L 116.117432 298.223276 
L 115.026332 297.206969 
L 114.681774 296.88603 
L 113.590673 295.869723 
L 113.246115 295.548784 
L 112.155015 294.532477 
L 111.810457 294.211538 
L 110.719357 293.195231 
L 110.374799 292.874291 
L 109.283698 291.857984 
L 108.939141 291.537045 
L 107.84804 290.520738 
L 107.503482 290.199799 
L 106.412382 289.183492 
L 106.067824 288.862553 
L 104.976724 287.846246 
L 104.632166 287.525307 
L 103.541065 286.508999 
L 103.196507 286.18806 
L 102.105407 285.171753 
L 101.760849 284.850814 
L 100.669749 283.834507 
L 100.325191 283.513568 
L 99.23409 282.497261 
L 98.889532 282.176322 
L 97.798432 281.160014 
L 97.453874 280.839075 
L 96.362774 279.822768 
L 96.018216 279.501829 
L 94.927116 278.485522 
L 94.582558 278.164583 
L 93.491457 277.148276 
L 93.146899 276.827337 
L 92.055799 275.81103 
L 91.711241 275.49009 
L 90.620141 274.473783 
L 90.275583 274.152844 
L 89.184482 273.136537 
L 88.839924 272.815598 
L 87.748824 271.799291 
L 87.404266 271.478352 
L 86.313166 270.462045 
L 85.968608 270.141106 
L 84.877508 269.124798 
L 84.53295 268.803859 
L 83.441849 267.787552 
L 83.097291 267.466613 
L 82.006191 266.450306 
L 81.661633 266.129367 
L 80.570533 265.11306 
L 80.225975 264.792121 
L 79.134874 263.775813 
L 78.790316 263.454874 
L 77.699216 262.438567 
L 77.354658 262.117628 
L 76.263558 261.101321 
L 75.919 260.780382 
L 74.827899 259.764075 
L 74.483342 259.443136 
L 73.392241 258.426829 
L 73.047683 258.105889 
L 71.956583 257.089582 
L 71.612025 256.768643 
L 70.520925 255.752336 
L 70.176367 255.431397 
L 69.085266 254.41509 
L 68.740708 254.094151 
L 67.649608 253.077844 
L 67.30505 252.756905 
L 66.21395 251.740597 
L 65.869392 251.419658 
L 64.778291 250.403351 
L 64.433733 250.082412 
L 63.342633 249.066105 
L 62.998075 248.745166 
L 61.906975 247.728859 
L 61.562417 247.40792 
L 60.471317 246.391612 
L 60.126759 246.070673 
L 59.035658 245.054366 
L 58.6911 244.733427 
L 57.6 243.71712 
" style="fill:none;stroke:#003de0;stroke-width:1.5;"/>
    <path clip-path="url(#p001b0880fd)" d="M 343.296 243.71712 
L 342.2049 244.733427 
L 341.860342 245.054366 
L 340.769241 246.070673 
L 340.424683 246.391612 
L 339.333583 247.40792 
L 338.989025 247.728859 
L 337.897925 248.745166 
L 337.553367 249.066105 
L 336.462267 250.082412 
L 336.117709 250.403351 
L 335.026608 251.419658 
L 334.68205 251.740597 
L 333.59095 252.756905 
L 333.246392 253.077844 
L 332.155292 254.094151 
L 331.810734 254.41509 
L 330.719633 255.431397 
L 330.375075 255.752336 
L 329.283975 256.768643 
L 328.939417 257.089582 
L 327.848317 258.105889 
L 327.503759 258.426829 
L 326.412658 259.443136 
L 326.068101 259.764075 
L 324.977 260.780382 
L 324.632442 261.101321 
L 323.541342 262.117628 
L 323.196784 262.438567 
L 322.105684 263.454874 
L 321.761126 263.775813 
L 320.670025 264.792121 
L 320.325467 265.11306 
L 319.234367 266.129367 
L 318.889809 266.450306 
L 317.798709 267.466613 
L 317.454151 267.787552 
L 316.36305 268.803859 
L 316.018492 269.124798 
L 314.927392 270.141106 
L 314.582834 270.462045 
L 313.491734 271.478352 
L 313.147176 271.799291 
L 312.056076 272.815598 
L 311.711518 273.136537 
L 310.620417 274.152844 
L 310.275859 274.473783 
L 309.184759 275.49009 
L 308.840201 275.81103 
L 307.749101 276.827337 
L 307.404543 277.148276 
L 306.313442 278.164583 
L 305.968884 278.485522 
L 304.877784 279.501829 
L 304.533226 279.822768 
L 303.442126 280.839075 
L 303.097568 281.160014 
L 302.006468 282.176322 
L 301.66191 282.497261 
L 300.570809 283.513568 
L 300.226251 283.834507 
L 299.135151 284.850814 
L 298.790593 285.171753 
L 297.699493 286.18806 
L 297.354935 286.508999 
L 296.263834 287.525307 
L 295.919276 287.846246 
L 294.828176 288.862553 
L 294.483618 289.183492 
L 293.392518 290.199799 
L 293.04796 290.520738 
L 291.956859 291.537045 
L 291.612302 291.857984 
L 290.521201 292.874291 
L 290.176643 293.195231 
L 289.085543 294.211538 
L 288.740985 294.532477 
L 287.649885 295.548784 
L 287.305327 295.869723 
L 286.214226 296.88603 
L 285.869668 297.206969 
L 284.778568 298.223276 
L 284.43401 298.544215 
L 283.34291 299.560523 
L 282.998352 299.881462 
L 281.907251 300.897769 
L 281.562693 301.218708 
L 280.471593 302.235015 
L 280.127035 302.555954 
L 279.035935 303.572261 
L 278.691377 303.8932 
L 277.600277 304.909508 
L 277.255719 305.230447 
L 276.164618 306.246754 
L 275.82006 306.567693 
L 274.72896 307.584 
" style="fill:none;stroke:#003de0;stroke-width:1.5;"/>
    <path clip-path="url(#p001b0880fd)" d="M 57.6 105.33888 
L 58.6911 104.322573 
L 59.035658 104.001634 
L 60.126759 102.985327 
L 60.471317 102.664388 
L 61.562417 101.64808 
L 61.906975 101.327141 
L 62.998075 100.310834 
L 63.342633 99.989895 
L 64.433733 98.973588 
L 64.778291 98.652649 
L 65.869392 97.636342 
L 66.21395 97.315403 
L 67.30505 96.299095 
L 67.649608 95.978156 
L 68.740708 94.961849 
L 69.085266 94.64091 
L 70.176367 93.624603 
L 70.520925 93.303664 
L 71.612025 92.287357 
L 71.956583 91.966418 
L 73.047683 90.950111 
L 73.392241 90.629171 
L 74.483342 89.612864 
L 74.827899 89.291925 
L 75.919 88.275618 
L 76.263558 87.954679 
L 77.354658 86.938372 
L 77.699216 86.617433 
L 78.790316 85.601126 
L 79.134874 85.280187 
L 80.225975 84.263879 
L 80.570533 83.94294 
L 81.661633 82.926633 
L 82.006191 82.605694 
L 83.097291 81.589387 
L 83.441849 81.268448 
L 84.53295 80.252141 
L 84.877508 79.931202 
L 85.968608 78.914894 
L 86.313166 78.593955 
L 87.404266 77.577648 
L 87.748824 77.256709 
L 88.839924 76.240402 
L 89.184482 75.919463 
L 90.275583 74.903156 
L 90.620141 74.582217 
L 91.711241 73.56591 
L 92.055799 73.24497 
L 93.146899 72.228663 
L 93.491457 71.907724 
L 94.582558 70.891417 
L 94.927116 70.570478 
L 96.018216 69.554171 
L 96.362774 69.233232 
L 97.453874 68.216925 
L 97.798432 67.895986 
L 98.889532 66.879678 
L 99.23409 66.558739 
L 100.325191 65.542432 
L 100.669749 65.221493 
L 101.760849 64.205186 
L 102.105407 63.884247 
L 103.196507 62.86794 
L 103.541065 62.547001 
L 104.632166 61.530693 
L 104.976724 61.209754 
L 106.067824 60.193447 
L 106.412382 59.872508 
L 107.503482 58.856201 
L 107.84804 58.535262 
L 108.939141 57.518955 
L 109.283698 57.198016 
L 110.374799 56.181709 
L 110.719357 55.860769 
L 111.810457 54.844462 
L 112.155015 54.523523 
L 113.246115 53.507216 
L 113.590673 53.186277 
L 114.681774 52.16997 
L 115.026332 51.849031 
L 116.117432 50.832724 
L 116.46199 50.511785 
L 117.55309 49.495477 
L 117.897648 49.174538 
L 118.988749 48.158231 
L 119.333307 47.837292 
L 120.424407 46.820985 
L 120.768965 46.500046 
L 121.860065 45.483739 
L 122.204623 45.1628 
L 123.295723 44.146492 
L 123.640281 43.825553 
L 124.731382 42.809246 
L 125.07594 42.488307 
L 126.16704 41.472 
" style="fill:none;stroke:#003de0;stroke-width:1.5;"/>
    <path clip-path="url(#p001b0880fd)" d="M 274.72896 41.472 
L 275.82006 42.488307 
L 276.164618 42.809246 
L 277.255719 43.825553 
L 277.600277 44.146492 
L 278.691377 45.1628 
L 279.035935 45.483739 
L 280.127035 46.500046 
L 280.471593 46.820985 
L 281.562693 47.837292 
L 281.907251 48.158231 
L 282.998352 49.174538 
L 283.34291 49.495477 
L 284.43401 50.511785 
L 284.778568 50.832724 
L 285.869668 51.849031 
L 286.214226 52.16997 
L 287.305327 53.186277 
L 287.649885 53.507216 
L 288.740985 54.523523 
L 289.085543 54.844462 
L 290.176643 55.860769 
L 290.521201 56.181709 
L 291.612302 57.198016 
L 291.956859 57.518955 
L 293.04796 58.535262 
L 293.392518 58.856201 
L 294.483618 59.872508 
L 294.828176 60.193447 
L 295.919276 61.209754 
L 296.263834 61.530693 
L 297.354935 62.547001 
L 297.699493 62.86794 
L 298.790593 63.884247 
L 299.135151 64.205186 
L 300.226251 65.221493 
L 300.570809 65.542432 
L 301.66191 66.558739 
L 302.006468 66.879678 
L 303.097568 67.895986 
L 303.442126 68.216925 
L 304.533226 69.233232 
L 304.877784 69.554171 
L 305.968884 70.570478 
L 306.313442 70.891417 
L 307.404543 71.907724 
L 307.749101 72.228663 
L 308.840201 73.24497 
L 309.184759 73.56591 
L 310.275859 74.582217 
L 310.620417 74.903156 
L 311.711518 75.919463 
L 312.056076 76.240402 
L 313.147176 77.256709 
L 313.491734 77.577648 
L 314.582834 78.593955 
L 314.927392 78.914894 
L 316.018492 79.931202 
L 316.36305 80.252141 
L 317.454151 81.268448 
L 317.798709 81.589387 
L 318.889809 82.605694 
L 319.234367 82.926633 
L 320.325467 83.94294 
L 320.670025 84.263879 
L 321.761126 85.280187 
L 322.105684 85.601126 
L 323.196784 86.617433 
L 323.541342 86.938372 
L 324.632442 87.954679 
L 324.977 88.275618 
L 326.068101 89.291925 
L 326.412658 89.612864 
L 327.503759 90.629171 
L 327.848317 90.950111 
L 328.939417 91.966418 
L 329.283975 92.287357 
L 330.375075 93.303664 
L 330.719633 93.624603 
L 331.810734 94.64091 
L 332.155292 94.961849 
L 333.246392 95.978156 
L 333.59095 96.299095 
L 334.68205 97.315403 
L 335.026608 97.636342 
L 336.117709 98.652649 
L 336.462267 98.973588 
L 337.553367 99.989895 
L 337.897925 100.310834 
L 338.989025 101.327141 
L 339.333583 101.64808 
L 340.424683 102.664388 
L 340.769241 102.985327 
L 341.860342 104.001634 
L 342.2049 104.322573 
L 343.296 105.33888 
" style="fill:none;stroke:#003de0;stroke-width:1.5;"/>
   </g>
   <g id="LineCollection_21">
    <path clip-path="url(#p001b0880fd)" d="M 114.7392 307.584 
L 113.590673 306.514203 
L 113.303542 306.246754 
L 112.155015 305.176957 
L 111.867883 304.909508 
L 110.719357 303.839711 
L 110.432225 303.572261 
L 109.283698 302.502464 
L 108.996567 302.235015 
L 107.84804 301.165218 
L 107.560909 300.897769 
L 106.412382 299.827972 
L 106.12525 299.560523 
L 104.976724 298.490726 
L 104.689592 298.223276 
L 103.541065 297.153479 
L 103.253934 296.88603 
L 102.105407 295.816233 
L 101.818275 295.548784 
L 100.669749 294.478987 
L 100.382617 294.211538 
L 99.23409 293.141741 
L 98.946959 292.874291 
L 97.798432 291.804494 
L 97.511301 291.537045 
L 96.362774 290.467248 
L 96.075642 290.199799 
L 94.927116 289.130002 
L 94.639984 288.862553 
L 93.491457 287.792756 
L 93.204326 287.525307 
L 92.055799 286.45551 
L 91.768667 286.18806 
L 90.620141 285.118263 
L 90.333009 284.850814 
L 89.184482 283.781017 
L 88.897351 283.513568 
L 87.748824 282.443771 
L 87.461692 282.176322 
L 86.313166 281.106525 
L 86.026034 280.839075 
L 84.877508 279.769278 
L 84.590376 279.501829 
L 83.441849 278.432032 
L 83.154718 278.164583 
L 82.006191 277.094786 
L 81.719059 276.827337 
L 80.570533 275.75754 
L 80.283401 275.49009 
L 79.134874 274.420293 
L 78.847743 274.152844 
L 77.699216 273.083047 
L 77.412084 272.815598 
L 76.263558 271.745801 
L 75.976426 271.478352 
L 74.827899 270.408555 
L 74.540768 270.141106 
L 73.392241 269.071309 
L 73.10511 268.803859 
L 71.956583 267.734062 
L 71.669451 267.466613 
L 70.520925 266.396816 
L 70.233793 266.129367 
L 69.085266 265.05957 
L 68.798135 264.792121 
L 67.649608 263.722324 
L 67.362476 263.454874 
L 66.21395 262.385077 
L 65.926818 262.117628 
L 64.778291 261.047831 
L 64.49116 260.780382 
L 63.342633 259.710585 
L 63.055502 259.443136 
L 61.906975 258.373339 
L 61.619843 258.105889 
L 60.471317 257.036092 
L 60.184185 256.768643 
L 59.035658 255.698846 
L 58.748527 255.431397 
L 57.6 254.3616 
" style="fill:none;stroke:#0033e6;stroke-width:1.5;"/>
    <path clip-path="url(#p001b0880fd)" d="M 343.296 254.3616 
L 342.147473 255.431397 
L 341.860342 255.698846 
L 340.711815 256.768643 
L 340.424683 257.036092 
L 339.276157 258.105889 
L 338.989025 258.373339 
L 337.840498 259.443136 
L 337.553367 259.710585 
L 336.40484 260.780382 
L 336.117709 261.047831 
L 334.969182 262.117628 
L 334.68205 262.385077 
L 333.533524 263.454874 
L 333.246392 263.722324 
L 332.097865 264.792121 
L 331.810734 265.05957 
L 330.662207 266.129367 
L 330.375075 266.396816 
L 329.226549 267.466613 
L 328.939417 267.734062 
L 327.79089 268.803859 
L 327.503759 269.071309 
L 326.355232 270.141106 
L 326.068101 270.408555 
L 324.919574 271.478352 
L 324.632442 271.745801 
L 323.483916 272.815598 
L 323.196784 273.083047 
L 322.048257 274.152844 
L 321.761126 274.420293 
L 320.612599 275.49009 
L 320.325467 275.75754 
L 319.176941 276.827337 
L 318.889809 277.094786 
L 317.741282 278.164583 
L 317.454151 278.432032 
L 316.305624 279.501829 
L 316.018492 279.769278 
L 314.869966 280.839075 
L 314.582834 281.106525 
L 313.434308 282.176322 
L 313.147176 282.443771 
L 311.998649 283.513568 
L 311.711518 283.781017 
L 310.562991 284.850814 
L 310.275859 285.118263 
L 309.127333 286.18806 
L 308.840201 286.45551 
L 307.691674 287.525307 
L 307.404543 287.792756 
L 306.256016 288.862553 
L 305.968884 289.130002 
L 304.820358 290.199799 
L 304.533226 290.467248 
L 303.384699 291.537045 
L 303.097568 291.804494 
L 301.949041 292.874291 
L 301.66191 293.141741 
L 300.513383 294.211538 
L 300.226251 294.478987 
L 299.077725 295.548784 
L 298.790593 295.816233 
L 297.642066 296.88603 
L 297.354935 297.153479 
L 296.206408 298.223276 
L 295.919276 298.490726 
L 294.77075 299.560523 
L 294.483618 299.827972 
L 293.335091 300.897769 
L 293.04796 301.165218 
L 291.899433 302.235015 
L 291.612302 302.502464 
L 290.463775 303.572261 
L 290.176643 303.839711 
L 289.028117 304.909508 
L 288.740985 305.176957 
L 287.592458 306.246754 
L 287.305327 306.514203 
L 286.1568 307.584 
" style="fill:none;stroke:#0033e6;stroke-width:1.5;"/>
    <path clip-path="url(#p001b0880fd)" d="M 57.6 94.6944 
L 58.748527 93.624603 
L 59.035658 93.357154 
L 60.184185 92.287357 
L 60.471317 92.019908 
L 61.619843 90.950111 
L 61.906975 90.682661 
L 63.055502 89.612864 
L 63.342633 89.345415 
L 64.49116 88.275618 
L 64.778291 88.008169 
L 65.926818 86.938372 
L 66.21395 86.670923 
L 67.362476 85.601126 
L 67.649608 85.333676 
L 68.798135 84.263879 
L 69.085266 83.99643 
L 70.233793 82.926633 
L 70.520925 82.659184 
L 71.669451 81.589387 
L 71.956583 81.321938 
L 73.10511 80.252141 
L 73.392241 79.984691 
L 74.540768 78.914894 
L 74.827899 78.647445 
L 75.976426 77.577648 
L 76.263558 77.310199 
L 77.412084 76.240402 
L 77.699216 75.972953 
L 78.847743 74.903156 
L 79.134874 74.635707 
L 80.283401 73.56591 
L 80.570533 73.29846 
L 81.719059 72.228663 
L 82.006191 71.961214 
L 83.154718 70.891417 
L 83.441849 70.623968 
L 84.590376 69.554171 
L 84.877508 69.286722 
L 86.026034 68.216925 
L 86.313166 67.949475 
L 87.461692 66.879678 
L 87.748824 66.612229 
L 88.897351 65.542432 
L 89.184482 65.274983 
L 90.333009 64.205186 
L 90.620141 63.937737 
L 91.768667 62.86794 
L 92.055799 62.60049 
L 93.204326 61.530693 
L 93.491457 61.263244 
L 94.639984 60.193447 
L 94.927116 59.925998 
L 96.075642 58.856201 
L 96.362774 58.588752 
L 97.511301 57.518955 
L 97.798432 57.251506 
L 98.946959 56.181709 
L 99.23409 55.914259 
L 100.382617 54.844462 
L 100.669749 54.577013 
L 101.818275 53.507216 
L 102.105407 53.239767 
L 103.253934 52.16997 
L 103.541065 51.902521 
L 104.689592 50.832724 
L 104.976724 50.565274 
L 106.12525 49.495477 
L 106.412382 49.228028 
L 107.560909 48.158231 
L 107.84804 47.890782 
L 108.996567 46.820985 
L 109.283698 46.553536 
L 110.432225 45.483739 
L 110.719357 45.216289 
L 111.867883 44.146492 
L 112.155015 43.879043 
L 113.303542 42.809246 
L 113.590673 42.541797 
L 114.7392 41.472 
" style="fill:none;stroke:#0033e6;stroke-width:1.5;"/>
    <path clip-path="url(#p001b0880fd)" d="M 286.1568 41.472 
L 287.305327 42.541797 
L 287.592458 42.809246 
L 288.740985 43.879043 
L 289.028117 44.146492 
L 290.176643 45.216289 
L 290.463775 45.483739 
L 291.612302 46.553536 
L 291.899433 46.820985 
L 293.04796 47.890782 
L 293.335091 48.158231 
L 294.483618 49.228028 
L 294.77075 49.495477 
L 295.919276 50.565274 
L 296.206408 50.832724 
L 297.354935 51.902521 
L 297.642066 52.16997 
L 298.790593 53.239767 
L 299.077725 53.507216 
L 300.226251 54.577013 
L 300.513383 54.844462 
L 301.66191 55.914259 
L 301.949041 56.181709 
L 303.097568 57.251506 
L 303.384699 57.518955 
L 304.533226 58.588752 
L 304.820358 58.856201 
L 305.968884 59.925998 
L 306.256016 60.193447 
L 307.404543 61.263244 
L 307.691674 61.530693 
L 308.840201 62.60049 
L 309.127333 62.86794 
L 310.275859 63.937737 
L 310.562991 64.205186 
L 311.711518 65.274983 
L 311.998649 65.542432 
L 313.147176 66.612229 
L 313.434308 66.879678 
L 314.582834 67.949475 
L 314.869966 68.216925 
L 316.018492 69.286722 
L 316.305624 69.554171 
L 317.454151 70.623968 
L 317.741282 70.891417 
L 318.889809 71.961214 
L 319.176941 72.228663 
L 320.325467 73.29846 
L 320.612599 73.56591 
L 321.761126 74.635707 
L 322.048257 74.903156 
L 323.196784 75.972953 
L 323.483916 76.240402 
L 324.632442 77.310199 
L 324.919574 77.577648 
L 326.068101 78.647445 
L 326.355232 78.914894 
L 327.503759 79.984691 
L 327.79089 80.252141 
L 328.939417 81.321938 
L 329.226549 81.589387 
L 330.375075 82.659184 
L 330.662207 82.926633 
L 331.810734 83.99643 
L 332.097865 84.263879 
L 333.246392 85.333676 
L 333.533524 85.601126 
L 334.68205 86.670923 
L 334.969182 86.938372 
L 336.117709 88.008169 
L 336.40484 88.275618 
L 337.553367 89.345415 
L 337.840498 89.612864 
L 338.989025 90.682661 
L 339.276157 90.950111 
L 340.424683 92.019908 
L 340.711815 92.287357 
L 341.860342 93.357154 
L 342.147473 93.624603 
L 343.296 94.6944 
" style="fill:none;stroke:#0033e6;stroke-width:1.5;"/>
   </g>
   <g id="LineCollection_22">
    <path clip-path="url(#p001b0880fd)" d="M 103.31136 307.584 
L 102.105407 306.460713 
L 101.875702 306.246754 
L 100.669749 305.123467 
L 100.440043 304.909508 
L 99.23409 303.786221 
L 99.004385 303.572261 
L 97.798432 302.448974 
L 97.568727 302.235015 
L 96.362774 301.111728 
L 96.133069 300.897769 
L 94.927116 299.774482 
L 94.69741 299.560523 
L 93.491457 298.437236 
L 93.261752 298.223276 
L 92.055799 297.09999 
L 91.826094 296.88603 
L 90.620141 295.762743 
L 90.390435 295.548784 
L 89.184482 294.425497 
L 88.954777 294.211538 
L 87.748824 293.088251 
L 87.519119 292.874291 
L 86.313166 291.751005 
L 86.083461 291.537045 
L 84.877508 290.413758 
L 84.647802 290.199799 
L 83.441849 289.076512 
L 83.212144 288.862553 
L 82.006191 287.739266 
L 81.776486 287.525307 
L 80.570533 286.40202 
L 80.340827 286.18806 
L 79.134874 285.064773 
L 78.905169 284.850814 
L 77.699216 283.727527 
L 77.469511 283.513568 
L 76.263558 282.390281 
L 76.033852 282.176322 
L 74.827899 281.053035 
L 74.598194 280.839075 
L 73.392241 279.715789 
L 73.162536 279.501829 
L 71.956583 278.378542 
L 71.726878 278.164583 
L 70.520925 277.041296 
L 70.291219 276.827337 
L 69.085266 275.70405 
L 68.855561 275.49009 
L 67.649608 274.366804 
L 67.419903 274.152844 
L 66.21395 273.029557 
L 65.984244 272.815598 
L 64.778291 271.692311 
L 64.548586 271.478352 
L 63.342633 270.355065 
L 63.112928 270.141106 
L 61.906975 269.017819 
L 61.67727 268.803859 
L 60.471317 267.680572 
L 60.241611 267.466613 
L 59.035658 266.343326 
L 58.805953 266.129367 
L 57.6 265.00608 
" style="fill:none;stroke:#0028eb;stroke-width:1.5;"/>
    <path clip-path="url(#p001b0880fd)" d="M 343.296 265.00608 
L 342.090047 266.129367 
L 341.860342 266.343326 
L 340.654389 267.466613 
L 340.424683 267.680572 
L 339.21873 268.803859 
L 338.989025 269.017819 
L 337.783072 270.141106 
L 337.553367 270.355065 
L 336.347414 271.478352 
L 336.117709 271.692311 
L 334.911756 272.815598 
L 334.68205 273.029557 
L 333.476097 274.152844 
L 333.246392 274.366804 
L 332.040439 275.49009 
L 331.810734 275.70405 
L 330.604781 276.827337 
L 330.375075 277.041296 
L 329.169122 278.164583 
L 328.939417 278.378542 
L 327.733464 279.501829 
L 327.503759 279.715789 
L 326.297806 280.839075 
L 326.068101 281.053035 
L 324.862148 282.176322 
L 324.632442 282.390281 
L 323.426489 283.513568 
L 323.196784 283.727527 
L 321.990831 284.850814 
L 321.761126 285.064773 
L 320.555173 286.18806 
L 320.325467 286.40202 
L 319.119514 287.525307 
L 318.889809 287.739266 
L 317.683856 288.862553 
L 317.454151 289.076512 
L 316.248198 290.199799 
L 316.018492 290.413758 
L 314.812539 291.537045 
L 314.582834 291.751005 
L 313.376881 292.874291 
L 313.147176 293.088251 
L 311.941223 294.211538 
L 311.711518 294.425497 
L 310.505565 295.548784 
L 310.275859 295.762743 
L 309.069906 296.88603 
L 308.840201 297.09999 
L 307.634248 298.223276 
L 307.404543 298.437236 
L 306.19859 299.560523 
L 305.968884 299.774482 
L 304.762931 300.897769 
L 304.533226 301.111728 
L 303.327273 302.235015 
L 303.097568 302.448974 
L 301.891615 303.572261 
L 301.66191 303.786221 
L 300.455957 304.909508 
L 300.226251 305.123467 
L 299.020298 306.246754 
L 298.790593 306.460713 
L 297.58464 307.584 
" style="fill:none;stroke:#0028eb;stroke-width:1.5;"/>
    <path clip-path="url(#p001b0880fd)" d="M 57.6 84.04992 
L 58.805953 82.926633 
L 59.035658 82.712674 
L 60.241611 81.589387 
L 60.471317 81.375428 
L 61.67727 80.252141 
L 61.906975 80.038181 
L 63.112928 78.914894 
L 63.342633 78.700935 
L 64.548586 77.577648 
L 64.778291 77.363689 
L 65.984244 76.240402 
L 66.21395 76.026443 
L 67.419903 74.903156 
L 67.649608 74.689196 
L 68.855561 73.56591 
L 69.085266 73.35195 
L 70.291219 72.228663 
L 70.520925 72.014704 
L 71.726878 70.891417 
L 71.956583 70.677458 
L 73.162536 69.554171 
L 73.392241 69.340211 
L 74.598194 68.216925 
L 74.827899 68.002965 
L 76.033852 66.879678 
L 76.263558 66.665719 
L 77.469511 65.542432 
L 77.699216 65.328473 
L 78.905169 64.205186 
L 79.134874 63.991227 
L 80.340827 62.86794 
L 80.570533 62.65398 
L 81.776486 61.530693 
L 82.006191 61.316734 
L 83.212144 60.193447 
L 83.441849 59.979488 
L 84.647802 58.856201 
L 84.877508 58.642242 
L 86.083461 57.518955 
L 86.313166 57.304995 
L 87.519119 56.181709 
L 87.748824 55.967749 
L 88.954777 54.844462 
L 89.184482 54.630503 
L 90.390435 53.507216 
L 90.620141 53.293257 
L 91.826094 52.16997 
L 92.055799 51.95601 
L 93.261752 50.832724 
L 93.491457 50.618764 
L 94.69741 49.495477 
L 94.927116 49.281518 
L 96.133069 48.158231 
L 96.362774 47.944272 
L 97.568727 46.820985 
L 97.798432 46.607026 
L 99.004385 45.483739 
L 99.23409 45.269779 
L 100.440043 44.146492 
L 100.669749 43.932533 
L 101.875702 42.809246 
L 102.105407 42.595287 
L 103.31136 41.472 
" style="fill:none;stroke:#0028eb;stroke-width:1.5;"/>
    <path clip-path="url(#p001b0880fd)" d="M 297.58464 41.472 
L 298.790593 42.595287 
L 299.020298 42.809246 
L 300.226251 43.932533 
L 300.455957 44.146492 
L 301.66191 45.269779 
L 301.891615 45.483739 
L 303.097568 46.607026 
L 303.327273 46.820985 
L 304.533226 47.944272 
L 304.762931 48.158231 
L 305.968884 49.281518 
L 306.19859 49.495477 
L 307.404543 50.618764 
L 307.634248 50.832724 
L 308.840201 51.95601 
L 309.069906 52.16997 
L 310.275859 53.293257 
L 310.505565 53.507216 
L 311.711518 54.630503 
L 311.941223 54.844462 
L 313.147176 55.967749 
L 313.376881 56.181709 
L 314.582834 57.304995 
L 314.812539 57.518955 
L 316.018492 58.642242 
L 316.248198 58.856201 
L 317.454151 59.979488 
L 317.683856 60.193447 
L 318.889809 61.316734 
L 319.119514 61.530693 
L 320.325467 62.65398 
L 320.555173 62.86794 
L 321.761126 63.991227 
L 321.990831 64.205186 
L 323.196784 65.328473 
L 323.426489 65.542432 
L 324.632442 66.665719 
L 324.862148 66.879678 
L 326.068101 68.002965 
L 326.297806 68.216925 
L 327.503759 69.340211 
L 327.733464 69.554171 
L 328.939417 70.677458 
L 329.169122 70.891417 
L 330.375075 72.014704 
L 330.604781 72.228663 
L 331.810734 73.35195 
L 332.040439 73.56591 
L 333.246392 74.689196 
L 333.476097 74.903156 
L 334.68205 76.026443 
L 334.911756 76.240402 
L 336.117709 77.363689 
L 336.347414 77.577648 
L 337.553367 78.700935 
L 337.783072 78.914894 
L 338.989025 80.038181 
L 339.21873 80.252141 
L 340.424683 81.375428 
L 340.654389 81.589387 
L 341.860342 82.712674 
L 342.090047 82.926633 
L 343.296 84.04992 
" style="fill:none;stroke:#0028eb;stroke-width:1.5;"/>
   </g>
   <g id="LineCollection_23">
    <path clip-path="url(#p001b0880fd)" d="M 91.88352 307.584 
L 90.620141 306.407223 
L 90.447862 306.246754 
L 89.184482 305.069977 
L 89.012203 304.909508 
L 87.748824 303.732731 
L 87.576545 303.572261 
L 86.313166 302.395485 
L 86.140887 302.235015 
L 84.877508 301.058238 
L 84.705229 300.897769 
L 83.441849 299.720992 
L 83.26957 299.560523 
L 82.006191 298.383746 
L 81.833912 298.223276 
L 80.570533 297.0465 
L 80.398254 296.88603 
L 79.134874 295.709253 
L 78.962595 295.548784 
L 77.699216 294.372007 
L 77.526937 294.211538 
L 76.263558 293.034761 
L 76.091279 292.874291 
L 74.827899 291.697515 
L 74.655621 291.537045 
L 73.392241 290.360269 
L 73.219962 290.199799 
L 71.956583 289.023022 
L 71.784304 288.862553 
L 70.520925 287.685776 
L 70.348646 287.525307 
L 69.085266 286.34853 
L 68.912987 286.18806 
L 67.649608 285.011284 
L 67.477329 284.850814 
L 66.21395 283.674037 
L 66.041671 283.513568 
L 64.778291 282.336791 
L 64.606012 282.176322 
L 63.342633 280.999545 
L 63.170354 280.839075 
L 61.906975 279.662299 
L 61.734696 279.501829 
L 60.471317 278.325052 
L 60.299038 278.164583 
L 59.035658 276.987806 
L 58.863379 276.827337 
L 57.6 275.65056 
" style="fill:none;stroke:#001ef0;stroke-width:1.5;"/>
    <path clip-path="url(#p001b0880fd)" d="M 343.296 275.65056 
L 342.032621 276.827337 
L 341.860342 276.987806 
L 340.596962 278.164583 
L 340.424683 278.325052 
L 339.161304 279.501829 
L 338.989025 279.662299 
L 337.725646 280.839075 
L 337.553367 280.999545 
L 336.289988 282.176322 
L 336.117709 282.336791 
L 334.854329 283.513568 
L 334.68205 283.674037 
L 333.418671 284.850814 
L 333.246392 285.011284 
L 331.983013 286.18806 
L 331.810734 286.34853 
L 330.547354 287.525307 
L 330.375075 287.685776 
L 329.111696 288.862553 
L 328.939417 289.023022 
L 327.676038 290.199799 
L 327.503759 290.360269 
L 326.240379 291.537045 
L 326.068101 291.697515 
L 324.804721 292.874291 
L 324.632442 293.034761 
L 323.369063 294.211538 
L 323.196784 294.372007 
L 321.933405 295.548784 
L 321.761126 295.709253 
L 320.497746 296.88603 
L 320.325467 297.0465 
L 319.062088 298.223276 
L 318.889809 298.383746 
L 317.62643 299.560523 
L 317.454151 299.720992 
L 316.190771 300.897769 
L 316.018492 301.058238 
L 314.755113 302.235015 
L 314.582834 302.395485 
L 313.319455 303.572261 
L 313.147176 303.732731 
L 311.883797 304.909508 
L 311.711518 305.069977 
L 310.448138 306.246754 
L 310.275859 306.407223 
L 309.01248 307.584 
" style="fill:none;stroke:#001ef0;stroke-width:1.5;"/>
    <path clip-path="url(#p001b0880fd)" d="M 57.6 73.40544 
L 58.863379 72.228663 
L 59.035658 72.068194 
L 60.299038 70.891417 
L 60.471317 70.730948 
L 61.734696 69.554171 
L 61.906975 69.393701 
L 63.170354 68.216925 
L 63.342633 68.056455 
L 64.606012 66.879678 
L 64.778291 66.719209 
L 66.041671 65.542432 
L 66.21395 65.381963 
L 67.477329 64.205186 
L 67.649608 64.044716 
L 68.912987 62.86794 
L 69.085266 62.70747 
L 70.348646 61.530693 
L 70.520925 61.370224 
L 71.784304 60.193447 
L 71.956583 60.032978 
L 73.219962 58.856201 
L 73.392241 58.695731 
L 74.655621 57.518955 
L 74.827899 57.358485 
L 76.091279 56.181709 
L 76.263558 56.021239 
L 77.526937 54.844462 
L 77.699216 54.683993 
L 78.962595 53.507216 
L 79.134874 53.346747 
L 80.398254 52.16997 
L 80.570533 52.0095 
L 81.833912 50.832724 
L 82.006191 50.672254 
L 83.26957 49.495477 
L 83.441849 49.335008 
L 84.705229 48.158231 
L 84.877508 47.997762 
L 86.140887 46.820985 
L 86.313166 46.660515 
L 87.576545 45.483739 
L 87.748824 45.323269 
L 89.012203 44.146492 
L 89.184482 43.986023 
L 90.447862 42.809246 
L 90.620141 42.648777 
L 91.88352 41.472 
" style="fill:none;stroke:#001ef0;stroke-width:1.5;"/>
    <path clip-path="url(#p001b0880fd)" d="M 309.01248 41.472 
L 310.275859 42.648777 
L 310.448138 42.809246 
L 311.711518 43.986023 
L 311.883797 44.146492 
L 313.147176 45.323269 
L 313.319455 45.483739 
L 314.582834 46.660515 
L 314.755113 46.820985 
L 316.018492 47.997762 
L 316.190771 48.158231 
L 317.454151 49.335008 
L 317.62643 49.495477 
L 318.889809 50.672254 
L 319.062088 50.832724 
L 320.325467 52.0095 
L 320.497746 52.16997 
L 321.761126 53.346747 
L 321.933405 53.507216 
L 323.196784 54.683993 
L 323.369063 54.844462 
L 324.632442 56.021239 
L 324.804721 56.181709 
L 326.068101 57.358485 
L 326.240379 57.518955 
L 327.503759 58.695731 
L 327.676038 58.856201 
L 328.939417 60.032978 
L 329.111696 60.193447 
L 330.375075 61.370224 
L 330.547354 61.530693 
L 331.810734 62.70747 
L 331.983013 62.86794 
L 333.246392 64.044716 
L 333.418671 64.205186 
L 334.68205 65.381963 
L 334.854329 65.542432 
L 336.117709 66.719209 
L 336.289988 66.879678 
L 337.553367 68.056455 
L 337.725646 68.216925 
L 338.989025 69.393701 
L 339.161304 69.554171 
L 340.424683 70.730948 
L 340.596962 70.891417 
L 341.860342 72.068194 
L 342.032621 72.228663 
L 343.296 73.40544 
" style="fill:none;stroke:#001ef0;stroke-width:1.5;"/>
   </g>
   <g id="LineCollection_24">
    <path clip-path="url(#p001b0880fd)" d="M 80.45568 307.584 
L 79.134874 306.353733 
L 79.020022 306.246754 
L 77.699216 305.016487 
L 77.584363 304.909508 
L 76.263558 303.679241 
L 76.148705 303.572261 
L 74.827899 302.341995 
L 74.713047 302.235015 
L 73.392241 301.004749 
L 73.277389 300.897769 
L 71.956583 299.667502 
L 71.84173 299.560523 
L 70.520925 298.330256 
L 70.406072 298.223276 
L 69.085266 296.99301 
L 68.970414 296.88603 
L 67.649608 295.655764 
L 67.534755 295.548784 
L 66.21395 294.318517 
L 66.099097 294.211538 
L 64.778291 292.981271 
L 64.663439 292.874291 
L 63.342633 291.644025 
L 63.227781 291.537045 
L 61.906975 290.306779 
L 61.792122 290.199799 
L 60.471317 288.969532 
L 60.356464 288.862553 
L 59.035658 287.632286 
L 58.920806 287.525307 
L 57.6 286.29504 
" style="fill:none;stroke:#0014f5;stroke-width:1.5;"/>
    <path clip-path="url(#p001b0880fd)" d="M 343.296 286.29504 
L 341.975194 287.525307 
L 341.860342 287.632286 
L 340.539536 288.862553 
L 340.424683 288.969532 
L 339.103878 290.199799 
L 338.989025 290.306779 
L 337.668219 291.537045 
L 337.553367 291.644025 
L 336.232561 292.874291 
L 336.117709 292.981271 
L 334.796903 294.211538 
L 334.68205 294.318517 
L 333.361245 295.548784 
L 333.246392 295.655764 
L 331.925586 296.88603 
L 331.810734 296.99301 
L 330.489928 298.223276 
L 330.375075 298.330256 
L 329.05427 299.560523 
L 328.939417 299.667502 
L 327.618611 300.897769 
L 327.503759 301.004749 
L 326.182953 302.235015 
L 326.068101 302.341995 
L 324.747295 303.572261 
L 324.632442 303.679241 
L 323.311637 304.909508 
L 323.196784 305.016487 
L 321.875978 306.246754 
L 321.761126 306.353733 
L 320.44032 307.584 
" style="fill:none;stroke:#0014f5;stroke-width:1.5;"/>
    <path clip-path="url(#p001b0880fd)" d="M 57.6 62.76096 
L 58.920806 61.530693 
L 59.035658 61.423714 
L 60.356464 60.193447 
L 60.471317 60.086468 
L 61.792122 58.856201 
L 61.906975 58.749221 
L 63.227781 57.518955 
L 63.342633 57.411975 
L 64.663439 56.181709 
L 64.778291 56.074729 
L 66.099097 54.844462 
L 66.21395 54.737483 
L 67.534755 53.507216 
L 67.649608 53.400236 
L 68.970414 52.16997 
L 69.085266 52.06299 
L 70.406072 50.832724 
L 70.520925 50.725744 
L 71.84173 49.495477 
L 71.956583 49.388498 
L 73.277389 48.158231 
L 73.392241 48.051251 
L 74.713047 46.820985 
L 74.827899 46.714005 
L 76.148705 45.483739 
L 76.263558 45.376759 
L 77.584363 44.146492 
L 77.699216 44.039513 
L 79.020022 42.809246 
L 79.134874 42.702267 
L 80.45568 41.472 
" style="fill:none;stroke:#0014f5;stroke-width:1.5;"/>
    <path clip-path="url(#p001b0880fd)" d="M 320.44032 41.472 
L 321.761126 42.702267 
L 321.875978 42.809246 
L 323.196784 44.039513 
L 323.311637 44.146492 
L 324.632442 45.376759 
L 324.747295 45.483739 
L 326.068101 46.714005 
L 326.182953 46.820985 
L 327.503759 48.051251 
L 327.618611 48.158231 
L 328.939417 49.388498 
L 329.05427 49.495477 
L 330.375075 50.725744 
L 330.489928 50.832724 
L 331.810734 52.06299 
L 331.925586 52.16997 
L 333.246392 53.400236 
L 333.361245 53.507216 
L 334.68205 54.737483 
L 334.796903 54.844462 
L 336.117709 56.074729 
L 336.232561 56.181709 
L 337.553367 57.411975 
L 337.668219 57.518955 
L 338.989025 58.749221 
L 339.103878 58.856201 
L 340.424683 60.086468 
L 340.539536 60.193447 
L 341.860342 61.423714 
L 341.975194 61.530693 
L 343.296 62.76096 
" style="fill:none;stroke:#0014f5;stroke-width:1.5;"/>
   </g>
   <g id="LineCollection_25">
    <path clip-path="url(#p001b0880fd)" d="M 69.02784 307.584 
L 67.649608 306.300244 
L 67.592182 306.246754 
L 66.21395 304.962997 
L 66.156523 304.909508 
L 64.778291 303.625751 
L 64.720865 303.572261 
L 63.342633 302.288505 
L 63.285207 302.235015 
L 61.906975 300.951259 
L 61.849549 300.897769 
L 60.471317 299.614012 
L 60.41389 299.560523 
L 59.035658 298.276766 
L 58.978232 298.223276 
L 57.6 296.93952 
" style="fill:none;stroke:#000afa;stroke-width:1.5;"/>
    <path clip-path="url(#p001b0880fd)" d="M 343.296 296.93952 
L 341.917768 298.223276 
L 341.860342 298.276766 
L 340.48211 299.560523 
L 340.424683 299.614012 
L 339.046451 300.897769 
L 338.989025 300.951259 
L 337.610793 302.235015 
L 337.553367 302.288505 
L 336.175135 303.572261 
L 336.117709 303.625751 
L 334.739477 304.909508 
L 334.68205 304.962997 
L 333.303818 306.246754 
L 333.246392 306.300244 
L 331.86816 307.584 
" style="fill:none;stroke:#000afa;stroke-width:1.5;"/>
    <path clip-path="url(#p001b0880fd)" d="M 57.6 52.11648 
L 58.978232 50.832724 
L 59.035658 50.779234 
L 60.41389 49.495477 
L 60.471317 49.441988 
L 61.849549 48.158231 
L 61.906975 48.104741 
L 63.285207 46.820985 
L 63.342633 46.767495 
L 64.720865 45.483739 
L 64.778291 45.430249 
L 66.156523 44.146492 
L 66.21395 44.093003 
L 67.592182 42.809246 
L 67.649608 42.755756 
L 69.02784 41.472 
" style="fill:none;stroke:#000afa;stroke-width:1.5;"/>
    <path clip-path="url(#p001b0880fd)" d="M 331.86816 41.472 
L 333.246392 42.755756 
L 333.303818 42.809246 
L 334.68205 44.093003 
L 334.739477 44.146492 
L 336.117709 45.430249 
L 336.175135 45.483739 
L 337.553367 46.767495 
L 337.610793 46.820985 
L 338.989025 48.104741 
L 339.046451 48.158231 
L 340.424683 49.441988 
L 340.48211 49.495477 
L 341.860342 50.779234 
L 341.917768 50.832724 
L 343.296 52.11648 
" style="fill:none;stroke:#000afa;stroke-width:1.5;"/>
   </g>
   <g id="LineCollection_26"/>
   <g id="patch_3">
    <path d="M 57.6 307.584 
L 57.6 41.472 
" style="fill:none;stroke:#000000;stroke-linecap:square;stroke-linejoin:miter;stroke-width:0.8;"/>
   </g>
   <g id="patch_4">
    <path d="M 343.296 307.584 
L 343.296 41.472 
" style="fill:none;stroke:#000000;stroke-linecap:square;stroke-linejoin:miter;stroke-width:0.8;"/>
   </g>
   <g id="patch_5">
    <path d="M 57.6 307.584 
L 343.296 307.584 
" style="fill:none;stroke:#000000;stroke-linecap:square;stroke-linejoin:miter;stroke-width:0.8;"/>
   </g>
   <g id="patch_6">
    <path d="M 57.6 41.472 
L 343.296 41.472 
" style="fill:none;stroke:#000000;stroke-linecap:square;stroke-linejoin:miter;stroke-width:0.8;"/>
   </g>
  </g>
  <g id="axes_2">
   <g id="patch_7">
    <path clip-path="url(#pec03f9b052)" d="M 361.152 307.584 
L 361.152 296.93952 
L 361.152 52.11648 
L 361.152 41.472 
L 374.4576 41.472 
L 374.4576 52.11648 
L 374.4576 296.93952 
L 374.4576 307.584 
z
" style="fill:#ffffff;stroke:#ffffff;stroke-linejoin:miter;stroke-width:0.01;"/>
   </g>
   <g id="matplotlib.axis_3"/>
   <g id="matplotlib.axis_4">
    <g id="ytick_10">
     <g id="line2d_19">
      <defs>
       <path d="M 0 0 
L 3.5 0 
" id="mddec3fd0ea" style="stroke:#000000;stroke-width:0.8;"/>
      </defs>
      <g>
       <use style="stroke:#000000;stroke-width:0.8;" x="374.4576" xlink:href="#mddec3fd0ea" y="307.584"/>
      </g>
     </g>
     <g id="text_19">
      <!-- 0.0 -->
      <g transform="translate(381.4576 311.383219)scale(0.1 -0.1)">
       <use xlink:href="#DejaVuSans-48"/>
       <use x="63.623047" xlink:href="#DejaVuSans-46"/>
       <use x="95.410156" xlink:href="#DejaVuSans-48"/>
      </g>
     </g>
    </g>
    <g id="ytick_11">
     <g id="line2d_20">
      <g>
       <use style="stroke:#000000;stroke-width:0.8;" x="374.4576" xlink:href="#mddec3fd0ea" y="275.65056"/>
      </g>
     </g>
     <g id="text_20">
      <!-- 2.4 -->
      <defs>
       <path d="M 37.796875 64.3125 
L 12.890625 25.390625 
L 37.796875 25.390625 
z
M 35.203125 72.90625 
L 47.609375 72.90625 
L 47.609375 25.390625 
L 58.015625 25.390625 
L 58.015625 17.1875 
L 47.609375 17.1875 
L 47.609375 0 
L 37.796875 0 
L 37.796875 17.1875 
L 4.890625 17.1875 
L 4.890625 26.703125 
z
" id="DejaVuSans-52"/>
      </defs>
      <g transform="translate(381.4576 279.449779)scale(0.1 -0.1)">
       <use xlink:href="#DejaVuSans-50"/>
       <use x="63.623047" xlink:href="#DejaVuSans-46"/>
       <use x="95.410156" xlink:href="#DejaVuSans-52"/>
      </g>
     </g>
    </g>
    <g id="ytick_12">
     <g id="line2d_21">
      <g>
       <use style="stroke:#000000;stroke-width:0.8;" x="374.4576" xlink:href="#mddec3fd0ea" y="243.71712"/>
      </g>
     </g>
     <g id="text_21">
      <!-- 4.8 -->
      <defs>
       <path d="M 31.78125 34.625 
Q 24.75 34.625 20.71875 30.859375 
Q 16.703125 27.09375 16.703125 20.515625 
Q 16.703125 13.921875 20.71875 10.15625 
Q 24.75 6.390625 31.78125 6.390625 
Q 38.8125 6.390625 42.859375 10.171875 
Q 46.921875 13.96875 46.921875 20.515625 
Q 46.921875 27.09375 42.890625 30.859375 
Q 38.875 34.625 31.78125 34.625 
z
M 21.921875 38.8125 
Q 15.578125 40.375 12.03125 44.71875 
Q 8.5 49.078125 8.5 55.328125 
Q 8.5 64.0625 14.71875 69.140625 
Q 20.953125 74.21875 31.78125 74.21875 
Q 42.671875 74.21875 48.875 69.140625 
Q 55.078125 64.0625 55.078125 55.328125 
Q 55.078125 49.078125 51.53125 44.71875 
Q 48 40.375 41.703125 38.8125 
Q 48.828125 37.15625 52.796875 32.3125 
Q 56.78125 27.484375 56.78125 20.515625 
Q 56.78125 9.90625 50.3125 4.234375 
Q 43.84375 -1.421875 31.78125 -1.421875 
Q 19.734375 -1.421875 13.25 4.234375 
Q 6.78125 9.90625 6.78125 20.515625 
Q 6.78125 27.484375 10.78125 32.3125 
Q 14.796875 37.15625 21.921875 38.8125 
z
M 18.3125 54.390625 
Q 18.3125 48.734375 21.84375 45.5625 
Q 25.390625 42.390625 31.78125 42.390625 
Q 38.140625 42.390625 41.71875 45.5625 
Q 45.3125 48.734375 45.3125 54.390625 
Q 45.3125 60.0625 41.71875 63.234375 
Q 38.140625 66.40625 31.78125 66.40625 
Q 25.390625 66.40625 21.84375 63.234375 
Q 18.3125 60.0625 18.3125 54.390625 
z
" id="DejaVuSans-56"/>
      </defs>
      <g transform="translate(381.4576 247.516339)scale(0.1 -0.1)">
       <use xlink:href="#DejaVuSans-52"/>
       <use x="63.623047" xlink:href="#DejaVuSans-46"/>
       <use x="95.410156" xlink:href="#DejaVuSans-56"/>
      </g>
     </g>
    </g>
    <g id="ytick_13">
     <g id="line2d_22">
      <g>
       <use style="stroke:#000000;stroke-width:0.8;" x="374.4576" xlink:href="#mddec3fd0ea" y="211.78368"/>
      </g>
     </g>
     <g id="text_22">
      <!-- 7.2 -->
      <g transform="translate(381.4576 215.582899)scale(0.1 -0.1)">
       <use xlink:href="#DejaVuSans-55"/>
       <use x="63.623047" xlink:href="#DejaVuSans-46"/>
       <use x="95.410156" xlink:href="#DejaVuSans-50"/>
      </g>
     </g>
    </g>
    <g id="ytick_14">
     <g id="line2d_23">
      <g>
       <use style="stroke:#000000;stroke-width:0.8;" x="374.4576" xlink:href="#mddec3fd0ea" y="179.85024"/>
      </g>
     </g>
     <g id="text_23">
      <!-- 9.6 -->
      <defs>
       <path d="M 10.984375 1.515625 
L 10.984375 10.5 
Q 14.703125 8.734375 18.5 7.8125 
Q 22.3125 6.890625 25.984375 6.890625 
Q 35.75 6.890625 40.890625 13.453125 
Q 46.046875 20.015625 46.78125 33.40625 
Q 43.953125 29.203125 39.59375 26.953125 
Q 35.25 24.703125 29.984375 24.703125 
Q 19.046875 24.703125 12.671875 31.3125 
Q 6.296875 37.9375 6.296875 49.421875 
Q 6.296875 60.640625 12.9375 67.421875 
Q 19.578125 74.21875 30.609375 74.21875 
Q 43.265625 74.21875 49.921875 64.515625 
Q 56.59375 54.828125 56.59375 36.375 
Q 56.59375 19.140625 48.40625 8.859375 
Q 40.234375 -1.421875 26.421875 -1.421875 
Q 22.703125 -1.421875 18.890625 -0.6875 
Q 15.09375 0.046875 10.984375 1.515625 
z
M 30.609375 32.421875 
Q 37.25 32.421875 41.125 36.953125 
Q 45.015625 41.5 45.015625 49.421875 
Q 45.015625 57.28125 41.125 61.84375 
Q 37.25 66.40625 30.609375 66.40625 
Q 23.96875 66.40625 20.09375 61.84375 
Q 16.21875 57.28125 16.21875 49.421875 
Q 16.21875 41.5 20.09375 36.953125 
Q 23.96875 32.421875 30.609375 32.421875 
z
" id="DejaVuSans-57"/>
       <path d="M 33.015625 40.375 
Q 26.375 40.375 22.484375 35.828125 
Q 18.609375 31.296875 18.609375 23.390625 
Q 18.609375 15.53125 22.484375 10.953125 
Q 26.375 6.390625 33.015625 6.390625 
Q 39.65625 6.390625 43.53125 10.953125 
Q 47.40625 15.53125 47.40625 23.390625 
Q 47.40625 31.296875 43.53125 35.828125 
Q 39.65625 40.375 33.015625 40.375 
z
M 52.59375 71.296875 
L 52.59375 62.3125 
Q 48.875 64.0625 45.09375 64.984375 
Q 41.3125 65.921875 37.59375 65.921875 
Q 27.828125 65.921875 22.671875 59.328125 
Q 17.53125 52.734375 16.796875 39.40625 
Q 19.671875 43.65625 24.015625 45.921875 
Q 28.375 48.1875 33.59375 48.1875 
Q 44.578125 48.1875 50.953125 41.515625 
Q 57.328125 34.859375 57.328125 23.390625 
Q 57.328125 12.15625 50.6875 5.359375 
Q 44.046875 -1.421875 33.015625 -1.421875 
Q 20.359375 -1.421875 13.671875 8.265625 
Q 6.984375 17.96875 6.984375 36.375 
Q 6.984375 53.65625 15.1875 63.9375 
Q 23.390625 74.21875 37.203125 74.21875 
Q 40.921875 74.21875 44.703125 73.484375 
Q 48.484375 72.75 52.59375 71.296875 
z
" id="DejaVuSans-54"/>
      </defs>
      <g transform="translate(381.4576 183.649459)scale(0.1 -0.1)">
       <use xlink:href="#DejaVuSans-57"/>
       <use x="63.623047" xlink:href="#DejaVuSans-46"/>
       <use x="95.410156" xlink:href="#DejaVuSans-54"/>
      </g>
     </g>
    </g>
    <g id="ytick_15">
     <g id="line2d_24">
      <g>
       <use style="stroke:#000000;stroke-width:0.8;" x="374.4576" xlink:href="#mddec3fd0ea" y="147.9168"/>
      </g>
     </g>
     <g id="text_24">
      <!-- 12.0 -->
      <g transform="translate(381.4576 151.716019)scale(0.1 -0.1)">
       <use xlink:href="#DejaVuSans-49"/>
       <use x="63.623047" xlink:href="#DejaVuSans-50"/>
       <use x="127.246094" xlink:href="#DejaVuSans-46"/>
       <use x="159.033203" xlink:href="#DejaVuSans-48"/>
      </g>
     </g>
    </g>
    <g id="ytick_16">
     <g id="line2d_25">
      <g>
       <use style="stroke:#000000;stroke-width:0.8;" x="374.4576" xlink:href="#mddec3fd0ea" y="115.98336"/>
      </g>
     </g>
     <g id="text_25">
      <!-- 14.4 -->
      <g transform="translate(381.4576 119.782579)scale(0.1 -0.1)">
       <use xlink:href="#DejaVuSans-49"/>
       <use x="63.623047" xlink:href="#DejaVuSans-52"/>
       <use x="127.246094" xlink:href="#DejaVuSans-46"/>
       <use x="159.033203" xlink:href="#DejaVuSans-52"/>
      </g>
     </g>
    </g>
    <g id="ytick_17">
     <g id="line2d_26">
      <g>
       <use style="stroke:#000000;stroke-width:0.8;" x="374.4576" xlink:href="#mddec3fd0ea" y="84.04992"/>
      </g>
     </g>
     <g id="text_26">
      <!-- 16.8 -->
      <g transform="translate(381.4576 87.849139)scale(0.1 -0.1)">
       <use xlink:href="#DejaVuSans-49"/>
       <use x="63.623047" xlink:href="#DejaVuSans-54"/>
       <use x="127.246094" xlink:href="#DejaVuSans-46"/>
       <use x="159.033203" xlink:href="#DejaVuSans-56"/>
      </g>
     </g>
    </g>
    <g id="ytick_18">
     <g id="line2d_27">
      <g>
       <use style="stroke:#000000;stroke-width:0.8;" x="374.4576" xlink:href="#mddec3fd0ea" y="52.11648"/>
      </g>
     </g>
     <g id="text_27">
      <!-- 19.2 -->
      <g transform="translate(381.4576 55.915699)scale(0.1 -0.1)">
       <use xlink:href="#DejaVuSans-49"/>
       <use x="63.623047" xlink:href="#DejaVuSans-57"/>
       <use x="127.246094" xlink:href="#DejaVuSans-46"/>
       <use x="159.033203" xlink:href="#DejaVuSans-50"/>
      </g>
     </g>
    </g>
   </g>
   <g id="LineCollection_27">
    <path clip-path="url(#pec03f9b052)" d="M 361.152 307.584 
L 374.4576 307.584 
" style="fill:none;stroke:#00ff80;stroke-width:1.5;"/>
    <path clip-path="url(#pec03f9b052)" d="M 361.152 296.93952 
L 374.4576 296.93952 
" style="fill:none;stroke:#00f584;stroke-width:1.5;"/>
    <path clip-path="url(#pec03f9b052)" d="M 361.152 286.29504 
L 374.4576 286.29504 
" style="fill:none;stroke:#00eb8a;stroke-width:1.5;"/>
    <path clip-path="url(#pec03f9b052)" d="M 361.152 275.65056 
L 374.4576 275.65056 
" style="fill:none;stroke:#00e18e;stroke-width:1.5;"/>
    <path clip-path="url(#pec03f9b052)" d="M 361.152 265.00608 
L 374.4576 265.00608 
" style="fill:none;stroke:#00d793;stroke-width:1.5;"/>
    <path clip-path="url(#pec03f9b052)" d="M 361.152 254.3616 
L 374.4576 254.3616 
" style="fill:none;stroke:#00cc99;stroke-width:1.5;"/>
    <path clip-path="url(#pec03f9b052)" d="M 361.152 243.71712 
L 374.4576 243.71712 
" style="fill:none;stroke:#00c29e;stroke-width:1.5;"/>
    <path clip-path="url(#pec03f9b052)" d="M 361.152 233.07264 
L 374.4576 233.07264 
" style="fill:none;stroke:#00b8a3;stroke-width:1.5;"/>
    <path clip-path="url(#pec03f9b052)" d="M 361.152 222.42816 
L 374.4576 222.42816 
" style="fill:none;stroke:#00aea8;stroke-width:1.5;"/>
    <path clip-path="url(#pec03f9b052)" d="M 361.152 211.78368 
L 374.4576 211.78368 
" style="fill:none;stroke:#00a3ae;stroke-width:1.5;"/>
    <path clip-path="url(#pec03f9b052)" d="M 361.152 201.1392 
L 374.4576 201.1392 
" style="fill:none;stroke:#0099b2;stroke-width:1.5;"/>
    <path clip-path="url(#pec03f9b052)" d="M 361.152 190.49472 
L 374.4576 190.49472 
" style="fill:none;stroke:#008fb8;stroke-width:1.5;"/>
    <path clip-path="url(#pec03f9b052)" d="M 361.152 179.85024 
L 374.4576 179.85024 
" style="fill:none;stroke:#0085bc;stroke-width:1.5;"/>
    <path clip-path="url(#pec03f9b052)" d="M 361.152 169.20576 
L 374.4576 169.20576 
" style="fill:none;stroke:#007ac2;stroke-width:1.5;"/>
    <path clip-path="url(#pec03f9b052)" d="M 361.152 158.56128 
L 374.4576 158.56128 
" style="fill:none;stroke:#0070c7;stroke-width:1.5;"/>
    <path clip-path="url(#pec03f9b052)" d="M 361.152 147.9168 
L 374.4576 147.9168 
" style="fill:none;stroke:#0066cc;stroke-width:1.5;"/>
    <path clip-path="url(#pec03f9b052)" d="M 361.152 137.27232 
L 374.4576 137.27232 
" style="fill:none;stroke:#005cd1;stroke-width:1.5;"/>
    <path clip-path="url(#pec03f9b052)" d="M 361.152 126.62784 
L 374.4576 126.62784 
" style="fill:none;stroke:#0051d6;stroke-width:1.5;"/>
    <path clip-path="url(#pec03f9b052)" d="M 361.152 115.98336 
L 374.4576 115.98336 
" style="fill:none;stroke:#0047dc;stroke-width:1.5;"/>
    <path clip-path="url(#pec03f9b052)" d="M 361.152 105.33888 
L 374.4576 105.33888 
" style="fill:none;stroke:#003de0;stroke-width:1.5;"/>
    <path clip-path="url(#pec03f9b052)" d="M 361.152 94.6944 
L 374.4576 94.6944 
" style="fill:none;stroke:#0033e6;stroke-width:1.5;"/>
    <path clip-path="url(#pec03f9b052)" d="M 361.152 84.04992 
L 374.4576 84.04992 
" style="fill:none;stroke:#0028eb;stroke-width:1.5;"/>
    <path clip-path="url(#pec03f9b052)" d="M 361.152 73.40544 
L 374.4576 73.40544 
" style="fill:none;stroke:#001ef0;stroke-width:1.5;"/>
    <path clip-path="url(#pec03f9b052)" d="M 361.152 62.76096 
L 374.4576 62.76096 
" style="fill:none;stroke:#0014f5;stroke-width:1.5;"/>
    <path clip-path="url(#pec03f9b052)" d="M 361.152 52.11648 
L 374.4576 52.11648 
" style="fill:none;stroke:#000afa;stroke-width:1.5;"/>
    <path clip-path="url(#pec03f9b052)" d="M 361.152 41.472 
L 374.4576 41.472 
" style="fill:none;stroke:#0000ff;stroke-width:1.5;"/>
   </g>
   <g id="patch_8">
    <path d="M 361.152 307.584 
L 361.152 296.93952 
L 361.152 52.11648 
L 361.152 41.472 
L 374.4576 41.472 
L 374.4576 52.11648 
L 374.4576 296.93952 
L 374.4576 307.584 
z
" style="fill:none;stroke:#000000;stroke-linejoin:miter;stroke-width:0.8;"/>
   </g>
  </g>
 </g>
 <defs>
  <clipPath id="p001b0880fd">
   <rect height="266.112" width="285.696" x="57.6" y="41.472"/>
  </clipPath>
  <clipPath id="pec03f9b052">
   <rect height="266.112" width="13.3056" x="361.152" y="41.472"/>
  </clipPath>
 </defs>
</svg>
