<?xml version="1.0" encoding="utf-8" standalone="no"?>
<!DOCTYPE svg PUBLIC "-//W3C//DTD SVG 1.1//EN"
  "http://www.w3.org/Graphics/SVG/1.1/DTD/svg11.dtd">
<!-- Created with matplotlib (https://matplotlib.org/) -->
<svg height="345.6pt" version="1.1" viewBox="0 0 460.8 345.6" width="460.8pt" xmlns="http://www.w3.org/2000/svg" xmlns:xlink="http://www.w3.org/1999/xlink">
 <defs>
  <style type="text/css">
*{stroke-linecap:butt;stroke-linejoin:round;}
  </style>
 </defs>
 <g id="figure_1">
  <g id="patch_1">
   <path d="M 0 345.6 
L 460.8 345.6 
L 460.8 0 
L 0 0 
z
" style="fill:#ffffff;"/>
  </g>
  <g id="axes_1">
   <g id="patch_2">
    <path d="M 57.6 307.584 
L 343.296 307.584 
L 343.296 41.472 
L 57.6 41.472 
z
" style="fill:#ffffff;"/>
   </g>
   <g id="matplotlib.axis_1">
    <g id="xtick_1">
     <g id="line2d_1">
      <defs>
       <path d="M 0 0 
L 0 3.5 
" id="mfb712503fb" style="stroke:#000000;stroke-width:0.8;"/>
      </defs>
      <g>
       <use style="stroke:#000000;stroke-width:0.8;" x="57.6" xlink:href="#mfb712503fb" y="307.584"/>
      </g>
     </g>
     <g id="text_1">
      <!-- −10.0 -->
      <defs>
       <path d="M 10.59375 35.5 
L 73.1875 35.5 
L 73.1875 27.203125 
L 10.59375 27.203125 
z
" id="DejaVuSans-8722"/>
       <path d="M 12.40625 8.296875 
L 28.515625 8.296875 
L 28.515625 63.921875 
L 10.984375 60.40625 
L 10.984375 69.390625 
L 28.421875 72.90625 
L 38.28125 72.90625 
L 38.28125 8.296875 
L 54.390625 8.296875 
L 54.390625 0 
L 12.40625 0 
z
" id="DejaVuSans-49"/>
       <path d="M 31.78125 66.40625 
Q 24.171875 66.40625 20.328125 58.90625 
Q 16.5 51.421875 16.5 36.375 
Q 16.5 21.390625 20.328125 13.890625 
Q 24.171875 6.390625 31.78125 6.390625 
Q 39.453125 6.390625 43.28125 13.890625 
Q 47.125 21.390625 47.125 36.375 
Q 47.125 51.421875 43.28125 58.90625 
Q 39.453125 66.40625 31.78125 66.40625 
z
M 31.78125 74.21875 
Q 44.046875 74.21875 50.515625 64.515625 
Q 56.984375 54.828125 56.984375 36.375 
Q 56.984375 17.96875 50.515625 8.265625 
Q 44.046875 -1.421875 31.78125 -1.421875 
Q 19.53125 -1.421875 13.0625 8.265625 
Q 6.59375 17.96875 6.59375 36.375 
Q 6.59375 54.828125 13.0625 64.515625 
Q 19.53125 74.21875 31.78125 74.21875 
z
" id="DejaVuSans-48"/>
       <path d="M 10.6875 12.40625 
L 21 12.40625 
L 21 0 
L 10.6875 0 
z
" id="DejaVuSans-46"/>
      </defs>
      <g transform="translate(42.277344 322.182437)scale(0.1 -0.1)">
       <use xlink:href="#DejaVuSans-8722"/>
       <use x="83.789062" xlink:href="#DejaVuSans-49"/>
       <use x="147.412109" xlink:href="#DejaVuSans-48"/>
       <use x="211.035156" xlink:href="#DejaVuSans-46"/>
       <use x="242.822266" xlink:href="#DejaVuSans-48"/>
      </g>
     </g>
    </g>
    <g id="xtick_2">
     <g id="line2d_2">
      <g>
       <use style="stroke:#000000;stroke-width:0.8;" x="93.312" xlink:href="#mfb712503fb" y="307.584"/>
      </g>
     </g>
     <g id="text_2">
      <!-- −7.5 -->
      <defs>
       <path d="M 8.203125 72.90625 
L 55.078125 72.90625 
L 55.078125 68.703125 
L 28.609375 0 
L 18.3125 0 
L 43.21875 64.59375 
L 8.203125 64.59375 
z
" id="DejaVuSans-55"/>
       <path d="M 10.796875 72.90625 
L 49.515625 72.90625 
L 49.515625 64.59375 
L 19.828125 64.59375 
L 19.828125 46.734375 
Q 21.96875 47.46875 24.109375 47.828125 
Q 26.265625 48.1875 28.421875 48.1875 
Q 40.625 48.1875 47.75 41.5 
Q 54.890625 34.8125 54.890625 23.390625 
Q 54.890625 11.625 47.5625 5.09375 
Q 40.234375 -1.421875 26.90625 -1.421875 
Q 22.3125 -1.421875 17.546875 -0.640625 
Q 12.796875 0.140625 7.71875 1.703125 
L 7.71875 11.625 
Q 12.109375 9.234375 16.796875 8.0625 
Q 21.484375 6.890625 26.703125 6.890625 
Q 35.15625 6.890625 40.078125 11.328125 
Q 45.015625 15.765625 45.015625 23.390625 
Q 45.015625 31 40.078125 35.4375 
Q 35.15625 39.890625 26.703125 39.890625 
Q 22.75 39.890625 18.8125 39.015625 
Q 14.890625 38.140625 10.796875 36.28125 
z
" id="DejaVuSans-53"/>
      </defs>
      <g transform="translate(81.170594 322.182437)scale(0.1 -0.1)">
       <use xlink:href="#DejaVuSans-8722"/>
       <use x="83.789062" xlink:href="#DejaVuSans-55"/>
       <use x="147.412109" xlink:href="#DejaVuSans-46"/>
       <use x="179.199219" xlink:href="#DejaVuSans-53"/>
      </g>
     </g>
    </g>
    <g id="xtick_3">
     <g id="line2d_3">
      <g>
       <use style="stroke:#000000;stroke-width:0.8;" x="129.024" xlink:href="#mfb712503fb" y="307.584"/>
      </g>
     </g>
     <g id="text_3">
      <!-- −5.0 -->
      <g transform="translate(116.882594 322.182437)scale(0.1 -0.1)">
       <use xlink:href="#DejaVuSans-8722"/>
       <use x="83.789062" xlink:href="#DejaVuSans-53"/>
       <use x="147.412109" xlink:href="#DejaVuSans-46"/>
       <use x="179.199219" xlink:href="#DejaVuSans-48"/>
      </g>
     </g>
    </g>
    <g id="xtick_4">
     <g id="line2d_4">
      <g>
       <use style="stroke:#000000;stroke-width:0.8;" x="164.736" xlink:href="#mfb712503fb" y="307.584"/>
      </g>
     </g>
     <g id="text_4">
      <!-- −2.5 -->
      <defs>
       <path d="M 19.1875 8.296875 
L 53.609375 8.296875 
L 53.609375 0 
L 7.328125 0 
L 7.328125 8.296875 
Q 12.9375 14.109375 22.625 23.890625 
Q 32.328125 33.6875 34.8125 36.53125 
Q 39.546875 41.84375 41.421875 45.53125 
Q 43.3125 49.21875 43.3125 52.78125 
Q 43.3125 58.59375 39.234375 62.25 
Q 35.15625 65.921875 28.609375 65.921875 
Q 23.96875 65.921875 18.8125 64.3125 
Q 13.671875 62.703125 7.8125 59.421875 
L 7.8125 69.390625 
Q 13.765625 71.78125 18.9375 73 
Q 24.125 74.21875 28.421875 74.21875 
Q 39.75 74.21875 46.484375 68.546875 
Q 53.21875 62.890625 53.21875 53.421875 
Q 53.21875 48.921875 51.53125 44.890625 
Q 49.859375 40.875 45.40625 35.40625 
Q 44.1875 33.984375 37.640625 27.21875 
Q 31.109375 20.453125 19.1875 8.296875 
z
" id="DejaVuSans-50"/>
      </defs>
      <g transform="translate(152.594594 322.182437)scale(0.1 -0.1)">
       <use xlink:href="#DejaVuSans-8722"/>
       <use x="83.789062" xlink:href="#DejaVuSans-50"/>
       <use x="147.412109" xlink:href="#DejaVuSans-46"/>
       <use x="179.199219" xlink:href="#DejaVuSans-53"/>
      </g>
     </g>
    </g>
    <g id="xtick_5">
     <g id="line2d_5">
      <g>
       <use style="stroke:#000000;stroke-width:0.8;" x="200.448" xlink:href="#mfb712503fb" y="307.584"/>
      </g>
     </g>
     <g id="text_5">
      <!-- 0.0 -->
      <g transform="translate(192.496438 322.182437)scale(0.1 -0.1)">
       <use xlink:href="#DejaVuSans-48"/>
       <use x="63.623047" xlink:href="#DejaVuSans-46"/>
       <use x="95.410156" xlink:href="#DejaVuSans-48"/>
      </g>
     </g>
    </g>
    <g id="xtick_6">
     <g id="line2d_6">
      <g>
       <use style="stroke:#000000;stroke-width:0.8;" x="236.16" xlink:href="#mfb712503fb" y="307.584"/>
      </g>
     </g>
     <g id="text_6">
      <!-- 2.5 -->
      <g transform="translate(228.208438 322.182437)scale(0.1 -0.1)">
       <use xlink:href="#DejaVuSans-50"/>
       <use x="63.623047" xlink:href="#DejaVuSans-46"/>
       <use x="95.410156" xlink:href="#DejaVuSans-53"/>
      </g>
     </g>
    </g>
    <g id="xtick_7">
     <g id="line2d_7">
      <g>
       <use style="stroke:#000000;stroke-width:0.8;" x="271.872" xlink:href="#mfb712503fb" y="307.584"/>
      </g>
     </g>
     <g id="text_7">
      <!-- 5.0 -->
      <g transform="translate(263.920437 322.182437)scale(0.1 -0.1)">
       <use xlink:href="#DejaVuSans-53"/>
       <use x="63.623047" xlink:href="#DejaVuSans-46"/>
       <use x="95.410156" xlink:href="#DejaVuSans-48"/>
      </g>
     </g>
    </g>
    <g id="xtick_8">
     <g id="line2d_8">
      <g>
       <use style="stroke:#000000;stroke-width:0.8;" x="307.584" xlink:href="#mfb712503fb" y="307.584"/>
      </g>
     </g>
     <g id="text_8">
      <!-- 7.5 -->
      <g transform="translate(299.632438 322.182437)scale(0.1 -0.1)">
       <use xlink:href="#DejaVuSans-55"/>
       <use x="63.623047" xlink:href="#DejaVuSans-46"/>
       <use x="95.410156" xlink:href="#DejaVuSans-53"/>
      </g>
     </g>
    </g>
    <g id="xtick_9">
     <g id="line2d_9">
      <g>
       <use style="stroke:#000000;stroke-width:0.8;" x="343.296" xlink:href="#mfb712503fb" y="307.584"/>
      </g>
     </g>
     <g id="text_9">
      <!-- 10.0 -->
      <g transform="translate(332.163188 322.182437)scale(0.1 -0.1)">
       <use xlink:href="#DejaVuSans-49"/>
       <use x="63.623047" xlink:href="#DejaVuSans-48"/>
       <use x="127.246094" xlink:href="#DejaVuSans-46"/>
       <use x="159.033203" xlink:href="#DejaVuSans-48"/>
      </g>
     </g>
    </g>
   </g>
   <g id="matplotlib.axis_2">
    <g id="ytick_1">
     <g id="line2d_10">
      <defs>
       <path d="M 0 0 
L -3.5 0 
" id="m28cb8cbec0" style="stroke:#000000;stroke-width:0.8;"/>
      </defs>
      <g>
       <use style="stroke:#000000;stroke-width:0.8;" x="57.6" xlink:href="#m28cb8cbec0" y="307.584"/>
      </g>
     </g>
     <g id="text_10">
      <!-- −10.0 -->
      <g transform="translate(19.954687 311.383219)scale(0.1 -0.1)">
       <use xlink:href="#DejaVuSans-8722"/>
       <use x="83.789062" xlink:href="#DejaVuSans-49"/>
       <use x="147.412109" xlink:href="#DejaVuSans-48"/>
       <use x="211.035156" xlink:href="#DejaVuSans-46"/>
       <use x="242.822266" xlink:href="#DejaVuSans-48"/>
      </g>
     </g>
    </g>
    <g id="ytick_2">
     <g id="line2d_11">
      <g>
       <use style="stroke:#000000;stroke-width:0.8;" x="57.6" xlink:href="#m28cb8cbec0" y="274.32"/>
      </g>
     </g>
     <g id="text_11">
      <!-- −7.5 -->
      <g transform="translate(26.317187 278.119219)scale(0.1 -0.1)">
       <use xlink:href="#DejaVuSans-8722"/>
       <use x="83.789062" xlink:href="#DejaVuSans-55"/>
       <use x="147.412109" xlink:href="#DejaVuSans-46"/>
       <use x="179.199219" xlink:href="#DejaVuSans-53"/>
      </g>
     </g>
    </g>
    <g id="ytick_3">
     <g id="line2d_12">
      <g>
       <use style="stroke:#000000;stroke-width:0.8;" x="57.6" xlink:href="#m28cb8cbec0" y="241.056"/>
      </g>
     </g>
     <g id="text_12">
      <!-- −5.0 -->
      <g transform="translate(26.317187 244.855219)scale(0.1 -0.1)">
       <use xlink:href="#DejaVuSans-8722"/>
       <use x="83.789062" xlink:href="#DejaVuSans-53"/>
       <use x="147.412109" xlink:href="#DejaVuSans-46"/>
       <use x="179.199219" xlink:href="#DejaVuSans-48"/>
      </g>
     </g>
    </g>
    <g id="ytick_4">
     <g id="line2d_13">
      <g>
       <use style="stroke:#000000;stroke-width:0.8;" x="57.6" xlink:href="#m28cb8cbec0" y="207.792"/>
      </g>
     </g>
     <g id="text_13">
      <!-- −2.5 -->
      <g transform="translate(26.317187 211.591219)scale(0.1 -0.1)">
       <use xlink:href="#DejaVuSans-8722"/>
       <use x="83.789062" xlink:href="#DejaVuSans-50"/>
       <use x="147.412109" xlink:href="#DejaVuSans-46"/>
       <use x="179.199219" xlink:href="#DejaVuSans-53"/>
      </g>
     </g>
    </g>
    <g id="ytick_5">
     <g id="line2d_14">
      <g>
       <use style="stroke:#000000;stroke-width:0.8;" x="57.6" xlink:href="#m28cb8cbec0" y="174.528"/>
      </g>
     </g>
     <g id="text_14">
      <!-- 0.0 -->
      <g transform="translate(34.696875 178.327219)scale(0.1 -0.1)">
       <use xlink:href="#DejaVuSans-48"/>
       <use x="63.623047" xlink:href="#DejaVuSans-46"/>
       <use x="95.410156" xlink:href="#DejaVuSans-48"/>
      </g>
     </g>
    </g>
    <g id="ytick_6">
     <g id="line2d_15">
      <g>
       <use style="stroke:#000000;stroke-width:0.8;" x="57.6" xlink:href="#m28cb8cbec0" y="141.264"/>
      </g>
     </g>
     <g id="text_15">
      <!-- 2.5 -->
      <g transform="translate(34.696875 145.063219)scale(0.1 -0.1)">
       <use xlink:href="#DejaVuSans-50"/>
       <use x="63.623047" xlink:href="#DejaVuSans-46"/>
       <use x="95.410156" xlink:href="#DejaVuSans-53"/>
      </g>
     </g>
    </g>
    <g id="ytick_7">
     <g id="line2d_16">
      <g>
       <use style="stroke:#000000;stroke-width:0.8;" x="57.6" xlink:href="#m28cb8cbec0" y="108"/>
      </g>
     </g>
     <g id="text_16">
      <!-- 5.0 -->
      <g transform="translate(34.696875 111.799219)scale(0.1 -0.1)">
       <use xlink:href="#DejaVuSans-53"/>
       <use x="63.623047" xlink:href="#DejaVuSans-46"/>
       <use x="95.410156" xlink:href="#DejaVuSans-48"/>
      </g>
     </g>
    </g>
    <g id="ytick_8">
     <g id="line2d_17">
      <g>
       <use style="stroke:#000000;stroke-width:0.8;" x="57.6" xlink:href="#m28cb8cbec0" y="74.736"/>
      </g>
     </g>
     <g id="text_17">
      <!-- 7.5 -->
      <g transform="translate(34.696875 78.535219)scale(0.1 -0.1)">
       <use xlink:href="#DejaVuSans-55"/>
       <use x="63.623047" xlink:href="#DejaVuSans-46"/>
       <use x="95.410156" xlink:href="#DejaVuSans-53"/>
      </g>
     </g>
    </g>
    <g id="ytick_9">
     <g id="line2d_18">
      <g>
       <use style="stroke:#000000;stroke-width:0.8;" x="57.6" xlink:href="#m28cb8cbec0" y="41.472"/>
      </g>
     </g>
     <g id="text_18">
      <!-- 10.0 -->
      <g transform="translate(28.334375 45.271219)scale(0.1 -0.1)">
       <use xlink:href="#DejaVuSans-49"/>
       <use x="63.623047" xlink:href="#DejaVuSans-48"/>
       <use x="127.246094" xlink:href="#DejaVuSans-46"/>
       <use x="159.033203" xlink:href="#DejaVuSans-48"/>
      </g>
     </g>
    </g>
   </g>
   <g id="LineCollection_1"/>
   <g id="LineCollection_2">
    <path clip-path="url(#p9cc6c2fb90)" d="M 195.423196 179.85024 
L 194.73408 179.208362 
L 194.73408 177.871116 
L 194.73408 176.533869 
L 194.73408 175.196623 
L 194.73408 173.859377 
L 194.73408 172.522131 
L 194.73408 171.184884 
L 194.73408 169.847638 
L 195.423196 169.20576 
L 196.858854 169.20576 
L 198.294513 169.20576 
L 199.730171 169.20576 
L 201.165829 169.20576 
L 202.601487 169.20576 
L 204.037146 169.20576 
L 205.472804 169.20576 
L 206.16192 169.847638 
L 206.16192 171.184884 
L 206.16192 172.522131 
L 206.16192 173.859377 
L 206.16192 175.196623 
L 206.16192 176.533869 
L 206.16192 177.871116 
L 206.16192 179.208362 
L 205.472804 179.85024 
L 204.037146 179.85024 
L 202.601487 179.85024 
L 201.165829 179.85024 
L 199.730171 179.85024 
L 198.294513 179.85024 
L 196.858854 179.85024 
L 195.423196 179.85024 
" style="fill:none;stroke:#00f584;stroke-width:1.5;"/>
   </g>
   <g id="LineCollection_3">
    <path clip-path="url(#p9cc6c2fb90)" d="M 189.680563 185.17248 
L 189.02016 184.557347 
L 189.02016 183.220101 
L 189.02016 181.882854 
L 189.02016 180.545608 
L 189.02016 179.208362 
L 189.02016 177.871116 
L 189.02016 176.533869 
L 189.02016 175.196623 
L 189.02016 173.859377 
L 189.02016 172.522131 
L 189.02016 171.184884 
L 189.02016 169.847638 
L 189.02016 168.510392 
L 189.02016 167.173146 
L 189.02016 165.835899 
L 189.02016 164.498653 
L 189.680563 163.88352 
L 191.116221 163.88352 
L 192.551879 163.88352 
L 193.987538 163.88352 
L 195.423196 163.88352 
L 196.858854 163.88352 
L 198.294513 163.88352 
L 199.730171 163.88352 
L 201.165829 163.88352 
L 202.601487 163.88352 
L 204.037146 163.88352 
L 205.472804 163.88352 
L 206.908462 163.88352 
L 208.344121 163.88352 
L 209.779779 163.88352 
L 211.215437 163.88352 
L 211.87584 164.498653 
L 211.87584 165.835899 
L 211.87584 167.173146 
L 211.87584 168.510392 
L 211.87584 169.847638 
L 211.87584 171.184884 
L 211.87584 172.522131 
L 211.87584 173.859377 
L 211.87584 175.196623 
L 211.87584 176.533869 
L 211.87584 177.871116 
L 211.87584 179.208362 
L 211.87584 180.545608 
L 211.87584 181.882854 
L 211.87584 183.220101 
L 211.87584 184.557347 
L 211.215437 185.17248 
L 209.779779 185.17248 
L 208.344121 185.17248 
L 206.908462 185.17248 
L 205.472804 185.17248 
L 204.037146 185.17248 
L 202.601487 185.17248 
L 201.165829 185.17248 
L 199.730171 185.17248 
L 198.294513 185.17248 
L 196.858854 185.17248 
L 195.423196 185.17248 
L 193.987538 185.17248 
L 192.551879 185.17248 
L 191.116221 185.17248 
L 189.680563 185.17248 
" style="fill:none;stroke:#00eb8a;stroke-width:1.5;"/>
   </g>
   <g id="LineCollection_4">
    <path clip-path="url(#p9cc6c2fb90)" d="M 183.93793 190.49472 
L 183.30624 189.906332 
L 183.30624 188.569085 
L 183.30624 187.231839 
L 183.30624 185.894593 
L 183.30624 184.557347 
L 183.30624 183.220101 
L 183.30624 181.882854 
L 183.30624 180.545608 
L 183.30624 179.208362 
L 183.30624 177.871116 
L 183.30624 176.533869 
L 183.30624 175.196623 
L 183.30624 173.859377 
L 183.30624 172.522131 
L 183.30624 171.184884 
L 183.30624 169.847638 
L 183.30624 168.510392 
L 183.30624 167.173146 
L 183.30624 165.835899 
L 183.30624 164.498653 
L 183.30624 163.161407 
L 183.30624 161.824161 
L 183.30624 160.486915 
L 183.30624 159.149668 
L 183.93793 158.56128 
L 185.373588 158.56128 
L 186.809246 158.56128 
L 188.244905 158.56128 
L 189.680563 158.56128 
L 191.116221 158.56128 
L 192.551879 158.56128 
L 193.987538 158.56128 
L 195.423196 158.56128 
L 196.858854 158.56128 
L 198.294513 158.56128 
L 199.730171 158.56128 
L 201.165829 158.56128 
L 202.601487 158.56128 
L 204.037146 158.56128 
L 205.472804 158.56128 
L 206.908462 158.56128 
L 208.344121 158.56128 
L 209.779779 158.56128 
L 211.215437 158.56128 
L 212.651095 158.56128 
L 214.086754 158.56128 
L 215.522412 158.56128 
L 216.95807 158.56128 
L 217.58976 159.149668 
L 217.58976 160.486915 
L 217.58976 161.824161 
L 217.58976 163.161407 
L 217.58976 164.498653 
L 217.58976 165.835899 
L 217.58976 167.173146 
L 217.58976 168.510392 
L 217.58976 169.847638 
L 217.58976 171.184884 
L 217.58976 172.522131 
L 217.58976 173.859377 
L 217.58976 175.196623 
L 217.58976 176.533869 
L 217.58976 177.871116 
L 217.58976 179.208362 
L 217.58976 180.545608 
L 217.58976 181.882854 
L 217.58976 183.220101 
L 217.58976 184.557347 
L 217.58976 185.894593 
L 217.58976 187.231839 
L 217.58976 188.569085 
L 217.58976 189.906332 
L 216.95807 190.49472 
L 215.522412 190.49472 
L 214.086754 190.49472 
L 212.651095 190.49472 
L 211.215437 190.49472 
L 209.779779 190.49472 
L 208.344121 190.49472 
L 206.908462 190.49472 
L 205.472804 190.49472 
L 204.037146 190.49472 
L 202.601487 190.49472 
L 201.165829 190.49472 
L 199.730171 190.49472 
L 198.294513 190.49472 
L 196.858854 190.49472 
L 195.423196 190.49472 
L 193.987538 190.49472 
L 192.551879 190.49472 
L 191.116221 190.49472 
L 189.680563 190.49472 
L 188.244905 190.49472 
L 186.809246 190.49472 
L 185.373588 190.49472 
L 183.93793 190.49472 
" style="fill:none;stroke:#00e18e;stroke-width:1.5;"/>
   </g>
   <g id="LineCollection_5">
    <path clip-path="url(#p9cc6c2fb90)" d="M 178.195296 195.81696 
L 177.59232 195.255317 
L 177.59232 153.800683 
L 178.195296 153.23904 
L 222.700704 153.23904 
L 223.30368 153.800683 
L 223.30368 195.255317 
L 222.700704 195.81696 
L 178.195296 195.81696 
L 178.195296 195.81696 
" style="fill:none;stroke:#00d793;stroke-width:1.5;"/>
   </g>
   <g id="LineCollection_6">
    <path clip-path="url(#p9cc6c2fb90)" d="M 172.452663 201.1392 
L 171.8784 200.604302 
L 171.8784 148.451698 
L 172.452663 147.9168 
L 228.443337 147.9168 
L 229.0176 148.451698 
L 229.0176 200.604302 
L 228.443337 201.1392 
L 172.452663 201.1392 
L 172.452663 201.1392 
" style="fill:none;stroke:#00cc99;stroke-width:1.5;"/>
   </g>
   <g id="LineCollection_7">
    <path clip-path="url(#p9cc6c2fb90)" d="M 166.71003 206.46144 
L 166.16448 205.953286 
L 166.16448 143.102714 
L 166.71003 142.59456 
L 234.18597 142.59456 
L 234.73152 143.102714 
L 234.73152 205.953286 
L 234.18597 206.46144 
L 166.71003 206.46144 
L 166.71003 206.46144 
" style="fill:none;stroke:#00c29e;stroke-width:1.5;"/>
   </g>
   <g id="LineCollection_8">
    <path clip-path="url(#p9cc6c2fb90)" d="M 160.967397 211.78368 
L 160.45056 211.302271 
L 160.45056 137.753729 
L 160.967397 137.27232 
L 239.928603 137.27232 
L 240.44544 137.753729 
L 240.44544 211.302271 
L 239.928603 211.78368 
L 160.967397 211.78368 
L 160.967397 211.78368 
" style="fill:none;stroke:#00b8a3;stroke-width:1.5;"/>
   </g>
   <g id="LineCollection_9">
    <path clip-path="url(#p9cc6c2fb90)" d="M 155.224764 217.10592 
L 154.73664 216.651256 
L 154.73664 132.404744 
L 155.224764 131.95008 
L 245.671236 131.95008 
L 246.15936 132.404744 
L 246.15936 216.651256 
L 245.671236 217.10592 
L 155.224764 217.10592 
L 155.224764 217.10592 
" style="fill:none;stroke:#00aea8;stroke-width:1.5;"/>
   </g>
   <g id="LineCollection_10">
    <path clip-path="url(#p9cc6c2fb90)" d="M 149.482131 222.42816 
L 149.02272 222.000241 
L 149.02272 127.055759 
L 149.482131 126.62784 
L 251.413869 126.62784 
L 251.87328 127.055759 
L 251.87328 222.000241 
L 251.413869 222.42816 
L 149.482131 222.42816 
L 149.482131 222.42816 
" style="fill:none;stroke:#00a3ae;stroke-width:1.5;"/>
   </g>
   <g id="LineCollection_11">
    <path clip-path="url(#p9cc6c2fb90)" d="M 143.739497 227.7504 
L 143.3088 227.349226 
L 143.3088 121.706774 
L 143.739497 121.3056 
L 257.156503 121.3056 
L 257.5872 121.706774 
L 257.5872 227.349226 
L 257.156503 227.7504 
L 143.739497 227.7504 
L 143.739497 227.7504 
" style="fill:none;stroke:#0099b2;stroke-width:1.5;"/>
   </g>
   <g id="LineCollection_12">
    <path clip-path="url(#p9cc6c2fb90)" d="M 137.996864 233.07264 
L 137.59488 232.698211 
L 137.59488 116.357789 
L 137.996864 115.98336 
L 262.899136 115.98336 
L 263.30112 116.357789 
L 263.30112 232.698211 
L 262.899136 233.07264 
L 137.996864 233.07264 
L 137.996864 233.07264 
" style="fill:none;stroke:#008fb8;stroke-width:1.5;"/>
   </g>
   <g id="LineCollection_13">
    <path clip-path="url(#p9cc6c2fb90)" d="M 132.254231 238.39488 
L 131.88096 238.047196 
L 131.88096 111.008804 
L 132.254231 110.66112 
L 268.641769 110.66112 
L 269.01504 111.008804 
L 269.01504 238.047196 
L 268.641769 238.39488 
L 132.254231 238.39488 
L 132.254231 238.39488 
" style="fill:none;stroke:#0085bc;stroke-width:1.5;"/>
   </g>
   <g id="LineCollection_14">
    <path clip-path="url(#p9cc6c2fb90)" d="M 126.511598 243.71712 
L 126.16704 243.396181 
L 126.16704 105.659819 
L 126.511598 105.33888 
L 274.384402 105.33888 
L 274.72896 105.659819 
L 274.72896 243.396181 
L 274.384402 243.71712 
L 126.511598 243.71712 
L 126.511598 243.71712 
" style="fill:none;stroke:#007ac2;stroke-width:1.5;"/>
   </g>
   <g id="LineCollection_15">
    <path clip-path="url(#p9cc6c2fb90)" d="M 120.768965 249.03936 
L 120.45312 248.745166 
L 120.45312 100.310834 
L 120.768965 100.01664 
L 280.127035 100.01664 
L 280.44288 100.310834 
L 280.44288 248.745166 
L 280.127035 249.03936 
L 120.768965 249.03936 
L 120.768965 249.03936 
" style="fill:none;stroke:#0070c7;stroke-width:1.5;"/>
   </g>
   <g id="LineCollection_16">
    <path clip-path="url(#p9cc6c2fb90)" d="M 115.026332 254.3616 
L 114.7392 254.094151 
L 114.7392 94.961849 
L 115.026332 94.6944 
L 285.869668 94.6944 
L 286.1568 94.961849 
L 286.1568 254.094151 
L 285.869668 254.3616 
L 115.026332 254.3616 
L 115.026332 254.3616 
" style="fill:none;stroke:#0066cc;stroke-width:1.5;"/>
   </g>
   <g id="LineCollection_17">
    <path clip-path="url(#p9cc6c2fb90)" d="M 109.283698 259.68384 
L 109.02528 259.443136 
L 109.02528 89.612864 
L 109.283698 89.37216 
L 291.612302 89.37216 
L 291.87072 89.612864 
L 291.87072 259.443136 
L 291.612302 259.68384 
L 109.283698 259.68384 
L 109.283698 259.68384 
" style="fill:none;stroke:#005cd1;stroke-width:1.5;"/>
   </g>
   <g id="LineCollection_18">
    <path clip-path="url(#p9cc6c2fb90)" d="M 103.541065 265.00608 
L 103.31136 264.792121 
L 103.31136 84.263879 
L 103.541065 84.04992 
L 297.354935 84.04992 
L 297.58464 84.263879 
L 297.58464 264.792121 
L 297.354935 265.00608 
L 103.541065 265.00608 
L 103.541065 265.00608 
" style="fill:none;stroke:#0051d6;stroke-width:1.5;"/>
   </g>
   <g id="LineCollection_19">
    <path clip-path="url(#p9cc6c2fb90)" d="M 97.798432 270.32832 
L 97.59744 270.141106 
L 97.59744 78.914894 
L 97.798432 78.72768 
L 303.097568 78.72768 
L 303.29856 78.914894 
L 303.29856 270.141106 
L 303.097568 270.32832 
L 97.798432 270.32832 
L 97.798432 270.32832 
" style="fill:none;stroke:#0047dc;stroke-width:1.5;"/>
   </g>
   <g id="LineCollection_20">
    <path clip-path="url(#p9cc6c2fb90)" d="M 92.055799 275.65056 
L 91.88352 275.49009 
L 91.88352 73.56591 
L 92.055799 73.40544 
L 308.840201 73.40544 
L 309.01248 73.56591 
L 309.01248 275.49009 
L 308.840201 275.65056 
L 92.055799 275.65056 
L 92.055799 275.65056 
" style="fill:none;stroke:#003de0;stroke-width:1.5;"/>
   </g>
   <g id="LineCollection_21">
    <path clip-path="url(#p9cc6c2fb90)" d="M 86.313166 280.9728 
L 86.1696 280.839075 
L 86.1696 68.216925 
L 86.313166 68.0832 
L 314.582834 68.0832 
L 314.7264 68.216925 
L 314.7264 280.839075 
L 314.582834 280.9728 
L 86.313166 280.9728 
L 86.313166 280.9728 
" style="fill:none;stroke:#0033e6;stroke-width:1.5;"/>
   </g>
   <g id="LineCollection_22">
    <path clip-path="url(#p9cc6c2fb90)" d="M 80.570533 286.29504 
L 80.45568 286.18806 
L 80.45568 62.86794 
L 80.570533 62.76096 
L 320.44032 62.86794 
L 320.44032 286.18806 
L 320.325467 286.29504 
L 80.570533 286.29504 
L 80.570533 286.29504 
" style="fill:none;stroke:#0028eb;stroke-width:1.5;"/>
   </g>
   <g id="LineCollection_23">
    <path clip-path="url(#p9cc6c2fb90)" d="M 74.827899 291.61728 
L 74.74176 291.537045 
L 74.827899 57.43872 
L 326.15424 57.518955 
L 326.068101 291.61728 
L 74.827899 291.61728 
L 74.827899 291.61728 
" style="fill:none;stroke:#001ef0;stroke-width:1.5;"/>
   </g>
   <g id="LineCollection_24">
    <path clip-path="url(#p9cc6c2fb90)" d="M 69.085266 296.93952 
L 69.02784 296.88603 
L 69.085266 52.11648 
L 331.86816 52.16997 
L 331.810734 296.93952 
L 69.085266 296.93952 
L 69.085266 296.93952 
" style="fill:none;stroke:#0014f5;stroke-width:1.5;"/>
   </g>
   <g id="LineCollection_25">
    <path clip-path="url(#p9cc6c2fb90)" d="M 63.342633 302.26176 
L 63.31392 302.235015 
L 63.342633 46.79424 
L 337.58208 46.820985 
L 337.553367 302.26176 
L 63.342633 302.26176 
L 63.342633 302.26176 
" style="fill:none;stroke:#000afa;stroke-width:1.5;"/>
   </g>
   <g id="LineCollection_26"/>
   <g id="patch_3">
    <path d="M 57.6 307.584 
L 57.6 41.472 
" style="fill:none;stroke:#000000;stroke-linecap:square;stroke-linejoin:miter;stroke-width:0.8;"/>
   </g>
   <g id="patch_4">
    <path d="M 343.296 307.584 
L 343.296 41.472 
" style="fill:none;stroke:#000000;stroke-linecap:square;stroke-linejoin:miter;stroke-width:0.8;"/>
   </g>
   <g id="patch_5">
    <path d="M 57.6 307.584 
L 343.296 307.584 
" style="fill:none;stroke:#000000;stroke-linecap:square;stroke-linejoin:miter;stroke-width:0.8;"/>
   </g>
   <g id="patch_6">
    <path d="M 57.6 41.472 
L 343.296 41.472 
" style="fill:none;stroke:#000000;stroke-linecap:square;stroke-linejoin:miter;stroke-width:0.8;"/>
   </g>
  </g>
  <g id="axes_2">
   <g id="patch_7">
    <path clip-path="url(#p970cb8b4df)" d="M 361.152 307.584 
L 361.152 296.93952 
L 361.152 52.11648 
L 361.152 41.472 
L 374.4576 41.472 
L 374.4576 52.11648 
L 374.4576 296.93952 
L 374.4576 307.584 
z
" style="fill:#ffffff;stroke:#ffffff;stroke-linejoin:miter;stroke-width:0.01;"/>
   </g>
   <g id="matplotlib.axis_3"/>
   <g id="matplotlib.axis_4">
    <g id="ytick_10">
     <g id="line2d_19">
      <defs>
       <path d="M 0 0 
L 3.5 0 
" id="mb8dc44de4b" style="stroke:#000000;stroke-width:0.8;"/>
      </defs>
      <g>
       <use style="stroke:#000000;stroke-width:0.8;" x="374.4576" xlink:href="#mb8dc44de4b" y="307.584"/>
      </g>
     </g>
     <g id="text_19">
      <!-- 0.0 -->
      <g transform="translate(381.4576 311.383219)scale(0.1 -0.1)">
       <use xlink:href="#DejaVuSans-48"/>
       <use x="63.623047" xlink:href="#DejaVuSans-46"/>
       <use x="95.410156" xlink:href="#DejaVuSans-48"/>
      </g>
     </g>
    </g>
    <g id="ytick_11">
     <g id="line2d_20">
      <g>
       <use style="stroke:#000000;stroke-width:0.8;" x="374.4576" xlink:href="#mb8dc44de4b" y="275.65056"/>
      </g>
     </g>
     <g id="text_20">
      <!-- 1.2 -->
      <g transform="translate(381.4576 279.449779)scale(0.1 -0.1)">
       <use xlink:href="#DejaVuSans-49"/>
       <use x="63.623047" xlink:href="#DejaVuSans-46"/>
       <use x="95.410156" xlink:href="#DejaVuSans-50"/>
      </g>
     </g>
    </g>
    <g id="ytick_12">
     <g id="line2d_21">
      <g>
       <use style="stroke:#000000;stroke-width:0.8;" x="374.4576" xlink:href="#mb8dc44de4b" y="243.71712"/>
      </g>
     </g>
     <g id="text_21">
      <!-- 2.4 -->
      <defs>
       <path d="M 37.796875 64.3125 
L 12.890625 25.390625 
L 37.796875 25.390625 
z
M 35.203125 72.90625 
L 47.609375 72.90625 
L 47.609375 25.390625 
L 58.015625 25.390625 
L 58.015625 17.1875 
L 47.609375 17.1875 
L 47.609375 0 
L 37.796875 0 
L 37.796875 17.1875 
L 4.890625 17.1875 
L 4.890625 26.703125 
z
" id="DejaVuSans-52"/>
      </defs>
      <g transform="translate(381.4576 247.516339)scale(0.1 -0.1)">
       <use xlink:href="#DejaVuSans-50"/>
       <use x="63.623047" xlink:href="#DejaVuSans-46"/>
       <use x="95.410156" xlink:href="#DejaVuSans-52"/>
      </g>
     </g>
    </g>
    <g id="ytick_13">
     <g id="line2d_22">
      <g>
       <use style="stroke:#000000;stroke-width:0.8;" x="374.4576" xlink:href="#mb8dc44de4b" y="211.78368"/>
      </g>
     </g>
     <g id="text_22">
      <!-- 3.6 -->
      <defs>
       <path d="M 40.578125 39.3125 
Q 47.65625 37.796875 51.625 33 
Q 55.609375 28.21875 55.609375 21.1875 
Q 55.609375 10.40625 48.1875 4.484375 
Q 40.765625 -1.421875 27.09375 -1.421875 
Q 22.515625 -1.421875 17.65625 -0.515625 
Q 12.796875 0.390625 7.625 2.203125 
L 7.625 11.71875 
Q 11.71875 9.328125 16.59375 8.109375 
Q 21.484375 6.890625 26.8125 6.890625 
Q 36.078125 6.890625 40.9375 10.546875 
Q 45.796875 14.203125 45.796875 21.1875 
Q 45.796875 27.640625 41.28125 31.265625 
Q 36.765625 34.90625 28.71875 34.90625 
L 20.21875 34.90625 
L 20.21875 43.015625 
L 29.109375 43.015625 
Q 36.375 43.015625 40.234375 45.921875 
Q 44.09375 48.828125 44.09375 54.296875 
Q 44.09375 59.90625 40.109375 62.90625 
Q 36.140625 65.921875 28.71875 65.921875 
Q 24.65625 65.921875 20.015625 65.03125 
Q 15.375 64.15625 9.8125 62.3125 
L 9.8125 71.09375 
Q 15.4375 72.65625 20.34375 73.4375 
Q 25.25 74.21875 29.59375 74.21875 
Q 40.828125 74.21875 47.359375 69.109375 
Q 53.90625 64.015625 53.90625 55.328125 
Q 53.90625 49.265625 50.4375 45.09375 
Q 46.96875 40.921875 40.578125 39.3125 
z
" id="DejaVuSans-51"/>
       <path d="M 33.015625 40.375 
Q 26.375 40.375 22.484375 35.828125 
Q 18.609375 31.296875 18.609375 23.390625 
Q 18.609375 15.53125 22.484375 10.953125 
Q 26.375 6.390625 33.015625 6.390625 
Q 39.65625 6.390625 43.53125 10.953125 
Q 47.40625 15.53125 47.40625 23.390625 
Q 47.40625 31.296875 43.53125 35.828125 
Q 39.65625 40.375 33.015625 40.375 
z
M 52.59375 71.296875 
L 52.59375 62.3125 
Q 48.875 64.0625 45.09375 64.984375 
Q 41.3125 65.921875 37.59375 65.921875 
Q 27.828125 65.921875 22.671875 59.328125 
Q 17.53125 52.734375 16.796875 39.40625 
Q 19.671875 43.65625 24.015625 45.921875 
Q 28.375 48.1875 33.59375 48.1875 
Q 44.578125 48.1875 50.953125 41.515625 
Q 57.328125 34.859375 57.328125 23.390625 
Q 57.328125 12.15625 50.6875 5.359375 
Q 44.046875 -1.421875 33.015625 -1.421875 
Q 20.359375 -1.421875 13.671875 8.265625 
Q 6.984375 17.96875 6.984375 36.375 
Q 6.984375 53.65625 15.1875 63.9375 
Q 23.390625 74.21875 37.203125 74.21875 
Q 40.921875 74.21875 44.703125 73.484375 
Q 48.484375 72.75 52.59375 71.296875 
z
" id="DejaVuSans-54"/>
      </defs>
      <g transform="translate(381.4576 215.582899)scale(0.1 -0.1)">
       <use xlink:href="#DejaVuSans-51"/>
       <use x="63.623047" xlink:href="#DejaVuSans-46"/>
       <use x="95.410156" xlink:href="#DejaVuSans-54"/>
      </g>
     </g>
    </g>
    <g id="ytick_14">
     <g id="line2d_23">
      <g>
       <use style="stroke:#000000;stroke-width:0.8;" x="374.4576" xlink:href="#mb8dc44de4b" y="179.85024"/>
      </g>
     </g>
     <g id="text_23">
      <!-- 4.8 -->
      <defs>
       <path d="M 31.78125 34.625 
Q 24.75 34.625 20.71875 30.859375 
Q 16.703125 27.09375 16.703125 20.515625 
Q 16.703125 13.921875 20.71875 10.15625 
Q 24.75 6.390625 31.78125 6.390625 
Q 38.8125 6.390625 42.859375 10.171875 
Q 46.921875 13.96875 46.921875 20.515625 
Q 46.921875 27.09375 42.890625 30.859375 
Q 38.875 34.625 31.78125 34.625 
z
M 21.921875 38.8125 
Q 15.578125 40.375 12.03125 44.71875 
Q 8.5 49.078125 8.5 55.328125 
Q 8.5 64.0625 14.71875 69.140625 
Q 20.953125 74.21875 31.78125 74.21875 
Q 42.671875 74.21875 48.875 69.140625 
Q 55.078125 64.0625 55.078125 55.328125 
Q 55.078125 49.078125 51.53125 44.71875 
Q 48 40.375 41.703125 38.8125 
Q 48.828125 37.15625 52.796875 32.3125 
Q 56.78125 27.484375 56.78125 20.515625 
Q 56.78125 9.90625 50.3125 4.234375 
Q 43.84375 -1.421875 31.78125 -1.421875 
Q 19.734375 -1.421875 13.25 4.234375 
Q 6.78125 9.90625 6.78125 20.515625 
Q 6.78125 27.484375 10.78125 32.3125 
Q 14.796875 37.15625 21.921875 38.8125 
z
M 18.3125 54.390625 
Q 18.3125 48.734375 21.84375 45.5625 
Q 25.390625 42.390625 31.78125 42.390625 
Q 38.140625 42.390625 41.71875 45.5625 
Q 45.3125 48.734375 45.3125 54.390625 
Q 45.3125 60.0625 41.71875 63.234375 
Q 38.140625 66.40625 31.78125 66.40625 
Q 25.390625 66.40625 21.84375 63.234375 
Q 18.3125 60.0625 18.3125 54.390625 
z
" id="DejaVuSans-56"/>
      </defs>
      <g transform="translate(381.4576 183.649459)scale(0.1 -0.1)">
       <use xlink:href="#DejaVuSans-52"/>
       <use x="63.623047" xlink:href="#DejaVuSans-46"/>
       <use x="95.410156" xlink:href="#DejaVuSans-56"/>
      </g>
     </g>
    </g>
    <g id="ytick_15">
     <g id="line2d_24">
      <g>
       <use style="stroke:#000000;stroke-width:0.8;" x="374.4576" xlink:href="#mb8dc44de4b" y="147.9168"/>
      </g>
     </g>
     <g id="text_24">
      <!-- 6.0 -->
      <g transform="translate(381.4576 151.716019)scale(0.1 -0.1)">
       <use xlink:href="#DejaVuSans-54"/>
       <use x="63.623047" xlink:href="#DejaVuSans-46"/>
       <use x="95.410156" xlink:href="#DejaVuSans-48"/>
      </g>
     </g>
    </g>
    <g id="ytick_16">
     <g id="line2d_25">
      <g>
       <use style="stroke:#000000;stroke-width:0.8;" x="374.4576" xlink:href="#mb8dc44de4b" y="115.98336"/>
      </g>
     </g>
     <g id="text_25">
      <!-- 7.2 -->
      <g transform="translate(381.4576 119.782579)scale(0.1 -0.1)">
       <use xlink:href="#DejaVuSans-55"/>
       <use x="63.623047" xlink:href="#DejaVuSans-46"/>
       <use x="95.410156" xlink:href="#DejaVuSans-50"/>
      </g>
     </g>
    </g>
    <g id="ytick_17">
     <g id="line2d_26">
      <g>
       <use style="stroke:#000000;stroke-width:0.8;" x="374.4576" xlink:href="#mb8dc44de4b" y="84.04992"/>
      </g>
     </g>
     <g id="text_26">
      <!-- 8.4 -->
      <g transform="translate(381.4576 87.849139)scale(0.1 -0.1)">
       <use xlink:href="#DejaVuSans-56"/>
       <use x="63.623047" xlink:href="#DejaVuSans-46"/>
       <use x="95.410156" xlink:href="#DejaVuSans-52"/>
      </g>
     </g>
    </g>
    <g id="ytick_18">
     <g id="line2d_27">
      <g>
       <use style="stroke:#000000;stroke-width:0.8;" x="374.4576" xlink:href="#mb8dc44de4b" y="52.11648"/>
      </g>
     </g>
     <g id="text_27">
      <!-- 9.6 -->
      <defs>
       <path d="M 10.984375 1.515625 
L 10.984375 10.5 
Q 14.703125 8.734375 18.5 7.8125 
Q 22.3125 6.890625 25.984375 6.890625 
Q 35.75 6.890625 40.890625 13.453125 
Q 46.046875 20.015625 46.78125 33.40625 
Q 43.953125 29.203125 39.59375 26.953125 
Q 35.25 24.703125 29.984375 24.703125 
Q 19.046875 24.703125 12.671875 31.3125 
Q 6.296875 37.9375 6.296875 49.421875 
Q 6.296875 60.640625 12.9375 67.421875 
Q 19.578125 74.21875 30.609375 74.21875 
Q 43.265625 74.21875 49.921875 64.515625 
Q 56.59375 54.828125 56.59375 36.375 
Q 56.59375 19.140625 48.40625 8.859375 
Q 40.234375 -1.421875 26.421875 -1.421875 
Q 22.703125 -1.421875 18.890625 -0.6875 
Q 15.09375 0.046875 10.984375 1.515625 
z
M 30.609375 32.421875 
Q 37.25 32.421875 41.125 36.953125 
Q 45.015625 41.5 45.015625 49.421875 
Q 45.015625 57.28125 41.125 61.84375 
Q 37.25 66.40625 30.609375 66.40625 
Q 23.96875 66.40625 20.09375 61.84375 
Q 16.21875 57.28125 16.21875 49.421875 
Q 16.21875 41.5 20.09375 36.953125 
Q 23.96875 32.421875 30.609375 32.421875 
z
" id="DejaVuSans-57"/>
      </defs>
      <g transform="translate(381.4576 55.915699)scale(0.1 -0.1)">
       <use xlink:href="#DejaVuSans-57"/>
       <use x="63.623047" xlink:href="#DejaVuSans-46"/>
       <use x="95.410156" xlink:href="#DejaVuSans-54"/>
      </g>
     </g>
    </g>
   </g>
   <g id="LineCollection_27">
    <path clip-path="url(#p970cb8b4df)" d="M 361.152 307.584 
L 374.4576 307.584 
" style="fill:none;stroke:#00ff80;stroke-width:1.5;"/>
    <path clip-path="url(#p970cb8b4df)" d="M 361.152 296.93952 
L 374.4576 296.93952 
" style="fill:none;stroke:#00f584;stroke-width:1.5;"/>
    <path clip-path="url(#p970cb8b4df)" d="M 361.152 286.29504 
L 374.4576 286.29504 
" style="fill:none;stroke:#00eb8a;stroke-width:1.5;"/>
    <path clip-path="url(#p970cb8b4df)" d="M 361.152 275.65056 
L 374.4576 275.65056 
" style="fill:none;stroke:#00e18e;stroke-width:1.5;"/>
    <path clip-path="url(#p970cb8b4df)" d="M 361.152 265.00608 
L 374.4576 265.00608 
" style="fill:none;stroke:#00d793;stroke-width:1.5;"/>
    <path clip-path="url(#p970cb8b4df)" d="M 361.152 254.3616 
L 374.4576 254.3616 
" style="fill:none;stroke:#00cc99;stroke-width:1.5;"/>
    <path clip-path="url(#p970cb8b4df)" d="M 361.152 243.71712 
L 374.4576 243.71712 
" style="fill:none;stroke:#00c29e;stroke-width:1.5;"/>
    <path clip-path="url(#p970cb8b4df)" d="M 361.152 233.07264 
L 374.4576 233.07264 
" style="fill:none;stroke:#00b8a3;stroke-width:1.5;"/>
    <path clip-path="url(#p970cb8b4df)" d="M 361.152 222.42816 
L 374.4576 222.42816 
" style="fill:none;stroke:#00aea8;stroke-width:1.5;"/>
    <path clip-path="url(#p970cb8b4df)" d="M 361.152 211.78368 
L 374.4576 211.78368 
" style="fill:none;stroke:#00a3ae;stroke-width:1.5;"/>
    <path clip-path="url(#p970cb8b4df)" d="M 361.152 201.1392 
L 374.4576 201.1392 
" style="fill:none;stroke:#0099b2;stroke-width:1.5;"/>
    <path clip-path="url(#p970cb8b4df)" d="M 361.152 190.49472 
L 374.4576 190.49472 
" style="fill:none;stroke:#008fb8;stroke-width:1.5;"/>
    <path clip-path="url(#p970cb8b4df)" d="M 361.152 179.85024 
L 374.4576 179.85024 
" style="fill:none;stroke:#0085bc;stroke-width:1.5;"/>
    <path clip-path="url(#p970cb8b4df)" d="M 361.152 169.20576 
L 374.4576 169.20576 
" style="fill:none;stroke:#007ac2;stroke-width:1.5;"/>
    <path clip-path="url(#p970cb8b4df)" d="M 361.152 158.56128 
L 374.4576 158.56128 
" style="fill:none;stroke:#0070c7;stroke-width:1.5;"/>
    <path clip-path="url(#p970cb8b4df)" d="M 361.152 147.9168 
L 374.4576 147.9168 
" style="fill:none;stroke:#0066cc;stroke-width:1.5;"/>
    <path clip-path="url(#p970cb8b4df)" d="M 361.152 137.27232 
L 374.4576 137.27232 
" style="fill:none;stroke:#005cd1;stroke-width:1.5;"/>
    <path clip-path="url(#p970cb8b4df)" d="M 361.152 126.62784 
L 374.4576 126.62784 
" style="fill:none;stroke:#0051d6;stroke-width:1.5;"/>
    <path clip-path="url(#p970cb8b4df)" d="M 361.152 115.98336 
L 374.4576 115.98336 
" style="fill:none;stroke:#0047dc;stroke-width:1.5;"/>
    <path clip-path="url(#p970cb8b4df)" d="M 361.152 105.33888 
L 374.4576 105.33888 
" style="fill:none;stroke:#003de0;stroke-width:1.5;"/>
    <path clip-path="url(#p970cb8b4df)" d="M 361.152 94.6944 
L 374.4576 94.6944 
" style="fill:none;stroke:#0033e6;stroke-width:1.5;"/>
    <path clip-path="url(#p970cb8b4df)" d="M 361.152 84.04992 
L 374.4576 84.04992 
" style="fill:none;stroke:#0028eb;stroke-width:1.5;"/>
    <path clip-path="url(#p970cb8b4df)" d="M 361.152 73.40544 
L 374.4576 73.40544 
" style="fill:none;stroke:#001ef0;stroke-width:1.5;"/>
    <path clip-path="url(#p970cb8b4df)" d="M 361.152 62.76096 
L 374.4576 62.76096 
" style="fill:none;stroke:#0014f5;stroke-width:1.5;"/>
    <path clip-path="url(#p970cb8b4df)" d="M 361.152 52.11648 
L 374.4576 52.11648 
" style="fill:none;stroke:#000afa;stroke-width:1.5;"/>
    <path clip-path="url(#p970cb8b4df)" d="M 361.152 41.472 
L 374.4576 41.472 
" style="fill:none;stroke:#0000ff;stroke-width:1.5;"/>
   </g>
   <g id="patch_8">
    <path d="M 361.152 307.584 
L 361.152 296.93952 
L 361.152 52.11648 
L 361.152 41.472 
L 374.4576 41.472 
L 374.4576 52.11648 
L 374.4576 296.93952 
L 374.4576 307.584 
z
" style="fill:none;stroke:#000000;stroke-linejoin:miter;stroke-width:0.8;"/>
   </g>
  </g>
 </g>
 <defs>
  <clipPath id="p9cc6c2fb90">
   <rect height="266.112" width="285.696" x="57.6" y="41.472"/>
  </clipPath>
  <clipPath id="p970cb8b4df">
   <rect height="266.112" width="13.3056" x="361.152" y="41.472"/>
  </clipPath>
 </defs>
</svg>
