<?xml version="1.0" encoding="utf-8" standalone="no"?>
<!DOCTYPE svg PUBLIC "-//W3C//DTD SVG 1.1//EN"
  "http://www.w3.org/Graphics/SVG/1.1/DTD/svg11.dtd">
<!-- Created with matplotlib (https://matplotlib.org/) -->
<svg height="345.6pt" version="1.1" viewBox="0 0 460.8 345.6" width="460.8pt" xmlns="http://www.w3.org/2000/svg" xmlns:xlink="http://www.w3.org/1999/xlink">
 <defs>
  <style type="text/css">
*{stroke-linecap:butt;stroke-linejoin:round;}
  </style>
 </defs>
 <g id="figure_1">
  <g id="patch_1">
   <path d="M 0 345.6 
L 460.8 345.6 
L 460.8 0 
L 0 0 
z
" style="fill:#ffffff;"/>
  </g>
  <g id="axes_1">
   <g id="patch_2">
    <path d="M 57.6 307.584 
L 343.296 307.584 
L 343.296 41.472 
L 57.6 41.472 
z
" style="fill:#ffffff;"/>
   </g>
   <g id="matplotlib.axis_1">
    <g id="xtick_1">
     <g id="line2d_1">
      <defs>
       <path d="M 0 0 
L 0 3.5 
" id="mdbe60d040d" style="stroke:#000000;stroke-width:0.8;"/>
      </defs>
      <g>
       <use style="stroke:#000000;stroke-width:0.8;" x="57.6" xlink:href="#mdbe60d040d" y="307.584"/>
      </g>
     </g>
     <g id="text_1">
      <!-- −1.0 -->
      <defs>
       <path d="M 10.59375 35.5 
L 73.1875 35.5 
L 73.1875 27.203125 
L 10.59375 27.203125 
z
" id="DejaVuSans-8722"/>
       <path d="M 12.40625 8.296875 
L 28.515625 8.296875 
L 28.515625 63.921875 
L 10.984375 60.40625 
L 10.984375 69.390625 
L 28.421875 72.90625 
L 38.28125 72.90625 
L 38.28125 8.296875 
L 54.390625 8.296875 
L 54.390625 0 
L 12.40625 0 
z
" id="DejaVuSans-49"/>
       <path d="M 10.6875 12.40625 
L 21 12.40625 
L 21 0 
L 10.6875 0 
z
" id="DejaVuSans-46"/>
       <path d="M 31.78125 66.40625 
Q 24.171875 66.40625 20.328125 58.90625 
Q 16.5 51.421875 16.5 36.375 
Q 16.5 21.390625 20.328125 13.890625 
Q 24.171875 6.390625 31.78125 6.390625 
Q 39.453125 6.390625 43.28125 13.890625 
Q 47.125 21.390625 47.125 36.375 
Q 47.125 51.421875 43.28125 58.90625 
Q 39.453125 66.40625 31.78125 66.40625 
z
M 31.78125 74.21875 
Q 44.046875 74.21875 50.515625 64.515625 
Q 56.984375 54.828125 56.984375 36.375 
Q 56.984375 17.96875 50.515625 8.265625 
Q 44.046875 -1.421875 31.78125 -1.421875 
Q 19.53125 -1.421875 13.0625 8.265625 
Q 6.59375 17.96875 6.59375 36.375 
Q 6.59375 54.828125 13.0625 64.515625 
Q 19.53125 74.21875 31.78125 74.21875 
z
" id="DejaVuSans-48"/>
      </defs>
      <g transform="translate(45.458594 322.182437)scale(0.1 -0.1)">
       <use xlink:href="#DejaVuSans-8722"/>
       <use x="83.789062" xlink:href="#DejaVuSans-49"/>
       <use x="147.412109" xlink:href="#DejaVuSans-46"/>
       <use x="179.199219" xlink:href="#DejaVuSans-48"/>
      </g>
     </g>
    </g>
    <g id="xtick_2">
     <g id="line2d_2">
      <g>
       <use style="stroke:#000000;stroke-width:0.8;" x="105.216" xlink:href="#mdbe60d040d" y="307.584"/>
      </g>
     </g>
     <g id="text_2">
      <!-- −0.5 -->
      <defs>
       <path d="M 10.796875 72.90625 
L 49.515625 72.90625 
L 49.515625 64.59375 
L 19.828125 64.59375 
L 19.828125 46.734375 
Q 21.96875 47.46875 24.109375 47.828125 
Q 26.265625 48.1875 28.421875 48.1875 
Q 40.625 48.1875 47.75 41.5 
Q 54.890625 34.8125 54.890625 23.390625 
Q 54.890625 11.625 47.5625 5.09375 
Q 40.234375 -1.421875 26.90625 -1.421875 
Q 22.3125 -1.421875 17.546875 -0.640625 
Q 12.796875 0.140625 7.71875 1.703125 
L 7.71875 11.625 
Q 12.109375 9.234375 16.796875 8.0625 
Q 21.484375 6.890625 26.703125 6.890625 
Q 35.15625 6.890625 40.078125 11.328125 
Q 45.015625 15.765625 45.015625 23.390625 
Q 45.015625 31 40.078125 35.4375 
Q 35.15625 39.890625 26.703125 39.890625 
Q 22.75 39.890625 18.8125 39.015625 
Q 14.890625 38.140625 10.796875 36.28125 
z
" id="DejaVuSans-53"/>
      </defs>
      <g transform="translate(93.074594 322.182437)scale(0.1 -0.1)">
       <use xlink:href="#DejaVuSans-8722"/>
       <use x="83.789062" xlink:href="#DejaVuSans-48"/>
       <use x="147.412109" xlink:href="#DejaVuSans-46"/>
       <use x="179.199219" xlink:href="#DejaVuSans-53"/>
      </g>
     </g>
    </g>
    <g id="xtick_3">
     <g id="line2d_3">
      <g>
       <use style="stroke:#000000;stroke-width:0.8;" x="152.832" xlink:href="#mdbe60d040d" y="307.584"/>
      </g>
     </g>
     <g id="text_3">
      <!-- 0.0 -->
      <g transform="translate(144.880437 322.182437)scale(0.1 -0.1)">
       <use xlink:href="#DejaVuSans-48"/>
       <use x="63.623047" xlink:href="#DejaVuSans-46"/>
       <use x="95.410156" xlink:href="#DejaVuSans-48"/>
      </g>
     </g>
    </g>
    <g id="xtick_4">
     <g id="line2d_4">
      <g>
       <use style="stroke:#000000;stroke-width:0.8;" x="200.448" xlink:href="#mdbe60d040d" y="307.584"/>
      </g>
     </g>
     <g id="text_4">
      <!-- 0.5 -->
      <g transform="translate(192.496437 322.182437)scale(0.1 -0.1)">
       <use xlink:href="#DejaVuSans-48"/>
       <use x="63.623047" xlink:href="#DejaVuSans-46"/>
       <use x="95.410156" xlink:href="#DejaVuSans-53"/>
      </g>
     </g>
    </g>
    <g id="xtick_5">
     <g id="line2d_5">
      <g>
       <use style="stroke:#000000;stroke-width:0.8;" x="248.064" xlink:href="#mdbe60d040d" y="307.584"/>
      </g>
     </g>
     <g id="text_5">
      <!-- 1.0 -->
      <g transform="translate(240.112437 322.182437)scale(0.1 -0.1)">
       <use xlink:href="#DejaVuSans-49"/>
       <use x="63.623047" xlink:href="#DejaVuSans-46"/>
       <use x="95.410156" xlink:href="#DejaVuSans-48"/>
      </g>
     </g>
    </g>
    <g id="xtick_6">
     <g id="line2d_6">
      <g>
       <use style="stroke:#000000;stroke-width:0.8;" x="295.68" xlink:href="#mdbe60d040d" y="307.584"/>
      </g>
     </g>
     <g id="text_6">
      <!-- 1.5 -->
      <g transform="translate(287.728437 322.182437)scale(0.1 -0.1)">
       <use xlink:href="#DejaVuSans-49"/>
       <use x="63.623047" xlink:href="#DejaVuSans-46"/>
       <use x="95.410156" xlink:href="#DejaVuSans-53"/>
      </g>
     </g>
    </g>
    <g id="xtick_7">
     <g id="line2d_7">
      <g>
       <use style="stroke:#000000;stroke-width:0.8;" x="343.296" xlink:href="#mdbe60d040d" y="307.584"/>
      </g>
     </g>
     <g id="text_7">
      <!-- 2.0 -->
      <defs>
       <path d="M 19.1875 8.296875 
L 53.609375 8.296875 
L 53.609375 0 
L 7.328125 0 
L 7.328125 8.296875 
Q 12.9375 14.109375 22.625 23.890625 
Q 32.328125 33.6875 34.8125 36.53125 
Q 39.546875 41.84375 41.421875 45.53125 
Q 43.3125 49.21875 43.3125 52.78125 
Q 43.3125 58.59375 39.234375 62.25 
Q 35.15625 65.921875 28.609375 65.921875 
Q 23.96875 65.921875 18.8125 64.3125 
Q 13.671875 62.703125 7.8125 59.421875 
L 7.8125 69.390625 
Q 13.765625 71.78125 18.9375 73 
Q 24.125 74.21875 28.421875 74.21875 
Q 39.75 74.21875 46.484375 68.546875 
Q 53.21875 62.890625 53.21875 53.421875 
Q 53.21875 48.921875 51.53125 44.890625 
Q 49.859375 40.875 45.40625 35.40625 
Q 44.1875 33.984375 37.640625 27.21875 
Q 31.109375 20.453125 19.1875 8.296875 
z
" id="DejaVuSans-50"/>
      </defs>
      <g transform="translate(335.344437 322.182437)scale(0.1 -0.1)">
       <use xlink:href="#DejaVuSans-50"/>
       <use x="63.623047" xlink:href="#DejaVuSans-46"/>
       <use x="95.410156" xlink:href="#DejaVuSans-48"/>
      </g>
     </g>
    </g>
   </g>
   <g id="matplotlib.axis_2">
    <g id="ytick_1">
     <g id="line2d_8">
      <defs>
       <path d="M 0 0 
L -3.5 0 
" id="m6532d20391" style="stroke:#000000;stroke-width:0.8;"/>
      </defs>
      <g>
       <use style="stroke:#000000;stroke-width:0.8;" x="57.6" xlink:href="#m6532d20391" y="307.584"/>
      </g>
     </g>
     <g id="text_8">
      <!-- −1.00 -->
      <g transform="translate(19.954687 311.383219)scale(0.1 -0.1)">
       <use xlink:href="#DejaVuSans-8722"/>
       <use x="83.789062" xlink:href="#DejaVuSans-49"/>
       <use x="147.412109" xlink:href="#DejaVuSans-46"/>
       <use x="179.199219" xlink:href="#DejaVuSans-48"/>
       <use x="242.822266" xlink:href="#DejaVuSans-48"/>
      </g>
     </g>
    </g>
    <g id="ytick_2">
     <g id="line2d_9">
      <g>
       <use style="stroke:#000000;stroke-width:0.8;" x="57.6" xlink:href="#m6532d20391" y="274.32"/>
      </g>
     </g>
     <g id="text_9">
      <!-- −0.75 -->
      <defs>
       <path d="M 8.203125 72.90625 
L 55.078125 72.90625 
L 55.078125 68.703125 
L 28.609375 0 
L 18.3125 0 
L 43.21875 64.59375 
L 8.203125 64.59375 
z
" id="DejaVuSans-55"/>
      </defs>
      <g transform="translate(19.954687 278.119219)scale(0.1 -0.1)">
       <use xlink:href="#DejaVuSans-8722"/>
       <use x="83.789062" xlink:href="#DejaVuSans-48"/>
       <use x="147.412109" xlink:href="#DejaVuSans-46"/>
       <use x="179.199219" xlink:href="#DejaVuSans-55"/>
       <use x="242.822266" xlink:href="#DejaVuSans-53"/>
      </g>
     </g>
    </g>
    <g id="ytick_3">
     <g id="line2d_10">
      <g>
       <use style="stroke:#000000;stroke-width:0.8;" x="57.6" xlink:href="#m6532d20391" y="241.056"/>
      </g>
     </g>
     <g id="text_10">
      <!-- −0.50 -->
      <g transform="translate(19.954687 244.855219)scale(0.1 -0.1)">
       <use xlink:href="#DejaVuSans-8722"/>
       <use x="83.789062" xlink:href="#DejaVuSans-48"/>
       <use x="147.412109" xlink:href="#DejaVuSans-46"/>
       <use x="179.199219" xlink:href="#DejaVuSans-53"/>
       <use x="242.822266" xlink:href="#DejaVuSans-48"/>
      </g>
     </g>
    </g>
    <g id="ytick_4">
     <g id="line2d_11">
      <g>
       <use style="stroke:#000000;stroke-width:0.8;" x="57.6" xlink:href="#m6532d20391" y="207.792"/>
      </g>
     </g>
     <g id="text_11">
      <!-- −0.25 -->
      <g transform="translate(19.954687 211.591219)scale(0.1 -0.1)">
       <use xlink:href="#DejaVuSans-8722"/>
       <use x="83.789062" xlink:href="#DejaVuSans-48"/>
       <use x="147.412109" xlink:href="#DejaVuSans-46"/>
       <use x="179.199219" xlink:href="#DejaVuSans-50"/>
       <use x="242.822266" xlink:href="#DejaVuSans-53"/>
      </g>
     </g>
    </g>
    <g id="ytick_5">
     <g id="line2d_12">
      <g>
       <use style="stroke:#000000;stroke-width:0.8;" x="57.6" xlink:href="#m6532d20391" y="174.528"/>
      </g>
     </g>
     <g id="text_12">
      <!-- 0.00 -->
      <g transform="translate(28.334375 178.327219)scale(0.1 -0.1)">
       <use xlink:href="#DejaVuSans-48"/>
       <use x="63.623047" xlink:href="#DejaVuSans-46"/>
       <use x="95.410156" xlink:href="#DejaVuSans-48"/>
       <use x="159.033203" xlink:href="#DejaVuSans-48"/>
      </g>
     </g>
    </g>
    <g id="ytick_6">
     <g id="line2d_13">
      <g>
       <use style="stroke:#000000;stroke-width:0.8;" x="57.6" xlink:href="#m6532d20391" y="141.264"/>
      </g>
     </g>
     <g id="text_13">
      <!-- 0.25 -->
      <g transform="translate(28.334375 145.063219)scale(0.1 -0.1)">
       <use xlink:href="#DejaVuSans-48"/>
       <use x="63.623047" xlink:href="#DejaVuSans-46"/>
       <use x="95.410156" xlink:href="#DejaVuSans-50"/>
       <use x="159.033203" xlink:href="#DejaVuSans-53"/>
      </g>
     </g>
    </g>
    <g id="ytick_7">
     <g id="line2d_14">
      <g>
       <use style="stroke:#000000;stroke-width:0.8;" x="57.6" xlink:href="#m6532d20391" y="108"/>
      </g>
     </g>
     <g id="text_14">
      <!-- 0.50 -->
      <g transform="translate(28.334375 111.799219)scale(0.1 -0.1)">
       <use xlink:href="#DejaVuSans-48"/>
       <use x="63.623047" xlink:href="#DejaVuSans-46"/>
       <use x="95.410156" xlink:href="#DejaVuSans-53"/>
       <use x="159.033203" xlink:href="#DejaVuSans-48"/>
      </g>
     </g>
    </g>
    <g id="ytick_8">
     <g id="line2d_15">
      <g>
       <use style="stroke:#000000;stroke-width:0.8;" x="57.6" xlink:href="#m6532d20391" y="74.736"/>
      </g>
     </g>
     <g id="text_15">
      <!-- 0.75 -->
      <g transform="translate(28.334375 78.535219)scale(0.1 -0.1)">
       <use xlink:href="#DejaVuSans-48"/>
       <use x="63.623047" xlink:href="#DejaVuSans-46"/>
       <use x="95.410156" xlink:href="#DejaVuSans-55"/>
       <use x="159.033203" xlink:href="#DejaVuSans-53"/>
      </g>
     </g>
    </g>
    <g id="ytick_9">
     <g id="line2d_16">
      <g>
       <use style="stroke:#000000;stroke-width:0.8;" x="57.6" xlink:href="#m6532d20391" y="41.472"/>
      </g>
     </g>
     <g id="text_16">
      <!-- 1.00 -->
      <g transform="translate(28.334375 45.271219)scale(0.1 -0.1)">
       <use xlink:href="#DejaVuSans-49"/>
       <use x="63.623047" xlink:href="#DejaVuSans-46"/>
       <use x="95.410156" xlink:href="#DejaVuSans-48"/>
       <use x="159.033203" xlink:href="#DejaVuSans-48"/>
      </g>
     </g>
    </g>
   </g>
   <g id="LineCollection_1"/>
   <g id="LineCollection_2">
    <path clip-path="url(#pff339808de)" d="M 343.296 174.511853 
L 343.102544 173.859377 
L 342.74925 172.522131 
L 342.439617 171.184884 
L 342.172296 169.847638 
L 341.94599 168.510392 
L 341.860342 167.899015 
L 341.759478 167.173146 
L 341.611548 165.835899 
L 341.501001 164.498653 
L 341.426698 163.161407 
L 341.387536 161.824161 
L 341.382441 160.486915 
L 341.41037 159.149668 
L 341.470307 157.812422 
L 341.561262 156.475176 
L 341.682268 155.13793 
L 341.832379 153.800683 
L 341.860342 153.591907 
L 342.010806 152.463437 
L 342.216576 151.126191 
L 342.448781 149.788945 
L 342.706554 148.451698 
L 342.989042 147.114452 
L 343.29541 145.777206 
L 343.296 145.774819 
" style="fill:none;stroke:#00f784;stroke-width:1.5;"/>
   </g>
   <g id="LineCollection_3">
    <path clip-path="url(#pff339808de)" d="M 343.296 193.636023 
L 342.457482 192.580824 
L 341.860342 191.78528 
L 341.45882 191.243578 
L 340.524684 189.906332 
L 340.424683 189.754615 
L 339.652663 188.569085 
L 338.989025 187.478122 
L 338.840984 187.231839 
L 338.087318 185.894593 
L 337.553367 184.873468 
L 337.389944 184.557347 
L 336.746794 183.220101 
L 336.156252 181.882854 
L 336.117709 181.788323 
L 335.616401 180.545608 
L 335.125723 179.208362 
L 334.682597 177.871116 
L 334.68205 177.869292 
L 334.28544 176.533869 
L 333.93284 175.196623 
L 333.623369 173.859377 
L 333.355661 172.522131 
L 333.246392 171.882141 
L 333.128418 171.184884 
L 332.940389 169.847638 
L 332.790349 168.510392 
L 332.677123 167.173146 
L 332.599577 165.835899 
L 332.556615 164.498653 
L 332.547177 163.161407 
L 332.570231 161.824161 
L 332.624779 160.486915 
L 332.709847 159.149668 
L 332.824488 157.812422 
L 332.967777 156.475176 
L 333.138812 155.13793 
L 333.246392 154.412925 
L 333.33677 153.800683 
L 333.560829 152.463437 
L 333.810077 151.126191 
L 334.083687 149.788945 
L 334.380846 148.451698 
L 334.68205 147.193005 
L 334.700773 147.114452 
L 335.042969 145.777206 
L 335.406406 144.43996 
L 335.790326 143.102714 
L 336.117709 142.019005 
L 336.194067 141.765467 
L 336.617205 140.428221 
L 337.058675 139.090975 
L 337.517764 137.753729 
L 337.553367 137.654034 
L 337.994338 136.416482 
L 338.487238 135.079236 
L 338.989025 133.759701 
L 338.995748 133.74199 
L 339.519945 132.404744 
L 340.058469 131.067497 
L 340.424683 130.181483 
L 340.610967 129.730251 
L 341.177139 128.393005 
L 341.755775 127.055759 
L 341.860342 126.819421 
L 342.347126 125.718513 
L 342.949958 124.381266 
L 343.296 123.627752 
" style="fill:none;stroke:#00f087;stroke-width:1.5;"/>
   </g>
   <g id="LineCollection_4">
    <path clip-path="url(#pff339808de)" d="M 343.296 205.626275 
L 342.097104 204.61604 
L 341.860342 204.408517 
L 340.591304 203.278794 
L 340.424683 203.124175 
L 339.169641 201.941548 
L 338.989025 201.76373 
L 337.829022 200.604302 
L 337.553367 200.315731 
L 336.566449 199.267055 
L 336.117709 198.766304 
L 335.379026 197.929809 
L 334.68205 197.098501 
L 334.263957 196.592563 
L 333.246392 195.291432 
L 333.218546 195.255317 
L 332.239862 193.91807 
L 331.810734 193.29483 
L 331.325772 192.580824 
L 330.473856 191.243578 
L 330.375075 191.078743 
L 329.681608 189.906332 
L 328.947186 188.569085 
L 328.939417 188.553974 
L 328.268182 187.231839 
L 327.642929 185.894593 
L 327.503759 185.573062 
L 327.069347 184.557347 
L 326.545756 183.220101 
L 326.070459 181.882854 
L 326.068101 181.87558 
L 325.641726 180.545608 
L 325.258101 179.208362 
L 324.918084 177.871116 
L 324.632442 176.589183 
L 324.620244 176.533869 
L 324.363213 175.196623 
L 324.145709 173.859377 
L 323.966479 172.522131 
L 323.82432 171.184884 
L 323.718078 169.847638 
L 323.646642 168.510392 
L 323.608938 167.173146 
L 323.603934 165.835899 
L 323.630626 164.498653 
L 323.688046 163.161407 
L 323.775251 161.824161 
L 323.891325 160.486915 
L 324.035378 159.149668 
L 324.206541 157.812422 
L 324.403965 156.475176 
L 324.626822 155.13793 
L 324.632442 155.107739 
L 324.874416 153.800683 
L 325.145865 152.463437 
L 325.440389 151.126191 
L 325.757222 149.788945 
L 326.068101 148.560953 
L 326.095632 148.451698 
L 326.455082 147.114452 
L 326.834661 145.777206 
L 327.233654 144.43996 
L 327.503759 143.576619 
L 327.651473 143.102714 
L 328.087552 141.765467 
L 328.541003 140.428221 
L 328.939417 139.295709 
L 329.011219 139.090975 
L 329.497867 137.753729 
L 329.999937 136.416482 
L 330.375075 135.446824 
L 330.516933 135.079236 
L 331.048501 133.74199 
L 331.593624 132.404744 
L 331.810734 131.885495 
L 332.152098 131.067497 
L 332.723202 129.730251 
L 333.246392 128.530292 
L 333.306158 128.393005 
L 333.901028 127.055759 
L 334.506543 125.718513 
L 334.68205 125.33794 
L 335.122788 124.381266 
L 335.748848 123.04402 
L 336.117709 122.268054 
L 336.384343 121.706774 
L 337.028938 120.369528 
L 337.553367 119.295291 
L 337.681727 119.032281 
L 338.342933 117.695035 
L 338.989025 116.402071 
L 339.011154 116.357789 
L 339.687131 115.020543 
L 340.36913 113.683296 
L 340.424683 113.575406 
L 341.058011 112.34605 
L 341.752122 111.008804 
L 341.860342 110.801952 
L 342.452234 109.671558 
L 343.156839 108.334312 
L 343.296 108.071891 
" style="fill:none;stroke:#00e78c;stroke-width:1.5;"/>
   </g>
   <g id="LineCollection_5">
    <path clip-path="url(#pff339808de)" d="M 343.296 215.559606 
L 340.424683 213.697329 
L 337.03767 211.302271 
L 333.246392 208.291186 
L 330.375075 205.71707 
L 327.503759 202.80054 
L 325.581269 200.604302 
L 323.196784 197.491842 
L 321.697337 195.255317 
L 320.132198 192.580824 
L 318.792695 189.906332 
L 317.454151 186.670567 
L 316.725369 184.557347 
L 315.969279 181.882854 
L 315.381633 179.208362 
L 314.951567 176.533869 
L 314.580365 172.522131 
L 314.51133 168.510392 
L 314.717641 164.498653 
L 315.175103 160.486915 
L 315.861498 156.475176 
L 316.756387 152.463437 
L 317.840434 148.451698 
L 319.548913 143.102714 
L 321.52091 137.753729 
L 323.718532 132.404744 
L 326.728492 125.718513 
L 330.375075 118.226467 
L 334.78944 109.671558 
L 341.995422 96.299095 
L 343.296 93.919034 
L 343.296 93.919034 
" style="fill:none;stroke:#00e08f;stroke-width:1.5;"/>
   </g>
   <g id="LineCollection_6">
    <path clip-path="url(#pff339808de)" d="M 343.296 224.509824 
L 338.446705 222.000241 
L 333.812814 219.325749 
L 329.685679 216.651256 
L 326.021015 213.976764 
L 322.774871 211.302271 
L 319.907869 208.627779 
L 317.383634 205.953286 
L 315.169633 203.278794 
L 313.147176 200.466819 
L 311.562923 197.929809 
L 310.123292 195.255317 
L 308.840201 192.434126 
L 307.875547 189.906332 
L 307.035877 187.231839 
L 306.367642 184.557347 
L 305.859199 181.882854 
L 305.373575 177.871116 
L 305.193125 173.859377 
L 305.290742 169.847638 
L 305.64238 165.835899 
L 306.226334 161.824161 
L 307.022683 157.812422 
L 308.012877 153.800683 
L 309.604561 148.451698 
L 311.470678 143.102714 
L 313.574294 137.753729 
L 316.484441 131.067497 
L 319.646478 124.381266 
L 323.689741 116.357789 
L 329.352961 105.659819 
L 343.296 79.922214 
L 343.296 79.922214 
" style="fill:none;stroke:#00d793;stroke-width:1.5;"/>
   </g>
   <g id="LineCollection_7">
    <path clip-path="url(#pff339808de)" d="M 343.296 232.935903 
L 337.553367 230.570067 
L 333.246392 228.620703 
L 328.052731 226.01198 
L 324.632442 224.099039 
L 320.325467 221.414646 
L 317.33543 219.325749 
L 313.928391 216.651256 
L 310.940357 213.976764 
L 308.324126 211.302271 
L 305.968884 208.538241 
L 304.050536 205.953286 
L 302.328732 203.278794 
L 300.848323 200.604302 
L 299.587583 197.929809 
L 298.527833 195.255317 
L 297.354935 191.514274 
L 296.657169 188.569085 
L 296.006081 184.557347 
L 295.666389 180.545608 
L 295.609838 176.533869 
L 295.812051 172.522131 
L 296.251526 168.510392 
L 296.908903 164.498653 
L 297.76641 160.486915 
L 298.80744 156.475176 
L 300.453816 151.126191 
L 302.362948 145.777206 
L 304.533226 140.351943 
L 307.444991 133.74199 
L 310.634478 127.055759 
L 314.704823 119.032281 
L 320.396684 108.334312 
L 339.118597 73.56591 
L 343.296 65.399186 
L 343.296 65.399186 
" style="fill:none;stroke:#00cf98;stroke-width:1.5;"/>
   </g>
   <g id="LineCollection_8">
    <path clip-path="url(#pff339808de)" d="M 343.296 241.095267 
L 336.117709 238.76206 
L 330.375075 236.69033 
L 324.632442 234.372284 
L 320.325467 232.426084 
L 315.594125 230.023719 
L 311.711518 227.785832 
L 308.840201 225.939981 
L 305.247496 223.337487 
L 302.040362 220.662995 
L 299.257733 217.988503 
L 296.844051 215.31401 
L 294.483618 212.260439 
L 292.947858 209.965025 
L 291.396134 207.290533 
L 290.071954 204.61604 
L 288.740985 201.365002 
L 288.022432 199.267055 
L 287.262843 196.592563 
L 286.41678 192.580824 
L 285.889556 188.569085 
L 285.650732 184.557347 
L 285.674709 180.545608 
L 285.939817 176.533869 
L 286.427137 172.522131 
L 287.305327 167.606565 
L 288.002177 164.498653 
L 289.449097 159.149668 
L 291.175286 153.800683 
L 293.149549 148.451698 
L 295.341418 143.102714 
L 298.3421 136.416482 
L 302.250853 128.393005 
L 307.117814 119.032281 
L 314.582834 105.305303 
L 326.782579 82.926633 
L 333.057747 70.891417 
L 338.378911 60.193447 
L 343.296 49.803816 
L 343.296 49.803816 
" style="fill:none;stroke:#00c79c;stroke-width:1.5;"/>
   </g>
   <g id="LineCollection_9">
    <path clip-path="url(#pff339808de)" d="M 343.296 249.158937 
L 334.68205 247.041457 
L 327.503759 245.078568 
L 321.761126 243.322943 
L 316.018492 241.342791 
L 311.031988 239.384442 
L 307.404543 237.778631 
L 303.097568 235.622091 
L 300.226251 233.997323 
L 297.354935 232.184353 
L 294.323343 230.023719 
L 291.08016 227.349226 
L 288.308506 224.674734 
L 285.869668 221.921865 
L 283.896448 219.325749 
L 282.150658 216.651256 
L 280.659088 213.976764 
L 279.391922 211.302271 
L 278.324795 208.627779 
L 277.255719 205.320727 
L 276.410417 201.941548 
L 275.707218 197.929809 
L 275.294034 193.91807 
L 275.143014 189.906332 
L 275.231876 185.894593 
L 275.541985 181.882854 
L 276.057423 177.871116 
L 276.764106 173.859377 
L 277.649265 169.847638 
L 279.086603 164.498653 
L 280.793204 159.149668 
L 282.998352 153.148941 
L 284.909698 148.451698 
L 287.883599 141.765467 
L 291.104575 135.079236 
L 295.224112 127.055759 
L 301.00872 116.357789 
L 321.761126 78.555354 
L 327.060493 68.216925 
L 332.267513 57.518955 
L 336.586131 48.158231 
L 339.53968 41.472 
L 339.53968 41.472 
" style="fill:none;stroke:#00bfa0;stroke-width:1.5;"/>
   </g>
   <g id="LineCollection_10">
    <path clip-path="url(#pff339808de)" d="M 343.296 257.257401 
L 328.939417 254.785415 
L 320.325467 253.099629 
L 312.878048 251.419658 
L 307.404543 249.990059 
L 301.66191 248.241149 
L 297.354935 246.706011 
L 293.04796 244.917816 
L 289.880098 243.396181 
L 287.305327 241.998625 
L 284.43401 240.230067 
L 281.378793 238.047196 
L 278.691377 235.793776 
L 276.862474 234.035457 
L 274.384402 231.271075 
L 272.431971 228.686472 
L 270.718486 226.01198 
L 269.268847 223.337487 
L 268.045598 220.662995 
L 267.019294 217.988503 
L 266.167622 215.31401 
L 265.177243 211.302271 
L 264.489856 207.290533 
L 264.07042 203.278794 
L 263.89158 199.267055 
L 263.932325 195.255317 
L 264.176069 191.243578 
L 264.609415 187.231839 
L 265.220844 183.220101 
L 266.296025 177.871116 
L 267.649101 172.522131 
L 269.260336 167.173146 
L 271.110339 161.824161 
L 273.179306 156.475176 
L 276.041871 149.788945 
L 279.171808 143.102714 
L 283.218087 135.079236 
L 288.238672 125.718513 
L 295.919276 112.024106 
L 308.840201 89.054817 
L 314.582834 78.371124 
L 319.11791 69.554171 
L 323.704645 60.193447 
L 328.04909 50.832724 
L 332.156939 41.472 
L 332.156939 41.472 
" style="fill:none;stroke:#00b8a3;stroke-width:1.5;"/>
   </g>
   <g id="LineCollection_11">
    <path clip-path="url(#pff339808de)" d="M 343.296 265.503104 
L 303.097568 261.660694 
L 295.919276 260.655377 
L 290.176643 259.637962 
L 285.869668 258.693228 
L 281.562693 257.53306 
L 277.255719 256.080375 
L 274.384402 254.8956 
L 271.513085 253.484517 
L 268.641769 251.782409 
L 266.258659 250.082412 
L 264.334794 248.467879 
L 261.950398 246.070673 
L 260.027819 243.717073 
L 258.592161 241.626844 
L 257.156503 239.154939 
L 255.720844 236.146862 
L 254.879706 234.035457 
L 253.981189 231.360965 
L 252.928172 227.349226 
L 252.172088 223.337487 
L 251.664581 219.325749 
L 251.374536 215.31401 
L 251.279278 211.302271 
L 251.413869 206.204285 
L 251.72615 201.941548 
L 252.363289 196.592563 
L 253.257462 191.243578 
L 254.396883 185.894593 
L 255.771574 180.545608 
L 257.37181 175.196623 
L 259.187403 169.847638 
L 261.463477 163.860889 
L 263.418113 159.149668 
L 266.428298 152.463437 
L 270.077427 144.996844 
L 273.854519 137.753729 
L 279.00578 128.393005 
L 286.675224 115.020543 
L 298.996399 93.624603 
L 304.908297 82.926633 
L 310.275859 72.743278 
L 314.582834 64.142182 
L 318.991384 54.844462 
L 323.196784 45.424701 
L 324.886444 41.472 
L 324.886444 41.472 
" style="fill:none;stroke:#00afa8;stroke-width:1.5;"/>
   </g>
   <g id="LineCollection_12">
    <path clip-path="url(#pff339808de)" d="M 343.296 274.002913 
L 333.246392 273.908019 
L 323.196784 274.045673 
L 313.147176 274.413915 
L 303.097568 275.00652 
L 293.04796 275.811461 
L 281.562693 276.957096 
L 258.592161 279.382478 
L 254.285186 279.604384 
L 251.413869 279.606984 
L 248.542553 279.415337 
L 245.671236 278.907224 
L 243.491771 278.164583 
L 242.79992 277.848013 
L 241.178267 276.827337 
L 239.727781 275.49009 
L 238.492945 273.854248 
L 237.279881 271.478352 
L 236.776201 270.141106 
L 236.014574 267.466613 
L 235.473689 264.792121 
L 234.939525 260.780382 
L 234.619166 256.768643 
L 234.422249 251.419658 
L 234.444807 244.733427 
L 234.701961 238.047196 
L 235.164998 231.360965 
L 235.827668 224.674734 
L 236.695091 217.988503 
L 237.776178 211.302271 
L 239.083254 204.61604 
L 240.629461 197.929809 
L 242.426349 191.243578 
L 244.48295 184.557347 
L 246.804112 177.871116 
L 249.389419 171.184884 
L 252.232473 164.498653 
L 255.32031 157.812422 
L 259.32057 149.788945 
L 263.59884 141.765467 
L 268.86585 132.404744 
L 275.916268 120.369528 
L 291.668702 93.624603 
L 297.658443 82.926633 
L 302.649257 73.56591 
L 307.404543 64.144063 
L 311.822034 54.844462 
L 316.018492 45.423043 
L 317.698012 41.472 
L 317.698012 41.472 
" style="fill:none;stroke:#00a7ac;stroke-width:1.5;"/>
   </g>
   <g id="LineCollection_13">
    <path clip-path="url(#pff339808de)" d="M 165.367163 307.584 
L 171.30825 300.897769 
L 179.97914 291.537045 
L 188.550677 282.176322 
L 193.155512 276.827337 
L 197.416204 271.478352 
L 201.165829 266.286643 
L 203.050527 263.454874 
L 205.518734 259.443136 
L 207.776799 255.431397 
L 210.484204 250.082412 
L 212.900113 244.733427 
L 215.085545 239.384442 
L 217.574073 232.698211 
L 220.773722 223.337487 
L 229.2547 197.929809 
L 232.203705 189.906332 
L 235.387127 181.882854 
L 238.839261 173.859377 
L 242.576723 165.835899 
L 246.598346 157.812422 
L 250.885759 149.788945 
L 256.177022 140.428221 
L 262.899136 129.086597 
L 273.101059 112.34605 
L 281.959628 97.636342 
L 288.150093 86.938372 
L 293.314818 77.577648 
L 298.205679 68.216925 
L 302.165357 60.193447 
L 305.968884 52.032463 
L 309.434393 44.146492 
L 310.564059 41.472 
L 310.564059 41.472 
" style="fill:none;stroke:#009fb0;stroke-width:1.5;"/>
    <path clip-path="url(#pff339808de)" d="M 343.296 282.871731 
L 341.860342 282.958057 
L 340.424683 283.05281 
L 338.989025 283.156115 
L 337.553367 283.268105 
L 336.117709 283.38892 
L 334.73817 283.513568 
L 334.68205 283.51875 
L 333.246392 283.65878 
L 331.810734 283.808176 
L 330.375075 283.96711 
L 328.939417 284.13577 
L 327.503759 284.314351 
L 326.068101 284.503061 
L 324.632442 284.70212 
L 323.60955 284.850814 
L 323.196784 284.912254 
L 321.761126 285.134499 
L 320.325467 285.367917 
L 318.889809 285.612788 
L 317.454151 285.869409 
L 316.018492 286.1381 
L 315.759662 286.18806 
L 314.582834 286.421075 
L 313.147176 286.717314 
L 311.711518 287.026797 
L 310.275859 287.349936 
L 309.522587 287.525307 
L 308.840201 287.688501 
L 307.404543 288.043179 
L 305.968884 288.413038 
L 304.533226 288.798627 
L 304.300965 288.862553 
L 303.097568 289.203315 
L 301.66191 289.625593 
L 300.226251 290.065618 
L 299.799702 290.199799 
L 298.790593 290.526816 
L 297.354935 291.008539 
L 295.919276 291.510542 
L 295.844958 291.537045 
L 294.483618 292.037889 
L 293.04796 292.587838 
L 292.322235 292.874291 
L 291.612302 293.163683 
L 290.176643 293.766797 
L 289.154664 294.211538 
L 288.740985 294.397659 
L 287.305327 295.060088 
L 286.283503 295.548784 
L 285.869668 295.753649 
L 284.43401 296.482696 
L 283.664664 296.88603 
L 282.998352 297.24806 
L 281.562693 298.052473 
L 281.264874 298.223276 
L 280.127035 298.900493 
L 279.054679 299.560523 
L 278.691377 299.792744 
L 277.255719 300.73456 
L 277.012614 300.897769 
L 275.82006 301.730453 
L 275.117721 302.235015 
L 274.384402 302.783342 
L 273.35678 303.572261 
L 272.948744 303.898557 
L 271.715015 304.909508 
L 271.513085 305.081996 
L 270.179933 306.246754 
L 270.077427 306.340186 
L 268.740925 307.584 
" style="fill:none;stroke:#009fb0;stroke-width:1.5;"/>
   </g>
   <g id="LineCollection_14">
    <path clip-path="url(#pff339808de)" d="M 145.420913 307.584 
L 150.477078 300.897769 
L 155.224764 294.948098 
L 162.530323 286.18806 
L 178.311773 267.466613 
L 183.595596 260.780382 
L 188.244905 254.494877 
L 191.304892 250.082412 
L 194.78373 244.733427 
L 198.294513 238.906661 
L 201.751772 232.698211 
L 205.472804 225.461529 
L 209.054814 217.988503 
L 214.086754 206.894105 
L 222.922056 187.231839 
L 227.36831 177.871116 
L 232.07816 168.510392 
L 236.351572 160.486915 
L 241.612924 151.126191 
L 247.139537 141.765467 
L 254.533977 129.730251 
L 276.113477 94.961849 
L 281.582159 85.601126 
L 286.787571 76.240402 
L 291.015159 68.216925 
L 295.014827 60.193447 
L 298.790593 52.155432 
L 302.326623 44.146492 
L 303.458701 41.472 
L 303.458701 41.472 
" style="fill:none;stroke:#0097b3;stroke-width:1.5;"/>
    <path clip-path="url(#pff339808de)" d="M 343.296 292.235912 
L 341.860342 292.449599 
L 340.424683 292.675758 
L 339.229009 292.874291 
L 338.989025 292.915035 
L 337.553367 293.169314 
L 336.117709 293.437031 
L 334.68205 293.718503 
L 333.246392 294.014062 
L 332.327223 294.211538 
L 331.810734 294.325127 
L 330.375075 294.653003 
L 328.939417 294.996217 
L 327.503759 295.355187 
L 326.757569 295.548784 
L 326.068101 295.732086 
L 324.632442 296.127645 
L 323.196784 296.540515 
L 322.041548 296.88603 
L 321.761126 296.972046 
L 320.325467 297.425465 
L 318.889809 297.898046 
L 317.936215 298.223276 
L 317.454151 298.392044 
L 316.018492 298.909849 
L 314.582834 299.449035 
L 314.293699 299.560523 
L 313.147176 300.014749 
L 311.711518 300.604722 
L 311.019891 300.897769 
L 310.275859 301.221896 
L 308.840201 301.867158 
L 308.047085 302.235015 
L 307.404543 302.541639 
L 305.968884 303.247294 
L 305.326726 303.572261 
L 304.533226 303.985709 
L 303.097568 304.757562 
L 302.821604 304.909508 
L 301.66191 305.567434 
L 300.502715 306.246754 
L 300.226251 306.413759 
L 298.790593 307.302007 
L 298.346485 307.584 
" style="fill:none;stroke:#0097b3;stroke-width:1.5;"/>
   </g>
   <g id="LineCollection_15">
    <path clip-path="url(#pff339808de)" d="M 130.340081 307.584 
L 133.976244 302.235015 
L 138.797735 295.548784 
L 143.886256 288.862553 
L 150.917789 280.047267 
L 173.058076 252.756905 
L 178.195296 245.93006 
L 182.853858 239.384442 
L 187.326115 232.698211 
L 191.522918 226.01198 
L 195.477893 219.325749 
L 199.972925 211.302271 
L 205.689219 200.604302 
L 219.128888 175.196623 
L 225.106049 164.498653 
L 231.382967 153.800683 
L 237.950719 143.102714 
L 247.106894 128.740573 
L 266.160178 98.973588 
L 271.843192 89.612864 
L 277.265 80.252141 
L 281.673295 72.228663 
L 285.869668 64.157063 
L 289.774866 56.181709 
L 293.463021 48.158231 
L 296.356938 41.472 
L 296.356938 41.472 
" style="fill:none;stroke:#008fb8;stroke-width:1.5;"/>
    <path clip-path="url(#pff339808de)" d="M 343.296 302.250953 
L 341.860342 302.613243 
L 340.424683 302.992727 
L 338.989025 303.389833 
L 338.353608 303.572261 
L 337.553367 303.807482 
L 336.117709 304.245795 
L 334.68205 304.703334 
L 334.057108 304.909508 
L 333.246392 305.183527 
L 331.810734 305.686437 
L 330.375075 306.210446 
L 330.278283 306.246754 
L 328.939417 306.761658 
L 327.503759 307.335857 
L 326.902397 307.584 
" style="fill:none;stroke:#008fb8;stroke-width:1.5;"/>
   </g>
   <g id="LineCollection_16">
    <path clip-path="url(#pff339808de)" d="M 117.65374 307.584 
L 121.03037 302.235015 
L 125.517461 295.548784 
L 130.279798 288.862553 
L 135.28381 282.176322 
L 142.611287 272.815598 
L 155.224764 257.190575 
L 163.01221 247.40792 
L 169.581347 238.815591 
L 175.006742 231.360965 
L 179.636361 224.674734 
L 184.912973 216.651256 
L 189.926063 208.627779 
L 196.320853 197.929809 
L 218.437089 160.486915 
L 225.57202 149.138957 
L 232.973536 137.753729 
L 260.208045 96.299095 
L 265.942981 86.938372 
L 270.628206 78.914894 
L 275.0769 70.891417 
L 279.275586 62.86794 
L 283.219419 54.844462 
L 286.910159 46.820985 
L 289.2339 41.472 
L 289.2339 41.472 
" style="fill:none;stroke:#0087bc;stroke-width:1.5;"/>
   </g>
   <g id="LineCollection_17">
    <path clip-path="url(#pff339808de)" d="M 106.439029 307.584 
L 110.719357 300.454083 
L 115.026332 293.763493 
L 119.333307 287.453657 
L 125.07594 279.495421 
L 131.156719 271.478352 
L 139.584718 260.780382 
L 158.09608 237.459173 
L 164.733302 228.686472 
L 171.017005 219.996109 
L 177.010777 211.302271 
L 183.183397 201.941548 
L 191.116221 189.450282 
L 208.521133 161.824161 
L 216.95807 148.948984 
L 224.502008 137.753729 
L 249.978211 100.183884 
L 255.877676 90.950111 
L 261.574797 81.589387 
L 266.197429 73.56591 
L 270.562051 65.542432 
L 274.660659 57.518955 
L 278.691377 49.062886 
L 282.064087 41.472 
L 282.064087 41.472 
" style="fill:none;stroke:#007fc0;stroke-width:1.5;"/>
   </g>
   <g id="LineCollection_18">
    <path clip-path="url(#pff339808de)" d="M 96.232055 307.584 
L 99.254853 302.235015 
L 103.541065 295.12821 
L 107.84804 288.438531 
L 113.045335 280.839075 
L 117.897648 274.09865 
L 124.914184 264.792121 
L 132.254231 255.40047 
L 153.29006 228.686472 
L 160.967397 218.452148 
L 167.085077 209.965025 
L 174.498293 199.267055 
L 183.437237 185.894593 
L 204.785807 153.800683 
L 215.522412 138.285061 
L 241.968464 100.310834 
L 248.097372 90.950111 
L 253.115833 82.926633 
L 257.885845 74.903156 
L 262.389015 66.879678 
L 266.614978 58.856201 
L 270.561966 50.832724 
L 274.234778 42.809246 
L 274.820585 41.472 
L 274.820585 41.472 
" style="fill:none;stroke:#0077c3;stroke-width:1.5;"/>
   </g>
   <g id="LineCollection_19">
    <path clip-path="url(#pff339808de)" d="M 86.757714 307.584 
L 90.620141 300.509956 
L 94.304264 294.211538 
L 98.462269 287.525307 
L 102.866077 280.839075 
L 107.84804 273.660701 
L 113.590673 265.774279 
L 120.768965 256.320942 
L 132.254231 241.670371 
L 145.551427 224.674734 
L 153.789106 213.783862 
L 161.452228 203.278794 
L 169.926806 191.243578 
L 183.93793 170.822431 
L 195.719507 153.800683 
L 206.908462 138.0632 
L 234.18597 99.841051 
L 240.147355 90.950111 
L 245.671236 82.316591 
L 250.177069 74.903156 
L 254.785782 66.879678 
L 259.106304 58.856201 
L 263.135815 50.832724 
L 266.877776 42.809246 
L 267.4742 41.472 
L 267.4742 41.472 
" style="fill:none;stroke:#006fc8;stroke-width:1.5;"/>
   </g>
   <g id="LineCollection_20">
    <path clip-path="url(#pff339808de)" d="M 77.836622 307.584 
L 81.343978 300.897769 
L 85.097447 294.211538 
L 89.184482 287.384838 
L 93.491457 280.606016 
L 98.730494 272.815598 
L 104.416955 264.792121 
L 110.719357 256.279864 
L 119.582432 244.733427 
L 144.441279 212.639518 
L 153.354121 200.604302 
L 162.403055 187.993592 
L 195.423196 141.530453 
L 211.215437 120.115231 
L 222.705956 104.322573 
L 230.178875 93.624603 
L 235.621628 85.472148 
L 240.641259 77.577648 
L 245.466017 69.554171 
L 249.259881 62.86794 
L 252.849528 56.172615 
L 256.867306 48.158231 
L 259.992315 41.472 
L 259.992315 41.472 
" style="fill:none;stroke:#0067cc;stroke-width:1.5;"/>
   </g>
   <g id="LineCollection_21">
    <path clip-path="url(#pff339808de)" d="M 69.348557 307.584 
L 72.738099 300.897769 
L 76.363119 294.211538 
L 80.570533 286.950271 
L 85.171641 279.501829 
L 90.43673 271.478352 
L 95.049648 264.792121 
L 101.805033 255.431397 
L 109.283698 245.473015 
L 122.23448 228.686472 
L 135.569955 211.302271 
L 145.522148 197.929809 
L 156.156514 183.220101 
L 181.133335 148.451698 
L 192.551879 133.083574 
L 216.008534 101.64808 
L 222.700704 92.229636 
L 228.443337 83.779377 
L 233.319915 76.240402 
L 238.228003 68.216925 
L 242.08248 61.530693 
L 245.719502 54.844462 
L 249.135523 48.158231 
L 252.335855 41.472 
L 252.335855 41.472 
" style="fill:none;stroke:#005fd0;stroke-width:1.5;"/>
   </g>
   <g id="LineCollection_22">
    <path clip-path="url(#pff339808de)" d="M 61.202243 307.584 
L 64.778291 300.332355 
L 68.0042 294.211538 
L 71.956583 287.162287 
L 76.536837 279.501829 
L 81.641314 271.478352 
L 86.313166 264.507829 
L 92.690315 255.431397 
L 99.546953 246.070673 
L 109.657646 232.698211 
L 130.977031 204.61604 
L 140.868181 191.160379 
L 154.267731 172.522131 
L 168.758454 152.463437 
L 179.697788 137.753729 
L 192.938531 120.369528 
L 206.116704 102.985327 
L 212.974025 93.624603 
L 218.627021 85.601126 
L 224.136362 77.404804 
L 229.126713 69.554171 
L 233.141073 62.86794 
L 237.057286 55.949513 
L 240.48931 49.495477 
L 244.235578 41.947415 
L 244.462271 41.472 
L 244.462271 41.472 
" style="fill:none;stroke:#0057d3;stroke-width:1.5;"/>
   </g>
   <g id="LineCollection_23">
    <path clip-path="url(#pff339808de)" d="M 57.6 298.754333 
L 61.37339 291.537045 
L 65.097075 284.850814 
L 69.085266 278.086302 
L 74.04584 270.141106 
L 79.335291 262.117628 
L 84.877508 254.091774 
L 92.055799 244.110627 
L 102.105407 230.594133 
L 123.640281 201.816013 
L 134.234904 187.231839 
L 164.086097 145.777206 
L 174.158443 132.404744 
L 188.609384 113.683296 
L 199.872492 98.973588 
L 206.908462 89.45314 
L 213.404562 80.252141 
L 218.771608 72.228663 
L 223.005946 65.542432 
L 227.011482 58.856201 
L 231.314653 51.184624 
L 234.310668 45.483739 
L 236.314938 41.472 
L 236.314938 41.472 
" style="fill:none;stroke:#004fd8;stroke-width:1.5;"/>
   </g>
   <g id="LineCollection_24">
    <path clip-path="url(#pff339808de)" d="M 57.6 284.040381 
L 61.906975 276.603698 
L 66.694093 268.803859 
L 71.956583 260.673898 
L 78.248457 251.419658 
L 84.877508 242.053635 
L 94.927116 228.291989 
L 116.242113 199.267055 
L 128.619725 181.882854 
L 150.917789 150.368185 
L 159.531739 138.669526 
L 168.358257 127.055759 
L 181.906735 109.671558 
L 193.288876 94.961849 
L 200.273672 85.601126 
L 206.005197 77.577648 
L 211.215437 69.907052 
L 215.736476 62.86794 
L 219.829387 56.108804 
L 224.136362 48.49715 
L 227.145843 42.809246 
L 227.82645 41.472 
L 227.82645 41.472 
" style="fill:none;stroke:#0047dc;stroke-width:1.5;"/>
   </g>
   <g id="LineCollection_25">
    <path clip-path="url(#pff339808de)" d="M 57.6 270.62916 
L 62.060513 263.454874 
L 67.649608 254.880962 
L 73.642733 246.070673 
L 82.130967 234.035457 
L 115.026332 187.964111 
L 127.461999 169.847638 
L 139.470231 152.463437 
L 147.10534 141.765467 
L 155.224764 130.797055 
L 163.838714 119.567813 
L 175.826579 104.322573 
L 186.809246 90.247434 
L 193.987538 80.691443 
L 199.730171 72.679999 
L 204.588151 65.542432 
L 208.895181 58.856201 
L 212.95232 52.16997 
L 216.95807 45.107047 
L 218.906184 41.472 
L 218.906184 41.472 
" style="fill:none;stroke:#003fe0;stroke-width:1.5;"/>
   </g>
   <g id="LineCollection_26">
    <path clip-path="url(#pff339808de)" d="M 57.6 258.052891 
L 63.695372 248.745166 
L 70.983466 238.047196 
L 82.23507 222.000241 
L 97.212011 200.604302 
L 107.198446 185.894593 
L 120.768965 165.37004 
L 131.165835 149.788945 
L 138.578771 139.090975 
L 145.339361 129.730251 
L 152.375001 120.369528 
L 160.967397 109.333142 
L 183.93793 80.087668 
L 189.756857 72.228663 
L 195.423196 64.174597 
L 199.843536 57.518955 
L 204.037146 50.81688 
L 208.344121 43.431423 
L 209.431155 41.472 
L 209.431155 41.472 
" style="fill:none;stroke:#0037e3;stroke-width:1.5;"/>
   </g>
   <g id="LineCollection_27">
    <path clip-path="url(#pff339808de)" d="M 57.6 245.952536 
L 65.595554 234.035457 
L 93.672068 192.580824 
L 102.265511 179.208362 
L 127.755293 139.090975 
L 133.689889 130.420862 
L 139.432523 122.404952 
L 145.175156 114.718511 
L 152.353447 105.466009 
L 163.940455 90.950111 
L 174.506713 77.577648 
L 181.066613 68.912176 
L 186.809246 60.916125 
L 191.116221 54.570127 
L 195.423196 47.830957 
L 199.223077 41.472 
L 199.223077 41.472 
" style="fill:none;stroke:#002fe8;stroke-width:1.5;"/>
   </g>
   <g id="LineCollection_28">
    <path clip-path="url(#pff339808de)" d="M 57.6 233.993627 
L 79.653011 200.604302 
L 87.227079 188.569085 
L 94.927116 175.81968 
L 102.336634 163.161407 
L 113.590673 143.970039 
L 119.333307 134.635603 
L 124.235407 127.055759 
L 129.713303 119.032281 
L 135.510442 111.008804 
L 141.609555 102.985327 
L 149.482131 93.053231 
L 170.378635 66.879678 
L 175.386244 60.193447 
L 180.146359 53.507216 
L 184.632562 46.820985 
L 188.010302 41.472 
L 188.010302 41.472 
" style="fill:none;stroke:#0027ec;stroke-width:1.5;"/>
   </g>
   <g id="LineCollection_29">
    <path clip-path="url(#pff339808de)" d="M 57.6 221.796728 
L 66.874528 207.290533 
L 73.475134 196.592563 
L 79.134874 187.02767 
L 84.326702 177.871116 
L 90.85208 165.835899 
L 108.660344 132.404744 
L 113.332271 124.381266 
L 117.477472 117.695035 
L 121.892858 111.008804 
L 126.596671 104.322573 
L 131.578289 97.636342 
L 137.996864 89.463269 
L 146.611234 78.914894 
L 159.531739 63.052356 
L 165.274372 55.635931 
L 169.795119 49.495477 
L 174.433647 42.809246 
L 175.326716 41.472 
L 175.326716 41.472 
" style="fill:none;stroke:#001ff0;stroke-width:1.5;"/>
   </g>
   <g id="LineCollection_30">
    <path clip-path="url(#pff339808de)" d="M 57.6 208.819135 
L 62.497073 200.604302 
L 67.838645 191.243578 
L 72.186051 183.220101 
L 76.312266 175.196623 
L 80.864996 165.835899 
L 85.793783 155.13793 
L 98.504957 127.055759 
L 102.502679 119.032281 
L 106.114822 112.34605 
L 109.283698 106.917814 
L 112.587961 101.64808 
L 116.46199 95.914851 
L 120.048381 90.950111 
L 125.202177 84.263879 
L 130.818573 77.379997 
L 139.432523 67.214244 
L 149.836068 54.844462 
L 155.224764 48.113788 
L 160.241352 41.472 
L 160.241352 41.472 
" style="fill:none;stroke:#0017f3;stroke-width:1.5;"/>
   </g>
   <g id="LineCollection_31">
    <path clip-path="url(#pff339808de)" d="M 57.6 194.038708 
L 60.471317 188.500354 
L 64.365118 180.545608 
L 68.006687 172.522131 
L 71.366499 164.498653 
L 74.467223 156.475176 
L 77.811577 147.114452 
L 81.826514 135.079236 
L 86.689347 120.369528 
L 89.555774 112.34605 
L 92.198597 105.659819 
L 94.551227 100.310834 
L 97.179903 94.961849 
L 99.369664 90.950111 
L 102.105407 86.400062 
L 104.976724 82.07501 
L 107.84804 78.10987 
L 110.719357 74.42141 
L 114.774666 69.554171 
L 119.515257 64.205186 
L 129.428982 53.507216 
L 136.76929 45.483739 
L 140.292672 41.472 
L 140.292672 41.472 
" style="fill:none;stroke:#000ff8;stroke-width:1.5;"/>
   </g>
   <g id="LineCollection_32">
    <path clip-path="url(#pff339808de)" d="M 57.6 174.521782 
L 57.857246 173.859377 
L 58.363838 172.522131 
L 58.859898 171.184884 
L 59.035658 170.697952 
L 59.345345 169.847638 
L 59.820172 168.510392 
L 60.284446 167.173146 
L 60.471317 166.619167 
L 60.738045 165.835899 
L 61.180996 164.498653 
L 61.613442 163.161407 
L 61.906975 162.228166 
L 62.035323 161.824161 
L 62.446505 160.486915 
L 62.847294 159.149668 
L 63.237765 157.812422 
L 63.342633 157.440366 
L 63.61762 156.475176 
L 63.987116 155.13793 
L 64.346476 153.800683 
L 64.695795 152.463437 
L 64.778291 152.135067 
L 65.034681 151.126191 
L 65.363507 149.788945 
L 65.682526 148.451698 
L 65.991846 147.114452 
L 66.21395 146.119758 
L 66.291381 145.777206 
L 66.580844 144.43996 
L 66.860876 143.102714 
L 67.13159 141.765467 
L 67.393101 140.428221 
L 67.645522 139.090975 
L 67.649608 139.068151 
L 67.888109 137.753729 
L 68.121758 136.416482 
L 68.346594 135.079236 
L 68.562726 133.74199 
L 68.77026 132.404744 
L 68.969297 131.067497 
L 69.085266 130.247762 
L 69.159569 129.730251 
L 69.340942 128.393005 
L 69.51405 127.055759 
L 69.678972 125.718513 
L 69.835784 124.381266 
L 69.98455 123.04402 
L 70.125327 121.706774 
L 70.25816 120.369528 
L 70.383083 119.032281 
L 70.500116 117.695035 
L 70.520925 117.434849 
L 70.608558 116.357789 
L 70.708928 115.020543 
L 70.801354 113.683296 
L 70.885787 112.34605 
L 70.962154 111.008804 
L 71.030353 109.671558 
L 71.090253 108.334312 
L 71.141687 106.997065 
L 71.184448 105.659819 
L 71.218282 104.322573 
L 71.242883 102.985327 
L 71.257883 101.64808 
L 71.262842 100.310834 
L 71.257239 98.973588 
L 71.240452 97.636342 
L 71.211745 96.299095 
L 71.170246 94.961849 
L 71.114915 93.624603 
L 71.04452 92.287357 
L 70.957584 90.950111 
L 70.85234 89.612864 
L 70.726659 88.275618 
L 70.57796 86.938372 
L 70.520925 86.486121 
L 70.399803 85.601126 
L 70.188511 84.263879 
L 69.940278 82.926633 
L 69.648417 81.589387 
L 69.304366 80.252141 
L 69.085266 79.508061 
L 68.889012 78.914894 
L 68.380153 77.577648 
L 67.763312 76.240402 
L 67.649608 76.021854 
L 66.967465 74.903156 
L 66.21395 73.880322 
L 65.93444 73.56591 
L 64.778291 72.45441 
L 64.482631 72.228663 
L 63.342633 71.467383 
L 62.180547 70.891417 
L 61.906975 70.770745 
L 60.471317 70.278056 
L 59.035658 69.933135 
L 57.6 69.698895 
" style="fill:none;stroke:#0007fc;stroke-width:1.5;"/>
   </g>
   <g id="LineCollection_33"/>
   <g id="patch_3">
    <path d="M 57.6 307.584 
L 57.6 41.472 
" style="fill:none;stroke:#000000;stroke-linecap:square;stroke-linejoin:miter;stroke-width:0.8;"/>
   </g>
   <g id="patch_4">
    <path d="M 343.296 307.584 
L 343.296 41.472 
" style="fill:none;stroke:#000000;stroke-linecap:square;stroke-linejoin:miter;stroke-width:0.8;"/>
   </g>
   <g id="patch_5">
    <path d="M 57.6 307.584 
L 343.296 307.584 
" style="fill:none;stroke:#000000;stroke-linecap:square;stroke-linejoin:miter;stroke-width:0.8;"/>
   </g>
   <g id="patch_6">
    <path d="M 57.6 41.472 
L 343.296 41.472 
" style="fill:none;stroke:#000000;stroke-linecap:square;stroke-linejoin:miter;stroke-width:0.8;"/>
   </g>
  </g>
  <g id="axes_2">
   <g id="patch_7">
    <path clip-path="url(#p38db1a01f3)" d="M 361.152 307.584 
L 361.152 299.268 
L 361.152 49.788 
L 361.152 41.472 
L 374.4576 41.472 
L 374.4576 49.788 
L 374.4576 299.268 
L 374.4576 307.584 
z
" style="fill:#ffffff;stroke:#ffffff;stroke-linejoin:miter;stroke-width:0.01;"/>
   </g>
   <g id="matplotlib.axis_3"/>
   <g id="matplotlib.axis_4">
    <g id="ytick_10">
     <g id="line2d_17">
      <defs>
       <path d="M 0 0 
L 3.5 0 
" id="m184057c5b2" style="stroke:#000000;stroke-width:0.8;"/>
      </defs>
      <g>
       <use style="stroke:#000000;stroke-width:0.8;" x="374.4576" xlink:href="#m184057c5b2" y="299.268"/>
      </g>
     </g>
     <g id="text_17">
      <!-- −2.0 -->
      <g transform="translate(381.4576 303.067219)scale(0.1 -0.1)">
       <use xlink:href="#DejaVuSans-8722"/>
       <use x="83.789062" xlink:href="#DejaVuSans-50"/>
       <use x="147.412109" xlink:href="#DejaVuSans-46"/>
       <use x="179.199219" xlink:href="#DejaVuSans-48"/>
      </g>
     </g>
    </g>
    <g id="ytick_11">
     <g id="line2d_18">
      <g>
       <use style="stroke:#000000;stroke-width:0.8;" x="374.4576" xlink:href="#m184057c5b2" y="266.004"/>
      </g>
     </g>
     <g id="text_18">
      <!-- −1.6 -->
      <defs>
       <path d="M 33.015625 40.375 
Q 26.375 40.375 22.484375 35.828125 
Q 18.609375 31.296875 18.609375 23.390625 
Q 18.609375 15.53125 22.484375 10.953125 
Q 26.375 6.390625 33.015625 6.390625 
Q 39.65625 6.390625 43.53125 10.953125 
Q 47.40625 15.53125 47.40625 23.390625 
Q 47.40625 31.296875 43.53125 35.828125 
Q 39.65625 40.375 33.015625 40.375 
z
M 52.59375 71.296875 
L 52.59375 62.3125 
Q 48.875 64.0625 45.09375 64.984375 
Q 41.3125 65.921875 37.59375 65.921875 
Q 27.828125 65.921875 22.671875 59.328125 
Q 17.53125 52.734375 16.796875 39.40625 
Q 19.671875 43.65625 24.015625 45.921875 
Q 28.375 48.1875 33.59375 48.1875 
Q 44.578125 48.1875 50.953125 41.515625 
Q 57.328125 34.859375 57.328125 23.390625 
Q 57.328125 12.15625 50.6875 5.359375 
Q 44.046875 -1.421875 33.015625 -1.421875 
Q 20.359375 -1.421875 13.671875 8.265625 
Q 6.984375 17.96875 6.984375 36.375 
Q 6.984375 53.65625 15.1875 63.9375 
Q 23.390625 74.21875 37.203125 74.21875 
Q 40.921875 74.21875 44.703125 73.484375 
Q 48.484375 72.75 52.59375 71.296875 
z
" id="DejaVuSans-54"/>
      </defs>
      <g transform="translate(381.4576 269.803219)scale(0.1 -0.1)">
       <use xlink:href="#DejaVuSans-8722"/>
       <use x="83.789062" xlink:href="#DejaVuSans-49"/>
       <use x="147.412109" xlink:href="#DejaVuSans-46"/>
       <use x="179.199219" xlink:href="#DejaVuSans-54"/>
      </g>
     </g>
    </g>
    <g id="ytick_12">
     <g id="line2d_19">
      <g>
       <use style="stroke:#000000;stroke-width:0.8;" x="374.4576" xlink:href="#m184057c5b2" y="232.74"/>
      </g>
     </g>
     <g id="text_19">
      <!-- −1.2 -->
      <g transform="translate(381.4576 236.539219)scale(0.1 -0.1)">
       <use xlink:href="#DejaVuSans-8722"/>
       <use x="83.789062" xlink:href="#DejaVuSans-49"/>
       <use x="147.412109" xlink:href="#DejaVuSans-46"/>
       <use x="179.199219" xlink:href="#DejaVuSans-50"/>
      </g>
     </g>
    </g>
    <g id="ytick_13">
     <g id="line2d_20">
      <g>
       <use style="stroke:#000000;stroke-width:0.8;" x="374.4576" xlink:href="#m184057c5b2" y="199.476"/>
      </g>
     </g>
     <g id="text_20">
      <!-- −0.8 -->
      <defs>
       <path d="M 31.78125 34.625 
Q 24.75 34.625 20.71875 30.859375 
Q 16.703125 27.09375 16.703125 20.515625 
Q 16.703125 13.921875 20.71875 10.15625 
Q 24.75 6.390625 31.78125 6.390625 
Q 38.8125 6.390625 42.859375 10.171875 
Q 46.921875 13.96875 46.921875 20.515625 
Q 46.921875 27.09375 42.890625 30.859375 
Q 38.875 34.625 31.78125 34.625 
z
M 21.921875 38.8125 
Q 15.578125 40.375 12.03125 44.71875 
Q 8.5 49.078125 8.5 55.328125 
Q 8.5 64.0625 14.71875 69.140625 
Q 20.953125 74.21875 31.78125 74.21875 
Q 42.671875 74.21875 48.875 69.140625 
Q 55.078125 64.0625 55.078125 55.328125 
Q 55.078125 49.078125 51.53125 44.71875 
Q 48 40.375 41.703125 38.8125 
Q 48.828125 37.15625 52.796875 32.3125 
Q 56.78125 27.484375 56.78125 20.515625 
Q 56.78125 9.90625 50.3125 4.234375 
Q 43.84375 -1.421875 31.78125 -1.421875 
Q 19.734375 -1.421875 13.25 4.234375 
Q 6.78125 9.90625 6.78125 20.515625 
Q 6.78125 27.484375 10.78125 32.3125 
Q 14.796875 37.15625 21.921875 38.8125 
z
M 18.3125 54.390625 
Q 18.3125 48.734375 21.84375 45.5625 
Q 25.390625 42.390625 31.78125 42.390625 
Q 38.140625 42.390625 41.71875 45.5625 
Q 45.3125 48.734375 45.3125 54.390625 
Q 45.3125 60.0625 41.71875 63.234375 
Q 38.140625 66.40625 31.78125 66.40625 
Q 25.390625 66.40625 21.84375 63.234375 
Q 18.3125 60.0625 18.3125 54.390625 
z
" id="DejaVuSans-56"/>
      </defs>
      <g transform="translate(381.4576 203.275219)scale(0.1 -0.1)">
       <use xlink:href="#DejaVuSans-8722"/>
       <use x="83.789062" xlink:href="#DejaVuSans-48"/>
       <use x="147.412109" xlink:href="#DejaVuSans-46"/>
       <use x="179.199219" xlink:href="#DejaVuSans-56"/>
      </g>
     </g>
    </g>
    <g id="ytick_14">
     <g id="line2d_21">
      <g>
       <use style="stroke:#000000;stroke-width:0.8;" x="374.4576" xlink:href="#m184057c5b2" y="166.212"/>
      </g>
     </g>
     <g id="text_21">
      <!-- −0.4 -->
      <defs>
       <path d="M 37.796875 64.3125 
L 12.890625 25.390625 
L 37.796875 25.390625 
z
M 35.203125 72.90625 
L 47.609375 72.90625 
L 47.609375 25.390625 
L 58.015625 25.390625 
L 58.015625 17.1875 
L 47.609375 17.1875 
L 47.609375 0 
L 37.796875 0 
L 37.796875 17.1875 
L 4.890625 17.1875 
L 4.890625 26.703125 
z
" id="DejaVuSans-52"/>
      </defs>
      <g transform="translate(381.4576 170.011219)scale(0.1 -0.1)">
       <use xlink:href="#DejaVuSans-8722"/>
       <use x="83.789062" xlink:href="#DejaVuSans-48"/>
       <use x="147.412109" xlink:href="#DejaVuSans-46"/>
       <use x="179.199219" xlink:href="#DejaVuSans-52"/>
      </g>
     </g>
    </g>
    <g id="ytick_15">
     <g id="line2d_22">
      <g>
       <use style="stroke:#000000;stroke-width:0.8;" x="374.4576" xlink:href="#m184057c5b2" y="132.948"/>
      </g>
     </g>
     <g id="text_22">
      <!-- 0.0 -->
      <g transform="translate(381.4576 136.747219)scale(0.1 -0.1)">
       <use xlink:href="#DejaVuSans-48"/>
       <use x="63.623047" xlink:href="#DejaVuSans-46"/>
       <use x="95.410156" xlink:href="#DejaVuSans-48"/>
      </g>
     </g>
    </g>
    <g id="ytick_16">
     <g id="line2d_23">
      <g>
       <use style="stroke:#000000;stroke-width:0.8;" x="374.4576" xlink:href="#m184057c5b2" y="99.684"/>
      </g>
     </g>
     <g id="text_23">
      <!-- 0.4 -->
      <g transform="translate(381.4576 103.483219)scale(0.1 -0.1)">
       <use xlink:href="#DejaVuSans-48"/>
       <use x="63.623047" xlink:href="#DejaVuSans-46"/>
       <use x="95.410156" xlink:href="#DejaVuSans-52"/>
      </g>
     </g>
    </g>
    <g id="ytick_17">
     <g id="line2d_24">
      <g>
       <use style="stroke:#000000;stroke-width:0.8;" x="374.4576" xlink:href="#m184057c5b2" y="66.42"/>
      </g>
     </g>
     <g id="text_24">
      <!-- 0.8 -->
      <g transform="translate(381.4576 70.219219)scale(0.1 -0.1)">
       <use xlink:href="#DejaVuSans-48"/>
       <use x="63.623047" xlink:href="#DejaVuSans-46"/>
       <use x="95.410156" xlink:href="#DejaVuSans-56"/>
      </g>
     </g>
    </g>
   </g>
   <g id="LineCollection_34">
    <path clip-path="url(#p38db1a01f3)" d="M 361.152 307.584 
L 374.4576 307.584 
" style="fill:none;stroke:#00ff80;stroke-width:1.5;"/>
    <path clip-path="url(#p38db1a01f3)" d="M 361.152 299.268 
L 374.4576 299.268 
" style="fill:none;stroke:#00f784;stroke-width:1.5;"/>
    <path clip-path="url(#p38db1a01f3)" d="M 361.152 290.952 
L 374.4576 290.952 
" style="fill:none;stroke:#00f087;stroke-width:1.5;"/>
    <path clip-path="url(#p38db1a01f3)" d="M 361.152 282.636 
L 374.4576 282.636 
" style="fill:none;stroke:#00e78c;stroke-width:1.5;"/>
    <path clip-path="url(#p38db1a01f3)" d="M 361.152 274.32 
L 374.4576 274.32 
" style="fill:none;stroke:#00e08f;stroke-width:1.5;"/>
    <path clip-path="url(#p38db1a01f3)" d="M 361.152 266.004 
L 374.4576 266.004 
" style="fill:none;stroke:#00d793;stroke-width:1.5;"/>
    <path clip-path="url(#p38db1a01f3)" d="M 361.152 257.688 
L 374.4576 257.688 
" style="fill:none;stroke:#00cf98;stroke-width:1.5;"/>
    <path clip-path="url(#p38db1a01f3)" d="M 361.152 249.372 
L 374.4576 249.372 
" style="fill:none;stroke:#00c79c;stroke-width:1.5;"/>
    <path clip-path="url(#p38db1a01f3)" d="M 361.152 241.056 
L 374.4576 241.056 
" style="fill:none;stroke:#00bfa0;stroke-width:1.5;"/>
    <path clip-path="url(#p38db1a01f3)" d="M 361.152 232.74 
L 374.4576 232.74 
" style="fill:none;stroke:#00b8a3;stroke-width:1.5;"/>
    <path clip-path="url(#p38db1a01f3)" d="M 361.152 224.424 
L 374.4576 224.424 
" style="fill:none;stroke:#00afa8;stroke-width:1.5;"/>
    <path clip-path="url(#p38db1a01f3)" d="M 361.152 216.108 
L 374.4576 216.108 
" style="fill:none;stroke:#00a7ac;stroke-width:1.5;"/>
    <path clip-path="url(#p38db1a01f3)" d="M 361.152 207.792 
L 374.4576 207.792 
" style="fill:none;stroke:#009fb0;stroke-width:1.5;"/>
    <path clip-path="url(#p38db1a01f3)" d="M 361.152 199.476 
L 374.4576 199.476 
" style="fill:none;stroke:#0097b3;stroke-width:1.5;"/>
    <path clip-path="url(#p38db1a01f3)" d="M 361.152 191.16 
L 374.4576 191.16 
" style="fill:none;stroke:#008fb8;stroke-width:1.5;"/>
    <path clip-path="url(#p38db1a01f3)" d="M 361.152 182.844 
L 374.4576 182.844 
" style="fill:none;stroke:#0087bc;stroke-width:1.5;"/>
    <path clip-path="url(#p38db1a01f3)" d="M 361.152 174.528 
L 374.4576 174.528 
" style="fill:none;stroke:#007fc0;stroke-width:1.5;"/>
    <path clip-path="url(#p38db1a01f3)" d="M 361.152 166.212 
L 374.4576 166.212 
" style="fill:none;stroke:#0077c3;stroke-width:1.5;"/>
    <path clip-path="url(#p38db1a01f3)" d="M 361.152 157.896 
L 374.4576 157.896 
" style="fill:none;stroke:#006fc8;stroke-width:1.5;"/>
    <path clip-path="url(#p38db1a01f3)" d="M 361.152 149.58 
L 374.4576 149.58 
" style="fill:none;stroke:#0067cc;stroke-width:1.5;"/>
    <path clip-path="url(#p38db1a01f3)" d="M 361.152 141.264 
L 374.4576 141.264 
" style="fill:none;stroke:#005fd0;stroke-width:1.5;"/>
    <path clip-path="url(#p38db1a01f3)" d="M 361.152 132.948 
L 374.4576 132.948 
" style="fill:none;stroke:#0057d3;stroke-width:1.5;"/>
    <path clip-path="url(#p38db1a01f3)" d="M 361.152 124.632 
L 374.4576 124.632 
" style="fill:none;stroke:#004fd8;stroke-width:1.5;"/>
    <path clip-path="url(#p38db1a01f3)" d="M 361.152 116.316 
L 374.4576 116.316 
" style="fill:none;stroke:#0047dc;stroke-width:1.5;"/>
    <path clip-path="url(#p38db1a01f3)" d="M 361.152 108 
L 374.4576 108 
" style="fill:none;stroke:#003fe0;stroke-width:1.5;"/>
    <path clip-path="url(#p38db1a01f3)" d="M 361.152 99.684 
L 374.4576 99.684 
" style="fill:none;stroke:#0037e3;stroke-width:1.5;"/>
    <path clip-path="url(#p38db1a01f3)" d="M 361.152 91.368 
L 374.4576 91.368 
" style="fill:none;stroke:#002fe8;stroke-width:1.5;"/>
    <path clip-path="url(#p38db1a01f3)" d="M 361.152 83.052 
L 374.4576 83.052 
" style="fill:none;stroke:#0027ec;stroke-width:1.5;"/>
    <path clip-path="url(#p38db1a01f3)" d="M 361.152 74.736 
L 374.4576 74.736 
" style="fill:none;stroke:#001ff0;stroke-width:1.5;"/>
    <path clip-path="url(#p38db1a01f3)" d="M 361.152 66.42 
L 374.4576 66.42 
" style="fill:none;stroke:#0017f3;stroke-width:1.5;"/>
    <path clip-path="url(#p38db1a01f3)" d="M 361.152 58.104 
L 374.4576 58.104 
" style="fill:none;stroke:#000ff8;stroke-width:1.5;"/>
    <path clip-path="url(#p38db1a01f3)" d="M 361.152 49.788 
L 374.4576 49.788 
" style="fill:none;stroke:#0007fc;stroke-width:1.5;"/>
    <path clip-path="url(#p38db1a01f3)" d="M 361.152 41.472 
L 374.4576 41.472 
" style="fill:none;stroke:#0000ff;stroke-width:1.5;"/>
   </g>
   <g id="patch_8">
    <path d="M 361.152 307.584 
L 361.152 299.268 
L 361.152 49.788 
L 361.152 41.472 
L 374.4576 41.472 
L 374.4576 49.788 
L 374.4576 299.268 
L 374.4576 307.584 
z
" style="fill:none;stroke:#000000;stroke-linejoin:miter;stroke-width:0.8;"/>
   </g>
  </g>
 </g>
 <defs>
  <clipPath id="pff339808de">
   <rect height="266.112" width="285.696" x="57.6" y="41.472"/>
  </clipPath>
  <clipPath id="p38db1a01f3">
   <rect height="266.112" width="13.3056" x="361.152" y="41.472"/>
  </clipPath>
 </defs>
</svg>
