<?xml version="1.0" encoding="utf-8" standalone="no"?>
<!DOCTYPE svg PUBLIC "-//W3C//DTD SVG 1.1//EN"
  "http://www.w3.org/Graphics/SVG/1.1/DTD/svg11.dtd">
<!-- Created with matplotlib (https://matplotlib.org/) -->
<svg height="345.6pt" version="1.1" viewBox="0 0 460.8 345.6" width="460.8pt" xmlns="http://www.w3.org/2000/svg" xmlns:xlink="http://www.w3.org/1999/xlink">
 <defs>
  <style type="text/css">
*{stroke-linecap:butt;stroke-linejoin:round;}
  </style>
 </defs>
 <g id="figure_1">
  <g id="patch_1">
   <path d="M 0 345.6 
L 460.8 345.6 
L 460.8 0 
L 0 0 
z
" style="fill:#ffffff;"/>
  </g>
  <g id="axes_1">
   <g id="patch_2">
    <path d="M 57.6 307.584 
L 343.296 307.584 
L 343.296 41.472 
L 57.6 41.472 
z
" style="fill:#ffffff;"/>
   </g>
   <g id="matplotlib.axis_1">
    <g id="xtick_1">
     <g id="line2d_1">
      <defs>
       <path d="M 0 0 
L 0 3.5 
" id="m0d088fe9a2" style="stroke:#000000;stroke-width:0.8;"/>
      </defs>
      <g>
       <use style="stroke:#000000;stroke-width:0.8;" x="57.6" xlink:href="#m0d088fe9a2" y="307.584"/>
      </g>
     </g>
     <g id="text_1">
      <!-- −10.0 -->
      <defs>
       <path d="M 10.59375 35.5 
L 73.1875 35.5 
L 73.1875 27.203125 
L 10.59375 27.203125 
z
" id="DejaVuSans-8722"/>
       <path d="M 12.40625 8.296875 
L 28.515625 8.296875 
L 28.515625 63.921875 
L 10.984375 60.40625 
L 10.984375 69.390625 
L 28.421875 72.90625 
L 38.28125 72.90625 
L 38.28125 8.296875 
L 54.390625 8.296875 
L 54.390625 0 
L 12.40625 0 
z
" id="DejaVuSans-49"/>
       <path d="M 31.78125 66.40625 
Q 24.171875 66.40625 20.328125 58.90625 
Q 16.5 51.421875 16.5 36.375 
Q 16.5 21.390625 20.328125 13.890625 
Q 24.171875 6.390625 31.78125 6.390625 
Q 39.453125 6.390625 43.28125 13.890625 
Q 47.125 21.390625 47.125 36.375 
Q 47.125 51.421875 43.28125 58.90625 
Q 39.453125 66.40625 31.78125 66.40625 
z
M 31.78125 74.21875 
Q 44.046875 74.21875 50.515625 64.515625 
Q 56.984375 54.828125 56.984375 36.375 
Q 56.984375 17.96875 50.515625 8.265625 
Q 44.046875 -1.421875 31.78125 -1.421875 
Q 19.53125 -1.421875 13.0625 8.265625 
Q 6.59375 17.96875 6.59375 36.375 
Q 6.59375 54.828125 13.0625 64.515625 
Q 19.53125 74.21875 31.78125 74.21875 
z
" id="DejaVuSans-48"/>
       <path d="M 10.6875 12.40625 
L 21 12.40625 
L 21 0 
L 10.6875 0 
z
" id="DejaVuSans-46"/>
      </defs>
      <g transform="translate(42.277344 322.182437)scale(0.1 -0.1)">
       <use xlink:href="#DejaVuSans-8722"/>
       <use x="83.789062" xlink:href="#DejaVuSans-49"/>
       <use x="147.412109" xlink:href="#DejaVuSans-48"/>
       <use x="211.035156" xlink:href="#DejaVuSans-46"/>
       <use x="242.822266" xlink:href="#DejaVuSans-48"/>
      </g>
     </g>
    </g>
    <g id="xtick_2">
     <g id="line2d_2">
      <g>
       <use style="stroke:#000000;stroke-width:0.8;" x="93.312" xlink:href="#m0d088fe9a2" y="307.584"/>
      </g>
     </g>
     <g id="text_2">
      <!-- −7.5 -->
      <defs>
       <path d="M 8.203125 72.90625 
L 55.078125 72.90625 
L 55.078125 68.703125 
L 28.609375 0 
L 18.3125 0 
L 43.21875 64.59375 
L 8.203125 64.59375 
z
" id="DejaVuSans-55"/>
       <path d="M 10.796875 72.90625 
L 49.515625 72.90625 
L 49.515625 64.59375 
L 19.828125 64.59375 
L 19.828125 46.734375 
Q 21.96875 47.46875 24.109375 47.828125 
Q 26.265625 48.1875 28.421875 48.1875 
Q 40.625 48.1875 47.75 41.5 
Q 54.890625 34.8125 54.890625 23.390625 
Q 54.890625 11.625 47.5625 5.09375 
Q 40.234375 -1.421875 26.90625 -1.421875 
Q 22.3125 -1.421875 17.546875 -0.640625 
Q 12.796875 0.140625 7.71875 1.703125 
L 7.71875 11.625 
Q 12.109375 9.234375 16.796875 8.0625 
Q 21.484375 6.890625 26.703125 6.890625 
Q 35.15625 6.890625 40.078125 11.328125 
Q 45.015625 15.765625 45.015625 23.390625 
Q 45.015625 31 40.078125 35.4375 
Q 35.15625 39.890625 26.703125 39.890625 
Q 22.75 39.890625 18.8125 39.015625 
Q 14.890625 38.140625 10.796875 36.28125 
z
" id="DejaVuSans-53"/>
      </defs>
      <g transform="translate(81.170594 322.182437)scale(0.1 -0.1)">
       <use xlink:href="#DejaVuSans-8722"/>
       <use x="83.789062" xlink:href="#DejaVuSans-55"/>
       <use x="147.412109" xlink:href="#DejaVuSans-46"/>
       <use x="179.199219" xlink:href="#DejaVuSans-53"/>
      </g>
     </g>
    </g>
    <g id="xtick_3">
     <g id="line2d_3">
      <g>
       <use style="stroke:#000000;stroke-width:0.8;" x="129.024" xlink:href="#m0d088fe9a2" y="307.584"/>
      </g>
     </g>
     <g id="text_3">
      <!-- −5.0 -->
      <g transform="translate(116.882594 322.182437)scale(0.1 -0.1)">
       <use xlink:href="#DejaVuSans-8722"/>
       <use x="83.789062" xlink:href="#DejaVuSans-53"/>
       <use x="147.412109" xlink:href="#DejaVuSans-46"/>
       <use x="179.199219" xlink:href="#DejaVuSans-48"/>
      </g>
     </g>
    </g>
    <g id="xtick_4">
     <g id="line2d_4">
      <g>
       <use style="stroke:#000000;stroke-width:0.8;" x="164.736" xlink:href="#m0d088fe9a2" y="307.584"/>
      </g>
     </g>
     <g id="text_4">
      <!-- −2.5 -->
      <defs>
       <path d="M 19.1875 8.296875 
L 53.609375 8.296875 
L 53.609375 0 
L 7.328125 0 
L 7.328125 8.296875 
Q 12.9375 14.109375 22.625 23.890625 
Q 32.328125 33.6875 34.8125 36.53125 
Q 39.546875 41.84375 41.421875 45.53125 
Q 43.3125 49.21875 43.3125 52.78125 
Q 43.3125 58.59375 39.234375 62.25 
Q 35.15625 65.921875 28.609375 65.921875 
Q 23.96875 65.921875 18.8125 64.3125 
Q 13.671875 62.703125 7.8125 59.421875 
L 7.8125 69.390625 
Q 13.765625 71.78125 18.9375 73 
Q 24.125 74.21875 28.421875 74.21875 
Q 39.75 74.21875 46.484375 68.546875 
Q 53.21875 62.890625 53.21875 53.421875 
Q 53.21875 48.921875 51.53125 44.890625 
Q 49.859375 40.875 45.40625 35.40625 
Q 44.1875 33.984375 37.640625 27.21875 
Q 31.109375 20.453125 19.1875 8.296875 
z
" id="DejaVuSans-50"/>
      </defs>
      <g transform="translate(152.594594 322.182437)scale(0.1 -0.1)">
       <use xlink:href="#DejaVuSans-8722"/>
       <use x="83.789062" xlink:href="#DejaVuSans-50"/>
       <use x="147.412109" xlink:href="#DejaVuSans-46"/>
       <use x="179.199219" xlink:href="#DejaVuSans-53"/>
      </g>
     </g>
    </g>
    <g id="xtick_5">
     <g id="line2d_5">
      <g>
       <use style="stroke:#000000;stroke-width:0.8;" x="200.448" xlink:href="#m0d088fe9a2" y="307.584"/>
      </g>
     </g>
     <g id="text_5">
      <!-- 0.0 -->
      <g transform="translate(192.496438 322.182437)scale(0.1 -0.1)">
       <use xlink:href="#DejaVuSans-48"/>
       <use x="63.623047" xlink:href="#DejaVuSans-46"/>
       <use x="95.410156" xlink:href="#DejaVuSans-48"/>
      </g>
     </g>
    </g>
    <g id="xtick_6">
     <g id="line2d_6">
      <g>
       <use style="stroke:#000000;stroke-width:0.8;" x="236.16" xlink:href="#m0d088fe9a2" y="307.584"/>
      </g>
     </g>
     <g id="text_6">
      <!-- 2.5 -->
      <g transform="translate(228.208438 322.182437)scale(0.1 -0.1)">
       <use xlink:href="#DejaVuSans-50"/>
       <use x="63.623047" xlink:href="#DejaVuSans-46"/>
       <use x="95.410156" xlink:href="#DejaVuSans-53"/>
      </g>
     </g>
    </g>
    <g id="xtick_7">
     <g id="line2d_7">
      <g>
       <use style="stroke:#000000;stroke-width:0.8;" x="271.872" xlink:href="#m0d088fe9a2" y="307.584"/>
      </g>
     </g>
     <g id="text_7">
      <!-- 5.0 -->
      <g transform="translate(263.920437 322.182437)scale(0.1 -0.1)">
       <use xlink:href="#DejaVuSans-53"/>
       <use x="63.623047" xlink:href="#DejaVuSans-46"/>
       <use x="95.410156" xlink:href="#DejaVuSans-48"/>
      </g>
     </g>
    </g>
    <g id="xtick_8">
     <g id="line2d_8">
      <g>
       <use style="stroke:#000000;stroke-width:0.8;" x="307.584" xlink:href="#m0d088fe9a2" y="307.584"/>
      </g>
     </g>
     <g id="text_8">
      <!-- 7.5 -->
      <g transform="translate(299.632438 322.182437)scale(0.1 -0.1)">
       <use xlink:href="#DejaVuSans-55"/>
       <use x="63.623047" xlink:href="#DejaVuSans-46"/>
       <use x="95.410156" xlink:href="#DejaVuSans-53"/>
      </g>
     </g>
    </g>
    <g id="xtick_9">
     <g id="line2d_9">
      <g>
       <use style="stroke:#000000;stroke-width:0.8;" x="343.296" xlink:href="#m0d088fe9a2" y="307.584"/>
      </g>
     </g>
     <g id="text_9">
      <!-- 10.0 -->
      <g transform="translate(332.163188 322.182437)scale(0.1 -0.1)">
       <use xlink:href="#DejaVuSans-49"/>
       <use x="63.623047" xlink:href="#DejaVuSans-48"/>
       <use x="127.246094" xlink:href="#DejaVuSans-46"/>
       <use x="159.033203" xlink:href="#DejaVuSans-48"/>
      </g>
     </g>
    </g>
   </g>
   <g id="matplotlib.axis_2">
    <g id="ytick_1">
     <g id="line2d_10">
      <defs>
       <path d="M 0 0 
L -3.5 0 
" id="m78fc6e1598" style="stroke:#000000;stroke-width:0.8;"/>
      </defs>
      <g>
       <use style="stroke:#000000;stroke-width:0.8;" x="57.6" xlink:href="#m78fc6e1598" y="307.584"/>
      </g>
     </g>
     <g id="text_10">
      <!-- −10.0 -->
      <g transform="translate(19.954687 311.383219)scale(0.1 -0.1)">
       <use xlink:href="#DejaVuSans-8722"/>
       <use x="83.789062" xlink:href="#DejaVuSans-49"/>
       <use x="147.412109" xlink:href="#DejaVuSans-48"/>
       <use x="211.035156" xlink:href="#DejaVuSans-46"/>
       <use x="242.822266" xlink:href="#DejaVuSans-48"/>
      </g>
     </g>
    </g>
    <g id="ytick_2">
     <g id="line2d_11">
      <g>
       <use style="stroke:#000000;stroke-width:0.8;" x="57.6" xlink:href="#m78fc6e1598" y="274.32"/>
      </g>
     </g>
     <g id="text_11">
      <!-- −7.5 -->
      <g transform="translate(26.317187 278.119219)scale(0.1 -0.1)">
       <use xlink:href="#DejaVuSans-8722"/>
       <use x="83.789062" xlink:href="#DejaVuSans-55"/>
       <use x="147.412109" xlink:href="#DejaVuSans-46"/>
       <use x="179.199219" xlink:href="#DejaVuSans-53"/>
      </g>
     </g>
    </g>
    <g id="ytick_3">
     <g id="line2d_12">
      <g>
       <use style="stroke:#000000;stroke-width:0.8;" x="57.6" xlink:href="#m78fc6e1598" y="241.056"/>
      </g>
     </g>
     <g id="text_12">
      <!-- −5.0 -->
      <g transform="translate(26.317187 244.855219)scale(0.1 -0.1)">
       <use xlink:href="#DejaVuSans-8722"/>
       <use x="83.789062" xlink:href="#DejaVuSans-53"/>
       <use x="147.412109" xlink:href="#DejaVuSans-46"/>
       <use x="179.199219" xlink:href="#DejaVuSans-48"/>
      </g>
     </g>
    </g>
    <g id="ytick_4">
     <g id="line2d_13">
      <g>
       <use style="stroke:#000000;stroke-width:0.8;" x="57.6" xlink:href="#m78fc6e1598" y="207.792"/>
      </g>
     </g>
     <g id="text_13">
      <!-- −2.5 -->
      <g transform="translate(26.317187 211.591219)scale(0.1 -0.1)">
       <use xlink:href="#DejaVuSans-8722"/>
       <use x="83.789062" xlink:href="#DejaVuSans-50"/>
       <use x="147.412109" xlink:href="#DejaVuSans-46"/>
       <use x="179.199219" xlink:href="#DejaVuSans-53"/>
      </g>
     </g>
    </g>
    <g id="ytick_5">
     <g id="line2d_14">
      <g>
       <use style="stroke:#000000;stroke-width:0.8;" x="57.6" xlink:href="#m78fc6e1598" y="174.528"/>
      </g>
     </g>
     <g id="text_14">
      <!-- 0.0 -->
      <g transform="translate(34.696875 178.327219)scale(0.1 -0.1)">
       <use xlink:href="#DejaVuSans-48"/>
       <use x="63.623047" xlink:href="#DejaVuSans-46"/>
       <use x="95.410156" xlink:href="#DejaVuSans-48"/>
      </g>
     </g>
    </g>
    <g id="ytick_6">
     <g id="line2d_15">
      <g>
       <use style="stroke:#000000;stroke-width:0.8;" x="57.6" xlink:href="#m78fc6e1598" y="141.264"/>
      </g>
     </g>
     <g id="text_15">
      <!-- 2.5 -->
      <g transform="translate(34.696875 145.063219)scale(0.1 -0.1)">
       <use xlink:href="#DejaVuSans-50"/>
       <use x="63.623047" xlink:href="#DejaVuSans-46"/>
       <use x="95.410156" xlink:href="#DejaVuSans-53"/>
      </g>
     </g>
    </g>
    <g id="ytick_7">
     <g id="line2d_16">
      <g>
       <use style="stroke:#000000;stroke-width:0.8;" x="57.6" xlink:href="#m78fc6e1598" y="108"/>
      </g>
     </g>
     <g id="text_16">
      <!-- 5.0 -->
      <g transform="translate(34.696875 111.799219)scale(0.1 -0.1)">
       <use xlink:href="#DejaVuSans-53"/>
       <use x="63.623047" xlink:href="#DejaVuSans-46"/>
       <use x="95.410156" xlink:href="#DejaVuSans-48"/>
      </g>
     </g>
    </g>
    <g id="ytick_8">
     <g id="line2d_17">
      <g>
       <use style="stroke:#000000;stroke-width:0.8;" x="57.6" xlink:href="#m78fc6e1598" y="74.736"/>
      </g>
     </g>
     <g id="text_17">
      <!-- 7.5 -->
      <g transform="translate(34.696875 78.535219)scale(0.1 -0.1)">
       <use xlink:href="#DejaVuSans-55"/>
       <use x="63.623047" xlink:href="#DejaVuSans-46"/>
       <use x="95.410156" xlink:href="#DejaVuSans-53"/>
      </g>
     </g>
    </g>
    <g id="ytick_9">
     <g id="line2d_18">
      <g>
       <use style="stroke:#000000;stroke-width:0.8;" x="57.6" xlink:href="#m78fc6e1598" y="41.472"/>
      </g>
     </g>
     <g id="text_18">
      <!-- 10.0 -->
      <g transform="translate(28.334375 45.271219)scale(0.1 -0.1)">
       <use xlink:href="#DejaVuSans-49"/>
       <use x="63.623047" xlink:href="#DejaVuSans-48"/>
       <use x="127.246094" xlink:href="#DejaVuSans-46"/>
       <use x="159.033203" xlink:href="#DejaVuSans-48"/>
      </g>
     </g>
    </g>
   </g>
   <g id="LineCollection_1"/>
   <g id="LineCollection_2">
    <path clip-path="url(#p5cbb3b6fd8)" d="M 113.590673 276.949982 
L 110.719357 276.566317 
L 107.84804 276.034272 
L 104.976724 275.310943 
L 101.833105 274.152844 
L 99.23409 272.757767 
L 97.50921 271.478352 
L 96.107312 270.141106 
L 94.927116 268.719494 
L 93.362874 266.129367 
L 92.248131 263.454874 
L 91.823155 262.117628 
L 91.165766 259.443136 
L 90.620141 256.429028 
L 90.205612 252.756905 
L 89.846351 247.40792 
L 89.630897 240.721688 
L 89.515614 228.686472 
L 89.497709 185.894593 
L 89.60631 109.671558 
L 89.846351 101.64808 
L 90.205612 96.299095 
L 90.67056 92.287357 
L 91.471569 88.275618 
L 92.248131 85.601126 
L 93.491457 82.672997 
L 94.989203 80.252141 
L 96.362774 78.645498 
L 97.798432 77.339698 
L 99.324664 76.240402 
L 102.105407 74.783387 
L 104.976724 73.745057 
L 106.412382 73.349213 
L 109.283698 72.736887 
L 113.590673 72.106018 
L 119.333307 71.648822 
L 126.511598 71.367524 
L 136.561206 71.225946 
L 160.967397 71.18352 
L 270.077427 71.284329 
L 278.691377 71.507916 
L 284.43401 71.842549 
L 288.740985 72.275627 
L 293.04796 73.021728 
L 295.919276 73.745057 
L 299.062895 74.903156 
L 301.66191 76.298233 
L 303.38679 77.577648 
L 304.788688 78.914894 
L 305.968884 80.336506 
L 307.533126 82.926633 
L 308.647869 85.601126 
L 309.072845 86.938372 
L 309.730234 89.612864 
L 310.275859 92.626972 
L 310.690388 96.299095 
L 311.049649 101.64808 
L 311.265103 108.334312 
L 311.380386 120.369528 
L 311.398291 163.161407 
L 311.28969 239.384442 
L 311.049649 247.40792 
L 310.690388 252.756905 
L 310.22544 256.768643 
L 309.424431 260.780382 
L 308.647869 263.454874 
L 307.404543 266.383003 
L 305.906797 268.803859 
L 304.533226 270.410502 
L 303.097568 271.716302 
L 301.571336 272.815598 
L 298.790593 274.272613 
L 295.919276 275.310943 
L 294.483618 275.706787 
L 291.612302 276.319113 
L 287.305327 276.949982 
L 281.562693 277.407178 
L 274.384402 277.688476 
L 264.334794 277.830054 
L 239.928603 277.87248 
L 130.818573 277.771671 
L 122.204623 277.548084 
L 116.46199 277.213451 
L 113.590673 276.949982 
L 113.590673 276.949982 
" style="fill:none;stroke:#00f584;stroke-width:1.5;"/>
   </g>
   <g id="LineCollection_3">
    <path clip-path="url(#p5cbb3b6fd8)" d="M 115.026332 284.890401 
L 110.719357 284.613173 
L 106.412382 284.179372 
L 102.049451 283.513568 
L 99.23409 282.850391 
L 96.362774 281.955127 
L 93.491457 280.689499 
L 91.523633 279.501829 
L 89.810935 278.164583 
L 88.46399 276.827337 
L 87.37321 275.49009 
L 86.313166 273.883447 
L 85.11498 271.478352 
L 84.592434 270.141106 
L 83.767789 267.466613 
L 83.163698 264.792121 
L 82.549602 260.780382 
L 82.145337 256.768643 
L 81.840063 251.419658 
L 81.637534 243.396181 
L 81.545902 228.686472 
L 81.536791 149.788945 
L 81.637534 105.659819 
L 81.897132 96.299095 
L 82.26132 90.950111 
L 82.727046 86.938372 
L 83.441849 82.874513 
L 84.153832 80.252141 
L 85.11498 77.577648 
L 86.47375 74.903156 
L 87.748824 73.070223 
L 89.184482 71.474928 
L 90.620141 70.220313 
L 92.055799 69.204304 
L 93.78068 68.216925 
L 96.362774 67.100873 
L 97.798432 66.614146 
L 100.669749 65.846029 
L 103.541065 65.283348 
L 107.84804 64.711347 
L 113.590673 64.241466 
L 119.333307 64.00499 
L 129.382915 63.831109 
L 149.482131 63.770232 
L 271.513085 63.831109 
L 282.998352 64.050446 
L 288.740985 64.334794 
L 294.483618 64.876628 
L 298.846549 65.542432 
L 301.66191 66.205609 
L 304.533226 67.100873 
L 307.404543 68.366501 
L 309.372367 69.554171 
L 311.085065 70.891417 
L 312.43201 72.228663 
L 313.52279 73.56591 
L 314.582834 75.172553 
L 315.78102 77.577648 
L 316.303566 78.914894 
L 317.128211 81.589387 
L 317.732302 84.263879 
L 318.346398 88.275618 
L 318.750663 92.287357 
L 319.055937 97.636342 
L 319.258466 105.659819 
L 319.350098 120.369528 
L 319.359209 199.267055 
L 319.258466 243.396181 
L 318.998868 252.756905 
L 318.63468 258.105889 
L 318.168954 262.117628 
L 317.454151 266.181487 
L 316.742168 268.803859 
L 315.78102 271.478352 
L 314.42225 274.152844 
L 313.147176 275.985777 
L 311.711518 277.581072 
L 310.275859 278.835687 
L 308.840201 279.851696 
L 307.11532 280.839075 
L 304.533226 281.955127 
L 303.097568 282.441854 
L 300.226251 283.209971 
L 297.354935 283.772652 
L 293.04796 284.344653 
L 287.305327 284.814534 
L 281.562693 285.05101 
L 271.513085 285.224891 
L 251.413869 285.285768 
L 129.382915 285.224891 
L 117.897648 285.005554 
L 115.026332 284.890401 
L 115.026332 284.890401 
" style="fill:none;stroke:#00eb8a;stroke-width:1.5;"/>
   </g>
   <g id="LineCollection_4">
    <path clip-path="url(#p5cbb3b6fd8)" d="M 104.976724 288.996933 
L 100.669749 288.470479 
L 96.362774 287.672431 
L 93.491457 286.883413 
L 90.620141 285.820228 
L 88.642314 284.850814 
L 86.313166 283.346521 
L 84.877508 282.147685 
L 83.441849 280.629881 
L 82.006191 278.669586 
L 80.965435 276.827337 
L 80.341776 275.49009 
L 79.365151 272.815598 
L 78.654561 270.141106 
L 77.90035 266.129367 
L 77.422335 262.117628 
L 77.043402 256.768643 
L 76.796616 250.082412 
L 76.651905 239.384442 
L 76.611941 212.639518 
L 76.700455 104.322573 
L 76.921884 94.961849 
L 77.306745 88.275618 
L 77.707614 84.263879 
L 78.370321 80.252141 
L 79.134874 76.998907 
L 79.824007 74.903156 
L 80.965435 72.228663 
L 82.006191 70.386414 
L 83.621189 68.216925 
L 84.908251 66.879678 
L 86.537755 65.542432 
L 88.642314 64.205186 
L 90.620141 63.235772 
L 92.055799 62.654864 
L 95.741441 61.530693 
L 97.798432 61.083304 
L 102.105407 60.380793 
L 106.412382 59.935546 
L 112.155015 59.582588 
L 120.768965 59.324558 
L 133.689889 59.205071 
L 173.888322 59.180521 
L 277.255719 59.280309 
L 287.305327 59.521793 
L 294.483618 59.935546 
L 298.790593 60.380793 
L 303.097568 61.083304 
L 305.968884 61.745185 
L 309.403222 62.86794 
L 311.711518 63.916472 
L 313.147176 64.735823 
L 314.582834 65.709479 
L 316.018492 66.908315 
L 317.454151 68.426119 
L 318.889809 70.386414 
L 319.930565 72.228663 
L 320.554224 73.56591 
L 321.530849 76.240402 
L 322.241439 78.914894 
L 322.99565 82.926633 
L 323.473665 86.938372 
L 323.852598 92.287357 
L 324.099384 98.973588 
L 324.244095 109.671558 
L 324.284059 136.416482 
L 324.195545 244.733427 
L 323.974116 254.094151 
L 323.589255 260.780382 
L 323.188386 264.792121 
L 322.525679 268.803859 
L 321.761126 272.057093 
L 321.071993 274.152844 
L 319.930565 276.827337 
L 318.889809 278.669586 
L 317.274811 280.839075 
L 315.987749 282.176322 
L 314.358245 283.513568 
L 312.253686 284.850814 
L 310.275859 285.820228 
L 308.840201 286.401136 
L 305.154559 287.525307 
L 303.097568 287.972696 
L 298.790593 288.675207 
L 294.483618 289.120454 
L 288.740985 289.473412 
L 280.127035 289.731442 
L 267.206111 289.850929 
L 227.007678 289.875479 
L 123.640281 289.775691 
L 113.590673 289.534207 
L 106.412382 289.120454 
L 104.976724 288.996933 
L 104.976724 288.996933 
" style="fill:none;stroke:#00e18e;stroke-width:1.5;"/>
   </g>
   <g id="LineCollection_5">
    <path clip-path="url(#p5cbb3b6fd8)" d="M 110.719357 292.894308 
L 104.976724 292.566241 
L 99.23409 291.999477 
L 94.927116 291.315499 
L 92.055799 290.652152 
L 89.184482 289.767588 
L 86.313166 288.558971 
L 84.448913 287.525307 
L 82.560306 286.18806 
L 81.067384 284.850814 
L 79.860851 283.513568 
L 78.857121 282.176322 
L 77.323862 279.501829 
L 76.203271 276.827337 
L 75.400352 274.152844 
L 74.775394 271.478352 
L 74.148336 267.466613 
L 73.615133 262.117628 
L 73.315259 256.768643 
L 73.11179 248.745166 
L 73.010682 234.035457 
L 72.998209 169.847638 
L 73.092907 101.64808 
L 73.315259 92.287357 
L 73.615133 86.938372 
L 74.148336 81.589387 
L 74.827899 77.314784 
L 75.400352 74.903156 
L 76.263558 72.060167 
L 77.323862 69.554171 
L 78.025139 68.216925 
L 79.134874 66.480464 
L 80.570533 64.721318 
L 82.006191 63.330733 
L 83.441849 62.206906 
L 84.877508 61.27198 
L 87.748824 59.843823 
L 90.620141 58.800047 
L 93.491457 58.052167 
L 96.362774 57.470048 
L 100.669749 56.885974 
L 106.412382 56.389322 
L 112.155015 56.110003 
L 122.204623 55.902893 
L 139.432523 55.822022 
L 247.106894 55.815188 
L 280.127035 55.920482 
L 290.658039 56.181709 
L 295.919276 56.489759 
L 301.66191 57.056523 
L 305.968884 57.740501 
L 308.840201 58.403848 
L 311.711518 59.288412 
L 314.582834 60.497029 
L 316.447087 61.530693 
L 318.335694 62.86794 
L 319.828616 64.205186 
L 321.035149 65.542432 
L 322.038879 66.879678 
L 323.572138 69.554171 
L 324.692729 72.228663 
L 325.495648 74.903156 
L 326.120606 77.577648 
L 326.747664 81.589387 
L 327.280867 86.938372 
L 327.580741 92.287357 
L 327.78421 100.310834 
L 327.885318 115.020543 
L 327.897791 179.208362 
L 327.803093 247.40792 
L 327.580741 256.768643 
L 327.280867 262.117628 
L 326.747664 267.466613 
L 326.068101 271.741216 
L 325.495648 274.152844 
L 324.632442 276.995833 
L 323.572138 279.501829 
L 322.870861 280.839075 
L 321.761126 282.575536 
L 320.325467 284.334682 
L 318.889809 285.725267 
L 317.454151 286.849094 
L 316.018492 287.78402 
L 313.147176 289.212177 
L 310.275859 290.255953 
L 307.404543 291.003833 
L 304.533226 291.585952 
L 300.226251 292.170026 
L 294.483618 292.666678 
L 288.740985 292.945997 
L 278.691377 293.153107 
L 261.463477 293.233978 
L 153.789106 293.240812 
L 120.768965 293.135518 
L 110.719357 292.894308 
L 110.719357 292.894308 
" style="fill:none;stroke:#00d793;stroke-width:1.5;"/>
   </g>
   <g id="LineCollection_6">
    <path clip-path="url(#p5cbb3b6fd8)" d="M 109.283698 295.58763 
L 103.541065 295.281992 
L 97.798432 294.754649 
L 93.491457 294.134831 
L 89.184482 293.162067 
L 86.313166 292.234791 
L 84.581942 291.537045 
L 82.006191 290.193122 
L 80.094117 288.862553 
L 78.561551 287.525307 
L 77.313718 286.18806 
L 76.263558 284.840564 
L 74.687713 282.176322 
L 73.392241 279.107912 
L 72.693334 276.827337 
L 71.956583 273.749028 
L 71.373503 270.141106 
L 70.922582 266.129367 
L 70.520925 260.365578 
L 70.279161 252.756905 
L 70.151353 240.721688 
L 70.12176 207.290533 
L 70.214727 100.310834 
L 70.426749 90.950111 
L 70.706502 85.601126 
L 71.203564 80.252141 
L 71.784435 76.240402 
L 72.346657 73.56591 
L 73.392241 69.948088 
L 74.078804 68.216925 
L 74.827899 66.604373 
L 76.270727 64.205186 
L 77.699216 62.424182 
L 79.134874 60.996671 
L 80.570533 59.834375 
L 82.017196 58.856201 
L 84.877508 57.388378 
L 88.171731 56.181709 
L 90.620141 55.53071 
L 93.924992 54.844462 
L 97.798432 54.301351 
L 103.541065 53.774008 
L 109.283698 53.46837 
L 117.897648 53.258802 
L 133.689889 53.150154 
L 195.423196 53.13539 
L 281.562693 53.238943 
L 291.612302 53.46837 
L 297.354935 53.774008 
L 303.097568 54.301351 
L 307.404543 54.921169 
L 311.711518 55.893933 
L 314.582834 56.821209 
L 316.314058 57.518955 
L 318.889809 58.862878 
L 320.801883 60.193447 
L 322.334449 61.530693 
L 323.582282 62.86794 
L 324.632442 64.215436 
L 326.208287 66.879678 
L 327.503759 69.948088 
L 328.202666 72.228663 
L 328.939417 75.306972 
L 329.522497 78.914894 
L 329.973418 82.926633 
L 330.375075 88.690422 
L 330.616839 96.299095 
L 330.744647 108.334312 
L 330.77424 141.765467 
L 330.681273 248.745166 
L 330.469251 258.105889 
L 330.189498 263.454874 
L 329.692436 268.803859 
L 329.111565 272.815598 
L 328.549343 275.49009 
L 327.503759 279.107912 
L 326.817196 280.839075 
L 326.068101 282.451627 
L 324.625273 284.850814 
L 323.196784 286.631818 
L 321.761126 288.059329 
L 320.325467 289.221625 
L 318.878804 290.199799 
L 316.018492 291.667622 
L 312.724269 292.874291 
L 310.275859 293.52529 
L 306.971008 294.211538 
L 303.097568 294.754649 
L 297.354935 295.281992 
L 291.612302 295.58763 
L 282.998352 295.797198 
L 267.206111 295.905846 
L 205.472804 295.92061 
L 119.333307 295.817057 
L 109.283698 295.58763 
L 109.283698 295.58763 
" style="fill:none;stroke:#00cc99;stroke-width:1.5;"/>
   </g>
   <g id="LineCollection_7">
    <path clip-path="url(#p5cbb3b6fd8)" d="M 96.362774 297.029334 
L 92.055799 296.417493 
L 87.748824 295.518899 
L 84.877508 294.641845 
L 83.441849 294.114435 
L 80.570533 292.748942 
L 78.647761 291.537045 
L 76.959929 290.199799 
L 75.597319 288.862553 
L 74.471392 287.525307 
L 73.392241 285.975861 
L 71.956583 283.286925 
L 70.99719 280.839075 
L 70.191391 278.164583 
L 69.336341 274.152844 
L 68.773273 270.141106 
L 68.308724 264.792121 
L 67.988346 258.105889 
L 67.796185 248.745166 
L 67.717746 231.360965 
L 67.719277 116.357789 
L 67.854583 96.299095 
L 68.090697 88.275618 
L 68.511101 81.589387 
L 69.113063 76.240402 
L 69.872122 72.228663 
L 70.553009 69.554171 
L 71.494608 66.879678 
L 72.060832 65.542432 
L 73.526816 62.86794 
L 74.827899 61.076971 
L 76.263558 59.504837 
L 77.699216 58.235632 
L 79.134874 57.186886 
L 80.798349 56.181709 
L 83.685172 54.844462 
L 86.313166 53.950834 
L 89.184482 53.200272 
L 93.491457 52.403833 
L 97.798432 51.879364 
L 103.541065 51.446658 
L 110.719357 51.148242 
L 120.768965 50.969253 
L 140.868181 50.895038 
L 271.513085 50.915753 
L 287.305327 51.076751 
L 295.919276 51.36958 
L 301.66191 51.749481 
L 305.968884 52.195861 
L 310.275859 52.902888 
L 313.147176 53.537101 
L 316.018492 54.414155 
L 317.454151 54.941565 
L 320.325467 56.307058 
L 322.248239 57.518955 
L 323.936071 58.856201 
L 325.298681 60.193447 
L 326.424608 61.530693 
L 327.503759 63.080139 
L 328.939417 65.769075 
L 329.89881 68.216925 
L 330.704609 70.891417 
L 331.559659 74.903156 
L 332.122727 78.914894 
L 332.587276 84.263879 
L 332.907654 90.950111 
L 333.099815 100.310834 
L 333.178254 117.695035 
L 333.176723 232.698211 
L 333.041417 252.756905 
L 332.805303 260.780382 
L 332.384899 267.466613 
L 331.782937 272.815598 
L 331.023878 276.827337 
L 330.342991 279.501829 
L 329.401392 282.176322 
L 328.835168 283.513568 
L 327.369184 286.18806 
L 326.068101 287.979029 
L 324.632442 289.551163 
L 323.196784 290.820368 
L 321.761126 291.869114 
L 320.097651 292.874291 
L 317.210828 294.211538 
L 314.582834 295.105166 
L 311.711518 295.855728 
L 307.404543 296.652167 
L 303.097568 297.176636 
L 297.354935 297.609342 
L 290.176643 297.907758 
L 280.127035 298.086747 
L 260.027819 298.160962 
L 129.382915 298.140247 
L 113.590673 297.979249 
L 104.976724 297.68642 
L 99.23409 297.306519 
L 96.362774 297.029334 
L 96.362774 297.029334 
" style="fill:none;stroke:#00c29e;stroke-width:1.5;"/>
   </g>
   <g id="LineCollection_8">
    <path clip-path="url(#p5cbb3b6fd8)" d="M 103.541065 299.615228 
L 97.798432 299.228165 
L 93.491457 298.772193 
L 89.184482 298.106447 
L 86.313166 297.464249 
L 83.441849 296.635468 
L 80.570533 295.525175 
L 77.699216 293.985302 
L 76.093879 292.874291 
L 74.534487 291.537045 
L 73.253949 290.199799 
L 71.956583 288.520349 
L 70.520925 286.139136 
L 69.354269 283.513568 
L 68.464494 280.839075 
L 67.649608 277.584943 
L 67.060295 274.152844 
L 66.570766 270.141106 
L 66.155218 264.792121 
L 65.857283 256.768643 
L 65.703258 244.733427 
L 65.663657 216.651256 
L 65.762369 97.636342 
L 65.975556 88.275618 
L 66.3329 81.589387 
L 66.876693 76.240402 
L 67.50087 72.228663 
L 68.100026 69.554171 
L 69.085266 66.256735 
L 69.916661 64.205186 
L 70.546271 62.86794 
L 72.199468 60.193447 
L 73.392241 58.698153 
L 74.827899 57.245656 
L 76.263558 56.052896 
L 78.066603 54.844462 
L 80.623057 53.507216 
L 83.441849 52.420532 
L 86.313166 51.591751 
L 89.80678 50.832724 
L 93.491457 50.283807 
L 99.23409 49.709994 
L 104.976724 49.377257 
L 113.590673 49.135955 
L 127.947256 49.007848 
L 169.581347 48.982687 
L 284.43401 49.092196 
L 294.483618 49.321781 
L 301.66191 49.709994 
L 307.404543 50.283807 
L 311.711518 50.949553 
L 314.582834 51.591751 
L 317.454151 52.420532 
L 320.325467 53.530825 
L 323.196784 55.070698 
L 324.802121 56.181709 
L 326.361513 57.518955 
L 327.642051 58.856201 
L 328.939417 60.535651 
L 330.375075 62.916864 
L 331.541731 65.542432 
L 332.431506 68.216925 
L 333.246392 71.471057 
L 333.835705 74.903156 
L 334.325234 78.914894 
L 334.740782 84.263879 
L 335.038717 92.287357 
L 335.192742 104.322573 
L 335.232343 132.404744 
L 335.133631 251.419658 
L 334.920444 260.780382 
L 334.5631 267.466613 
L 334.019307 272.815598 
L 333.39513 276.827337 
L 332.795974 279.501829 
L 331.810734 282.799265 
L 330.979339 284.850814 
L 330.349729 286.18806 
L 328.696532 288.862553 
L 327.503759 290.357847 
L 326.068101 291.810344 
L 324.632442 293.003104 
L 322.829397 294.211538 
L 320.272943 295.548784 
L 317.454151 296.635468 
L 314.582834 297.464249 
L 311.08922 298.223276 
L 307.404543 298.772193 
L 301.66191 299.346006 
L 295.919276 299.678743 
L 287.305327 299.920045 
L 272.948744 300.048152 
L 231.314653 300.073313 
L 116.46199 299.963804 
L 106.412382 299.734219 
L 103.541065 299.615228 
L 103.541065 299.615228 
" style="fill:none;stroke:#00b8a3;stroke-width:1.5;"/>
   </g>
   <g id="LineCollection_9">
    <path clip-path="url(#p5cbb3b6fd8)" d="M 96.362774 300.911095 
L 92.055799 300.444414 
L 87.748824 299.775414 
L 84.877508 299.144187 
L 81.694114 298.223276 
L 79.134874 297.219137 
L 77.699216 296.529742 
L 75.979114 295.548784 
L 74.109151 294.211538 
L 72.604176 292.874291 
L 71.369437 291.537045 
L 70.331118 290.199799 
L 68.727645 287.525307 
L 67.537495 284.850814 
L 66.660925 282.176322 
L 65.983244 279.501829 
L 65.265011 275.49009 
L 64.763985 271.478352 
L 64.368311 266.129367 
L 64.093081 259.443136 
L 63.913489 248.745166 
L 63.852452 227.349226 
L 63.913489 100.310834 
L 64.134132 88.275618 
L 64.449092 81.589387 
L 64.910093 76.240402 
L 65.476993 72.228663 
L 66.290614 68.216925 
L 67.075037 65.542432 
L 68.094498 62.86794 
L 69.467775 60.193447 
L 70.520925 58.591256 
L 71.956583 56.849475 
L 73.392241 55.447664 
L 74.827899 54.297565 
L 76.263558 53.33042 
L 79.134874 51.836863 
L 82.006191 50.728296 
L 84.877508 49.911813 
L 87.748824 49.280586 
L 92.055799 48.611586 
L 96.362774 48.144905 
L 102.105407 47.776354 
L 110.719357 47.486805 
L 123.640281 47.334642 
L 153.789106 47.294174 
L 284.43401 47.393461 
L 294.483618 47.602191 
L 301.66191 47.937243 
L 307.404543 48.436321 
L 311.711518 49.031139 
L 314.582834 49.566886 
L 317.454151 50.297539 
L 320.325467 51.247117 
L 323.196784 52.526258 
L 324.916886 53.507216 
L 326.786849 54.844462 
L 328.291824 56.181709 
L 329.526563 57.518955 
L 330.564882 58.856201 
L 332.168355 61.530693 
L 333.358505 64.205186 
L 334.235075 66.879678 
L 334.912756 69.554171 
L 335.630989 73.56591 
L 336.132015 77.577648 
L 336.527689 82.926633 
L 336.802919 89.612864 
L 336.982511 100.310834 
L 337.043548 121.706774 
L 336.982511 248.745166 
L 336.761868 260.780382 
L 336.446908 267.466613 
L 335.985907 272.815598 
L 335.419007 276.827337 
L 334.605386 280.839075 
L 333.820963 283.513568 
L 332.801502 286.18806 
L 331.428225 288.862553 
L 330.375075 290.464744 
L 328.939417 292.206525 
L 327.503759 293.608336 
L 326.068101 294.758435 
L 324.632442 295.72558 
L 321.761126 297.219137 
L 318.889809 298.327704 
L 316.018492 299.144187 
L 313.147176 299.775414 
L 308.840201 300.444414 
L 304.533226 300.911095 
L 298.790593 301.279646 
L 290.176643 301.569195 
L 277.255719 301.721358 
L 247.106894 301.761826 
L 116.46199 301.662539 
L 106.412382 301.453809 
L 99.23409 301.118757 
L 96.362774 300.911095 
L 96.362774 300.911095 
" style="fill:none;stroke:#00aea8;stroke-width:1.5;"/>
   </g>
   <g id="LineCollection_10">
    <path clip-path="url(#p5cbb3b6fd8)" d="M 93.491457 302.256693 
L 89.184482 301.71805 
L 84.632577 300.897769 
L 82.006191 300.215978 
L 79.134874 299.266726 
L 76.263558 297.98849 
L 74.357469 296.88603 
L 72.51064 295.548784 
L 71.02198 294.211538 
L 69.799125 292.874291 
L 68.769938 291.537045 
L 67.649608 289.769019 
L 66.529368 287.525307 
L 65.978688 286.18806 
L 65.090236 283.513568 
L 64.414175 280.839075 
L 63.680858 276.827337 
L 63.181387 272.815598 
L 62.77274 267.466613 
L 62.486106 260.780382 
L 62.29654 250.082412 
L 62.230981 230.023719 
L 62.275751 101.64808 
L 62.448746 89.612864 
L 62.77274 81.589387 
L 63.181387 76.240402 
L 63.680858 72.228663 
L 64.414175 68.216925 
L 65.090236 65.542432 
L 66.21395 62.264948 
L 67.168374 60.193447 
L 67.901673 58.856201 
L 69.085266 57.080772 
L 70.520925 55.36054 
L 71.956583 53.973925 
L 73.392241 52.834895 
L 74.827899 51.876256 
L 77.699216 50.384477 
L 80.570533 49.276342 
L 83.441849 48.448793 
L 86.313166 47.819074 
L 90.620141 47.136025 
L 94.927116 46.670792 
L 100.669749 46.290157 
L 109.283698 45.988372 
L 122.204623 45.827236 
L 150.917789 45.783071 
L 284.43401 45.873222 
L 295.919276 46.109081 
L 303.097568 46.456655 
L 308.840201 46.956509 
L 313.147176 47.564738 
L 316.263423 48.158231 
L 318.889809 48.840022 
L 321.761126 49.789274 
L 324.632442 51.06751 
L 326.538531 52.16997 
L 328.38536 53.507216 
L 329.87402 54.844462 
L 331.096875 56.181709 
L 332.126062 57.518955 
L 333.246392 59.286981 
L 334.366632 61.530693 
L 334.917312 62.86794 
L 335.805764 65.542432 
L 336.481825 68.216925 
L 337.215142 72.228663 
L 337.714613 76.240402 
L 338.12326 81.589387 
L 338.409894 88.275618 
L 338.59946 98.973588 
L 338.665019 119.032281 
L 338.620249 247.40792 
L 338.447254 259.443136 
L 338.12326 267.466613 
L 337.714613 272.815598 
L 337.215142 276.827337 
L 336.481825 280.839075 
L 335.805764 283.513568 
L 334.68205 286.791052 
L 333.727626 288.862553 
L 332.994327 290.199799 
L 331.810734 291.975228 
L 330.375075 293.69546 
L 328.939417 295.082075 
L 327.503759 296.221105 
L 326.068101 297.179744 
L 323.196784 298.671523 
L 320.325467 299.779658 
L 317.454151 300.607207 
L 314.582834 301.236926 
L 310.275859 301.919975 
L 305.968884 302.385208 
L 300.226251 302.765843 
L 291.612302 303.067628 
L 278.691377 303.228764 
L 249.978211 303.272929 
L 116.46199 303.182778 
L 104.976724 302.946919 
L 97.798432 302.599345 
L 93.491457 302.256693 
L 93.491457 302.256693 
" style="fill:none;stroke:#00a3ae;stroke-width:1.5;"/>
   </g>
   <g id="LineCollection_11">
    <path clip-path="url(#p5cbb3b6fd8)" d="M 92.055799 303.579707 
L 87.748824 303.026904 
L 83.391471 302.235015 
L 80.570533 301.49512 
L 77.699216 300.528246 
L 74.827899 299.230984 
L 73.082159 298.223276 
L 71.224831 296.88603 
L 69.722544 295.548784 
L 68.484836 294.211538 
L 67.440844 292.874291 
L 65.819794 290.199799 
L 64.611323 287.525307 
L 63.711101 284.850814 
L 63.019243 282.176322 
L 62.270884 278.164583 
L 61.757157 274.152844 
L 61.335438 268.803859 
L 61.037226 262.117628 
L 60.851448 252.756905 
L 60.770008 235.372704 
L 60.763621 125.718513 
L 60.867816 94.961849 
L 61.082118 85.601126 
L 61.422044 78.914894 
L 61.906975 73.499007 
L 62.492466 69.554171 
L 63.342633 65.495507 
L 64.13698 62.86794 
L 65.175008 60.193447 
L 66.56774 57.518955 
L 67.649608 55.892882 
L 69.085266 54.162871 
L 70.520925 52.763563 
L 71.956583 51.610698 
L 73.392241 50.63827 
L 76.263558 49.12834 
L 79.134874 48.002708 
L 82.006191 47.164195 
L 84.877508 46.519763 
L 89.184482 45.822703 
L 93.491457 45.344191 
L 99.23409 44.95138 
L 106.412382 44.67361 
L 117.897648 44.487493 
L 139.432523 44.421403 
L 278.691377 44.458675 
L 293.04796 44.637164 
L 301.66191 44.95138 
L 307.404543 45.344191 
L 311.711518 45.822703 
L 316.018492 46.519763 
L 318.889809 47.164195 
L 322.215425 48.158231 
L 324.632442 49.12834 
L 326.068101 49.825016 
L 327.813841 50.832724 
L 329.671169 52.16997 
L 331.173456 53.507216 
L 332.411164 54.844462 
L 333.455156 56.181709 
L 335.076206 58.856201 
L 336.284677 61.530693 
L 337.184899 64.205186 
L 337.876757 66.879678 
L 338.625116 70.891417 
L 339.138843 74.903156 
L 339.560562 80.252141 
L 339.858774 86.938372 
L 340.044552 96.299095 
L 340.125992 113.683296 
L 340.132379 223.337487 
L 340.028184 254.094151 
L 339.813882 263.454874 
L 339.473956 270.141106 
L 338.989025 275.556993 
L 338.403534 279.501829 
L 337.553367 283.560493 
L 336.75902 286.18806 
L 335.720992 288.862553 
L 334.32826 291.537045 
L 333.246392 293.163118 
L 331.810734 294.893129 
L 330.375075 296.292437 
L 328.939417 297.445302 
L 327.503759 298.41773 
L 324.632442 299.92766 
L 321.761126 301.053292 
L 318.889809 301.891805 
L 316.018492 302.536237 
L 311.711518 303.233297 
L 307.404543 303.711809 
L 301.66191 304.10462 
L 294.483618 304.38239 
L 282.998352 304.568507 
L 261.463477 304.634597 
L 122.204623 304.597325 
L 107.84804 304.418836 
L 99.23409 304.10462 
L 93.491457 303.711809 
L 92.055799 303.579707 
L 92.055799 303.579707 
" style="fill:none;stroke:#0099b2;stroke-width:1.5;"/>
   </g>
   <g id="LineCollection_12">
    <path clip-path="url(#p5cbb3b6fd8)" d="M 92.055799 304.916962 
L 87.748824 304.413439 
L 83.441849 303.702409 
L 80.570533 303.030416 
L 77.699216 302.175708 
L 74.558504 300.897769 
L 71.956583 299.471924 
L 70.190467 298.223276 
L 68.651283 296.88603 
L 67.377871 295.548784 
L 66.21395 294.079939 
L 64.643007 291.537045 
L 63.342633 288.701188 
L 62.488697 286.18806 
L 61.767249 283.513568 
L 61.003892 279.501829 
L 60.463314 275.49009 
L 60.028429 270.141106 
L 59.718473 263.454874 
L 59.523067 254.094151 
L 59.435473 236.70995 
L 59.427379 137.753729 
L 59.523067 94.961849 
L 59.765338 84.263879 
L 60.117991 77.577648 
L 60.622317 72.228663 
L 61.230262 68.216925 
L 62.101117 64.205186 
L 62.920382 61.530693 
L 63.992519 58.856201 
L 64.778291 57.268025 
L 66.309069 54.844462 
L 67.649608 53.199411 
L 69.085266 51.765735 
L 70.520925 50.579614 
L 72.097866 49.495477 
L 74.827899 48.032221 
L 77.872457 46.820985 
L 80.570533 46.025584 
L 83.441849 45.353591 
L 87.748824 44.642561 
L 92.055799 44.139038 
L 97.798432 43.733964 
L 104.976724 43.445256 
L 116.46199 43.249342 
L 137.996864 43.177965 
L 277.255719 43.204878 
L 293.04796 43.373895 
L 301.66191 43.660407 
L 308.840201 44.139038 
L 313.147176 44.642561 
L 317.454151 45.353591 
L 320.325467 46.025584 
L 323.196784 46.880292 
L 326.337496 48.158231 
L 328.939417 49.584076 
L 330.705533 50.832724 
L 332.244717 52.16997 
L 333.518129 53.507216 
L 334.68205 54.976061 
L 336.252993 57.518955 
L 337.553367 60.354812 
L 338.407303 62.86794 
L 339.128751 65.542432 
L 339.892108 69.554171 
L 340.432686 73.56591 
L 340.867571 78.914894 
L 341.177527 85.601126 
L 341.372933 94.961849 
L 341.460527 112.34605 
L 341.468621 211.302271 
L 341.372933 254.094151 
L 341.130662 264.792121 
L 340.778009 271.478352 
L 340.273683 276.827337 
L 339.665738 280.839075 
L 338.794883 284.850814 
L 337.975618 287.525307 
L 336.903481 290.199799 
L 336.117709 291.787975 
L 334.586931 294.211538 
L 333.246392 295.856589 
L 331.810734 297.290265 
L 330.375075 298.476386 
L 328.798134 299.560523 
L 326.068101 301.023779 
L 323.023543 302.235015 
L 320.325467 303.030416 
L 317.454151 303.702409 
L 313.147176 304.413439 
L 308.840201 304.916962 
L 303.097568 305.322036 
L 295.919276 305.610744 
L 284.43401 305.806658 
L 262.899136 305.878035 
L 123.640281 305.851122 
L 107.84804 305.682105 
L 99.23409 305.395593 
L 92.055799 304.916962 
L 92.055799 304.916962 
" style="fill:none;stroke:#008fb8;stroke-width:1.5;"/>
   </g>
   <g id="LineCollection_13">
    <path clip-path="url(#p5cbb3b6fd8)" d="M 93.491457 306.256491 
L 89.184482 305.848621 
L 84.877508 305.269616 
L 82.006191 304.745504 
L 79.134874 304.050348 
L 76.263558 303.152873 
L 73.392241 301.966143 
L 71.389056 300.897769 
L 69.085266 299.331259 
L 67.649608 298.107228 
L 66.21395 296.607224 
L 64.429414 294.211538 
L 62.949217 291.537045 
L 61.831144 288.862553 
L 61.000458 286.18806 
L 60.343197 283.513568 
L 59.647145 279.501829 
L 59.035658 274.27128 
L 58.74632 270.141106 
L 58.463428 263.454874 
L 58.271462 252.756905 
L 58.201524 232.698211 
L 58.234034 101.64808 
L 58.393506 88.275618 
L 58.674245 80.252141 
L 59.035658 74.78472 
L 59.647145 69.554171 
L 60.343197 65.542432 
L 61.000458 62.86794 
L 61.906975 59.984793 
L 62.949217 57.518955 
L 63.631293 56.181709 
L 64.778291 54.315839 
L 66.460085 52.16997 
L 67.774197 50.832724 
L 69.38459 49.495477 
L 71.956583 47.833269 
L 74.827899 46.454537 
L 77.699216 45.413106 
L 80.570533 44.639362 
L 83.441849 44.027155 
L 87.748824 43.378817 
L 93.491457 42.799509 
L 100.669749 42.413518 
L 109.283698 42.184731 
L 123.640281 42.056853 
L 163.838714 42.028757 
L 287.305327 42.124883 
L 298.790593 42.361605 
L 305.968884 42.702081 
L 310.275859 43.054736 
L 314.582834 43.571079 
L 318.889809 44.310496 
L 321.761126 45.005652 
L 324.632442 45.903127 
L 327.503759 47.089857 
L 329.506944 48.158231 
L 331.810734 49.724741 
L 333.246392 50.948772 
L 334.68205 52.448776 
L 336.466586 54.844462 
L 337.946783 57.518955 
L 339.064856 60.193447 
L 339.895542 62.86794 
L 340.552803 65.542432 
L 341.248855 69.554171 
L 341.860342 74.78472 
L 342.14968 78.914894 
L 342.432572 85.601126 
L 342.624538 96.299095 
L 342.694476 116.357789 
L 342.661966 247.40792 
L 342.502494 260.780382 
L 342.221755 268.803859 
L 341.860342 274.27128 
L 341.248855 279.501829 
L 340.552803 283.513568 
L 339.895542 286.18806 
L 338.989025 289.071207 
L 337.946783 291.537045 
L 337.264707 292.874291 
L 336.117709 294.740161 
L 334.435915 296.88603 
L 333.121803 298.223276 
L 331.51141 299.560523 
L 328.939417 301.222731 
L 326.068101 302.601463 
L 323.196784 303.642894 
L 320.325467 304.416638 
L 317.454151 305.028845 
L 313.147176 305.677183 
L 307.404543 306.256491 
L 300.226251 306.642482 
L 291.612302 306.871269 
L 277.255719 306.999147 
L 237.057286 307.027243 
L 113.590673 306.931117 
L 102.105407 306.694395 
L 94.927116 306.353919 
L 93.491457 306.256491 
L 93.491457 306.256491 
" style="fill:none;stroke:#0085bc;stroke-width:1.5;"/>
   </g>
   <g id="LineCollection_14">
    <path clip-path="url(#p5cbb3b6fd8)" d="M 96.935992 307.584 
L 96.362774 307.5536 
L 94.927116 307.467399 
L 93.491457 307.369971 
L 92.055799 307.260034 
L 90.620141 307.13618 
L 89.184482 306.996865 
L 87.748824 306.840396 
L 86.313166 306.664921 
L 84.877508 306.468416 
L 83.441849 306.248668 
L 83.430654 306.246754 
L 82.006191 305.97997 
L 80.570533 305.6801 
L 79.134874 305.346106 
L 77.699216 304.974577 
L 77.472893 304.909508 
L 76.263558 304.528191 
L 74.827899 304.02588 
L 73.658123 303.572261 
L 73.392241 303.459079 
L 71.956583 302.782523 
L 70.905906 302.235015 
L 70.520925 302.014577 
L 69.085266 301.10658 
L 68.786036 300.897769 
L 67.649608 300.025504 
L 67.099971 299.560523 
L 66.21395 298.735237 
L 65.714749 298.223276 
L 64.778291 297.164749 
L 64.554113 296.88603 
L 63.579294 295.548784 
L 63.342633 295.190193 
L 62.754832 294.211538 
L 62.028487 292.874291 
L 61.906975 292.626635 
L 61.419973 291.537045 
L 60.880695 290.199799 
L 60.471317 289.073361 
L 60.401458 288.862553 
L 60.002588 287.525307 
L 59.644014 286.18806 
L 59.322076 284.850814 
L 59.035658 283.523996 
L 59.033604 283.513568 
L 58.797684 282.176322 
L 58.586716 280.839075 
L 58.398328 279.501829 
L 58.230344 278.164583 
L 58.080777 276.827337 
L 57.947808 275.49009 
L 57.82978 274.152844 
L 57.725182 272.815598 
L 57.632637 271.478352 
L 57.6 270.944427 
" style="fill:none;stroke:#007ac2;stroke-width:1.5;"/>
    <path clip-path="url(#p5cbb3b6fd8)" d="M 343.296 270.944427 
L 343.263363 271.478352 
L 343.170818 272.815598 
L 343.06622 274.152844 
L 342.948192 275.49009 
L 342.815223 276.827337 
L 342.665656 278.164583 
L 342.497672 279.501829 
L 342.309284 280.839075 
L 342.098316 282.176322 
L 341.862396 283.513568 
L 341.860342 283.523996 
L 341.573924 284.850814 
L 341.251986 286.18806 
L 340.893412 287.525307 
L 340.494542 288.862553 
L 340.424683 289.073361 
L 340.015305 290.199799 
L 339.476027 291.537045 
L 338.989025 292.626635 
L 338.867513 292.874291 
L 338.141168 294.211538 
L 337.553367 295.190193 
L 337.316706 295.548784 
L 336.341887 296.88603 
L 336.117709 297.164749 
L 335.181251 298.223276 
L 334.68205 298.735237 
L 333.796029 299.560523 
L 333.246392 300.025504 
L 332.109964 300.897769 
L 331.810734 301.10658 
L 330.375075 302.014577 
L 329.990094 302.235015 
L 328.939417 302.782523 
L 327.503759 303.459079 
L 327.237877 303.572261 
L 326.068101 304.02588 
L 324.632442 304.528191 
L 323.423107 304.909508 
L 323.196784 304.974577 
L 321.761126 305.346106 
L 320.325467 305.6801 
L 318.889809 305.97997 
L 317.465346 306.246754 
L 317.454151 306.248668 
L 316.018492 306.468416 
L 314.582834 306.664921 
L 313.147176 306.840396 
L 311.711518 306.996865 
L 310.275859 307.13618 
L 308.840201 307.260034 
L 307.404543 307.369971 
L 305.968884 307.467399 
L 304.533226 307.5536 
L 303.960008 307.584 
" style="fill:none;stroke:#007ac2;stroke-width:1.5;"/>
    <path clip-path="url(#p5cbb3b6fd8)" d="M 57.6 78.111573 
L 57.632637 77.577648 
L 57.725182 76.240402 
L 57.82978 74.903156 
L 57.947808 73.56591 
L 58.080777 72.228663 
L 58.230344 70.891417 
L 58.398328 69.554171 
L 58.586716 68.216925 
L 58.797684 66.879678 
L 59.033604 65.542432 
L 59.035658 65.532004 
L 59.322076 64.205186 
L 59.644014 62.86794 
L 60.002588 61.530693 
L 60.401458 60.193447 
L 60.471317 59.982639 
L 60.880695 58.856201 
L 61.419973 57.518955 
L 61.906975 56.429365 
L 62.028487 56.181709 
L 62.754832 54.844462 
L 63.342633 53.865807 
L 63.579294 53.507216 
L 64.554113 52.16997 
L 64.778291 51.891251 
L 65.714749 50.832724 
L 66.21395 50.320763 
L 67.099971 49.495477 
L 67.649608 49.030496 
L 68.786036 48.158231 
L 69.085266 47.94942 
L 70.520925 47.041423 
L 70.905906 46.820985 
L 71.956583 46.273477 
L 73.392241 45.596921 
L 73.658123 45.483739 
L 74.827899 45.03012 
L 76.263558 44.527809 
L 77.472893 44.146492 
L 77.699216 44.081423 
L 79.134874 43.709894 
L 80.570533 43.3759 
L 82.006191 43.07603 
L 83.430654 42.809246 
L 83.441849 42.807332 
L 84.877508 42.587584 
L 86.313166 42.391079 
L 87.748824 42.215604 
L 89.184482 42.059135 
L 90.620141 41.91982 
L 92.055799 41.795966 
L 93.491457 41.686029 
L 94.927116 41.588601 
L 96.362774 41.5024 
L 96.935992 41.472 
" style="fill:none;stroke:#007ac2;stroke-width:1.5;"/>
    <path clip-path="url(#p5cbb3b6fd8)" d="M 303.960008 41.472 
L 304.533226 41.5024 
L 305.968884 41.588601 
L 307.404543 41.686029 
L 308.840201 41.795966 
L 310.275859 41.91982 
L 311.711518 42.059135 
L 313.147176 42.215604 
L 314.582834 42.391079 
L 316.018492 42.587584 
L 317.454151 42.807332 
L 317.465346 42.809246 
L 318.889809 43.07603 
L 320.325467 43.3759 
L 321.761126 43.709894 
L 323.196784 44.081423 
L 323.423107 44.146492 
L 324.632442 44.527809 
L 326.068101 45.03012 
L 327.237877 45.483739 
L 327.503759 45.596921 
L 328.939417 46.273477 
L 329.990094 46.820985 
L 330.375075 47.041423 
L 331.810734 47.94942 
L 332.109964 48.158231 
L 333.246392 49.030496 
L 333.796029 49.495477 
L 334.68205 50.320763 
L 335.181251 50.832724 
L 336.117709 51.891251 
L 336.341887 52.16997 
L 337.316706 53.507216 
L 337.553367 53.865807 
L 338.141168 54.844462 
L 338.867513 56.181709 
L 338.989025 56.429365 
L 339.476027 57.518955 
L 340.015305 58.856201 
L 340.424683 59.982639 
L 340.494542 60.193447 
L 340.893412 61.530693 
L 341.251986 62.86794 
L 341.573924 64.205186 
L 341.860342 65.532004 
L 341.862396 65.542432 
L 342.098316 66.879678 
L 342.309284 68.216925 
L 342.497672 69.554171 
L 342.665656 70.891417 
L 342.815223 72.228663 
L 342.948192 73.56591 
L 343.06622 74.903156 
L 343.170818 76.240402 
L 343.263363 77.577648 
L 343.296 78.111573 
" style="fill:none;stroke:#007ac2;stroke-width:1.5;"/>
   </g>
   <g id="LineCollection_15">
    <path clip-path="url(#p5cbb3b6fd8)" d="M 84.892879 307.584 
L 84.877508 307.581896 
L 83.441849 307.362148 
L 82.006191 307.116745 
L 80.570533 306.843058 
L 79.134874 306.538226 
L 77.900814 306.246754 
L 77.699216 306.194583 
L 76.263558 305.781818 
L 74.827899 305.323796 
L 73.656243 304.909508 
L 73.392241 304.807132 
L 71.956583 304.190818 
L 70.653536 303.572261 
L 70.520925 303.503158 
L 69.085266 302.676818 
L 68.389592 302.235015 
L 67.649608 301.718634 
L 66.582346 300.897769 
L 66.21395 300.586114 
L 65.112882 299.560523 
L 64.778291 299.21738 
L 63.897016 298.223276 
L 63.342633 297.534017 
L 62.868317 296.88603 
L 61.981164 295.548784 
L 61.906975 295.425263 
L 61.242896 294.211538 
L 60.581226 292.874291 
L 60.471317 292.628386 
L 60.02654 291.537045 
L 59.53481 290.199799 
L 59.091668 288.862553 
L 59.035658 288.674774 
L 58.722735 287.525307 
L 58.39547 286.18806 
L 58.101642 284.850814 
L 57.838179 283.513568 
L 57.602259 282.176322 
L 57.6 282.162003 
" style="fill:none;stroke:#0070c7;stroke-width:1.5;"/>
    <path clip-path="url(#p5cbb3b6fd8)" d="M 343.296 282.162003 
L 343.293741 282.176322 
L 343.057821 283.513568 
L 342.794358 284.850814 
L 342.50053 286.18806 
L 342.173265 287.525307 
L 341.860342 288.674774 
L 341.804332 288.862553 
L 341.36119 290.199799 
L 340.86946 291.537045 
L 340.424683 292.628386 
L 340.314774 292.874291 
L 339.653104 294.211538 
L 338.989025 295.425263 
L 338.914836 295.548784 
L 338.027683 296.88603 
L 337.553367 297.534017 
L 336.998984 298.223276 
L 336.117709 299.21738 
L 335.783118 299.560523 
L 334.68205 300.586114 
L 334.313654 300.897769 
L 333.246392 301.718634 
L 332.506408 302.235015 
L 331.810734 302.676818 
L 330.375075 303.503158 
L 330.242464 303.572261 
L 328.939417 304.190818 
L 327.503759 304.807132 
L 327.239757 304.909508 
L 326.068101 305.323796 
L 324.632442 305.781818 
L 323.196784 306.194583 
L 322.995186 306.246754 
L 321.761126 306.538226 
L 320.325467 306.843058 
L 318.889809 307.116745 
L 317.454151 307.362148 
L 316.018492 307.581896 
L 316.003121 307.584 
" style="fill:none;stroke:#0070c7;stroke-width:1.5;"/>
    <path clip-path="url(#p5cbb3b6fd8)" d="M 57.6 66.893997 
L 57.602259 66.879678 
L 57.838179 65.542432 
L 58.101642 64.205186 
L 58.39547 62.86794 
L 58.722735 61.530693 
L 59.035658 60.381226 
L 59.091668 60.193447 
L 59.53481 58.856201 
L 60.02654 57.518955 
L 60.471317 56.427614 
L 60.581226 56.181709 
L 61.242896 54.844462 
L 61.906975 53.630737 
L 61.981164 53.507216 
L 62.868317 52.16997 
L 63.342633 51.521983 
L 63.897016 50.832724 
L 64.778291 49.83862 
L 65.112882 49.495477 
L 66.21395 48.469886 
L 66.582346 48.158231 
L 67.649608 47.337366 
L 68.389592 46.820985 
L 69.085266 46.379182 
L 70.520925 45.552842 
L 70.653536 45.483739 
L 71.956583 44.865182 
L 73.392241 44.248868 
L 73.656243 44.146492 
L 74.827899 43.732204 
L 76.263558 43.274182 
L 77.699216 42.861417 
L 77.900814 42.809246 
L 79.134874 42.517774 
L 80.570533 42.212942 
L 82.006191 41.939255 
L 83.441849 41.693852 
L 84.877508 41.474104 
L 84.892879 41.472 
" style="fill:none;stroke:#0070c7;stroke-width:1.5;"/>
    <path clip-path="url(#p5cbb3b6fd8)" d="M 316.003121 41.472 
L 316.018492 41.474104 
L 317.454151 41.693852 
L 318.889809 41.939255 
L 320.325467 42.212942 
L 321.761126 42.517774 
L 322.995186 42.809246 
L 323.196784 42.861417 
L 324.632442 43.274182 
L 326.068101 43.732204 
L 327.239757 44.146492 
L 327.503759 44.248868 
L 328.939417 44.865182 
L 330.242464 45.483739 
L 330.375075 45.552842 
L 331.810734 46.379182 
L 332.506408 46.820985 
L 333.246392 47.337366 
L 334.313654 48.158231 
L 334.68205 48.469886 
L 335.783118 49.495477 
L 336.117709 49.83862 
L 336.998984 50.832724 
L 337.553367 51.521983 
L 338.027683 52.16997 
L 338.914836 53.507216 
L 338.989025 53.630737 
L 339.653104 54.844462 
L 340.314774 56.181709 
L 340.424683 56.427614 
L 340.86946 57.518955 
L 341.36119 58.856201 
L 341.804332 60.193447 
L 341.860342 60.381226 
L 342.173265 61.530693 
L 342.50053 62.86794 
L 342.794358 64.205186 
L 343.057821 65.542432 
L 343.293741 66.879678 
L 343.296 66.893997 
" style="fill:none;stroke:#0070c7;stroke-width:1.5;"/>
   </g>
   <g id="LineCollection_16">
    <path clip-path="url(#p5cbb3b6fd8)" d="M 78.848213 307.584 
L 77.699216 307.312619 
L 76.263558 306.935894 
L 74.827899 306.517864 
L 73.987814 306.246754 
L 73.392241 306.036164 
L 71.956583 305.474191 
L 70.652 304.909508 
L 70.520925 304.847286 
L 69.085266 304.094525 
L 68.182513 303.572261 
L 67.649608 303.233829 
L 66.222655 302.235015 
L 66.21395 302.228319 
L 64.778291 301.012546 
L 64.655068 300.897769 
L 63.349822 299.560523 
L 63.342633 299.552414 
L 62.270313 298.223276 
L 61.906975 297.726901 
L 61.346276 296.88603 
L 60.538117 295.548784 
L 60.471317 295.426694 
L 59.865076 294.211538 
L 59.261746 292.874291 
L 59.035658 292.319545 
L 58.744596 291.537045 
L 58.295802 290.199799 
L 57.891353 288.862553 
L 57.6 287.792318 
" style="fill:none;stroke:#0066cc;stroke-width:1.5;"/>
    <path clip-path="url(#p5cbb3b6fd8)" d="M 343.296 287.792318 
L 343.004647 288.862553 
L 342.600198 290.199799 
L 342.151404 291.537045 
L 341.860342 292.319545 
L 341.634254 292.874291 
L 341.030924 294.211538 
L 340.424683 295.426694 
L 340.357883 295.548784 
L 339.549724 296.88603 
L 338.989025 297.726901 
L 338.625687 298.223276 
L 337.553367 299.552414 
L 337.546178 299.560523 
L 336.240932 300.897769 
L 336.117709 301.012546 
L 334.68205 302.228319 
L 334.673345 302.235015 
L 333.246392 303.233829 
L 332.713487 303.572261 
L 331.810734 304.094525 
L 330.375075 304.847286 
L 330.244 304.909508 
L 328.939417 305.474191 
L 327.503759 306.036164 
L 326.908186 306.246754 
L 326.068101 306.517864 
L 324.632442 306.935894 
L 323.196784 307.312619 
L 322.047787 307.584 
" style="fill:none;stroke:#0066cc;stroke-width:1.5;"/>
    <path clip-path="url(#p5cbb3b6fd8)" d="M 57.6 61.263682 
L 57.891353 60.193447 
L 58.295802 58.856201 
L 58.744596 57.518955 
L 59.035658 56.736455 
L 59.261746 56.181709 
L 59.865076 54.844462 
L 60.471317 53.629306 
L 60.538117 53.507216 
L 61.346276 52.16997 
L 61.906975 51.329099 
L 62.270313 50.832724 
L 63.342633 49.503586 
L 63.349822 49.495477 
L 64.655068 48.158231 
L 64.778291 48.043454 
L 66.21395 46.827681 
L 66.222655 46.820985 
L 67.649608 45.822171 
L 68.182513 45.483739 
L 69.085266 44.961475 
L 70.520925 44.208714 
L 70.652 44.146492 
L 71.956583 43.581809 
L 73.392241 43.019836 
L 73.987814 42.809246 
L 74.827899 42.538136 
L 76.263558 42.120106 
L 77.699216 41.743381 
L 78.848213 41.472 
" style="fill:none;stroke:#0066cc;stroke-width:1.5;"/>
    <path clip-path="url(#p5cbb3b6fd8)" d="M 322.047787 41.472 
L 323.196784 41.743381 
L 324.632442 42.120106 
L 326.068101 42.538136 
L 326.908186 42.809246 
L 327.503759 43.019836 
L 328.939417 43.581809 
L 330.244 44.146492 
L 330.375075 44.208714 
L 331.810734 44.961475 
L 332.713487 45.483739 
L 333.246392 45.822171 
L 334.673345 46.820985 
L 334.68205 46.827681 
L 336.117709 48.043454 
L 336.240932 48.158231 
L 337.546178 49.495477 
L 337.553367 49.503586 
L 338.625687 50.832724 
L 338.989025 51.329099 
L 339.549724 52.16997 
L 340.357883 53.507216 
L 340.424683 53.629306 
L 341.030924 54.844462 
L 341.634254 56.181709 
L 341.860342 56.736455 
L 342.151404 57.518955 
L 342.600198 58.856201 
L 343.004647 60.193447 
L 343.296 61.263682 
" style="fill:none;stroke:#0066cc;stroke-width:1.5;"/>
   </g>
   <g id="LineCollection_17">
    <path clip-path="url(#p5cbb3b6fd8)" d="M 74.681193 307.584 
L 73.392241 307.168032 
L 71.956583 306.655128 
L 70.92286 306.246754 
L 70.520925 306.072778 
L 69.085266 305.386388 
L 68.181252 304.909508 
L 67.649608 304.601939 
L 66.21395 303.68651 
L 66.051216 303.572261 
L 64.778291 302.59124 
L 64.358059 302.235015 
L 63.342633 301.289195 
L 62.960193 300.897769 
L 61.906975 299.712102 
L 61.784318 299.560523 
L 60.80152 298.223276 
L 60.471317 297.728075 
L 59.959341 296.88603 
L 59.222438 295.548784 
L 59.035658 295.174401 
L 58.597231 294.211538 
L 58.04658 292.874291 
L 57.6 291.673695 
" style="fill:none;stroke:#005cd1;stroke-width:1.5;"/>
    <path clip-path="url(#p5cbb3b6fd8)" d="M 343.296 291.673695 
L 342.84942 292.874291 
L 342.298769 294.211538 
L 341.860342 295.174401 
L 341.673562 295.548784 
L 340.936659 296.88603 
L 340.424683 297.728075 
L 340.09448 298.223276 
L 339.111682 299.560523 
L 338.989025 299.712102 
L 337.935807 300.897769 
L 337.553367 301.289195 
L 336.537941 302.235015 
L 336.117709 302.59124 
L 334.844784 303.572261 
L 334.68205 303.68651 
L 333.246392 304.601939 
L 332.714748 304.909508 
L 331.810734 305.386388 
L 330.375075 306.072778 
L 329.97314 306.246754 
L 328.939417 306.655128 
L 327.503759 307.168032 
L 326.214807 307.584 
" style="fill:none;stroke:#005cd1;stroke-width:1.5;"/>
    <path clip-path="url(#p5cbb3b6fd8)" d="M 57.6 57.382305 
L 58.04658 56.181709 
L 58.597231 54.844462 
L 59.035658 53.881599 
L 59.222438 53.507216 
L 59.959341 52.16997 
L 60.471317 51.327925 
L 60.80152 50.832724 
L 61.784318 49.495477 
L 61.906975 49.343898 
L 62.960193 48.158231 
L 63.342633 47.766805 
L 64.358059 46.820985 
L 64.778291 46.46476 
L 66.051216 45.483739 
L 66.21395 45.36949 
L 67.649608 44.454061 
L 68.181252 44.146492 
L 69.085266 43.669612 
L 70.520925 42.983222 
L 70.92286 42.809246 
L 71.956583 42.400872 
L 73.392241 41.887968 
L 74.681193 41.472 
" style="fill:none;stroke:#005cd1;stroke-width:1.5;"/>
    <path clip-path="url(#p5cbb3b6fd8)" d="M 326.214807 41.472 
L 327.503759 41.887968 
L 328.939417 42.400872 
L 329.97314 42.809246 
L 330.375075 42.983222 
L 331.810734 43.669612 
L 332.714748 44.146492 
L 333.246392 44.454061 
L 334.68205 45.36949 
L 334.844784 45.483739 
L 336.117709 46.46476 
L 336.537941 46.820985 
L 337.553367 47.766805 
L 337.935807 48.158231 
L 338.989025 49.343898 
L 339.111682 49.495477 
L 340.09448 50.832724 
L 340.424683 51.327925 
L 340.936659 52.16997 
L 341.673562 53.507216 
L 341.860342 53.881599 
L 342.298769 54.844462 
L 342.84942 56.181709 
L 343.296 57.382305 
" style="fill:none;stroke:#005cd1;stroke-width:1.5;"/>
   </g>
   <g id="LineCollection_18">
    <path clip-path="url(#p5cbb3b6fd8)" d="M 71.489282 307.584 
L 70.520925 307.201449 
L 69.085266 306.574991 
L 68.403503 306.246754 
L 67.649608 305.849063 
L 66.21395 305.014348 
L 66.050177 304.909508 
L 64.778291 304.016567 
L 64.202919 303.572261 
L 63.342633 302.84301 
L 62.689894 302.235015 
L 61.906975 301.4337 
L 61.429971 300.897769 
L 60.471317 299.713069 
L 60.35876 299.560523 
L 59.462616 298.223276 
L 59.035658 297.521059 
L 58.683265 296.88603 
L 58.010704 295.548784 
L 57.6 294.646806 
" style="fill:none;stroke:#0051d6;stroke-width:1.5;"/>
    <path clip-path="url(#p5cbb3b6fd8)" d="M 343.296 294.646806 
L 342.885296 295.548784 
L 342.212735 296.88603 
L 341.860342 297.521059 
L 341.433384 298.223276 
L 340.53724 299.560523 
L 340.424683 299.713069 
L 339.466029 300.897769 
L 338.989025 301.4337 
L 338.206106 302.235015 
L 337.553367 302.84301 
L 336.693081 303.572261 
L 336.117709 304.016567 
L 334.845823 304.909508 
L 334.68205 305.014348 
L 333.246392 305.849063 
L 332.492497 306.246754 
L 331.810734 306.574991 
L 330.375075 307.201449 
L 329.406718 307.584 
" style="fill:none;stroke:#0051d6;stroke-width:1.5;"/>
    <path clip-path="url(#p5cbb3b6fd8)" d="M 57.6 54.409194 
L 58.010704 53.507216 
L 58.683265 52.16997 
L 59.035658 51.534941 
L 59.462616 50.832724 
L 60.35876 49.495477 
L 60.471317 49.342931 
L 61.429971 48.158231 
L 61.906975 47.6223 
L 62.689894 46.820985 
L 63.342633 46.21299 
L 64.202919 45.483739 
L 64.778291 45.039433 
L 66.050177 44.146492 
L 66.21395 44.041652 
L 67.649608 43.206937 
L 68.403503 42.809246 
L 69.085266 42.481009 
L 70.520925 41.854551 
L 71.489282 41.472 
" style="fill:none;stroke:#0051d6;stroke-width:1.5;"/>
    <path clip-path="url(#p5cbb3b6fd8)" d="M 329.406718 41.472 
L 330.375075 41.854551 
L 331.810734 42.481009 
L 332.492497 42.809246 
L 333.246392 43.206937 
L 334.68205 44.041652 
L 334.845823 44.146492 
L 336.117709 45.039433 
L 336.693081 45.483739 
L 337.553367 46.21299 
L 338.206106 46.820985 
L 338.989025 47.6223 
L 339.466029 48.158231 
L 340.424683 49.342931 
L 340.53724 49.495477 
L 341.433384 50.832724 
L 341.860342 51.534941 
L 342.212735 52.16997 
L 342.885296 53.507216 
L 343.296 54.409194 
" style="fill:none;stroke:#0051d6;stroke-width:1.5;"/>
   </g>
   <g id="LineCollection_19">
    <path clip-path="url(#p5cbb3b6fd8)" d="M 68.868274 307.584 
L 67.649608 306.997268 
L 66.235277 306.246754 
L 66.21395 306.234354 
L 64.778291 305.315304 
L 64.201975 304.909508 
L 63.342633 304.245919 
L 62.548706 303.572261 
L 61.906975 302.97452 
L 61.183741 302.235015 
L 60.471317 301.43458 
L 60.035657 300.897769 
L 59.048971 299.560523 
L 59.035658 299.540657 
L 58.229912 298.223276 
L 57.6 297.088148 
" style="fill:none;stroke:#0047dc;stroke-width:1.5;"/>
    <path clip-path="url(#p5cbb3b6fd8)" d="M 343.296 297.088148 
L 342.666088 298.223276 
L 341.860342 299.540657 
L 341.847029 299.560523 
L 340.860343 300.897769 
L 340.424683 301.43458 
L 339.712259 302.235015 
L 338.989025 302.97452 
L 338.347294 303.572261 
L 337.553367 304.245919 
L 336.694025 304.909508 
L 336.117709 305.315304 
L 334.68205 306.234354 
L 334.660723 306.246754 
L 333.246392 306.997268 
L 332.027726 307.584 
" style="fill:none;stroke:#0047dc;stroke-width:1.5;"/>
    <path clip-path="url(#p5cbb3b6fd8)" d="M 57.6 51.967852 
L 58.229912 50.832724 
L 59.035658 49.515343 
L 59.048971 49.495477 
L 60.035657 48.158231 
L 60.471317 47.62142 
L 61.183741 46.820985 
L 61.906975 46.08148 
L 62.548706 45.483739 
L 63.342633 44.810081 
L 64.201975 44.146492 
L 64.778291 43.740696 
L 66.21395 42.821646 
L 66.235277 42.809246 
L 67.649608 42.058732 
L 68.868274 41.472 
" style="fill:none;stroke:#0047dc;stroke-width:1.5;"/>
    <path clip-path="url(#p5cbb3b6fd8)" d="M 332.027726 41.472 
L 333.246392 42.058732 
L 334.660723 42.809246 
L 334.68205 42.821646 
L 336.117709 43.740696 
L 336.694025 44.146492 
L 337.553367 44.810081 
L 338.347294 45.483739 
L 338.989025 46.08148 
L 339.712259 46.820985 
L 340.424683 47.62142 
L 340.860343 48.158231 
L 341.847029 49.495477 
L 341.860342 49.515343 
L 342.666088 50.832724 
L 343.296 51.967852 
" style="fill:none;stroke:#0047dc;stroke-width:1.5;"/>
   </g>
   <g id="LineCollection_20">
    <path clip-path="url(#p5cbb3b6fd8)" d="M 66.65696 307.584 
L 66.21395 307.348917 
L 64.778291 306.510114 
L 64.368481 306.246754 
L 63.342633 305.524433 
L 62.547847 304.909508 
L 61.906975 304.365719 
L 61.055124 303.572261 
L 60.471317 302.97532 
L 59.811136 302.235015 
L 59.035658 301.279487 
L 58.752917 300.897769 
L 57.852384 299.560523 
L 57.6 299.14788 
" style="fill:none;stroke:#003de0;stroke-width:1.5;"/>
    <path clip-path="url(#p5cbb3b6fd8)" d="M 343.296 299.14788 
L 343.043616 299.560523 
L 342.143083 300.897769 
L 341.860342 301.279487 
L 341.084864 302.235015 
L 340.424683 302.97532 
L 339.840876 303.572261 
L 338.989025 304.365719 
L 338.348153 304.909508 
L 337.553367 305.524433 
L 336.527519 306.246754 
L 336.117709 306.510114 
L 334.68205 307.348917 
L 334.23904 307.584 
" style="fill:none;stroke:#003de0;stroke-width:1.5;"/>
    <path clip-path="url(#p5cbb3b6fd8)" d="M 57.6 49.90812 
L 57.852384 49.495477 
L 58.752917 48.158231 
L 59.035658 47.776513 
L 59.811136 46.820985 
L 60.471317 46.08068 
L 61.055124 45.483739 
L 61.906975 44.690281 
L 62.547847 44.146492 
L 63.342633 43.531567 
L 64.368481 42.809246 
L 64.778291 42.545886 
L 66.21395 41.707083 
L 66.65696 41.472 
" style="fill:none;stroke:#003de0;stroke-width:1.5;"/>
    <path clip-path="url(#p5cbb3b6fd8)" d="M 334.23904 41.472 
L 334.68205 41.707083 
L 336.117709 42.545886 
L 336.527519 42.809246 
L 337.553367 43.531567 
L 338.348153 44.146492 
L 338.989025 44.690281 
L 339.840876 45.483739 
L 340.424683 46.08068 
L 341.084864 46.820985 
L 341.860342 47.776513 
L 342.143083 48.158231 
L 343.043616 49.495477 
L 343.296 49.90812 
" style="fill:none;stroke:#003de0;stroke-width:1.5;"/>
   </g>
   <g id="LineCollection_21">
    <path clip-path="url(#p5cbb3b6fd8)" d="M 64.71668 307.584 
L 63.342633 306.700983 
L 62.699379 306.246754 
L 61.906975 305.633671 
L 61.054341 304.909508 
L 60.471317 304.366448 
L 59.69386 303.572261 
L 59.035658 302.834175 
L 58.548 302.235015 
L 57.6 300.955157 
" style="fill:none;stroke:#0033e6;stroke-width:1.5;"/>
    <path clip-path="url(#p5cbb3b6fd8)" d="M 343.296 300.955157 
L 342.348 302.235015 
L 341.860342 302.834175 
L 341.20214 303.572261 
L 340.424683 304.366448 
L 339.841659 304.909508 
L 338.989025 305.633671 
L 338.196621 306.246754 
L 337.553367 306.700983 
L 336.17932 307.584 
" style="fill:none;stroke:#0033e6;stroke-width:1.5;"/>
    <path clip-path="url(#p5cbb3b6fd8)" d="M 57.6 48.100843 
L 58.548 46.820985 
L 59.035658 46.221825 
L 59.69386 45.483739 
L 60.471317 44.689552 
L 61.054341 44.146492 
L 61.906975 43.422329 
L 62.699379 42.809246 
L 63.342633 42.355017 
L 64.71668 41.472 
" style="fill:none;stroke:#0033e6;stroke-width:1.5;"/>
    <path clip-path="url(#p5cbb3b6fd8)" d="M 336.17932 41.472 
L 337.553367 42.355017 
L 338.196621 42.809246 
L 338.989025 43.422329 
L 339.841659 44.146492 
L 340.424683 44.689552 
L 341.20214 45.483739 
L 341.860342 46.221825 
L 342.348 46.820985 
L 343.296 48.100843 
" style="fill:none;stroke:#0033e6;stroke-width:1.5;"/>
   </g>
   <g id="LineCollection_22">
    <path clip-path="url(#p5cbb3b6fd8)" d="M 63.016264 307.584 
L 61.906975 306.800683 
L 61.192381 306.246754 
L 60.471317 305.634336 
L 59.693146 304.909508 
L 59.035658 304.237871 
L 58.440964 303.572261 
L 57.6 302.539012 
" style="fill:none;stroke:#0028eb;stroke-width:1.5;"/>
    <path clip-path="url(#p5cbb3b6fd8)" d="M 343.296 302.539012 
L 342.455036 303.572261 
L 341.860342 304.237871 
L 341.202854 304.909508 
L 340.424683 305.634336 
L 339.703619 306.246754 
L 338.989025 306.800683 
L 337.879736 307.584 
" style="fill:none;stroke:#0028eb;stroke-width:1.5;"/>
    <path clip-path="url(#p5cbb3b6fd8)" d="M 57.6 46.516988 
L 58.440964 45.483739 
L 59.035658 44.818129 
L 59.693146 44.146492 
L 60.471317 43.421664 
L 61.192381 42.809246 
L 61.906975 42.255317 
L 63.016264 41.472 
" style="fill:none;stroke:#0028eb;stroke-width:1.5;"/>
    <path clip-path="url(#p5cbb3b6fd8)" d="M 337.879736 41.472 
L 338.989025 42.255317 
L 339.703619 42.809246 
L 340.424683 43.421664 
L 341.202854 44.146492 
L 341.860342 44.818129 
L 342.455036 45.483739 
L 343.296 46.516988 
" style="fill:none;stroke:#0028eb;stroke-width:1.5;"/>
   </g>
   <g id="LineCollection_23">
    <path clip-path="url(#p5cbb3b6fd8)" d="M 61.481049 307.584 
L 60.471317 306.801289 
L 59.819015 306.246754 
L 59.035658 305.517095 
L 58.440313 304.909508 
L 57.6 303.96899 
" style="fill:none;stroke:#001ef0;stroke-width:1.5;"/>
    <path clip-path="url(#p5cbb3b6fd8)" d="M 343.296 303.96899 
L 342.455687 304.909508 
L 341.860342 305.517095 
L 341.076985 306.246754 
L 340.424683 306.801289 
L 339.414951 307.584 
" style="fill:none;stroke:#001ef0;stroke-width:1.5;"/>
    <path clip-path="url(#p5cbb3b6fd8)" d="M 57.6 45.08701 
L 58.440313 44.146492 
L 59.035658 43.538905 
L 59.819015 42.809246 
L 60.471317 42.254711 
L 61.481049 41.472 
" style="fill:none;stroke:#001ef0;stroke-width:1.5;"/>
    <path clip-path="url(#p5cbb3b6fd8)" d="M 339.414951 41.472 
L 340.424683 42.254711 
L 341.076985 42.809246 
L 341.860342 43.538905 
L 342.455687 44.146492 
L 343.296 45.08701 
" style="fill:none;stroke:#001ef0;stroke-width:1.5;"/>
   </g>
   <g id="LineCollection_24">
    <path clip-path="url(#p5cbb3b6fd8)" d="M 60.082231 307.584 
L 59.035658 306.694286 
L 58.555191 306.246754 
L 57.6 305.271922 
" style="fill:none;stroke:#0014f5;stroke-width:1.5;"/>
    <path clip-path="url(#p5cbb3b6fd8)" d="M 343.296 305.271922 
L 342.340809 306.246754 
L 341.860342 306.694286 
L 340.813769 307.584 
" style="fill:none;stroke:#0014f5;stroke-width:1.5;"/>
    <path clip-path="url(#p5cbb3b6fd8)" d="M 57.6 43.784078 
L 58.555191 42.809246 
L 59.035658 42.361714 
L 60.082231 41.472 
" style="fill:none;stroke:#0014f5;stroke-width:1.5;"/>
    <path clip-path="url(#p5cbb3b6fd8)" d="M 340.813769 41.472 
L 341.860342 42.361714 
L 342.340809 42.809246 
L 343.296 43.784078 
" style="fill:none;stroke:#0014f5;stroke-width:1.5;"/>
   </g>
   <g id="LineCollection_25">
    <path clip-path="url(#p5cbb3b6fd8)" d="M 58.795425 307.584 
L 57.6 306.47052 
" style="fill:none;stroke:#000afa;stroke-width:1.5;"/>
    <path clip-path="url(#p5cbb3b6fd8)" d="M 343.296 306.47052 
L 342.100575 307.584 
" style="fill:none;stroke:#000afa;stroke-width:1.5;"/>
    <path clip-path="url(#p5cbb3b6fd8)" d="M 57.6 42.58548 
L 58.795425 41.472 
" style="fill:none;stroke:#000afa;stroke-width:1.5;"/>
    <path clip-path="url(#p5cbb3b6fd8)" d="M 342.100575 41.472 
L 343.296 42.58548 
" style="fill:none;stroke:#000afa;stroke-width:1.5;"/>
   </g>
   <g id="LineCollection_26"/>
   <g id="patch_3">
    <path d="M 57.6 307.584 
L 57.6 41.472 
" style="fill:none;stroke:#000000;stroke-linecap:square;stroke-linejoin:miter;stroke-width:0.8;"/>
   </g>
   <g id="patch_4">
    <path d="M 343.296 307.584 
L 343.296 41.472 
" style="fill:none;stroke:#000000;stroke-linecap:square;stroke-linejoin:miter;stroke-width:0.8;"/>
   </g>
   <g id="patch_5">
    <path d="M 57.6 307.584 
L 343.296 307.584 
" style="fill:none;stroke:#000000;stroke-linecap:square;stroke-linejoin:miter;stroke-width:0.8;"/>
   </g>
   <g id="patch_6">
    <path d="M 57.6 41.472 
L 343.296 41.472 
" style="fill:none;stroke:#000000;stroke-linecap:square;stroke-linejoin:miter;stroke-width:0.8;"/>
   </g>
  </g>
  <g id="axes_2">
   <g id="patch_7">
    <path clip-path="url(#pf14a1471ff)" d="M 361.152 307.584 
L 361.152 296.93952 
L 361.152 52.11648 
L 361.152 41.472 
L 374.4576 41.472 
L 374.4576 52.11648 
L 374.4576 296.93952 
L 374.4576 307.584 
z
" style="fill:#ffffff;stroke:#ffffff;stroke-linejoin:miter;stroke-width:0.01;"/>
   </g>
   <g id="matplotlib.axis_3"/>
   <g id="matplotlib.axis_4">
    <g id="ytick_10">
     <g id="line2d_19">
      <defs>
       <path d="M 0 0 
L 3.5 0 
" id="m491a17304a" style="stroke:#000000;stroke-width:0.8;"/>
      </defs>
      <g>
       <use style="stroke:#000000;stroke-width:0.8;" x="374.4576" xlink:href="#m491a17304a" y="307.584"/>
      </g>
     </g>
     <g id="text_19">
      <!-- 0.00 -->
      <g transform="translate(381.4576 311.383219)scale(0.1 -0.1)">
       <use xlink:href="#DejaVuSans-48"/>
       <use x="63.623047" xlink:href="#DejaVuSans-46"/>
       <use x="95.410156" xlink:href="#DejaVuSans-48"/>
       <use x="159.033203" xlink:href="#DejaVuSans-48"/>
      </g>
     </g>
    </g>
    <g id="ytick_11">
     <g id="line2d_20">
      <g>
       <use style="stroke:#000000;stroke-width:0.8;" x="374.4576" xlink:href="#m491a17304a" y="275.65056"/>
      </g>
     </g>
     <g id="text_20">
      <!-- 0.24 -->
      <defs>
       <path d="M 37.796875 64.3125 
L 12.890625 25.390625 
L 37.796875 25.390625 
z
M 35.203125 72.90625 
L 47.609375 72.90625 
L 47.609375 25.390625 
L 58.015625 25.390625 
L 58.015625 17.1875 
L 47.609375 17.1875 
L 47.609375 0 
L 37.796875 0 
L 37.796875 17.1875 
L 4.890625 17.1875 
L 4.890625 26.703125 
z
" id="DejaVuSans-52"/>
      </defs>
      <g transform="translate(381.4576 279.449779)scale(0.1 -0.1)">
       <use xlink:href="#DejaVuSans-48"/>
       <use x="63.623047" xlink:href="#DejaVuSans-46"/>
       <use x="95.410156" xlink:href="#DejaVuSans-50"/>
       <use x="159.033203" xlink:href="#DejaVuSans-52"/>
      </g>
     </g>
    </g>
    <g id="ytick_12">
     <g id="line2d_21">
      <g>
       <use style="stroke:#000000;stroke-width:0.8;" x="374.4576" xlink:href="#m491a17304a" y="243.71712"/>
      </g>
     </g>
     <g id="text_21">
      <!-- 0.48 -->
      <defs>
       <path d="M 31.78125 34.625 
Q 24.75 34.625 20.71875 30.859375 
Q 16.703125 27.09375 16.703125 20.515625 
Q 16.703125 13.921875 20.71875 10.15625 
Q 24.75 6.390625 31.78125 6.390625 
Q 38.8125 6.390625 42.859375 10.171875 
Q 46.921875 13.96875 46.921875 20.515625 
Q 46.921875 27.09375 42.890625 30.859375 
Q 38.875 34.625 31.78125 34.625 
z
M 21.921875 38.8125 
Q 15.578125 40.375 12.03125 44.71875 
Q 8.5 49.078125 8.5 55.328125 
Q 8.5 64.0625 14.71875 69.140625 
Q 20.953125 74.21875 31.78125 74.21875 
Q 42.671875 74.21875 48.875 69.140625 
Q 55.078125 64.0625 55.078125 55.328125 
Q 55.078125 49.078125 51.53125 44.71875 
Q 48 40.375 41.703125 38.8125 
Q 48.828125 37.15625 52.796875 32.3125 
Q 56.78125 27.484375 56.78125 20.515625 
Q 56.78125 9.90625 50.3125 4.234375 
Q 43.84375 -1.421875 31.78125 -1.421875 
Q 19.734375 -1.421875 13.25 4.234375 
Q 6.78125 9.90625 6.78125 20.515625 
Q 6.78125 27.484375 10.78125 32.3125 
Q 14.796875 37.15625 21.921875 38.8125 
z
M 18.3125 54.390625 
Q 18.3125 48.734375 21.84375 45.5625 
Q 25.390625 42.390625 31.78125 42.390625 
Q 38.140625 42.390625 41.71875 45.5625 
Q 45.3125 48.734375 45.3125 54.390625 
Q 45.3125 60.0625 41.71875 63.234375 
Q 38.140625 66.40625 31.78125 66.40625 
Q 25.390625 66.40625 21.84375 63.234375 
Q 18.3125 60.0625 18.3125 54.390625 
z
" id="DejaVuSans-56"/>
      </defs>
      <g transform="translate(381.4576 247.516339)scale(0.1 -0.1)">
       <use xlink:href="#DejaVuSans-48"/>
       <use x="63.623047" xlink:href="#DejaVuSans-46"/>
       <use x="95.410156" xlink:href="#DejaVuSans-52"/>
       <use x="159.033203" xlink:href="#DejaVuSans-56"/>
      </g>
     </g>
    </g>
    <g id="ytick_13">
     <g id="line2d_22">
      <g>
       <use style="stroke:#000000;stroke-width:0.8;" x="374.4576" xlink:href="#m491a17304a" y="211.78368"/>
      </g>
     </g>
     <g id="text_22">
      <!-- 0.72 -->
      <g transform="translate(381.4576 215.582899)scale(0.1 -0.1)">
       <use xlink:href="#DejaVuSans-48"/>
       <use x="63.623047" xlink:href="#DejaVuSans-46"/>
       <use x="95.410156" xlink:href="#DejaVuSans-55"/>
       <use x="159.033203" xlink:href="#DejaVuSans-50"/>
      </g>
     </g>
    </g>
    <g id="ytick_14">
     <g id="line2d_23">
      <g>
       <use style="stroke:#000000;stroke-width:0.8;" x="374.4576" xlink:href="#m491a17304a" y="179.85024"/>
      </g>
     </g>
     <g id="text_23">
      <!-- 0.96 -->
      <defs>
       <path d="M 10.984375 1.515625 
L 10.984375 10.5 
Q 14.703125 8.734375 18.5 7.8125 
Q 22.3125 6.890625 25.984375 6.890625 
Q 35.75 6.890625 40.890625 13.453125 
Q 46.046875 20.015625 46.78125 33.40625 
Q 43.953125 29.203125 39.59375 26.953125 
Q 35.25 24.703125 29.984375 24.703125 
Q 19.046875 24.703125 12.671875 31.3125 
Q 6.296875 37.9375 6.296875 49.421875 
Q 6.296875 60.640625 12.9375 67.421875 
Q 19.578125 74.21875 30.609375 74.21875 
Q 43.265625 74.21875 49.921875 64.515625 
Q 56.59375 54.828125 56.59375 36.375 
Q 56.59375 19.140625 48.40625 8.859375 
Q 40.234375 -1.421875 26.421875 -1.421875 
Q 22.703125 -1.421875 18.890625 -0.6875 
Q 15.09375 0.046875 10.984375 1.515625 
z
M 30.609375 32.421875 
Q 37.25 32.421875 41.125 36.953125 
Q 45.015625 41.5 45.015625 49.421875 
Q 45.015625 57.28125 41.125 61.84375 
Q 37.25 66.40625 30.609375 66.40625 
Q 23.96875 66.40625 20.09375 61.84375 
Q 16.21875 57.28125 16.21875 49.421875 
Q 16.21875 41.5 20.09375 36.953125 
Q 23.96875 32.421875 30.609375 32.421875 
z
" id="DejaVuSans-57"/>
       <path d="M 33.015625 40.375 
Q 26.375 40.375 22.484375 35.828125 
Q 18.609375 31.296875 18.609375 23.390625 
Q 18.609375 15.53125 22.484375 10.953125 
Q 26.375 6.390625 33.015625 6.390625 
Q 39.65625 6.390625 43.53125 10.953125 
Q 47.40625 15.53125 47.40625 23.390625 
Q 47.40625 31.296875 43.53125 35.828125 
Q 39.65625 40.375 33.015625 40.375 
z
M 52.59375 71.296875 
L 52.59375 62.3125 
Q 48.875 64.0625 45.09375 64.984375 
Q 41.3125 65.921875 37.59375 65.921875 
Q 27.828125 65.921875 22.671875 59.328125 
Q 17.53125 52.734375 16.796875 39.40625 
Q 19.671875 43.65625 24.015625 45.921875 
Q 28.375 48.1875 33.59375 48.1875 
Q 44.578125 48.1875 50.953125 41.515625 
Q 57.328125 34.859375 57.328125 23.390625 
Q 57.328125 12.15625 50.6875 5.359375 
Q 44.046875 -1.421875 33.015625 -1.421875 
Q 20.359375 -1.421875 13.671875 8.265625 
Q 6.984375 17.96875 6.984375 36.375 
Q 6.984375 53.65625 15.1875 63.9375 
Q 23.390625 74.21875 37.203125 74.21875 
Q 40.921875 74.21875 44.703125 73.484375 
Q 48.484375 72.75 52.59375 71.296875 
z
" id="DejaVuSans-54"/>
      </defs>
      <g transform="translate(381.4576 183.649459)scale(0.1 -0.1)">
       <use xlink:href="#DejaVuSans-48"/>
       <use x="63.623047" xlink:href="#DejaVuSans-46"/>
       <use x="95.410156" xlink:href="#DejaVuSans-57"/>
       <use x="159.033203" xlink:href="#DejaVuSans-54"/>
      </g>
     </g>
    </g>
    <g id="ytick_15">
     <g id="line2d_24">
      <g>
       <use style="stroke:#000000;stroke-width:0.8;" x="374.4576" xlink:href="#m491a17304a" y="147.9168"/>
      </g>
     </g>
     <g id="text_24">
      <!-- 1.20 -->
      <g transform="translate(381.4576 151.716019)scale(0.1 -0.1)">
       <use xlink:href="#DejaVuSans-49"/>
       <use x="63.623047" xlink:href="#DejaVuSans-46"/>
       <use x="95.410156" xlink:href="#DejaVuSans-50"/>
       <use x="159.033203" xlink:href="#DejaVuSans-48"/>
      </g>
     </g>
    </g>
    <g id="ytick_16">
     <g id="line2d_25">
      <g>
       <use style="stroke:#000000;stroke-width:0.8;" x="374.4576" xlink:href="#m491a17304a" y="115.98336"/>
      </g>
     </g>
     <g id="text_25">
      <!-- 1.44 -->
      <g transform="translate(381.4576 119.782579)scale(0.1 -0.1)">
       <use xlink:href="#DejaVuSans-49"/>
       <use x="63.623047" xlink:href="#DejaVuSans-46"/>
       <use x="95.410156" xlink:href="#DejaVuSans-52"/>
       <use x="159.033203" xlink:href="#DejaVuSans-52"/>
      </g>
     </g>
    </g>
    <g id="ytick_17">
     <g id="line2d_26">
      <g>
       <use style="stroke:#000000;stroke-width:0.8;" x="374.4576" xlink:href="#m491a17304a" y="84.04992"/>
      </g>
     </g>
     <g id="text_26">
      <!-- 1.68 -->
      <g transform="translate(381.4576 87.849139)scale(0.1 -0.1)">
       <use xlink:href="#DejaVuSans-49"/>
       <use x="63.623047" xlink:href="#DejaVuSans-46"/>
       <use x="95.410156" xlink:href="#DejaVuSans-54"/>
       <use x="159.033203" xlink:href="#DejaVuSans-56"/>
      </g>
     </g>
    </g>
    <g id="ytick_18">
     <g id="line2d_27">
      <g>
       <use style="stroke:#000000;stroke-width:0.8;" x="374.4576" xlink:href="#m491a17304a" y="52.11648"/>
      </g>
     </g>
     <g id="text_27">
      <!-- 1.92 -->
      <g transform="translate(381.4576 55.915699)scale(0.1 -0.1)">
       <use xlink:href="#DejaVuSans-49"/>
       <use x="63.623047" xlink:href="#DejaVuSans-46"/>
       <use x="95.410156" xlink:href="#DejaVuSans-57"/>
       <use x="159.033203" xlink:href="#DejaVuSans-50"/>
      </g>
     </g>
    </g>
    <g id="text_28">
     <!-- 1e10 -->
     <defs>
      <path d="M 56.203125 29.59375 
L 56.203125 25.203125 
L 14.890625 25.203125 
Q 15.484375 15.921875 20.484375 11.0625 
Q 25.484375 6.203125 34.421875 6.203125 
Q 39.59375 6.203125 44.453125 7.46875 
Q 49.3125 8.734375 54.109375 11.28125 
L 54.109375 2.78125 
Q 49.265625 0.734375 44.1875 -0.34375 
Q 39.109375 -1.421875 33.890625 -1.421875 
Q 20.796875 -1.421875 13.15625 6.1875 
Q 5.515625 13.8125 5.515625 26.8125 
Q 5.515625 40.234375 12.765625 48.109375 
Q 20.015625 56 32.328125 56 
Q 43.359375 56 49.78125 48.890625 
Q 56.203125 41.796875 56.203125 29.59375 
z
M 47.21875 32.234375 
Q 47.125 39.59375 43.09375 43.984375 
Q 39.0625 48.390625 32.421875 48.390625 
Q 24.90625 48.390625 20.390625 44.140625 
Q 15.875 39.890625 15.1875 32.171875 
z
" id="DejaVuSans-101"/>
     </defs>
     <g transform="translate(349.216975 38.472)scale(0.1 -0.1)">
      <use xlink:href="#DejaVuSans-49"/>
      <use x="63.623047" xlink:href="#DejaVuSans-101"/>
      <use x="125.146484" xlink:href="#DejaVuSans-49"/>
      <use x="188.769531" xlink:href="#DejaVuSans-48"/>
     </g>
    </g>
   </g>
   <g id="LineCollection_27">
    <path clip-path="url(#pf14a1471ff)" d="M 361.152 307.584 
L 374.4576 307.584 
" style="fill:none;stroke:#00ff80;stroke-width:1.5;"/>
    <path clip-path="url(#pf14a1471ff)" d="M 361.152 296.93952 
L 374.4576 296.93952 
" style="fill:none;stroke:#00f584;stroke-width:1.5;"/>
    <path clip-path="url(#pf14a1471ff)" d="M 361.152 286.29504 
L 374.4576 286.29504 
" style="fill:none;stroke:#00eb8a;stroke-width:1.5;"/>
    <path clip-path="url(#pf14a1471ff)" d="M 361.152 275.65056 
L 374.4576 275.65056 
" style="fill:none;stroke:#00e18e;stroke-width:1.5;"/>
    <path clip-path="url(#pf14a1471ff)" d="M 361.152 265.00608 
L 374.4576 265.00608 
" style="fill:none;stroke:#00d793;stroke-width:1.5;"/>
    <path clip-path="url(#pf14a1471ff)" d="M 361.152 254.3616 
L 374.4576 254.3616 
" style="fill:none;stroke:#00cc99;stroke-width:1.5;"/>
    <path clip-path="url(#pf14a1471ff)" d="M 361.152 243.71712 
L 374.4576 243.71712 
" style="fill:none;stroke:#00c29e;stroke-width:1.5;"/>
    <path clip-path="url(#pf14a1471ff)" d="M 361.152 233.07264 
L 374.4576 233.07264 
" style="fill:none;stroke:#00b8a3;stroke-width:1.5;"/>
    <path clip-path="url(#pf14a1471ff)" d="M 361.152 222.42816 
L 374.4576 222.42816 
" style="fill:none;stroke:#00aea8;stroke-width:1.5;"/>
    <path clip-path="url(#pf14a1471ff)" d="M 361.152 211.78368 
L 374.4576 211.78368 
" style="fill:none;stroke:#00a3ae;stroke-width:1.5;"/>
    <path clip-path="url(#pf14a1471ff)" d="M 361.152 201.1392 
L 374.4576 201.1392 
" style="fill:none;stroke:#0099b2;stroke-width:1.5;"/>
    <path clip-path="url(#pf14a1471ff)" d="M 361.152 190.49472 
L 374.4576 190.49472 
" style="fill:none;stroke:#008fb8;stroke-width:1.5;"/>
    <path clip-path="url(#pf14a1471ff)" d="M 361.152 179.85024 
L 374.4576 179.85024 
" style="fill:none;stroke:#0085bc;stroke-width:1.5;"/>
    <path clip-path="url(#pf14a1471ff)" d="M 361.152 169.20576 
L 374.4576 169.20576 
" style="fill:none;stroke:#007ac2;stroke-width:1.5;"/>
    <path clip-path="url(#pf14a1471ff)" d="M 361.152 158.56128 
L 374.4576 158.56128 
" style="fill:none;stroke:#0070c7;stroke-width:1.5;"/>
    <path clip-path="url(#pf14a1471ff)" d="M 361.152 147.9168 
L 374.4576 147.9168 
" style="fill:none;stroke:#0066cc;stroke-width:1.5;"/>
    <path clip-path="url(#pf14a1471ff)" d="M 361.152 137.27232 
L 374.4576 137.27232 
" style="fill:none;stroke:#005cd1;stroke-width:1.5;"/>
    <path clip-path="url(#pf14a1471ff)" d="M 361.152 126.62784 
L 374.4576 126.62784 
" style="fill:none;stroke:#0051d6;stroke-width:1.5;"/>
    <path clip-path="url(#pf14a1471ff)" d="M 361.152 115.98336 
L 374.4576 115.98336 
" style="fill:none;stroke:#0047dc;stroke-width:1.5;"/>
    <path clip-path="url(#pf14a1471ff)" d="M 361.152 105.33888 
L 374.4576 105.33888 
" style="fill:none;stroke:#003de0;stroke-width:1.5;"/>
    <path clip-path="url(#pf14a1471ff)" d="M 361.152 94.6944 
L 374.4576 94.6944 
" style="fill:none;stroke:#0033e6;stroke-width:1.5;"/>
    <path clip-path="url(#pf14a1471ff)" d="M 361.152 84.04992 
L 374.4576 84.04992 
" style="fill:none;stroke:#0028eb;stroke-width:1.5;"/>
    <path clip-path="url(#pf14a1471ff)" d="M 361.152 73.40544 
L 374.4576 73.40544 
" style="fill:none;stroke:#001ef0;stroke-width:1.5;"/>
    <path clip-path="url(#pf14a1471ff)" d="M 361.152 62.76096 
L 374.4576 62.76096 
" style="fill:none;stroke:#0014f5;stroke-width:1.5;"/>
    <path clip-path="url(#pf14a1471ff)" d="M 361.152 52.11648 
L 374.4576 52.11648 
" style="fill:none;stroke:#000afa;stroke-width:1.5;"/>
    <path clip-path="url(#pf14a1471ff)" d="M 361.152 41.472 
L 374.4576 41.472 
" style="fill:none;stroke:#0000ff;stroke-width:1.5;"/>
   </g>
   <g id="patch_8">
    <path d="M 361.152 307.584 
L 361.152 296.93952 
L 361.152 52.11648 
L 361.152 41.472 
L 374.4576 41.472 
L 374.4576 52.11648 
L 374.4576 296.93952 
L 374.4576 307.584 
z
" style="fill:none;stroke:#000000;stroke-linejoin:miter;stroke-width:0.8;"/>
   </g>
  </g>
 </g>
 <defs>
  <clipPath id="p5cbb3b6fd8">
   <rect height="266.112" width="285.696" x="57.6" y="41.472"/>
  </clipPath>
  <clipPath id="pf14a1471ff">
   <rect height="266.112" width="13.3056" x="361.152" y="41.472"/>
  </clipPath>
 </defs>
</svg>
