<?xml version="1.0" encoding="utf-8" standalone="no"?>
<!DOCTYPE svg PUBLIC "-//W3C//DTD SVG 1.1//EN"
  "http://www.w3.org/Graphics/SVG/1.1/DTD/svg11.dtd">
<!-- Created with matplotlib (https://matplotlib.org/) -->
<svg height="345.6pt" version="1.1" viewBox="0 0 460.8 345.6" width="460.8pt" xmlns="http://www.w3.org/2000/svg" xmlns:xlink="http://www.w3.org/1999/xlink">
 <defs>
  <style type="text/css">
*{stroke-linecap:butt;stroke-linejoin:round;}
  </style>
 </defs>
 <g id="figure_1">
  <g id="patch_1">
   <path d="M 0 345.6 
L 460.8 345.6 
L 460.8 0 
L 0 0 
z
" style="fill:#ffffff;"/>
  </g>
  <g id="axes_1">
   <g id="patch_2">
    <path d="M 57.6 307.584 
L 343.296 307.584 
L 343.296 41.472 
L 57.6 41.472 
z
" style="fill:#ffffff;"/>
   </g>
   <g id="matplotlib.axis_1">
    <g id="xtick_1">
     <g id="line2d_1">
      <defs>
       <path d="M 0 0 
L 0 3.5 
" id="ma86f0b55c2" style="stroke:#000000;stroke-width:0.8;"/>
      </defs>
      <g>
       <use style="stroke:#000000;stroke-width:0.8;" x="57.6" xlink:href="#ma86f0b55c2" y="307.584"/>
      </g>
     </g>
     <g id="text_1">
      <!-- −10.0 -->
      <defs>
       <path d="M 10.59375 35.5 
L 73.1875 35.5 
L 73.1875 27.203125 
L 10.59375 27.203125 
z
" id="DejaVuSans-8722"/>
       <path d="M 12.40625 8.296875 
L 28.515625 8.296875 
L 28.515625 63.921875 
L 10.984375 60.40625 
L 10.984375 69.390625 
L 28.421875 72.90625 
L 38.28125 72.90625 
L 38.28125 8.296875 
L 54.390625 8.296875 
L 54.390625 0 
L 12.40625 0 
z
" id="DejaVuSans-49"/>
       <path d="M 31.78125 66.40625 
Q 24.171875 66.40625 20.328125 58.90625 
Q 16.5 51.421875 16.5 36.375 
Q 16.5 21.390625 20.328125 13.890625 
Q 24.171875 6.390625 31.78125 6.390625 
Q 39.453125 6.390625 43.28125 13.890625 
Q 47.125 21.390625 47.125 36.375 
Q 47.125 51.421875 43.28125 58.90625 
Q 39.453125 66.40625 31.78125 66.40625 
z
M 31.78125 74.21875 
Q 44.046875 74.21875 50.515625 64.515625 
Q 56.984375 54.828125 56.984375 36.375 
Q 56.984375 17.96875 50.515625 8.265625 
Q 44.046875 -1.421875 31.78125 -1.421875 
Q 19.53125 -1.421875 13.0625 8.265625 
Q 6.59375 17.96875 6.59375 36.375 
Q 6.59375 54.828125 13.0625 64.515625 
Q 19.53125 74.21875 31.78125 74.21875 
z
" id="DejaVuSans-48"/>
       <path d="M 10.6875 12.40625 
L 21 12.40625 
L 21 0 
L 10.6875 0 
z
" id="DejaVuSans-46"/>
      </defs>
      <g transform="translate(42.277344 322.182437)scale(0.1 -0.1)">
       <use xlink:href="#DejaVuSans-8722"/>
       <use x="83.789062" xlink:href="#DejaVuSans-49"/>
       <use x="147.412109" xlink:href="#DejaVuSans-48"/>
       <use x="211.035156" xlink:href="#DejaVuSans-46"/>
       <use x="242.822266" xlink:href="#DejaVuSans-48"/>
      </g>
     </g>
    </g>
    <g id="xtick_2">
     <g id="line2d_2">
      <g>
       <use style="stroke:#000000;stroke-width:0.8;" x="93.312" xlink:href="#ma86f0b55c2" y="307.584"/>
      </g>
     </g>
     <g id="text_2">
      <!-- −7.5 -->
      <defs>
       <path d="M 8.203125 72.90625 
L 55.078125 72.90625 
L 55.078125 68.703125 
L 28.609375 0 
L 18.3125 0 
L 43.21875 64.59375 
L 8.203125 64.59375 
z
" id="DejaVuSans-55"/>
       <path d="M 10.796875 72.90625 
L 49.515625 72.90625 
L 49.515625 64.59375 
L 19.828125 64.59375 
L 19.828125 46.734375 
Q 21.96875 47.46875 24.109375 47.828125 
Q 26.265625 48.1875 28.421875 48.1875 
Q 40.625 48.1875 47.75 41.5 
Q 54.890625 34.8125 54.890625 23.390625 
Q 54.890625 11.625 47.5625 5.09375 
Q 40.234375 -1.421875 26.90625 -1.421875 
Q 22.3125 -1.421875 17.546875 -0.640625 
Q 12.796875 0.140625 7.71875 1.703125 
L 7.71875 11.625 
Q 12.109375 9.234375 16.796875 8.0625 
Q 21.484375 6.890625 26.703125 6.890625 
Q 35.15625 6.890625 40.078125 11.328125 
Q 45.015625 15.765625 45.015625 23.390625 
Q 45.015625 31 40.078125 35.4375 
Q 35.15625 39.890625 26.703125 39.890625 
Q 22.75 39.890625 18.8125 39.015625 
Q 14.890625 38.140625 10.796875 36.28125 
z
" id="DejaVuSans-53"/>
      </defs>
      <g transform="translate(81.170594 322.182437)scale(0.1 -0.1)">
       <use xlink:href="#DejaVuSans-8722"/>
       <use x="83.789062" xlink:href="#DejaVuSans-55"/>
       <use x="147.412109" xlink:href="#DejaVuSans-46"/>
       <use x="179.199219" xlink:href="#DejaVuSans-53"/>
      </g>
     </g>
    </g>
    <g id="xtick_3">
     <g id="line2d_3">
      <g>
       <use style="stroke:#000000;stroke-width:0.8;" x="129.024" xlink:href="#ma86f0b55c2" y="307.584"/>
      </g>
     </g>
     <g id="text_3">
      <!-- −5.0 -->
      <g transform="translate(116.882594 322.182437)scale(0.1 -0.1)">
       <use xlink:href="#DejaVuSans-8722"/>
       <use x="83.789062" xlink:href="#DejaVuSans-53"/>
       <use x="147.412109" xlink:href="#DejaVuSans-46"/>
       <use x="179.199219" xlink:href="#DejaVuSans-48"/>
      </g>
     </g>
    </g>
    <g id="xtick_4">
     <g id="line2d_4">
      <g>
       <use style="stroke:#000000;stroke-width:0.8;" x="164.736" xlink:href="#ma86f0b55c2" y="307.584"/>
      </g>
     </g>
     <g id="text_4">
      <!-- −2.5 -->
      <defs>
       <path d="M 19.1875 8.296875 
L 53.609375 8.296875 
L 53.609375 0 
L 7.328125 0 
L 7.328125 8.296875 
Q 12.9375 14.109375 22.625 23.890625 
Q 32.328125 33.6875 34.8125 36.53125 
Q 39.546875 41.84375 41.421875 45.53125 
Q 43.3125 49.21875 43.3125 52.78125 
Q 43.3125 58.59375 39.234375 62.25 
Q 35.15625 65.921875 28.609375 65.921875 
Q 23.96875 65.921875 18.8125 64.3125 
Q 13.671875 62.703125 7.8125 59.421875 
L 7.8125 69.390625 
Q 13.765625 71.78125 18.9375 73 
Q 24.125 74.21875 28.421875 74.21875 
Q 39.75 74.21875 46.484375 68.546875 
Q 53.21875 62.890625 53.21875 53.421875 
Q 53.21875 48.921875 51.53125 44.890625 
Q 49.859375 40.875 45.40625 35.40625 
Q 44.1875 33.984375 37.640625 27.21875 
Q 31.109375 20.453125 19.1875 8.296875 
z
" id="DejaVuSans-50"/>
      </defs>
      <g transform="translate(152.594594 322.182437)scale(0.1 -0.1)">
       <use xlink:href="#DejaVuSans-8722"/>
       <use x="83.789062" xlink:href="#DejaVuSans-50"/>
       <use x="147.412109" xlink:href="#DejaVuSans-46"/>
       <use x="179.199219" xlink:href="#DejaVuSans-53"/>
      </g>
     </g>
    </g>
    <g id="xtick_5">
     <g id="line2d_5">
      <g>
       <use style="stroke:#000000;stroke-width:0.8;" x="200.448" xlink:href="#ma86f0b55c2" y="307.584"/>
      </g>
     </g>
     <g id="text_5">
      <!-- 0.0 -->
      <g transform="translate(192.496438 322.182437)scale(0.1 -0.1)">
       <use xlink:href="#DejaVuSans-48"/>
       <use x="63.623047" xlink:href="#DejaVuSans-46"/>
       <use x="95.410156" xlink:href="#DejaVuSans-48"/>
      </g>
     </g>
    </g>
    <g id="xtick_6">
     <g id="line2d_6">
      <g>
       <use style="stroke:#000000;stroke-width:0.8;" x="236.16" xlink:href="#ma86f0b55c2" y="307.584"/>
      </g>
     </g>
     <g id="text_6">
      <!-- 2.5 -->
      <g transform="translate(228.208438 322.182437)scale(0.1 -0.1)">
       <use xlink:href="#DejaVuSans-50"/>
       <use x="63.623047" xlink:href="#DejaVuSans-46"/>
       <use x="95.410156" xlink:href="#DejaVuSans-53"/>
      </g>
     </g>
    </g>
    <g id="xtick_7">
     <g id="line2d_7">
      <g>
       <use style="stroke:#000000;stroke-width:0.8;" x="271.872" xlink:href="#ma86f0b55c2" y="307.584"/>
      </g>
     </g>
     <g id="text_7">
      <!-- 5.0 -->
      <g transform="translate(263.920437 322.182437)scale(0.1 -0.1)">
       <use xlink:href="#DejaVuSans-53"/>
       <use x="63.623047" xlink:href="#DejaVuSans-46"/>
       <use x="95.410156" xlink:href="#DejaVuSans-48"/>
      </g>
     </g>
    </g>
    <g id="xtick_8">
     <g id="line2d_8">
      <g>
       <use style="stroke:#000000;stroke-width:0.8;" x="307.584" xlink:href="#ma86f0b55c2" y="307.584"/>
      </g>
     </g>
     <g id="text_8">
      <!-- 7.5 -->
      <g transform="translate(299.632438 322.182437)scale(0.1 -0.1)">
       <use xlink:href="#DejaVuSans-55"/>
       <use x="63.623047" xlink:href="#DejaVuSans-46"/>
       <use x="95.410156" xlink:href="#DejaVuSans-53"/>
      </g>
     </g>
    </g>
    <g id="xtick_9">
     <g id="line2d_9">
      <g>
       <use style="stroke:#000000;stroke-width:0.8;" x="343.296" xlink:href="#ma86f0b55c2" y="307.584"/>
      </g>
     </g>
     <g id="text_9">
      <!-- 10.0 -->
      <g transform="translate(332.163188 322.182437)scale(0.1 -0.1)">
       <use xlink:href="#DejaVuSans-49"/>
       <use x="63.623047" xlink:href="#DejaVuSans-48"/>
       <use x="127.246094" xlink:href="#DejaVuSans-46"/>
       <use x="159.033203" xlink:href="#DejaVuSans-48"/>
      </g>
     </g>
    </g>
   </g>
   <g id="matplotlib.axis_2">
    <g id="ytick_1">
     <g id="line2d_10">
      <defs>
       <path d="M 0 0 
L -3.5 0 
" id="mb20d26e116" style="stroke:#000000;stroke-width:0.8;"/>
      </defs>
      <g>
       <use style="stroke:#000000;stroke-width:0.8;" x="57.6" xlink:href="#mb20d26e116" y="307.584"/>
      </g>
     </g>
     <g id="text_10">
      <!-- −10.0 -->
      <g transform="translate(19.954687 311.383219)scale(0.1 -0.1)">
       <use xlink:href="#DejaVuSans-8722"/>
       <use x="83.789062" xlink:href="#DejaVuSans-49"/>
       <use x="147.412109" xlink:href="#DejaVuSans-48"/>
       <use x="211.035156" xlink:href="#DejaVuSans-46"/>
       <use x="242.822266" xlink:href="#DejaVuSans-48"/>
      </g>
     </g>
    </g>
    <g id="ytick_2">
     <g id="line2d_11">
      <g>
       <use style="stroke:#000000;stroke-width:0.8;" x="57.6" xlink:href="#mb20d26e116" y="274.32"/>
      </g>
     </g>
     <g id="text_11">
      <!-- −7.5 -->
      <g transform="translate(26.317187 278.119219)scale(0.1 -0.1)">
       <use xlink:href="#DejaVuSans-8722"/>
       <use x="83.789062" xlink:href="#DejaVuSans-55"/>
       <use x="147.412109" xlink:href="#DejaVuSans-46"/>
       <use x="179.199219" xlink:href="#DejaVuSans-53"/>
      </g>
     </g>
    </g>
    <g id="ytick_3">
     <g id="line2d_12">
      <g>
       <use style="stroke:#000000;stroke-width:0.8;" x="57.6" xlink:href="#mb20d26e116" y="241.056"/>
      </g>
     </g>
     <g id="text_12">
      <!-- −5.0 -->
      <g transform="translate(26.317187 244.855219)scale(0.1 -0.1)">
       <use xlink:href="#DejaVuSans-8722"/>
       <use x="83.789062" xlink:href="#DejaVuSans-53"/>
       <use x="147.412109" xlink:href="#DejaVuSans-46"/>
       <use x="179.199219" xlink:href="#DejaVuSans-48"/>
      </g>
     </g>
    </g>
    <g id="ytick_4">
     <g id="line2d_13">
      <g>
       <use style="stroke:#000000;stroke-width:0.8;" x="57.6" xlink:href="#mb20d26e116" y="207.792"/>
      </g>
     </g>
     <g id="text_13">
      <!-- −2.5 -->
      <g transform="translate(26.317187 211.591219)scale(0.1 -0.1)">
       <use xlink:href="#DejaVuSans-8722"/>
       <use x="83.789062" xlink:href="#DejaVuSans-50"/>
       <use x="147.412109" xlink:href="#DejaVuSans-46"/>
       <use x="179.199219" xlink:href="#DejaVuSans-53"/>
      </g>
     </g>
    </g>
    <g id="ytick_5">
     <g id="line2d_14">
      <g>
       <use style="stroke:#000000;stroke-width:0.8;" x="57.6" xlink:href="#mb20d26e116" y="174.528"/>
      </g>
     </g>
     <g id="text_14">
      <!-- 0.0 -->
      <g transform="translate(34.696875 178.327219)scale(0.1 -0.1)">
       <use xlink:href="#DejaVuSans-48"/>
       <use x="63.623047" xlink:href="#DejaVuSans-46"/>
       <use x="95.410156" xlink:href="#DejaVuSans-48"/>
      </g>
     </g>
    </g>
    <g id="ytick_6">
     <g id="line2d_15">
      <g>
       <use style="stroke:#000000;stroke-width:0.8;" x="57.6" xlink:href="#mb20d26e116" y="141.264"/>
      </g>
     </g>
     <g id="text_15">
      <!-- 2.5 -->
      <g transform="translate(34.696875 145.063219)scale(0.1 -0.1)">
       <use xlink:href="#DejaVuSans-50"/>
       <use x="63.623047" xlink:href="#DejaVuSans-46"/>
       <use x="95.410156" xlink:href="#DejaVuSans-53"/>
      </g>
     </g>
    </g>
    <g id="ytick_7">
     <g id="line2d_16">
      <g>
       <use style="stroke:#000000;stroke-width:0.8;" x="57.6" xlink:href="#mb20d26e116" y="108"/>
      </g>
     </g>
     <g id="text_16">
      <!-- 5.0 -->
      <g transform="translate(34.696875 111.799219)scale(0.1 -0.1)">
       <use xlink:href="#DejaVuSans-53"/>
       <use x="63.623047" xlink:href="#DejaVuSans-46"/>
       <use x="95.410156" xlink:href="#DejaVuSans-48"/>
      </g>
     </g>
    </g>
    <g id="ytick_8">
     <g id="line2d_17">
      <g>
       <use style="stroke:#000000;stroke-width:0.8;" x="57.6" xlink:href="#mb20d26e116" y="74.736"/>
      </g>
     </g>
     <g id="text_17">
      <!-- 7.5 -->
      <g transform="translate(34.696875 78.535219)scale(0.1 -0.1)">
       <use xlink:href="#DejaVuSans-55"/>
       <use x="63.623047" xlink:href="#DejaVuSans-46"/>
       <use x="95.410156" xlink:href="#DejaVuSans-53"/>
      </g>
     </g>
    </g>
    <g id="ytick_9">
     <g id="line2d_18">
      <g>
       <use style="stroke:#000000;stroke-width:0.8;" x="57.6" xlink:href="#mb20d26e116" y="41.472"/>
      </g>
     </g>
     <g id="text_18">
      <!-- 10.0 -->
      <g transform="translate(28.334375 45.271219)scale(0.1 -0.1)">
       <use xlink:href="#DejaVuSans-49"/>
       <use x="63.623047" xlink:href="#DejaVuSans-48"/>
       <use x="127.246094" xlink:href="#DejaVuSans-46"/>
       <use x="159.033203" xlink:href="#DejaVuSans-48"/>
      </g>
     </g>
    </g>
   </g>
   <g id="LineCollection_1"/>
   <g id="LineCollection_2">
    <path clip-path="url(#p3b05af48db)" d="M 199.730171 175.535283 
L 199.366588 175.196623 
L 199.366588 173.859377 
L 199.730171 173.520717 
L 201.165829 173.520717 
L 201.529412 173.859377 
L 201.529412 175.196623 
L 201.165829 175.535283 
L 199.730171 175.535283 
" style="fill:none;stroke:#00f684;stroke-width:1.5;"/>
   </g>
   <g id="LineCollection_3">
    <path clip-path="url(#p3b05af48db)" d="M 199.730171 176.725816 
L 199.3242 176.533869 
L 198.294513 175.574765 
L 198.088439 175.196623 
L 198.088439 173.859377 
L 198.294513 173.481235 
L 199.3242 172.522131 
L 199.730171 172.330184 
L 201.165829 172.330184 
L 201.5718 172.522131 
L 202.601487 173.481235 
L 202.807561 173.859377 
L 202.807561 175.196623 
L 202.601487 175.574765 
L 201.5718 176.533869 
L 201.165829 176.725816 
L 199.730171 176.725816 
" style="fill:none;stroke:#00ec89;stroke-width:1.5;"/>
   </g>
   <g id="LineCollection_4">
    <path clip-path="url(#p3b05af48db)" d="M 198.294513 176.776427 
L 198.034105 176.533869 
L 197.315689 175.196623 
L 197.315689 173.859377 
L 198.034105 172.522131 
L 198.294513 172.279573 
L 199.730171 171.610404 
L 201.165829 171.610404 
L 202.601487 172.279573 
L 202.861895 172.522131 
L 203.580311 173.859377 
L 203.580311 175.196623 
L 202.861895 176.533869 
L 202.601487 176.776427 
L 201.165829 177.445596 
L 199.730171 177.445596 
L 198.294513 176.776427 
" style="fill:none;stroke:#00e28e;stroke-width:1.5;"/>
   </g>
   <g id="LineCollection_5">
    <path clip-path="url(#p3b05af48db)" d="M 199.730171 178.086435 
L 199.05503 177.871116 
L 198.294513 177.525947 
L 197.229424 176.533869 
L 196.858854 175.825485 
L 196.627689 175.196623 
L 196.627689 173.859377 
L 196.858854 173.230515 
L 197.229424 172.522131 
L 198.294513 171.530053 
L 199.05503 171.184884 
L 199.730171 170.969565 
L 201.165829 170.969565 
L 201.84097 171.184884 
L 202.601487 171.530053 
L 203.666576 172.522131 
L 204.037146 173.230515 
L 204.268311 173.859377 
L 204.268311 175.196623 
L 204.037146 175.825485 
L 203.666576 176.533869 
L 202.601487 177.525947 
L 201.84097 177.871116 
L 201.165829 178.086435 
L 199.730171 178.086435 
" style="fill:none;stroke:#00d893;stroke-width:1.5;"/>
   </g>
   <g id="LineCollection_6">
    <path clip-path="url(#p3b05af48db)" d="M 198.294513 178.166992 
L 197.82359 177.871116 
L 196.858854 176.972511 
L 196.541203 176.533869 
L 196.062244 175.196623 
L 196.062244 173.859377 
L 196.541203 172.522131 
L 196.858854 172.083489 
L 197.82359 171.184884 
L 198.294513 170.889008 
L 199.730171 170.442881 
L 201.165829 170.442881 
L 202.601487 170.889008 
L 203.07241 171.184884 
L 204.037146 172.083489 
L 204.354797 172.522131 
L 204.833756 173.859377 
L 204.833756 175.196623 
L 204.354797 176.533869 
L 204.037146 176.972511 
L 203.07241 177.871116 
L 202.601487 178.166992 
L 201.165829 178.613119 
L 199.730171 178.613119 
L 198.294513 178.166992 
" style="fill:none;stroke:#00ce98;stroke-width:1.5;"/>
   </g>
   <g id="LineCollection_7">
    <path clip-path="url(#p3b05af48db)" d="M 198.294513 178.715439 
L 196.950673 177.871116 
L 196.858854 177.785591 
L 195.952395 176.533869 
L 195.4968 175.196623 
L 195.4968 173.859377 
L 195.952395 172.522131 
L 196.858854 171.270409 
L 196.950673 171.184884 
L 198.294513 170.340561 
L 199.730171 169.916197 
L 201.165829 169.916197 
L 202.601487 170.340561 
L 203.945327 171.184884 
L 204.037146 171.270409 
L 204.943605 172.522131 
L 205.3992 173.859377 
L 205.3992 175.196623 
L 204.943605 176.533869 
L 204.037146 177.785591 
L 203.945327 177.871116 
L 202.601487 178.715439 
L 201.165829 179.139803 
L 199.730171 179.139803 
L 198.294513 178.715439 
" style="fill:none;stroke:#00c49d;stroke-width:1.5;"/>
   </g>
   <g id="LineCollection_8">
    <path clip-path="url(#p3b05af48db)" d="M 198.294513 179.255853 
L 198.194556 179.208362 
L 196.858854 178.403489 
L 196.287302 177.871116 
L 195.423196 176.626974 
L 195.37221 176.533869 
L 195.002512 175.196623 
L 195.002512 173.859377 
L 195.37221 172.522131 
L 195.423196 172.429026 
L 196.287302 171.184884 
L 196.858854 170.652511 
L 198.194556 169.847638 
L 198.294513 169.800147 
L 199.730171 169.455792 
L 201.165829 169.455792 
L 202.601487 169.800147 
L 202.701444 169.847638 
L 204.037146 170.652511 
L 204.608698 171.184884 
L 205.472804 172.429026 
L 205.52379 172.522131 
L 205.893488 173.859377 
L 205.893488 175.196623 
L 205.52379 176.533869 
L 205.472804 176.626974 
L 204.608698 177.871116 
L 204.037146 178.403489 
L 202.701444 179.208362 
L 202.601487 179.255853 
L 201.165829 179.600208 
L 199.730171 179.600208 
L 198.294513 179.255853 
" style="fill:none;stroke:#00bba2;stroke-width:1.5;"/>
   </g>
   <g id="LineCollection_9">
    <path clip-path="url(#p3b05af48db)" d="M 198.294513 179.724953 
L 197.207218 179.208362 
L 196.858854 178.998443 
L 195.648563 177.871116 
L 195.423196 177.546632 
L 194.868588 176.533869 
L 194.518874 175.196623 
L 194.518874 173.859377 
L 194.868588 172.522131 
L 195.423196 171.509368 
L 195.648563 171.184884 
L 196.858854 170.057557 
L 197.207218 169.847638 
L 198.294513 169.331047 
L 199.730171 169.005306 
L 201.165829 169.005306 
L 202.601487 169.331047 
L 203.688782 169.847638 
L 204.037146 170.057557 
L 205.247437 171.184884 
L 205.472804 171.509368 
L 206.027412 172.522131 
L 206.377126 173.859377 
L 206.377126 175.196623 
L 206.027412 176.533869 
L 205.472804 177.546632 
L 205.247437 177.871116 
L 204.037146 178.998443 
L 203.688782 179.208362 
L 202.601487 179.724953 
L 201.165829 180.050694 
L 199.730171 180.050694 
L 198.294513 179.724953 
" style="fill:none;stroke:#00b1a6;stroke-width:1.5;"/>
   </g>
   <g id="LineCollection_10">
    <path clip-path="url(#p3b05af48db)" d="M 196.858854 179.537693 
L 196.391298 179.208362 
L 195.423196 178.306622 
L 195.069629 177.871116 
L 194.364965 176.533869 
L 194.035235 175.196623 
L 194.035235 173.859377 
L 194.364965 172.522131 
L 195.069629 171.184884 
L 195.423196 170.749378 
L 196.391298 169.847638 
L 196.858854 169.518307 
L 198.294513 168.861948 
L 199.730171 168.55482 
L 201.165829 168.55482 
L 202.601487 168.861948 
L 204.037146 169.518307 
L 204.504702 169.847638 
L 205.472804 170.749378 
L 205.826371 171.184884 
L 206.531035 172.522131 
L 206.860765 173.859377 
L 206.860765 175.196623 
L 206.531035 176.533869 
L 205.826371 177.871116 
L 205.472804 178.306622 
L 204.504702 179.208362 
L 204.037146 179.537693 
L 202.601487 180.194052 
L 201.165829 180.50118 
L 199.730171 180.50118 
L 198.294513 180.194052 
L 196.858854 179.537693 
" style="fill:none;stroke:#00a7ac;stroke-width:1.5;"/>
   </g>
   <g id="LineCollection_11">
    <path clip-path="url(#p3b05af48db)" d="M 198.294513 180.657162 
L 198.002334 180.545608 
L 196.858854 180.046572 
L 195.668833 179.208362 
L 195.423196 178.979563 
L 194.523299 177.871116 
L 193.987538 176.806019 
L 193.867775 176.533869 
L 193.573814 175.196623 
L 193.573814 173.859377 
L 193.867775 172.522131 
L 193.987538 172.249981 
L 194.523299 171.184884 
L 195.423196 170.076437 
L 195.668833 169.847638 
L 196.858854 169.009428 
L 198.002334 168.510392 
L 198.294513 168.398838 
L 199.730171 168.125029 
L 201.165829 168.125029 
L 202.601487 168.398838 
L 202.893666 168.510392 
L 204.037146 169.009428 
L 205.227167 169.847638 
L 205.472804 170.076437 
L 206.372701 171.184884 
L 206.908462 172.249981 
L 207.028225 172.522131 
L 207.322186 173.859377 
L 207.322186 175.196623 
L 207.028225 176.533869 
L 206.908462 176.806019 
L 206.372701 177.871116 
L 205.472804 178.979563 
L 205.227167 179.208362 
L 204.037146 180.046572 
L 202.893666 180.545608 
L 202.601487 180.657162 
L 201.165829 180.930971 
L 199.730171 180.930971 
L 198.294513 180.657162 
" style="fill:none;stroke:#009db0;stroke-width:1.5;"/>
   </g>
   <g id="LineCollection_12">
    <path clip-path="url(#p3b05af48db)" d="M 196.858854 180.55495 
L 196.84235 180.545608 
L 195.423196 179.588247 
L 195.015354 179.208362 
L 193.987538 177.886488 
L 193.977509 177.871116 
L 193.38982 176.533869 
L 193.114825 175.196623 
L 193.114825 173.859377 
L 193.38982 172.522131 
L 193.977509 171.184884 
L 193.987538 171.169512 
L 195.015354 169.847638 
L 195.423196 169.467753 
L 196.84235 168.510392 
L 196.858854 168.50105 
L 198.294513 167.953647 
L 199.730171 167.697502 
L 201.165829 167.697502 
L 202.601487 167.953647 
L 204.037146 168.50105 
L 204.05365 168.510392 
L 205.472804 169.467753 
L 205.880646 169.847638 
L 206.908462 171.169512 
L 206.918491 171.184884 
L 207.50618 172.522131 
L 207.781175 173.859377 
L 207.781175 175.196623 
L 207.50618 176.533869 
L 206.918491 177.871116 
L 206.908462 177.886488 
L 205.880646 179.208362 
L 205.472804 179.588247 
L 204.05365 180.545608 
L 204.037146 180.55495 
L 202.601487 181.102353 
L 201.165829 181.358498 
L 199.730171 181.358498 
L 198.294513 181.102353 
L 196.858854 180.55495 
" style="fill:none;stroke:#0093b6;stroke-width:1.5;"/>
   </g>
   <g id="LineCollection_13">
    <path clip-path="url(#p3b05af48db)" d="M 196.858854 181.037893 
L 195.989128 180.545608 
L 195.423196 180.16383 
L 194.397412 179.208362 
L 193.987538 178.681223 
L 193.459024 177.871116 
L 192.911865 176.533869 
L 192.655836 175.196623 
L 192.655836 173.859377 
L 192.911865 172.522131 
L 193.459024 171.184884 
L 193.987538 170.374777 
L 194.397412 169.847638 
L 195.423196 168.89217 
L 195.989128 168.510392 
L 196.858854 168.018107 
L 198.294513 167.508455 
L 199.730171 167.269976 
L 201.165829 167.269976 
L 202.601487 167.508455 
L 204.037146 168.018107 
L 204.906872 168.510392 
L 205.472804 168.89217 
L 206.498588 169.847638 
L 206.908462 170.374777 
L 207.436976 171.184884 
L 207.984135 172.522131 
L 208.240164 173.859377 
L 208.240164 175.196623 
L 207.984135 176.533869 
L 207.436976 177.871116 
L 206.908462 178.681223 
L 206.498588 179.208362 
L 205.472804 180.16383 
L 204.906872 180.545608 
L 204.037146 181.037893 
L 202.601487 181.547545 
L 201.165829 181.786024 
L 199.730171 181.786024 
L 198.294513 181.547545 
L 196.858854 181.037893 
" style="fill:none;stroke:#0089bb;stroke-width:1.5;"/>
   </g>
   <g id="LineCollection_14">
    <path clip-path="url(#p3b05af48db)" d="M 198.294513 181.996033 
L 197.938893 181.882854 
L 196.858854 181.520837 
L 195.423196 180.729536 
L 195.17747 180.545608 
L 193.987538 179.437244 
L 193.790074 179.208362 
L 192.940539 177.871116 
L 192.551879 176.865112 
L 192.430372 176.533869 
L 192.186196 175.196623 
L 192.186196 173.859377 
L 192.430372 172.522131 
L 192.551879 172.190888 
L 192.940539 171.184884 
L 193.790074 169.847638 
L 193.987538 169.618756 
L 195.17747 168.510392 
L 195.423196 168.326464 
L 196.858854 167.535163 
L 197.938893 167.173146 
L 198.294513 167.059967 
L 199.730171 166.83253 
L 201.165829 166.83253 
L 202.601487 167.059967 
L 202.957107 167.173146 
L 204.037146 167.535163 
L 205.472804 168.326464 
L 205.71853 168.510392 
L 206.908462 169.618756 
L 207.105926 169.847638 
L 207.955461 171.184884 
L 208.344121 172.190888 
L 208.465628 172.522131 
L 208.709804 173.859377 
L 208.709804 175.196623 
L 208.465628 176.533869 
L 208.344121 176.865112 
L 207.955461 177.871116 
L 207.105926 179.208362 
L 206.908462 179.437244 
L 205.71853 180.545608 
L 205.472804 180.729536 
L 204.037146 181.520837 
L 202.957107 181.882854 
L 202.601487 181.996033 
L 201.165829 182.22347 
L 199.730171 182.22347 
L 198.294513 181.996033 
" style="fill:none;stroke:#007fc0;stroke-width:1.5;"/>
   </g>
   <g id="LineCollection_15">
    <path clip-path="url(#p3b05af48db)" d="M 196.858854 182.007408 
L 196.594869 181.882854 
L 195.423196 181.275784 
L 194.447688 180.545608 
L 193.987538 180.117 
L 193.203626 179.208362 
L 192.551879 178.117005 
L 192.41816 177.871116 
L 191.93808 176.533869 
L 191.713439 175.196623 
L 191.713439 173.859377 
L 191.93808 172.522131 
L 192.41816 171.184884 
L 192.551879 170.938995 
L 193.203626 169.847638 
L 193.987538 168.939 
L 194.447688 168.510392 
L 195.423196 167.780216 
L 196.594869 167.173146 
L 196.858854 167.048592 
L 198.294513 166.601422 
L 199.730171 166.392179 
L 201.165829 166.392179 
L 202.601487 166.601422 
L 204.037146 167.048592 
L 204.301131 167.173146 
L 205.472804 167.780216 
L 206.448312 168.510392 
L 206.908462 168.939 
L 207.692374 169.847638 
L 208.344121 170.938995 
L 208.47784 171.184884 
L 208.95792 172.522131 
L 209.182561 173.859377 
L 209.182561 175.196623 
L 208.95792 176.533869 
L 208.47784 177.871116 
L 208.344121 178.117005 
L 207.692374 179.208362 
L 206.908462 180.117 
L 206.448312 180.545608 
L 205.472804 181.275784 
L 204.301131 181.882854 
L 204.037146 182.007408 
L 202.601487 182.454578 
L 201.165829 182.663821 
L 199.730171 182.663821 
L 198.294513 182.454578 
L 196.858854 182.007408 
" style="fill:none;stroke:#0076c4;stroke-width:1.5;"/>
   </g>
   <g id="LineCollection_16">
    <path clip-path="url(#p3b05af48db)" d="M 196.858854 182.504838 
L 195.540587 181.882854 
L 195.423196 181.822031 
L 193.987538 180.783957 
L 193.731648 180.545608 
L 192.617179 179.208362 
L 192.551879 179.099018 
L 191.884122 177.871116 
L 191.445789 176.533869 
L 191.240681 175.196623 
L 191.240681 173.859377 
L 191.445789 172.522131 
L 191.884122 171.184884 
L 192.551879 169.956982 
L 192.617179 169.847638 
L 193.731648 168.510392 
L 193.987538 168.272043 
L 195.423196 167.233969 
L 195.540587 167.173146 
L 196.858854 166.551162 
L 198.294513 166.142876 
L 199.730171 165.951828 
L 201.165829 165.951828 
L 202.601487 166.142876 
L 204.037146 166.551162 
L 205.355413 167.173146 
L 205.472804 167.233969 
L 206.908462 168.272043 
L 207.164352 168.510392 
L 208.278821 169.847638 
L 208.344121 169.956982 
L 209.011878 171.184884 
L 209.450211 172.522131 
L 209.655319 173.859377 
L 209.655319 175.196623 
L 209.450211 176.533869 
L 209.011878 177.871116 
L 208.344121 179.099018 
L 208.278821 179.208362 
L 207.164352 180.545608 
L 206.908462 180.783957 
L 205.472804 181.822031 
L 205.355413 181.882854 
L 204.037146 182.504838 
L 202.601487 182.913124 
L 201.165829 183.104172 
L 199.730171 183.104172 
L 198.294513 182.913124 
L 196.858854 182.504838 
" style="fill:none;stroke:#006cc9;stroke-width:1.5;"/>
   </g>
   <g id="LineCollection_17">
    <path clip-path="url(#p3b05af48db)" d="M 198.294513 183.387784 
L 197.676981 183.220101 
L 196.858854 183.002268 
L 195.423196 182.38284 
L 194.62185 181.882854 
L 193.987538 181.429069 
L 193.03906 180.545608 
L 192.551879 179.954777 
L 192.015098 179.208362 
L 191.350084 177.871116 
L 191.116221 177.10907 
L 190.936197 176.533869 
L 190.730894 175.196623 
L 190.730894 173.859377 
L 190.936197 172.522131 
L 191.116221 171.94693 
L 191.350084 171.184884 
L 192.015098 169.847638 
L 192.551879 169.101223 
L 193.03906 168.510392 
L 193.987538 167.626931 
L 194.62185 167.173146 
L 195.423196 166.67316 
L 196.858854 166.053732 
L 197.676981 165.835899 
L 198.294513 165.668216 
L 199.730171 165.476986 
L 201.165829 165.476986 
L 202.601487 165.668216 
L 203.219019 165.835899 
L 204.037146 166.053732 
L 205.472804 166.67316 
L 206.27415 167.173146 
L 206.908462 167.626931 
L 207.85694 168.510392 
L 208.344121 169.101223 
L 208.880902 169.847638 
L 209.545916 171.184884 
L 209.779779 171.94693 
L 209.959803 172.522131 
L 210.165106 173.859377 
L 210.165106 175.196623 
L 209.959803 176.533869 
L 209.779779 177.10907 
L 209.545916 177.871116 
L 208.880902 179.208362 
L 208.344121 179.954777 
L 207.85694 180.545608 
L 206.908462 181.429069 
L 206.27415 181.882854 
L 205.472804 182.38284 
L 204.037146 183.002268 
L 203.219019 183.220101 
L 202.601487 183.387784 
L 201.165829 183.579014 
L 199.730171 183.579014 
L 198.294513 183.387784 
" style="fill:none;stroke:#0062ce;stroke-width:1.5;"/>
   </g>
   <g id="LineCollection_18">
    <path clip-path="url(#p3b05af48db)" d="M 196.858854 183.529424 
L 196.090463 183.220101 
L 195.423196 182.945473 
L 193.987538 182.07992 
L 193.733728 181.882854 
L 192.551879 180.78202 
L 192.340311 180.545608 
L 191.411059 179.208362 
L 191.116221 178.586835 
L 190.784133 177.871116 
L 190.391566 176.533869 
L 190.207874 175.196623 
L 190.207874 173.859377 
L 190.391566 172.522131 
L 190.784133 171.184884 
L 191.116221 170.469165 
L 191.411059 169.847638 
L 192.340311 168.510392 
L 192.551879 168.27398 
L 193.733728 167.173146 
L 193.987538 166.97608 
L 195.423196 166.110527 
L 196.090463 165.835899 
L 196.858854 165.526576 
L 198.294513 165.160919 
L 199.730171 164.989818 
L 201.165829 164.989818 
L 202.601487 165.160919 
L 204.037146 165.526576 
L 204.805537 165.835899 
L 205.472804 166.110527 
L 206.908462 166.97608 
L 207.162272 167.173146 
L 208.344121 168.27398 
L 208.555689 168.510392 
L 209.484941 169.847638 
L 209.779779 170.469165 
L 210.111867 171.184884 
L 210.504434 172.522131 
L 210.688126 173.859377 
L 210.688126 175.196623 
L 210.504434 176.533869 
L 210.111867 177.871116 
L 209.779779 178.586835 
L 209.484941 179.208362 
L 208.555689 180.545608 
L 208.344121 180.78202 
L 207.162272 181.882854 
L 206.908462 182.07992 
L 205.472804 182.945473 
L 204.805537 183.220101 
L 204.037146 183.529424 
L 202.601487 183.895081 
L 201.165829 184.066182 
L 199.730171 184.066182 
L 198.294513 183.895081 
L 196.858854 183.529424 
" style="fill:none;stroke:#0058d3;stroke-width:1.5;"/>
   </g>
   <g id="LineCollection_19">
    <path clip-path="url(#p3b05af48db)" d="M 195.423196 183.538726 
L 194.824663 183.220101 
L 193.987538 182.744383 
L 192.877933 181.882854 
L 192.551879 181.579151 
L 191.626948 180.545608 
L 191.116221 179.765866 
L 190.774147 179.208362 
L 190.193318 177.871116 
L 189.846936 176.533869 
L 189.684854 175.196623 
L 189.684854 173.859377 
L 189.846936 172.522131 
L 190.193318 171.184884 
L 190.774147 169.847638 
L 191.116221 169.290134 
L 191.626948 168.510392 
L 192.551879 167.476849 
L 192.877933 167.173146 
L 193.987538 166.311617 
L 194.824663 165.835899 
L 195.423196 165.517274 
L 196.858854 164.97626 
L 198.294513 164.653621 
L 199.730171 164.50265 
L 201.165829 164.50265 
L 202.601487 164.653621 
L 204.037146 164.97626 
L 205.472804 165.517274 
L 206.071337 165.835899 
L 206.908462 166.311617 
L 208.018067 167.173146 
L 208.344121 167.476849 
L 209.269052 168.510392 
L 209.779779 169.290134 
L 210.121853 169.847638 
L 210.702682 171.184884 
L 211.049064 172.522131 
L 211.211146 173.859377 
L 211.211146 175.196623 
L 211.049064 176.533869 
L 210.702682 177.871116 
L 210.121853 179.208362 
L 209.779779 179.765866 
L 209.269052 180.545608 
L 208.344121 181.579151 
L 208.018067 181.882854 
L 206.908462 182.744383 
L 206.071337 183.220101 
L 205.472804 183.538726 
L 204.037146 184.07974 
L 202.601487 184.402379 
L 201.165829 184.55335 
L 199.730171 184.55335 
L 198.294513 184.402379 
L 196.858854 184.07974 
L 195.423196 183.538726 
" style="fill:none;stroke:#004ed8;stroke-width:1.5;"/>
   </g>
   <g id="LineCollection_20">
    <path clip-path="url(#p3b05af48db)" d="M 196.858854 184.643369 
L 196.612062 184.557347 
L 195.423196 184.161177 
L 193.987538 183.428913 
L 193.672329 183.220101 
L 192.551879 182.391083 
L 192.006249 181.882854 
L 191.116221 180.83921 
L 190.892042 180.545608 
L 190.105888 179.208362 
L 189.680563 178.100991 
L 189.58821 177.871116 
L 189.233045 176.533869 
L 189.066854 175.196623 
L 189.066854 173.859377 
L 189.233045 172.522131 
L 189.58821 171.184884 
L 189.680563 170.955009 
L 190.105888 169.847638 
L 190.892042 168.510392 
L 191.116221 168.21679 
L 192.006249 167.173146 
L 192.551879 166.664917 
L 193.672329 165.835899 
L 193.987538 165.627087 
L 195.423196 164.894823 
L 196.612062 164.498653 
L 196.858854 164.412631 
L 198.294513 164.081812 
L 199.730171 163.927013 
L 201.165829 163.927013 
L 202.601487 164.081812 
L 204.037146 164.412631 
L 204.283938 164.498653 
L 205.472804 164.894823 
L 206.908462 165.627087 
L 207.223671 165.835899 
L 208.344121 166.664917 
L 208.889751 167.173146 
L 209.779779 168.21679 
L 210.003958 168.510392 
L 210.790112 169.847638 
L 211.215437 170.955009 
L 211.30779 171.184884 
L 211.662955 172.522131 
L 211.829146 173.859377 
L 211.829146 175.196623 
L 211.662955 176.533869 
L 211.30779 177.871116 
L 211.215437 178.100991 
L 210.790112 179.208362 
L 210.003958 180.545608 
L 209.779779 180.83921 
L 208.889751 181.882854 
L 208.344121 182.391083 
L 207.223671 183.220101 
L 206.908462 183.428913 
L 205.472804 184.161177 
L 204.283938 184.557347 
L 204.037146 184.643369 
L 202.601487 184.974188 
L 201.165829 185.128987 
L 199.730171 185.128987 
L 198.294513 184.974188 
L 196.858854 184.643369 
" style="fill:none;stroke:#0044dd;stroke-width:1.5;"/>
   </g>
   <g id="LineCollection_21">
    <path clip-path="url(#p3b05af48db)" d="M 195.423196 184.82506 
L 194.842391 184.557347 
L 193.987538 184.164019 
L 192.562659 183.220101 
L 192.551879 183.212124 
L 191.124784 181.882854 
L 191.116221 181.872813 
L 190.102836 180.545608 
L 189.680563 179.749354 
L 189.393147 179.208362 
L 188.889216 177.871116 
L 188.588691 176.533869 
L 188.448068 175.196623 
L 188.448068 173.859377 
L 188.588691 172.522131 
L 188.889216 171.184884 
L 189.393147 169.847638 
L 189.680563 169.306646 
L 190.102836 168.510392 
L 191.116221 167.183187 
L 191.124784 167.173146 
L 192.551879 165.843876 
L 192.562659 165.835899 
L 193.987538 164.891981 
L 194.842391 164.498653 
L 195.423196 164.23094 
L 196.858854 163.761552 
L 198.294513 163.481628 
L 199.730171 163.350644 
L 201.165829 163.350644 
L 202.601487 163.481628 
L 204.037146 163.761552 
L 205.472804 164.23094 
L 206.053609 164.498653 
L 206.908462 164.891981 
L 208.333341 165.835899 
L 208.344121 165.843876 
L 209.771216 167.173146 
L 209.779779 167.183187 
L 210.793164 168.510392 
L 211.215437 169.306646 
L 211.502853 169.847638 
L 212.006784 171.184884 
L 212.307309 172.522131 
L 212.447932 173.859377 
L 212.447932 175.196623 
L 212.307309 176.533869 
L 212.006784 177.871116 
L 211.502853 179.208362 
L 211.215437 179.749354 
L 210.793164 180.545608 
L 209.779779 181.872813 
L 209.771216 181.882854 
L 208.344121 183.212124 
L 208.333341 183.220101 
L 206.908462 184.164019 
L 206.053609 184.557347 
L 205.472804 184.82506 
L 204.037146 185.294448 
L 202.601487 185.574372 
L 201.165829 185.705356 
L 199.730171 185.705356 
L 198.294513 185.574372 
L 196.858854 185.294448 
L 195.423196 184.82506 
" style="fill:none;stroke:#003be2;stroke-width:1.5;"/>
   </g>
   <g id="LineCollection_22">
    <path clip-path="url(#p3b05af48db)" d="M 196.858854 185.959015 
L 196.647168 185.894593 
L 195.423196 185.561483 
L 193.987538 184.961707 
L 193.282577 184.557347 
L 192.551879 184.119609 
L 191.420027 183.220101 
L 191.116221 182.93712 
L 190.150515 181.882854 
L 189.680563 181.202244 
L 189.246445 180.545608 
L 188.602529 179.208362 
L 188.244905 178.068291 
L 188.175742 177.871116 
L 187.864753 176.533869 
L 187.719233 175.196623 
L 187.719233 173.859377 
L 187.864753 172.522131 
L 188.175742 171.184884 
L 188.244905 170.987709 
L 188.602529 169.847638 
L 189.246445 168.510392 
L 189.680563 167.853756 
L 190.150515 167.173146 
L 191.116221 166.11888 
L 191.420027 165.835899 
L 192.551879 164.936391 
L 193.282577 164.498653 
L 193.987538 164.094293 
L 195.423196 163.494517 
L 196.647168 163.161407 
L 196.858854 163.096985 
L 198.294513 162.807314 
L 199.730171 162.671769 
L 201.165829 162.671769 
L 202.601487 162.807314 
L 204.037146 163.096985 
L 204.248832 163.161407 
L 205.472804 163.494517 
L 206.908462 164.094293 
L 207.613423 164.498653 
L 208.344121 164.936391 
L 209.475973 165.835899 
L 209.779779 166.11888 
L 210.745485 167.173146 
L 211.215437 167.853756 
L 211.649555 168.510392 
L 212.293471 169.847638 
L 212.651095 170.987709 
L 212.720258 171.184884 
L 213.031247 172.522131 
L 213.176767 173.859377 
L 213.176767 175.196623 
L 213.031247 176.533869 
L 212.720258 177.871116 
L 212.651095 178.068291 
L 212.293471 179.208362 
L 211.649555 180.545608 
L 211.215437 181.202244 
L 210.745485 181.882854 
L 209.779779 182.93712 
L 209.475973 183.220101 
L 208.344121 184.119609 
L 207.613423 184.557347 
L 206.908462 184.961707 
L 205.472804 185.561483 
L 204.248832 185.894593 
L 204.037146 185.959015 
L 202.601487 186.248686 
L 201.165829 186.384231 
L 199.730171 186.384231 
L 198.294513 186.248686 
L 196.858854 185.959015 
" style="fill:none;stroke:#0031e6;stroke-width:1.5;"/>
   </g>
   <g id="LineCollection_23">
    <path clip-path="url(#p3b05af48db)" d="M 195.423196 186.404696 
L 194.155669 185.894593 
L 193.987538 185.831413 
L 192.551879 185.114109 
L 191.742769 184.557347 
L 191.116221 184.084828 
L 190.187855 183.220101 
L 189.680563 182.636501 
L 189.082827 181.882854 
L 188.312734 180.545608 
L 188.244905 180.389002 
L 187.697261 179.208362 
L 187.291666 177.871116 
L 187.049786 176.533869 
L 186.936603 175.196623 
L 186.936603 173.859377 
L 187.049786 172.522131 
L 187.291666 171.184884 
L 187.697261 169.847638 
L 188.244905 168.666998 
L 188.312734 168.510392 
L 189.082827 167.173146 
L 189.680563 166.419499 
L 190.187855 165.835899 
L 191.116221 164.971172 
L 191.742769 164.498653 
L 192.551879 163.941891 
L 193.987538 163.224587 
L 194.155669 163.161407 
L 195.423196 162.651304 
L 196.858854 162.273511 
L 198.294513 162.048212 
L 199.730171 161.942788 
L 201.165829 161.942788 
L 202.601487 162.048212 
L 204.037146 162.273511 
L 205.472804 162.651304 
L 206.740331 163.161407 
L 206.908462 163.224587 
L 208.344121 163.941891 
L 209.153231 164.498653 
L 209.779779 164.971172 
L 210.708145 165.835899 
L 211.215437 166.419499 
L 211.813173 167.173146 
L 212.583266 168.510392 
L 212.651095 168.666998 
L 213.198739 169.847638 
L 213.604334 171.184884 
L 213.846214 172.522131 
L 213.959397 173.859377 
L 213.959397 175.196623 
L 213.846214 176.533869 
L 213.604334 177.871116 
L 213.198739 179.208362 
L 212.651095 180.389002 
L 212.583266 180.545608 
L 211.813173 181.882854 
L 211.215437 182.636501 
L 210.708145 183.220101 
L 209.779779 184.084828 
L 209.153231 184.557347 
L 208.344121 185.114109 
L 206.908462 185.831413 
L 206.740331 185.894593 
L 205.472804 186.404696 
L 204.037146 186.782489 
L 202.601487 187.007788 
L 201.165829 187.113212 
L 199.730171 187.113212 
L 198.294513 187.007788 
L 196.858854 186.782489 
L 195.423196 186.404696 
" style="fill:none;stroke:#0027ec;stroke-width:1.5;"/>
   </g>
   <g id="LineCollection_24">
    <path clip-path="url(#p3b05af48db)" d="M 195.423196 187.373298 
L 195.021678 187.231839 
L 193.987538 186.914674 
L 192.551879 186.26665 
L 191.932601 185.894593 
L 191.116221 185.39176 
L 190.081618 184.557347 
L 189.680563 184.183784 
L 188.784743 183.220101 
L 188.244905 182.459682 
L 187.845467 181.882854 
L 187.149753 180.545608 
L 186.809246 179.582356 
L 186.657377 179.208362 
L 186.264342 177.871116 
L 186.029953 176.533869 
L 185.920276 175.196623 
L 185.920276 173.859377 
L 186.029953 172.522131 
L 186.264342 171.184884 
L 186.657377 169.847638 
L 186.809246 169.473644 
L 187.149753 168.510392 
L 187.845467 167.173146 
L 188.244905 166.596318 
L 188.784743 165.835899 
L 189.680563 164.872216 
L 190.081618 164.498653 
L 191.116221 163.66424 
L 191.932601 163.161407 
L 192.551879 162.78935 
L 193.987538 162.141326 
L 195.021678 161.824161 
L 195.423196 161.682702 
L 196.858854 161.316609 
L 198.294513 161.098287 
L 199.730171 160.996128 
L 201.165829 160.996128 
L 202.601487 161.098287 
L 204.037146 161.316609 
L 205.472804 161.682702 
L 205.874322 161.824161 
L 206.908462 162.141326 
L 208.344121 162.78935 
L 208.963399 163.161407 
L 209.779779 163.66424 
L 210.814382 164.498653 
L 211.215437 164.872216 
L 212.111257 165.835899 
L 212.651095 166.596318 
L 213.050533 167.173146 
L 213.746247 168.510392 
L 214.086754 169.473644 
L 214.238623 169.847638 
L 214.631658 171.184884 
L 214.866047 172.522131 
L 214.975724 173.859377 
L 214.975724 175.196623 
L 214.866047 176.533869 
L 214.631658 177.871116 
L 214.238623 179.208362 
L 214.086754 179.582356 
L 213.746247 180.545608 
L 213.050533 181.882854 
L 212.651095 182.459682 
L 212.111257 183.220101 
L 211.215437 184.183784 
L 210.814382 184.557347 
L 209.779779 185.39176 
L 208.963399 185.894593 
L 208.344121 186.26665 
L 206.908462 186.914674 
L 205.874322 187.231839 
L 205.472804 187.373298 
L 204.037146 187.739391 
L 202.601487 187.957713 
L 201.165829 188.059872 
L 199.730171 188.059872 
L 198.294513 187.957713 
L 196.858854 187.739391 
L 195.423196 187.373298 
" style="fill:none;stroke:#001df0;stroke-width:1.5;"/>
   </g>
   <g id="LineCollection_25">
    <path clip-path="url(#p3b05af48db)" d="M 195.423196 188.668554 
L 195.099622 188.569085 
L 193.987538 188.293852 
L 192.551879 187.766369 
L 191.535576 187.231839 
L 191.116221 187.02103 
L 189.680563 186.052427 
L 189.486483 185.894593 
L 188.244905 184.738122 
L 188.075455 184.557347 
L 187.03557 183.220101 
L 186.809246 182.829491 
L 186.235378 181.882854 
L 185.669077 180.545608 
L 185.373588 179.509756 
L 185.266799 179.208362 
L 184.92088 177.871116 
L 184.714588 176.533869 
L 184.618058 175.196623 
L 184.618058 173.859377 
L 184.714588 172.522131 
L 184.92088 171.184884 
L 185.266799 169.847638 
L 185.373588 169.546244 
L 185.669077 168.510392 
L 186.235378 167.173146 
L 186.809246 166.226509 
L 187.03557 165.835899 
L 188.075455 164.498653 
L 188.244905 164.317878 
L 189.486483 163.161407 
L 189.680563 163.003573 
L 191.116221 162.03497 
L 191.535576 161.824161 
L 192.551879 161.289631 
L 193.987538 160.762148 
L 195.099622 160.486915 
L 195.423196 160.387446 
L 196.858854 160.065239 
L 198.294513 159.873088 
L 199.730171 159.783175 
L 201.165829 159.783175 
L 202.601487 159.873088 
L 204.037146 160.065239 
L 205.472804 160.387446 
L 205.796378 160.486915 
L 206.908462 160.762148 
L 208.344121 161.289631 
L 209.360424 161.824161 
L 209.779779 162.03497 
L 211.215437 163.003573 
L 211.409517 163.161407 
L 212.651095 164.317878 
L 212.820545 164.498653 
L 213.86043 165.835899 
L 214.086754 166.226509 
L 214.660622 167.173146 
L 215.226923 168.510392 
L 215.522412 169.546244 
L 215.629201 169.847638 
L 215.97512 171.184884 
L 216.181412 172.522131 
L 216.277942 173.859377 
L 216.277942 175.196623 
L 216.181412 176.533869 
L 215.97512 177.871116 
L 215.629201 179.208362 
L 215.522412 179.509756 
L 215.226923 180.545608 
L 214.660622 181.882854 
L 214.086754 182.829491 
L 213.86043 183.220101 
L 212.820545 184.557347 
L 212.651095 184.738122 
L 211.409517 185.894593 
L 211.215437 186.052427 
L 209.779779 187.02103 
L 209.360424 187.231839 
L 208.344121 187.766369 
L 206.908462 188.293852 
L 205.796378 188.569085 
L 205.472804 188.668554 
L 204.037146 188.990761 
L 202.601487 189.182912 
L 201.165829 189.272825 
L 199.730171 189.272825 
L 198.294513 189.182912 
L 196.858854 188.990761 
L 195.423196 188.668554 
" style="fill:none;stroke:#0013f6;stroke-width:1.5;"/>
   </g>
   <g id="LineCollection_26">
    <path clip-path="url(#p3b05af48db)" d="M 192.551879 190.212632 
L 191.778495 189.906332 
L 191.116221 189.69524 
L 189.680563 189.052725 
L 188.902007 188.569085 
L 188.244905 188.165972 
L 187.099332 187.231839 
L 186.809246 186.961638 
L 185.806368 185.894593 
L 185.373588 185.282534 
L 184.854356 184.557347 
L 184.164556 183.220101 
L 183.93793 182.603224 
L 183.609088 181.882854 
L 183.162957 180.545608 
L 182.87282 179.208362 
L 182.687042 177.871116 
L 182.576251 176.533869 
L 182.524409 175.196623 
L 182.524409 173.859377 
L 182.576251 172.522131 
L 182.687042 171.184884 
L 182.87282 169.847638 
L 183.162957 168.510392 
L 183.609088 167.173146 
L 183.93793 166.452776 
L 184.164556 165.835899 
L 184.854356 164.498653 
L 185.373588 163.773466 
L 185.806368 163.161407 
L 186.809246 162.094362 
L 187.099332 161.824161 
L 188.244905 160.890028 
L 188.902007 160.486915 
L 189.680563 160.003275 
L 191.116221 159.36076 
L 191.778495 159.149668 
L 192.551879 158.843368 
L 193.987538 158.427819 
L 195.423196 158.15757 
L 196.858854 157.984527 
L 198.294513 157.88133 
L 199.730171 157.833042 
L 201.165829 157.833042 
L 202.601487 157.88133 
L 204.037146 157.984527 
L 205.472804 158.15757 
L 206.908462 158.427819 
L 208.344121 158.843368 
L 209.117505 159.149668 
L 209.779779 159.36076 
L 211.215437 160.003275 
L 211.993993 160.486915 
L 212.651095 160.890028 
L 213.796668 161.824161 
L 214.086754 162.094362 
L 215.089632 163.161407 
L 215.522412 163.773466 
L 216.041644 164.498653 
L 216.731444 165.835899 
L 216.95807 166.452776 
L 217.286912 167.173146 
L 217.733043 168.510392 
L 218.02318 169.847638 
L 218.208958 171.184884 
L 218.319749 172.522131 
L 218.371591 173.859377 
L 218.371591 175.196623 
L 218.319749 176.533869 
L 218.208958 177.871116 
L 218.02318 179.208362 
L 217.733043 180.545608 
L 217.286912 181.882854 
L 216.95807 182.603224 
L 216.731444 183.220101 
L 216.041644 184.557347 
L 215.522412 185.282534 
L 215.089632 185.894593 
L 214.086754 186.961638 
L 213.796668 187.231839 
L 212.651095 188.165972 
L 211.993993 188.569085 
L 211.215437 189.052725 
L 209.779779 189.69524 
L 209.117505 189.906332 
L 208.344121 190.212632 
L 206.908462 190.628181 
L 205.472804 190.89843 
L 204.037146 191.071473 
L 202.601487 191.17467 
L 201.165829 191.222958 
L 199.730171 191.222958 
L 198.294513 191.17467 
L 196.858854 191.071473 
L 195.423196 190.89843 
L 193.987538 190.628181 
L 192.551879 190.212632 
" style="fill:none;stroke:#0009fb;stroke-width:1.5;"/>
   </g>
   <g id="LineCollection_27"/>
   <g id="patch_3">
    <path d="M 57.6 307.584 
L 57.6 41.472 
" style="fill:none;stroke:#000000;stroke-linecap:square;stroke-linejoin:miter;stroke-width:0.8;"/>
   </g>
   <g id="patch_4">
    <path d="M 343.296 307.584 
L 343.296 41.472 
" style="fill:none;stroke:#000000;stroke-linecap:square;stroke-linejoin:miter;stroke-width:0.8;"/>
   </g>
   <g id="patch_5">
    <path d="M 57.6 307.584 
L 343.296 307.584 
" style="fill:none;stroke:#000000;stroke-linecap:square;stroke-linejoin:miter;stroke-width:0.8;"/>
   </g>
   <g id="patch_6">
    <path d="M 57.6 41.472 
L 343.296 41.472 
" style="fill:none;stroke:#000000;stroke-linecap:square;stroke-linejoin:miter;stroke-width:0.8;"/>
   </g>
  </g>
  <g id="axes_2">
   <g id="patch_7">
    <path clip-path="url(#pbcc0837516)" d="M 361.152 307.584 
L 361.152 297.348923 
L 361.152 51.707077 
L 361.152 41.472 
L 374.4576 41.472 
L 374.4576 51.707077 
L 374.4576 297.348923 
L 374.4576 307.584 
z
" style="fill:#ffffff;stroke:#ffffff;stroke-linejoin:miter;stroke-width:0.01;"/>
   </g>
   <g id="matplotlib.axis_3"/>
   <g id="matplotlib.axis_4">
    <g id="ytick_10">
     <g id="line2d_19">
      <defs>
       <path d="M 0 0 
L 3.5 0 
" id="m1555fbe7eb" style="stroke:#000000;stroke-width:0.8;"/>
      </defs>
      <g>
       <use style="stroke:#000000;stroke-width:0.8;" x="374.4576" xlink:href="#m1555fbe7eb" y="297.348923"/>
      </g>
     </g>
     <g id="text_19">
      <!-- −0.96 -->
      <defs>
       <path d="M 10.984375 1.515625 
L 10.984375 10.5 
Q 14.703125 8.734375 18.5 7.8125 
Q 22.3125 6.890625 25.984375 6.890625 
Q 35.75 6.890625 40.890625 13.453125 
Q 46.046875 20.015625 46.78125 33.40625 
Q 43.953125 29.203125 39.59375 26.953125 
Q 35.25 24.703125 29.984375 24.703125 
Q 19.046875 24.703125 12.671875 31.3125 
Q 6.296875 37.9375 6.296875 49.421875 
Q 6.296875 60.640625 12.9375 67.421875 
Q 19.578125 74.21875 30.609375 74.21875 
Q 43.265625 74.21875 49.921875 64.515625 
Q 56.59375 54.828125 56.59375 36.375 
Q 56.59375 19.140625 48.40625 8.859375 
Q 40.234375 -1.421875 26.421875 -1.421875 
Q 22.703125 -1.421875 18.890625 -0.6875 
Q 15.09375 0.046875 10.984375 1.515625 
z
M 30.609375 32.421875 
Q 37.25 32.421875 41.125 36.953125 
Q 45.015625 41.5 45.015625 49.421875 
Q 45.015625 57.28125 41.125 61.84375 
Q 37.25 66.40625 30.609375 66.40625 
Q 23.96875 66.40625 20.09375 61.84375 
Q 16.21875 57.28125 16.21875 49.421875 
Q 16.21875 41.5 20.09375 36.953125 
Q 23.96875 32.421875 30.609375 32.421875 
z
" id="DejaVuSans-57"/>
       <path d="M 33.015625 40.375 
Q 26.375 40.375 22.484375 35.828125 
Q 18.609375 31.296875 18.609375 23.390625 
Q 18.609375 15.53125 22.484375 10.953125 
Q 26.375 6.390625 33.015625 6.390625 
Q 39.65625 6.390625 43.53125 10.953125 
Q 47.40625 15.53125 47.40625 23.390625 
Q 47.40625 31.296875 43.53125 35.828125 
Q 39.65625 40.375 33.015625 40.375 
z
M 52.59375 71.296875 
L 52.59375 62.3125 
Q 48.875 64.0625 45.09375 64.984375 
Q 41.3125 65.921875 37.59375 65.921875 
Q 27.828125 65.921875 22.671875 59.328125 
Q 17.53125 52.734375 16.796875 39.40625 
Q 19.671875 43.65625 24.015625 45.921875 
Q 28.375 48.1875 33.59375 48.1875 
Q 44.578125 48.1875 50.953125 41.515625 
Q 57.328125 34.859375 57.328125 23.390625 
Q 57.328125 12.15625 50.6875 5.359375 
Q 44.046875 -1.421875 33.015625 -1.421875 
Q 20.359375 -1.421875 13.671875 8.265625 
Q 6.984375 17.96875 6.984375 36.375 
Q 6.984375 53.65625 15.1875 63.9375 
Q 23.390625 74.21875 37.203125 74.21875 
Q 40.921875 74.21875 44.703125 73.484375 
Q 48.484375 72.75 52.59375 71.296875 
z
" id="DejaVuSans-54"/>
      </defs>
      <g transform="translate(381.4576 301.148142)scale(0.1 -0.1)">
       <use xlink:href="#DejaVuSans-8722"/>
       <use x="83.789062" xlink:href="#DejaVuSans-48"/>
       <use x="147.412109" xlink:href="#DejaVuSans-46"/>
       <use x="179.199219" xlink:href="#DejaVuSans-57"/>
       <use x="242.822266" xlink:href="#DejaVuSans-54"/>
      </g>
     </g>
    </g>
    <g id="ytick_11">
     <g id="line2d_20">
      <g>
       <use style="stroke:#000000;stroke-width:0.8;" x="374.4576" xlink:href="#m1555fbe7eb" y="266.643692"/>
      </g>
     </g>
     <g id="text_20">
      <!-- −0.72 -->
      <g transform="translate(381.4576 270.442911)scale(0.1 -0.1)">
       <use xlink:href="#DejaVuSans-8722"/>
       <use x="83.789062" xlink:href="#DejaVuSans-48"/>
       <use x="147.412109" xlink:href="#DejaVuSans-46"/>
       <use x="179.199219" xlink:href="#DejaVuSans-55"/>
       <use x="242.822266" xlink:href="#DejaVuSans-50"/>
      </g>
     </g>
    </g>
    <g id="ytick_12">
     <g id="line2d_21">
      <g>
       <use style="stroke:#000000;stroke-width:0.8;" x="374.4576" xlink:href="#m1555fbe7eb" y="235.938462"/>
      </g>
     </g>
     <g id="text_21">
      <!-- −0.48 -->
      <defs>
       <path d="M 37.796875 64.3125 
L 12.890625 25.390625 
L 37.796875 25.390625 
z
M 35.203125 72.90625 
L 47.609375 72.90625 
L 47.609375 25.390625 
L 58.015625 25.390625 
L 58.015625 17.1875 
L 47.609375 17.1875 
L 47.609375 0 
L 37.796875 0 
L 37.796875 17.1875 
L 4.890625 17.1875 
L 4.890625 26.703125 
z
" id="DejaVuSans-52"/>
       <path d="M 31.78125 34.625 
Q 24.75 34.625 20.71875 30.859375 
Q 16.703125 27.09375 16.703125 20.515625 
Q 16.703125 13.921875 20.71875 10.15625 
Q 24.75 6.390625 31.78125 6.390625 
Q 38.8125 6.390625 42.859375 10.171875 
Q 46.921875 13.96875 46.921875 20.515625 
Q 46.921875 27.09375 42.890625 30.859375 
Q 38.875 34.625 31.78125 34.625 
z
M 21.921875 38.8125 
Q 15.578125 40.375 12.03125 44.71875 
Q 8.5 49.078125 8.5 55.328125 
Q 8.5 64.0625 14.71875 69.140625 
Q 20.953125 74.21875 31.78125 74.21875 
Q 42.671875 74.21875 48.875 69.140625 
Q 55.078125 64.0625 55.078125 55.328125 
Q 55.078125 49.078125 51.53125 44.71875 
Q 48 40.375 41.703125 38.8125 
Q 48.828125 37.15625 52.796875 32.3125 
Q 56.78125 27.484375 56.78125 20.515625 
Q 56.78125 9.90625 50.3125 4.234375 
Q 43.84375 -1.421875 31.78125 -1.421875 
Q 19.734375 -1.421875 13.25 4.234375 
Q 6.78125 9.90625 6.78125 20.515625 
Q 6.78125 27.484375 10.78125 32.3125 
Q 14.796875 37.15625 21.921875 38.8125 
z
M 18.3125 54.390625 
Q 18.3125 48.734375 21.84375 45.5625 
Q 25.390625 42.390625 31.78125 42.390625 
Q 38.140625 42.390625 41.71875 45.5625 
Q 45.3125 48.734375 45.3125 54.390625 
Q 45.3125 60.0625 41.71875 63.234375 
Q 38.140625 66.40625 31.78125 66.40625 
Q 25.390625 66.40625 21.84375 63.234375 
Q 18.3125 60.0625 18.3125 54.390625 
z
" id="DejaVuSans-56"/>
      </defs>
      <g transform="translate(381.4576 239.73768)scale(0.1 -0.1)">
       <use xlink:href="#DejaVuSans-8722"/>
       <use x="83.789062" xlink:href="#DejaVuSans-48"/>
       <use x="147.412109" xlink:href="#DejaVuSans-46"/>
       <use x="179.199219" xlink:href="#DejaVuSans-52"/>
       <use x="242.822266" xlink:href="#DejaVuSans-56"/>
      </g>
     </g>
    </g>
    <g id="ytick_13">
     <g id="line2d_22">
      <g>
       <use style="stroke:#000000;stroke-width:0.8;" x="374.4576" xlink:href="#m1555fbe7eb" y="205.233231"/>
      </g>
     </g>
     <g id="text_22">
      <!-- −0.24 -->
      <g transform="translate(381.4576 209.03245)scale(0.1 -0.1)">
       <use xlink:href="#DejaVuSans-8722"/>
       <use x="83.789062" xlink:href="#DejaVuSans-48"/>
       <use x="147.412109" xlink:href="#DejaVuSans-46"/>
       <use x="179.199219" xlink:href="#DejaVuSans-50"/>
       <use x="242.822266" xlink:href="#DejaVuSans-52"/>
      </g>
     </g>
    </g>
    <g id="ytick_14">
     <g id="line2d_23">
      <g>
       <use style="stroke:#000000;stroke-width:0.8;" x="374.4576" xlink:href="#m1555fbe7eb" y="174.528"/>
      </g>
     </g>
     <g id="text_23">
      <!-- 0.00 -->
      <g transform="translate(381.4576 178.327219)scale(0.1 -0.1)">
       <use xlink:href="#DejaVuSans-48"/>
       <use x="63.623047" xlink:href="#DejaVuSans-46"/>
       <use x="95.410156" xlink:href="#DejaVuSans-48"/>
       <use x="159.033203" xlink:href="#DejaVuSans-48"/>
      </g>
     </g>
    </g>
    <g id="ytick_15">
     <g id="line2d_24">
      <g>
       <use style="stroke:#000000;stroke-width:0.8;" x="374.4576" xlink:href="#m1555fbe7eb" y="143.822769"/>
      </g>
     </g>
     <g id="text_24">
      <!-- 0.24 -->
      <g transform="translate(381.4576 147.621988)scale(0.1 -0.1)">
       <use xlink:href="#DejaVuSans-48"/>
       <use x="63.623047" xlink:href="#DejaVuSans-46"/>
       <use x="95.410156" xlink:href="#DejaVuSans-50"/>
       <use x="159.033203" xlink:href="#DejaVuSans-52"/>
      </g>
     </g>
    </g>
    <g id="ytick_16">
     <g id="line2d_25">
      <g>
       <use style="stroke:#000000;stroke-width:0.8;" x="374.4576" xlink:href="#m1555fbe7eb" y="113.117538"/>
      </g>
     </g>
     <g id="text_25">
      <!-- 0.48 -->
      <g transform="translate(381.4576 116.916757)scale(0.1 -0.1)">
       <use xlink:href="#DejaVuSans-48"/>
       <use x="63.623047" xlink:href="#DejaVuSans-46"/>
       <use x="95.410156" xlink:href="#DejaVuSans-52"/>
       <use x="159.033203" xlink:href="#DejaVuSans-56"/>
      </g>
     </g>
    </g>
    <g id="ytick_17">
     <g id="line2d_26">
      <g>
       <use style="stroke:#000000;stroke-width:0.8;" x="374.4576" xlink:href="#m1555fbe7eb" y="82.412308"/>
      </g>
     </g>
     <g id="text_26">
      <!-- 0.72 -->
      <g transform="translate(381.4576 86.211526)scale(0.1 -0.1)">
       <use xlink:href="#DejaVuSans-48"/>
       <use x="63.623047" xlink:href="#DejaVuSans-46"/>
       <use x="95.410156" xlink:href="#DejaVuSans-55"/>
       <use x="159.033203" xlink:href="#DejaVuSans-50"/>
      </g>
     </g>
    </g>
    <g id="ytick_18">
     <g id="line2d_27">
      <g>
       <use style="stroke:#000000;stroke-width:0.8;" x="374.4576" xlink:href="#m1555fbe7eb" y="51.707077"/>
      </g>
     </g>
     <g id="text_27">
      <!-- 0.96 -->
      <g transform="translate(381.4576 55.506296)scale(0.1 -0.1)">
       <use xlink:href="#DejaVuSans-48"/>
       <use x="63.623047" xlink:href="#DejaVuSans-46"/>
       <use x="95.410156" xlink:href="#DejaVuSans-57"/>
       <use x="159.033203" xlink:href="#DejaVuSans-54"/>
      </g>
     </g>
    </g>
   </g>
   <g id="LineCollection_28">
    <path clip-path="url(#pbcc0837516)" d="M 361.152 307.584 
L 374.4576 307.584 
" style="fill:none;stroke:#00ff80;stroke-width:1.5;"/>
    <path clip-path="url(#pbcc0837516)" d="M 361.152 297.348923 
L 374.4576 297.348923 
" style="fill:none;stroke:#00f684;stroke-width:1.5;"/>
    <path clip-path="url(#pbcc0837516)" d="M 361.152 287.113846 
L 374.4576 287.113846 
" style="fill:none;stroke:#00ec89;stroke-width:1.5;"/>
    <path clip-path="url(#pbcc0837516)" d="M 361.152 276.878769 
L 374.4576 276.878769 
" style="fill:none;stroke:#00e28e;stroke-width:1.5;"/>
    <path clip-path="url(#pbcc0837516)" d="M 361.152 266.643692 
L 374.4576 266.643692 
" style="fill:none;stroke:#00d893;stroke-width:1.5;"/>
    <path clip-path="url(#pbcc0837516)" d="M 361.152 256.408615 
L 374.4576 256.408615 
" style="fill:none;stroke:#00ce98;stroke-width:1.5;"/>
    <path clip-path="url(#pbcc0837516)" d="M 361.152 246.173538 
L 374.4576 246.173538 
" style="fill:none;stroke:#00c49d;stroke-width:1.5;"/>
    <path clip-path="url(#pbcc0837516)" d="M 361.152 235.938462 
L 374.4576 235.938462 
" style="fill:none;stroke:#00bba2;stroke-width:1.5;"/>
    <path clip-path="url(#pbcc0837516)" d="M 361.152 225.703385 
L 374.4576 225.703385 
" style="fill:none;stroke:#00b1a6;stroke-width:1.5;"/>
    <path clip-path="url(#pbcc0837516)" d="M 361.152 215.468308 
L 374.4576 215.468308 
" style="fill:none;stroke:#00a7ac;stroke-width:1.5;"/>
    <path clip-path="url(#pbcc0837516)" d="M 361.152 205.233231 
L 374.4576 205.233231 
" style="fill:none;stroke:#009db0;stroke-width:1.5;"/>
    <path clip-path="url(#pbcc0837516)" d="M 361.152 194.998154 
L 374.4576 194.998154 
" style="fill:none;stroke:#0093b6;stroke-width:1.5;"/>
    <path clip-path="url(#pbcc0837516)" d="M 361.152 184.763077 
L 374.4576 184.763077 
" style="fill:none;stroke:#0089bb;stroke-width:1.5;"/>
    <path clip-path="url(#pbcc0837516)" d="M 361.152 174.528 
L 374.4576 174.528 
" style="fill:none;stroke:#007fc0;stroke-width:1.5;"/>
    <path clip-path="url(#pbcc0837516)" d="M 361.152 164.292923 
L 374.4576 164.292923 
" style="fill:none;stroke:#0076c4;stroke-width:1.5;"/>
    <path clip-path="url(#pbcc0837516)" d="M 361.152 154.057846 
L 374.4576 154.057846 
" style="fill:none;stroke:#006cc9;stroke-width:1.5;"/>
    <path clip-path="url(#pbcc0837516)" d="M 361.152 143.822769 
L 374.4576 143.822769 
" style="fill:none;stroke:#0062ce;stroke-width:1.5;"/>
    <path clip-path="url(#pbcc0837516)" d="M 361.152 133.587692 
L 374.4576 133.587692 
" style="fill:none;stroke:#0058d3;stroke-width:1.5;"/>
    <path clip-path="url(#pbcc0837516)" d="M 361.152 123.352615 
L 374.4576 123.352615 
" style="fill:none;stroke:#004ed8;stroke-width:1.5;"/>
    <path clip-path="url(#pbcc0837516)" d="M 361.152 113.117538 
L 374.4576 113.117538 
" style="fill:none;stroke:#0044dd;stroke-width:1.5;"/>
    <path clip-path="url(#pbcc0837516)" d="M 361.152 102.882462 
L 374.4576 102.882462 
" style="fill:none;stroke:#003be2;stroke-width:1.5;"/>
    <path clip-path="url(#pbcc0837516)" d="M 361.152 92.647385 
L 374.4576 92.647385 
" style="fill:none;stroke:#0031e6;stroke-width:1.5;"/>
    <path clip-path="url(#pbcc0837516)" d="M 361.152 82.412308 
L 374.4576 82.412308 
" style="fill:none;stroke:#0027ec;stroke-width:1.5;"/>
    <path clip-path="url(#pbcc0837516)" d="M 361.152 72.177231 
L 374.4576 72.177231 
" style="fill:none;stroke:#001df0;stroke-width:1.5;"/>
    <path clip-path="url(#pbcc0837516)" d="M 361.152 61.942154 
L 374.4576 61.942154 
" style="fill:none;stroke:#0013f6;stroke-width:1.5;"/>
    <path clip-path="url(#pbcc0837516)" d="M 361.152 51.707077 
L 374.4576 51.707077 
" style="fill:none;stroke:#0009fb;stroke-width:1.5;"/>
    <path clip-path="url(#pbcc0837516)" d="M 361.152 41.472 
L 374.4576 41.472 
" style="fill:none;stroke:#0000ff;stroke-width:1.5;"/>
   </g>
   <g id="patch_8">
    <path d="M 361.152 307.584 
L 361.152 297.348923 
L 361.152 51.707077 
L 361.152 41.472 
L 374.4576 41.472 
L 374.4576 51.707077 
L 374.4576 297.348923 
L 374.4576 307.584 
z
" style="fill:none;stroke:#000000;stroke-linejoin:miter;stroke-width:0.8;"/>
   </g>
  </g>
 </g>
 <defs>
  <clipPath id="p3b05af48db">
   <rect height="266.112" width="285.696" x="57.6" y="41.472"/>
  </clipPath>
  <clipPath id="pbcc0837516">
   <rect height="266.112" width="13.3056" x="361.152" y="41.472"/>
  </clipPath>
 </defs>
</svg>
