<?xml version="1.0" encoding="utf-8" standalone="no"?>
<!DOCTYPE svg PUBLIC "-//W3C//DTD SVG 1.1//EN"
  "http://www.w3.org/Graphics/SVG/1.1/DTD/svg11.dtd">
<!-- Created with matplotlib (https://matplotlib.org/) -->
<svg height="345.6pt" version="1.1" viewBox="0 0 460.8 345.6" width="460.8pt" xmlns="http://www.w3.org/2000/svg" xmlns:xlink="http://www.w3.org/1999/xlink">
 <defs>
  <style type="text/css">
*{stroke-linecap:butt;stroke-linejoin:round;}
  </style>
 </defs>
 <g id="figure_1">
  <g id="patch_1">
   <path d="M 0 345.6 
L 460.8 345.6 
L 460.8 0 
L 0 0 
z
" style="fill:#ffffff;"/>
  </g>
  <g id="axes_1">
   <g id="patch_2">
    <path d="M 57.6 307.584 
L 343.296 307.584 
L 343.296 41.472 
L 57.6 41.472 
z
" style="fill:#ffffff;"/>
   </g>
   <g id="matplotlib.axis_1">
    <g id="xtick_1">
     <g id="line2d_1">
      <defs>
       <path d="M 0 0 
L 0 3.5 
" id="me4990ce8d0" style="stroke:#000000;stroke-width:0.8;"/>
      </defs>
      <g>
       <use style="stroke:#000000;stroke-width:0.8;" x="57.6" xlink:href="#me4990ce8d0" y="307.584"/>
      </g>
     </g>
     <g id="text_1">
      <!-- −10.0 -->
      <defs>
       <path d="M 10.59375 35.5 
L 73.1875 35.5 
L 73.1875 27.203125 
L 10.59375 27.203125 
z
" id="DejaVuSans-8722"/>
       <path d="M 12.40625 8.296875 
L 28.515625 8.296875 
L 28.515625 63.921875 
L 10.984375 60.40625 
L 10.984375 69.390625 
L 28.421875 72.90625 
L 38.28125 72.90625 
L 38.28125 8.296875 
L 54.390625 8.296875 
L 54.390625 0 
L 12.40625 0 
z
" id="DejaVuSans-49"/>
       <path d="M 31.78125 66.40625 
Q 24.171875 66.40625 20.328125 58.90625 
Q 16.5 51.421875 16.5 36.375 
Q 16.5 21.390625 20.328125 13.890625 
Q 24.171875 6.390625 31.78125 6.390625 
Q 39.453125 6.390625 43.28125 13.890625 
Q 47.125 21.390625 47.125 36.375 
Q 47.125 51.421875 43.28125 58.90625 
Q 39.453125 66.40625 31.78125 66.40625 
z
M 31.78125 74.21875 
Q 44.046875 74.21875 50.515625 64.515625 
Q 56.984375 54.828125 56.984375 36.375 
Q 56.984375 17.96875 50.515625 8.265625 
Q 44.046875 -1.421875 31.78125 -1.421875 
Q 19.53125 -1.421875 13.0625 8.265625 
Q 6.59375 17.96875 6.59375 36.375 
Q 6.59375 54.828125 13.0625 64.515625 
Q 19.53125 74.21875 31.78125 74.21875 
z
" id="DejaVuSans-48"/>
       <path d="M 10.6875 12.40625 
L 21 12.40625 
L 21 0 
L 10.6875 0 
z
" id="DejaVuSans-46"/>
      </defs>
      <g transform="translate(42.277344 322.182437)scale(0.1 -0.1)">
       <use xlink:href="#DejaVuSans-8722"/>
       <use x="83.789062" xlink:href="#DejaVuSans-49"/>
       <use x="147.412109" xlink:href="#DejaVuSans-48"/>
       <use x="211.035156" xlink:href="#DejaVuSans-46"/>
       <use x="242.822266" xlink:href="#DejaVuSans-48"/>
      </g>
     </g>
    </g>
    <g id="xtick_2">
     <g id="line2d_2">
      <g>
       <use style="stroke:#000000;stroke-width:0.8;" x="93.312" xlink:href="#me4990ce8d0" y="307.584"/>
      </g>
     </g>
     <g id="text_2">
      <!-- −7.5 -->
      <defs>
       <path d="M 8.203125 72.90625 
L 55.078125 72.90625 
L 55.078125 68.703125 
L 28.609375 0 
L 18.3125 0 
L 43.21875 64.59375 
L 8.203125 64.59375 
z
" id="DejaVuSans-55"/>
       <path d="M 10.796875 72.90625 
L 49.515625 72.90625 
L 49.515625 64.59375 
L 19.828125 64.59375 
L 19.828125 46.734375 
Q 21.96875 47.46875 24.109375 47.828125 
Q 26.265625 48.1875 28.421875 48.1875 
Q 40.625 48.1875 47.75 41.5 
Q 54.890625 34.8125 54.890625 23.390625 
Q 54.890625 11.625 47.5625 5.09375 
Q 40.234375 -1.421875 26.90625 -1.421875 
Q 22.3125 -1.421875 17.546875 -0.640625 
Q 12.796875 0.140625 7.71875 1.703125 
L 7.71875 11.625 
Q 12.109375 9.234375 16.796875 8.0625 
Q 21.484375 6.890625 26.703125 6.890625 
Q 35.15625 6.890625 40.078125 11.328125 
Q 45.015625 15.765625 45.015625 23.390625 
Q 45.015625 31 40.078125 35.4375 
Q 35.15625 39.890625 26.703125 39.890625 
Q 22.75 39.890625 18.8125 39.015625 
Q 14.890625 38.140625 10.796875 36.28125 
z
" id="DejaVuSans-53"/>
      </defs>
      <g transform="translate(81.170594 322.182437)scale(0.1 -0.1)">
       <use xlink:href="#DejaVuSans-8722"/>
       <use x="83.789062" xlink:href="#DejaVuSans-55"/>
       <use x="147.412109" xlink:href="#DejaVuSans-46"/>
       <use x="179.199219" xlink:href="#DejaVuSans-53"/>
      </g>
     </g>
    </g>
    <g id="xtick_3">
     <g id="line2d_3">
      <g>
       <use style="stroke:#000000;stroke-width:0.8;" x="129.024" xlink:href="#me4990ce8d0" y="307.584"/>
      </g>
     </g>
     <g id="text_3">
      <!-- −5.0 -->
      <g transform="translate(116.882594 322.182437)scale(0.1 -0.1)">
       <use xlink:href="#DejaVuSans-8722"/>
       <use x="83.789062" xlink:href="#DejaVuSans-53"/>
       <use x="147.412109" xlink:href="#DejaVuSans-46"/>
       <use x="179.199219" xlink:href="#DejaVuSans-48"/>
      </g>
     </g>
    </g>
    <g id="xtick_4">
     <g id="line2d_4">
      <g>
       <use style="stroke:#000000;stroke-width:0.8;" x="164.736" xlink:href="#me4990ce8d0" y="307.584"/>
      </g>
     </g>
     <g id="text_4">
      <!-- −2.5 -->
      <defs>
       <path d="M 19.1875 8.296875 
L 53.609375 8.296875 
L 53.609375 0 
L 7.328125 0 
L 7.328125 8.296875 
Q 12.9375 14.109375 22.625 23.890625 
Q 32.328125 33.6875 34.8125 36.53125 
Q 39.546875 41.84375 41.421875 45.53125 
Q 43.3125 49.21875 43.3125 52.78125 
Q 43.3125 58.59375 39.234375 62.25 
Q 35.15625 65.921875 28.609375 65.921875 
Q 23.96875 65.921875 18.8125 64.3125 
Q 13.671875 62.703125 7.8125 59.421875 
L 7.8125 69.390625 
Q 13.765625 71.78125 18.9375 73 
Q 24.125 74.21875 28.421875 74.21875 
Q 39.75 74.21875 46.484375 68.546875 
Q 53.21875 62.890625 53.21875 53.421875 
Q 53.21875 48.921875 51.53125 44.890625 
Q 49.859375 40.875 45.40625 35.40625 
Q 44.1875 33.984375 37.640625 27.21875 
Q 31.109375 20.453125 19.1875 8.296875 
z
" id="DejaVuSans-50"/>
      </defs>
      <g transform="translate(152.594594 322.182437)scale(0.1 -0.1)">
       <use xlink:href="#DejaVuSans-8722"/>
       <use x="83.789062" xlink:href="#DejaVuSans-50"/>
       <use x="147.412109" xlink:href="#DejaVuSans-46"/>
       <use x="179.199219" xlink:href="#DejaVuSans-53"/>
      </g>
     </g>
    </g>
    <g id="xtick_5">
     <g id="line2d_5">
      <g>
       <use style="stroke:#000000;stroke-width:0.8;" x="200.448" xlink:href="#me4990ce8d0" y="307.584"/>
      </g>
     </g>
     <g id="text_5">
      <!-- 0.0 -->
      <g transform="translate(192.496438 322.182437)scale(0.1 -0.1)">
       <use xlink:href="#DejaVuSans-48"/>
       <use x="63.623047" xlink:href="#DejaVuSans-46"/>
       <use x="95.410156" xlink:href="#DejaVuSans-48"/>
      </g>
     </g>
    </g>
    <g id="xtick_6">
     <g id="line2d_6">
      <g>
       <use style="stroke:#000000;stroke-width:0.8;" x="236.16" xlink:href="#me4990ce8d0" y="307.584"/>
      </g>
     </g>
     <g id="text_6">
      <!-- 2.5 -->
      <g transform="translate(228.208438 322.182437)scale(0.1 -0.1)">
       <use xlink:href="#DejaVuSans-50"/>
       <use x="63.623047" xlink:href="#DejaVuSans-46"/>
       <use x="95.410156" xlink:href="#DejaVuSans-53"/>
      </g>
     </g>
    </g>
    <g id="xtick_7">
     <g id="line2d_7">
      <g>
       <use style="stroke:#000000;stroke-width:0.8;" x="271.872" xlink:href="#me4990ce8d0" y="307.584"/>
      </g>
     </g>
     <g id="text_7">
      <!-- 5.0 -->
      <g transform="translate(263.920437 322.182437)scale(0.1 -0.1)">
       <use xlink:href="#DejaVuSans-53"/>
       <use x="63.623047" xlink:href="#DejaVuSans-46"/>
       <use x="95.410156" xlink:href="#DejaVuSans-48"/>
      </g>
     </g>
    </g>
    <g id="xtick_8">
     <g id="line2d_8">
      <g>
       <use style="stroke:#000000;stroke-width:0.8;" x="307.584" xlink:href="#me4990ce8d0" y="307.584"/>
      </g>
     </g>
     <g id="text_8">
      <!-- 7.5 -->
      <g transform="translate(299.632438 322.182437)scale(0.1 -0.1)">
       <use xlink:href="#DejaVuSans-55"/>
       <use x="63.623047" xlink:href="#DejaVuSans-46"/>
       <use x="95.410156" xlink:href="#DejaVuSans-53"/>
      </g>
     </g>
    </g>
    <g id="xtick_9">
     <g id="line2d_9">
      <g>
       <use style="stroke:#000000;stroke-width:0.8;" x="343.296" xlink:href="#me4990ce8d0" y="307.584"/>
      </g>
     </g>
     <g id="text_9">
      <!-- 10.0 -->
      <g transform="translate(332.163188 322.182437)scale(0.1 -0.1)">
       <use xlink:href="#DejaVuSans-49"/>
       <use x="63.623047" xlink:href="#DejaVuSans-48"/>
       <use x="127.246094" xlink:href="#DejaVuSans-46"/>
       <use x="159.033203" xlink:href="#DejaVuSans-48"/>
      </g>
     </g>
    </g>
   </g>
   <g id="matplotlib.axis_2">
    <g id="ytick_1">
     <g id="line2d_10">
      <defs>
       <path d="M 0 0 
L -3.5 0 
" id="md5a575ca06" style="stroke:#000000;stroke-width:0.8;"/>
      </defs>
      <g>
       <use style="stroke:#000000;stroke-width:0.8;" x="57.6" xlink:href="#md5a575ca06" y="307.584"/>
      </g>
     </g>
     <g id="text_10">
      <!-- −10.0 -->
      <g transform="translate(19.954687 311.383219)scale(0.1 -0.1)">
       <use xlink:href="#DejaVuSans-8722"/>
       <use x="83.789062" xlink:href="#DejaVuSans-49"/>
       <use x="147.412109" xlink:href="#DejaVuSans-48"/>
       <use x="211.035156" xlink:href="#DejaVuSans-46"/>
       <use x="242.822266" xlink:href="#DejaVuSans-48"/>
      </g>
     </g>
    </g>
    <g id="ytick_2">
     <g id="line2d_11">
      <g>
       <use style="stroke:#000000;stroke-width:0.8;" x="57.6" xlink:href="#md5a575ca06" y="274.32"/>
      </g>
     </g>
     <g id="text_11">
      <!-- −7.5 -->
      <g transform="translate(26.317187 278.119219)scale(0.1 -0.1)">
       <use xlink:href="#DejaVuSans-8722"/>
       <use x="83.789062" xlink:href="#DejaVuSans-55"/>
       <use x="147.412109" xlink:href="#DejaVuSans-46"/>
       <use x="179.199219" xlink:href="#DejaVuSans-53"/>
      </g>
     </g>
    </g>
    <g id="ytick_3">
     <g id="line2d_12">
      <g>
       <use style="stroke:#000000;stroke-width:0.8;" x="57.6" xlink:href="#md5a575ca06" y="241.056"/>
      </g>
     </g>
     <g id="text_12">
      <!-- −5.0 -->
      <g transform="translate(26.317187 244.855219)scale(0.1 -0.1)">
       <use xlink:href="#DejaVuSans-8722"/>
       <use x="83.789062" xlink:href="#DejaVuSans-53"/>
       <use x="147.412109" xlink:href="#DejaVuSans-46"/>
       <use x="179.199219" xlink:href="#DejaVuSans-48"/>
      </g>
     </g>
    </g>
    <g id="ytick_4">
     <g id="line2d_13">
      <g>
       <use style="stroke:#000000;stroke-width:0.8;" x="57.6" xlink:href="#md5a575ca06" y="207.792"/>
      </g>
     </g>
     <g id="text_13">
      <!-- −2.5 -->
      <g transform="translate(26.317187 211.591219)scale(0.1 -0.1)">
       <use xlink:href="#DejaVuSans-8722"/>
       <use x="83.789062" xlink:href="#DejaVuSans-50"/>
       <use x="147.412109" xlink:href="#DejaVuSans-46"/>
       <use x="179.199219" xlink:href="#DejaVuSans-53"/>
      </g>
     </g>
    </g>
    <g id="ytick_5">
     <g id="line2d_14">
      <g>
       <use style="stroke:#000000;stroke-width:0.8;" x="57.6" xlink:href="#md5a575ca06" y="174.528"/>
      </g>
     </g>
     <g id="text_14">
      <!-- 0.0 -->
      <g transform="translate(34.696875 178.327219)scale(0.1 -0.1)">
       <use xlink:href="#DejaVuSans-48"/>
       <use x="63.623047" xlink:href="#DejaVuSans-46"/>
       <use x="95.410156" xlink:href="#DejaVuSans-48"/>
      </g>
     </g>
    </g>
    <g id="ytick_6">
     <g id="line2d_15">
      <g>
       <use style="stroke:#000000;stroke-width:0.8;" x="57.6" xlink:href="#md5a575ca06" y="141.264"/>
      </g>
     </g>
     <g id="text_15">
      <!-- 2.5 -->
      <g transform="translate(34.696875 145.063219)scale(0.1 -0.1)">
       <use xlink:href="#DejaVuSans-50"/>
       <use x="63.623047" xlink:href="#DejaVuSans-46"/>
       <use x="95.410156" xlink:href="#DejaVuSans-53"/>
      </g>
     </g>
    </g>
    <g id="ytick_7">
     <g id="line2d_16">
      <g>
       <use style="stroke:#000000;stroke-width:0.8;" x="57.6" xlink:href="#md5a575ca06" y="108"/>
      </g>
     </g>
     <g id="text_16">
      <!-- 5.0 -->
      <g transform="translate(34.696875 111.799219)scale(0.1 -0.1)">
       <use xlink:href="#DejaVuSans-53"/>
       <use x="63.623047" xlink:href="#DejaVuSans-46"/>
       <use x="95.410156" xlink:href="#DejaVuSans-48"/>
      </g>
     </g>
    </g>
    <g id="ytick_8">
     <g id="line2d_17">
      <g>
       <use style="stroke:#000000;stroke-width:0.8;" x="57.6" xlink:href="#md5a575ca06" y="74.736"/>
      </g>
     </g>
     <g id="text_17">
      <!-- 7.5 -->
      <g transform="translate(34.696875 78.535219)scale(0.1 -0.1)">
       <use xlink:href="#DejaVuSans-55"/>
       <use x="63.623047" xlink:href="#DejaVuSans-46"/>
       <use x="95.410156" xlink:href="#DejaVuSans-53"/>
      </g>
     </g>
    </g>
    <g id="ytick_9">
     <g id="line2d_18">
      <g>
       <use style="stroke:#000000;stroke-width:0.8;" x="57.6" xlink:href="#md5a575ca06" y="41.472"/>
      </g>
     </g>
     <g id="text_18">
      <!-- 10.0 -->
      <g transform="translate(28.334375 45.271219)scale(0.1 -0.1)">
       <use xlink:href="#DejaVuSans-49"/>
       <use x="63.623047" xlink:href="#DejaVuSans-48"/>
       <use x="127.246094" xlink:href="#DejaVuSans-46"/>
       <use x="159.033203" xlink:href="#DejaVuSans-48"/>
      </g>
     </g>
    </g>
   </g>
   <g id="LineCollection_1"/>
   <g id="LineCollection_2">
    <path clip-path="url(#p706160ceb0)" d="M 299.823709 307.584 
L 211.20962 267.466613 
L 116.424673 223.337487 
L 57.6 195.314116 
L 57.6 195.314116 
" style="fill:none;stroke:#00f684;stroke-width:1.5;"/>
    <path clip-path="url(#p706160ceb0)" d="M 101.072291 41.472 
L 189.68638 81.589387 
L 284.471327 125.718513 
L 343.296 153.741884 
L 343.296 153.741884 
" style="fill:none;stroke:#00f684;stroke-width:1.5;"/>
   </g>
   <g id="LineCollection_3">
    <path clip-path="url(#p706160ceb0)" d="M 261.540816 307.584 
L 136.561206 249.821279 
L 68.833181 217.988503 
L 57.6 212.671561 
L 57.6 212.671561 
" style="fill:none;stroke:#00ec89;stroke-width:1.5;"/>
    <path clip-path="url(#p706160ceb0)" d="M 139.355184 41.472 
L 264.334794 99.234721 
L 332.062819 131.067497 
L 343.296 136.384439 
L 343.296 136.384439 
" style="fill:none;stroke:#00ec89;stroke-width:1.5;"/>
   </g>
   <g id="LineCollection_4">
    <path clip-path="url(#p706160ceb0)" d="M 236.638438 307.584 
L 188.244905 285.222996 
L 162.403055 273.226136 
L 136.561206 261.189419 
L 110.719357 249.112764 
L 84.877508 236.996091 
L 59.035658 224.839322 
L 57.6 224.159728 
L 57.6 224.159728 
" style="fill:none;stroke:#00e28e;stroke-width:1.5;"/>
    <path clip-path="url(#p706160ceb0)" d="M 164.257562 41.472 
L 212.651095 63.833004 
L 238.492945 75.829864 
L 264.334794 87.866581 
L 290.176643 99.943236 
L 316.018492 112.059909 
L 341.860342 124.216678 
L 343.296 124.896272 
L 343.296 124.896272 
" style="fill:none;stroke:#00e28e;stroke-width:1.5;"/>
   </g>
   <g id="LineCollection_5">
    <path clip-path="url(#p706160ceb0)" d="M 217.569381 307.584 
L 169.581347 285.340057 
L 142.303839 272.651109 
L 57.6 233.008366 
L 57.6 233.008366 
" style="fill:none;stroke:#00d893;stroke-width:1.5;"/>
    <path clip-path="url(#p706160ceb0)" d="M 183.326619 41.472 
L 231.314653 63.715943 
L 258.592161 76.404891 
L 343.296 116.047634 
L 343.296 116.047634 
" style="fill:none;stroke:#00d893;stroke-width:1.5;"/>
   </g>
   <g id="LineCollection_6">
    <path clip-path="url(#p706160ceb0)" d="M 201.88287 307.584 
L 150.917789 283.913764 
L 120.768965 269.86408 
L 57.6 240.302521 
L 57.6 240.302521 
" style="fill:none;stroke:#00ce98;stroke-width:1.5;"/>
    <path clip-path="url(#p706160ceb0)" d="M 199.01313 41.472 
L 249.978211 65.142236 
L 280.127035 79.19192 
L 343.296 108.753479 
L 343.296 108.753479 
" style="fill:none;stroke:#00ce98;stroke-width:1.5;"/>
   </g>
   <g id="LineCollection_7">
    <path clip-path="url(#p706160ceb0)" d="M 188.438152 307.584 
L 137.996864 284.128155 
L 107.84804 270.071561 
L 57.6 246.561586 
L 57.6 246.561586 
" style="fill:none;stroke:#00c49d;stroke-width:1.5;"/>
    <path clip-path="url(#p706160ceb0)" d="M 212.457848 41.472 
L 262.899136 64.927845 
L 293.04796 78.984439 
L 343.296 102.494414 
L 343.296 102.494414 
" style="fill:none;stroke:#00c49d;stroke-width:1.5;"/>
   </g>
   <g id="LineCollection_8">
    <path clip-path="url(#p706160ceb0)" d="M 176.606155 307.584 
L 175.32398 306.984253 
L 173.888322 306.320876 
L 173.727682 306.246754 
L 172.452663 305.650237 
L 171.017005 304.986687 
L 170.849773 304.909508 
L 169.581347 304.315959 
L 168.145688 303.652239 
L 167.972426 303.572261 
L 166.71003 302.981419 
L 165.274372 302.317533 
L 165.095642 302.235015 
L 163.838714 301.646617 
L 162.403055 300.982568 
L 162.219421 300.897769 
L 160.967397 300.311553 
L 159.531739 299.647344 
L 159.343761 299.560523 
L 158.09608 298.976226 
L 156.660422 298.311862 
L 156.468663 298.223276 
L 155.224764 297.640636 
L 153.789106 296.97612 
L 153.594126 296.88603 
L 152.353447 296.304785 
L 150.917789 295.64012 
L 150.720151 295.548784 
L 149.482131 294.968671 
L 148.046472 294.303862 
L 147.846737 294.211538 
L 146.610814 293.632294 
L 145.175156 292.967344 
L 144.973883 292.874291 
L 143.739497 292.295656 
L 142.303839 291.630567 
L 142.10159 291.537045 
L 140.868181 290.958754 
L 139.432523 290.293532 
L 139.229857 290.199799 
L 137.996864 289.62159 
L 136.561206 288.956238 
L 136.358684 288.862553 
L 135.125548 288.284164 
L 133.689889 287.618684 
L 133.488071 287.525307 
L 132.254231 286.946475 
L 130.818573 286.280872 
L 130.618017 286.18806 
L 129.382915 285.608523 
L 127.947256 284.9428 
L 127.748522 284.850814 
L 126.511598 284.270309 
L 125.07594 283.60447 
L 124.879586 283.513568 
L 123.640281 282.931832 
L 122.204623 282.26588 
L 122.011209 282.176322 
L 120.768965 281.593092 
L 119.333307 280.927032 
L 119.14339 280.839075 
L 117.897648 280.254089 
L 116.46199 279.587924 
L 116.276129 279.501829 
L 115.026332 278.914824 
L 113.590673 278.248557 
L 113.409426 278.164583 
L 112.155015 277.575296 
L 110.719357 276.908931 
L 110.54328 276.827337 
L 109.283698 276.235505 
L 107.84804 275.569045 
L 107.677692 275.49009 
L 106.412382 274.895451 
L 104.976724 274.228901 
L 104.812661 274.152844 
L 103.541065 273.555135 
L 102.105407 272.888497 
L 101.948187 272.815598 
L 100.669749 272.214555 
L 99.23409 271.547833 
L 99.084269 271.478352 
L 97.798432 270.873713 
L 96.362774 270.206911 
L 96.220908 270.141106 
L 94.927116 269.532607 
L 93.491457 268.865729 
L 93.358102 268.803859 
L 92.055799 268.191239 
L 90.620141 267.524287 
L 90.495852 267.466613 
L 89.184482 266.849607 
L 87.748824 266.182586 
L 87.634158 266.129367 
L 86.313166 265.507712 
L 84.877508 264.840626 
L 84.773019 264.792121 
L 83.441849 264.165554 
L 82.006191 263.498406 
L 81.912435 263.454874 
L 80.570533 262.823133 
L 79.134874 262.155926 
L 79.052406 262.117628 
L 77.699216 261.480449 
L 76.263558 260.813187 
L 76.192931 260.780382 
L 74.827899 260.137502 
L 73.392241 259.470188 
L 73.33401 259.443136 
L 71.956583 258.794291 
L 70.520925 258.12693 
L 70.475643 258.105889 
L 69.085266 257.450817 
L 67.649608 256.783412 
L 67.61783 256.768643 
L 66.21395 256.10708 
L 64.778291 255.439634 
L 64.760571 255.431397 
L 63.342633 254.76308 
L 61.906975 254.095597 
L 61.903864 254.094151 
L 60.471317 253.418816 
L 59.047879 252.756905 
L 59.035658 252.751142 
L 57.6 252.074289 
" style="fill:none;stroke:#00bba2;stroke-width:1.5;"/>
    <path clip-path="url(#p706160ceb0)" d="M 224.289845 41.472 
L 225.57202 42.071747 
L 227.007678 42.735124 
L 227.168318 42.809246 
L 228.443337 43.405763 
L 229.878995 44.069313 
L 230.046227 44.146492 
L 231.314653 44.740041 
L 232.750312 45.403761 
L 232.923574 45.483739 
L 234.18597 46.074581 
L 235.621628 46.738467 
L 235.800358 46.820985 
L 237.057286 47.409383 
L 238.492945 48.073432 
L 238.676579 48.158231 
L 239.928603 48.744447 
L 241.364261 49.408656 
L 241.552239 49.495477 
L 242.79992 50.079774 
L 244.235578 50.744138 
L 244.427337 50.832724 
L 245.671236 51.415364 
L 247.106894 52.07988 
L 247.301874 52.16997 
L 248.542553 52.751215 
L 249.978211 53.41588 
L 250.175849 53.507216 
L 251.413869 54.087329 
L 252.849528 54.752138 
L 253.049263 54.844462 
L 254.285186 55.423706 
L 255.720844 56.088656 
L 255.922117 56.181709 
L 257.156503 56.760344 
L 258.592161 57.425433 
L 258.79441 57.518955 
L 260.027819 58.097246 
L 261.463477 58.762468 
L 261.666143 58.856201 
L 262.899136 59.43441 
L 264.334794 60.099762 
L 264.537316 60.193447 
L 265.770452 60.771836 
L 267.206111 61.437316 
L 267.407929 61.530693 
L 268.641769 62.109525 
L 270.077427 62.775128 
L 270.277983 62.86794 
L 271.513085 63.447477 
L 272.948744 64.1132 
L 273.147478 64.205186 
L 274.384402 64.785691 
L 275.82006 65.45153 
L 276.016414 65.542432 
L 277.255719 66.124168 
L 278.691377 66.79012 
L 278.884791 66.879678 
L 280.127035 67.462908 
L 281.562693 68.128968 
L 281.75261 68.216925 
L 282.998352 68.801911 
L 284.43401 69.468076 
L 284.619871 69.554171 
L 285.869668 70.141176 
L 287.305327 70.807443 
L 287.486574 70.891417 
L 288.740985 71.480704 
L 290.176643 72.147069 
L 290.35272 72.228663 
L 291.612302 72.820495 
L 293.04796 73.486955 
L 293.218308 73.56591 
L 294.483618 74.160549 
L 295.919276 74.827099 
L 296.083339 74.903156 
L 297.354935 75.500865 
L 298.790593 76.167503 
L 298.947813 76.240402 
L 300.226251 76.841445 
L 301.66191 77.508167 
L 301.811731 77.577648 
L 303.097568 78.182287 
L 304.533226 78.849089 
L 304.675092 78.914894 
L 305.968884 79.523393 
L 307.404543 80.190271 
L 307.537898 80.252141 
L 308.840201 80.864761 
L 310.275859 81.531713 
L 310.400148 81.589387 
L 311.711518 82.206393 
L 313.147176 82.873414 
L 313.261842 82.926633 
L 314.582834 83.548288 
L 316.018492 84.215374 
L 316.122981 84.263879 
L 317.454151 84.890446 
L 318.889809 85.557594 
L 318.983565 85.601126 
L 320.325467 86.232867 
L 321.761126 86.900074 
L 321.843594 86.938372 
L 323.196784 87.575551 
L 324.632442 88.242813 
L 324.703069 88.275618 
L 326.068101 88.918498 
L 327.503759 89.585812 
L 327.56199 89.612864 
L 328.939417 90.261709 
L 330.375075 90.92907 
L 330.420357 90.950111 
L 331.810734 91.605183 
L 333.246392 92.272588 
L 333.27817 92.287357 
L 334.68205 92.94892 
L 336.117709 93.616366 
L 336.135429 93.624603 
L 337.553367 94.29292 
L 338.989025 94.960403 
L 338.992136 94.961849 
L 340.424683 95.637184 
L 341.848121 96.299095 
L 341.860342 96.304858 
L 343.296 96.981711 
" style="fill:none;stroke:#00bba2;stroke-width:1.5;"/>
   </g>
   <g id="LineCollection_9">
    <path clip-path="url(#p706160ceb0)" d="M 165.99715 307.584 
L 165.274372 307.245741 
L 163.838714 306.578304 
L 163.120838 306.246754 
L 162.403055 305.910773 
L 160.967397 305.243188 
L 160.245037 304.909508 
L 159.531739 304.575566 
L 158.09608 303.907837 
L 157.369746 303.572261 
L 156.660422 303.240122 
L 155.224764 302.57225 
L 154.494966 302.235015 
L 153.789106 301.904438 
L 152.353447 301.236429 
L 151.620697 300.897769 
L 150.917789 300.568517 
L 149.482131 299.900371 
L 148.746938 299.560523 
L 148.046472 299.232356 
L 146.610814 298.564079 
L 145.873688 298.223276 
L 145.175156 297.895957 
L 143.739497 297.227551 
L 143.000949 296.88603 
L 142.303839 296.55932 
L 140.868181 295.890788 
L 140.128719 295.548784 
L 139.432523 295.222444 
L 137.996864 294.553789 
L 137.256998 294.211538 
L 136.561206 293.885329 
L 135.125548 293.216555 
L 134.385786 292.874291 
L 133.689889 292.547976 
L 132.254231 291.879085 
L 131.515083 291.537045 
L 130.818573 291.210384 
L 129.382915 290.54138 
L 128.644889 290.199799 
L 127.947256 289.872553 
L 126.511598 289.203439 
L 125.775204 288.862553 
L 125.07594 288.534484 
L 123.640281 287.865263 
L 122.906026 287.525307 
L 122.204623 287.196175 
L 120.768965 286.526851 
L 120.037357 286.18806 
L 119.333307 285.857628 
L 117.897648 285.188204 
L 117.169195 284.850814 
L 116.46199 284.518843 
L 115.026332 283.849321 
L 114.301541 283.513568 
L 113.590673 283.179818 
L 112.155015 282.510202 
L 111.434394 282.176322 
L 110.719357 281.840554 
L 109.283698 281.170847 
L 108.567755 280.839075 
L 107.84804 280.501052 
L 106.412382 279.831257 
L 105.701622 279.501829 
L 104.976724 279.161311 
L 103.541065 278.491431 
L 102.835996 278.164583 
L 102.105407 277.821331 
L 100.669749 277.151369 
L 99.970876 276.827337 
L 99.23409 276.481111 
L 97.798432 275.811072 
L 97.106263 275.49009 
L 96.362774 275.140653 
L 94.927116 274.470538 
L 94.242156 274.152844 
L 93.491457 273.799956 
L 92.055799 273.129769 
L 91.378555 272.815598 
L 90.620141 272.45902 
L 89.184482 271.788764 
L 88.515459 271.478352 
L 87.748824 271.117844 
L 86.313166 270.447523 
L 85.652869 270.141106 
L 84.877508 269.77643 
L 83.441849 269.106046 
L 82.790784 268.803859 
L 82.006191 268.434776 
L 80.570533 267.764334 
L 79.929204 267.466613 
L 79.134874 267.092884 
L 77.699216 266.422385 
L 77.068129 266.129367 
L 76.263558 265.750752 
L 74.827899 265.0802 
L 74.207558 264.792121 
L 73.392241 264.408381 
L 71.956583 263.737779 
L 71.347492 263.454874 
L 70.520925 263.065771 
L 69.085266 262.395122 
L 68.48793 262.117628 
L 67.649608 261.722921 
L 66.21395 261.052229 
L 65.628872 260.780382 
L 64.778291 260.379832 
L 63.342633 259.709101 
L 62.770317 259.443136 
L 61.906975 259.036504 
L 60.471317 258.365735 
L 59.912266 258.105889 
L 59.035658 257.692937 
L 57.6 257.022134 
" style="fill:none;stroke:#00b1a6;stroke-width:1.5;"/>
    <path clip-path="url(#p706160ceb0)" d="M 234.89885 41.472 
L 235.621628 41.810259 
L 237.057286 42.477696 
L 237.775162 42.809246 
L 238.492945 43.145227 
L 239.928603 43.812812 
L 240.650963 44.146492 
L 241.364261 44.480434 
L 242.79992 45.148163 
L 243.526254 45.483739 
L 244.235578 45.815878 
L 245.671236 46.48375 
L 246.401034 46.820985 
L 247.106894 47.151562 
L 248.542553 47.819571 
L 249.275303 48.158231 
L 249.978211 48.487483 
L 251.413869 49.155629 
L 252.149062 49.495477 
L 252.849528 49.823644 
L 254.285186 50.491921 
L 255.022312 50.832724 
L 255.720844 51.160043 
L 257.156503 51.828449 
L 257.895051 52.16997 
L 258.592161 52.49668 
L 260.027819 53.165212 
L 260.767281 53.507216 
L 261.463477 53.833556 
L 262.899136 54.502211 
L 263.639002 54.844462 
L 264.334794 55.170671 
L 265.770452 55.839445 
L 266.510214 56.181709 
L 267.206111 56.508024 
L 268.641769 57.176915 
L 269.380917 57.518955 
L 270.077427 57.845616 
L 271.513085 58.51462 
L 272.251111 58.856201 
L 272.948744 59.183447 
L 274.384402 59.852561 
L 275.120796 60.193447 
L 275.82006 60.521516 
L 277.255719 61.190737 
L 277.989974 61.530693 
L 278.691377 61.859825 
L 280.127035 62.529149 
L 280.858643 62.86794 
L 281.562693 63.198372 
L 282.998352 63.867796 
L 283.726805 64.205186 
L 284.43401 64.537157 
L 285.869668 65.206679 
L 286.594459 65.542432 
L 287.305327 65.876182 
L 288.740985 66.545798 
L 289.461606 66.879678 
L 290.176643 67.215446 
L 291.612302 67.885153 
L 292.328245 68.216925 
L 293.04796 68.554948 
L 294.483618 69.224743 
L 295.194378 69.554171 
L 295.919276 69.894689 
L 297.354935 70.564569 
L 298.060004 70.891417 
L 298.790593 71.234669 
L 300.226251 71.904631 
L 300.925124 72.228663 
L 301.66191 72.574889 
L 303.097568 73.244928 
L 303.789737 73.56591 
L 304.533226 73.915347 
L 305.968884 74.585462 
L 306.653844 74.903156 
L 307.404543 75.256044 
L 308.840201 75.926231 
L 309.517445 76.240402 
L 310.275859 76.59698 
L 311.711518 77.267236 
L 312.380541 77.577648 
L 313.147176 77.938156 
L 314.582834 78.608477 
L 315.243131 78.914894 
L 316.018492 79.27957 
L 317.454151 79.949954 
L 318.105216 80.252141 
L 318.889809 80.621224 
L 320.325467 81.291666 
L 320.966796 81.589387 
L 321.761126 81.963116 
L 323.196784 82.633615 
L 323.827871 82.926633 
L 324.632442 83.305248 
L 326.068101 83.9758 
L 326.688442 84.263879 
L 327.503759 84.647619 
L 328.939417 85.318221 
L 329.548508 85.601126 
L 330.375075 85.990229 
L 331.810734 86.660878 
L 332.40807 86.938372 
L 333.246392 87.333079 
L 334.68205 88.003771 
L 335.267128 88.275618 
L 336.117709 88.676168 
L 337.553367 89.346899 
L 338.125683 89.612864 
L 338.989025 90.019496 
L 340.424683 90.690265 
L 340.983734 90.950111 
L 341.860342 91.363063 
L 343.296 92.033866 
" style="fill:none;stroke:#00b1a6;stroke-width:1.5;"/>
   </g>
   <g id="LineCollection_10">
    <path clip-path="url(#p706160ceb0)" d="M 156.347723 307.584 
L 155.224764 307.05824 
L 153.789106 306.392816 
L 153.473102 306.246754 
L 152.353447 305.722456 
L 150.917789 305.056906 
L 150.598947 304.909508 
L 149.482131 304.386454 
L 148.046472 303.720781 
L 147.725257 303.572261 
L 146.610814 303.050235 
L 145.175156 302.384442 
L 144.852031 302.235015 
L 143.739497 301.713798 
L 142.303839 301.047887 
L 141.979271 300.897769 
L 140.868181 300.377144 
L 139.432523 299.711118 
L 139.106975 299.560523 
L 137.996864 299.040273 
L 136.561206 298.374135 
L 136.235143 298.223276 
L 135.125548 297.703184 
L 133.689889 297.036936 
L 133.363776 296.88603 
L 132.254231 296.365877 
L 130.818573 295.699523 
L 130.492873 295.548784 
L 129.382915 295.028353 
L 127.947256 294.361895 
L 127.622434 294.211538 
L 126.511598 293.690611 
L 125.07594 293.024052 
L 124.752458 292.874291 
L 123.640281 292.352651 
L 122.204623 291.685995 
L 121.882946 291.537045 
L 120.768965 291.014474 
L 119.333307 290.347722 
L 119.013897 290.199799 
L 117.897648 289.676079 
L 116.46199 289.009235 
L 116.145312 288.862553 
L 115.026332 288.337467 
L 113.590673 287.670533 
L 113.277189 287.525307 
L 112.155015 286.998637 
L 110.719357 286.331615 
L 110.40953 286.18806 
L 109.283698 285.659589 
L 107.84804 284.992483 
L 107.542332 284.850814 
L 106.412382 284.320323 
L 104.976724 283.653136 
L 104.675598 283.513568 
L 103.541065 282.980839 
L 102.105407 282.313574 
L 101.809325 282.176322 
L 100.669749 281.641138 
L 99.23409 280.973797 
L 98.943515 280.839075 
L 97.798432 280.301219 
L 96.362774 279.633805 
L 96.078167 279.501829 
L 94.927116 278.961082 
L 93.491457 278.293598 
L 93.21328 278.164583 
L 92.055799 277.620727 
L 90.620141 276.953176 
L 90.348855 276.827337 
L 89.184482 276.280154 
L 87.748824 275.612539 
L 87.484892 275.49009 
L 86.313166 274.939364 
L 84.877508 274.271686 
L 84.621389 274.152844 
L 83.441849 273.598355 
L 82.006191 272.930619 
L 81.758348 272.815598 
L 80.570533 272.257129 
L 79.134874 271.589336 
L 78.895767 271.478352 
L 77.699216 270.915684 
L 76.263558 270.247838 
L 76.033647 270.141106 
L 74.827899 269.574022 
L 73.392241 268.906125 
L 73.171988 268.803859 
L 71.956583 268.232141 
L 70.520925 267.564197 
L 70.310789 267.466613 
L 69.085266 266.890043 
L 67.649608 266.222054 
L 67.45005 266.129367 
L 66.21395 265.547726 
L 64.778291 264.879695 
L 64.58977 264.792121 
L 63.342633 264.205192 
L 61.906975 263.537121 
L 61.729951 263.454874 
L 60.471317 262.862439 
L 59.035658 262.194332 
L 58.870592 262.117628 
L 57.6 261.519468 
" style="fill:none;stroke:#00a7ac;stroke-width:1.5;"/>
    <path clip-path="url(#p706160ceb0)" d="M 244.548277 41.472 
L 245.671236 41.99776 
L 247.106894 42.663184 
L 247.422898 42.809246 
L 248.542553 43.333544 
L 249.978211 43.999094 
L 250.297053 44.146492 
L 251.413869 44.669546 
L 252.849528 45.335219 
L 253.170743 45.483739 
L 254.285186 46.005765 
L 255.720844 46.671558 
L 256.043969 46.820985 
L 257.156503 47.342202 
L 258.592161 48.008113 
L 258.916729 48.158231 
L 260.027819 48.678856 
L 261.463477 49.344882 
L 261.789025 49.495477 
L 262.899136 50.015727 
L 264.334794 50.681865 
L 264.660857 50.832724 
L 265.770452 51.352816 
L 267.206111 52.019064 
L 267.532224 52.16997 
L 268.641769 52.690123 
L 270.077427 53.356477 
L 270.403127 53.507216 
L 271.513085 54.027647 
L 272.948744 54.694105 
L 273.273566 54.844462 
L 274.384402 55.365389 
L 275.82006 56.031948 
L 276.143542 56.181709 
L 277.255719 56.703349 
L 278.691377 57.370005 
L 279.013054 57.518955 
L 280.127035 58.041526 
L 281.562693 58.708278 
L 281.882103 58.856201 
L 282.998352 59.379921 
L 284.43401 60.046765 
L 284.750688 60.193447 
L 285.869668 60.718533 
L 287.305327 61.385467 
L 287.618811 61.530693 
L 288.740985 62.057363 
L 290.176643 62.724385 
L 290.48647 62.86794 
L 291.612302 63.396411 
L 293.04796 64.063517 
L 293.353668 64.205186 
L 294.483618 64.735677 
L 295.919276 65.402864 
L 296.220402 65.542432 
L 297.354935 66.075161 
L 298.790593 66.742426 
L 299.086675 66.879678 
L 300.226251 67.414862 
L 301.66191 68.082203 
L 301.952485 68.216925 
L 303.097568 68.754781 
L 304.533226 69.422195 
L 304.817833 69.554171 
L 305.968884 70.094918 
L 307.404543 70.762402 
L 307.68272 70.891417 
L 308.840201 71.435273 
L 310.275859 72.102824 
L 310.547145 72.228663 
L 311.711518 72.775846 
L 313.147176 73.443461 
L 313.411108 73.56591 
L 314.582834 74.116636 
L 316.018492 74.784314 
L 316.274611 74.903156 
L 317.454151 75.457645 
L 318.889809 76.125381 
L 319.137652 76.240402 
L 320.325467 76.798871 
L 321.761126 77.466664 
L 322.000233 77.577648 
L 323.196784 78.140316 
L 324.632442 78.808162 
L 324.862353 78.914894 
L 326.068101 79.481978 
L 327.503759 80.149875 
L 327.724012 80.252141 
L 328.939417 80.823859 
L 330.375075 81.491803 
L 330.585211 81.589387 
L 331.810734 82.165957 
L 333.246392 82.833946 
L 333.44595 82.926633 
L 334.68205 83.508274 
L 336.117709 84.176305 
L 336.30623 84.263879 
L 337.553367 84.850808 
L 338.989025 85.518879 
L 339.166049 85.601126 
L 340.424683 86.193561 
L 341.860342 86.861668 
L 342.025408 86.938372 
L 343.296 87.536532 
" style="fill:none;stroke:#00a7ac;stroke-width:1.5;"/>
   </g>
   <g id="LineCollection_11">
    <path clip-path="url(#p706160ceb0)" d="M 147.479513 307.584 
L 146.610814 307.177166 
L 145.175156 306.509894 
L 144.6062 306.246754 
L 143.739497 305.840794 
L 142.303839 305.173411 
L 141.733318 304.909508 
L 140.868181 304.50422 
L 139.432523 303.83673 
L 138.860866 303.572261 
L 137.996864 303.167445 
L 136.561206 302.499849 
L 135.988844 302.235015 
L 135.125548 301.830469 
L 133.689889 301.16277 
L 133.117252 300.897769 
L 132.254231 300.493291 
L 130.818573 299.825492 
L 130.24609 299.560523 
L 129.382915 299.155912 
L 127.947256 298.488015 
L 127.375358 298.223276 
L 126.511598 297.818331 
L 125.07594 297.150339 
L 124.505055 296.88603 
L 123.640281 296.480549 
L 122.204623 295.812464 
L 121.635181 295.548784 
L 120.768965 295.142565 
L 119.333307 294.47439 
L 118.765737 294.211538 
L 117.897648 293.80438 
L 116.46199 293.136117 
L 115.896722 292.874291 
L 115.026332 292.465993 
L 113.590673 291.797645 
L 113.028135 291.537045 
L 112.155015 291.127405 
L 110.719357 290.458975 
L 110.159977 290.199799 
L 109.283698 289.788615 
L 107.84804 289.120105 
L 107.292248 288.862553 
L 106.412382 288.449624 
L 104.976724 287.781036 
L 104.424947 287.525307 
L 103.541065 287.110431 
L 102.105407 286.441768 
L 101.558075 286.18806 
L 100.669749 285.771036 
L 99.23409 285.102301 
L 98.69163 284.850814 
L 97.798432 284.43144 
L 96.362774 283.762634 
L 95.825614 283.513568 
L 94.927116 283.091642 
L 93.491457 282.422769 
L 92.960025 282.176322 
L 92.055799 281.751642 
L 90.620141 281.082705 
L 90.094864 280.839075 
L 89.184482 280.411441 
L 87.748824 279.742441 
L 87.230131 279.501829 
L 86.313166 279.071038 
L 84.877508 278.401978 
L 84.365824 278.164583 
L 83.441849 277.730433 
L 82.006191 277.061316 
L 81.501946 276.827337 
L 80.570533 276.389627 
L 79.134874 275.720455 
L 78.638494 275.49009 
L 77.699216 275.048619 
L 76.263558 274.379395 
L 75.775468 274.152844 
L 74.827899 273.707409 
L 73.392241 273.038135 
L 72.91287 272.815598 
L 71.956583 272.365997 
L 70.520925 271.696676 
L 70.050698 271.478352 
L 69.085266 271.024383 
L 67.649608 270.355018 
L 67.188953 270.141106 
L 66.21395 269.682568 
L 64.778291 269.01316 
L 64.327634 268.803859 
L 63.342633 268.340551 
L 61.906975 267.671104 
L 61.466741 267.466613 
L 60.471317 266.998331 
L 59.035658 266.328847 
L 58.606274 266.129367 
L 57.6 265.65591 
" style="fill:none;stroke:#009db0;stroke-width:1.5;"/>
    <path clip-path="url(#p706160ceb0)" d="M 253.416487 41.472 
L 254.285186 41.878834 
L 255.720844 42.546106 
L 256.2898 42.809246 
L 257.156503 43.215206 
L 258.592161 43.882589 
L 259.162682 44.146492 
L 260.027819 44.55178 
L 261.463477 45.21927 
L 262.035134 45.483739 
L 262.899136 45.888555 
L 264.334794 46.556151 
L 264.907156 46.820985 
L 265.770452 47.225531 
L 267.206111 47.89323 
L 267.778748 48.158231 
L 268.641769 48.562709 
L 270.077427 49.230508 
L 270.64991 49.495477 
L 271.513085 49.900088 
L 272.948744 50.567985 
L 273.520642 50.832724 
L 274.384402 51.237669 
L 275.82006 51.905661 
L 276.390945 52.16997 
L 277.255719 52.575451 
L 278.691377 53.243536 
L 279.260819 53.507216 
L 280.127035 53.913435 
L 281.562693 54.58161 
L 282.130263 54.844462 
L 282.998352 55.25162 
L 284.43401 55.919883 
L 284.999278 56.181709 
L 285.869668 56.590007 
L 287.305327 57.258355 
L 287.867865 57.518955 
L 288.740985 57.928595 
L 290.176643 58.597025 
L 290.736023 58.856201 
L 291.612302 59.267385 
L 293.04796 59.935895 
L 293.603752 60.193447 
L 294.483618 60.606376 
L 295.919276 61.274964 
L 296.471053 61.530693 
L 297.354935 61.945569 
L 298.790593 62.614232 
L 299.337925 62.86794 
L 300.226251 63.284964 
L 301.66191 63.953699 
L 302.20437 64.205186 
L 303.097568 64.62456 
L 304.533226 65.293366 
L 305.070386 65.542432 
L 305.968884 65.964358 
L 307.404543 66.633231 
L 307.935975 66.879678 
L 308.840201 67.304358 
L 310.275859 67.973295 
L 310.801136 68.216925 
L 311.711518 68.644559 
L 313.147176 69.313559 
L 313.665869 69.554171 
L 314.582834 69.984962 
L 316.018492 70.654022 
L 316.530176 70.891417 
L 317.454151 71.325567 
L 318.889809 71.994684 
L 319.394054 72.228663 
L 320.325467 72.666373 
L 321.761126 73.335545 
L 322.257506 73.56591 
L 323.196784 74.007381 
L 324.632442 74.676605 
L 325.120532 74.903156 
L 326.068101 75.348591 
L 327.503759 76.017865 
L 327.98313 76.240402 
L 328.939417 76.690003 
L 330.375075 77.359324 
L 330.845302 77.577648 
L 331.810734 78.031617 
L 333.246392 78.700982 
L 333.707047 78.914894 
L 334.68205 79.373432 
L 336.117709 80.04284 
L 336.568366 80.252141 
L 337.553367 80.715449 
L 338.989025 81.384896 
L 339.429259 81.589387 
L 340.424683 82.057669 
L 341.860342 82.727153 
L 342.289726 82.926633 
L 343.296 83.40009 
" style="fill:none;stroke:#009db0;stroke-width:1.5;"/>
   </g>
   <g id="LineCollection_12">
    <path clip-path="url(#p706160ceb0)" d="M 139.256228 307.584 
L 137.996864 306.99407 
L 136.561206 306.328767 
L 136.383974 306.246754 
L 135.125548 305.657181 
L 133.689889 304.991781 
L 133.512119 304.909508 
L 132.254231 304.320105 
L 130.818573 303.654611 
L 130.640663 303.572261 
L 129.382915 302.982842 
L 127.947256 302.317256 
L 127.769605 302.235015 
L 126.511598 301.645393 
L 125.07594 300.979717 
L 124.898946 300.897769 
L 123.640281 300.307756 
L 122.204623 299.641993 
L 122.028685 299.560523 
L 120.768965 298.969933 
L 119.333307 298.304085 
L 119.158823 298.223276 
L 117.897648 297.631923 
L 116.46199 296.965992 
L 116.289359 296.88603 
L 115.026332 296.293726 
L 113.590673 295.627714 
L 113.420293 295.548784 
L 112.155015 294.955342 
L 110.719357 294.289252 
L 110.551625 294.211538 
L 109.283698 293.616771 
L 107.84804 292.950605 
L 107.683354 292.874291 
L 106.412382 292.278013 
L 104.976724 291.611773 
L 104.815481 291.537045 
L 103.541065 290.939068 
L 102.105407 290.272757 
L 101.948006 290.199799 
L 100.669749 289.599936 
L 99.23409 288.933555 
L 99.080928 288.862553 
L 97.798432 288.260617 
L 96.362774 287.59417 
L 96.214248 287.525307 
L 94.927116 286.921111 
L 93.491457 286.254599 
L 93.347964 286.18806 
L 92.055799 285.581418 
L 90.620141 284.914844 
L 90.482077 284.850814 
L 89.184482 284.241538 
L 87.748824 283.574904 
L 87.616588 283.513568 
L 86.313166 282.901471 
L 84.877508 282.234779 
L 84.751495 282.176322 
L 83.441849 281.561216 
L 82.006191 280.894469 
L 81.886798 280.839075 
L 80.570533 280.220775 
L 79.134874 279.553975 
L 79.022498 279.501829 
L 77.699216 278.880146 
L 76.263558 278.213296 
L 76.158594 278.164583 
L 74.827899 277.539331 
L 73.392241 276.872432 
L 73.295087 276.827337 
L 71.956583 276.198328 
L 70.520925 275.531383 
L 70.431975 275.49009 
L 69.085266 274.857138 
L 67.649608 274.190149 
L 67.56926 274.152844 
L 66.21395 273.515761 
L 64.778291 272.84873 
L 64.70694 272.815598 
L 63.342633 272.174197 
L 61.906975 271.507126 
L 61.845016 271.478352 
L 60.471317 270.832445 
L 59.035658 270.165338 
L 58.983488 270.141106 
L 57.6 269.490506 
" style="fill:none;stroke:#0093b6;stroke-width:1.5;"/>
    <path clip-path="url(#p706160ceb0)" d="M 261.639772 41.472 
L 262.899136 42.06193 
L 264.334794 42.727233 
L 264.512026 42.809246 
L 265.770452 43.398819 
L 267.206111 44.064219 
L 267.383881 44.146492 
L 268.641769 44.735895 
L 270.077427 45.401389 
L 270.255337 45.483739 
L 271.513085 46.073158 
L 272.948744 46.738744 
L 273.126395 46.820985 
L 274.384402 47.410607 
L 275.82006 48.076283 
L 275.997054 48.158231 
L 277.255719 48.748244 
L 278.691377 49.414007 
L 278.867315 49.495477 
L 280.127035 50.086067 
L 281.562693 50.751915 
L 281.737177 50.832724 
L 282.998352 51.424077 
L 284.43401 52.090008 
L 284.606641 52.16997 
L 285.869668 52.762274 
L 287.305327 53.428286 
L 287.475707 53.507216 
L 288.740985 54.100658 
L 290.176643 54.766748 
L 290.344375 54.844462 
L 291.612302 55.439229 
L 293.04796 56.105395 
L 293.212646 56.181709 
L 294.483618 56.777987 
L 295.919276 57.444227 
L 296.080519 57.518955 
L 297.354935 58.116932 
L 298.790593 58.783243 
L 298.947994 58.856201 
L 300.226251 59.456064 
L 301.66191 60.122445 
L 301.815072 60.193447 
L 303.097568 60.795383 
L 304.533226 61.46183 
L 304.681752 61.530693 
L 305.968884 62.134889 
L 307.404543 62.801401 
L 307.548036 62.86794 
L 308.840201 63.474582 
L 310.275859 64.141156 
L 310.413923 64.205186 
L 311.711518 64.814462 
L 313.147176 65.481096 
L 313.279412 65.542432 
L 314.582834 66.154529 
L 316.018492 66.821221 
L 316.144505 66.879678 
L 317.454151 67.494784 
L 318.889809 68.161531 
L 319.009202 68.216925 
L 320.325467 68.835225 
L 321.761126 69.502025 
L 321.873502 69.554171 
L 323.196784 70.175854 
L 324.632442 70.842704 
L 324.737406 70.891417 
L 326.068101 71.516669 
L 327.503759 72.183568 
L 327.600913 72.228663 
L 328.939417 72.857672 
L 330.375075 73.524617 
L 330.464025 73.56591 
L 331.810734 74.198862 
L 333.246392 74.865851 
L 333.32674 74.903156 
L 334.68205 75.540239 
L 336.117709 76.20727 
L 336.18906 76.240402 
L 337.553367 76.881803 
L 338.989025 77.548874 
L 339.050984 77.577648 
L 340.424683 78.223555 
L 341.860342 78.890662 
L 341.912512 78.914894 
L 343.296 79.565494 
" style="fill:none;stroke:#0093b6;stroke-width:1.5;"/>
   </g>
   <g id="LineCollection_13">
    <path clip-path="url(#p706160ceb0)" d="M 131.58159 307.584 
L 130.818573 307.226519 
L 129.382915 306.558175 
L 128.710194 306.246754 
L 127.947256 305.889263 
L 126.511598 305.220833 
L 125.839173 304.909508 
L 125.07594 304.551832 
L 123.640281 303.883317 
L 122.968526 303.572261 
L 122.204623 303.214225 
L 120.768965 302.545628 
L 120.098255 302.235015 
L 119.333307 301.876442 
L 117.897648 301.207764 
L 117.228358 300.897769 
L 116.46199 300.538483 
L 115.026332 299.869727 
L 114.358836 299.560523 
L 113.590673 299.200349 
L 112.155015 298.531517 
L 111.489688 298.223276 
L 110.719357 297.862038 
L 109.283698 297.193132 
L 108.620915 296.88603 
L 107.84804 296.523552 
L 106.412382 295.854574 
L 105.752515 295.548784 
L 104.976724 295.18489 
L 103.541065 294.515842 
L 102.88449 294.211538 
L 102.105407 293.846052 
L 100.669749 293.176936 
L 100.016839 292.874291 
L 99.23409 292.507038 
L 97.798432 291.837857 
L 97.149562 291.537045 
L 96.362774 291.167849 
L 94.927116 290.498604 
L 94.282659 290.199799 
L 93.491457 289.828483 
L 92.055799 289.159177 
L 91.416129 288.862553 
L 90.620141 288.488941 
L 89.184482 287.819576 
L 88.549973 287.525307 
L 87.748824 287.149224 
L 86.313166 286.479801 
L 85.68419 286.18806 
L 84.877508 285.809331 
L 83.441849 285.139853 
L 82.81878 284.850814 
L 82.006191 284.469261 
L 80.570533 283.799731 
L 79.953744 283.513568 
L 79.134874 283.129016 
L 77.699216 282.459434 
L 77.089081 282.176322 
L 76.263558 281.788595 
L 74.827899 281.118964 
L 74.22479 280.839075 
L 73.392241 280.447997 
L 71.956583 279.77832 
L 71.360873 279.501829 
L 70.520925 279.107224 
L 69.085266 278.437502 
L 68.497328 278.164583 
L 67.649608 277.766274 
L 66.21395 277.096511 
L 65.634156 276.827337 
L 64.778291 276.425149 
L 63.342633 275.755345 
L 62.771356 275.49009 
L 61.906975 275.083847 
L 60.471317 274.414005 
L 59.908929 274.152844 
L 59.035658 273.74237 
L 57.6 273.072492 
" style="fill:none;stroke:#0089bb;stroke-width:1.5;"/>
    <path clip-path="url(#p706160ceb0)" d="M 269.31441 41.472 
L 270.077427 41.829481 
L 271.513085 42.497825 
L 272.185806 42.809246 
L 272.948744 43.166737 
L 274.384402 43.835167 
L 275.056827 44.146492 
L 275.82006 44.504168 
L 277.255719 45.172683 
L 277.927474 45.483739 
L 278.691377 45.841775 
L 280.127035 46.510372 
L 280.797745 46.820985 
L 281.562693 47.179558 
L 282.998352 47.848236 
L 283.667642 48.158231 
L 284.43401 48.517517 
L 285.869668 49.186273 
L 286.537164 49.495477 
L 287.305327 49.855651 
L 288.740985 50.524483 
L 289.406312 50.832724 
L 290.176643 51.193962 
L 291.612302 51.862868 
L 292.275085 52.16997 
L 293.04796 52.532448 
L 294.483618 53.201426 
L 295.143485 53.507216 
L 295.919276 53.87111 
L 297.354935 54.540158 
L 298.01151 54.844462 
L 298.790593 55.209948 
L 300.226251 55.879064 
L 300.879161 56.181709 
L 301.66191 56.548962 
L 303.097568 57.218143 
L 303.746438 57.518955 
L 304.533226 57.888151 
L 305.968884 58.557396 
L 306.613341 58.856201 
L 307.404543 59.227517 
L 308.840201 59.896823 
L 309.479871 60.193447 
L 310.275859 60.567059 
L 311.711518 61.236424 
L 312.346027 61.530693 
L 313.147176 61.906776 
L 314.582834 62.576199 
L 315.21181 62.86794 
L 316.018492 63.246669 
L 317.454151 63.916147 
L 318.07722 64.205186 
L 318.889809 64.586739 
L 320.325467 65.256269 
L 320.942256 65.542432 
L 321.761126 65.926984 
L 323.196784 66.596566 
L 323.806919 66.879678 
L 324.632442 67.267405 
L 326.068101 67.937036 
L 326.67121 68.216925 
L 327.503759 68.608003 
L 328.939417 69.27768 
L 329.535127 69.554171 
L 330.375075 69.948776 
L 331.810734 70.618498 
L 332.398672 70.891417 
L 333.246392 71.289726 
L 334.68205 71.959489 
L 335.261844 72.228663 
L 336.117709 72.630851 
L 337.553367 73.300655 
L 338.124644 73.56591 
L 338.989025 73.972153 
L 340.424683 74.641995 
L 340.987071 74.903156 
L 341.860342 75.31363 
L 343.296 75.983508 
" style="fill:none;stroke:#0089bb;stroke-width:1.5;"/>
   </g>
   <g id="LineCollection_14">
    <path clip-path="url(#p706160ceb0)" d="M 124.373989 307.584 
L 123.640281 307.240206 
L 122.204623 306.571531 
L 121.503306 306.246754 
L 120.768965 305.90262 
L 119.333307 305.233868 
L 118.632977 304.909508 
L 117.897648 304.564869 
L 116.46199 303.896041 
L 115.763 303.572261 
L 115.026332 303.226952 
L 113.590673 302.55805 
L 112.893377 302.235015 
L 112.155015 301.888869 
L 110.719357 301.219896 
L 110.024106 300.897769 
L 109.283698 300.550621 
L 107.84804 299.881578 
L 107.155188 299.560523 
L 106.412382 299.212208 
L 104.976724 298.543096 
L 104.286622 298.223276 
L 103.541065 297.873628 
L 102.105407 297.204451 
L 101.418409 296.88603 
L 100.669749 296.534884 
L 99.23409 295.865642 
L 98.550548 295.548784 
L 97.798432 295.195973 
L 96.362774 294.526669 
L 95.683039 294.211538 
L 94.927116 293.856897 
L 93.491457 293.187532 
L 92.815883 292.874291 
L 92.055799 292.517655 
L 90.620141 291.848232 
L 89.949078 291.537045 
L 89.184482 291.178248 
L 87.748824 290.508769 
L 87.082625 290.199799 
L 86.313166 289.838675 
L 84.877508 289.169141 
L 84.216524 288.862553 
L 83.441849 288.498936 
L 82.006191 287.82935 
L 81.350775 287.525307 
L 80.570533 287.159031 
L 79.134874 286.489395 
L 78.485377 286.18806 
L 77.699216 285.818961 
L 76.263558 285.149276 
L 75.620331 284.850814 
L 74.827899 284.478725 
L 73.392241 283.808994 
L 72.755637 283.513568 
L 71.956583 283.138324 
L 70.520925 282.468547 
L 69.891293 282.176322 
L 69.085266 281.797756 
L 67.649608 281.127937 
L 67.027301 280.839075 
L 66.21395 280.457023 
L 64.778291 279.787163 
L 64.163659 279.501829 
L 63.342633 279.116124 
L 61.906975 278.446225 
L 61.300369 278.164583 
L 60.471317 277.775059 
L 59.035658 277.105124 
L 58.43743 276.827337 
L 57.6 276.433829 
" style="fill:none;stroke:#007fc0;stroke-width:1.5;"/>
    <path clip-path="url(#p706160ceb0)" d="M 276.522011 41.472 
L 277.255719 41.815794 
L 278.691377 42.484469 
L 279.392694 42.809246 
L 280.127035 43.15338 
L 281.562693 43.822132 
L 282.263023 44.146492 
L 282.998352 44.491131 
L 284.43401 45.159959 
L 285.133 45.483739 
L 285.869668 45.829048 
L 287.305327 46.49795 
L 288.002623 46.820985 
L 288.740985 47.167131 
L 290.176643 47.836104 
L 290.871894 48.158231 
L 291.612302 48.505379 
L 293.04796 49.174422 
L 293.740812 49.495477 
L 294.483618 49.843792 
L 295.919276 50.512904 
L 296.609378 50.832724 
L 297.354935 51.182372 
L 298.790593 51.851549 
L 299.477591 52.16997 
L 300.226251 52.521116 
L 301.66191 53.190358 
L 302.345452 53.507216 
L 303.097568 53.860027 
L 304.533226 54.529331 
L 305.212961 54.844462 
L 305.968884 55.199103 
L 307.404543 55.868468 
L 308.080117 56.181709 
L 308.840201 56.538345 
L 310.275859 57.207768 
L 310.946922 57.518955 
L 311.711518 57.877752 
L 313.147176 58.547231 
L 313.813375 58.856201 
L 314.582834 59.217325 
L 316.018492 59.886859 
L 316.679476 60.193447 
L 317.454151 60.557064 
L 318.889809 61.22665 
L 319.545225 61.530693 
L 320.325467 61.896969 
L 321.761126 62.566605 
L 322.410623 62.86794 
L 323.196784 63.237039 
L 324.632442 63.906724 
L 325.275669 64.205186 
L 326.068101 64.577275 
L 327.503759 65.247006 
L 328.140363 65.542432 
L 328.939417 65.917676 
L 330.375075 66.587453 
L 331.004707 66.879678 
L 331.810734 67.258244 
L 333.246392 67.928063 
L 333.868699 68.216925 
L 334.68205 68.598977 
L 336.117709 69.268837 
L 336.732341 69.554171 
L 337.553367 69.939876 
L 338.989025 70.609775 
L 339.595631 70.891417 
L 340.424683 71.280941 
L 341.860342 71.950876 
L 342.45857 72.228663 
L 343.296 72.622171 
" style="fill:none;stroke:#007fc0;stroke-width:1.5;"/>
   </g>
   <g id="LineCollection_15">
    <path clip-path="url(#p706160ceb0)" d="M 117.572286 307.584 
L 116.46199 307.06369 
L 115.026332 306.396909 
L 114.702198 306.246754 
L 113.590673 305.725808 
L 112.155015 305.058956 
L 111.832444 304.909508 
L 110.719357 304.387769 
L 109.283698 303.720849 
L 108.963021 303.572261 
L 107.84804 303.049574 
L 106.412382 302.382588 
L 106.093932 302.235015 
L 104.976724 301.711223 
L 103.541065 301.044173 
L 103.225175 300.897769 
L 102.105407 300.372716 
L 100.669749 299.705603 
L 100.35675 299.560523 
L 99.23409 299.034053 
L 97.798432 298.366879 
L 97.488657 298.223276 
L 96.362774 297.695233 
L 94.927116 297.028001 
L 94.620897 296.88603 
L 93.491457 296.356258 
L 92.055799 295.688968 
L 91.753469 295.548784 
L 90.620141 295.017126 
L 89.184482 294.349781 
L 88.886372 294.211538 
L 87.748824 293.677838 
L 86.313166 293.01044 
L 86.019608 292.874291 
L 84.877508 292.338394 
L 83.441849 291.670944 
L 83.153176 291.537045 
L 82.006191 290.998793 
L 80.570533 290.331293 
L 80.287075 290.199799 
L 79.134874 289.659037 
L 77.699216 288.991489 
L 77.421306 288.862553 
L 76.263558 288.319124 
L 74.827899 287.65153 
L 74.555868 287.525307 
L 73.392241 286.979055 
L 71.956583 286.311416 
L 71.690762 286.18806 
L 70.520925 285.638829 
L 69.085266 284.971148 
L 68.825987 284.850814 
L 67.649608 284.298448 
L 66.21395 283.630725 
L 65.961544 283.513568 
L 64.778291 282.95791 
L 63.342633 282.290148 
L 63.097431 282.176322 
L 61.906975 281.617216 
L 60.471317 280.949417 
L 60.23365 280.839075 
L 59.035658 280.276365 
L 57.6 279.608531 
" style="fill:none;stroke:#0076c4;stroke-width:1.5;"/>
    <path clip-path="url(#p706160ceb0)" d="M 283.323714 41.472 
L 284.43401 41.99231 
L 285.869668 42.659091 
L 286.193802 42.809246 
L 287.305327 43.330192 
L 288.740985 43.997044 
L 289.063556 44.146492 
L 290.176643 44.668231 
L 291.612302 45.335151 
L 291.932979 45.483739 
L 293.04796 46.006426 
L 294.483618 46.673412 
L 294.802068 46.820985 
L 295.919276 47.344777 
L 297.354935 48.011827 
L 297.670825 48.158231 
L 298.790593 48.683284 
L 300.226251 49.350397 
L 300.53925 49.495477 
L 301.66191 50.021947 
L 303.097568 50.689121 
L 303.407343 50.832724 
L 304.533226 51.360767 
L 305.968884 52.027999 
L 306.275103 52.16997 
L 307.404543 52.699742 
L 308.840201 53.367032 
L 309.142531 53.507216 
L 310.275859 54.038874 
L 311.711518 54.706219 
L 312.009628 54.844462 
L 313.147176 55.378162 
L 314.582834 56.04556 
L 314.876392 56.181709 
L 316.018492 56.717606 
L 317.454151 57.385056 
L 317.742824 57.518955 
L 318.889809 58.057207 
L 320.325467 58.724707 
L 320.608925 58.856201 
L 321.761126 59.396963 
L 323.196784 60.064511 
L 323.474694 60.193447 
L 324.632442 60.736876 
L 326.068101 61.40447 
L 326.340132 61.530693 
L 327.503759 62.076945 
L 328.939417 62.744584 
L 329.205238 62.86794 
L 330.375075 63.417171 
L 331.810734 64.084852 
L 332.070013 64.205186 
L 333.246392 64.757552 
L 334.68205 65.425275 
L 334.934456 65.542432 
L 336.117709 66.09809 
L 337.553367 66.765852 
L 337.798569 66.879678 
L 338.989025 67.438784 
L 340.424683 68.106583 
L 340.66235 68.216925 
L 341.860342 68.779635 
L 343.296 69.447469 
" style="fill:none;stroke:#0076c4;stroke-width:1.5;"/>
   </g>
   <g id="LineCollection_16">
    <path clip-path="url(#p706160ceb0)" d="M 111.128136 307.584 
L 110.719357 307.392423 
L 109.283698 306.721763 
L 108.258564 306.246754 
L 107.84804 306.054338 
L 106.412382 305.383614 
L 105.389309 304.909508 
L 104.976724 304.716104 
L 103.541065 304.045317 
L 102.520372 303.572261 
L 102.105407 303.377721 
L 100.669749 302.706873 
L 99.651752 302.235015 
L 99.23409 302.039189 
L 97.798432 301.368282 
L 96.78345 300.897769 
L 96.362774 300.700507 
L 94.927116 300.029543 
L 93.915465 299.560523 
L 93.491457 299.361677 
L 92.055799 298.690657 
L 91.047797 298.223276 
L 90.620141 298.022697 
L 89.184482 297.351624 
L 88.180446 296.88603 
L 87.748824 296.683569 
L 86.313166 296.012443 
L 85.313412 295.548784 
L 84.877508 295.344291 
L 83.441849 294.673114 
L 82.446695 294.211538 
L 82.006191 294.004864 
L 80.570533 293.333639 
L 79.580295 292.874291 
L 79.134874 292.665288 
L 77.699216 291.994015 
L 76.714211 291.537045 
L 76.263558 291.325563 
L 74.827899 290.654245 
L 73.848445 290.199799 
L 73.392241 289.985688 
L 71.956583 289.314326 
L 70.982994 288.862553 
L 70.520925 288.645665 
L 69.085266 287.974261 
L 68.117861 287.525307 
L 67.649608 287.305492 
L 66.21395 286.634048 
L 65.253044 286.18806 
L 64.778291 285.96517 
L 63.342633 285.293687 
L 62.388543 284.850814 
L 61.906975 284.624699 
L 60.471317 283.953179 
L 59.524358 283.513568 
L 59.035658 283.284078 
L 57.6 282.612523 
" style="fill:none;stroke:#006cc9;stroke-width:1.5;"/>
    <path clip-path="url(#p706160ceb0)" d="M 289.767864 41.472 
L 290.176643 41.663577 
L 291.612302 42.334237 
L 292.637436 42.809246 
L 293.04796 43.001662 
L 294.483618 43.672386 
L 295.506691 44.146492 
L 295.919276 44.339896 
L 297.354935 45.010683 
L 298.375628 45.483739 
L 298.790593 45.678279 
L 300.226251 46.349127 
L 301.244248 46.820985 
L 301.66191 47.016811 
L 303.097568 47.687718 
L 304.11255 48.158231 
L 304.533226 48.355493 
L 305.968884 49.026457 
L 306.980535 49.495477 
L 307.404543 49.694323 
L 308.840201 50.365343 
L 309.848203 50.832724 
L 310.275859 51.033303 
L 311.711518 51.704376 
L 312.715554 52.16997 
L 313.147176 52.372431 
L 314.582834 53.043557 
L 315.582588 53.507216 
L 316.018492 53.711709 
L 317.454151 54.382886 
L 318.449305 54.844462 
L 318.889809 55.051136 
L 320.325467 55.722361 
L 321.315705 56.181709 
L 321.761126 56.390712 
L 323.196784 57.061985 
L 324.181789 57.518955 
L 324.632442 57.730437 
L 326.068101 58.401755 
L 327.047555 58.856201 
L 327.503759 59.070312 
L 328.939417 59.741674 
L 329.913006 60.193447 
L 330.375075 60.410335 
L 331.810734 61.081739 
L 332.778139 61.530693 
L 333.246392 61.750508 
L 334.68205 62.421952 
L 335.642956 62.86794 
L 336.117709 63.09083 
L 337.553367 63.762313 
L 338.507457 64.205186 
L 338.989025 64.431301 
L 340.424683 65.102821 
L 341.371642 65.542432 
L 341.860342 65.771922 
L 343.296 66.443477 
" style="fill:none;stroke:#006cc9;stroke-width:1.5;"/>
   </g>
   <g id="LineCollection_17">
    <path clip-path="url(#p706160ceb0)" d="M 104.998053 307.584 
L 104.976724 307.574003 
L 103.541065 306.901237 
L 102.128922 306.246754 
L 102.105407 306.235732 
L 100.669749 305.562906 
L 99.260094 304.909508 
L 99.23409 304.897318 
L 97.798432 304.224435 
L 96.391569 303.572261 
L 96.362774 303.558761 
L 94.927116 302.885822 
L 93.523348 302.235015 
L 93.491457 302.220062 
L 92.055799 301.547069 
L 90.65543 300.897769 
L 90.620141 300.881221 
L 89.184482 300.208175 
L 87.787815 299.560523 
L 87.748824 299.542237 
L 86.313166 298.86914 
L 84.920503 298.223276 
L 84.877508 298.20311 
L 83.441849 297.529965 
L 82.053493 296.88603 
L 82.006191 296.863842 
L 80.570533 296.190648 
L 79.186787 295.548784 
L 79.134874 295.52443 
L 77.699216 294.85119 
L 76.320383 294.211538 
L 76.263558 294.184876 
L 74.827899 293.511592 
L 73.454282 292.874291 
L 73.392241 292.84518 
L 71.956583 292.171852 
L 70.588484 291.537045 
L 70.520925 291.505341 
L 69.085266 290.831972 
L 67.722988 290.199799 
L 67.649608 290.16536 
L 66.21395 289.491951 
L 64.857795 288.862553 
L 64.778291 288.825236 
L 63.342633 288.151789 
L 61.992904 287.525307 
L 61.906975 287.484969 
L 60.471317 286.811486 
L 59.128315 286.18806 
L 59.035658 286.14456 
L 57.6 285.471041 
" style="fill:none;stroke:#0062ce;stroke-width:1.5;"/>
    <path clip-path="url(#p706160ceb0)" d="M 295.897947 41.472 
L 295.919276 41.481997 
L 297.354935 42.154763 
L 298.767078 42.809246 
L 298.790593 42.820268 
L 300.226251 43.493094 
L 301.635906 44.146492 
L 301.66191 44.158682 
L 303.097568 44.831565 
L 304.504431 45.483739 
L 304.533226 45.497239 
L 305.968884 46.170178 
L 307.372652 46.820985 
L 307.404543 46.835938 
L 308.840201 47.508931 
L 310.24057 48.158231 
L 310.275859 48.174779 
L 311.711518 48.847825 
L 313.108185 49.495477 
L 313.147176 49.513763 
L 314.582834 50.18686 
L 315.975497 50.832724 
L 316.018492 50.85289 
L 317.454151 51.526035 
L 318.842507 52.16997 
L 318.889809 52.192158 
L 320.325467 52.865352 
L 321.709213 53.507216 
L 321.761126 53.53157 
L 323.196784 54.20481 
L 324.575617 54.844462 
L 324.632442 54.871124 
L 326.068101 55.544408 
L 327.441718 56.181709 
L 327.503759 56.21082 
L 328.939417 56.884148 
L 330.307516 57.518955 
L 330.375075 57.550659 
L 331.810734 58.224028 
L 333.173012 58.856201 
L 333.246392 58.89064 
L 334.68205 59.564049 
L 336.038205 60.193447 
L 336.117709 60.230764 
L 337.553367 60.904211 
L 338.903096 61.530693 
L 338.989025 61.571031 
L 340.424683 62.244514 
L 341.767685 62.86794 
L 341.860342 62.91144 
L 343.296 63.584959 
" style="fill:none;stroke:#0062ce;stroke-width:1.5;"/>
   </g>
   <g id="LineCollection_18">
    <path clip-path="url(#p706160ceb0)" d="M 99.151722 307.584 
L 97.798432 306.949698 
L 96.362774 306.283764 
L 96.28294 306.246754 
L 94.927116 305.6112 
L 93.491457 304.945214 
L 93.414444 304.909508 
L 92.055799 304.272568 
L 90.620141 303.60653 
L 90.546235 303.572261 
L 89.184482 302.933801 
L 87.748824 302.267713 
L 87.678313 302.235015 
L 86.313166 301.594899 
L 84.877508 300.928763 
L 84.810677 300.897769 
L 83.441849 300.255862 
L 82.006191 299.58968 
L 81.943328 299.560523 
L 80.570533 298.916691 
L 79.134874 298.250463 
L 79.076265 298.223276 
L 77.699216 297.577385 
L 76.263558 296.911113 
L 76.209489 296.88603 
L 74.827899 296.237945 
L 73.392241 295.57163 
L 73.342999 295.548784 
L 71.956583 294.898369 
L 70.520925 294.232014 
L 70.476795 294.211538 
L 69.085266 293.558659 
L 67.649608 292.892264 
L 67.610877 292.874291 
L 66.21395 292.218814 
L 64.778291 291.552382 
L 64.745246 291.537045 
L 63.342633 290.878834 
L 61.906975 290.212365 
L 61.8799 290.199799 
L 60.471317 289.53872 
L 59.035658 288.872216 
L 59.014841 288.862553 
L 57.6 288.198471 
" style="fill:none;stroke:#0058d3;stroke-width:1.5;"/>
    <path clip-path="url(#p706160ceb0)" d="M 301.744278 41.472 
L 303.097568 42.106302 
L 304.533226 42.772236 
L 304.61306 42.809246 
L 305.968884 43.4448 
L 307.404543 44.110786 
L 307.481556 44.146492 
L 308.840201 44.783432 
L 310.275859 45.44947 
L 310.349765 45.483739 
L 311.711518 46.122199 
L 313.147176 46.788287 
L 313.217687 46.820985 
L 314.582834 47.461101 
L 316.018492 48.127237 
L 316.085323 48.158231 
L 317.454151 48.800138 
L 318.889809 49.46632 
L 318.952672 49.495477 
L 320.325467 50.139309 
L 321.761126 50.805537 
L 321.819735 50.832724 
L 323.196784 51.478615 
L 324.632442 52.144887 
L 324.686511 52.16997 
L 326.068101 52.818055 
L 327.503759 53.48437 
L 327.553001 53.507216 
L 328.939417 54.157631 
L 330.375075 54.823986 
L 330.419205 54.844462 
L 331.810734 55.497341 
L 333.246392 56.163736 
L 333.285123 56.181709 
L 334.68205 56.837186 
L 336.117709 57.503618 
L 336.150754 57.518955 
L 337.553367 58.177166 
L 338.989025 58.843635 
L 339.0161 58.856201 
L 340.424683 59.51728 
L 341.860342 60.183784 
L 341.881159 60.193447 
L 343.296 60.857529 
" style="fill:none;stroke:#0058d3;stroke-width:1.5;"/>
   </g>
   <g id="LineCollection_19">
    <path clip-path="url(#p706160ceb0)" d="M 93.558333 307.584 
L 93.491457 307.552654 
L 92.055799 306.880061 
L 90.689901 306.246754 
L 90.620141 306.214052 
L 89.184482 305.54141 
L 87.821747 304.909508 
L 87.748824 304.87532 
L 86.313166 304.20263 
L 84.95387 303.572261 
L 84.877508 303.536458 
L 83.441849 302.863721 
L 82.08627 302.235015 
L 82.006191 302.197466 
L 80.570533 301.524683 
L 79.218947 300.897769 
L 79.134874 300.858343 
L 77.699216 300.185516 
L 76.351901 299.560523 
L 76.263558 299.51909 
L 74.827899 298.84622 
L 73.485133 298.223276 
L 73.392241 298.179706 
L 71.956583 297.506795 
L 70.618641 296.88603 
L 70.520925 296.840192 
L 69.085266 296.167242 
L 67.752427 295.548784 
L 67.649608 295.500548 
L 66.21395 294.827559 
L 64.886489 294.211538 
L 64.778291 294.160774 
L 63.342633 293.487748 
L 62.020828 292.874291 
L 61.906975 292.820869 
L 60.471317 292.147807 
L 59.155444 291.537045 
L 59.035658 291.480833 
L 57.6 290.807738 
" style="fill:none;stroke:#004ed8;stroke-width:1.5;"/>
    <path clip-path="url(#p706160ceb0)" d="M 307.337667 41.472 
L 307.404543 41.503346 
L 308.840201 42.175939 
L 310.206099 42.809246 
L 310.275859 42.841948 
L 311.711518 43.51459 
L 313.074253 44.146492 
L 313.147176 44.18068 
L 314.582834 44.85337 
L 315.94213 45.483739 
L 316.018492 45.519542 
L 317.454151 46.192279 
L 318.80973 46.820985 
L 318.889809 46.858534 
L 320.325467 47.531317 
L 321.677053 48.158231 
L 321.761126 48.197657 
L 323.196784 48.870484 
L 324.544099 49.495477 
L 324.632442 49.53691 
L 326.068101 50.20978 
L 327.410867 50.832724 
L 327.503759 50.876294 
L 328.939417 51.549205 
L 330.277359 52.16997 
L 330.375075 52.215808 
L 331.810734 52.888758 
L 333.143573 53.507216 
L 333.246392 53.555452 
L 334.68205 54.228441 
L 336.009511 54.844462 
L 336.117709 54.895226 
L 337.553367 55.568252 
L 338.875172 56.181709 
L 338.989025 56.235131 
L 340.424683 56.908193 
L 341.740556 57.518955 
L 341.860342 57.575167 
L 343.296 58.248262 
" style="fill:none;stroke:#004ed8;stroke-width:1.5;"/>
   </g>
   <g id="LineCollection_20">
    <path clip-path="url(#p706160ceb0)" d="M 88.195438 307.584 
L 87.748824 307.374655 
L 86.313166 306.70395 
L 85.327281 306.246754 
L 84.877508 306.035908 
L 83.441849 305.365157 
L 82.459389 304.909508 
L 82.006191 304.697037 
L 80.570533 304.026242 
L 79.591762 303.572261 
L 79.134874 303.358041 
L 77.699216 302.687203 
L 76.724401 302.235015 
L 76.263558 302.01892 
L 74.827899 301.34804 
L 73.857305 300.897769 
L 73.392241 300.679674 
L 71.956583 300.008754 
L 70.990475 299.560523 
L 70.520925 299.340304 
L 69.085266 298.669345 
L 68.12391 298.223276 
L 67.649608 298.000809 
L 66.21395 297.329812 
L 65.25761 296.88603 
L 64.778291 296.661188 
L 63.342633 295.990156 
L 62.391575 295.548784 
L 61.906975 295.321444 
L 60.471317 294.650376 
L 59.525805 294.211538 
L 59.035658 293.981574 
L 57.6 293.310473 
" style="fill:none;stroke:#0044dd;stroke-width:1.5;"/>
    <path clip-path="url(#p706160ceb0)" d="M 312.700562 41.472 
L 313.147176 41.681345 
L 314.582834 42.35205 
L 315.568719 42.809246 
L 316.018492 43.020092 
L 317.454151 43.690843 
L 318.436611 44.146492 
L 318.889809 44.358963 
L 320.325467 45.029758 
L 321.304238 45.483739 
L 321.761126 45.697959 
L 323.196784 46.368797 
L 324.171599 46.820985 
L 324.632442 47.03708 
L 326.068101 47.70796 
L 327.038695 48.158231 
L 327.503759 48.376326 
L 328.939417 49.047246 
L 329.905525 49.495477 
L 330.375075 49.715696 
L 331.810734 50.386655 
L 332.77209 50.832724 
L 333.246392 51.055191 
L 334.68205 51.726188 
L 335.63839 52.16997 
L 336.117709 52.394812 
L 337.553367 53.065844 
L 338.504425 53.507216 
L 338.989025 53.734556 
L 340.424683 54.405624 
L 341.370195 54.844462 
L 341.860342 55.074426 
L 343.296 55.745527 
" style="fill:none;stroke:#0044dd;stroke-width:1.5;"/>
   </g>
   <g id="LineCollection_21">
    <path clip-path="url(#p706160ceb0)" d="M 83.039428 307.584 
L 82.006191 307.099672 
L 80.570533 306.431832 
L 80.171503 306.246754 
L 79.134874 305.760792 
L 77.699216 305.09291 
L 77.303834 304.909508 
L 76.263558 304.421793 
L 74.827899 303.753871 
L 74.436418 303.572261 
L 73.392241 303.082674 
L 71.956583 302.414713 
L 71.569256 302.235015 
L 70.520925 301.743436 
L 69.085266 301.075437 
L 68.702349 300.897769 
L 67.649608 300.404079 
L 66.21395 299.736042 
L 65.835696 299.560523 
L 64.778291 299.064601 
L 63.342633 298.39653 
L 62.969297 298.223276 
L 61.906975 297.725005 
L 60.471317 297.056899 
L 60.103152 296.88603 
L 59.035658 296.385288 
L 57.6 295.717149 
" style="fill:none;stroke:#003be2;stroke-width:1.5;"/>
    <path clip-path="url(#p706160ceb0)" d="M 317.856572 41.472 
L 318.889809 41.956328 
L 320.325467 42.624168 
L 320.724497 42.809246 
L 321.761126 43.295208 
L 323.196784 43.96309 
L 323.592166 44.146492 
L 324.632442 44.634207 
L 326.068101 45.302129 
L 326.459582 45.483739 
L 327.503759 45.973326 
L 328.939417 46.641287 
L 329.326744 46.820985 
L 330.375075 47.312564 
L 331.810734 47.980563 
L 332.193651 48.158231 
L 333.246392 48.651921 
L 334.68205 49.319958 
L 335.060304 49.495477 
L 336.117709 49.991399 
L 337.553367 50.65947 
L 337.926703 50.832724 
L 338.989025 51.330995 
L 340.424683 51.999101 
L 340.792848 52.16997 
L 341.860342 52.670712 
L 343.296 53.338851 
" style="fill:none;stroke:#003be2;stroke-width:1.5;"/>
   </g>
   <g id="LineCollection_22">
    <path clip-path="url(#p706160ceb0)" d="M 78.07379 307.584 
L 77.699216 307.408417 
L 76.263558 306.737283 
L 75.206101 306.246754 
L 74.827899 306.069455 
L 73.392241 305.398282 
L 72.338658 304.909508 
L 71.956583 304.730377 
L 70.520925 304.059166 
L 69.471462 303.572261 
L 69.085266 303.391184 
L 67.649608 302.719936 
L 66.604512 302.235015 
L 66.21395 302.051875 
L 64.778291 301.380591 
L 63.737808 300.897769 
L 63.342633 300.712449 
L 61.906975 300.041131 
L 60.87135 299.560523 
L 60.471317 299.372909 
L 59.035658 298.701557 
L 58.005138 298.223276 
L 57.6 298.033252 
" style="fill:none;stroke:#0031e6;stroke-width:1.5;"/>
    <path clip-path="url(#p706160ceb0)" d="M 322.82221 41.472 
L 323.196784 41.647583 
L 324.632442 42.318717 
L 325.689899 42.809246 
L 326.068101 42.986545 
L 327.503759 43.657718 
L 328.557342 44.146492 
L 328.939417 44.325623 
L 330.375075 44.996834 
L 331.424538 45.483739 
L 331.810734 45.664816 
L 333.246392 46.336064 
L 334.291488 46.820985 
L 334.68205 47.004125 
L 336.117709 47.675409 
L 337.158192 48.158231 
L 337.553367 48.343551 
L 338.989025 49.014869 
L 340.02465 49.495477 
L 340.424683 49.683091 
L 341.860342 50.354443 
L 342.890862 50.832724 
L 343.296 51.022748 
" style="fill:none;stroke:#0031e6;stroke-width:1.5;"/>
   </g>
   <g id="LineCollection_23">
    <path clip-path="url(#p706160ceb0)" d="M 73.282019 307.584 
L 71.956583 306.962691 
L 70.520925 306.296131 
L 70.414497 306.246754 
L 69.085266 305.623614 
L 67.649608 304.957018 
L 67.547211 304.909508 
L 66.21395 304.284427 
L 64.778291 303.617796 
L 64.680162 303.572261 
L 63.342633 302.945128 
L 61.906975 302.278463 
L 61.813349 302.235015 
L 60.471317 301.605718 
L 59.035658 300.939021 
L 58.946772 300.897769 
L 57.6 300.266198 
" style="fill:none;stroke:#0027ec;stroke-width:1.5;"/>
    <path clip-path="url(#p706160ceb0)" d="M 327.613981 41.472 
L 328.939417 42.093309 
L 330.375075 42.759869 
L 330.481503 42.809246 
L 331.810734 43.432386 
L 333.246392 44.098982 
L 333.348789 44.146492 
L 334.68205 44.771573 
L 336.117709 45.438204 
L 336.215838 45.483739 
L 337.553367 46.110872 
L 338.989025 46.777537 
L 339.082651 46.820985 
L 340.424683 47.450282 
L 341.860342 48.116979 
L 341.949228 48.158231 
L 343.296 48.789802 
" style="fill:none;stroke:#0027ec;stroke-width:1.5;"/>
   </g>
   <g id="LineCollection_24">
    <path clip-path="url(#p706160ceb0)" d="M 68.653192 307.584 
L 67.649608 307.11356 
L 66.21395 306.44539 
L 65.785851 306.246754 
L 64.778291 305.774413 
L 63.342633 305.106209 
L 62.918738 304.909508 
L 61.906975 304.435158 
L 60.471317 303.766922 
L 60.051854 303.572261 
L 59.035658 303.095795 
L 57.6 302.427528 
" style="fill:none;stroke:#001df0;stroke-width:1.5;"/>
    <path clip-path="url(#p706160ceb0)" d="M 332.242808 41.472 
L 333.246392 41.94244 
L 334.68205 42.61061 
L 335.110149 42.809246 
L 336.117709 43.281587 
L 337.553367 43.949791 
L 337.977262 44.146492 
L 338.989025 44.620842 
L 340.424683 45.289078 
L 340.844146 45.483739 
L 341.860342 45.960205 
L 343.296 46.628472 
" style="fill:none;stroke:#001df0;stroke-width:1.5;"/>
   </g>
   <g id="LineCollection_25">
    <path clip-path="url(#p706160ceb0)" d="M 64.172467 307.584 
L 63.342633 307.195007 
L 61.906975 306.525965 
L 61.305283 306.246754 
L 60.471317 305.855793 
L 59.035658 305.18672 
L 58.438321 304.909508 
L 57.6 304.516475 
" style="fill:none;stroke:#0013f6;stroke-width:1.5;"/>
    <path clip-path="url(#p706160ceb0)" d="M 336.723533 41.472 
L 337.553367 41.860993 
L 338.989025 42.530035 
L 339.590717 42.809246 
L 340.424683 43.200207 
L 341.860342 43.86928 
L 342.457679 44.146492 
L 343.296 44.539525 
" style="fill:none;stroke:#0013f6;stroke-width:1.5;"/>
   </g>
   <g id="LineCollection_26">
    <path clip-path="url(#p706160ceb0)" d="M 59.829696 307.584 
L 59.035658 307.211788 
L 57.6 306.542542 
" style="fill:none;stroke:#0009fb;stroke-width:1.5;"/>
    <path clip-path="url(#p706160ceb0)" d="M 341.066304 41.472 
L 341.860342 41.844212 
L 343.296 42.513458 
" style="fill:none;stroke:#0009fb;stroke-width:1.5;"/>
   </g>
   <g id="LineCollection_27"/>
   <g id="patch_3">
    <path d="M 57.6 307.584 
L 57.6 41.472 
" style="fill:none;stroke:#000000;stroke-linecap:square;stroke-linejoin:miter;stroke-width:0.8;"/>
   </g>
   <g id="patch_4">
    <path d="M 343.296 307.584 
L 343.296 41.472 
" style="fill:none;stroke:#000000;stroke-linecap:square;stroke-linejoin:miter;stroke-width:0.8;"/>
   </g>
   <g id="patch_5">
    <path d="M 57.6 307.584 
L 343.296 307.584 
" style="fill:none;stroke:#000000;stroke-linecap:square;stroke-linejoin:miter;stroke-width:0.8;"/>
   </g>
   <g id="patch_6">
    <path d="M 57.6 41.472 
L 343.296 41.472 
" style="fill:none;stroke:#000000;stroke-linecap:square;stroke-linejoin:miter;stroke-width:0.8;"/>
   </g>
  </g>
  <g id="axes_2">
   <g id="patch_7">
    <path clip-path="url(#pbabf8e6e9b)" d="M 361.152 307.584 
L 361.152 297.348923 
L 361.152 51.707077 
L 361.152 41.472 
L 374.4576 41.472 
L 374.4576 51.707077 
L 374.4576 297.348923 
L 374.4576 307.584 
z
" style="fill:#ffffff;stroke:#ffffff;stroke-linejoin:miter;stroke-width:0.01;"/>
   </g>
   <g id="matplotlib.axis_3"/>
   <g id="matplotlib.axis_4">
    <g id="ytick_10">
     <g id="line2d_19">
      <defs>
       <path d="M 0 0 
L 3.5 0 
" id="m44cee056f6" style="stroke:#000000;stroke-width:0.8;"/>
      </defs>
      <g>
       <use style="stroke:#000000;stroke-width:0.8;" x="374.4576" xlink:href="#m44cee056f6" y="307.584"/>
      </g>
     </g>
     <g id="text_19">
      <!-- 0 -->
      <g transform="translate(381.4576 311.383219)scale(0.1 -0.1)">
       <use xlink:href="#DejaVuSans-48"/>
      </g>
     </g>
    </g>
    <g id="ytick_11">
     <g id="line2d_20">
      <g>
       <use style="stroke:#000000;stroke-width:0.8;" x="374.4576" xlink:href="#m44cee056f6" y="276.878769"/>
      </g>
     </g>
     <g id="text_20">
      <!-- 6000 -->
      <defs>
       <path d="M 33.015625 40.375 
Q 26.375 40.375 22.484375 35.828125 
Q 18.609375 31.296875 18.609375 23.390625 
Q 18.609375 15.53125 22.484375 10.953125 
Q 26.375 6.390625 33.015625 6.390625 
Q 39.65625 6.390625 43.53125 10.953125 
Q 47.40625 15.53125 47.40625 23.390625 
Q 47.40625 31.296875 43.53125 35.828125 
Q 39.65625 40.375 33.015625 40.375 
z
M 52.59375 71.296875 
L 52.59375 62.3125 
Q 48.875 64.0625 45.09375 64.984375 
Q 41.3125 65.921875 37.59375 65.921875 
Q 27.828125 65.921875 22.671875 59.328125 
Q 17.53125 52.734375 16.796875 39.40625 
Q 19.671875 43.65625 24.015625 45.921875 
Q 28.375 48.1875 33.59375 48.1875 
Q 44.578125 48.1875 50.953125 41.515625 
Q 57.328125 34.859375 57.328125 23.390625 
Q 57.328125 12.15625 50.6875 5.359375 
Q 44.046875 -1.421875 33.015625 -1.421875 
Q 20.359375 -1.421875 13.671875 8.265625 
Q 6.984375 17.96875 6.984375 36.375 
Q 6.984375 53.65625 15.1875 63.9375 
Q 23.390625 74.21875 37.203125 74.21875 
Q 40.921875 74.21875 44.703125 73.484375 
Q 48.484375 72.75 52.59375 71.296875 
z
" id="DejaVuSans-54"/>
      </defs>
      <g transform="translate(381.4576 280.677988)scale(0.1 -0.1)">
       <use xlink:href="#DejaVuSans-54"/>
       <use x="63.623047" xlink:href="#DejaVuSans-48"/>
       <use x="127.246094" xlink:href="#DejaVuSans-48"/>
       <use x="190.869141" xlink:href="#DejaVuSans-48"/>
      </g>
     </g>
    </g>
    <g id="ytick_12">
     <g id="line2d_21">
      <g>
       <use style="stroke:#000000;stroke-width:0.8;" x="374.4576" xlink:href="#m44cee056f6" y="246.173538"/>
      </g>
     </g>
     <g id="text_21">
      <!-- 12000 -->
      <g transform="translate(381.4576 249.972757)scale(0.1 -0.1)">
       <use xlink:href="#DejaVuSans-49"/>
       <use x="63.623047" xlink:href="#DejaVuSans-50"/>
       <use x="127.246094" xlink:href="#DejaVuSans-48"/>
       <use x="190.869141" xlink:href="#DejaVuSans-48"/>
       <use x="254.492188" xlink:href="#DejaVuSans-48"/>
      </g>
     </g>
    </g>
    <g id="ytick_13">
     <g id="line2d_22">
      <g>
       <use style="stroke:#000000;stroke-width:0.8;" x="374.4576" xlink:href="#m44cee056f6" y="215.468308"/>
      </g>
     </g>
     <g id="text_22">
      <!-- 18000 -->
      <defs>
       <path d="M 31.78125 34.625 
Q 24.75 34.625 20.71875 30.859375 
Q 16.703125 27.09375 16.703125 20.515625 
Q 16.703125 13.921875 20.71875 10.15625 
Q 24.75 6.390625 31.78125 6.390625 
Q 38.8125 6.390625 42.859375 10.171875 
Q 46.921875 13.96875 46.921875 20.515625 
Q 46.921875 27.09375 42.890625 30.859375 
Q 38.875 34.625 31.78125 34.625 
z
M 21.921875 38.8125 
Q 15.578125 40.375 12.03125 44.71875 
Q 8.5 49.078125 8.5 55.328125 
Q 8.5 64.0625 14.71875 69.140625 
Q 20.953125 74.21875 31.78125 74.21875 
Q 42.671875 74.21875 48.875 69.140625 
Q 55.078125 64.0625 55.078125 55.328125 
Q 55.078125 49.078125 51.53125 44.71875 
Q 48 40.375 41.703125 38.8125 
Q 48.828125 37.15625 52.796875 32.3125 
Q 56.78125 27.484375 56.78125 20.515625 
Q 56.78125 9.90625 50.3125 4.234375 
Q 43.84375 -1.421875 31.78125 -1.421875 
Q 19.734375 -1.421875 13.25 4.234375 
Q 6.78125 9.90625 6.78125 20.515625 
Q 6.78125 27.484375 10.78125 32.3125 
Q 14.796875 37.15625 21.921875 38.8125 
z
M 18.3125 54.390625 
Q 18.3125 48.734375 21.84375 45.5625 
Q 25.390625 42.390625 31.78125 42.390625 
Q 38.140625 42.390625 41.71875 45.5625 
Q 45.3125 48.734375 45.3125 54.390625 
Q 45.3125 60.0625 41.71875 63.234375 
Q 38.140625 66.40625 31.78125 66.40625 
Q 25.390625 66.40625 21.84375 63.234375 
Q 18.3125 60.0625 18.3125 54.390625 
z
" id="DejaVuSans-56"/>
      </defs>
      <g transform="translate(381.4576 219.267526)scale(0.1 -0.1)">
       <use xlink:href="#DejaVuSans-49"/>
       <use x="63.623047" xlink:href="#DejaVuSans-56"/>
       <use x="127.246094" xlink:href="#DejaVuSans-48"/>
       <use x="190.869141" xlink:href="#DejaVuSans-48"/>
       <use x="254.492188" xlink:href="#DejaVuSans-48"/>
      </g>
     </g>
    </g>
    <g id="ytick_14">
     <g id="line2d_23">
      <g>
       <use style="stroke:#000000;stroke-width:0.8;" x="374.4576" xlink:href="#m44cee056f6" y="184.763077"/>
      </g>
     </g>
     <g id="text_23">
      <!-- 24000 -->
      <defs>
       <path d="M 37.796875 64.3125 
L 12.890625 25.390625 
L 37.796875 25.390625 
z
M 35.203125 72.90625 
L 47.609375 72.90625 
L 47.609375 25.390625 
L 58.015625 25.390625 
L 58.015625 17.1875 
L 47.609375 17.1875 
L 47.609375 0 
L 37.796875 0 
L 37.796875 17.1875 
L 4.890625 17.1875 
L 4.890625 26.703125 
z
" id="DejaVuSans-52"/>
      </defs>
      <g transform="translate(381.4576 188.562296)scale(0.1 -0.1)">
       <use xlink:href="#DejaVuSans-50"/>
       <use x="63.623047" xlink:href="#DejaVuSans-52"/>
       <use x="127.246094" xlink:href="#DejaVuSans-48"/>
       <use x="190.869141" xlink:href="#DejaVuSans-48"/>
       <use x="254.492188" xlink:href="#DejaVuSans-48"/>
      </g>
     </g>
    </g>
    <g id="ytick_15">
     <g id="line2d_24">
      <g>
       <use style="stroke:#000000;stroke-width:0.8;" x="374.4576" xlink:href="#m44cee056f6" y="154.057846"/>
      </g>
     </g>
     <g id="text_24">
      <!-- 30000 -->
      <defs>
       <path d="M 40.578125 39.3125 
Q 47.65625 37.796875 51.625 33 
Q 55.609375 28.21875 55.609375 21.1875 
Q 55.609375 10.40625 48.1875 4.484375 
Q 40.765625 -1.421875 27.09375 -1.421875 
Q 22.515625 -1.421875 17.65625 -0.515625 
Q 12.796875 0.390625 7.625 2.203125 
L 7.625 11.71875 
Q 11.71875 9.328125 16.59375 8.109375 
Q 21.484375 6.890625 26.8125 6.890625 
Q 36.078125 6.890625 40.9375 10.546875 
Q 45.796875 14.203125 45.796875 21.1875 
Q 45.796875 27.640625 41.28125 31.265625 
Q 36.765625 34.90625 28.71875 34.90625 
L 20.21875 34.90625 
L 20.21875 43.015625 
L 29.109375 43.015625 
Q 36.375 43.015625 40.234375 45.921875 
Q 44.09375 48.828125 44.09375 54.296875 
Q 44.09375 59.90625 40.109375 62.90625 
Q 36.140625 65.921875 28.71875 65.921875 
Q 24.65625 65.921875 20.015625 65.03125 
Q 15.375 64.15625 9.8125 62.3125 
L 9.8125 71.09375 
Q 15.4375 72.65625 20.34375 73.4375 
Q 25.25 74.21875 29.59375 74.21875 
Q 40.828125 74.21875 47.359375 69.109375 
Q 53.90625 64.015625 53.90625 55.328125 
Q 53.90625 49.265625 50.4375 45.09375 
Q 46.96875 40.921875 40.578125 39.3125 
z
" id="DejaVuSans-51"/>
      </defs>
      <g transform="translate(381.4576 157.857065)scale(0.1 -0.1)">
       <use xlink:href="#DejaVuSans-51"/>
       <use x="63.623047" xlink:href="#DejaVuSans-48"/>
       <use x="127.246094" xlink:href="#DejaVuSans-48"/>
       <use x="190.869141" xlink:href="#DejaVuSans-48"/>
       <use x="254.492188" xlink:href="#DejaVuSans-48"/>
      </g>
     </g>
    </g>
    <g id="ytick_16">
     <g id="line2d_25">
      <g>
       <use style="stroke:#000000;stroke-width:0.8;" x="374.4576" xlink:href="#m44cee056f6" y="123.352615"/>
      </g>
     </g>
     <g id="text_25">
      <!-- 36000 -->
      <g transform="translate(381.4576 127.151834)scale(0.1 -0.1)">
       <use xlink:href="#DejaVuSans-51"/>
       <use x="63.623047" xlink:href="#DejaVuSans-54"/>
       <use x="127.246094" xlink:href="#DejaVuSans-48"/>
       <use x="190.869141" xlink:href="#DejaVuSans-48"/>
       <use x="254.492188" xlink:href="#DejaVuSans-48"/>
      </g>
     </g>
    </g>
    <g id="ytick_17">
     <g id="line2d_26">
      <g>
       <use style="stroke:#000000;stroke-width:0.8;" x="374.4576" xlink:href="#m44cee056f6" y="92.647385"/>
      </g>
     </g>
     <g id="text_26">
      <!-- 42000 -->
      <g transform="translate(381.4576 96.446603)scale(0.1 -0.1)">
       <use xlink:href="#DejaVuSans-52"/>
       <use x="63.623047" xlink:href="#DejaVuSans-50"/>
       <use x="127.246094" xlink:href="#DejaVuSans-48"/>
       <use x="190.869141" xlink:href="#DejaVuSans-48"/>
       <use x="254.492188" xlink:href="#DejaVuSans-48"/>
      </g>
     </g>
    </g>
    <g id="ytick_18">
     <g id="line2d_27">
      <g>
       <use style="stroke:#000000;stroke-width:0.8;" x="374.4576" xlink:href="#m44cee056f6" y="61.942154"/>
      </g>
     </g>
     <g id="text_27">
      <!-- 48000 -->
      <g transform="translate(381.4576 65.741373)scale(0.1 -0.1)">
       <use xlink:href="#DejaVuSans-52"/>
       <use x="63.623047" xlink:href="#DejaVuSans-56"/>
       <use x="127.246094" xlink:href="#DejaVuSans-48"/>
       <use x="190.869141" xlink:href="#DejaVuSans-48"/>
       <use x="254.492188" xlink:href="#DejaVuSans-48"/>
      </g>
     </g>
    </g>
   </g>
   <g id="LineCollection_28">
    <path clip-path="url(#pbabf8e6e9b)" d="M 361.152 307.584 
L 374.4576 307.584 
" style="fill:none;stroke:#00ff80;stroke-width:1.5;"/>
    <path clip-path="url(#pbabf8e6e9b)" d="M 361.152 297.348923 
L 374.4576 297.348923 
" style="fill:none;stroke:#00f684;stroke-width:1.5;"/>
    <path clip-path="url(#pbabf8e6e9b)" d="M 361.152 287.113846 
L 374.4576 287.113846 
" style="fill:none;stroke:#00ec89;stroke-width:1.5;"/>
    <path clip-path="url(#pbabf8e6e9b)" d="M 361.152 276.878769 
L 374.4576 276.878769 
" style="fill:none;stroke:#00e28e;stroke-width:1.5;"/>
    <path clip-path="url(#pbabf8e6e9b)" d="M 361.152 266.643692 
L 374.4576 266.643692 
" style="fill:none;stroke:#00d893;stroke-width:1.5;"/>
    <path clip-path="url(#pbabf8e6e9b)" d="M 361.152 256.408615 
L 374.4576 256.408615 
" style="fill:none;stroke:#00ce98;stroke-width:1.5;"/>
    <path clip-path="url(#pbabf8e6e9b)" d="M 361.152 246.173538 
L 374.4576 246.173538 
" style="fill:none;stroke:#00c49d;stroke-width:1.5;"/>
    <path clip-path="url(#pbabf8e6e9b)" d="M 361.152 235.938462 
L 374.4576 235.938462 
" style="fill:none;stroke:#00bba2;stroke-width:1.5;"/>
    <path clip-path="url(#pbabf8e6e9b)" d="M 361.152 225.703385 
L 374.4576 225.703385 
" style="fill:none;stroke:#00b1a6;stroke-width:1.5;"/>
    <path clip-path="url(#pbabf8e6e9b)" d="M 361.152 215.468308 
L 374.4576 215.468308 
" style="fill:none;stroke:#00a7ac;stroke-width:1.5;"/>
    <path clip-path="url(#pbabf8e6e9b)" d="M 361.152 205.233231 
L 374.4576 205.233231 
" style="fill:none;stroke:#009db0;stroke-width:1.5;"/>
    <path clip-path="url(#pbabf8e6e9b)" d="M 361.152 194.998154 
L 374.4576 194.998154 
" style="fill:none;stroke:#0093b6;stroke-width:1.5;"/>
    <path clip-path="url(#pbabf8e6e9b)" d="M 361.152 184.763077 
L 374.4576 184.763077 
" style="fill:none;stroke:#0089bb;stroke-width:1.5;"/>
    <path clip-path="url(#pbabf8e6e9b)" d="M 361.152 174.528 
L 374.4576 174.528 
" style="fill:none;stroke:#007fc0;stroke-width:1.5;"/>
    <path clip-path="url(#pbabf8e6e9b)" d="M 361.152 164.292923 
L 374.4576 164.292923 
" style="fill:none;stroke:#0076c4;stroke-width:1.5;"/>
    <path clip-path="url(#pbabf8e6e9b)" d="M 361.152 154.057846 
L 374.4576 154.057846 
" style="fill:none;stroke:#006cc9;stroke-width:1.5;"/>
    <path clip-path="url(#pbabf8e6e9b)" d="M 361.152 143.822769 
L 374.4576 143.822769 
" style="fill:none;stroke:#0062ce;stroke-width:1.5;"/>
    <path clip-path="url(#pbabf8e6e9b)" d="M 361.152 133.587692 
L 374.4576 133.587692 
" style="fill:none;stroke:#0058d3;stroke-width:1.5;"/>
    <path clip-path="url(#pbabf8e6e9b)" d="M 361.152 123.352615 
L 374.4576 123.352615 
" style="fill:none;stroke:#004ed8;stroke-width:1.5;"/>
    <path clip-path="url(#pbabf8e6e9b)" d="M 361.152 113.117538 
L 374.4576 113.117538 
" style="fill:none;stroke:#0044dd;stroke-width:1.5;"/>
    <path clip-path="url(#pbabf8e6e9b)" d="M 361.152 102.882462 
L 374.4576 102.882462 
" style="fill:none;stroke:#003be2;stroke-width:1.5;"/>
    <path clip-path="url(#pbabf8e6e9b)" d="M 361.152 92.647385 
L 374.4576 92.647385 
" style="fill:none;stroke:#0031e6;stroke-width:1.5;"/>
    <path clip-path="url(#pbabf8e6e9b)" d="M 361.152 82.412308 
L 374.4576 82.412308 
" style="fill:none;stroke:#0027ec;stroke-width:1.5;"/>
    <path clip-path="url(#pbabf8e6e9b)" d="M 361.152 72.177231 
L 374.4576 72.177231 
" style="fill:none;stroke:#001df0;stroke-width:1.5;"/>
    <path clip-path="url(#pbabf8e6e9b)" d="M 361.152 61.942154 
L 374.4576 61.942154 
" style="fill:none;stroke:#0013f6;stroke-width:1.5;"/>
    <path clip-path="url(#pbabf8e6e9b)" d="M 361.152 51.707077 
L 374.4576 51.707077 
" style="fill:none;stroke:#0009fb;stroke-width:1.5;"/>
    <path clip-path="url(#pbabf8e6e9b)" d="M 361.152 41.472 
L 374.4576 41.472 
" style="fill:none;stroke:#0000ff;stroke-width:1.5;"/>
   </g>
   <g id="patch_8">
    <path d="M 361.152 307.584 
L 361.152 297.348923 
L 361.152 51.707077 
L 361.152 41.472 
L 374.4576 41.472 
L 374.4576 51.707077 
L 374.4576 297.348923 
L 374.4576 307.584 
z
" style="fill:none;stroke:#000000;stroke-linejoin:miter;stroke-width:0.8;"/>
   </g>
  </g>
 </g>
 <defs>
  <clipPath id="p706160ceb0">
   <rect height="266.112" width="285.696" x="57.6" y="41.472"/>
  </clipPath>
  <clipPath id="pbabf8e6e9b">
   <rect height="266.112" width="13.3056" x="361.152" y="41.472"/>
  </clipPath>
 </defs>
</svg>
