<?xml version="1.0" encoding="utf-8" standalone="no"?>
<!DOCTYPE svg PUBLIC "-//W3C//DTD SVG 1.1//EN"
  "http://www.w3.org/Graphics/SVG/1.1/DTD/svg11.dtd">
<!-- Created with matplotlib (https://matplotlib.org/) -->
<svg height="345.6pt" version="1.1" viewBox="0 0 460.8 345.6" width="460.8pt" xmlns="http://www.w3.org/2000/svg" xmlns:xlink="http://www.w3.org/1999/xlink">
 <defs>
  <style type="text/css">
*{stroke-linecap:butt;stroke-linejoin:round;}
  </style>
 </defs>
 <g id="figure_1">
  <g id="patch_1">
   <path d="M 0 345.6 
L 460.8 345.6 
L 460.8 0 
L 0 0 
z
" style="fill:#ffffff;"/>
  </g>
  <g id="axes_1">
   <g id="patch_2">
    <path d="M 57.6 307.584 
L 343.296 307.584 
L 343.296 41.472 
L 57.6 41.472 
z
" style="fill:#ffffff;"/>
   </g>
   <g id="matplotlib.axis_1">
    <g id="xtick_1">
     <g id="line2d_1">
      <defs>
       <path d="M 0 0 
L 0 3.5 
" id="md8c05a5872" style="stroke:#000000;stroke-width:0.8;"/>
      </defs>
      <g>
       <use style="stroke:#000000;stroke-width:0.8;" x="57.6" xlink:href="#md8c05a5872" y="307.584"/>
      </g>
     </g>
     <g id="text_1">
      <!-- −4 -->
      <defs>
       <path d="M 10.59375 35.5 
L 73.1875 35.5 
L 73.1875 27.203125 
L 10.59375 27.203125 
z
" id="DejaVuSans-8722"/>
       <path d="M 37.796875 64.3125 
L 12.890625 25.390625 
L 37.796875 25.390625 
z
M 35.203125 72.90625 
L 47.609375 72.90625 
L 47.609375 25.390625 
L 58.015625 25.390625 
L 58.015625 17.1875 
L 47.609375 17.1875 
L 47.609375 0 
L 37.796875 0 
L 37.796875 17.1875 
L 4.890625 17.1875 
L 4.890625 26.703125 
z
" id="DejaVuSans-52"/>
      </defs>
      <g transform="translate(50.228906 322.182437)scale(0.1 -0.1)">
       <use xlink:href="#DejaVuSans-8722"/>
       <use x="83.789062" xlink:href="#DejaVuSans-52"/>
      </g>
     </g>
    </g>
    <g id="xtick_2">
     <g id="line2d_2">
      <g>
       <use style="stroke:#000000;stroke-width:0.8;" x="93.312" xlink:href="#md8c05a5872" y="307.584"/>
      </g>
     </g>
     <g id="text_2">
      <!-- −3 -->
      <defs>
       <path d="M 40.578125 39.3125 
Q 47.65625 37.796875 51.625 33 
Q 55.609375 28.21875 55.609375 21.1875 
Q 55.609375 10.40625 48.1875 4.484375 
Q 40.765625 -1.421875 27.09375 -1.421875 
Q 22.515625 -1.421875 17.65625 -0.515625 
Q 12.796875 0.390625 7.625 2.203125 
L 7.625 11.71875 
Q 11.71875 9.328125 16.59375 8.109375 
Q 21.484375 6.890625 26.8125 6.890625 
Q 36.078125 6.890625 40.9375 10.546875 
Q 45.796875 14.203125 45.796875 21.1875 
Q 45.796875 27.640625 41.28125 31.265625 
Q 36.765625 34.90625 28.71875 34.90625 
L 20.21875 34.90625 
L 20.21875 43.015625 
L 29.109375 43.015625 
Q 36.375 43.015625 40.234375 45.921875 
Q 44.09375 48.828125 44.09375 54.296875 
Q 44.09375 59.90625 40.109375 62.90625 
Q 36.140625 65.921875 28.71875 65.921875 
Q 24.65625 65.921875 20.015625 65.03125 
Q 15.375 64.15625 9.8125 62.3125 
L 9.8125 71.09375 
Q 15.4375 72.65625 20.34375 73.4375 
Q 25.25 74.21875 29.59375 74.21875 
Q 40.828125 74.21875 47.359375 69.109375 
Q 53.90625 64.015625 53.90625 55.328125 
Q 53.90625 49.265625 50.4375 45.09375 
Q 46.96875 40.921875 40.578125 39.3125 
z
" id="DejaVuSans-51"/>
      </defs>
      <g transform="translate(85.940906 322.182437)scale(0.1 -0.1)">
       <use xlink:href="#DejaVuSans-8722"/>
       <use x="83.789062" xlink:href="#DejaVuSans-51"/>
      </g>
     </g>
    </g>
    <g id="xtick_3">
     <g id="line2d_3">
      <g>
       <use style="stroke:#000000;stroke-width:0.8;" x="129.024" xlink:href="#md8c05a5872" y="307.584"/>
      </g>
     </g>
     <g id="text_3">
      <!-- −2 -->
      <defs>
       <path d="M 19.1875 8.296875 
L 53.609375 8.296875 
L 53.609375 0 
L 7.328125 0 
L 7.328125 8.296875 
Q 12.9375 14.109375 22.625 23.890625 
Q 32.328125 33.6875 34.8125 36.53125 
Q 39.546875 41.84375 41.421875 45.53125 
Q 43.3125 49.21875 43.3125 52.78125 
Q 43.3125 58.59375 39.234375 62.25 
Q 35.15625 65.921875 28.609375 65.921875 
Q 23.96875 65.921875 18.8125 64.3125 
Q 13.671875 62.703125 7.8125 59.421875 
L 7.8125 69.390625 
Q 13.765625 71.78125 18.9375 73 
Q 24.125 74.21875 28.421875 74.21875 
Q 39.75 74.21875 46.484375 68.546875 
Q 53.21875 62.890625 53.21875 53.421875 
Q 53.21875 48.921875 51.53125 44.890625 
Q 49.859375 40.875 45.40625 35.40625 
Q 44.1875 33.984375 37.640625 27.21875 
Q 31.109375 20.453125 19.1875 8.296875 
z
" id="DejaVuSans-50"/>
      </defs>
      <g transform="translate(121.652906 322.182437)scale(0.1 -0.1)">
       <use xlink:href="#DejaVuSans-8722"/>
       <use x="83.789062" xlink:href="#DejaVuSans-50"/>
      </g>
     </g>
    </g>
    <g id="xtick_4">
     <g id="line2d_4">
      <g>
       <use style="stroke:#000000;stroke-width:0.8;" x="164.736" xlink:href="#md8c05a5872" y="307.584"/>
      </g>
     </g>
     <g id="text_4">
      <!-- −1 -->
      <defs>
       <path d="M 12.40625 8.296875 
L 28.515625 8.296875 
L 28.515625 63.921875 
L 10.984375 60.40625 
L 10.984375 69.390625 
L 28.421875 72.90625 
L 38.28125 72.90625 
L 38.28125 8.296875 
L 54.390625 8.296875 
L 54.390625 0 
L 12.40625 0 
z
" id="DejaVuSans-49"/>
      </defs>
      <g transform="translate(157.364906 322.182437)scale(0.1 -0.1)">
       <use xlink:href="#DejaVuSans-8722"/>
       <use x="83.789062" xlink:href="#DejaVuSans-49"/>
      </g>
     </g>
    </g>
    <g id="xtick_5">
     <g id="line2d_5">
      <g>
       <use style="stroke:#000000;stroke-width:0.8;" x="200.448" xlink:href="#md8c05a5872" y="307.584"/>
      </g>
     </g>
     <g id="text_5">
      <!-- 0 -->
      <defs>
       <path d="M 31.78125 66.40625 
Q 24.171875 66.40625 20.328125 58.90625 
Q 16.5 51.421875 16.5 36.375 
Q 16.5 21.390625 20.328125 13.890625 
Q 24.171875 6.390625 31.78125 6.390625 
Q 39.453125 6.390625 43.28125 13.890625 
Q 47.125 21.390625 47.125 36.375 
Q 47.125 51.421875 43.28125 58.90625 
Q 39.453125 66.40625 31.78125 66.40625 
z
M 31.78125 74.21875 
Q 44.046875 74.21875 50.515625 64.515625 
Q 56.984375 54.828125 56.984375 36.375 
Q 56.984375 17.96875 50.515625 8.265625 
Q 44.046875 -1.421875 31.78125 -1.421875 
Q 19.53125 -1.421875 13.0625 8.265625 
Q 6.59375 17.96875 6.59375 36.375 
Q 6.59375 54.828125 13.0625 64.515625 
Q 19.53125 74.21875 31.78125 74.21875 
z
" id="DejaVuSans-48"/>
      </defs>
      <g transform="translate(197.26675 322.182437)scale(0.1 -0.1)">
       <use xlink:href="#DejaVuSans-48"/>
      </g>
     </g>
    </g>
    <g id="xtick_6">
     <g id="line2d_6">
      <g>
       <use style="stroke:#000000;stroke-width:0.8;" x="236.16" xlink:href="#md8c05a5872" y="307.584"/>
      </g>
     </g>
     <g id="text_6">
      <!-- 1 -->
      <g transform="translate(232.97875 322.182437)scale(0.1 -0.1)">
       <use xlink:href="#DejaVuSans-49"/>
      </g>
     </g>
    </g>
    <g id="xtick_7">
     <g id="line2d_7">
      <g>
       <use style="stroke:#000000;stroke-width:0.8;" x="271.872" xlink:href="#md8c05a5872" y="307.584"/>
      </g>
     </g>
     <g id="text_7">
      <!-- 2 -->
      <g transform="translate(268.69075 322.182437)scale(0.1 -0.1)">
       <use xlink:href="#DejaVuSans-50"/>
      </g>
     </g>
    </g>
    <g id="xtick_8">
     <g id="line2d_8">
      <g>
       <use style="stroke:#000000;stroke-width:0.8;" x="307.584" xlink:href="#md8c05a5872" y="307.584"/>
      </g>
     </g>
     <g id="text_8">
      <!-- 3 -->
      <g transform="translate(304.40275 322.182437)scale(0.1 -0.1)">
       <use xlink:href="#DejaVuSans-51"/>
      </g>
     </g>
    </g>
    <g id="xtick_9">
     <g id="line2d_9">
      <g>
       <use style="stroke:#000000;stroke-width:0.8;" x="343.296" xlink:href="#md8c05a5872" y="307.584"/>
      </g>
     </g>
     <g id="text_9">
      <!-- 4 -->
      <g transform="translate(340.11475 322.182437)scale(0.1 -0.1)">
       <use xlink:href="#DejaVuSans-52"/>
      </g>
     </g>
    </g>
   </g>
   <g id="matplotlib.axis_2">
    <g id="ytick_1">
     <g id="line2d_10">
      <defs>
       <path d="M 0 0 
L -3.5 0 
" id="m785c58f529" style="stroke:#000000;stroke-width:0.8;"/>
      </defs>
      <g>
       <use style="stroke:#000000;stroke-width:0.8;" x="57.6" xlink:href="#m785c58f529" y="307.584"/>
      </g>
     </g>
     <g id="text_10">
      <!-- −4 -->
      <g transform="translate(35.857813 311.383219)scale(0.1 -0.1)">
       <use xlink:href="#DejaVuSans-8722"/>
       <use x="83.789062" xlink:href="#DejaVuSans-52"/>
      </g>
     </g>
    </g>
    <g id="ytick_2">
     <g id="line2d_11">
      <g>
       <use style="stroke:#000000;stroke-width:0.8;" x="57.6" xlink:href="#m785c58f529" y="274.32"/>
      </g>
     </g>
     <g id="text_11">
      <!-- −3 -->
      <g transform="translate(35.857813 278.119219)scale(0.1 -0.1)">
       <use xlink:href="#DejaVuSans-8722"/>
       <use x="83.789062" xlink:href="#DejaVuSans-51"/>
      </g>
     </g>
    </g>
    <g id="ytick_3">
     <g id="line2d_12">
      <g>
       <use style="stroke:#000000;stroke-width:0.8;" x="57.6" xlink:href="#m785c58f529" y="241.056"/>
      </g>
     </g>
     <g id="text_12">
      <!-- −2 -->
      <g transform="translate(35.857813 244.855219)scale(0.1 -0.1)">
       <use xlink:href="#DejaVuSans-8722"/>
       <use x="83.789062" xlink:href="#DejaVuSans-50"/>
      </g>
     </g>
    </g>
    <g id="ytick_4">
     <g id="line2d_13">
      <g>
       <use style="stroke:#000000;stroke-width:0.8;" x="57.6" xlink:href="#m785c58f529" y="207.792"/>
      </g>
     </g>
     <g id="text_13">
      <!-- −1 -->
      <g transform="translate(35.857813 211.591219)scale(0.1 -0.1)">
       <use xlink:href="#DejaVuSans-8722"/>
       <use x="83.789062" xlink:href="#DejaVuSans-49"/>
      </g>
     </g>
    </g>
    <g id="ytick_5">
     <g id="line2d_14">
      <g>
       <use style="stroke:#000000;stroke-width:0.8;" x="57.6" xlink:href="#m785c58f529" y="174.528"/>
      </g>
     </g>
     <g id="text_14">
      <!-- 0 -->
      <g transform="translate(44.2375 178.327219)scale(0.1 -0.1)">
       <use xlink:href="#DejaVuSans-48"/>
      </g>
     </g>
    </g>
    <g id="ytick_6">
     <g id="line2d_15">
      <g>
       <use style="stroke:#000000;stroke-width:0.8;" x="57.6" xlink:href="#m785c58f529" y="141.264"/>
      </g>
     </g>
     <g id="text_15">
      <!-- 1 -->
      <g transform="translate(44.2375 145.063219)scale(0.1 -0.1)">
       <use xlink:href="#DejaVuSans-49"/>
      </g>
     </g>
    </g>
    <g id="ytick_7">
     <g id="line2d_16">
      <g>
       <use style="stroke:#000000;stroke-width:0.8;" x="57.6" xlink:href="#m785c58f529" y="108"/>
      </g>
     </g>
     <g id="text_16">
      <!-- 2 -->
      <g transform="translate(44.2375 111.799219)scale(0.1 -0.1)">
       <use xlink:href="#DejaVuSans-50"/>
      </g>
     </g>
    </g>
    <g id="ytick_8">
     <g id="line2d_17">
      <g>
       <use style="stroke:#000000;stroke-width:0.8;" x="57.6" xlink:href="#m785c58f529" y="74.736"/>
      </g>
     </g>
     <g id="text_17">
      <!-- 3 -->
      <g transform="translate(44.2375 78.535219)scale(0.1 -0.1)">
       <use xlink:href="#DejaVuSans-51"/>
      </g>
     </g>
    </g>
    <g id="ytick_9">
     <g id="line2d_18">
      <g>
       <use style="stroke:#000000;stroke-width:0.8;" x="57.6" xlink:href="#m785c58f529" y="41.472"/>
      </g>
     </g>
     <g id="text_18">
      <!-- 4 -->
      <g transform="translate(44.2375 45.271219)scale(0.1 -0.1)">
       <use xlink:href="#DejaVuSans-52"/>
      </g>
     </g>
    </g>
   </g>
   <g id="LineCollection_1"/>
   <g id="LineCollection_2">
    <path clip-path="url(#pa39e5bac17)" d="M 201.165829 218.739294 
L 199.730171 217.683167 
L 196.858854 213.724218 
L 193.512301 208.627779 
L 191.10451 204.61604 
L 188.17163 199.267055 
L 185.373588 193.637003 
L 182.500275 187.231839 
L 179.831873 180.545608 
L 177.933693 175.196623 
L 176.265514 169.847638 
L 174.862704 164.498653 
L 173.888322 159.72033 
L 173.414879 156.475176 
L 173.095263 152.463437 
L 173.084548 149.788945 
L 173.277376 147.114452 
L 173.719977 144.43996 
L 174.059702 143.102714 
L 175.035023 140.428221 
L 175.705495 139.090975 
L 176.759638 137.426745 
L 178.195296 135.700054 
L 179.630955 134.366309 
L 181.066613 133.305127 
L 182.574311 132.404744 
L 185.373588 131.195666 
L 186.809246 130.755508 
L 189.680563 130.156455 
L 192.551879 129.873828 
L 195.423196 129.868958 
L 198.294513 130.111032 
L 199.730171 130.316706 
L 201.165829 131.372833 
L 204.037146 135.331782 
L 207.383699 140.428221 
L 209.79149 144.43996 
L 212.72437 149.788945 
L 215.522412 155.418997 
L 218.395725 161.824161 
L 221.064127 168.510392 
L 222.962307 173.859377 
L 224.630486 179.208362 
L 226.033296 184.557347 
L 227.007678 189.33567 
L 227.481121 192.580824 
L 227.800737 196.592563 
L 227.811452 199.267055 
L 227.618624 201.941548 
L 227.176023 204.61604 
L 226.836298 205.953286 
L 225.860977 208.627779 
L 225.190505 209.965025 
L 224.136362 211.629255 
L 222.700704 213.355946 
L 221.265045 214.689691 
L 219.829387 215.750873 
L 218.321689 216.651256 
L 215.522412 217.860334 
L 214.086754 218.300492 
L 211.215437 218.899545 
L 208.344121 219.182172 
L 205.472804 219.187042 
L 202.601487 218.944968 
L 201.165829 218.739294 
L 201.165829 218.739294 
" style="fill:none;stroke:#00f584;stroke-width:1.5;"/>
   </g>
   <g id="LineCollection_3">
    <path clip-path="url(#pa39e5bac17)" d="M 209.779779 239.466814 
L 205.472804 238.975911 
L 201.165829 238.320231 
L 199.730171 237.784029 
L 193.4584 234.035457 
L 186.809246 229.764324 
L 183.237604 227.349226 
L 181.784368 226.01198 
L 177.603884 220.662995 
L 173.716962 215.31401 
L 169.581347 209.206865 
L 165.813814 203.278794 
L 161.802136 196.592563 
L 157.24857 188.569085 
L 152.353447 179.470823 
L 148.046472 171.053616 
L 143.596056 161.824161 
L 140.611486 155.13793 
L 137.996864 148.665965 
L 136.484872 144.43996 
L 135.125548 140.022831 
L 134.215611 136.416482 
L 133.468835 132.404744 
L 133.160554 129.730251 
L 133.029306 127.055759 
L 133.106209 124.381266 
L 133.233902 123.04402 
L 134.088819 121.706774 
L 136.561206 119.999289 
L 139.432523 118.281949 
L 142.303839 116.796073 
L 145.175156 115.503833 
L 148.046472 114.375929 
L 152.353447 112.94618 
L 156.660422 111.786772 
L 160.967397 110.860215 
L 165.274372 110.146598 
L 169.581347 109.621326 
L 173.888322 109.280129 
L 178.195296 109.109484 
L 183.93793 109.140895 
L 189.680563 109.463422 
L 193.987538 109.897865 
L 199.730171 110.735769 
L 201.165829 111.271971 
L 207.4376 115.020543 
L 214.086754 119.291676 
L 217.658396 121.706774 
L 219.111632 123.04402 
L 223.292116 128.393005 
L 227.179038 133.74199 
L 231.314653 139.849135 
L 235.082186 145.777206 
L 239.093864 152.463437 
L 243.64743 160.486915 
L 248.542553 169.585177 
L 252.849528 178.002384 
L 257.299944 187.231839 
L 260.284514 193.91807 
L 262.899136 200.390035 
L 264.411128 204.61604 
L 265.770452 209.033169 
L 266.680389 212.639518 
L 267.427165 216.651256 
L 267.735446 219.325749 
L 267.866694 222.000241 
L 267.789791 224.674734 
L 267.662098 226.01198 
L 266.807181 227.349226 
L 264.334794 229.056711 
L 261.463477 230.774051 
L 258.592161 232.259927 
L 255.720844 233.552167 
L 252.849528 234.680071 
L 248.542553 236.10982 
L 244.235578 237.269228 
L 239.928603 238.195785 
L 235.621628 238.909402 
L 231.314653 239.434674 
L 227.007678 239.775871 
L 222.700704 239.946516 
L 216.95807 239.915105 
L 211.215437 239.592578 
L 209.779779 239.466814 
L 209.779779 239.466814 
" style="fill:none;stroke:#00eb8a;stroke-width:1.5;"/>
   </g>
   <g id="LineCollection_4">
    <path clip-path="url(#pa39e5bac17)" d="M 218.393729 254.190388 
L 212.651095 253.520472 
L 206.908462 252.616767 
L 201.165829 251.468065 
L 199.730171 250.890871 
L 192.551879 246.580187 
L 185.373588 241.998632 
L 176.759638 236.183276 
L 169.581347 231.101253 
L 164.462372 227.349226 
L 163.069579 226.01198 
L 158.09608 219.707067 
L 153.789106 213.932318 
L 148.158472 205.953286 
L 142.303839 197.196118 
L 136.561206 188.234301 
L 129.335524 176.533869 
L 122.19729 164.498653 
L 116.933626 155.13793 
L 113.408027 148.451698 
L 110.167825 141.765467 
L 107.839448 136.416482 
L 105.819748 131.067497 
L 104.542613 127.055759 
L 103.507536 123.04402 
L 103.642589 121.706774 
L 105.221179 119.032281 
L 107.105721 116.357789 
L 109.340944 113.683296 
L 112.155015 110.873427 
L 115.199114 108.334312 
L 117.897648 106.416902 
L 121.335957 104.322573 
L 123.87126 102.985327 
L 127.947256 101.141175 
L 132.254231 99.526178 
L 136.561206 98.194826 
L 140.868181 97.102312 
L 145.175156 96.214086 
L 150.917789 95.311929 
L 156.660422 94.689935 
L 162.403055 94.323372 
L 168.145688 94.193877 
L 173.888322 94.293416 
L 179.630955 94.618556 
L 185.373588 95.171366 
L 191.116221 95.957526 
L 196.858854 96.983685 
L 199.850843 97.636342 
L 201.165829 98.165129 
L 208.344121 102.475813 
L 215.522412 107.057368 
L 224.136362 112.872724 
L 231.314653 117.954747 
L 236.433628 121.706774 
L 237.826421 123.04402 
L 242.79992 129.348933 
L 247.106894 135.123682 
L 252.737528 143.102714 
L 258.592161 151.859882 
L 264.334794 160.821699 
L 271.560476 172.522131 
L 278.69871 184.557347 
L 283.962374 193.91807 
L 287.487973 200.604302 
L 290.728175 207.290533 
L 293.056552 212.639518 
L 295.076252 217.988503 
L 296.353387 222.000241 
L 297.388464 226.01198 
L 297.253411 227.349226 
L 295.674821 230.023719 
L 293.790279 232.698211 
L 291.555056 235.372704 
L 288.740985 238.182573 
L 285.696886 240.721688 
L 282.998352 242.639098 
L 279.560043 244.733427 
L 277.02474 246.070673 
L 272.948744 247.914825 
L 268.641769 249.529822 
L 264.334794 250.861174 
L 260.027819 251.953688 
L 255.720844 252.841914 
L 249.978211 253.744071 
L 244.235578 254.366065 
L 238.492945 254.732628 
L 232.750312 254.862123 
L 227.007678 254.762584 
L 221.265045 254.437444 
L 218.393729 254.190388 
L 218.393729 254.190388 
" style="fill:none;stroke:#00e18e;stroke-width:1.5;"/>
   </g>
   <g id="LineCollection_5">
    <path clip-path="url(#pa39e5bac17)" d="M 235.621628 268.820444 
L 229.878995 268.394568 
L 224.136362 267.788219 
L 218.393729 266.995194 
L 212.651095 266.009782 
L 206.781035 264.792121 
L 201.165829 263.420037 
L 199.730171 262.803456 
L 192.059399 258.105889 
L 183.782656 252.756905 
L 173.888322 246.051164 
L 163.838714 238.950877 
L 153.486632 231.360965 
L 148.046472 227.226298 
L 146.610814 225.802018 
L 140.868181 218.717246 
L 136.177452 212.639518 
L 130.26063 204.61604 
L 123.640281 195.222726 
L 116.42795 184.557347 
L 108.609285 172.522131 
L 102.779117 163.161407 
L 97.798432 154.762893 
L 93.491457 147.015265 
L 90.117381 140.428221 
L 88.886379 137.753729 
L 87.748824 134.832231 
L 86.313166 129.721059 
L 84.877508 123.689552 
L 84.740264 123.04402 
L 84.679269 121.706774 
L 85.467988 117.695035 
L 86.468343 113.683296 
L 87.748824 109.508052 
L 89.184482 106.510684 
L 90.640652 104.322573 
L 92.683211 101.64808 
L 95.046885 98.973588 
L 97.812863 96.299095 
L 101.090041 93.624603 
L 103.541065 91.899585 
L 106.412382 90.130079 
L 109.920732 88.275618 
L 113.590673 86.635925 
L 117.897648 85.040564 
L 122.204623 83.738643 
L 126.511598 82.682661 
L 130.818573 81.837232 
L 135.125548 81.173346 
L 140.868181 80.530951 
L 146.610814 80.131169 
L 152.353447 79.94753 
L 158.09608 79.960001 
L 163.838714 80.157857 
L 169.581347 80.538066 
L 175.32398 81.099185 
L 181.066613 81.844406 
L 187.597405 82.926633 
L 192.551879 83.918731 
L 198.294513 85.265902 
L 199.730171 85.635963 
L 201.165829 86.252544 
L 208.836601 90.950111 
L 217.113344 96.299095 
L 227.007678 103.004836 
L 237.057286 110.105123 
L 247.409368 117.695035 
L 252.849528 121.829702 
L 254.285186 123.253982 
L 260.027819 130.338754 
L 264.718548 136.416482 
L 270.63537 144.43996 
L 277.255719 153.833274 
L 284.46805 164.498653 
L 292.286715 176.533869 
L 298.116883 185.894593 
L 303.097568 194.293107 
L 307.404543 202.040735 
L 310.778619 208.627779 
L 312.009621 211.302271 
L 313.147176 214.223769 
L 314.582834 219.334941 
L 316.018492 225.366448 
L 316.155736 226.01198 
L 316.216731 227.349226 
L 315.428012 231.360965 
L 314.427657 235.372704 
L 313.147176 239.547948 
L 311.711518 242.545316 
L 310.255348 244.733427 
L 308.212789 247.40792 
L 305.849115 250.082412 
L 303.083137 252.756905 
L 299.805959 255.431397 
L 297.354935 257.156415 
L 294.483618 258.925921 
L 290.975268 260.780382 
L 287.305327 262.420075 
L 282.998352 264.015436 
L 278.691377 265.317357 
L 274.384402 266.373339 
L 270.077427 267.218768 
L 265.770452 267.882654 
L 260.027819 268.525049 
L 254.285186 268.924831 
L 248.542553 269.10847 
L 242.79992 269.095999 
L 237.057286 268.898143 
L 235.621628 268.820444 
L 235.621628 268.820444 
" style="fill:none;stroke:#00d793;stroke-width:1.5;"/>
   </g>
   <g id="LineCollection_6">
    <path clip-path="url(#pa39e5bac17)" d="M 241.364261 282.275647 
L 234.18597 281.476153 
L 227.007678 280.444916 
L 219.829387 279.170293 
L 212.651095 277.63572 
L 206.908462 276.207781 
L 201.165829 274.58951 
L 199.730171 273.93681 
L 191.556442 268.803859 
L 183.424347 263.454874 
L 173.629377 256.768643 
L 160.967397 247.830975 
L 149.341498 239.384442 
L 137.996864 230.890456 
L 133.388326 227.349226 
L 131.99694 226.01198 
L 126.428183 219.325749 
L 120.768965 212.182328 
L 115.026332 204.59006 
L 108.290516 195.255317 
L 101.826938 185.894593 
L 95.622585 176.533869 
L 90.507319 168.510392 
L 88.891151 165.835899 
L 87.513022 163.161407 
L 83.441849 153.443179 
L 80.447707 145.777206 
L 77.575087 137.753729 
L 75.436992 131.067497 
L 73.928283 125.718513 
L 73.250637 123.04402 
L 73.123535 121.706774 
L 73.619036 117.695035 
L 74.293567 113.683296 
L 75.148327 109.671558 
L 76.263558 105.399809 
L 77.699216 100.834219 
L 79.134874 96.933704 
L 80.570533 93.494097 
L 82.400819 89.612864 
L 84.545525 85.601126 
L 86.313166 82.63997 
L 87.91643 80.252141 
L 89.246579 78.914894 
L 92.055799 76.935743 
L 95.418676 74.903156 
L 97.975011 73.56591 
L 100.905756 72.228663 
L 104.976724 70.666193 
L 109.283698 69.332149 
L 113.852871 68.216925 
L 117.897648 67.447194 
L 122.204623 66.817533 
L 127.947256 66.242364 
L 133.689889 65.918022 
L 139.432523 65.807828 
L 146.610814 65.930183 
L 153.789106 66.308249 
L 160.967397 66.921489 
L 168.145688 67.767145 
L 175.32398 68.846313 
L 182.502271 70.171491 
L 189.680563 71.759978 
L 196.62041 73.56591 
L 199.730171 74.46649 
L 201.165829 75.11919 
L 209.339558 80.252141 
L 217.471653 85.601126 
L 227.266623 92.287357 
L 239.928603 101.225025 
L 251.554502 109.671558 
L 262.899136 118.165544 
L 267.507674 121.706774 
L 268.89906 123.04402 
L 274.467817 129.730251 
L 280.127035 136.873672 
L 285.869668 144.46594 
L 292.605484 153.800683 
L 299.069062 163.161407 
L 305.273415 172.522131 
L 310.388681 180.545608 
L 312.004849 183.220101 
L 313.382978 185.894593 
L 317.454151 195.612821 
L 320.448293 203.278794 
L 323.320913 211.302271 
L 325.459008 217.988503 
L 326.967717 223.337487 
L 327.645363 226.01198 
L 327.772465 227.349226 
L 327.276964 231.360965 
L 326.602433 235.372704 
L 325.747673 239.384442 
L 324.632442 243.656191 
L 323.196784 248.221781 
L 321.761126 252.122296 
L 320.325467 255.561903 
L 318.495181 259.443136 
L 316.350475 263.454874 
L 314.582834 266.41603 
L 312.97957 268.803859 
L 311.649421 270.141106 
L 308.840201 272.120257 
L 305.477324 274.152844 
L 302.920989 275.49009 
L 299.990244 276.827337 
L 295.919276 278.389807 
L 291.612302 279.723851 
L 287.043129 280.839075 
L 282.998352 281.608806 
L 278.691377 282.238467 
L 272.948744 282.813636 
L 267.206111 283.137978 
L 261.463477 283.248172 
L 254.285186 283.125817 
L 247.106894 282.747751 
L 241.364261 282.275647 
L 241.364261 282.275647 
" style="fill:none;stroke:#00cc99;stroke-width:1.5;"/>
   </g>
   <g id="LineCollection_7">
    <path clip-path="url(#pa39e5bac17)" d="M 262.899136 296.888199 
L 255.720844 296.306137 
L 248.542553 295.52023 
L 239.928603 294.320661 
L 232.750312 293.110066 
L 224.811857 291.537045 
L 218.393729 290.073941 
L 211.215437 288.212188 
L 204.037146 286.094183 
L 200.501339 284.850814 
L 199.730171 284.481965 
L 191.116221 278.941766 
L 181.066613 272.172766 
L 168.579593 263.454874 
L 153.6509 252.756905 
L 137.254026 240.721688 
L 126.511598 232.597216 
L 119.784601 227.349226 
L 117.897648 225.421823 
L 112.796654 219.325749 
L 107.464843 212.639518 
L 102.105407 205.591 
L 96.362774 197.676717 
L 90.064589 188.569085 
L 88.372939 185.894593 
L 87.610757 184.557347 
L 82.006191 172.769405 
L 77.651686 163.161407 
L 73.055088 152.463437 
L 69.825793 144.43996 
L 66.841558 136.416482 
L 64.591791 129.730251 
L 62.611731 123.04402 
L 62.430067 121.706774 
L 62.828199 116.357789 
L 63.503765 111.008804 
L 64.46073 105.659819 
L 65.70299 100.310834 
L 66.827353 96.299095 
L 68.123487 92.287357 
L 69.600685 88.275618 
L 71.270853 84.263879 
L 73.392241 79.765725 
L 75.26007 76.240402 
L 77.699216 72.117745 
L 80.570533 67.841467 
L 83.441849 64.07141 
L 86.313166 60.730498 
L 87.748824 59.199908 
L 89.184482 58.245147 
L 92.055799 57.023583 
L 94.927116 55.974439 
L 99.23409 54.684073 
L 103.541065 53.684741 
L 107.84804 52.932511 
L 112.155015 52.388333 
L 116.46199 52.024388 
L 122.204623 51.777388 
L 127.947256 51.757999 
L 135.125548 51.999597 
L 142.303839 52.491284 
L 149.482131 53.198122 
L 156.660422 54.102395 
L 163.838714 55.196724 
L 171.017005 56.485535 
L 178.195296 57.980323 
L 185.373588 59.697706 
L 192.551879 61.658345 
L 199.730171 63.887392 
L 201.165829 64.574035 
L 209.779779 70.114234 
L 219.829387 76.883234 
L 232.316407 85.601126 
L 247.2451 96.299095 
L 263.641974 108.334312 
L 274.384402 116.458784 
L 281.111399 121.706774 
L 282.998352 123.634177 
L 288.099346 129.730251 
L 293.431157 136.416482 
L 298.790593 143.465 
L 304.533226 151.379283 
L 310.831411 160.486915 
L 312.523061 163.161407 
L 313.285243 164.498653 
L 318.889809 176.286595 
L 323.244314 185.894593 
L 327.840912 196.592563 
L 331.070207 204.61604 
L 334.054442 212.639518 
L 336.304209 219.325749 
L 338.284269 226.01198 
L 338.465933 227.349226 
L 338.067801 232.698211 
L 337.392235 238.047196 
L 336.43527 243.396181 
L 335.19301 248.745166 
L 334.068647 252.756905 
L 332.772513 256.768643 
L 331.295315 260.780382 
L 329.625147 264.792121 
L 327.503759 269.290275 
L 325.63593 272.815598 
L 323.196784 276.938255 
L 320.325467 281.214533 
L 317.454151 284.98459 
L 314.582834 288.325502 
L 313.147176 289.856092 
L 311.711518 290.810853 
L 308.840201 292.032417 
L 305.968884 293.081561 
L 301.66191 294.371927 
L 297.354935 295.371259 
L 293.04796 296.123489 
L 288.740985 296.667667 
L 284.43401 297.031612 
L 278.691377 297.278612 
L 272.948744 297.298001 
L 265.770452 297.056403 
L 262.899136 296.888199 
L 262.899136 296.888199 
" style="fill:none;stroke:#00c29e;stroke-width:1.5;"/>
   </g>
   <g id="LineCollection_8">
    <path clip-path="url(#pa39e5bac17)" d="M 250.419421 307.584 
L 242.79992 306.242445 
L 234.18597 304.502458 
L 225.57202 302.513849 
L 218.393729 300.645209 
L 211.215437 298.561669 
L 204.037146 296.239446 
L 201.165829 295.238586 
L 199.24156 294.211538 
L 191.084975 288.862553 
L 181.066613 282.004153 
L 168.081214 272.815598 
L 147.764889 258.105889 
L 129.382915 244.536891 
L 117.348023 235.372704 
L 108.900796 228.686472 
L 107.2548 227.349226 
L 105.90025 226.01198 
L 100.347165 219.325749 
L 94.927116 212.431842 
L 89.184482 204.71847 
L 87.452853 201.941548 
L 82.554044 192.580824 
L 77.213758 181.882854 
L 71.464175 169.847638 
L 65.974656 157.812422 
L 61.906975 148.407977 
L 58.14129 139.090975 
L 57.6 137.684142 
L 57.6 137.684142 
" style="fill:none;stroke:#00b8a3;stroke-width:1.5;"/>
    <path clip-path="url(#pa39e5bac17)" d="M 343.296 261.517599 
L 343.110076 262.117628 
L 342.680747 263.454874 
L 342.234773 264.792121 
L 341.860342 265.87546 
L 341.771209 266.129367 
L 341.287173 267.466613 
L 340.78571 268.803859 
L 340.424683 269.735829 
L 340.26512 270.141106 
L 339.72306 271.478352 
L 339.162547 272.815598 
L 338.989025 273.2182 
L 338.579312 274.152844 
L 337.975018 275.49009 
L 337.553367 276.395791 
L 337.348895 276.827337 
L 336.698025 278.164583 
L 336.117709 279.320936 
L 336.025253 279.501829 
L 335.324559 280.839075 
L 334.68205 282.028536 
L 334.600688 282.176322 
L 333.846408 283.513568 
L 333.246392 284.546625 
L 333.066178 284.850814 
L 332.253953 286.18806 
L 331.810734 286.898191 
L 331.41115 287.525307 
L 330.535942 288.862553 
L 330.375075 289.102464 
L 329.623219 290.199799 
L 328.939417 291.170751 
L 328.67561 291.537045 
L 327.68786 292.874291 
L 327.503759 293.117532 
L 326.656103 294.211538 
L 326.068101 294.950753 
L 325.580676 295.548784 
L 324.632442 296.682539 
L 324.457885 296.88603 
L 323.282087 298.223276 
L 323.196784 298.318004 
L 322.047711 299.560523 
L 321.761126 299.862782 
L 320.752209 300.897769 
L 320.325467 301.324902 
L 319.38949 302.235015 
L 318.889809 302.709237 
L 317.952542 303.572261 
L 317.454151 304.020302 
L 316.433243 304.909508 
L 316.018492 305.262293 
L 314.822152 306.246754 
L 314.582834 306.439125 
L 313.147176 307.554065 
L 313.081173 307.584 
" style="fill:none;stroke:#00b8a3;stroke-width:1.5;"/>
    <path clip-path="url(#pa39e5bac17)" d="M 57.6 87.538401 
L 57.785924 86.938372 
L 58.215253 85.601126 
L 58.661227 84.263879 
L 59.035658 83.18054 
L 59.124791 82.926633 
L 59.608827 81.589387 
L 60.11029 80.252141 
L 60.471317 79.320171 
L 60.63088 78.914894 
L 61.17294 77.577648 
L 61.733453 76.240402 
L 61.906975 75.8378 
L 62.316688 74.903156 
L 62.920982 73.56591 
L 63.342633 72.660209 
L 63.547105 72.228663 
L 64.197975 70.891417 
L 64.778291 69.735064 
L 64.870747 69.554171 
L 65.571441 68.216925 
L 66.21395 67.027464 
L 66.295312 66.879678 
L 67.049592 65.542432 
L 67.649608 64.509375 
L 67.829822 64.205186 
L 68.642047 62.86794 
L 69.085266 62.157809 
L 69.48485 61.530693 
L 70.360058 60.193447 
L 70.520925 59.953536 
L 71.272781 58.856201 
L 71.956583 57.885249 
L 72.22039 57.518955 
L 73.20814 56.181709 
L 73.392241 55.938468 
L 74.239897 54.844462 
L 74.827899 54.105247 
L 75.315324 53.507216 
L 76.263558 52.373461 
L 76.438115 52.16997 
L 77.613913 50.832724 
L 77.699216 50.737996 
L 78.848289 49.495477 
L 79.134874 49.193218 
L 80.143791 48.158231 
L 80.570533 47.731098 
L 81.50651 46.820985 
L 82.006191 46.346763 
L 82.943458 45.483739 
L 83.441849 45.035698 
L 84.462757 44.146492 
L 84.877508 43.793707 
L 86.073848 42.809246 
L 86.313166 42.616875 
L 87.748824 41.501935 
L 87.814827 41.472 
" style="fill:none;stroke:#00b8a3;stroke-width:1.5;"/>
    <path clip-path="url(#pa39e5bac17)" d="M 150.476579 41.472 
L 158.09608 42.813555 
L 166.71003 44.553542 
L 175.32398 46.542151 
L 182.502271 48.410791 
L 189.680563 50.494331 
L 196.858854 52.816554 
L 199.730171 53.817414 
L 201.65444 54.844462 
L 209.811025 60.193447 
L 219.829387 67.051847 
L 232.814786 76.240402 
L 253.131111 90.950111 
L 271.513085 104.519109 
L 283.547977 113.683296 
L 291.995204 120.369528 
L 293.6412 121.706774 
L 294.99575 123.04402 
L 300.548835 129.730251 
L 305.968884 136.624158 
L 311.711518 144.33753 
L 313.443147 147.114452 
L 318.341956 156.475176 
L 323.682242 167.173146 
L 329.431825 179.208362 
L 334.921344 191.243578 
L 338.989025 200.648023 
L 342.75471 209.965025 
L 343.296 211.371858 
L 343.296 211.371858 
" style="fill:none;stroke:#00b8a3;stroke-width:1.5;"/>
   </g>
   <g id="LineCollection_9">
    <path clip-path="url(#pa39e5bac17)" d="M 208.868841 307.584 
L 202.601487 305.36326 
L 201.165829 304.82845 
L 198.924671 303.572261 
L 190.873371 298.223276 
L 181.066613 291.427805 
L 168.144978 282.176322 
L 145.175156 265.382917 
L 124.539174 250.082412 
L 112.155015 240.632245 
L 103.541065 233.806878 
L 95.738077 227.349226 
L 94.423588 226.01198 
L 89.184482 219.567712 
L 87.221552 216.651256 
L 82.602116 208.627779 
L 77.699216 199.649057 
L 72.620172 189.906332 
L 66.596827 177.871116 
L 60.471317 165.147402 
L 57.6 158.994596 
L 57.6 158.994596 
" style="fill:none;stroke:#00aea8;stroke-width:1.5;"/>
    <path clip-path="url(#pa39e5bac17)" d="M 343.296 291.660496 
L 342.604801 292.874291 
L 341.860342 294.142095 
L 341.818817 294.211538 
L 340.999461 295.548784 
L 340.424683 296.459684 
L 340.150531 296.88603 
L 339.267463 298.223276 
L 338.989025 298.633914 
L 338.348254 299.560523 
L 337.553367 300.677677 
L 337.393551 300.897769 
L 336.39737 302.235015 
L 336.117709 302.600605 
L 335.358504 303.572261 
L 334.68205 304.41455 
L 334.275718 304.909508 
L 333.246392 306.129866 
L 333.145531 306.246754 
L 331.96187 307.584 
" style="fill:none;stroke:#00aea8;stroke-width:1.5;"/>
    <path clip-path="url(#pa39e5bac17)" d="M 57.6 57.395504 
L 58.291199 56.181709 
L 59.035658 54.913905 
L 59.077183 54.844462 
L 59.896539 53.507216 
L 60.471317 52.596316 
L 60.745469 52.16997 
L 61.628537 50.832724 
L 61.906975 50.422086 
L 62.547746 49.495477 
L 63.342633 48.378323 
L 63.502449 48.158231 
L 64.49863 46.820985 
L 64.778291 46.455395 
L 65.537496 45.483739 
L 66.21395 44.64145 
L 66.620282 44.146492 
L 67.649608 42.926134 
L 67.750469 42.809246 
L 68.93413 41.472 
" style="fill:none;stroke:#00aea8;stroke-width:1.5;"/>
    <path clip-path="url(#pa39e5bac17)" d="M 192.027159 41.472 
L 198.294513 43.69274 
L 199.730171 44.22755 
L 201.971329 45.483739 
L 210.022629 50.832724 
L 219.829387 57.628195 
L 232.751022 66.879678 
L 255.720844 83.673083 
L 276.356826 98.973588 
L 288.740985 108.423755 
L 297.354935 115.249122 
L 305.157923 121.706774 
L 306.472412 123.04402 
L 311.711518 129.488288 
L 313.674448 132.404744 
L 318.293884 140.428221 
L 323.196784 149.406943 
L 328.275828 159.149668 
L 334.299173 171.184884 
L 340.424683 183.908598 
L 343.296 190.061404 
L 343.296 190.061404 
" style="fill:none;stroke:#00aea8;stroke-width:1.5;"/>
   </g>
   <g id="LineCollection_10">
    <path clip-path="url(#pa39e5bac17)" d="M 191.283169 307.584 
L 182.502271 301.485959 
L 170.519546 292.874291 
L 152.338955 279.501829 
L 120.768965 255.994257 
L 109.283698 247.207865 
L 99.23409 239.242682 
L 91.334428 232.698211 
L 88.303728 230.023719 
L 87.030282 228.686472 
L 85.847289 227.349226 
L 84.856315 226.01198 
L 79.920184 217.988503 
L 75.253157 209.965025 
L 70.073431 200.604302 
L 64.410299 189.906332 
L 57.6 176.535278 
L 57.6 176.535278 
" style="fill:none;stroke:#00a3ae;stroke-width:1.5;"/>
    <path clip-path="url(#pa39e5bac17)" d="M 209.612831 41.472 
L 218.393729 47.570041 
L 230.376454 56.181709 
L 248.557045 69.554171 
L 280.127035 93.061743 
L 291.612302 101.848135 
L 301.66191 109.813318 
L 309.561572 116.357789 
L 312.592272 119.032281 
L 313.865718 120.369528 
L 315.048711 121.706774 
L 316.039685 123.04402 
L 320.975816 131.067497 
L 325.642843 139.090975 
L 330.822569 148.451698 
L 336.485701 159.149668 
L 343.296 172.520722 
L 343.296 172.520722 
" style="fill:none;stroke:#00a3ae;stroke-width:1.5;"/>
   </g>
   <g id="LineCollection_11">
    <path clip-path="url(#pa39e5bac17)" d="M 178.89387 307.584 
L 166.71003 298.723018 
L 146.249745 283.513568 
L 116.007356 260.780382 
L 103.541065 251.133455 
L 93.907829 243.396181 
L 89.08942 239.384442 
L 87.663673 238.047196 
L 80.428171 230.023719 
L 77.699216 226.819688 
L 76.263245 224.674734 
L 71.370484 216.651256 
L 66.21395 207.747012 
L 60.781364 197.929809 
L 57.6 192.0064 
L 57.6 192.0064 
" style="fill:none;stroke:#0099b2;stroke-width:1.5;"/>
    <path clip-path="url(#pa39e5bac17)" d="M 222.00213 41.472 
L 234.18597 50.332982 
L 254.646255 65.542432 
L 284.888644 88.275618 
L 297.354935 97.922545 
L 306.988171 105.659819 
L 311.80658 109.671558 
L 313.232327 111.008804 
L 320.467829 119.032281 
L 323.196784 122.236312 
L 324.632755 124.381266 
L 329.525516 132.404744 
L 334.68205 141.308988 
L 340.114636 151.126191 
L 343.296 157.0496 
L 343.296 157.0496 
" style="fill:none;stroke:#0099b2;stroke-width:1.5;"/>
   </g>
   <g id="LineCollection_12">
    <path clip-path="url(#pa39e5bac17)" d="M 167.459416 307.584 
L 150.917789 295.270482 
L 120.768965 272.520531 
L 105.520553 260.780382 
L 94.927116 252.357883 
L 88.923794 247.40792 
L 87.501368 246.070673 
L 79.134874 236.992968 
L 71.782424 228.686472 
L 70.520925 227.204692 
L 68.803903 224.674734 
L 63.342633 215.743761 
L 58.415414 207.290533 
L 57.6 205.859989 
L 57.6 205.859989 
" style="fill:none;stroke:#008fb8;stroke-width:1.5;"/>
    <path clip-path="url(#pa39e5bac17)" d="M 233.436584 41.472 
L 249.978211 53.785518 
L 280.127035 76.535469 
L 295.375447 88.275618 
L 305.968884 96.698117 
L 311.972206 101.64808 
L 313.394632 102.985327 
L 321.761126 112.063032 
L 329.113576 120.369528 
L 330.375075 121.851308 
L 332.092097 124.381266 
L 337.553367 133.312239 
L 342.480586 141.765467 
L 343.296 143.196011 
L 343.296 143.196011 
" style="fill:none;stroke:#008fb8;stroke-width:1.5;"/>
   </g>
   <g id="LineCollection_13">
    <path clip-path="url(#pa39e5bac17)" d="M 156.674937 307.584 
L 136.561206 292.427792 
L 113.590673 274.8879 
L 100.669749 264.785186 
L 90.620141 256.674337 
L 87.657311 254.094151 
L 78.88257 244.733427 
L 70.410069 235.372704 
L 63.342633 227.266817 
L 61.574547 224.674734 
L 57.6 218.27438 
L 57.6 218.27438 
" style="fill:none;stroke:#0085bc;stroke-width:1.5;"/>
    <path clip-path="url(#pa39e5bac17)" d="M 244.221063 41.472 
L 264.334794 56.628208 
L 287.305327 74.1681 
L 300.226251 84.270814 
L 310.275859 92.381663 
L 313.238689 94.961849 
L 322.01343 104.322573 
L 330.485931 113.683296 
L 337.553367 121.789183 
L 339.321453 124.381266 
L 343.296 130.78162 
L 343.296 130.78162 
" style="fill:none;stroke:#0085bc;stroke-width:1.5;"/>
   </g>
   <g id="LineCollection_14">
    <path clip-path="url(#pa39e5bac17)" d="M 146.381724 307.584 
L 145.175156 306.673736 
L 144.609187 306.246754 
L 143.739497 305.589683 
L 142.839228 304.909508 
L 142.303839 304.504473 
L 141.071622 303.572261 
L 140.868181 303.418167 
L 139.432523 302.330275 
L 139.306899 302.235015 
L 137.996864 301.240553 
L 137.545346 300.897769 
L 136.561206 300.149915 
L 135.785699 299.560523 
L 135.125548 299.058376 
L 134.027883 298.223276 
L 133.689889 297.965941 
L 132.271853 296.88603 
L 132.254231 296.872601 
L 130.818573 295.77716 
L 130.519405 295.548784 
L 129.382915 294.680741 
L 128.768906 294.211538 
L 127.947256 293.583368 
L 127.020318 292.874291 
L 126.511598 292.484985 
L 125.273737 291.537045 
L 125.07594 291.385525 
L 123.640281 290.284498 
L 123.530009 290.199799 
L 122.204623 289.181519 
L 121.789888 288.862553 
L 120.768965 288.077222 
L 120.052313 287.525307 
L 119.333307 286.971494 
L 118.317509 286.18806 
L 117.897648 285.864209 
L 116.585722 284.850814 
L 116.46199 284.755231 
L 115.026332 283.643813 
L 114.858449 283.513568 
L 113.590673 282.529978 
L 113.135703 282.176322 
L 112.155015 281.413999 
L 111.416934 280.839075 
L 110.719357 280.295697 
L 109.702485 279.501829 
L 109.283698 279.174884 
L 107.992715 278.164583 
L 107.84804 278.051363 
L 106.412382 276.924483 
L 106.289013 276.827337 
L 104.976724 275.793969 
L 104.591955 275.49009 
L 103.541065 274.660106 
L 102.900794 274.152844 
L 102.105407 273.522659 
L 101.215939 272.815598 
L 100.669749 272.381383 
L 99.537808 271.478352 
L 99.23409 271.236026 
L 97.866826 270.141106 
L 97.798432 270.086326 
L 96.362774 268.931408 
L 96.204893 268.803859 
L 94.927116 267.771347 
L 94.551586 267.466613 
L 93.491457 266.60611 
L 92.906704 266.129367 
L 92.055799 265.4354 
L 91.270665 264.792121 
L 90.620141 264.258913 
L 89.643879 263.454874 
L 89.184482 263.076336 
L 88.121645 262.117628 
L 87.748824 261.781141 
L 86.78872 260.780382 
L 86.313166 260.284361 
L 85.509723 259.443136 
L 84.877508 258.780685 
L 84.235851 258.105889 
L 83.441849 257.270155 
L 82.967029 256.768643 
L 82.006191 255.752797 
L 81.703196 255.431397 
L 80.570533 254.228617 
L 80.444301 254.094151 
L 79.190698 252.756905 
L 79.134874 252.697251 
L 77.942848 251.419658 
L 77.699216 251.158148 
L 76.699839 250.082412 
L 76.263558 249.61203 
L 75.46167 248.745166 
L 74.827899 248.058823 
L 74.228355 247.40792 
L 73.392241 246.49843 
L 72.999918 246.070673 
L 71.956583 244.930735 
L 71.776393 244.733427 
L 70.558047 243.396181 
L 70.520925 243.355313 
L 69.345788 242.058935 
L 69.085266 241.770787 
L 68.13857 240.721688 
L 67.649608 240.17833 
L 66.93647 239.384442 
L 66.21395 238.577727 
L 65.739572 238.047196 
L 64.778291 236.968742 
L 64.547967 236.70995 
L 63.36186 235.372704 
L 63.342633 235.350933 
L 62.182479 234.035457 
L 61.906975 233.721897 
L 61.008684 232.698211 
L 60.471317 232.083408 
L 59.840602 231.360965 
L 59.035658 230.435114 
L 58.678364 230.023719 
L 57.6 228.776636 
" style="fill:none;stroke:#007ac2;stroke-width:1.5;"/>
    <path clip-path="url(#pa39e5bac17)" d="M 254.514276 41.472 
L 255.720844 42.382264 
L 256.286813 42.809246 
L 257.156503 43.466317 
L 258.056772 44.146492 
L 258.592161 44.551527 
L 259.824378 45.483739 
L 260.027819 45.637833 
L 261.463477 46.725725 
L 261.589101 46.820985 
L 262.899136 47.815447 
L 263.350654 48.158231 
L 264.334794 48.906085 
L 265.110301 49.495477 
L 265.770452 49.997624 
L 266.868117 50.832724 
L 267.206111 51.090059 
L 268.624147 52.16997 
L 268.641769 52.183399 
L 270.077427 53.27884 
L 270.376595 53.507216 
L 271.513085 54.375259 
L 272.127094 54.844462 
L 272.948744 55.472632 
L 273.875682 56.181709 
L 274.384402 56.571015 
L 275.622263 57.518955 
L 275.82006 57.670475 
L 277.255719 58.771502 
L 277.365991 58.856201 
L 278.691377 59.874481 
L 279.106112 60.193447 
L 280.127035 60.978778 
L 280.843687 61.530693 
L 281.562693 62.084506 
L 282.578491 62.86794 
L 282.998352 63.191791 
L 284.310278 64.205186 
L 284.43401 64.300769 
L 285.869668 65.412187 
L 286.037551 65.542432 
L 287.305327 66.526022 
L 287.760297 66.879678 
L 288.740985 67.642001 
L 289.479066 68.216925 
L 290.176643 68.760303 
L 291.193515 69.554171 
L 291.612302 69.881116 
L 292.903285 70.891417 
L 293.04796 71.004637 
L 294.483618 72.131517 
L 294.606987 72.228663 
L 295.919276 73.262031 
L 296.304045 73.56591 
L 297.354935 74.395894 
L 297.995206 74.903156 
L 298.790593 75.533341 
L 299.680061 76.240402 
L 300.226251 76.674617 
L 301.358192 77.577648 
L 301.66191 77.819974 
L 303.029174 78.914894 
L 303.097568 78.969674 
L 304.533226 80.124592 
L 304.691107 80.252141 
L 305.968884 81.284653 
L 306.344414 81.589387 
L 307.404543 82.44989 
L 307.989296 82.926633 
L 308.840201 83.6206 
L 309.625335 84.263879 
L 310.275859 84.797087 
L 311.252121 85.601126 
L 311.711518 85.979664 
L 312.774355 86.938372 
L 313.147176 87.274859 
L 314.10728 88.275618 
L 314.582834 88.771639 
L 315.386277 89.612864 
L 316.018492 90.275315 
L 316.660149 90.950111 
L 317.454151 91.785845 
L 317.928971 92.287357 
L 318.889809 93.303203 
L 319.192804 93.624603 
L 320.325467 94.827383 
L 320.451699 94.961849 
L 321.705302 96.299095 
L 321.761126 96.358749 
L 322.953152 97.636342 
L 323.196784 97.897852 
L 324.196161 98.973588 
L 324.632442 99.44397 
L 325.43433 100.310834 
L 326.068101 100.997177 
L 326.667645 101.64808 
L 327.503759 102.55757 
L 327.896082 102.985327 
L 328.939417 104.125265 
L 329.119607 104.322573 
L 330.337953 105.659819 
L 330.375075 105.700687 
L 331.550212 106.997065 
L 331.810734 107.285213 
L 332.75743 108.334312 
L 333.246392 108.87767 
L 333.95953 109.671558 
L 334.68205 110.478273 
L 335.156428 111.008804 
L 336.117709 112.087258 
L 336.348033 112.34605 
L 337.53414 113.683296 
L 337.553367 113.705067 
L 338.713521 115.020543 
L 338.989025 115.334103 
L 339.887316 116.357789 
L 340.424683 116.972592 
L 341.055398 117.695035 
L 341.860342 118.620886 
L 342.217636 119.032281 
L 343.296 120.279364 
" style="fill:none;stroke:#007ac2;stroke-width:1.5;"/>
   </g>
   <g id="LineCollection_15">
    <path clip-path="url(#pa39e5bac17)" d="M 136.4937 307.584 
L 135.125548 306.543977 
L 134.734622 306.246754 
L 133.689889 305.45132 
L 132.978438 304.909508 
L 132.254231 304.357274 
L 131.225075 303.572261 
L 130.818573 303.261833 
L 129.474488 302.235015 
L 129.382915 302.164984 
L 127.947256 301.065795 
L 127.727981 300.897769 
L 126.511598 299.964813 
L 125.984835 299.560523 
L 125.07594 298.862373 
L 124.244563 298.223276 
L 123.640281 297.758418 
L 122.507244 296.88603 
L 122.204623 296.65288 
L 120.772987 295.548784 
L 120.768965 295.545681 
L 119.333307 294.435631 
L 119.043849 294.211538 
L 117.897648 293.323763 
L 117.318149 292.874291 
L 116.46199 292.209983 
L 115.596048 291.537045 
L 115.026332 291.094171 
L 113.877756 290.199799 
L 113.590673 289.976198 
L 112.163505 288.862553 
L 112.155015 288.855927 
L 110.719357 287.732259 
L 110.455522 287.525307 
L 109.283698 286.605991 
L 108.752218 286.18806 
L 107.84804 285.476985 
L 107.053818 284.850814 
L 106.412382 284.345066 
L 105.360625 283.513568 
L 104.976724 283.210051 
L 103.672955 282.176322 
L 103.541065 282.071747 
L 102.105407 280.929555 
L 101.992091 280.839075 
L 100.669749 279.783224 
L 100.318523 279.501829 
L 99.23409 278.633002 
L 98.651515 278.164583 
L 97.798432 277.478663 
L 96.991411 276.827337 
L 96.362774 276.319975 
L 95.338563 275.49009 
L 94.927116 275.156699 
L 93.693324 274.152844 
L 93.491457 273.98859 
L 92.056048 272.815598 
L 92.055799 272.815395 
L 90.620141 271.636137 
L 90.428938 271.478352 
L 89.184482 270.451276 
L 88.840291 270.141106 
L 87.748824 269.157368 
L 87.407962 268.803859 
L 86.313166 267.668209 
L 86.119545 267.466613 
L 84.877508 266.173077 
L 84.835687 266.129367 
L 83.557106 264.792121 
L 83.441849 264.671512 
L 82.283145 263.454874 
L 82.006191 263.163935 
L 81.013396 262.117628 
L 80.570533 261.650633 
L 79.74778 260.780382 
L 79.134874 260.13167 
L 78.486232 259.443136 
L 77.699216 258.607094 
L 77.228698 258.105889 
L 76.263558 257.076932 
L 75.975139 256.768643 
L 74.827899 255.541194 
L 74.725527 255.431397 
L 73.48039 254.094151 
L 73.392241 253.999338 
L 72.239795 252.756905 
L 71.956583 252.451174 
L 71.003102 251.419658 
L 70.520925 250.897258 
L 69.770333 250.082412 
L 69.085266 249.337515 
L 68.541517 248.745166 
L 67.649608 247.771851 
L 67.316696 247.40792 
L 66.21395 246.200149 
L 66.095923 246.070673 
L 64.879797 244.733427 
L 64.778291 244.621524 
L 63.66846 243.396181 
L 63.342633 243.035588 
L 62.461351 242.058935 
L 61.906975 241.443004 
L 61.25856 240.721688 
L 60.471317 239.84356 
L 60.060186 239.384442 
L 59.035658 238.237021 
L 58.866339 238.047196 
L 57.6775 236.70995 
L 57.6 236.622442 
" style="fill:none;stroke:#0070c7;stroke-width:1.5;"/>
    <path clip-path="url(#pa39e5bac17)" d="M 264.4023 41.472 
L 265.770452 42.512023 
L 266.161378 42.809246 
L 267.206111 43.60468 
L 267.917562 44.146492 
L 268.641769 44.698726 
L 269.670925 45.483739 
L 270.077427 45.794167 
L 271.421512 46.820985 
L 271.513085 46.891016 
L 272.948744 47.990205 
L 273.168019 48.158231 
L 274.384402 49.091187 
L 274.911165 49.495477 
L 275.82006 50.193627 
L 276.651437 50.832724 
L 277.255719 51.297582 
L 278.388756 52.16997 
L 278.691377 52.40312 
L 280.123013 53.507216 
L 280.127035 53.510319 
L 281.562693 54.620369 
L 281.852151 54.844462 
L 282.998352 55.732237 
L 283.577851 56.181709 
L 284.43401 56.846017 
L 285.299952 57.518955 
L 285.869668 57.961829 
L 287.018244 58.856201 
L 287.305327 59.079802 
L 288.732495 60.193447 
L 288.740985 60.200073 
L 290.176643 61.323741 
L 290.440478 61.530693 
L 291.612302 62.450009 
L 292.143782 62.86794 
L 293.04796 63.579015 
L 293.842182 64.205186 
L 294.483618 64.710934 
L 295.535375 65.542432 
L 295.919276 65.845949 
L 297.223045 66.879678 
L 297.354935 66.984253 
L 298.790593 68.126445 
L 298.903909 68.216925 
L 300.226251 69.272776 
L 300.577477 69.554171 
L 301.66191 70.422998 
L 302.244485 70.891417 
L 303.097568 71.577337 
L 303.904589 72.228663 
L 304.533226 72.736025 
L 305.557437 73.56591 
L 305.968884 73.899301 
L 307.202676 74.903156 
L 307.404543 75.06741 
L 308.839952 76.240402 
L 308.840201 76.240605 
L 310.275859 77.419863 
L 310.467062 77.577648 
L 311.711518 78.604724 
L 312.055709 78.914894 
L 313.147176 79.898632 
L 313.488038 80.252141 
L 314.582834 81.387791 
L 314.776455 81.589387 
L 316.018492 82.882923 
L 316.060313 82.926633 
L 317.338894 84.263879 
L 317.454151 84.384488 
L 318.612855 85.601126 
L 318.889809 85.892065 
L 319.882604 86.938372 
L 320.325467 87.405367 
L 321.14822 88.275618 
L 321.761126 88.92433 
L 322.409768 89.612864 
L 323.196784 90.448906 
L 323.667302 90.950111 
L 324.632442 91.979068 
L 324.920861 92.287357 
L 326.068101 93.514806 
L 326.170473 93.624603 
L 327.41561 94.961849 
L 327.503759 95.056662 
L 328.656205 96.299095 
L 328.939417 96.604826 
L 329.892898 97.636342 
L 330.375075 98.158742 
L 331.125667 98.973588 
L 331.810734 99.718485 
L 332.354483 100.310834 
L 333.246392 101.284149 
L 333.579304 101.64808 
L 334.68205 102.855851 
L 334.800077 102.985327 
L 336.016203 104.322573 
L 336.117709 104.434476 
L 337.22754 105.659819 
L 337.553367 106.020412 
L 338.434649 106.997065 
L 338.989025 107.612996 
L 339.63744 108.334312 
L 340.424683 109.21244 
L 340.835814 109.671558 
L 341.860342 110.818979 
L 342.029661 111.008804 
L 343.2185 112.34605 
L 343.296 112.433558 
" style="fill:none;stroke:#0070c7;stroke-width:1.5;"/>
   </g>
   <g id="LineCollection_16">
    <path clip-path="url(#pa39e5bac17)" d="M 126.975352 307.584 
L 126.511598 307.228666 
L 125.230909 306.246754 
L 125.07594 306.127775 
L 123.640281 305.024214 
L 123.491252 304.909508 
L 122.204623 303.917965 
L 121.756474 303.572261 
L 120.768965 302.809638 
L 120.025711 302.235015 
L 119.333307 301.699163 
L 118.29905 300.897769 
L 117.897648 300.586462 
L 116.576599 299.560523 
L 116.46199 299.471445 
L 115.026332 298.35336 
L 114.859631 298.223276 
L 113.590673 297.232357 
L 113.147968 296.88603 
L 112.155015 296.108774 
L 111.441018 295.548784 
L 110.719357 294.982488 
L 109.738968 294.211538 
L 109.283698 293.853367 
L 108.042026 292.874291 
L 107.84804 292.721274 
L 106.412382 291.585835 
L 106.350887 291.537045 
L 104.976724 290.446448 
L 104.666804 290.199799 
L 103.541065 289.303664 
L 102.988565 288.862553 
L 102.105407 288.157314 
L 101.316425 287.525307 
L 100.669749 287.007219 
L 99.650648 286.18806 
L 99.23409 285.853196 
L 97.991503 284.850814 
L 97.798432 284.695055 
L 96.362774 283.532518 
L 96.339475 283.513568 
L 94.927116 282.364811 
L 94.696299 282.176322 
L 93.491457 281.192404 
L 93.060598 280.839075 
L 92.055799 280.015079 
L 91.432651 279.501829 
L 90.620141 278.832613 
L 89.812736 278.164583 
L 89.184482 277.644778 
L 88.277793 276.827337 
L 87.748824 276.350431 
L 86.9171 275.49009 
L 86.313166 274.865362 
L 85.626876 274.152844 
L 84.877508 273.3748 
L 84.34079 272.815598 
L 83.441849 271.878928 
L 83.058683 271.478352 
L 82.006191 270.377916 
L 81.780413 270.141106 
L 80.570533 268.871916 
L 80.505851 268.803859 
L 79.235552 267.466613 
L 79.134874 267.360582 
L 77.969158 266.129367 
L 77.699216 265.844166 
L 76.70614 264.792121 
L 76.263558 264.323075 
L 75.446424 263.454874 
L 74.827899 262.79739 
L 74.189949 262.117628 
L 73.392241 261.267173 
L 72.936668 260.780382 
L 71.956583 259.732469 
L 71.686546 259.443136 
L 70.520925 258.193305 
L 70.43956 258.105889 
L 69.196317 256.768643 
L 69.085266 256.649054 
L 67.95663 255.431397 
L 67.649608 255.09981 
L 66.720042 254.094151 
L 66.21395 253.545988 
L 65.486578 252.756905 
L 64.778291 251.987529 
L 64.256272 251.419658 
L 63.342633 250.424355 
L 63.029167 250.082412 
L 61.906975 248.856365 
L 61.80532 248.745166 
L 60.585347 247.40792 
L 60.471317 247.282657 
L 59.369244 246.070673 
L 59.035658 245.703083 
L 58.156591 244.733427 
L 57.6 244.118153 
" style="fill:none;stroke:#0066cc;stroke-width:1.5;"/>
    <path clip-path="url(#pa39e5bac17)" d="M 273.920648 41.472 
L 274.384402 41.827334 
L 275.665091 42.809246 
L 275.82006 42.928225 
L 277.255719 44.031786 
L 277.404748 44.146492 
L 278.691377 45.138035 
L 279.139526 45.483739 
L 280.127035 46.246362 
L 280.870289 46.820985 
L 281.562693 47.356837 
L 282.59695 48.158231 
L 282.998352 48.469538 
L 284.319401 49.495477 
L 284.43401 49.584555 
L 285.869668 50.70264 
L 286.036369 50.832724 
L 287.305327 51.823643 
L 287.748032 52.16997 
L 288.740985 52.947226 
L 289.454982 53.507216 
L 290.176643 54.073512 
L 291.157032 54.844462 
L 291.612302 55.202633 
L 292.853974 56.181709 
L 293.04796 56.334726 
L 294.483618 57.470165 
L 294.545113 57.518955 
L 295.919276 58.609552 
L 296.229196 58.856201 
L 297.354935 59.752336 
L 297.907435 60.193447 
L 298.790593 60.898686 
L 299.579575 61.530693 
L 300.226251 62.048781 
L 301.245352 62.86794 
L 301.66191 63.202804 
L 302.904497 64.205186 
L 303.097568 64.360945 
L 304.533226 65.523482 
L 304.556525 65.542432 
L 305.968884 66.691189 
L 306.199701 66.879678 
L 307.404543 67.863596 
L 307.835402 68.216925 
L 308.840201 69.040921 
L 309.463349 69.554171 
L 310.275859 70.223387 
L 311.083264 70.891417 
L 311.711518 71.411222 
L 312.618207 72.228663 
L 313.147176 72.705569 
L 313.9789 73.56591 
L 314.582834 74.190638 
L 315.269124 74.903156 
L 316.018492 75.6812 
L 316.55521 76.240402 
L 317.454151 77.177072 
L 317.837317 77.577648 
L 318.889809 78.678084 
L 319.115587 78.914894 
L 320.325467 80.184084 
L 320.390149 80.252141 
L 321.660448 81.589387 
L 321.761126 81.695418 
L 322.926842 82.926633 
L 323.196784 83.211834 
L 324.18986 84.263879 
L 324.632442 84.732925 
L 325.449576 85.601126 
L 326.068101 86.25861 
L 326.706051 86.938372 
L 327.503759 87.788827 
L 327.959332 88.275618 
L 328.939417 89.323531 
L 329.209454 89.612864 
L 330.375075 90.862695 
L 330.45644 90.950111 
L 331.699683 92.287357 
L 331.810734 92.406946 
L 332.93937 93.624603 
L 333.246392 93.95619 
L 334.175958 94.961849 
L 334.68205 95.510012 
L 335.409422 96.299095 
L 336.117709 97.068471 
L 336.639728 97.636342 
L 337.553367 98.631645 
L 337.866833 98.973588 
L 338.989025 100.199635 
L 339.09068 100.310834 
L 340.310653 101.64808 
L 340.424683 101.773343 
L 341.526756 102.985327 
L 341.860342 103.352917 
L 342.739409 104.322573 
L 343.296 104.937847 
" style="fill:none;stroke:#0066cc;stroke-width:1.5;"/>
   </g>
   <g id="LineCollection_17">
    <path clip-path="url(#pa39e5bac17)" d="M 117.813132 307.584 
L 116.46199 306.535177 
L 116.090971 306.246754 
L 115.026332 305.418018 
L 114.374117 304.909508 
L 113.590673 304.297941 
L 112.662671 303.572261 
L 112.155015 303.174849 
L 110.956752 302.235015 
L 110.719357 302.048635 
L 109.283698 300.91908 
L 109.256691 300.897769 
L 107.84804 299.785267 
L 107.564143 299.560523 
L 106.412382 298.648035 
L 105.877602 298.223276 
L 104.976724 297.507249 
L 104.197241 296.88603 
L 103.541065 296.362772 
L 102.523241 295.548784 
L 102.105407 295.214458 
L 100.855794 294.211538 
L 100.669749 294.062156 
L 99.23409 292.905569 
L 99.195418 292.874291 
L 97.798432 291.744029 
L 97.543512 291.537045 
L 96.362774 290.578058 
L 95.898782 290.199799 
L 94.927116 289.407483 
L 94.261438 288.862553 
L 93.491457 288.232124 
L 92.631692 287.525307 
L 92.055799 287.051797 
L 91.009758 286.18806 
L 90.620141 285.866314 
L 89.395851 284.850814 
L 89.184482 284.675481 
L 87.896523 283.513568 
L 87.748824 283.380319 
L 86.582386 282.176322 
L 86.313166 281.898427 
L 85.290552 280.839075 
L 84.877508 280.411189 
L 84.002688 279.501829 
L 83.441849 278.918847 
L 82.718596 278.164583 
L 82.006191 277.421632 
L 81.438094 276.827337 
L 80.570533 275.919758 
L 80.161016 275.49009 
L 79.134874 274.413427 
L 78.88721 274.152844 
L 77.699216 272.902823 
L 77.616538 272.815598 
L 76.349406 271.478352 
L 76.263558 271.387722 
L 75.085666 270.141106 
L 74.827899 269.868259 
L 73.824692 268.803859 
L 73.392241 268.34494 
L 72.5664 267.466613 
L 71.956583 266.817876 
L 71.310718 266.129367 
L 70.520925 265.287161 
L 70.057589 264.792121 
L 69.085266 263.752869 
L 68.806964 263.454874 
L 67.649608 262.215058 
L 67.558811 262.117628 
L 66.313625 260.780382 
L 66.21395 260.673241 
L 65.071329 259.443136 
L 64.778291 259.127436 
L 63.831435 258.105889 
L 63.342633 257.5781 
L 62.593956 256.768643 
L 61.906975 256.025207 
L 61.358917 255.431397 
L 60.471317 254.468708 
L 60.126352 254.094151 
L 59.035658 252.908534 
L 58.896306 252.756905 
L 57.669149 251.419658 
L 57.6 251.344169 
" style="fill:none;stroke:#005cd1;stroke-width:1.5;"/>
    <path clip-path="url(#pa39e5bac17)" d="M 283.082868 41.472 
L 284.43401 42.520823 
L 284.805029 42.809246 
L 285.869668 43.637982 
L 286.521883 44.146492 
L 287.305327 44.758059 
L 288.233329 45.483739 
L 288.740985 45.881151 
L 289.939248 46.820985 
L 290.176643 47.007365 
L 291.612302 48.13692 
L 291.639309 48.158231 
L 293.04796 49.270733 
L 293.331857 49.495477 
L 294.483618 50.407965 
L 295.018398 50.832724 
L 295.919276 51.548751 
L 296.698759 52.16997 
L 297.354935 52.693228 
L 298.372759 53.507216 
L 298.790593 53.841542 
L 300.040206 54.844462 
L 300.226251 54.993844 
L 301.66191 56.150431 
L 301.700582 56.181709 
L 303.097568 57.311971 
L 303.352488 57.518955 
L 304.533226 58.477942 
L 304.997218 58.856201 
L 305.968884 59.648517 
L 306.634562 60.193447 
L 307.404543 60.823876 
L 308.264308 61.530693 
L 308.840201 62.004203 
L 309.886242 62.86794 
L 310.275859 63.189686 
L 311.500149 64.205186 
L 311.711518 64.380519 
L 312.999477 65.542432 
L 313.147176 65.675681 
L 314.313614 66.879678 
L 314.582834 67.157573 
L 315.605448 68.216925 
L 316.018492 68.644811 
L 316.893312 69.554171 
L 317.454151 70.137153 
L 318.177404 70.891417 
L 318.889809 71.634368 
L 319.457906 72.228663 
L 320.325467 73.136242 
L 320.734984 73.56591 
L 321.761126 74.642573 
L 322.00879 74.903156 
L 323.196784 76.153177 
L 323.279462 76.240402 
L 324.546594 77.577648 
L 324.632442 77.668278 
L 325.810334 78.914894 
L 326.068101 79.187741 
L 327.071308 80.252141 
L 327.503759 80.71106 
L 328.3296 81.589387 
L 328.939417 82.238124 
L 329.585282 82.926633 
L 330.375075 83.768839 
L 330.838411 84.263879 
L 331.810734 85.303131 
L 332.089036 85.601126 
L 333.246392 86.840942 
L 333.337189 86.938372 
L 334.582375 88.275618 
L 334.68205 88.382759 
L 335.824671 89.612864 
L 336.117709 89.928564 
L 337.064565 90.950111 
L 337.553367 91.4779 
L 338.302044 92.287357 
L 338.989025 93.030793 
L 339.537083 93.624603 
L 340.424683 94.587292 
L 340.769648 94.961849 
L 341.860342 96.147466 
L 341.999694 96.299095 
L 343.226851 97.636342 
L 343.296 97.711831 
" style="fill:none;stroke:#005cd1;stroke-width:1.5;"/>
   </g>
   <g id="LineCollection_18">
    <path clip-path="url(#pa39e5bac17)" d="M 109.0114 307.584 
L 107.84804 306.666762 
L 107.316562 306.246754 
L 106.412382 305.531284 
L 105.628551 304.909508 
L 104.976724 304.391832 
L 103.947489 303.572261 
L 103.541065 303.248283 
L 102.273504 302.235015 
L 102.105407 302.100511 
L 100.669749 300.948134 
L 100.607229 300.897769 
L 99.23409 299.790643 
L 98.949619 299.560523 
L 97.798432 298.628576 
L 97.299521 298.223276 
L 96.362774 297.461786 
L 95.657082 296.88603 
L 94.927116 296.290124 
L 94.022453 295.548784 
L 93.491457 295.113435 
L 92.395786 294.211538 
L 92.055799 293.931561 
L 90.777234 292.874291 
L 90.620141 292.744342 
L 89.184482 291.551551 
L 89.1684 291.537045 
L 87.748824 290.256269 
L 87.693944 290.199799 
L 86.394935 288.862553 
L 86.313166 288.778349 
L 85.100636 287.525307 
L 84.877508 287.294692 
L 83.810386 286.18806 
L 83.441849 285.805842 
L 82.523948 284.850814 
L 82.006191 284.312081 
L 81.241099 283.513568 
L 80.570533 282.813682 
L 79.961633 282.176322 
L 79.134874 281.310902 
L 78.685358 280.839075 
L 77.699216 279.803984 
L 77.412095 279.501829 
L 76.263558 278.293155 
L 76.14168 278.164583 
L 74.87424 276.827337 
L 74.827899 276.778427 
L 73.610071 275.49009 
L 73.392241 275.259644 
L 72.348305 274.152844 
L 71.956583 273.737515 
L 71.088833 272.815598 
L 70.520925 272.212196 
L 69.831557 271.478352 
L 69.085266 270.683828 
L 68.576392 270.141106 
L 67.649608 269.152531 
L 67.323267 268.803859 
L 66.21395 267.618406 
L 66.072122 267.466613 
L 64.823132 266.129367 
L 64.778291 266.081323 
L 63.576733 264.792121 
L 63.342633 264.540851 
L 62.33217 263.454874 
L 61.906975 262.997698 
L 61.089433 262.117628 
L 60.471317 261.451885 
L 59.848522 260.780382 
L 59.035658 259.903409 
L 58.609447 259.443136 
L 57.6 258.352249 
" style="fill:none;stroke:#0051d6;stroke-width:1.5;"/>
    <path clip-path="url(#pa39e5bac17)" d="M 291.8846 41.472 
L 293.04796 42.389238 
L 293.579438 42.809246 
L 294.483618 43.524716 
L 295.267449 44.146492 
L 295.919276 44.664168 
L 296.948511 45.483739 
L 297.354935 45.807717 
L 298.622496 46.820985 
L 298.790593 46.955489 
L 300.226251 48.107866 
L 300.288771 48.158231 
L 301.66191 49.265357 
L 301.946381 49.495477 
L 303.097568 50.427424 
L 303.596479 50.832724 
L 304.533226 51.594214 
L 305.238918 52.16997 
L 305.968884 52.765876 
L 306.873547 53.507216 
L 307.404543 53.942565 
L 308.500214 54.844462 
L 308.840201 55.124439 
L 310.118766 56.181709 
L 310.275859 56.311658 
L 311.711518 57.504449 
L 311.7276 57.518955 
L 313.147176 58.799731 
L 313.202056 58.856201 
L 314.501065 60.193447 
L 314.582834 60.277651 
L 315.795364 61.530693 
L 316.018492 61.761308 
L 317.085614 62.86794 
L 317.454151 63.250158 
L 318.372052 64.205186 
L 318.889809 64.743919 
L 319.654901 65.542432 
L 320.325467 66.242318 
L 320.934367 66.879678 
L 321.761126 67.745098 
L 322.210642 68.216925 
L 323.196784 69.252016 
L 323.483905 69.554171 
L 324.632442 70.762845 
L 324.75432 70.891417 
L 326.02176 72.228663 
L 326.068101 72.277573 
L 327.285929 73.56591 
L 327.503759 73.796356 
L 328.547695 74.903156 
L 328.939417 75.318485 
L 329.807167 76.240402 
L 330.375075 76.843804 
L 331.064443 77.577648 
L 331.810734 78.372172 
L 332.319608 78.914894 
L 333.246392 79.903469 
L 333.572733 80.252141 
L 334.68205 81.437594 
L 334.823878 81.589387 
L 336.072868 82.926633 
L 336.117709 82.974677 
L 337.319267 84.263879 
L 337.553367 84.515149 
L 338.56383 85.601126 
L 338.989025 86.058302 
L 339.806567 86.938372 
L 340.424683 87.604115 
L 341.047478 88.275618 
L 341.860342 89.152591 
L 342.286553 89.612864 
L 343.296 90.703751 
" style="fill:none;stroke:#0051d6;stroke-width:1.5;"/>
   </g>
   <g id="LineCollection_19">
    <path clip-path="url(#pa39e5bac17)" d="M 100.57289 307.584 
L 99.23409 306.506851 
L 98.911854 306.246754 
L 97.798432 305.346903 
L 97.259057 304.909508 
L 96.362774 304.181845 
L 95.614598 303.572261 
L 94.927116 303.011543 
L 93.978575 302.235015 
L 93.491457 301.835859 
L 92.351089 300.897769 
L 92.055799 300.654654 
L 90.732237 299.560523 
L 90.620141 299.467788 
L 89.184482 298.274877 
L 89.12717 298.223276 
L 87.748824 296.981482 
L 87.655688 296.88603 
L 86.351756 295.548784 
L 86.313166 295.509178 
L 85.053158 294.211538 
L 84.877508 294.030566 
L 83.758923 292.874291 
L 83.441849 292.546421 
L 82.468773 291.537045 
L 82.006191 291.057072 
L 81.182445 290.199799 
L 80.570533 289.562838 
L 79.899692 288.862553 
L 79.134874 288.064025 
L 78.620282 287.525307 
L 77.699216 286.560929 
L 77.343998 286.18806 
L 76.263558 285.053829 
L 76.070635 284.850814 
L 74.827899 283.542992 
L 74.800003 283.513568 
L 73.532723 282.176322 
L 73.392241 282.028069 
L 72.267964 280.839075 
L 71.956583 280.509769 
L 71.005411 279.501829 
L 70.520925 278.988427 
L 69.744929 278.164583 
L 69.085266 277.464244 
L 68.486392 276.827337 
L 67.649608 275.937401 
L 67.22969 275.49009 
L 66.21395 274.408063 
L 65.974723 274.152844 
L 64.778291 272.876374 
L 64.721405 272.815598 
L 63.470272 271.478352 
L 63.342633 271.341891 
L 62.220896 270.141106 
L 61.906975 269.805014 
L 60.972946 268.803859 
L 60.471317 268.266076 
L 59.726386 267.466613 
L 59.035658 266.725141 
L 58.481187 266.129367 
L 57.6 265.182252 
" style="fill:none;stroke:#0047dc;stroke-width:1.5;"/>
    <path clip-path="url(#pa39e5bac17)" d="M 300.32311 41.472 
L 301.66191 42.549149 
L 301.984146 42.809246 
L 303.097568 43.709097 
L 303.636943 44.146492 
L 304.533226 44.874155 
L 305.281402 45.483739 
L 305.968884 46.044457 
L 306.917425 46.820985 
L 307.404543 47.220141 
L 308.544911 48.158231 
L 308.840201 48.401346 
L 310.163763 49.495477 
L 310.275859 49.588212 
L 311.711518 50.781123 
L 311.76883 50.832724 
L 313.147176 52.074518 
L 313.240312 52.16997 
L 314.544244 53.507216 
L 314.582834 53.546822 
L 315.842842 54.844462 
L 316.018492 55.025434 
L 317.137077 56.181709 
L 317.454151 56.509579 
L 318.427227 57.518955 
L 318.889809 57.998928 
L 319.713555 58.856201 
L 320.325467 59.493162 
L 320.996308 60.193447 
L 321.761126 60.991975 
L 322.275718 61.530693 
L 323.196784 62.495071 
L 323.552002 62.86794 
L 324.632442 64.002171 
L 324.825365 64.205186 
L 326.068101 65.513008 
L 326.095997 65.542432 
L 327.363277 66.879678 
L 327.503759 67.027931 
L 328.628036 68.216925 
L 328.939417 68.546231 
L 329.890589 69.554171 
L 330.375075 70.067573 
L 331.151071 70.891417 
L 331.810734 71.591756 
L 332.409608 72.228663 
L 333.246392 73.118599 
L 333.66631 73.56591 
L 334.68205 74.647937 
L 334.921277 74.903156 
L 336.117709 76.179626 
L 336.174595 76.240402 
L 337.425728 77.577648 
L 337.553367 77.714109 
L 338.675104 78.914894 
L 338.989025 79.250986 
L 339.923054 80.252141 
L 340.424683 80.789924 
L 341.169614 81.589387 
L 341.860342 82.330859 
L 342.414813 82.926633 
L 343.296 83.873748 
" style="fill:none;stroke:#0047dc;stroke-width:1.5;"/>
   </g>
   <g id="LineCollection_20">
    <path clip-path="url(#pa39e5bac17)" d="M 92.501718 307.584 
L 92.055799 307.217807 
L 90.878017 306.246754 
L 90.620141 306.033877 
L 89.263707 304.909508 
L 89.184482 304.843763 
L 87.768076 303.572261 
L 87.748824 303.554961 
L 86.455023 302.235015 
L 86.313166 302.090157 
L 85.149424 300.897769 
L 84.877508 300.618929 
L 83.848713 299.560523 
L 83.441849 299.141643 
L 82.552573 298.223276 
L 82.006191 297.658659 
L 81.260705 296.88603 
L 80.570533 296.170331 
L 79.972822 295.548784 
L 79.134874 294.677004 
L 78.688652 294.211538 
L 77.699216 293.179012 
L 77.40794 292.874291 
L 76.263558 291.676681 
L 76.130442 291.537045 
L 74.85609 290.199799 
L 74.827899 290.1702 
L 73.58526 288.862553 
L 73.392241 288.659401 
L 72.316966 287.525307 
L 71.956583 287.145161 
L 71.051015 286.18806 
L 70.520925 285.627752 
L 69.787232 284.850814 
L 69.085266 284.107427 
L 68.525453 283.513568 
L 67.649608 282.584423 
L 67.265526 282.176322 
L 66.21395 281.058962 
L 66.007312 280.839075 
L 64.778291 279.531246 
L 64.750684 279.501829 
L 63.496252 278.164583 
L 63.342633 278.000809 
L 62.24329 276.827337 
L 61.906975 276.468341 
L 60.991574 275.49009 
L 60.471317 274.934101 
L 59.741027 274.152844 
L 59.035658 273.398215 
L 58.491583 272.815598 
L 57.6 271.860787 
" style="fill:none;stroke:#003de0;stroke-width:1.5;"/>
    <path clip-path="url(#pa39e5bac17)" d="M 308.394282 41.472 
L 308.840201 41.838193 
L 310.017983 42.809246 
L 310.275859 43.022123 
L 311.632293 44.146492 
L 311.711518 44.212237 
L 313.127924 45.483739 
L 313.147176 45.501039 
L 314.440977 46.820985 
L 314.582834 46.965843 
L 315.746576 48.158231 
L 316.018492 48.437071 
L 317.047287 49.495477 
L 317.454151 49.914357 
L 318.343427 50.832724 
L 318.889809 51.397341 
L 319.635295 52.16997 
L 320.325467 52.885669 
L 320.923178 53.507216 
L 321.761126 54.378996 
L 322.207348 54.844462 
L 323.196784 55.876988 
L 323.48806 56.181709 
L 324.632442 57.379319 
L 324.765558 57.518955 
L 326.03991 58.856201 
L 326.068101 58.8858 
L 327.31074 60.193447 
L 327.503759 60.396599 
L 328.579034 61.530693 
L 328.939417 61.910839 
L 329.844985 62.86794 
L 330.375075 63.428248 
L 331.108768 64.205186 
L 331.810734 64.948573 
L 332.370547 65.542432 
L 333.246392 66.471577 
L 333.630474 66.879678 
L 334.68205 67.997038 
L 334.888688 68.216925 
L 336.117709 69.524754 
L 336.145316 69.554171 
L 337.399748 70.891417 
L 337.553367 71.055191 
L 338.65271 72.228663 
L 338.989025 72.587659 
L 339.904426 73.56591 
L 340.424683 74.121899 
L 341.154973 74.903156 
L 341.860342 75.657785 
L 342.404417 76.240402 
L 343.296 77.195213 
" style="fill:none;stroke:#003de0;stroke-width:1.5;"/>
   </g>
   <g id="LineCollection_21">
    <path clip-path="url(#pa39e5bac17)" d="M 85.395195 307.584 
L 84.877508 307.056737 
L 84.084759 306.246754 
L 83.441849 305.589065 
L 82.779571 304.909508 
L 82.006191 304.115068 
L 81.479294 303.572261 
L 80.570533 302.635119 
L 80.183606 302.235015 
L 79.134874 301.149588 
L 78.892199 300.897769 
L 77.699216 299.658838 
L 77.604779 299.560523 
L 76.321401 298.223276 
L 76.263558 298.162952 
L 75.041999 296.88603 
L 74.827899 296.662104 
L 73.76576 295.548784 
L 73.392241 295.157083 
L 72.49244 294.211538 
L 71.956583 293.648215 
L 71.221811 292.874291 
L 70.520925 292.135813 
L 69.953659 291.537045 
L 69.085266 290.620179 
L 68.687779 290.199799 
L 67.649608 289.101598 
L 67.423982 288.862553 
L 66.21395 287.58034 
L 66.162089 287.525307 
L 64.902524 286.18806 
L 64.778291 286.056135 
L 63.644764 284.850814 
L 63.342633 284.529528 
L 62.388414 283.513568 
L 61.906975 283.000959 
L 61.133347 282.176322 
L 60.471317 281.470628 
L 59.879444 280.839075 
L 59.035658 279.938716 
L 58.6266 279.501829 
L 57.6 278.405386 
" style="fill:none;stroke:#0033e6;stroke-width:1.5;"/>
    <path clip-path="url(#pa39e5bac17)" d="M 315.500805 41.472 
L 316.018492 41.999263 
L 316.811241 42.809246 
L 317.454151 43.466935 
L 318.116429 44.146492 
L 318.889809 44.940932 
L 319.416706 45.483739 
L 320.325467 46.420881 
L 320.712394 46.820985 
L 321.761126 47.906412 
L 322.003801 48.158231 
L 323.196784 49.397162 
L 323.291221 49.495477 
L 324.574599 50.832724 
L 324.632442 50.893048 
L 325.854001 52.16997 
L 326.068101 52.393896 
L 327.13024 53.507216 
L 327.503759 53.898917 
L 328.40356 54.844462 
L 328.939417 55.407785 
L 329.674189 56.181709 
L 330.375075 56.920187 
L 330.942341 57.518955 
L 331.810734 58.435821 
L 332.208221 58.856201 
L 333.246392 59.954402 
L 333.472018 60.193447 
L 334.68205 61.47566 
L 334.733911 61.530693 
L 335.993476 62.86794 
L 336.117709 62.999865 
L 337.251236 64.205186 
L 337.553367 64.526472 
L 338.507586 65.542432 
L 338.989025 66.055041 
L 339.762653 66.879678 
L 340.424683 67.585372 
L 341.016556 68.216925 
L 341.860342 69.117284 
L 342.2694 69.554171 
L 343.296 70.650614 
" style="fill:none;stroke:#0033e6;stroke-width:1.5;"/>
   </g>
   <g id="LineCollection_22">
    <path clip-path="url(#pa39e5bac17)" d="M 79.237553 307.584 
L 79.134874 307.478332 
L 77.941199 306.246754 
L 77.699216 305.996787 
L 76.649207 304.909508 
L 76.263558 304.509733 
L 75.361273 303.572261 
L 74.827899 303.01754 
L 74.077107 302.235015 
L 73.392241 301.520569 
L 72.796433 300.897769 
L 71.956583 300.019175 
L 71.518986 299.560523 
L 70.520925 298.513704 
L 70.244514 298.223276 
L 69.085266 297.004491 
L 68.972778 296.88603 
L 67.703816 295.548784 
L 67.649608 295.491615 
L 66.437686 294.211538 
L 66.21395 293.975127 
L 65.173616 292.874291 
L 64.778291 292.45584 
L 63.911415 291.537045 
L 63.342633 290.934037 
L 62.650904 290.199799 
L 61.906975 289.409984 
L 61.391916 288.862553 
L 60.471317 287.883931 
L 60.134293 287.525307 
L 59.035658 286.356111 
L 58.877893 286.18806 
L 57.622676 284.850814 
L 57.6 284.826645 
" style="fill:none;stroke:#0028eb;stroke-width:1.5;"/>
    <path clip-path="url(#pa39e5bac17)" d="M 321.658447 41.472 
L 321.761126 41.577668 
L 322.954801 42.809246 
L 323.196784 43.059213 
L 324.246793 44.146492 
L 324.632442 44.546267 
L 325.534727 45.483739 
L 326.068101 46.03846 
L 326.818893 46.820985 
L 327.503759 47.535431 
L 328.099567 48.158231 
L 328.939417 49.036825 
L 329.377014 49.495477 
L 330.375075 50.542296 
L 330.651486 50.832724 
L 331.810734 52.051509 
L 331.923222 52.16997 
L 333.192184 53.507216 
L 333.246392 53.564385 
L 334.458314 54.844462 
L 334.68205 55.080873 
L 335.722384 56.181709 
L 336.117709 56.60016 
L 336.984585 57.518955 
L 337.553367 58.121963 
L 338.245096 58.856201 
L 338.989025 59.646016 
L 339.504084 60.193447 
L 340.424683 61.172069 
L 340.761707 61.530693 
L 341.860342 62.699889 
L 342.018107 62.86794 
L 343.273324 64.205186 
L 343.296 64.229355 
" style="fill:none;stroke:#0028eb;stroke-width:1.5;"/>
   </g>
   <g id="LineCollection_23">
    <path clip-path="url(#pa39e5bac17)" d="M 73.235164 307.584 
L 71.956583 306.255658 
L 71.948029 306.246754 
L 70.665264 304.909508 
L 70.520925 304.758873 
L 69.38589 303.572261 
L 69.085266 303.257671 
L 68.109602 302.235015 
L 67.649608 301.752445 
L 66.836148 300.897769 
L 66.21395 300.243534 
L 65.565291 299.560523 
L 64.778291 298.73127 
L 64.296804 298.223276 
L 63.342633 297.215967 
L 63.030471 296.88603 
L 61.906975 295.697932 
L 61.766089 295.548784 
L 60.503603 294.211538 
L 60.471317 294.177313 
L 59.243287 292.874291 
L 59.035658 292.653913 
L 57.98435 291.537045 
L 57.6 291.12862 
" style="fill:none;stroke:#001ef0;stroke-width:1.5;"/>
    <path clip-path="url(#pa39e5bac17)" d="M 327.660836 41.472 
L 328.939417 42.800342 
L 328.947971 42.809246 
L 330.230736 44.146492 
L 330.375075 44.297127 
L 331.51011 45.483739 
L 331.810734 45.798329 
L 332.786398 46.820985 
L 333.246392 47.303555 
L 334.059852 48.158231 
L 334.68205 48.812466 
L 335.330709 49.495477 
L 336.117709 50.32473 
L 336.599196 50.832724 
L 337.553367 51.840033 
L 337.865529 52.16997 
L 338.989025 53.358068 
L 339.129911 53.507216 
L 340.392397 54.844462 
L 340.424683 54.878687 
L 341.652713 56.181709 
L 341.860342 56.402087 
L 342.91165 57.518955 
L 343.296 57.92738 
" style="fill:none;stroke:#001ef0;stroke-width:1.5;"/>
   </g>
   <g id="LineCollection_24">
    <path clip-path="url(#pa39e5bac17)" d="M 67.36361 307.584 
L 66.21395 306.383459 
L 66.083218 306.246754 
L 64.80598 304.909508 
L 64.778291 304.880478 
L 63.532109 303.572261 
L 63.342633 303.373162 
L 62.26076 302.235015 
L 61.906975 301.862507 
L 60.991706 300.897769 
L 60.471317 300.34883 
L 59.724733 299.560523 
L 59.035658 298.832441 
L 58.459636 298.223276 
L 57.6 297.313634 
" style="fill:none;stroke:#0014f5;stroke-width:1.5;"/>
    <path clip-path="url(#pa39e5bac17)" d="M 333.53239 41.472 
L 334.68205 42.672541 
L 334.812782 42.809246 
L 336.09002 44.146492 
L 336.117709 44.175522 
L 337.363891 45.483739 
L 337.553367 45.682838 
L 338.63524 46.820985 
L 338.989025 47.193493 
L 339.904294 48.158231 
L 340.424683 48.70717 
L 341.171267 49.495477 
L 341.860342 50.223559 
L 342.436364 50.832724 
L 343.296 51.742366 
" style="fill:none;stroke:#0014f5;stroke-width:1.5;"/>
   </g>
   <g id="LineCollection_25">
    <path clip-path="url(#pa39e5bac17)" d="M 61.603656 307.584 
L 60.471317 306.397697 
L 60.327378 306.246754 
L 59.053697 304.909508 
L 59.035658 304.890541 
L 57.782898 303.572261 
L 57.6 303.379616 
" style="fill:none;stroke:#000afa;stroke-width:1.5;"/>
    <path clip-path="url(#pa39e5bac17)" d="M 339.292344 41.472 
L 340.424683 42.658303 
L 340.568622 42.809246 
L 341.842303 44.146492 
L 341.860342 44.165459 
L 343.113102 45.483739 
L 343.296 45.676384 
" style="fill:none;stroke:#000afa;stroke-width:1.5;"/>
   </g>
   <g id="LineCollection_26"/>
   <g id="patch_3">
    <path d="M 57.6 307.584 
L 57.6 41.472 
" style="fill:none;stroke:#000000;stroke-linecap:square;stroke-linejoin:miter;stroke-width:0.8;"/>
   </g>
   <g id="patch_4">
    <path d="M 343.296 307.584 
L 343.296 41.472 
" style="fill:none;stroke:#000000;stroke-linecap:square;stroke-linejoin:miter;stroke-width:0.8;"/>
   </g>
   <g id="patch_5">
    <path d="M 57.6 307.584 
L 343.296 307.584 
" style="fill:none;stroke:#000000;stroke-linecap:square;stroke-linejoin:miter;stroke-width:0.8;"/>
   </g>
   <g id="patch_6">
    <path d="M 57.6 41.472 
L 343.296 41.472 
" style="fill:none;stroke:#000000;stroke-linecap:square;stroke-linejoin:miter;stroke-width:0.8;"/>
   </g>
  </g>
  <g id="axes_2">
   <g id="patch_7">
    <path clip-path="url(#p474dfc1072)" d="M 361.152 307.584 
L 361.152 296.93952 
L 361.152 52.11648 
L 361.152 41.472 
L 374.4576 41.472 
L 374.4576 52.11648 
L 374.4576 296.93952 
L 374.4576 307.584 
z
" style="fill:#ffffff;stroke:#ffffff;stroke-linejoin:miter;stroke-width:0.01;"/>
   </g>
   <g id="matplotlib.axis_3"/>
   <g id="matplotlib.axis_4">
    <g id="ytick_10">
     <g id="line2d_19">
      <defs>
       <path d="M 0 0 
L 3.5 0 
" id="m627d8691bc" style="stroke:#000000;stroke-width:0.8;"/>
      </defs>
      <g>
       <use style="stroke:#000000;stroke-width:0.8;" x="374.4576" xlink:href="#m627d8691bc" y="307.584"/>
      </g>
     </g>
     <g id="text_19">
      <!-- 0 -->
      <g transform="translate(381.4576 311.383219)scale(0.1 -0.1)">
       <use xlink:href="#DejaVuSans-48"/>
      </g>
     </g>
    </g>
    <g id="ytick_11">
     <g id="line2d_20">
      <g>
       <use style="stroke:#000000;stroke-width:0.8;" x="374.4576" xlink:href="#m627d8691bc" y="275.65056"/>
      </g>
     </g>
     <g id="text_20">
      <!-- 6 -->
      <defs>
       <path d="M 33.015625 40.375 
Q 26.375 40.375 22.484375 35.828125 
Q 18.609375 31.296875 18.609375 23.390625 
Q 18.609375 15.53125 22.484375 10.953125 
Q 26.375 6.390625 33.015625 6.390625 
Q 39.65625 6.390625 43.53125 10.953125 
Q 47.40625 15.53125 47.40625 23.390625 
Q 47.40625 31.296875 43.53125 35.828125 
Q 39.65625 40.375 33.015625 40.375 
z
M 52.59375 71.296875 
L 52.59375 62.3125 
Q 48.875 64.0625 45.09375 64.984375 
Q 41.3125 65.921875 37.59375 65.921875 
Q 27.828125 65.921875 22.671875 59.328125 
Q 17.53125 52.734375 16.796875 39.40625 
Q 19.671875 43.65625 24.015625 45.921875 
Q 28.375 48.1875 33.59375 48.1875 
Q 44.578125 48.1875 50.953125 41.515625 
Q 57.328125 34.859375 57.328125 23.390625 
Q 57.328125 12.15625 50.6875 5.359375 
Q 44.046875 -1.421875 33.015625 -1.421875 
Q 20.359375 -1.421875 13.671875 8.265625 
Q 6.984375 17.96875 6.984375 36.375 
Q 6.984375 53.65625 15.1875 63.9375 
Q 23.390625 74.21875 37.203125 74.21875 
Q 40.921875 74.21875 44.703125 73.484375 
Q 48.484375 72.75 52.59375 71.296875 
z
" id="DejaVuSans-54"/>
      </defs>
      <g transform="translate(381.4576 279.449779)scale(0.1 -0.1)">
       <use xlink:href="#DejaVuSans-54"/>
      </g>
     </g>
    </g>
    <g id="ytick_12">
     <g id="line2d_21">
      <g>
       <use style="stroke:#000000;stroke-width:0.8;" x="374.4576" xlink:href="#m627d8691bc" y="243.71712"/>
      </g>
     </g>
     <g id="text_21">
      <!-- 12 -->
      <g transform="translate(381.4576 247.516339)scale(0.1 -0.1)">
       <use xlink:href="#DejaVuSans-49"/>
       <use x="63.623047" xlink:href="#DejaVuSans-50"/>
      </g>
     </g>
    </g>
    <g id="ytick_13">
     <g id="line2d_22">
      <g>
       <use style="stroke:#000000;stroke-width:0.8;" x="374.4576" xlink:href="#m627d8691bc" y="211.78368"/>
      </g>
     </g>
     <g id="text_22">
      <!-- 18 -->
      <defs>
       <path d="M 31.78125 34.625 
Q 24.75 34.625 20.71875 30.859375 
Q 16.703125 27.09375 16.703125 20.515625 
Q 16.703125 13.921875 20.71875 10.15625 
Q 24.75 6.390625 31.78125 6.390625 
Q 38.8125 6.390625 42.859375 10.171875 
Q 46.921875 13.96875 46.921875 20.515625 
Q 46.921875 27.09375 42.890625 30.859375 
Q 38.875 34.625 31.78125 34.625 
z
M 21.921875 38.8125 
Q 15.578125 40.375 12.03125 44.71875 
Q 8.5 49.078125 8.5 55.328125 
Q 8.5 64.0625 14.71875 69.140625 
Q 20.953125 74.21875 31.78125 74.21875 
Q 42.671875 74.21875 48.875 69.140625 
Q 55.078125 64.0625 55.078125 55.328125 
Q 55.078125 49.078125 51.53125 44.71875 
Q 48 40.375 41.703125 38.8125 
Q 48.828125 37.15625 52.796875 32.3125 
Q 56.78125 27.484375 56.78125 20.515625 
Q 56.78125 9.90625 50.3125 4.234375 
Q 43.84375 -1.421875 31.78125 -1.421875 
Q 19.734375 -1.421875 13.25 4.234375 
Q 6.78125 9.90625 6.78125 20.515625 
Q 6.78125 27.484375 10.78125 32.3125 
Q 14.796875 37.15625 21.921875 38.8125 
z
M 18.3125 54.390625 
Q 18.3125 48.734375 21.84375 45.5625 
Q 25.390625 42.390625 31.78125 42.390625 
Q 38.140625 42.390625 41.71875 45.5625 
Q 45.3125 48.734375 45.3125 54.390625 
Q 45.3125 60.0625 41.71875 63.234375 
Q 38.140625 66.40625 31.78125 66.40625 
Q 25.390625 66.40625 21.84375 63.234375 
Q 18.3125 60.0625 18.3125 54.390625 
z
" id="DejaVuSans-56"/>
      </defs>
      <g transform="translate(381.4576 215.582899)scale(0.1 -0.1)">
       <use xlink:href="#DejaVuSans-49"/>
       <use x="63.623047" xlink:href="#DejaVuSans-56"/>
      </g>
     </g>
    </g>
    <g id="ytick_14">
     <g id="line2d_23">
      <g>
       <use style="stroke:#000000;stroke-width:0.8;" x="374.4576" xlink:href="#m627d8691bc" y="179.85024"/>
      </g>
     </g>
     <g id="text_23">
      <!-- 24 -->
      <g transform="translate(381.4576 183.649459)scale(0.1 -0.1)">
       <use xlink:href="#DejaVuSans-50"/>
       <use x="63.623047" xlink:href="#DejaVuSans-52"/>
      </g>
     </g>
    </g>
    <g id="ytick_15">
     <g id="line2d_24">
      <g>
       <use style="stroke:#000000;stroke-width:0.8;" x="374.4576" xlink:href="#m627d8691bc" y="147.9168"/>
      </g>
     </g>
     <g id="text_24">
      <!-- 30 -->
      <g transform="translate(381.4576 151.716019)scale(0.1 -0.1)">
       <use xlink:href="#DejaVuSans-51"/>
       <use x="63.623047" xlink:href="#DejaVuSans-48"/>
      </g>
     </g>
    </g>
    <g id="ytick_16">
     <g id="line2d_25">
      <g>
       <use style="stroke:#000000;stroke-width:0.8;" x="374.4576" xlink:href="#m627d8691bc" y="115.98336"/>
      </g>
     </g>
     <g id="text_25">
      <!-- 36 -->
      <g transform="translate(381.4576 119.782579)scale(0.1 -0.1)">
       <use xlink:href="#DejaVuSans-51"/>
       <use x="63.623047" xlink:href="#DejaVuSans-54"/>
      </g>
     </g>
    </g>
    <g id="ytick_17">
     <g id="line2d_26">
      <g>
       <use style="stroke:#000000;stroke-width:0.8;" x="374.4576" xlink:href="#m627d8691bc" y="84.04992"/>
      </g>
     </g>
     <g id="text_26">
      <!-- 42 -->
      <g transform="translate(381.4576 87.849139)scale(0.1 -0.1)">
       <use xlink:href="#DejaVuSans-52"/>
       <use x="63.623047" xlink:href="#DejaVuSans-50"/>
      </g>
     </g>
    </g>
    <g id="ytick_18">
     <g id="line2d_27">
      <g>
       <use style="stroke:#000000;stroke-width:0.8;" x="374.4576" xlink:href="#m627d8691bc" y="52.11648"/>
      </g>
     </g>
     <g id="text_27">
      <!-- 48 -->
      <g transform="translate(381.4576 55.915699)scale(0.1 -0.1)">
       <use xlink:href="#DejaVuSans-52"/>
       <use x="63.623047" xlink:href="#DejaVuSans-56"/>
      </g>
     </g>
    </g>
   </g>
   <g id="LineCollection_27">
    <path clip-path="url(#p474dfc1072)" d="M 361.152 307.584 
L 374.4576 307.584 
" style="fill:none;stroke:#00ff80;stroke-width:1.5;"/>
    <path clip-path="url(#p474dfc1072)" d="M 361.152 296.93952 
L 374.4576 296.93952 
" style="fill:none;stroke:#00f584;stroke-width:1.5;"/>
    <path clip-path="url(#p474dfc1072)" d="M 361.152 286.29504 
L 374.4576 286.29504 
" style="fill:none;stroke:#00eb8a;stroke-width:1.5;"/>
    <path clip-path="url(#p474dfc1072)" d="M 361.152 275.65056 
L 374.4576 275.65056 
" style="fill:none;stroke:#00e18e;stroke-width:1.5;"/>
    <path clip-path="url(#p474dfc1072)" d="M 361.152 265.00608 
L 374.4576 265.00608 
" style="fill:none;stroke:#00d793;stroke-width:1.5;"/>
    <path clip-path="url(#p474dfc1072)" d="M 361.152 254.3616 
L 374.4576 254.3616 
" style="fill:none;stroke:#00cc99;stroke-width:1.5;"/>
    <path clip-path="url(#p474dfc1072)" d="M 361.152 243.71712 
L 374.4576 243.71712 
" style="fill:none;stroke:#00c29e;stroke-width:1.5;"/>
    <path clip-path="url(#p474dfc1072)" d="M 361.152 233.07264 
L 374.4576 233.07264 
" style="fill:none;stroke:#00b8a3;stroke-width:1.5;"/>
    <path clip-path="url(#p474dfc1072)" d="M 361.152 222.42816 
L 374.4576 222.42816 
" style="fill:none;stroke:#00aea8;stroke-width:1.5;"/>
    <path clip-path="url(#p474dfc1072)" d="M 361.152 211.78368 
L 374.4576 211.78368 
" style="fill:none;stroke:#00a3ae;stroke-width:1.5;"/>
    <path clip-path="url(#p474dfc1072)" d="M 361.152 201.1392 
L 374.4576 201.1392 
" style="fill:none;stroke:#0099b2;stroke-width:1.5;"/>
    <path clip-path="url(#p474dfc1072)" d="M 361.152 190.49472 
L 374.4576 190.49472 
" style="fill:none;stroke:#008fb8;stroke-width:1.5;"/>
    <path clip-path="url(#p474dfc1072)" d="M 361.152 179.85024 
L 374.4576 179.85024 
" style="fill:none;stroke:#0085bc;stroke-width:1.5;"/>
    <path clip-path="url(#p474dfc1072)" d="M 361.152 169.20576 
L 374.4576 169.20576 
" style="fill:none;stroke:#007ac2;stroke-width:1.5;"/>
    <path clip-path="url(#p474dfc1072)" d="M 361.152 158.56128 
L 374.4576 158.56128 
" style="fill:none;stroke:#0070c7;stroke-width:1.5;"/>
    <path clip-path="url(#p474dfc1072)" d="M 361.152 147.9168 
L 374.4576 147.9168 
" style="fill:none;stroke:#0066cc;stroke-width:1.5;"/>
    <path clip-path="url(#p474dfc1072)" d="M 361.152 137.27232 
L 374.4576 137.27232 
" style="fill:none;stroke:#005cd1;stroke-width:1.5;"/>
    <path clip-path="url(#p474dfc1072)" d="M 361.152 126.62784 
L 374.4576 126.62784 
" style="fill:none;stroke:#0051d6;stroke-width:1.5;"/>
    <path clip-path="url(#p474dfc1072)" d="M 361.152 115.98336 
L 374.4576 115.98336 
" style="fill:none;stroke:#0047dc;stroke-width:1.5;"/>
    <path clip-path="url(#p474dfc1072)" d="M 361.152 105.33888 
L 374.4576 105.33888 
" style="fill:none;stroke:#003de0;stroke-width:1.5;"/>
    <path clip-path="url(#p474dfc1072)" d="M 361.152 94.6944 
L 374.4576 94.6944 
" style="fill:none;stroke:#0033e6;stroke-width:1.5;"/>
    <path clip-path="url(#p474dfc1072)" d="M 361.152 84.04992 
L 374.4576 84.04992 
" style="fill:none;stroke:#0028eb;stroke-width:1.5;"/>
    <path clip-path="url(#p474dfc1072)" d="M 361.152 73.40544 
L 374.4576 73.40544 
" style="fill:none;stroke:#001ef0;stroke-width:1.5;"/>
    <path clip-path="url(#p474dfc1072)" d="M 361.152 62.76096 
L 374.4576 62.76096 
" style="fill:none;stroke:#0014f5;stroke-width:1.5;"/>
    <path clip-path="url(#p474dfc1072)" d="M 361.152 52.11648 
L 374.4576 52.11648 
" style="fill:none;stroke:#000afa;stroke-width:1.5;"/>
    <path clip-path="url(#p474dfc1072)" d="M 361.152 41.472 
L 374.4576 41.472 
" style="fill:none;stroke:#0000ff;stroke-width:1.5;"/>
   </g>
   <g id="patch_8">
    <path d="M 361.152 307.584 
L 361.152 296.93952 
L 361.152 52.11648 
L 361.152 41.472 
L 374.4576 41.472 
L 374.4576 52.11648 
L 374.4576 296.93952 
L 374.4576 307.584 
z
" style="fill:none;stroke:#000000;stroke-linejoin:miter;stroke-width:0.8;"/>
   </g>
  </g>
 </g>
 <defs>
  <clipPath id="pa39e5bac17">
   <rect height="266.112" width="285.696" x="57.6" y="41.472"/>
  </clipPath>
  <clipPath id="p474dfc1072">
   <rect height="266.112" width="13.3056" x="361.152" y="41.472"/>
  </clipPath>
 </defs>
</svg>
